<svg xmlns="http://www.w3.org/2000/svg" xmlns:xlink="http://www.w3.org/1999/xlink" width="1906" height="1223" viewBox="0 0 1906 1223"><defs><style>.a{fill:none;}.b{opacity:0.5;mix-blend-mode:exclusion;isolation:isolate;}.c{clip-path:url(#a);}.d{fill:#080708;}.e{fill:#2d2242;}.f{fill:#cc45a8;}</style><clipPath id="a"><rect class="a" width="1906" height="1223"/></clipPath></defs><g class="b" transform="translate(0 0)"><g transform="translate(0 0)"><g class="c"><g transform="translate(-456.422 239.424)"><path class="d" d="M630.709,821.662a636.881,636.881,0,0,0,249.21-106.586c30.98-22.022,62.913-54.052,57.86-91.954-3.6-26.916-24.784-47.054-40.4-69.124-20.876-29.558-25.337-86.5,24.326-88.651,17.673-.783,34.487,6.8,51.474,11.525,36.76,10.049,74.947,7.244,110.574-8.124,9.532-4.184,18.95-9.665,24.269-18.6,6.215-10.448,5.586-23.515,8.789-35.26,16.719-61.417,134.366-76.049,185.554-65.063,14.832,3.156,31.78,10.057,35.04,24.958,4.366,20.016-19.484,36.556-19.179,57.061.248,16.076,15.023,27.723,29.035,35.406,59.29,32.519,132.231,38.759,196.115,16.761,28.215-9.788,56.888-24.909,86.19-19.257,33.725,6.509,56.736,39.37,66.02,72.672s8.465,68.513,14.718,102.622c16.243,88.357,102.452,152.588,168.739,203.556,108.667,83.537,237.771,168.835,367.943,213.172,66.726,22.781,136.978,32.372,206.773,41.842,9.532,1.3,19.064,2.447,28.387.171,21.467-5.53,33.306-28.286,41.294-49.109a608.282,608.282,0,0,0,39.749-244.248c-.381-8.564-1.182-17.764-6.635-24.469s-13.459-8.809-21.314-10.815c-96.352-24.665-199.49-15.636-294.412-45.732-54.677-17.128-104.7-46.931-151.924-79.622-41.255-28.58-82.415-61.686-102.28-107.957-8.407-19.575-12.716-41.108-23.43-59.557-41.179-70.96-131.544-48.522-175.964-111.676-7.492-10.644-13.726-22.291-22.877-31.589-20.685-21.214-52.1-26.549-81.31-30.831l-117.856-17.128c-15.251-2.227-31.876-5.212-41.751-17.128-6.406-7.708-8.808-17.936-10.809-27.772-5.109-25.35-7.168-55.838,12.163-72.819,11.629-10.228,27.91-12.479,42.761-16.712s30.751-12.846,34.163-28.017c2.135-9.567-1.315-19.453-5.224-28.457-26.69-61.466-77.687-110.893-137.569-140.3S1330.7-84.639,1264.3-79.06c-25.623,2.129-51.474,6.7-74.351,18.621-77.554,40.471-18.226,117.744-26.1,181.8-6.406,51.947-60.491,84.613-111.6,94.181S947.521,219.9,897.82,235.291C865.277,245.4,836.013,263.9,804.71,277.4c-32.409,13.947-68.861,24.2-104.13,24.126-36.68,0-83.064,11.623-118.752,2.447-24.1-6.24-43.2-24.126-63.961-37.951-55.287-36.7-127.96-45.243-190.034-22.193-49.567,18.376-90.766,54.786-139.895,74.214-58.013,22.927-105.56,4.894-163.325,7.561-71.587,3.181-143.155,6.582-214.818,6.166C-249,526.764-255.271,737.588-208.125,935.785c5.719,23.979,13.193,49.4,32.124,65.063,15.423,12.748,35.975,16.859,55.668,20.113A1261.9,1261.9,0,0,0,437.815,986.7c26.8-7.879,53.9-16.932,76.105-33.938,29.3-22.438,47.223-56.278,70.176-85.323s56.354-54.933,92.9-50.65Z" transform="translate(239.41 80.53)"/></g><g transform="translate(-408.382 111.504)"><path class="d" d="M218.839,503.088c26.976-16.076,52.122-36.165,81.977-46.026,74.351-24.689,152,19.8,228.964,34.648,45.755,8.809,92.748,7.023,139.17,3.646a2085.422,2085.422,0,0,0,262.8-36.092c39.921-8.1,84.265-20.75,103.844-56.719,17.844-32.813,8.56-73.823,18.283-109.938,11.229-41.719,47.547-73.064,87.7-88.088s84.169-16.3,127.064-14.926c134.213,4.184,279.637,38.832,362.071,145.761,13.5,17.52,25.337,37.731,26.137,59.9,1.659,46.491-42.914,79.206-82.435,103.136,17.292,46.662,71.4,67.167,120.354,74.214s101.518,7.1,142.85,34.4c31.38,20.75,51.912,54.639,81.6,77.762,25.108,19.575,55.916,30.757,80.642,50.8,23.983,19.428,40.931,46.026,60.587,69.883,119.591,145.174,328.423,177.13,515.368,165.385-20.971-81.922-44.84-168.835-107.028-225.627a281.906,281.906,0,0,0-57.918-39.933c-56.354-30.146-118.828-46.491-180.635-62.444L1776.5,525.379c-16.8-4.355-34.316-9.151-46.9-21.215-13.669-13.189-18.931-32.788-21.962-51.6-8.388-51.923-4.556-106.488-23.354-155.6-37.9-98.927-151.581-141.919-254-166.608-115.683-27.919-236.4-46.882-353.435-25.423-19.064,3.5-38.815,8.564-52.58,22.193-12.792,12.626-18.4,30.61-25.413,47.2C945.708,299.679,797.234,358.453,661.915,357.156s-265.567-48.6-398.351-74.9a1297.756,1297.756,0,0,0-475.123-5.163c-4.366.758-1.449,150.777-1.582,165.238-.381,39.664-9.532,102.231,33.382,124.791,25.775,13.629,61.9-.979,89.107-2.643,50.349-3.083,100.26-1.37,150.418-8.686C115.358,547.768,170.244,532.01,218.839,503.088Z" transform="translate(214.212 -95.682)"/></g><g transform="translate(349.203 780.838)"><path class="d" d="M485.188,333.092c40.817-31,76.124-69.736,120.716-94.915,31.7-17.887,72.044-34.012,78.965-69.956,5.719-29.363-14.527-62.493.82-88.088,10.638-17.74,33.5-22.78,50.368-34.623C755.9,31.587,767.208,8.293,785.281-7.905c22.877-20.554,56.793-27.968,86.133-18.841,4.442,1.37,9.265,3.6,10.829,7.977,1.906,5.432-1.906,11.035-3.127,16.688C876.1,12.6,891.355,23.929,904.758,30.339A438.947,438.947,0,0,0,1155.13,69c31.552-4.453,71.225-8.907,88.02,18.352,12.335,19.967,4.194,45.634,3.165,69.124-2.44,54.981,35.974,102.769,76.1,140.157a759.5,759.5,0,0,0,256.3,157.017c-15.251,19.575-42.189,27.16-66.916,25.056s-47.947-12.234-70.653-22.389c-57.384-25.472-115.054-51.091-167.576-85.641-32.41-21.312-63.389-46.711-83.083-80.282-19.35-32.984-26.576-71.767-29.321-109.963-1.335-18.719-2.688-39.737-16.681-52.143-8.751-7.757-20.8-10.4-32.409-11.892-70-8.931-144.012,14.192-210.223-10.4-27.967-10.4-52.77-28.873-81.6-36.581s-65.7,0-76.963,27.943c-12.449,30.708,12.811,63.619,13.631,96.848.8,32.788-22.877,61.71-50.673,78.936s-59.767,25.79-89.6,39.15c-85.065,37.976-149.865,113.022-235.426,149.9a300.969,300.969,0,0,1-198.06,13.482c6.158,1.713,20.189-19.869,25.165-22.829,9.952-5.946,23.621-7.781,34.754-11.109,28.6-8.515,57.022-17.422,85.027-27.576C383.613,394.044,437.89,369.012,485.188,333.092Z" transform="translate(-183.17 30.598)"/></g><g transform="translate(103.405 617.357)"><path class="e" d="M220.77,179.369c-2.478,5.824-9.132,1.2-7.74-4.7C215.051,168.089,224.106,172.249,220.77,179.369Z" transform="translate(89.523 4.26)"/><path class="e" d="M193.618,199.039c-4.232,1.542-6.024-6.411-2.4-8.833C195.582,187.905,199.032,197.448,193.618,199.039Z" transform="translate(68.156 -58.132)"/><path class="e" d="M174.1,161.937c-.9-4.135,3.813-5.824,5.224-2.3C180.662,164.017,175,167.222,174.1,161.937Z" transform="translate(54.308 55.018)"/><path class="e" d="M149.586,181.868c.248-5.408,6.406-4.894,6.978,0C156.792,187.691,148.976,188.67,149.586,181.868Z" transform="translate(32.155 -16.517)"/><path class="e" d="M116.969,169.414c4.042-1.3,5.548,6.337,2.04,8.491C114.8,179.886,111.86,170.662,116.969,169.414Z" transform="translate(0.163 13.285)"/><path class="e" d="M90.059,190.308c1.906,4.184-2.879,7.732-5.2,4.38C82.452,190.5,87.924,184.851,90.059,190.308Z" transform="translate(-27.031 -50.527)"/><path class="e" d="M71.99,203.106c-1.773,4.184-6.558.905-5.567-3.328C67.93,195.031,74.45,197.992,71.99,203.106Z" transform="translate(-43.317 -82.386)"/><path class="e" d="M55.327,251.77c-3.393-4.625,1.906-11.035,5.624-7.659C65.012,248.565,59.369,257.937,55.327,251.77Z" transform="translate(-54.24 -243.167)"/></g><g transform="translate(549.237 716.268)"><path class="e" d="M290.849,205.049c2.44,1.052,1.258,5.677-1.125,5.31C287,209.674,287.913,203.581,290.849,205.049Z" transform="translate(-288.096 -204.822)"/></g><g transform="translate(573.84 754.316)"><path class="e" d="M304.164,188.082c3.984-.294,4.328,7.194.763,8.417C300.694,197.429,299.093,188.106,304.164,188.082Z" transform="translate(-301.001 -188.073)"/></g><g transform="translate(665.309 764.992)"><path class="e" d="M350.505,189.952c-2.211-.294-1.906-4.453.191-4.722C353.079,185.23,353.289,190.564,350.505,189.952Z" transform="translate(-348.98 -185.23)"/></g><g transform="translate(625.539 791.471)"><path class="e" d="M358.794,159.228c-.477-4.625,4.8-5.579,5.929-1.468C365.677,162.629,359.214,165.125,358.794,159.228Z" transform="translate(-300.341 -110.783)"/><path class="e" d="M329.589,173.576c3.565-4.894,9.227,1.737,6.711,7.1C332.944,186.5,324.8,179.5,329.589,173.576Z" transform="translate(-328.119 -171.866)"/></g><g transform="translate(726.195 604.868)"><path class="e" d="M581.88,253.509c-.5-3.548,3.546-4.478,4.518-1.37C587.237,255.858,582.28,258.011,581.88,253.509Z" transform="translate(-198.794 -250.255)"/><path class="e" d="M565.185,246.516c1.22,3.377-2.612,5.726-4.232,2.961C559.294,246.051,563.774,242.136,565.185,246.516Z" transform="translate(-218.054 -231.003)"/><path class="e" d="M536.637,250.848c-3.432,4.894-8.9-1.664-6.482-6.827C533.4,238.393,541.231,245.147,536.637,250.848Z" transform="translate(-246.185 -226.354)"/><path class="e" d="M526.761,239.244c-.248,5.677-6.749,5.236-7.359,0C519.155,233.224,527.391,232.172,526.761,239.244Z" transform="translate(-255.393 -198.576)"/><path class="e" d="M495.409,206.962c2.345.783,1.468,5.212-.8,5.09C492.015,211.562,492.473,205.763,495.409,206.962Z" transform="translate(-279.403 -99.935)"/><path class="e" d="M483.78,194.158c.648-3.67,4.842-2.447,4.785,1.028C488.127,199.2,482.77,198.709,483.78,194.158Z" transform="translate(-287.792 -49.4)"/><path class="e" d="M457.007,221.556c-1.811,2.447-4.652-.905-3.374-3.6C455.348,215.022,459.428,218.595,457.007,221.556Z" transform="translate(-315.295 -134.911)"/><path class="e" d="M442.707,181.112c-2.421,1.493-4.156-3.034-2.192-4.894C442.973,174.138,445.833,179.4,442.707,181.112Z" transform="translate(-327.666 6.711)"/><path class="e" d="M403.861,191.376c2.669-5.53,9-.563,7.4,5.114C408.913,202.827,400.2,198.129,403.861,191.376Z" transform="translate(-360.922 -43.731)"/><path class="e" d="M386.2,176.735c2.612,3.45-1.315,8.368-4.194,5.873C378.9,179.329,383.1,172.16,386.2,176.735Z" transform="translate(-380.917 6.023)"/></g><g transform="translate(1264.165 469.683)"><path class="e" d="M703.053,306.867c1.735-5.824,8.388-2.594,7.626,3.132C709.4,316.483,700.536,314.061,703.053,306.867Z" transform="translate(-627.295 -303.789)"/><path class="e" d="M693.166,291.687c2.879-.269,3.2,5.138.629,6.093C690.745,298.514,689.525,291.785,693.166,291.687Z" transform="translate(-637.883 -258.218)"/><path class="e" d="M665.843,276.382c4.8-3.059,8.331,5.995,4.4,9.959C665.367,290.354,659.571,279.832,665.843,276.382Z" transform="translate(-663.102 -208.682)"/></g><g transform="translate(450.339 809.041)"><path class="e" d="M348.482,171.8c-1.906-6.191,5.2-9.788,7.8-4.527C358.834,173.609,350.484,179.849,348.482,171.8Z" transform="translate(-134.751 -164.732)"/><path class="e" d="M327.177,139.428c2.326.245,2.1,4.625,0,4.894C324.584,144.542,324.241,138.938,327.177,139.428Z" transform="translate(-155.654 -71.458)"/><path class="e" d="M302.811,149.621c2.4-2.667,5.471,1.835,3.66,4.894C304.165,157.7,299.627,152.777,302.811,149.621Z" transform="translate(-176.852 -105.704)"/><path class="e" d="M294.7,149.359c-3.946-.734-3.127-8.173.572-8.466C299.541,141.088,299.636,150.631,294.7,149.359Z" transform="translate(-185.573 -80.263)"/><path class="e" d="M277.606,127.155c-3.184-1.272-1.773-7.341,1.335-6.9C282.468,121.111,281.572,129.039,277.606,127.155Z" transform="translate(-200.338 -7.678)"/><path class="e" d="M272.942,109.851c3.26,1.884,1.106,8.026-2.135,7.1C267.223,115.381,268.958,107.183,272.942,109.851Z" transform="translate(-206.636 29.422)"/><path class="e" d="M236.849,114c1.6-2.3,4.251.661,3.146,3.156C238.508,119.871,234.733,116.788,236.849,114Z" transform="translate(-236.22 18.839)"/></g><g transform="translate(439.489 842.536)"><path class="e" d="M248.97,159.409c-3.146-3.45.763-9.372,4.118-7.023C256.767,155.494,252.745,164.034,248.97,159.409Z" transform="translate(-214.861 -151.85)"/><path class="e" d="M231.046,151.3c-1.906-3.352,1.906-7.047,4.156-4.453C237.585,150.145,233.334,155.724,231.046,151.3Z" transform="translate(-230.529 -129.642)"/></g><g transform="translate(117.37 775.763)"><path class="e" d="M241.467,156.851c.82-5.97,7.626-4.478,7.8,1.174C248.921,164.535,240.114,164.314,241.467,156.851Z" transform="translate(101.377 -89.884)"/><path class="e" d="M235.661,167.294c-3.317,5.016-9.075-1.2-6.806-6.558C231.944,154.839,240.122,161.225,235.661,167.294Z" transform="translate(89.606 -109.478)"/><path class="e" d="M209.331,181.566c1.906-4.894,7.378-1.346,6.406,3.5C214.192,190.522,206.719,187.512,209.331,181.566Z" transform="translate(71.878 -179.221)"/><path class="e" d="M198.826,157.976c-2.192-2.251.381-6.386,2.707-4.894C204.068,155.211,201.457,161.034,198.826,157.976Z" transform="translate(62.099 -85.405)"/><path class="e" d="M168.607,186.1c-4.175,3.475-8.2-4.38-4.9-8.564C167.882,173.134,174.1,182.065,168.607,186.1Z" transform="translate(29.92 -171.229)"/><path class="e" d="M145.359,140.94c1.906-2.789,5.147.807,3.813,3.842C147.4,147.962,142.8,144.219,145.359,140.94Z" transform="translate(13.704 -41.16)"/><path class="e" d="M136.511,164.961c.858,5.75-5.719,7.341-7.34,2.447C127.741,161.266,135.767,157.6,136.511,164.961Z" transform="translate(-0.439 -116.712)"/><path class="e" d="M126.389,155.751c-2.478,4.282-7.378-.343-5.719-4.894C122.881,145.963,129.744,150.563,126.389,155.751Z" transform="translate(-8.295 -74.249)"/><path class="e" d="M89.911,152.673c1.106-2.692,4.194-.636,3.584,2.08C92.561,157.811,88.367,155.976,89.911,152.673Z" transform="translate(-36.178 -79.564)"/><path class="e" d="M61.8,131.984c-1.354-4.209,3.432-6.778,5.281-3.3C68.914,132.987,63.29,137.391,61.8,131.984Z" transform="translate(-61.565 1.857)"/></g><g transform="translate(480.487 771.759)"><path class="e" d="M273.706,181.7c3.47,2.643.5,9.151-3.05,7.634C266.709,187.035,269.473,178.1,273.706,181.7Z" transform="translate(-236.88 -180.857)"/><path class="e" d="M252.122,177.927c-.8-4.258,4.061-5.775,5.414-2.1C258.776,180.2,252.885,183.383,252.122,177.927Z" transform="translate(-252.034 -154.719)"/></g><g transform="translate(52.417 808.67)"><path class="e" d="M32.118,168.3c1.716,3.254-1.906,6.509-4.023,3.988C25.942,169.06,30.117,164.044,32.118,168.3Z" transform="translate(-27.495 -166.663)"/></g><g transform="translate(81.873 619.31)"><path class="e" d="M206.067,249.694c-2.269,2.618-5.262-1.639-3.584-4.551C204.656,242.011,209.06,246.611,206.067,249.694Z" transform="translate(101.222 -244.096)"/><path class="e" d="M196.357,213.258c3.813-.954,4.9,6.191,1.582,7.977C193.974,222.825,191.5,214.139,196.357,213.258Z" transform="translate(93.679 -139.343)"/><path class="e" d="M187.692,214.542c1.125,5.7-5.4,7.854-7.264,2.936C178.693,211.533,186.567,207.324,187.692,214.542Z" transform="translate(81.449 -132.161)"/><path class="e" d="M155.278,228.4c-2.135,4.111-6.825.147-5.51-4.111C151.656,219.566,158.176,223.408,155.278,228.4Z" transform="translate(53.676 -169.997)"/><path class="e" d="M142.494,240.045c-1.906,3.573-6.024,0-4.785-3.768C139.463,232.166,145.144,235.714,142.494,240.045Z" transform="translate(42.745 -211.52)"/><path class="e" d="M111.058,208.325c4.842,1.028,3.679,10.155-.877,10.4C104.9,218.333,104.976,206.588,111.058,208.325Z" transform="translate(14.528 -124.353)"/><path class="e" d="M79.266,237.714c1.906-1.884,4.175,1.884,2.631,4.086C79.914,244.124,76.635,239.916,79.266,237.714Z" transform="translate(-10.911 -219.196)"/><path class="e" d="M58.865,222.31c2.764,4.527-2.4,9.787-5.6,6.313C49.885,224.17,55.6,216.315,58.865,222.31Z" transform="translate(-34.53 -164.716)"/><path class="e" d="M44.193,214.894c2.383-1.786,4.461,2.692,2.555,4.894C44.346,222.088,41.143,216.949,44.193,214.894Z" transform="translate(-42.945 -141.493)"/></g><g transform="translate(441.617 661.255)"><path class="e" d="M238.156,227.869c2.688,4.478-2.4,9.567-5.51,6.166C229.348,229.582,234.991,222,238.156,227.869Z" transform="translate(-231.645 -225.726)"/></g><g transform="translate(555.424 649.098)"><path class="e" d="M293.15,231.368c3.965-4.38,9,3.034,6.043,8C295.343,244.606,287.908,236.507,293.15,231.368Z" transform="translate(-291.341 -230.037)"/></g><g transform="translate(1532.283 251.526)"><path class="e" d="M896.265,394.242c3.2-.734,4.08,5.285,1.277,6.753C894.188,402.267,892.129,394.9,896.265,394.242Z" transform="translate(-721.96 -394.18)"/><path class="e" d="M889.177,372.219c1.048-6.019,7.931-4.062,7.874,1.664C896.479,380.49,887.519,379.707,889.177,372.219Z" transform="translate(-726.482 -308.685)"/><path class="e" d="M859.9,366.747c1.392,4.649-3.908,7.341-5.872,3.426C852.107,365.4,858.38,360.752,859.9,366.747Z" transform="translate(-758.483 -291.027)"/><path class="e" d="M833.054,376.189c-1.773-2.667,1.277-6.019,3.279-4.013C838.468,374.77,835.151,379.737,833.054,376.189Z" transform="translate(-777.653 -315.127)"/><path class="e" d="M834.288,336.72c.858-3.352,4.69-1.762,4.4,1.517C838.082,341.956,833.01,340.88,834.288,336.72Z" transform="translate(-776.237 -188.402)"/><path class="e" d="M804.826,340.631c-2.421-1.786-.381-6.386,2.1-5.334C809.688,336.863,807.8,343.127,804.826,340.631Z" transform="translate(-803.74 -189.793)"/></g><g transform="translate(1576.45 241.082)"><path class="e" d="M896.288,400.729c-2.44,0-2.421-4.625-.191-5.187C898.71,395.2,899.32,400.974,896.288,400.729Z" transform="translate(-765.692 -386.627)"/><path class="e" d="M862.465,389.12c4.9-2.594,7.893,6.607,3.813,10.155C861.283,402.8,856.136,391.958,862.465,389.12Z" transform="translate(-797.336 -369.072)"/><path class="e" d="M844.9,398.263c3.584,1.028,2.421,7.781-.991,7.708C839.962,405.408,840.419,396.624,844.9,398.263Z" transform="translate(-813.934 -398.06)"/><path class="e" d="M829.867,382.635c-4.042-.22-3.813-7.854-.114-8.638C834.119,373.631,834.977,383.272,829.867,382.635Z" transform="translate(-826.907 -315.852)"/></g><g transform="translate(1639.201 216.198)"><path class="e" d="M882.74,411.7c.172-3.548,4.213-3.254,4.594,0C887.487,415.516,882.358,416.177,882.74,411.7Z" transform="translate(-839.069 -409.147)"/><path class="e" d="M862.715,389.686c-3.489.343-3.908-6.239-.782-7.341C865.651,381.367,867.176,389.564,862.715,389.686Z" transform="translate(-859.823 -318.255)"/></g><g transform="translate(1731.274 233.936)"><path class="e" d="M997.4,405.1c-3.012.171-3.222-5.505-.515-6.411C1000.1,398.053,1001.228,405.149,997.4,405.1Z" transform="translate(-829.379 -391.486)"/><path class="e" d="M979.7,408.578c-3.489-1.272-2.078-7.854,1.3-7.561C984.849,401.849,984.01,410.487,979.7,408.578Z" transform="translate(-845.067 -401.008)"/><path class="e" d="M956.939,390.757c5.185-1.811,7.3,7.928,2.841,10.84C954.441,404.313,950.3,392.568,956.939,390.757Z" transform="translate(-866.971 -368.53)"/><path class="e" d="M939.6,358.68c-1.239-3.352,2.574-5.7,4.194-2.961C945.411,359.121,940.969,363.011,939.6,358.68Z" transform="translate(-879.807 -238.994)"/><path class="e" d="M912.144,357.361c-2.593,2.447-5.338-2.447-3.336-5.285C911.362,349.115,915.518,354.547,912.144,357.361Z" transform="translate(-908.119 -228.352)"/></g><g transform="translate(1737.302 286.947)"><path class="e" d="M953.557,386.936c-4-3.475,0-11.084,4.118-8.882C962.308,381.186,958.457,391.707,953.557,386.936Z" transform="translate(-874.46 -376.197)"/><path class="e" d="M934.526,380.7c2.345-2.912,5.719,1.493,3.984,4.7C936.337,388.845,931.419,384.172,934.526,380.7Z" transform="translate(-891.118 -379.745)"/><path class="e" d="M916.465,366.825c-2.593,3.45-6.558-1.395-4.709-5.187C914.253,357.551,919.973,362.665,916.465,366.825Z" transform="translate(-911.281 -313.168)"/></g><g transform="translate(1472.916 385.482)"><path class="e" d="M861.123,338.9c3.813-.489,4.48,6.778,1.029,8.2C858.054,348.226,856.2,339.222,861.123,338.9Z" transform="translate(-695.034 -338.88)"/><path class="e" d="M846.077,339.973c-1.239,4.722-6.615,2.447-6.2-2.153C840.777,332.608,847.888,334.15,846.077,339.973Z" transform="translate(-711.635 -323.898)"/><path class="e" d="M833.03,289.679c2.65.93,1.6,5.922-.953,5.726C829.16,294.793,829.808,288.26,833.03,289.679Z" transform="translate(-720.378 -166.21)"/><path class="e" d="M801.647,279.788c-2.211-3.5,1.773-7.708,4.309-5.065C808.624,278.149,804.258,284.388,801.647,279.788Z" transform="translate(-746.856 -114.086)"/><path class="e" d="M777.175,309c-.915,3.45-4.88,1.737-4.556-1.615C773.362,303.543,778.586,304.718,777.175,309Z" transform="translate(-772.6 -219.812)"/></g><g transform="translate(1379.456 538.276)"><path class="e" d="M760.5,260.716c3.7-3.646,7.874,3.279,5.052,7.487C761.933,272.657,755.642,264.974,760.5,260.716Z" transform="translate(-691.712 -220.256)"/><path class="e" d="M726.862,275.633c4.88-1.59,6.711,7.561,2.517,10.2C724.384,288.259,720.571,277.2,726.862,275.633Z" transform="translate(-723.577 -275.449)"/></g><g transform="translate(1309 683.091)"><path class="e" d="M691.615,221.729c-.381,3.842-4.785,3.132-4.995-.465C686.7,217.1,692.339,216.908,691.615,221.729Z" transform="translate(-686.62 -218.128)"/></g><g transform="translate(1170.604 763.864)"><path class="e" d="M616.284,185.236c2.764,0,2.879,5.114.381,5.848C613.71,191.7,612.776,185.089,616.284,185.236Z" transform="translate(-614.026 -185.234)"/></g><g transform="translate(1153.932 754.89)"><path class="e" d="M606.08,194.847c-2.783-4.5,2.345-9.788,5.548-6.362C615.04,192.889,609.378,200.793,606.08,194.847Z" transform="translate(-605.281 -187.388)"/></g><g transform="translate(1197.066 702.729)"><path class="e" d="M704.259,200.911c-1.906-2.153.515-5.8,2.593-4.306C709.12,198.636,706.585,203.823,704.259,200.911Z" transform="translate(-559.324 -161.722)"/><path class="e" d="M685.55,215.074c-1.906-4.4,3.165-7.9,5.49-4.355C693.423,215.148,687.647,220.8,685.55,215.074Z" transform="translate(-576.036 -209.26)"/><path class="e" d="M677.312,193.4c2.993-3.059,6.5,2.447,4.232,6.068C678.628,203.19,673.366,196.975,677.312,193.4Z" transform="translate(-584.404 -151.399)"/><path class="e" d="M659.214,208.55c-2.211,1.493-3.927-2.643-2.154-4.527C659.29,202.09,662.074,206.862,659.214,208.55Z" transform="translate(-602.147 -186.709)"/><path class="e" d="M627.913,202.071c0-6.46,7.34-6.582,8.331-.71C636.893,208.262,627.609,210.244,627.913,202.071Z" transform="translate(-627.906 -169.391)"/></g><g transform="translate(1374.147 726.676)"><path class="e" d="M720.826,204.217c-.61-6.753,7.092-7.977,8.674-1.982C730.721,209.38,721.189,212.83,720.826,204.217Z" transform="translate(-720.792 -198.37)"/></g><g transform="translate(1744.389 259.788)"><path class="e" d="M1043.488,391.4c2.879-3.939,7.378,1.468,5.338,5.75C1046.1,401.78,1039.636,396.1,1043.488,391.4Z" transform="translate(-799.611 -390.039)"/><path class="e" d="M1036.711,378.984c-2.593-1.737-.629-6.631,1.906-5.677C1041.629,374.751,1039.895,381.407,1036.711,378.984Z" transform="translate(-805.779 -329.439)"/><path class="e" d="M1026.481,358.587c1.487-2.887,4.823-.122,3.813,2.887C1029.055,364.8,1024.46,362.135,1026.481,358.587Z" transform="translate(-814.404 -274.223)"/><path class="e" d="M1002.566,349.021c4.118,4.037-.477,11.794-4.8,9.127C993,354.429,997.609,343.565,1002.566,349.021Z" transform="translate(-841.791 -245.816)"/><path class="e" d="M992.991,324.35c-.648,2.789-3.813,1.615-3.679-1.1S993.964,320.875,992.991,324.35Z" transform="translate(-847.64 -149.279)"/><path class="e" d="M974.506,321.933c-4.747-3.01-1.354-11.941,3.412-10.375C983.238,313.956,980.34,326.19,974.506,321.933Z" transform="translate(-863.128 -121.513)"/><path class="e" d="M938.839,320.992c5.338.954,4.29,10.986-.705,11.427C932.338,332.223,932.242,319.3,938.839,320.992Z" transform="translate(-897.922 -154.265)"/><path class="e" d="M921.312,312.845c-1.906,4.674-7.168,1.248-6.2-3.426C916.642,304.159,923.867,307.12,921.312,312.845Z" transform="translate(-914.998 -102.27)"/></g><g transform="translate(1919.276 311.021)"><path class="e" d="M1021.037,370.991c2.192,1.688.267,5.8-1.906,4.894C1016.6,374.294,1018.387,368.642,1021.037,370.991Z" transform="translate(-996.603 -370.427)"/><path class="e" d="M1008,338.366c-2.5-1.346-.953-6.044,1.506-5.408C1012.294,334.035,1011.055,340.3,1008,338.366Z" transform="translate(-1006.733 -241.322)"/></g><g transform="translate(68.935 813.121)"><path class="e" d="M85.031,151.7c-.324,5.652-6.787,5.065-7.34-.147C77.538,145.44,85.755,144.559,85.031,151.7Z" transform="translate(1.486 -104.673)"/><path class="e" d="M39.478,163.752c4.309-.538,4.957,7.585,1.125,9.127C36.028,174.127,33.95,164.07,39.478,163.752Z" transform="translate(-36.159 -163.726)"/></g><g transform="translate(115.882 868.468)"><path class="e" d="M63.407,142.066c3.241-.147,3.432,5.946.515,6.876C60.452,149.6,59.289,141.968,63.407,142.066Z" transform="translate(-60.785 -142.063)"/></g><g transform="translate(1804.631 481.337)"><path class="e" d="M1016.66,305.844c-2.154-2.129.248-6.215,2.536-4.894C1021.712,302.908,1019.291,308.634,1016.66,305.844Z" transform="translate(-883.851 -300.693)"/><path class="e" d="M1009.124,273.875c-1.144,2.447-4,.343-3.336-2.2C1006.779,268.834,1010.706,270.791,1009.124,273.875Z" transform="translate(-893.035 -194.68)"/><path class="e" d="M987.343,267.015c-1.354-3.132,2.211-5.677,3.813-3.181C992.986,266.99,988.868,271.077,987.343,267.015Z" transform="translate(-909.936 -170.154)"/><path class="e" d="M965.339,279.758c-3.451.245-3.813-6.264-.629-7.341C968.332,271.659,969.686,279.758,965.339,279.758Z" transform="translate(-932.161 -204.552)"/><path class="e" d="M947.594,271.917c-2.764-3.132.782-8.344,3.813-6.191C954.591,268.638,950.93,276.174,947.594,271.917Z" transform="translate(-946.597 -180.488)"/></g><g transform="translate(1629.215 718.427)"><path class="e" d="M859.628,204.53c2.459,3.3-1.3,7.952-4.023,5.53C852.669,206.9,856.711,200.125,859.628,204.53Z" transform="translate(-854.585 -203.085)"/></g><g transform="translate(1260.957 810.627)"><path class="e" d="M664.166,165.908c3.031.343,2.65,6.068-.172,6.484C660.715,172.49,660.353,165.2,664.166,165.908Z" transform="translate(-661.42 -165.86)"/></g><g transform="translate(890.062 859.531)"><path class="e" d="M469.805,145.308c3.813-.294,4.1,6.7.763,7.879C466.6,153.97,465.077,145.357,469.805,145.308Z" transform="translate(-466.871 -145.299)"/></g><g transform="translate(1024.957 862.564)"><path class="e" d="M542.035,142.685c5.281,0,5.357,9.959.534,11.28C536.907,154.772,535.324,142.269,542.035,142.685Z" transform="translate(-537.629 -142.675)"/></g><g transform="translate(889.041 845.375)"><path class="e" d="M506.273,159.721c-4.232,2.667-7.3-5.261-3.813-8.711C506.769,147.511,511.764,156.736,506.273,159.721Z" transform="translate(-434.964 -150.23)"/><path class="e" d="M488.922,148.356c-.286,4.062-4.919,3.572-5.262-.2C483.584,143.756,489.494,143.242,488.922,148.356Z" transform="translate(-450.633 -127.609)"/><path class="e" d="M470.023,115.015c2.364,2.1,0,6.533-2.478,5.212C464.819,118.343,467.164,112.152,470.023,115.015Z" transform="translate(-466.336 -22.452)"/></g><g transform="translate(783.982 911.158)"><path class="e" d="M430.924,125.615c2.841,4.478-2.269,9.788-5.51,6.46C421.983,127.719,427.511,119.718,430.924,125.615Z" transform="translate(-399.35 -123.524)"/><path class="e" d="M411.289,106.581c.381-4.576,5.624-3.866,5.948.392C417.237,111.891,410.526,112.355,411.289,106.581Z" transform="translate(-411.228 -52.077)"/></g><g transform="translate(687.784 672.71)"><path class="e" d="M360.771,225.435c-.114-3.744,4.156-4.013,4.823-.612C366.071,228.811,360.714,230.182,360.771,225.435Z" transform="translate(-360.769 -222.439)"/></g><g transform="translate(704.324 474.483)"><path class="e" d="M461.854,288.367c2.593,1.321,1.087,6.191-1.468,5.6C457.488,292.942,458.67,286.434,461.854,288.367Z" transform="translate(-288.51 -250.229)"/><path class="e" d="M443.776,306.875c.152,6.264-6.978,6.582-8.045.93C434.987,301.149,443.91,298.971,443.776,306.875Z" transform="translate(-309.4 -301.819)"/><path class="e" d="M421.254,277.545c2.078,4.037-2.536,7.977-5.033,4.894C413.648,278.3,418.852,272.236,421.254,277.545Z" transform="translate(-327.676 -209.066)"/><path class="e" d="M401.158,283.451c-1.563,2.3-4.213-.636-3.127-3.108C399.5,277.529,403.255,280.661,401.158,283.451Z" transform="translate(-343.764 -219.033)"/><path class="e" d="M393.343,270.448c-1.906,2.447-4.728-1.175-3.336-3.866C391.856,263.695,395.9,267.537,393.343,270.448Z" transform="translate(-351.144 -172.533)"/><path class="e" d="M385.753,234.36c4.251-1.248,5.719,6.753,2.021,8.931C383.331,245.4,380.3,235.681,385.753,234.36Z" transform="translate(-357.318 -68.201)"/><path class="e" d="M374.659,240.183c-4.995,1.909-7.225-7.487-2.955-10.448C376.89,226.921,381.1,238.2,374.659,240.183Z" transform="translate(-369.445 -52.956)"/></g><g transform="translate(719.833 327.732)"><path class="e" d="M492.516,367.258c-.934,2.447-3.813.807-3.374-1.762S493.85,364.126,492.516,367.258Z" transform="translate(-276.496 -364.098)"/><path class="e" d="M459.987,350.214c.839-5.065,6.634-3.5,6.615,1.3C466.164,357.09,458.634,356.551,459.987,350.214Z" transform="translate(-303.029 -309.373)"/><path class="e" d="M444.431,339.008c2.86-1.15,4.194,4.233,1.754,5.995C443.23,346.667,440.733,340.231,444.431,339.008Z" transform="translate(-318.662 -279.13)"/><path class="e" d="M448.47,312.468c3.088,3.254-.61,9.054-3.813,6.851C440.959,316.31,444.772,308.015,448.47,312.468Z" transform="translate(-318.145 -185.961)"/><path class="e" d="M429.871,312.137c3.908-.832,4.9,6.533,1.468,8.246C427.2,321.876,424.857,312.847,429.871,312.137Z" transform="translate(-332.755 -188.885)"/><path class="e" d="M394.5,335.284c3.165-3.156,6.787,2.74,4.385,6.386C395.8,345.512,390.364,338.881,394.5,335.284Z" transform="translate(-363.597 -265.765)"/><path class="e" d="M381.126,333.516c-5.09-.612-4.442-10.2.286-10.889C386.922,322.481,387.532,334.715,381.126,333.516Z" transform="translate(-377.579 -227.759)"/></g><g transform="translate(1011.179 251.447)"><path class="e" d="M583.359,401.454c-4.5,3.572-8.636-4.894-5.052-9.249C582.768,387.752,589.25,397.319,583.359,401.454Z" transform="translate(-488.211 -387.611)"/><path class="e" d="M555.588,387.547c.839-4.7,6.234-3.156,6.158,1.346C561.269,394.08,554.273,393.419,555.588,387.547Z" transform="translate(-507.721 -362.13)"/><path class="e" d="M530.913,396.039c1.373-2.447,4.118.2,3.222,2.716C532.877,401.52,529.026,398.951,530.913,396.039Z" transform="translate(-530.402 -395.067)"/><path class="e" d="M538.979,372.155c1.449,5.505-4.823,8.271-6.939,3.621C529.98,370.027,537.454,365.133,538.979,372.155Z" transform="translate(-529.24 -308.714)"/></g><g transform="translate(1078.902 259.207)"><path class="e" d="M578.706,392.782c1.716-4.894,7.435-1.786,6.615,3.181C583.949,401.566,576.266,398.948,578.706,392.782Z" transform="translate(-554.77 -390.32)"/><path class="e" d="M573.923,369.988c-2.1,5.97-8.922,2.055-7.893-3.866C567.727,359.467,576.9,362.648,573.923,369.988Z" transform="translate(-565.925 -296.127)"/></g><g transform="translate(1108.865 331.031)"><path class="e" d="M581.715,364.639c.5-5.212,6.444-4.331,6.787.538C588.464,370.829,580.819,371.2,581.715,364.639Z" transform="translate(-581.642 -361.109)"/></g><g transform="translate(270.64 549.389)"><path class="e" d="M149.528,278.537c-2.154,5.6-8.56,1.59-7.435-4.037C143.942,268.187,152.559,271.662,149.528,278.537Z" transform="translate(-141.961 -271.189)"/></g><g transform="translate(119.104 749.774)"><path class="e" d="M67.289,196.682c-2.459,3.181-6.12-1.444-4.347-4.894C65.211,187.946,70.511,192.865,67.289,196.682Z" transform="translate(-62.474 -190.394)"/></g><g transform="translate(456.394 777.336)"><path class="e" d="M246.362,191.29c-7.245,2.031-9.628-11.574-3.336-15.2C250.595,172.816,255.628,189.357,246.362,191.29Z" transform="translate(-239.396 -175.666)"/></g><g transform="translate(1186.832 529.403)"><path class="e" d="M647.022,283.71c.343-5.334,6.463-4.722,6.939.245C654.113,289.73,646.316,290.439,647.022,283.71Z" transform="translate(-600.387 -279.963)"/><path class="e" d="M625.439,236.4c-5.491-2.692-2.44-13.042,2.955-11.916C634.514,226.536,632.226,240.312,625.439,236.4Z" transform="translate(-622.539 -92.566)"/></g><g transform="translate(1521.5 327.309)"><path class="e" d="M880.657,364.164c2.5-3.964,7.035.71,5.357,4.894C883.707,373.707,877.282,368.96,880.657,364.164Z" transform="translate(-724.108 -362.663)"/><path class="e" d="M878.5,307.232c-7.263-2.74-4.213-16.419,2.8-15.709C889.332,293.334,887.54,311.294,878.5,307.232Z" transform="translate(-728.971 -125.395)"/><path class="e" d="M857.087,297.417c6.177.905,5.167,12.553-.591,13.213C849.8,310.582,849.328,295.7,857.087,297.417Z" transform="translate(-749.782 -142.349)"/><path class="e" d="M807.456,306.809c4.061,6.337-3.146,14.045-7.778,9.274C794.683,309.867,802.594,298.44,807.456,306.809Z" transform="translate(-798.084 -165.37)"/></g><path class="e" d="M973.461,380.546c4.976,7.536-3.584,16.957-9.227,11.3C958.209,384.559,967.589,370.587,973.461,380.546Z" transform="translate(872.26 -93.259)"/><path class="e" d="M934.3,376.284c-5.719,2.838-9.017-7.928-4.232-11.916C935.955,360.453,941.693,373.2,934.3,376.284Z" transform="translate(840.962 -43.509)"/><path class="e" d="M917.38,291.867c4.537-3.01,7.988,5.481,4.309,9.323C917.056,305.13,911.489,295.342,917.38,291.867Z" transform="translate(829.244 208.274)"/><g transform="translate(1788.161 332.714)"><path class="e" d="M1019.673,355.738c-2.193,8.662-12.087,4.6-11.439-3.793C1009.836,342.353,1022.9,345,1019.673,355.738Z" transform="translate(-874.285 -316.968)"/><path class="e" d="M940.211,360.117c4.537-4.16,9.342,4.331,5.834,9.249C941.565,374.5,934.225,365.011,940.211,360.117Z" transform="translate(-937.958 -359.005)"/></g><g transform="translate(1876.13 347.374)"><path class="e" d="M1020.73,357.126c1.22-3.988,5.719-1.713,5.262,2.2C1025.058,363.879,1018.976,362.02,1020.73,357.126Z" transform="translate(-951.185 -355.037)"/><path class="e" d="M989.514,361.339c-5.872,1.346-7.454-9.665-2.307-12.234C993.441,346.682,996.987,360.164,989.514,361.339Z" transform="translate(-984.101 -339.332)"/></g><g transform="translate(1939.464 384.858)"><path class="e" d="M1049.791,333.591c6.73-1.15,8.1,11.476,2.154,14.192C1044.854,350.059,1041.327,334.472,1049.791,333.591Z" transform="translate(-992.373 -325.946)"/><path class="e" d="M1018.615,340.073c3.241-5.138,9.132.93,6.939,6.411C1022.427,352.455,1014.153,346.264,1018.615,340.073Z" transform="translate(-1017.323 -338.13)"/></g><g transform="translate(1845.685 358.619)"><path class="e" d="M1005.387,352.592c1.43,3.768-2.879,6.484-4.728,3.4C998.772,352.176,1003.786,347.7,1005.387,352.592Z" transform="translate(-939.027 -350.443)"/><path class="e" d="M968.815,354.115c-2.421-4.013,2.154-8.613,4.957-5.554C976.746,352.524,971.694,359.4,968.815,354.115Z" transform="translate(-968.132 -342.105)"/></g><g transform="translate(1839.408 236.661)"><path class="e" d="M984.083,403.761c.286,5.138-5.567,5.7-6.6,1.077C976.724,399.381,984.007,397.228,984.083,403.761Z" transform="translate(-953.425 -399.723)"/><path class="e" d="M964.936,366.063c.629-6.166,7.626-5.016,8.026.734C972.772,373.5,963.812,373.819,964.936,366.063Z" transform="translate(-964.839 -271.123)"/></g><g transform="translate(952.441 736.12)"><path class="e" d="M501.8,195c4.995-5.921,11.8,3.426,8.141,10.032C505.136,212.132,495.166,202.051,501.8,195Z" transform="translate(-499.591 -193.121)"/></g><g transform="translate(855.38 622.626)"><path class="e" d="M467.47,242.549c3.718-5.946,10.524,1.028,8.007,7.341C472.027,256.79,462.437,249.694,467.47,242.549Z" transform="translate(-432.943 -240.291)"/><path class="e" d="M456.917,228.607c4.461,5.236-1.506,13.629-6.329,9.934C445.478,233.6,451.674,221.56,456.917,228.607Z" transform="translate(-448.679 -193.169)"/></g><g transform="translate(532.12 893.003)"><path class="e" d="M281.658,139.119c-3.374,0-3.317-6.411-.248-7.194C285.032,131.582,285.928,139.51,281.658,139.119Z" transform="translate(-279.117 -131.914)"/></g><g transform="translate(448.882 860.421)"><path class="e" d="M240.8,144.236c4.728,2.006,2.459,10.913-2.135,10.252C233.424,153.167,234.93,141.4,240.8,144.236Z" transform="translate(-235.456 -143.796)"/></g><g transform="translate(57.035 807.517)"><path class="e" d="M69.19,151.929c.534-4.722,5.929-3.744,6.139.661C75.195,157.728,68.275,157.85,69.19,151.929Z" transform="translate(5.605 -105.044)"/><path class="e" d="M36.709,174.28c-3.355,4.551-8.56-1.713-6.2-6.68C33.678,162.242,41.17,168.848,36.709,174.28Z" transform="translate(-29.917 -165.616)"/></g><g transform="translate(105.574 822.61)"><path class="e" d="M55.935,166.791c-2.383-5.138,3.47-9.788,6.406-5.6C65.391,166.351,58.7,173.5,55.935,166.791Z" transform="translate(-55.378 -159.566)"/></g><g transform="translate(92.295 797.594)"><path class="e" d="M70.889,176.887c-1.773,6.851-9.532,3.572-9.017-3.083C63.13,166.194,73.577,168.372,70.889,176.887Z" transform="translate(-36.234 -169.139)"/><path class="e" d="M50.543,148.5c-4.27-2.447-1.487-10.5,2.764-9.3C58.112,141.18,55.805,152,50.543,148.5Z" transform="translate(-48.412 -64.088)"/></g><g transform="translate(130.524 759.206)"><path class="e" d="M69.485,187.238c3.451-8.662,13.345-2.2,11.439,6.509C78.141,203.558,64.7,197.882,69.485,187.238Z" transform="translate(-68.465 -183.14)"/></g><g transform="translate(424.462 746.133)"><path class="e" d="M262.986,196.785c-.82,5.995-7.626,4.5-7.816-1.174C255.494,189.077,264.378,189.273,262.986,196.785Z" transform="translate(-193.165 -190.918)"/><path class="e" d="M229.555,168.428c-5.3,3.548-9.418-6.411-5.109-10.938C229.8,152.866,236.456,164.391,229.555,168.428Z" transform="translate(-222.646 -75.036)"/></g><g transform="translate(264.603 824.999)"><path class="e" d="M213.854,158.657c-5.433-.44-4.957-10.668,0-11.6C219.687,146.594,220.621,159.685,213.854,158.657Z" transform="translate(-74.291 -120.519)"/><path class="e" d="M141.341,171.031c-6.749-7.023,1.258-19.771,8.426-15C157.641,162.54,149.481,180.549,141.341,171.031Z" transform="translate(-138.794 -154.988)"/></g><g transform="translate(335.193 841.54)"><path class="e" d="M189.831,162.981c-4.957,10.106-16.529.832-13.517-9.592C180.7,141.815,196.656,150.648,189.831,162.981Z" transform="translate(-175.821 -147.99)"/></g><g transform="translate(807.981 708.628)"><path class="e" d="M457.2,194.056c-3.813-9.469,6.978-16.688,11.839-9C473.977,194.692,461.49,206.437,457.2,194.056Z" transform="translate(-394.281 -129.911)"/><path class="e" d="M429.619,218.48c-6.539,1.2-7.95-11.109-2.173-13.8C434.347,202.4,437.95,217.55,429.619,218.48Z" transform="translate(-423.817 -204.447)"/></g><g transform="translate(1279.013 560.179)"><path class="e" d="M714.471,279.066c-5.719,11.672-19.064.93-15.614-11.084C703.928,254.621,722.363,264.849,714.471,279.066Z" transform="translate(-646.05 -261.757)"/><path class="e" d="M683.053,257.162c-2.078,9.274-12.659,5.408-12.144-3.5C672.281,243.435,686.179,245.735,683.053,257.162Z" transform="translate(-670.891 -204.422)"/></g><g transform="translate(1288.49 548.037)"><path class="e" d="M676.126,278.3c-1.716-6.215,5.4-9.469,7.874-4.209C686.363,280.475,677.918,286.323,676.126,278.3Z" transform="translate(-675.862 -271.456)"/></g><g transform="translate(1278.844 511.865)"><path class="e" d="M672.209,287.871c3.6-5.53,9.933,1.223,7.473,7.145C676.308,301.476,667.367,294.527,672.209,287.871Z" transform="translate(-670.802 -285.818)"/></g><g transform="translate(1315.402 518.963)"><path class="e" d="M693.833,296.19c-6.768-2.447-3.813-15.269,2.612-14.681C703.956,283.271,702.259,300.007,693.833,296.19Z" transform="translate(-689.978 -281.489)"/></g><g transform="translate(1194.541 404.907)"><path class="e" d="M657.514,329.307c5.719-.636,6.558,10.228,1.392,12.234C652.767,343.083,650.174,329.576,657.514,329.307Z" transform="translate(-602.593 -329.28)"/><path class="e" d="M647.771,324.561c-7.378-2.153-4.976-16.076,2.059-15.929C658.008,309.831,657,327.913,647.771,324.561Z" transform="translate(-611.456 -262.065)"/><path class="e" d="M630.468,272.4c-7.454-3.793-3.146-17.838,4.194-16.2C642.974,259.134,639.676,277.852,630.468,272.4Z" transform="translate(-626.582 -81.855)"/></g><g transform="translate(1281.81 535.633)"><path class="e" d="M673.106,279.231c2.612-7.12,10.752-2.251,9.532,4.894C680.407,292.1,669.426,288.015,673.106,279.231Z" transform="translate(-672.358 -275.744)"/></g><g transform="translate(1634.595 235.95)"><path class="e" d="M863.857,412.6c-7.3,1.3-8.827-12.406-2.383-15.391C869.176,394.74,873.16,411.648,863.857,412.6Z" transform="translate(-857.407 -396.965)"/></g><g transform="translate(1721.369 336.967)"><path class="e" d="M915.748,364.264c-.362,9.788-11.667,9.274-12.811.171C902.422,353.792,916.739,351.785,915.748,364.264Z" transform="translate(-902.923 -355.66)"/></g><g transform="translate(722.096 738.242)"><path class="e" d="M421.615,193.678c2.478-9.053,12.849-4.478,11.934,4.38C431.739,208.09,418.012,204.884,421.615,193.678Z" transform="translate(-340.471 -181.168)"/><path class="e" d="M379.822,201.9c-3.031-3.646,1.106-9.372,4.4-6.8C387.79,198.548,383.444,206.77,379.822,201.9Z" transform="translate(-378.767 -194.456)"/></g><g transform="translate(812.212 805.332)"><path class="e" d="M427.378,175.676c-3.965-4.894,1.7-12.479,6.043-8.931C438.131,171.492,432.126,182.209,427.378,175.676Z" transform="translate(-426.036 -165.83)"/></g><g transform="translate(845.636 751.425)"><path class="e" d="M479.3,202.951c-8.083,1.126-9.437-14.045-2.25-17.128C485.586,183.45,489.571,202.217,479.3,202.951Z" transform="translate(-417.466 -185.616)"/><path class="e" d="M443.629,187.26c.419-6.411,7.74-5.652,8.312.294C452.017,194.478,442.733,195.31,443.629,187.26Z" transform="translate(-443.568 -168.652)"/></g><g transform="translate(861.734 665.682)"><path class="e" d="M452.18,227.662c.991-7.341,9.246-5.432,9.418,1.37C461.2,236.911,450.559,236.691,452.18,227.662Z" transform="translate(-452.012 -222.973)"/></g><g transform="translate(868.339 658.743)"><path class="e" d="M456.074,229.253c2.25-7.145,10.428-2.936,9.437,4.111C463.757,241.341,452.833,238.086,456.074,229.253Z" transform="translate(-455.477 -225.553)"/></g><g transform="translate(832.364 591.003)"><path class="e" d="M469.833,266.85c-6.768,2.594-9.761-10.106-4-14.119C472.826,248.939,478.45,264.159,469.833,266.85Z" transform="translate(-412.881 -252.129)"/><path class="e" d="M443.19,227.16c-3.107,4.478-8.236-1.321-6.062-6.166C440.026,215.733,447.365,221.8,443.19,227.16Z" transform="translate(-436.607 -132.572)"/></g><g transform="translate(876.364 708.953)"><path class="e" d="M483.261,210.406c.248-4.894,5.719-4.38,6.234,0C489.667,215.667,482.785,216.45,483.261,210.406Z" transform="translate(-438.338 -206.925)"/><path class="e" d="M468.673,198.349c4.938,5.6-1.43,14.926-6.749,11.035C456.129,204.148,462.744,190.861,468.673,198.349Z" transform="translate(-459.686 -176.125)"/></g><g transform="translate(1019.903 598.864)"><path class="e" d="M545.468,252.9c3.813,7.341-4.69,14.559-9.208,8.735C531.531,254.146,541.083,243.184,545.468,252.9Z" transform="translate(-534.978 -249.072)"/><path class="e" d="M575.438,242.8c-1.01-7.806,7.912-9.788,9.971-2.887C587.22,248.105,576.3,252.779,575.438,242.8Z" transform="translate(-498.375 -201.018)"/></g><g transform="translate(939.799 637.961)"><path class="e" d="M504.132,200.261c5.338,7.341-3.05,17.446-9,12.039C488.766,205.2,497.8,190.473,504.132,200.261Z" transform="translate(-492.96 -110.838)"/><path class="e" d="M528.964,241.734c-1.563-9.4,9.151-12.381,11.953-4.233C543.453,247.313,530.432,253.723,528.964,241.734Z" transform="translate(-460.465 -232.765)"/><path class="e" d="M567.963,217.287c4.023.661,3.279,8.2-.477,8.589C563.139,225.753,562.949,216.063,567.963,217.287Z" transform="translate(-428.373 -172.251)"/></g><g transform="translate(452.964 837.675)"><path class="e" d="M258.267,157.319c.953-6.753,8.674-5.041,8.827,1.346C266.694,166.055,256.723,165.785,258.267,157.319Z" transform="translate(-219.007 -152.999)"/><path class="e" d="M238.366,134.817c2.974-9.225,13.517-3.695,12.163,5.408C248.279,150.551,234.19,146.244,238.366,134.817Z" transform="translate(-237.597 -79.014)"/></g><g transform="translate(248.565 836.717)"><path class="e" d="M187.585,151.124c-4.861-6.484,2.5-15.685,7.893-10.987C201.254,146.23,193.4,159.786,187.585,151.124Z" transform="translate(-79.969 -107.405)"/><path class="e" d="M159.175,160.741c-1.906-7.928,7.111-11.6,10.028-4.894C171.986,164.069,161.176,170.92,159.175,160.741Z" transform="translate(-104.52 -152.355)"/><path class="e" d="M138.557,125.2c6.806,3.45,2.9,16.3-3.813,14.8C127.157,137.337,130.131,120.233,138.557,125.2Z" transform="translate(-130.382 -57.991)"/></g><g transform="translate(194.343 820.573)"><path class="e" d="M163.908,159.319c-6.654,5.236-12.659-7.341-7.378-13.6C163.164,139.107,172.6,153.2,163.908,159.319Z" transform="translate(-54.288 -110.466)"/><path class="e" d="M150.738,162.329c3.927,8.515-5.719,15.929-10.6,9.151C135.162,162.94,146.258,151.22,150.738,162.329Z" transform="translate(-68.456 -157.789)"/><path class="e" d="M105.753,157.854c-4.938,0-5.033-9.225-.553-10.5C110.481,146.55,112.006,158.2,105.753,157.854Z" transform="translate(-101.94 -115.902)"/></g><g transform="translate(161.334 840.103)"><path class="e" d="M87.8,153.34c3.622.245,3.374,7.072,0,7.732C83.928,161.366,83.223,152.7,87.8,153.34Z" transform="translate(-84.626 -153.307)"/></g><g transform="translate(342.163 378.874)"><path class="e" d="M226.9,348.063c-2.211,4.111-6.9,0-5.51-4.282C223.354,339.058,229.893,343.071,226.9,348.063Z" transform="translate(-141.716 -341.676)"/><path class="e" d="M195.051,336.935c.82,3.572-3.241,5.138-4.518,2.1C189.312,335.344,194.193,332.334,195.051,336.935Z" transform="translate(-169.633 -315.255)"/><path class="e" d="M180.874,305.624c2.936-2.912,6.272,2.569,4.042,5.946C182.056,315.118,177.023,309.05,180.874,305.624Z" transform="translate(-179.477 -214.33)"/></g><g transform="translate(429.537 343.36)"><path class="e" d="M284.083,361.213c-.972,4.086-5.719,2.3-5.4-1.664C279.3,355.023,285.513,356.124,284.083,361.213Z" transform="translate(-176.937 -356.701)"/><path class="e" d="M249.155,362.794c-4.347-3.988.191-12.234,4.747-9.641C258.935,356.774,254.455,368.323,249.155,362.794Z" transform="translate(-205.285 -347.54)"/><path class="e" d="M248.151,327.3c-2.841-2.055-.5-7.341,2.4-6.24C253.775,322.844,251.64,330.184,248.151,327.3Z" transform="translate(-205.768 -233.547)"/><path class="e" d="M229.22,331.607c-1.754,2.692-4.842-.587-3.641-3.45C227.2,325,231.565,328.352,229.22,331.607Z" transform="translate(-225.308 -252.832)"/></g><g transform="translate(681.155 372.921)"><path class="e" d="M382.133,347.136c.915-5.579,7.283-3.891,7.283,1.395C388.939,354.722,380.665,354.159,382.133,347.136Z" transform="translate(-334.932 -343.679)"/><path class="e" d="M361.006,335.185c-1.182,2.716-4.289.514-3.622-2.227C358.395,329.875,362.627,331.857,361.006,335.185Z" transform="translate(-357.291 -297.3)"/></g><g transform="translate(809.886 248.05)"><path class="e" d="M444.384,399.609c-.477,3.866-4.88,2.985-5.014-.636C439.6,394.765,445.28,394.789,444.384,399.609Z" transform="translate(-411.623 -395.901)"/><path class="e" d="M437.837,383.3c4.194,1.664,2.307,9.543-1.754,9.053C431.45,391.176,432.651,380.8,437.837,383.3Z" transform="translate(-417.22 -354.361)"/><path class="e" d="M431.363,377.413c.191,5.041-5.567,5.457-6.5.905C424.176,372.96,431.382,371,431.363,377.413Z" transform="translate(-424.816 -320.167)"/></g><g transform="translate(1076.229 179.389)"><path class="e" d="M585.775,425.1c1.735-1.762,3.813,1.493,2.44,3.523C586.519,430.73,583.468,427.182,585.775,425.1Z" transform="translate(-546.012 -424.597)"/><path class="e" d="M587.005,404.691c-.248-3.352,3.584-3.817,4.309-.832C591.829,407.431,587.005,408.948,587.005,404.691Z" transform="translate(-544.154 -347.002)"/><path class="e" d="M566.214,397c2.326-.465,2.86,3.915.82,4.894C564.594,402.679,563.259,397.321,566.214,397Z" transform="translate(-564.523 -329.698)"/></g><g transform="translate(1216.922 154.428)"><path class="e" d="M691.282,441.115c-4.5,3.6-8.636-4.894-5.071-9.225C690.71,427.364,697.173,436.98,691.282,441.115Z" transform="translate(-596.135 -427.296)"/><path class="e" d="M663.508,427.2c.839-4.7,6.234-3.156,6.158,1.346C669.189,433.71,662.193,433.073,663.508,427.2Z" transform="translate(-615.641 -401.784)"/><path class="e" d="M638.833,435.689c1.373-2.447,4.118.2,3.222,2.716C640.8,441.17,636.946,438.6,638.833,435.689Z" transform="translate(-638.322 -434.716)"/><path class="e" d="M646.905,411.809c1.449,5.505-4.823,8.271-6.959,3.621C637.907,409.754,645.361,404.738,646.905,411.809Z" transform="translate(-637.167 -348.368)"/></g><g transform="translate(1284.553 162.182)"><path class="e" d="M686.626,432.435c1.716-4.894,7.435-1.811,6.615,3.181C691.869,441.219,684.186,438.625,686.626,432.435Z" transform="translate(-662.598 -429.967)"/><path class="e" d="M681.81,409.666c-2.116,5.97-8.922,2.055-7.912-3.891C675.69,399.1,684.86,402.326,681.81,409.666Z" transform="translate(-673.797 -335.799)"/></g><g transform="translate(1281.972 82.247)"><path class="e" d="M693.68,464.768c1.754-1.762,3.813,1.493,2.459,3.524C694.442,470.567,691.392,466.97,693.68,464.768Z" transform="translate(-653.936 -464.263)"/><path class="e" d="M694.906,444.362c-.248-3.377,3.584-3.842,4.309-.832C699.767,447.078,695.1,448.62,694.906,444.362Z" transform="translate(-652.093 -386.551)"/><path class="e" d="M674.134,436.669c2.326-.465,2.86,3.891.82,4.894C672.514,442.395,671.179,437.036,674.134,436.669Z" transform="translate(-672.443 -369.291)"/></g><g transform="translate(1396.059 353.55)"><path class="e" d="M785.254,359.735c-4.518,3.6-8.636-4.894-5.071-9.225C784.663,345.984,791.125,355.6,785.254,359.735Z" transform="translate(-690.094 -345.912)"/><path class="e" d="M757.48,345.839c.839-4.722,6.215-3.157,6.139,1.321C763.161,352.323,756.146,351.711,757.48,345.839Z" transform="translate(-709.601 -320.417)"/><path class="e" d="M732.79,354.319c1.392-2.447,4.137.171,3.222,2.692C734.753,359.8,730.922,357.207,732.79,354.319Z" transform="translate(-732.285 -353.342)"/><path class="e" d="M740.859,330.44c1.449,5.481-4.8,8.246-6.939,3.6C731.86,328.385,739.334,323.369,740.859,330.44Z" transform="translate(-731.127 -266.994)"/></g><g transform="translate(1463.774 361.291)"><path class="e" d="M780.586,351.055c1.716-4.894,7.454-1.786,6.615,3.181C785.829,359.863,778.146,357.245,780.586,351.055Z" transform="translate(-756.65 -348.593)"/><path class="e" d="M775.8,328.3c-2.1,5.946-8.922,2.055-7.893-3.891C769.607,317.777,778.777,320.958,775.8,328.3Z" transform="translate(-767.805 -254.486)"/></g><g transform="translate(1493.756 433.119)"><path class="e" d="M783.6,322.938c.477-5.236,6.444-4.355,6.768.514C790.335,329.1,782.709,329.471,783.6,322.938Z" transform="translate(-783.532 -319.387)"/></g><g transform="translate(1461.106 281.473)"><path class="e" d="M787.655,383.37c1.735-1.762,3.813,1.493,2.44,3.523C788.4,389.071,785.348,385.45,787.655,383.37Z" transform="translate(-747.896 -382.865)"/><path class="e" d="M788.865,362.967c-.229-3.352,3.6-3.817,4.308-.832C793.745,365.707,788.979,367.249,788.865,362.967Z" transform="translate(-746.056 -305.278)"/><path class="e" d="M768.111,355.3c2.307-.44,2.841,3.915.8,4.894C766.472,360.93,765.137,355.67,768.111,355.3Z" transform="translate(-766.405 -288.047)"/></g><g transform="translate(1894.672 257.507)"><path class="e" d="M995.56,397.761c-2.555-2.887.705-7.683,3.451-5.7C1002,394.751,998.61,401.6,995.56,397.761Z" transform="translate(-993.095 -391.593)"/><path class="e" d="M996.482,353.552c3.546-.587,4.251,6.093,1.106,7.512C993.832,362.214,991.945,353.968,996.482,353.552Z" transform="translate(-993.827 -260.691)"/></g><g transform="translate(1897.315 328.472)"><path class="e" d="M1006.652,363.232c2.764-1.493,4.48,3.695,2.173,5.726C1006.022,370.964,1003.087,364.871,1006.652,363.232Z" transform="translate(-986.335 -362.966)"/><path class="e" d="M1002.013,358.352c4.423,3.842,0,12.234-4.537,9.788C992.4,364.641,996.713,353.091,1002.013,358.352Z" transform="translate(-995.213 -347.589)"/></g><g transform="translate(1020.747 802.273)"><path class="e" d="M624.713,172.818c-3.031.171-3.241-5.505-.515-6.386C627.458,165.771,628.526,172.867,624.713,172.818Z" transform="translate(-456.68 -159.229)"/><path class="e" d="M606.959,176.293c-3.489-1.248-2.059-7.83,1.3-7.536C612.183,169.589,611.382,178.2,606.959,176.293Z" transform="translate(-472.403 -168.747)"/><path class="e" d="M584.26,158.494c5.185-1.811,7.283,7.928,2.841,10.84C581.705,172.074,577.606,160.329,584.26,158.494Z" transform="translate(-494.276 -136.291)"/><path class="e" d="M566.9,126.406c-1.239-3.352,2.574-5.7,4.194-2.961C572.73,126.749,568.268,130.639,566.9,126.406Z" transform="translate(-507.11 -6.646)"/><path class="e" d="M539.443,125.09c-2.574,2.447-5.338-2.447-3.336-5.285C538.661,116.868,542.855,122.3,539.443,125.09Z" transform="translate(-535.42 3.895)"/></g><g transform="translate(1033.858 828.112)"><path class="e" d="M670.786,159.129c2.879-3.915,7.378,1.468,5.338,5.75C673.417,169.528,666.936,163.851,670.786,159.129Z" transform="translate(-426.91 -157.773)"/><path class="e" d="M664.011,146.718c-2.593-1.713-.629-6.607,1.906-5.677C668.91,142.509,667.214,149.14,664.011,146.718Z" transform="translate(-433.079 -97.183)"/><path class="e" d="M653.795,126.343c1.468-2.912,4.8-.147,3.813,2.863C656.349,132.533,651.755,129.866,653.795,126.343Z" transform="translate(-441.699 -41.964)"/><path class="e" d="M629.89,116.772c4.1,4.037-.5,11.77-4.823,9.1C620.3,122.155,624.857,111.291,629.89,116.772Z" transform="translate(-469.096 -13.552)"/><path class="e" d="M620.283,92.246c-.648,2.789-3.813,1.59-3.66-1.1C617.061,88.037,621.255,88.771,620.283,92.246Z" transform="translate(-474.932 82.839)"/><path class="e" d="M601.806,89.673c-4.747-2.985-1.354-11.941,3.412-10.375C610.576,81.795,607.64,93.907,601.806,89.673Z" transform="translate(-490.428 110.737)"/><path class="e" d="M566.17,88.722c5.338.954,4.271,11.011-.724,11.451C559.65,99.953,559.478,87.034,566.17,88.722Z" transform="translate(-525.234 77.994)"/><path class="e" d="M548.612,80.583c-1.906,4.674-7.168,1.272-6.2-3.426C543.942,71.9,551.262,74.857,548.612,80.583Z" transform="translate(-542.298 129.982)"/></g><g transform="translate(989.781 242.303)"><path class="e" d="M647.666,398.543c2.879-3.915,7.4,1.468,5.357,5.75C650.3,408.918,643.815,403.266,647.666,398.543Z" transform="translate(-403.79 -397.187)"/><path class="e" d="M640.907,386.128c-2.612-1.713-.648-6.607,1.906-5.677C645.826,381.919,644.11,388.55,640.907,386.128Z" transform="translate(-409.956 -336.593)"/><path class="e" d="M630.674,365.753c1.487-2.912,4.8-.147,3.813,2.863C633.248,371.943,628.634,369.276,630.674,365.753Z" transform="translate(-418.578 -281.374)"/><path class="e" d="M606.765,356.18c4.1,4.037-.477,11.769-4.823,9.1C597.175,361.588,601.789,350.7,606.765,356.18Z" transform="translate(-445.971 -252.96)"/><path class="e" d="M597.163,331.7c-.629,2.789-3.813,1.59-3.66-1.1C593.941,327.39,598.135,328.222,597.163,331.7Z" transform="translate(-451.812 -156.612)"/><path class="e" d="M578.686,329.083c-4.747-2.985-1.354-11.941,3.412-10.375C587.456,321.2,584.52,333.316,578.686,329.083Z" transform="translate(-467.308 -128.673)"/><path class="e" d="M543.049,328.132c5.338.954,4.29,11.011-.705,11.451C536.529,339.363,536.357,326.444,543.049,328.132Z" transform="translate(-502.113 -161.416)"/><path class="e" d="M525.492,319.993c-1.906,4.674-7.168,1.272-6.2-3.426C520.841,311.306,528.047,314.267,525.492,319.993Z" transform="translate(-519.178 -109.428)"/></g><g transform="translate(1208.754 879.343)"><path class="e" d="M648.353,138.723c2.173,1.688.248,5.8-1.906,4.894C643.892,142.026,645.685,136.4,648.353,138.723Z" transform="translate(-623.908 -138.167)"/><path class="e" d="M635.3,106.12c-2.478-1.37-.953-6.044,1.506-5.432C639.685,101.765,638.37,108.029,635.3,106.12Z" transform="translate(-634.037 -9.06)"/></g><g transform="translate(1077.656 901.043)"><path class="e" d="M646.972,123.488c-2.173,8.637-12.068,4.6-11.439-3.817C637.135,110.079,650.213,112.746,646.972,123.488Z" transform="translate(-501.609 -84.709)"/><path class="e" d="M567.518,127.862c4.537-4.184,9.323,4.331,5.719,9.225C568.872,142.25,561.551,132.732,567.518,127.862Z" transform="translate(-565.271 -126.741)"/></g><g transform="translate(1165.599 915.786)"><path class="e" d="M648.02,124.843c1.22-3.988,5.719-1.713,5.262,2.227C652.347,131.449,646.342,129.786,648.02,124.843Z" transform="translate(-578.474 -122.755)"/><path class="e" d="M616.814,129.075c-5.872,1.346-7.454-9.788-2.307-12.234C620.665,114.393,624.306,127.876,616.814,129.075Z" transform="translate(-611.401 -107.143)"/></g><g transform="translate(1135.165 926.932)"><path class="e" d="M632.684,120.332c1.43,3.768-2.86,6.484-4.728,3.4C626.088,119.916,631.083,115.438,632.684,120.332Z" transform="translate(-566.334 -118.183)"/><path class="e" d="M596.129,121.841c-2.44-4.013,2.135-8.613,4.957-5.53C604.136,120.226,598.97,127.15,596.129,121.841Z" transform="translate(-595.437 -109.831)"/></g><g transform="translate(1184.142 825.836)"><path class="e" d="M622.855,165.481c-2.536-2.863.724-7.683,3.451-5.677C629.3,162.545,625.867,169.323,622.855,165.481Z" transform="translate(-620.39 -159.33)"/><path class="e" d="M623.782,121.29c3.565-.587,4.251,6.093,1.106,7.512C621.132,129.976,619.245,121.73,623.782,121.29Z" transform="translate(-621.127 -28.445)"/></g><g transform="translate(1186.746 896.785)"><path class="e" d="M633.951,130.972c2.764-1.493,4.48,3.695,2.192,5.726C633.322,138.7,630.386,132.612,633.951,130.972Z" transform="translate(-613.596 -130.706)"/><path class="e" d="M629.351,126.092c4.4,3.842,0,12.234-4.537,9.788C619.647,132.381,623.974,120.831,629.351,126.092Z" transform="translate(-622.493 -115.329)"/></g><g transform="translate(895.704 439.369)"><path class="e" d="M562.35,317.486c3.2-.759,4.08,5.285,1.277,6.753C560.253,325.389,558.251,318.048,562.35,317.486Z" transform="translate(-388.045 -317.42)"/><path class="e" d="M555.269,295.453c1.048-6.019,7.931-4.086,7.874,1.664C562.571,303.724,553.591,302.965,555.269,295.453Z" transform="translate(-392.574 -231.916)"/><path class="e" d="M525.956,289.977c1.392,4.649-3.813,7.341-5.872,3.426C518.215,288.631,524.488,283.982,525.956,289.977Z" transform="translate(-424.591 -214.253)"/><path class="e" d="M499.145,299.42c-1.773-2.667,1.258-6.019,3.279-4.013C504.559,298,501.261,302.967,499.145,299.42Z" transform="translate(-443.744 -238.353)"/><path class="e" d="M500.378,259.95c.858-3.352,4.69-1.762,4.4,1.517C504.172,265.186,499.1,264.11,500.378,259.95Z" transform="translate(-442.327 -111.628)"/><path class="e" d="M470.916,263.862c-2.421-1.811-.381-6.386,2.1-5.334C475.873,260.094,473.967,266.358,470.916,263.862Z" transform="translate(-469.83 -113.02)"/></g><g transform="translate(939.87 428.93)"><path class="e" d="M562.378,323.955c-2.44,0-2.421-4.625-.191-5.187C564.8,318.474,565.448,324.2,562.378,323.955Z" transform="translate(-431.782 -309.853)"/><path class="e" d="M528.555,312.35c4.9-2.594,7.893,6.607,3.813,10.155C527.373,326.028,522.226,315.188,528.555,312.35Z" transform="translate(-463.426 -292.302)"/><path class="e" d="M510.991,321.493c3.584,1.028,2.421,7.781-1.01,7.708C506.053,328.638,506.511,319.854,510.991,321.493Z" transform="translate(-480.025 -321.29)"/><path class="e" d="M495.957,305.868c-4.042-.22-3.813-7.854-.114-8.638C500.209,296.863,501.067,306.431,495.957,305.868Z" transform="translate(-492.997 -239.085)"/></g><g transform="translate(1002.608 404.036)"><path class="e" d="M548.83,334.938c.172-3.548,4.213-3.279,4.594,0C553.577,338.755,548.448,339.416,548.83,334.938Z" transform="translate(-505.145 -332.377)"/><path class="e" d="M528.812,312.917c-3.508.343-3.927-6.24-.782-7.341C531.8,304.6,533.273,312.794,528.812,312.917Z" transform="translate(-525.906 -241.476)"/></g><g transform="translate(1094.695 421.783)"><path class="e" d="M663.49,328.33c-3.012.171-3.241-5.505-.515-6.411C666.2,321.283,667.322,328.379,663.49,328.33Z" transform="translate(-495.473 -314.715)"/><path class="e" d="M645.792,331.808c-3.489-1.272-2.078-7.854,1.3-7.561C650.939,325.079,650.138,333.717,645.792,331.808Z" transform="translate(-511.157 -324.238)"/><path class="e" d="M623.037,313.987c5.185-1.811,7.283,7.928,2.841,10.84C620.5,327.543,616.384,315.8,623.037,313.987Z" transform="translate(-533.07 -291.76)"/><path class="e" d="M605.686,281.89c-1.239-3.328,2.574-5.677,4.194-2.936C611.5,282.355,607.058,286.245,605.686,281.89Z" transform="translate(-545.897 -162.228)"/><path class="e" d="M578.234,280.577c-2.593,2.447-5.338-2.447-3.336-5.261C577.452,272.356,581.627,277.788,578.234,280.577Z" transform="translate(-574.209 -151.592)"/></g><g transform="translate(1100.761 474.795)"><path class="e" d="M619.651,310.167c-4.023-3.5,0-11.084,4.118-8.882C628.4,304.417,624.551,314.938,619.651,310.167Z" transform="translate(-540.592 -299.428)"/><path class="e" d="M600.621,303.931c2.345-2.912,5.719,1.493,3.965,4.7C602.356,312.079,597.513,307.332,600.621,303.931Z" transform="translate(-557.25 -302.98)"/><path class="e" d="M582.575,290.055c-2.593,3.45-6.558-1.395-4.709-5.187C580.325,280.781,586.045,285.9,582.575,290.055Z" transform="translate(-577.391 -236.398)"/></g><g transform="translate(1107.809 447.635)"><path class="e" d="M709.559,314.635c2.9-3.939,7.4,1.468,5.357,5.75C712.19,325.01,705.746,319.333,709.559,314.635Z" transform="translate(-465.702 -313.269)"/><path class="e" d="M702.8,302.214c-2.593-1.737-.629-6.631,1.906-5.677C707.719,297.981,705.985,304.637,702.8,302.214Z" transform="translate(-471.869 -252.669)"/><path class="e" d="M692.571,281.827c1.487-2.887,4.8-.122,3.813,2.887C695.145,288.043,690.55,285.253,692.571,281.827Z" transform="translate(-480.494 -197.463)"/><path class="e" d="M668.657,272.251c4.1,4.037-.477,11.794-4.8,9.127C659.087,277.659,663.682,266.795,668.657,272.251Z" transform="translate(-507.882 -169.045)"/><path class="e" d="M659.081,247.694c-.648,2.789-3.813,1.591-3.679-1.1C655.84,243.608,660.035,244.22,659.081,247.694Z" transform="translate(-513.73 -72.624)"/><path class="e" d="M640.584,245.186c-4.747-3.01-1.335-11.941,3.412-10.375C649.354,237.38,646.437,249.468,640.584,245.186Z" transform="translate(-529.224 -44.839)"/><path class="e" d="M604.962,244.222c5.338.954,4.289,10.987-.705,11.427C598.442,255.429,598.194,242.534,604.962,244.222Z" transform="translate(-564.045 -77.496)"/><path class="e" d="M587.383,236.09c-1.906,4.649-7.149,1.248-6.177-3.426C582.827,227.38,589.957,230.365,587.383,236.09Z" transform="translate(-581.088 -25.516)"/></g><g transform="translate(1282.692 498.868)"><path class="e" d="M687.131,294.258c2.173,1.688.267,5.8-1.906,4.771C682.67,297.561,684.482,291.909,687.131,294.258Z" transform="translate(-662.692 -293.694)"/><path class="e" d="M674.1,261.6c-2.5-1.346-.972-6.044,1.506-5.408C678.386,257.265,677.166,263.529,674.1,261.6Z" transform="translate(-672.82 -164.551)"/></g><g transform="translate(884.893 515.157)"><path class="e" d="M546.746,287.394c2.5-3.964,7.035.71,5.357,4.894C549.8,296.937,543.372,292.19,546.746,287.394Z" transform="translate(-390.171 -285.893)"/><path class="e" d="M544.594,230.482c-7.264-2.716-4.213-16.394,2.8-15.709C555.422,216.633,553.63,234.618,544.594,230.482Z" transform="translate(-395.033 -48.719)"/><path class="e" d="M523.184,220.647c6.177.905,5.167,12.528-.591,13.213C515.882,233.812,515.406,218.935,523.184,220.647Z" transform="translate(-415.851 -65.579)"/><path class="e" d="M473.5,230.036c4.061,6.337-3.146,14.021-7.778,9.274C460.786,233.143,468.7,221.667,473.5,230.036Z" transform="translate(-464.16 -88.597)"/></g><path class="f" d="M639.551,303.776c4.976,7.536-3.584,16.957-9.227,11.3C624.3,307.789,633.679,293.817,639.551,303.776Z" transform="translate(569.59 171.358)"/><path class="f" d="M600.386,299.515c-5.719,2.838-9.017-7.928-4.232-11.916C602.045,283.684,607.783,296.407,600.386,299.515Z" transform="translate(538.293 221.107)"/><path class="f" d="M583.465,215.107c4.537-3.01,7.988,5.481,4.309,9.323C583.2,228.32,577.574,218.484,583.465,215.107Z" transform="translate(526.579 472.882)"/><g transform="translate(1151.598 520.562)"><path class="e" d="M685.763,278.968c-2.193,8.662-12.087,4.6-11.439-3.793C675.926,265.583,688.985,268.226,685.763,278.968Z" transform="translate(-540.391 -240.198)"/><path class="e" d="M606.293,283.348c4.537-4.16,9.342,4.331,5.834,9.249C607.647,297.736,600.345,288.218,606.293,283.348Z" transform="translate(-604.057 -282.236)"/></g><g transform="translate(1239.507 535.319)"><path class="e" d="M686.823,280.33c1.22-3.988,5.719-1.713,5.262,2.2C691.132,286.986,685.05,285.249,686.823,280.33Z" transform="translate(-617.234 -278.242)"/><path class="e" d="M655.567,284.569c-5.853,1.346-7.435-9.788-2.307-12.234C659.38,269.912,663.193,283.395,655.567,284.569Z" transform="translate(-650.168 -262.661)"/></g><g transform="translate(1209.106 546.466)"><path class="e" d="M671.436,275.822c1.43,3.768-2.879,6.484-4.728,3.4C664.878,275.406,669.892,270.928,671.436,275.822Z" transform="translate(-605.133 -273.673)"/><path class="e" d="M634.9,277.349c-2.421-4.037,2.154-8.613,4.957-5.554C642.836,275.734,637.765,282.634,634.9,277.349Z" transform="translate(-634.222 -265.34)"/></g><g transform="translate(1202.858 424.508)"><path class="e" d="M650.163,326.994c.286,5.114-5.586,5.7-6.6,1.077C642.8,322.615,650.163,320.461,650.163,326.994Z" transform="translate(-619.553 -322.957)"/><path class="e" d="M631.051,289.293c.61-6.166,7.626-5.016,8.026.734C638.924,296.731,629.869,297.049,631.051,289.293Z" transform="translate(-630.944 -194.353)"/></g><g transform="translate(998.016 423.817)"><path class="e" d="M529.947,335.827c-7.3,1.3-8.827-12.406-2.383-15.391C535.246,317.94,539.231,334.848,529.947,335.827Z" transform="translate(-523.497 -320.185)"/></g><g transform="translate(1084.789 524.815)"><path class="e" d="M581.838,287.494c-.381,9.788-11.687,9.274-12.811.171C568.512,277.022,582.829,275.015,581.838,287.494Z" transform="translate(-569.013 -278.89)"/></g><g transform="translate(1258.093 445.354)"><path class="e" d="M661.634,320.971c-2.536-2.863.724-7.659,3.47-5.677C668.078,317.986,664.7,324.837,661.634,320.971Z" transform="translate(-659.189 -314.828)"/><path class="e" d="M662.573,276.793c3.546-.612,4.251,6.093,1.106,7.487C659.922,285.455,658.035,277.209,662.573,276.793Z" transform="translate(-659.917 -183.932)"/></g><g transform="translate(1260.724 516.319)"><path class="e" d="M672.812,286.461c2.764-1.493,4.48,3.695,2.173,5.726C672.087,294.193,669.151,288.173,672.812,286.461Z" transform="translate(-652.408 -286.195)"/><path class="e" d="M668.108,281.582c4.4,3.842,0,12.234-4.537,9.788C658.5,287.871,662.751,276.322,668.108,281.582Z" transform="translate(-661.297 -270.819)"/></g><g transform="translate(1403.318 524.903)"><path class="e" d="M760.209,285.573c.133-3.744,4.4-3.5,4.842,0C765.242,289.537,759.828,290.3,760.209,285.573Z" transform="translate(-714.252 -282.856)"/><path class="e" d="M743.827,268.967c.591,5.921-6.177,7.071-7.626,1.811C735.057,264.538,743.388,261.406,743.827,268.967Z" transform="translate(-736.094 -223.332)"/></g><g transform="translate(1075.338 805.758)"><path class="e" d="M565.856,175.46c-3.984-2.912-.686-10.448,3.393-8.76C573.806,169.221,570.775,179.522,565.856,175.46Z" transform="translate(-564.055 -166.457)"/></g><g transform="translate(1656.267 776.023)"><path class="e" d="M893.023,170.955c3.317-.294,3.679,5.946.705,7C890.2,178.785,888.829,171,893.023,170.955Z" transform="translate(-849.146 -149.32)"/><path class="e" d="M872.5,181.135c2.135,2.3-.5,6.289-2.764,4.722C867.3,183.7,869.967,178.027,872.5,181.135Z" transform="translate(-868.775 -180.225)"/></g><g transform="translate(1562.773 825.28)"><path class="e" d="M823.673,158.311c4.842-.22,5.109,8.931.724,10.3C819.212,169.566,817.515,158.139,823.673,158.311Z" transform="translate(-819.734 -158.307)"/></g><g transform="translate(1681.931 865.179)"><path class="e" d="M884.207,143.755c2.86-.832,3.813,4.551,1.354,6.019C882.567,151.1,880.546,144.562,884.207,143.755Z" transform="translate(-882.237 -143.668)"/></g><g transform="translate(42.184 541.043)"><path class="e" d="M57.612,278.753c1.087,6.093-5.853,8.173-7.74,2.912C48.137,275.327,56.563,270.972,57.612,278.753Z" transform="translate(2.809 -274.583)"/><path class="e" d="M22.781,263.692c1.773-2.912,5.109.391,3.946,3.475C25.106,270.543,20.417,267.215,22.781,263.692Z" transform="translate(-22.127 -229.082)"/></g></g></g></g></svg>