<svg xmlns="http://www.w3.org/2000/svg" xmlns:xlink="http://www.w3.org/1999/xlink" viewBox="0 0 187.58 95.72"><defs><style>.cls-1{isolation:isolate;}.cls-2{fill:url(#Degradado_sin_nombre_6);}.cls-3,.cls-4,.cls-5{fill:none;stroke:#020a6b;stroke-miterlimit:10;mix-blend-mode:screen;}.cls-3{stroke-width:2.66px;}.cls-4{stroke-width:2px;}.cls-5{stroke-width:1.33px;}.cls-6{fill:url(#Degradado_sin_nombre_7);}.cls-7{fill:url(#Degradado_sin_nombre_7-2);}.cls-8{fill:url(#Degradado_sin_nombre_6-2);}</style><linearGradient id="Degradado_sin_nombre_6" x1="-138.88" y1="372.69" x2="-123.03" y2="372.69" gradientTransform="matrix(0.93, 0.36, -0.36, 0.93, 318.1, -277.3)" gradientUnits="userSpaceOnUse"><stop offset="0" stop-color="#571a8f"/><stop offset="1" stop-color="#dd025e"/></linearGradient><linearGradient id="Degradado_sin_nombre_7" x1="-50.51" y1="407.63" x2="-42.55" y2="407.63" gradientTransform="matrix(0.93, 0.36, -0.36, 0.93, 318.1, -277.3)" gradientUnits="userSpaceOnUse"><stop offset="0" stop-color="#ffaf11"/><stop offset="1" stop-color="#2b94f2"/></linearGradient><linearGradient id="Degradado_sin_nombre_7-2" x1="-169.67" y1="405.53" x2="-161.72" y2="405.53" xlink:href="#Degradado_sin_nombre_7"/><linearGradient id="Degradado_sin_nombre_6-2" x1="1.83" y1="403.66" x2="17.67" y2="403.66" xlink:href="#Degradado_sin_nombre_6"/></defs><title>circle_with_planet</title><g class="cls-1"><g id="Calque_2" data-name="Calque 2"><g id="OBJECTS"><path class="cls-2" d="M68.34,25.45A7.92,7.92,0,1,0,58.08,30,7.94,7.94,0,0,0,68.34,25.45Z" transform="translate(-5.67 -14.65)"/><ellipse class="cls-3" cx="99.46" cy="59.62" rx="24.57" ry="98.74" transform="translate(2.17 116.05) rotate(-68.74)"/><ellipse class="cls-4" cx="100.24" cy="57.61" rx="18.41" ry="82.66" transform="translate(4.54 115.5) rotate(-68.74)"/><ellipse class="cls-5" cx="101.81" cy="53.58" rx="10.47" ry="63.45" transform="translate(9.29 114.39) rotate(-68.74)"/><ellipse class="cls-5" cx="102.53" cy="51.72" rx="5.79" ry="35.11" transform="translate(11.49 113.88) rotate(-68.74)"/><path class="cls-6" d="M130.67,87.19a4,4,0,1,0-5.14,2.27A4,4,0,0,0,130.67,87.19Z" transform="translate(-5.67 -14.65)"/><path class="cls-7" d="M20.37,42a4,4,0,1,0-5.14,2.27A4,4,0,0,0,20.37,42Z" transform="translate(-5.67 -14.65)"/><path class="cls-8" d="M188.24,105.32A7.92,7.92,0,1,0,178,109.83,7.92,7.92,0,0,0,188.24,105.32Z" transform="translate(-5.67 -14.65)"/></g></g></g></svg>