<svg xmlns="http://www.w3.org/2000/svg" xmlns:xlink="http://www.w3.org/1999/xlink" viewBox="0 0 96.23 40.11"><defs><style>.cls-1{isolation:isolate;}.cls-2{fill:url(#radial-gradient);}.cls-11,.cls-16,.cls-18,.cls-20,.cls-22,.cls-24,.cls-26,.cls-28,.cls-3{mix-blend-mode:multiply;}.cls-3{fill:url(#linear-gradient);}.cls-4{fill:url(#linear-gradient-2);}.cls-14,.cls-5,.cls-7{fill:#fff;}.cls-10,.cls-12,.cls-13,.cls-5,.cls-9{opacity:0.5;}.cls-10,.cls-12,.cls-13,.cls-5,.cls-7,.cls-9{mix-blend-mode:overlay;}.cls-6{fill:none;stroke:#9185e7;stroke-miterlimit:10;}.cls-7{opacity:0.25;}.cls-8{fill:url(#Áåçûìÿííûé_ãðàäèåíò_236);}.cls-9{fill:url(#Áåçûìÿííûé_ãðàäèåíò_236-2);}.cls-10{fill:url(#Áåçûìÿííûé_ãðàäèåíò_236-3);}.cls-11{opacity:0.65;fill:url(#Áåçûìÿííûé_ãðàäèåíò_236-4);}.cls-12{fill:url(#Áåçûìÿííûé_ãðàäèåíò_236-5);}.cls-13{fill:url(#Áåçûìÿííûé_ãðàäèåíò_236-6);}.cls-15{fill:url(#linear-gradient-3);}.cls-16{fill:url(#linear-gradient-4);}.cls-17{fill:url(#linear-gradient-5);}.cls-18{fill:url(#linear-gradient-6);}.cls-19{fill:url(#linear-gradient-7);}.cls-20{fill:url(#linear-gradient-8);}.cls-21{fill:url(#linear-gradient-9);}.cls-22{fill:url(#linear-gradient-10);}.cls-23{fill:url(#linear-gradient-11);}.cls-24{fill:url(#linear-gradient-12);}.cls-25{fill:url(#linear-gradient-13);}.cls-26{fill:url(#linear-gradient-14);}.cls-27{fill:url(#linear-gradient-15);}.cls-28{fill:url(#linear-gradient-16);}</style><radialGradient id="radial-gradient" cx="1237.75" cy="472.7" r="64.55" gradientTransform="translate(280.07 -405.6) rotate(17.44)" gradientUnits="userSpaceOnUse"><stop offset="0" stop-color="#ffe6dc"/><stop offset="0.16" stop-color="#f5dddd"/><stop offset="0.44" stop-color="#d9c4e0"/><stop offset="0.81" stop-color="#ab9ce4"/><stop offset="0.99" stop-color="#9185e7"/></radialGradient><linearGradient id="linear-gradient" x1="1194.18" y1="504.8" x2="1294.58" y2="504.8" gradientTransform="translate(280.07 -405.6) rotate(17.44)" gradientUnits="userSpaceOnUse"><stop offset="0" stop-color="#fff"/><stop offset="0.16" stop-color="#edeafa"/><stop offset="0.54" stop-color="#c5bcef"/><stop offset="0.83" stop-color="#ada0e8"/><stop offset="1" stop-color="#a496e5"/></linearGradient><linearGradient id="linear-gradient-2" x1="1194.18" y1="504.8" x2="1294.58" y2="504.8" gradientTransform="translate(280.07 -405.6) rotate(17.44)" gradientUnits="userSpaceOnUse"><stop offset="0" stop-color="#8365bf"/><stop offset="1" stop-color="#61379d"/></linearGradient><radialGradient id="Áåçûìÿííûé_ãðàäèåíò_236" cx="1319.73" cy="412.73" r="39.04" gradientUnits="userSpaceOnUse"><stop offset="0" stop-color="#ff5731"/><stop offset="0.7" stop-color="#ba005e"/><stop offset="0.95" stop-color="#5e1377"/><stop offset="1" stop-color="#8160ff"/></radialGradient><radialGradient id="Áåçûìÿííûé_ãðàäèåíò_236-2" cx="1330.39" cy="479.18" r="43.47" xlink:href="#Áåçûìÿííûé_ãðàäèåíò_236"/><radialGradient id="Áåçûìÿííûé_ãðàäèåíò_236-3" cx="1330.39" cy="479.18" r="43.47" xlink:href="#Áåçûìÿííûé_ãðàäèåíò_236"/><radialGradient id="Áåçûìÿííûé_ãðàäèåíò_236-4" cx="1315.54" cy="406.44" r="61.94" xlink:href="#Áåçûìÿííûé_ãðàäèåíò_236"/><radialGradient id="Áåçûìÿííûé_ãðàäèåíò_236-5" cx="1330.39" cy="479.18" r="43.47" xlink:href="#Áåçûìÿííûé_ãðàäèåíò_236"/><radialGradient id="Áåçûìÿííûé_ãðàäèåíò_236-6" cx="1330.39" cy="479.17" r="43.47" xlink:href="#Áåçûìÿííûé_ãðàäèåíò_236"/><linearGradient id="linear-gradient-3" x1="1216.33" y1="499.65" x2="1222.23" y2="499.65" gradientTransform="translate(280.07 -405.6) rotate(17.44)" gradientUnits="userSpaceOnUse"><stop offset="0.01" stop-color="#ffee2f"/><stop offset="0.15" stop-color="#ffdb2b"/><stop offset="0.53" stop-color="#ffad22"/><stop offset="0.82" stop-color="#ff911c"/><stop offset="0.99" stop-color="#ff871a"/></linearGradient><linearGradient id="linear-gradient-4" x1="1216.33" y1="500.23" x2="1222.23" y2="500.23" gradientTransform="translate(280.07 -405.6) rotate(17.44)" gradientUnits="userSpaceOnUse"><stop offset="0" stop-color="#fff"/><stop offset="0.15" stop-color="#ffefde"/><stop offset="0.44" stop-color="#ffd19f"/><stop offset="0.69" stop-color="#ffbb72"/><stop offset="0.88" stop-color="#ffad55"/><stop offset="0.99" stop-color="#ffa84b"/></linearGradient><linearGradient id="linear-gradient-5" x1="1196.73" y1="497.13" x2="1202.62" y2="497.13" xlink:href="#linear-gradient-3"/><linearGradient id="linear-gradient-6" x1="1196.73" y1="497.71" x2="1202.62" y2="497.71" xlink:href="#linear-gradient-4"/><linearGradient id="linear-gradient-7" x1="1286.13" y1="495.61" x2="1292.03" y2="495.61" xlink:href="#linear-gradient-3"/><linearGradient id="linear-gradient-8" x1="1286.13" y1="496.19" x2="1292.03" y2="496.19" xlink:href="#linear-gradient-4"/><linearGradient id="linear-gradient-9" x1="1267.52" y1="498.78" x2="1273.42" y2="498.78" xlink:href="#linear-gradient-3"/><linearGradient id="linear-gradient-10" x1="1267.52" y1="499.35" x2="1273.42" y2="499.35" xlink:href="#linear-gradient-4"/><linearGradient id="linear-gradient-11" x1="1242.63" y1="500.99" x2="1248.53" y2="500.99" xlink:href="#linear-gradient-3"/><linearGradient id="linear-gradient-12" x1="1242.63" y1="501.56" x2="1248.53" y2="501.56" xlink:href="#linear-gradient-4"/><linearGradient id="linear-gradient-13" x1="1211.15" y1="490.76" x2="1216.19" y2="490.76" xlink:href="#linear-gradient-3"/><linearGradient id="linear-gradient-14" x1="1211.15" y1="491.25" x2="1216.19" y2="491.25" xlink:href="#linear-gradient-4"/><linearGradient id="linear-gradient-15" x1="1272.2" y1="490.12" x2="1277.23" y2="490.12" xlink:href="#linear-gradient-3"/><linearGradient id="linear-gradient-16" x1="1272.2" y1="490.61" x2="1277.23" y2="490.61" xlink:href="#linear-gradient-4"/></defs><title>soucoupe_1.module_1</title><g class="cls-1"><g id="Calque_2" data-name="Calque 2"><g id="OBJECTS"><path class="cls-2" d="M1269.81,428.2s17.84-7.5,54.48,4.8S1366,456.83,1366,456.83,1313.27,474.41,1269.81,428.2Z" transform="translate(-1269.81 -420)"/><path class="cls-3" d="M1366,456.83c-47.72-2.28-96-28.76-96.23-28.63C1313.27,474.41,1366,456.83,1366,456.83Z" transform="translate(-1269.81 -420)"/><path class="cls-4" d="M1366,456.83c-47.72-2.28-96-28.76-96.23-28.63C1313.27,474.41,1366,456.83,1366,456.83Z" transform="translate(-1269.81 -420)"/><path class="cls-5" d="M1341.88,453.82a265.22,265.22,0,0,1-49-15.08c3.8,6.73,8.12,11.34,12.61,14.4a93.9,93.9,0,0,0,17.93,5.28A45.28,45.28,0,0,0,1341.88,453.82Z" transform="translate(-1269.81 -420)"/><path class="cls-6" d="M1347,448.09c-1,3.08-14,1.74-29-3S1291.41,434,1292.38,431s14-1.74,29,3S1347.92,445,1347,448.09Z" transform="translate(-1269.81 -420)"/><path class="cls-7" d="M1348.87,454.62c-44.14-9.9-71.46-26.16-71.46-26.16,4.78-1.79,13.65-2.06,17.35-2.09-16.72-1.62-25,1.83-25,1.83C1330.74,457.13,1348.87,454.62,1348.87,454.62Z" transform="translate(-1269.81 -420)"/><path class="cls-8" d="M1338.09,445.47c-2.74,1.75-7.7.63-10.4.46-7.73-.48-16.13-4.4-23-7.76-6.67-3.24-4-8.06.36-12.32a20.38,20.38,0,0,1,34.19,10c.52,2.27,1.39,5.92.22,8.12A3.92,3.92,0,0,1,1338.09,445.47Z" transform="translate(-1269.81 -420)"/><path class="cls-9" d="M1306.46,428.82c1.36-6.46,10.66-7.72,16-7.11,6.67.75,12.81,7.83,4.42,11.88-5.44,2.62-11.92,4-17.28.43C1307.8,432.8,1306,431.16,1306.46,428.82Z" transform="translate(-1269.81 -420)"/><path class="cls-10" d="M1306.09,426.88a20.56,20.56,0,0,1,20.42-4.93,20.29,20.29,0,0,1,7.48,4.29,20.31,20.31,0,0,0-29-.39c-3.82,3.76-6.37,8-2.32,11.13C1300.27,434,1302.68,430.25,1306.09,426.88Z" transform="translate(-1269.81 -420)"/><path class="cls-11" d="M1339.22,435.88a18.88,18.88,0,0,0-.78-2.59,27.84,27.84,0,0,1-16.44,4.58c-6.44-.33-15.06-2.21-18.84-8-.15-.22-.28-.44-.4-.65s-.23-.29-.34-.43c-2.46,3.4-2.9,6.84,2.25,9.34,6.89,3.36,15.29,7.28,23,7.76,2.7.17,7.66,1.29,10.4-.46a3.92,3.92,0,0,0,1.35-1.47C1340.61,441.8,1339.74,438.15,1339.22,435.88Z" transform="translate(-1269.81 -420)"/><path class="cls-12" d="M1315.37,431.51c-2.32,1.5-5.23,2.12-7.08.45-4.82-4.32,4.35-9.5,8.32-8.34C1321,424.91,1317.72,430,1315.37,431.51Z" transform="translate(-1269.81 -420)"/><path class="cls-13" d="M1324.29,422.69c1.46,0,2.93.59,3.26,1.86.87,3.32-4.69,2.94-6.1,1.27C1319.87,424,1322.81,422.68,1324.29,422.69Z" transform="translate(-1269.81 -420)"/><path class="cls-14" d="M1312,427.93a1.76,1.76,0,0,1-2.09.14c-1.43-1.28,1.28-2.81,2.45-2.47S1312.73,427.49,1312,427.93Zm3.59-2.05a.92.92,0,0,0-1-.55c-.44,0-1.31.37-.84.92S1315.89,426.85,1315.63,425.88Z" transform="translate(-1269.81 -420)"/><path class="cls-15" d="M1295.87,438.38c-.4.26-1.12.1-1.51.07a9.56,9.56,0,0,1-3.35-1.13c-1-.47-.58-1.17,0-1.79a3,3,0,0,1,5,1.46,1.91,1.91,0,0,1,0,1.18A.58.58,0,0,1,1295.87,438.38Z" transform="translate(-1269.81 -420)"/><path class="cls-5" d="M1291.27,436c.19-.94,1.55-1.12,2.33-1,1,.11,1.86,1.14.64,1.73a2.48,2.48,0,0,1-2.51.06C1291.46,436.54,1291.2,436.3,1291.27,436Z" transform="translate(-1269.81 -420)"/><path class="cls-5" d="M1291.21,435.68a2.93,2.93,0,0,1,4.06-.09,2.88,2.88,0,0,0-1.24-.78,3,3,0,0,0-3,.72c-.56.55-.93,1.16-.34,1.62C1290.37,436.71,1290.72,436.17,1291.21,435.68Z" transform="translate(-1269.81 -420)"/><path class="cls-16" d="M1296,437a2.72,2.72,0,0,0-.11-.38,4.05,4.05,0,0,1-2.39.67,3.52,3.52,0,0,1-2.74-1.16l-.06-.09,0-.07c-.36.5-.42,1,.33,1.36a9.56,9.56,0,0,0,3.35,1.13c.39,0,1.11.19,1.51-.07a.58.58,0,0,0,.2-.21A1.91,1.91,0,0,0,1296,437Z" transform="translate(-1269.81 -420)"/><path class="cls-5" d="M1292.56,436.35a.86.86,0,0,1-1,.07c-.7-.63.64-1.38,1.21-1.21S1292.91,436.13,1292.56,436.35Z" transform="translate(-1269.81 -420)"/><path class="cls-5" d="M1293.86,435.07a.47.47,0,0,1,.48.27c.12.48-.69.43-.89.19S1293.65,435.07,1293.86,435.07Z" transform="translate(-1269.81 -420)"/><path class="cls-14" d="M1292.08,435.83a.26.26,0,0,1-.31,0c-.2-.18.19-.41.36-.36S1292.18,435.77,1292.08,435.83Zm.52-.3s-.07-.08-.14-.08-.19.06-.12.14S1292.64,435.68,1292.6,435.53Z" transform="translate(-1269.81 -420)"/><path class="cls-17" d="M1277.92,430.1c-.4.25-1.12.09-1.51.07a9.56,9.56,0,0,1-3.35-1.13c-1-.47-.58-1.17,0-1.79a3,3,0,0,1,5,1.46,2,2,0,0,1,0,1.18A.58.58,0,0,1,1277.92,430.1Z" transform="translate(-1269.81 -420)"/><path class="cls-5" d="M1273.32,427.68c.2-.94,1.55-1.12,2.33-1,1,.11,1.86,1.14.64,1.73a2.51,2.51,0,0,1-2.51.07C1273.52,428.26,1273.25,428,1273.32,427.68Z" transform="translate(-1269.81 -420)"/><path class="cls-5" d="M1273.27,427.4a3,3,0,0,1,3-.72,3.12,3.12,0,0,1,1.09.62,3,3,0,0,0-4.22-.05c-.55.54-.93,1.16-.33,1.62C1272.42,428.43,1272.77,427.89,1273.27,427.4Z" transform="translate(-1269.81 -420)"/><path class="cls-18" d="M1278.09,428.71a2.4,2.4,0,0,0-.12-.38,4,4,0,0,1-2.39.66,3.53,3.53,0,0,1-2.74-1.15l-.06-.1,0-.06c-.35.49-.42,1,.33,1.36a9.56,9.56,0,0,0,3.35,1.13c.39,0,1.11.18,1.51-.07a.58.58,0,0,0,.2-.21A2,2,0,0,0,1278.09,428.71Z" transform="translate(-1269.81 -420)"/><path class="cls-5" d="M1274.62,428.07a.86.86,0,0,1-1,.07c-.71-.63.63-1.39,1.21-1.22S1275,427.85,1274.62,428.07Z" transform="translate(-1269.81 -420)"/><path class="cls-5" d="M1275.91,426.79c.22,0,.43.08.48.27.13.48-.68.43-.89.18S1275.7,426.78,1275.91,426.79Z" transform="translate(-1269.81 -420)"/><path class="cls-14" d="M1274.13,427.55a.26.26,0,0,1-.3,0c-.21-.19.19-.41.36-.36S1274.23,427.48,1274.13,427.55Zm.52-.3c0-.05-.07-.08-.14-.08s-.19.06-.12.13S1274.69,427.39,1274.65,427.25Z" transform="translate(-1269.81 -420)"/><path class="cls-19" d="M1363.67,455.44c-.4.26-1.12.1-1.51.07a9.56,9.56,0,0,1-3.35-1.13c-1-.47-.58-1.17,0-1.79a3,3,0,0,1,5,1.46,2,2,0,0,1,0,1.18A.58.58,0,0,1,1363.67,455.44Z" transform="translate(-1269.81 -420)"/><path class="cls-5" d="M1359.07,453c.2-.94,1.55-1.12,2.33-1,1,.11,1.86,1.14.64,1.73a2.5,2.5,0,0,1-2.51.06C1359.26,453.6,1359,453.36,1359.07,453Z" transform="translate(-1269.81 -420)"/><path class="cls-5" d="M1359,452.74a3,3,0,0,1,3-.72,3.14,3.14,0,0,1,1.09.63,2.92,2.92,0,0,0-1.25-.78,3,3,0,0,0-3,.72c-.55.55-.93,1.16-.33,1.62C1358.17,453.77,1358.52,453.23,1359,452.74Z" transform="translate(-1269.81 -420)"/><path class="cls-20" d="M1363.84,454.05a2.4,2.4,0,0,0-.12-.38,4.05,4.05,0,0,1-2.39.67,3.53,3.53,0,0,1-2.74-1.16l-.06-.1,0-.06c-.35.5-.42,1,.33,1.36a9.56,9.56,0,0,0,3.35,1.13c.39,0,1.11.19,1.51-.07a.58.58,0,0,0,.2-.21A2,2,0,0,0,1363.84,454.05Z" transform="translate(-1269.81 -420)"/><path class="cls-5" d="M1360.37,453.41a.86.86,0,0,1-1,.07c-.7-.63.63-1.38,1.2-1.22S1360.71,453.19,1360.37,453.41Z" transform="translate(-1269.81 -420)"/><path class="cls-5" d="M1361.66,452.13c.22,0,.43.08.48.27.13.48-.68.43-.89.19S1361.45,452.13,1361.66,452.13Z" transform="translate(-1269.81 -420)"/><path class="cls-14" d="M1359.88,452.89a.24.24,0,0,1-.3,0c-.21-.18.18-.41.35-.36S1360,452.83,1359.88,452.89Zm.52-.3s-.07-.08-.14-.08-.19.06-.12.14S1360.44,452.74,1360.4,452.59Z" transform="translate(-1269.81 -420)"/><path class="cls-21" d="M1345,452.89c-.4.25-1.12.09-1.51.06a9.56,9.56,0,0,1-3.35-1.13c-1-.47-.58-1.17.05-1.79a3,3,0,0,1,5,1.46,1.91,1.91,0,0,1,0,1.18A.57.57,0,0,1,1345,452.89Z" transform="translate(-1269.81 -420)"/><path class="cls-5" d="M1340.37,450.46c.2-.94,1.55-1.12,2.33-1,1,.11,1.86,1.14.64,1.73a2.48,2.48,0,0,1-2.51.06C1340.56,451,1340.3,450.8,1340.37,450.46Z" transform="translate(-1269.81 -420)"/><path class="cls-5" d="M1340.31,450.18a3,3,0,0,1,3-.72,3,3,0,0,1,1.09.63,3,3,0,0,0-4.21-.06c-.55.55-.93,1.16-.34,1.62C1339.47,451.21,1339.82,450.67,1340.31,450.18Z" transform="translate(-1269.81 -420)"/><path class="cls-22" d="M1345.13,451.49a2.26,2.26,0,0,0-.11-.37,4.12,4.12,0,0,1-2.39.66,3.52,3.52,0,0,1-2.74-1.16l-.06-.09,0-.07c-.36.5-.42,1,.33,1.36a9.56,9.56,0,0,0,3.35,1.13c.39,0,1.11.19,1.51-.06a.57.57,0,0,0,.19-.22A1.91,1.91,0,0,0,1345.13,451.49Z" transform="translate(-1269.81 -420)"/><path class="cls-5" d="M1341.66,450.86a.86.86,0,0,1-1,.06c-.7-.63.64-1.38,1.21-1.21S1342,450.63,1341.66,450.86Z" transform="translate(-1269.81 -420)"/><path class="cls-5" d="M1343,449.57a.47.47,0,0,1,.48.27c.12.49-.69.43-.89.19S1342.75,449.57,1343,449.57Z" transform="translate(-1269.81 -420)"/><path class="cls-14" d="M1341.18,450.33c-.1.07-.23.1-.3,0s.18-.4.35-.35S1341.28,450.27,1341.18,450.33Zm.52-.29c0-.06-.08-.08-.14-.08s-.19.05-.12.13S1341.74,450.18,1341.7,450Z" transform="translate(-1269.81 -420)"/><path class="cls-23" d="M1320.56,447.54c-.4.25-1.12.09-1.51.06a9.75,9.75,0,0,1-3.35-1.12c-1-.48-.58-1.18,0-1.8a3,3,0,0,1,5,1.46,1.94,1.94,0,0,1,0,1.19A.48.48,0,0,1,1320.56,447.54Z" transform="translate(-1269.81 -420)"/><path class="cls-5" d="M1316,445.12c.2-.94,1.55-1.13,2.33-1,1,.11,1.86,1.14.64,1.73a2.48,2.48,0,0,1-2.51.06C1316.15,445.69,1315.89,445.46,1316,445.12Z" transform="translate(-1269.81 -420)"/><path class="cls-5" d="M1315.9,444.83a3,3,0,0,1,3-.71,2.85,2.85,0,0,1,1.08.62,3,3,0,0,0-4.21-.06c-.56.55-.93,1.16-.34,1.62C1315.06,445.87,1315.41,445.32,1315.9,444.83Z" transform="translate(-1269.81 -420)"/><path class="cls-24" d="M1320.72,446.14a2.26,2.26,0,0,0-.11-.37,4,4,0,0,1-2.39.66,3.52,3.52,0,0,1-2.74-1.16l-.06-.09-.05-.06a.8.8,0,0,0,.33,1.36,9.75,9.75,0,0,0,3.35,1.12c.39,0,1.11.19,1.51-.06a.48.48,0,0,0,.19-.21A1.94,1.94,0,0,0,1320.72,446.14Z" transform="translate(-1269.81 -420)"/><path class="cls-5" d="M1317.25,445.51a.86.86,0,0,1-1,.06c-.7-.62.64-1.38,1.21-1.21S1317.6,445.29,1317.25,445.51Z" transform="translate(-1269.81 -420)"/><path class="cls-5" d="M1318.55,444.22c.21,0,.43.09.47.27.13.49-.68.43-.88.19S1318.34,444.22,1318.55,444.22Z" transform="translate(-1269.81 -420)"/><path class="cls-14" d="M1316.77,445a.27.27,0,0,1-.31,0c-.21-.19.19-.41.36-.36S1316.87,444.92,1316.77,445Zm.52-.3c0-.06-.08-.08-.14-.08s-.19.05-.12.13S1317.33,444.83,1317.29,444.69Z" transform="translate(-1269.81 -420)"/><path class="cls-25" d="M1292.84,427.94c-.34.21-1,.07-1.29.05a8.13,8.13,0,0,1-2.86-1c-.83-.4-.49-1,0-1.53a2.54,2.54,0,0,1,4.25,1.24,1.74,1.74,0,0,1,0,1A.52.52,0,0,1,1292.84,427.94Z" transform="translate(-1269.81 -420)"/><path class="cls-5" d="M1288.91,425.87c.17-.8,1.33-1,2-.89.83.1,1.59,1,.55,1.48a2.12,2.12,0,0,1-2.15.05C1289.08,426.36,1288.85,426.16,1288.91,425.87Z" transform="translate(-1269.81 -420)"/><path class="cls-5" d="M1288.87,425.63a2.5,2.5,0,0,1,3.46-.08,2.44,2.44,0,0,0-1.06-.66,2.55,2.55,0,0,0-2.54.61c-.47.47-.79,1-.28,1.38C1288.14,426.51,1288.44,426.05,1288.87,425.63Z" transform="translate(-1269.81 -420)"/><path class="cls-26" d="M1293,426.74a2,2,0,0,0-.1-.32,3.41,3.41,0,0,1-2,.57,3,3,0,0,1-2.34-1,.56.56,0,0,1,0-.08l0-.05c-.3.42-.36.85.28,1.16a8.13,8.13,0,0,0,2.86,1c.33,0,1,.16,1.29-.05a.52.52,0,0,0,.17-.19A1.74,1.74,0,0,0,1293,426.74Z" transform="translate(-1269.81 -420)"/><path class="cls-5" d="M1290,426.2a.73.73,0,0,1-.88.06c-.6-.54.54-1.18,1-1S1290.31,426,1290,426.2Z" transform="translate(-1269.81 -420)"/><path class="cls-5" d="M1291.13,425.11a.38.38,0,0,1,.4.23c.11.41-.58.36-.76.16S1290.94,425.11,1291.13,425.11Z" transform="translate(-1269.81 -420)"/><path class="cls-14" d="M1289.61,425.76c-.09.05-.2.08-.26,0s.15-.34.3-.3S1289.69,425.7,1289.61,425.76Zm.44-.26s-.06-.06-.12-.07-.16.05-.1.12S1290.08,425.62,1290.05,425.5Z" transform="translate(-1269.81 -420)"/><path class="cls-27" d="M1351.27,445.62c-.34.22-1,.08-1.3.06a8.36,8.36,0,0,1-2.85-1c-.83-.41-.49-1,0-1.54a2.53,2.53,0,0,1,4.25,1.25,1.74,1.74,0,0,1,0,1A.49.49,0,0,1,1351.27,445.62Z" transform="translate(-1269.81 -420)"/><path class="cls-5" d="M1347.34,443.55c.17-.8,1.32-.95,2-.88.83.09,1.59,1,.55,1.48a2.15,2.15,0,0,1-2.15.05C1347.51,444.05,1347.28,443.84,1347.34,443.55Z" transform="translate(-1269.81 -420)"/><path class="cls-5" d="M1347.29,443.31a2.56,2.56,0,0,1,2.54-.61,2.53,2.53,0,0,1,.93.53,2.53,2.53,0,0,0-3.6-.05c-.47.47-.79,1-.28,1.39C1346.57,444.19,1346.87,443.73,1347.29,443.31Z" transform="translate(-1269.81 -420)"/><path class="cls-28" d="M1351.41,444.43a3,3,0,0,0-.1-.32,3.49,3.49,0,0,1-2,.57,3,3,0,0,1-2.34-1,.56.56,0,0,0,0-.08l0-.06c-.31.43-.36.85.28,1.17a8.36,8.36,0,0,0,2.85,1c.34,0,1,.16,1.3-.06a.49.49,0,0,0,.17-.18A1.74,1.74,0,0,0,1351.41,444.43Z" transform="translate(-1269.81 -420)"/><path class="cls-5" d="M1348.45,443.89a.74.74,0,0,1-.88.05c-.6-.53.54-1.18,1-1S1348.74,443.7,1348.45,443.89Z" transform="translate(-1269.81 -420)"/><path class="cls-5" d="M1349.55,442.79c.19,0,.37.07.41.23.11.41-.58.37-.76.16S1349.37,442.79,1349.55,442.79Z" transform="translate(-1269.81 -420)"/><path class="cls-14" d="M1348,443.44a.21.21,0,0,1-.26,0c-.17-.16.16-.35.31-.31S1348.12,443.39,1348,443.44Zm.45-.25c0-.05-.07-.07-.12-.07s-.16.05-.11.11S1348.51,443.31,1348.48,443.19Z" transform="translate(-1269.81 -420)"/></g></g></g></svg>