<svg xmlns="http://www.w3.org/2000/svg" xmlns:xlink="http://www.w3.org/1999/xlink" viewBox="0 0 71.69 31.35"><defs><style>.cls-1{isolation:isolate;}.cls-2{fill:url(#radial-gradient);}.cls-12,.cls-14,.cls-16,.cls-18,.cls-20,.cls-22,.cls-24,.cls-3{mix-blend-mode:multiply;}.cls-3{fill:url(#linear-gradient);}.cls-4{fill:url(#linear-gradient-2);}.cls-10,.cls-5,.cls-7{fill:#fff;}.cls-5{opacity:0.5;}.cls-5,.cls-7{mix-blend-mode:overlay;}.cls-6{fill:none;stroke:#9185e7;stroke-miterlimit:10;}.cls-7{opacity:0.25;}.cls-8{fill:url(#radial-gradient-2);}.cls-9{mix-blend-mode:color-burn;fill:url(#linear-gradient-3);}.cls-11{fill:url(#linear-gradient-4);}.cls-12{fill:url(#linear-gradient-5);}.cls-13{fill:url(#linear-gradient-6);}.cls-14{fill:url(#linear-gradient-7);}.cls-15{fill:url(#linear-gradient-8);}.cls-16{fill:url(#linear-gradient-9);}.cls-17{fill:url(#linear-gradient-10);}.cls-18{fill:url(#linear-gradient-11);}.cls-19{fill:url(#linear-gradient-12);}.cls-20{fill:url(#linear-gradient-13);}.cls-21{fill:url(#linear-gradient-14);}.cls-22{fill:url(#linear-gradient-15);}.cls-23{fill:url(#linear-gradient-16);}.cls-24{fill:url(#linear-gradient-17);}</style><radialGradient id="radial-gradient" cx="1354.34" cy="213" r="48.79" gradientTransform="translate(31.7 411.62) rotate(-18.28)" gradientUnits="userSpaceOnUse"><stop offset="0" stop-color="#ffe6dc"/><stop offset="0.16" stop-color="#f5dddd"/><stop offset="0.44" stop-color="#d9c4e0"/><stop offset="0.81" stop-color="#ab9ce4"/><stop offset="0.99" stop-color="#9185e7"/></radialGradient><linearGradient id="linear-gradient" x1="1321.42" y1="237.26" x2="1397.29" y2="237.26" gradientTransform="translate(31.7 411.62) rotate(-18.28)" gradientUnits="userSpaceOnUse"><stop offset="0" stop-color="#fff"/><stop offset="0.16" stop-color="#edeafa"/><stop offset="0.54" stop-color="#c5bcef"/><stop offset="0.83" stop-color="#ada0e8"/><stop offset="1" stop-color="#a496e5"/></linearGradient><linearGradient id="linear-gradient-2" x1="1321.42" y1="237.26" x2="1397.29" y2="237.26" gradientTransform="translate(31.7 411.62) rotate(-18.28)" gradientUnits="userSpaceOnUse"><stop offset="0" stop-color="#8365bf"/><stop offset="1" stop-color="#61379d"/></linearGradient><radialGradient id="radial-gradient-2" cx="1375.67" cy="177" r="78.1" gradientUnits="userSpaceOnUse"><stop offset="0" stop-color="#2c6aff"/><stop offset="0.12" stop-color="#2b68fb"/><stop offset="0.24" stop-color="#2963ee"/><stop offset="0.37" stop-color="#255ad9"/><stop offset="0.5" stop-color="#204ebc"/><stop offset="0.63" stop-color="#1a3e96"/><stop offset="0.76" stop-color="#122b67"/><stop offset="0.89" stop-color="#091531"/><stop offset="1"/></radialGradient><linearGradient id="linear-gradient-3" x1="1344.62" y1="227.02" x2="1375.25" y2="227.02" gradientTransform="translate(31.7 411.62) rotate(-18.28)" gradientUnits="userSpaceOnUse"><stop offset="0" stop-color="#fff7f5"/><stop offset="0.16" stop-color="#f9eff3"/><stop offset="0.41" stop-color="#e7d8ed"/><stop offset="0.73" stop-color="#cbb4e4"/><stop offset="1" stop-color="#ae8edb"/></linearGradient><linearGradient id="linear-gradient-4" x1="1338.16" y1="233.37" x2="1342.61" y2="233.37" gradientTransform="translate(31.7 411.62) rotate(-18.28)" gradientUnits="userSpaceOnUse"><stop offset="0.01" stop-color="#ffee2f"/><stop offset="0.15" stop-color="#ffdb2b"/><stop offset="0.53" stop-color="#ffad22"/><stop offset="0.82" stop-color="#ff911c"/><stop offset="0.99" stop-color="#ff871a"/></linearGradient><linearGradient id="linear-gradient-5" x1="1338.16" y1="233.8" x2="1342.61" y2="233.8" gradientTransform="translate(31.7 411.62) rotate(-18.28)" gradientUnits="userSpaceOnUse"><stop offset="0" stop-color="#fff"/><stop offset="0.15" stop-color="#ffefde"/><stop offset="0.44" stop-color="#ffd19f"/><stop offset="0.69" stop-color="#ffbb72"/><stop offset="0.88" stop-color="#ffad55"/><stop offset="0.99" stop-color="#ffa84b"/></linearGradient><linearGradient id="linear-gradient-6" x1="1323.34" y1="231.46" x2="1327.79" y2="231.46" xlink:href="#linear-gradient-4"/><linearGradient id="linear-gradient-7" x1="1323.34" y1="231.89" x2="1327.79" y2="231.89" xlink:href="#linear-gradient-5"/><linearGradient id="linear-gradient-8" x1="1390.91" y1="230.32" x2="1395.37" y2="230.32" xlink:href="#linear-gradient-4"/><linearGradient id="linear-gradient-9" x1="1390.91" y1="230.75" x2="1395.37" y2="230.75" xlink:href="#linear-gradient-5"/><linearGradient id="linear-gradient-10" x1="1376.84" y1="232.71" x2="1381.3" y2="232.71" xlink:href="#linear-gradient-4"/><linearGradient id="linear-gradient-11" x1="1376.84" y1="233.14" x2="1381.3" y2="233.14" xlink:href="#linear-gradient-5"/><linearGradient id="linear-gradient-12" x1="1358.03" y1="234.38" x2="1362.49" y2="234.38" xlink:href="#linear-gradient-4"/><linearGradient id="linear-gradient-13" x1="1358.03" y1="234.81" x2="1362.49" y2="234.81" xlink:href="#linear-gradient-5"/><linearGradient id="linear-gradient-14" x1="1334.24" y1="226.64" x2="1338.05" y2="226.64" xlink:href="#linear-gradient-4"/><linearGradient id="linear-gradient-15" x1="1334.24" y1="227.01" x2="1338.05" y2="227.01" xlink:href="#linear-gradient-5"/><linearGradient id="linear-gradient-16" x1="1380.38" y1="226.16" x2="1384.18" y2="226.16" xlink:href="#linear-gradient-4"/><linearGradient id="linear-gradient-17" x1="1380.38" y1="226.53" x2="1384.18" y2="226.53" xlink:href="#linear-gradient-5"/></defs><title>soucoupe_2.module_1</title><g class="cls-1"><g id="Calque_2" data-name="Calque 2"><g id="OBJECTS"><path class="cls-2" d="M1359.39,218.09s7.64-12.47,35.55-21.09,36.14-3.79,36.14-3.79S1406.45,227.28,1359.39,218.09Z" transform="translate(-1359.39 -188.32)"/><path class="cls-3" d="M1431.08,193.21c-30.29,19.65-71.59,24.7-71.69,24.88C1406.45,227.28,1431.08,193.21,1431.08,193.21Z" transform="translate(-1359.39 -188.32)"/><path class="cls-4" d="M1431.08,193.21c-30.29,19.65-71.59,24.7-71.69,24.88C1406.45,227.28,1431.08,193.21,1431.08,193.21Z" transform="translate(-1359.39 -188.32)"/><path class="cls-5" d="M1414.92,202a200.73,200.73,0,0,1-36.72,12.37,31.57,31.57,0,0,0,14.09,3.27,70.75,70.75,0,0,0,13.34-4.67A34.21,34.21,0,0,0,1414.92,202Z" transform="translate(-1359.39 -188.32)"/><path class="cls-6" d="M1415.5,196.27c.77,2.31-7.8,7.22-19.14,11s-21.14,4.9-21.91,2.59,7.81-7.23,19.15-11S1414.74,194,1415.5,196.27Z" transform="translate(-1359.39 -188.32)"/><path class="cls-7" d="M1419.56,199.43c-31.45,13.4-55.39,15.48-55.39,15.48,2.15-3.21,7.47-7.29,9.73-8.94-11,6.38-14.51,12.12-14.51,12.12C1409.55,209,1419.56,199.43,1419.56,199.43Z" transform="translate(-1359.39 -188.32)"/><path class="cls-8" d="M1408.91,198.57c-.91,2.28-4.45,3.79-6.18,4.87-5,3.12-11.84,4.42-17.55,5.4-5.52.95-6-3.21-5.21-7.72a15.41,15.41,0,0,1,25.41-8.94c1.32,1.17,3.46,3,3.72,4.89A3,3,0,0,1,1408.91,198.57Z" transform="translate(-1359.39 -188.32)"/><path class="cls-5" d="M1382.16,202.31c-2-4.57,3.14-9.44,6.69-11.44,4.42-2.48,11.32-.84,8,5.35-2.18,4-5.52,7.74-10.41,7.89C1384.73,204.16,1382.89,204,1382.16,202.31Z" transform="translate(-1359.39 -188.32)"/><path class="cls-5" d="M1381.07,201.28a15.33,15.33,0,0,1,16.85-12.7,15.34,15.34,0,0,0-18,12.54c-.68,4-.4,7.7,3.49,7.85C1380.63,208.2,1380.46,204.85,1381.07,201.28Z" transform="translate(-1359.39 -188.32)"/><path class="cls-9" d="M1405.38,192.18a17.38,17.38,0,0,0-1.62-1.24,21.08,21.08,0,0,1-8.08,10.07c-4.09,2.63-10.21,5.29-15.07,3.43l-.53-.23-.4-.11c0,3.17,1.24,5.48,5.5,4.74,5.71-1,12.59-2.28,17.55-5.4,1.73-1.08,5.27-2.59,6.18-4.87a3,3,0,0,0,.19-1.5C1408.84,195.21,1406.7,193.35,1405.38,192.18Z" transform="translate(-1359.39 -188.32)"/><path class="cls-5" d="M1388.82,200c-.77,1.94-2.28,3.61-4.16,3.4-4.86-.53-1.52-7.75,1.43-8.79C1389.37,193.48,1389.59,198.06,1388.82,200Z" transform="translate(-1359.39 -188.32)"/><path class="cls-5" d="M1390.39,190.68a2.39,2.39,0,0,1,2.83-.3c2,1.65-1.58,3.87-3.19,3.48C1388.24,193.42,1389.48,191.33,1390.39,190.68Z" transform="translate(-1359.39 -188.32)"/><path class="cls-10" d="M1385.19,199.3c-.23.58-.67,1.07-1.23,1-1.43-.16-.45-2.29.42-2.6S1385.42,198.72,1385.19,199.3Zm1.3-2.85a.72.72,0,0,0-.84.09c-.27.19-.63.81-.1.94S1387.08,196.94,1386.49,196.45Z" transform="translate(-1359.39 -188.32)"/><path class="cls-11" d="M1379.88,212.85c-.13.33-.65.55-.9.71a7.27,7.27,0,0,1-2.55.78c-.81.14-.88-.46-.76-1.12a2.24,2.24,0,0,1,3.69-1.3c.19.17.51.44.54.71A.41.41,0,0,1,1379.88,212.85Z" transform="translate(-1359.39 -188.32)"/><path class="cls-5" d="M1376,213.39c-.3-.66.45-1.37,1-1.66s1.64-.12,1.16.78a1.92,1.92,0,0,1-1.52,1.15C1376.36,213.66,1376.09,213.63,1376,213.39Z" transform="translate(-1359.39 -188.32)"/><path class="cls-5" d="M1375.83,213.24a2.26,2.26,0,0,1,1.5-1.75,2.19,2.19,0,0,1,1-.09,2.2,2.2,0,0,0-1.11.07,2.26,2.26,0,0,0-1.5,1.75c-.1.58-.06,1.12.5,1.14C1375.76,214.25,1375.74,213.76,1375.83,213.24Z" transform="translate(-1359.39 -188.32)"/><path class="cls-12" d="M1379.36,211.92a1.3,1.3,0,0,0-.23-.18,3.14,3.14,0,0,1-1.18,1.47,2.67,2.67,0,0,1-2.19.49l-.08,0-.06,0c0,.47.18.8.81.69a7.27,7.27,0,0,0,2.55-.78c.25-.16.77-.38.9-.71a.41.41,0,0,0,0-.22C1379.87,212.36,1379.55,212.09,1379.36,211.92Z" transform="translate(-1359.39 -188.32)"/><path class="cls-5" d="M1377,213.06c-.11.29-.33.53-.6.5-.71-.08-.22-1.13.21-1.28S1377.07,212.78,1377,213.06Z" transform="translate(-1359.39 -188.32)"/><path class="cls-5" d="M1377.18,211.7a.35.35,0,0,1,.41,0c.29.24-.22.56-.46.5S1377.05,211.8,1377.18,211.7Z" transform="translate(-1359.39 -188.32)"/><path class="cls-10" d="M1376.43,213c0,.08-.1.15-.18.14s-.07-.33.06-.37S1376.46,212.87,1376.43,213Zm.19-.42a.11.11,0,0,0-.13,0s-.09.11,0,.13S1376.7,212.61,1376.62,212.54Z" transform="translate(-1359.39 -188.32)"/><path class="cls-13" d="M1365.21,215.69c-.13.33-.65.55-.9.7a7.09,7.09,0,0,1-2.55.79c-.81.14-.87-.47-.76-1.12a2.24,2.24,0,0,1,3.7-1.3c.19.17.5.44.54.71A.41.41,0,0,1,1365.21,215.69Z" transform="translate(-1359.39 -188.32)"/><path class="cls-5" d="M1361.32,216.23c-.3-.66.46-1.37,1-1.66s1.65-.13,1.16.77a1.88,1.88,0,0,1-1.52,1.15C1361.69,216.5,1361.42,216.47,1361.32,216.23Z" transform="translate(-1359.39 -188.32)"/><path class="cls-5" d="M1361.16,216.08a2.27,2.27,0,0,1,1.51-1.75,2.29,2.29,0,0,1,.94-.1,2.23,2.23,0,0,0-2.61,1.83c-.1.58-.06,1.12.51,1.14C1361.1,217.09,1361.07,216.6,1361.16,216.08Z" transform="translate(-1359.39 -188.32)"/><path class="cls-14" d="M1364.7,214.76l-.24-.18a3.05,3.05,0,0,1-1.17,1.46,2.7,2.7,0,0,1-2.2.5l-.07,0-.06,0c0,.46.18.8.8.69a7.09,7.09,0,0,0,2.55-.79c.25-.15.77-.37.9-.7a.41.41,0,0,0,0-.22C1365.2,215.2,1364.89,214.93,1364.7,214.76Z" transform="translate(-1359.39 -188.32)"/><path class="cls-5" d="M1362.29,215.9a.65.65,0,0,1-.61.49c-.71-.07-.22-1.12.21-1.28S1362.4,215.61,1362.29,215.9Z" transform="translate(-1359.39 -188.32)"/><path class="cls-5" d="M1362.52,214.54a.35.35,0,0,1,.41,0c.29.24-.23.57-.47.51S1362.38,214.63,1362.52,214.54Z" transform="translate(-1359.39 -188.32)"/><path class="cls-10" d="M1361.76,215.79c0,.09-.1.16-.18.15s-.06-.33.06-.38S1361.79,215.71,1361.76,215.79Zm.19-.41a.09.09,0,0,0-.12,0s-.1.12,0,.14S1362,215.45,1362,215.38Z" transform="translate(-1359.39 -188.32)"/><path class="cls-15" d="M1429,193.4c-.13.34-.64.55-.9.71a7.5,7.5,0,0,1-2.55.79c-.8.14-.87-.47-.76-1.13a2.27,2.27,0,0,1,1.51-1.75,2.3,2.3,0,0,1,2.19.45c.19.18.5.44.54.72A.37.37,0,0,1,1429,193.4Z" transform="translate(-1359.39 -188.32)"/><path class="cls-5" d="M1425.12,194c-.29-.67.46-1.38,1-1.67s1.65-.12,1.16.78a1.89,1.89,0,0,1-1.51,1.15C1425.49,194.22,1425.23,194.19,1425.12,194Z" transform="translate(-1359.39 -188.32)"/><path class="cls-5" d="M1425,193.8a2.25,2.25,0,0,1,1.51-1.75,2.15,2.15,0,0,1,.94-.1,2.17,2.17,0,0,0-1.1.07,2.27,2.27,0,0,0-1.51,1.75c-.1.58-.06,1.13.51,1.15C1424.9,194.8,1424.87,194.32,1425,193.8Z" transform="translate(-1359.39 -188.32)"/><path class="cls-16" d="M1428.5,192.47l-.24-.18a3,3,0,0,1-1.17,1.47,2.7,2.7,0,0,1-2.2.5l-.07,0h-.06c0,.46.18.79.8.69a7.5,7.5,0,0,0,2.55-.79c.26-.16.77-.37.9-.71a.37.37,0,0,0,0-.21C1429,192.91,1428.69,192.65,1428.5,192.47Z" transform="translate(-1359.39 -188.32)"/><path class="cls-5" d="M1426.09,193.62a.65.65,0,0,1-.61.49c-.7-.08-.22-1.13.21-1.28S1426.2,193.33,1426.09,193.62Z" transform="translate(-1359.39 -188.32)"/><path class="cls-5" d="M1426.32,192.26a.34.34,0,0,1,.41,0c.29.24-.23.57-.47.51S1426.19,192.35,1426.32,192.26Z" transform="translate(-1359.39 -188.32)"/><path class="cls-10" d="M1425.56,193.51a.21.21,0,0,1-.18.15c-.21,0-.06-.34.06-.38S1425.59,193.43,1425.56,193.51Zm.19-.41a.09.09,0,0,0-.12,0s-.09.12,0,.13S1425.83,193.17,1425.75,193.1Z" transform="translate(-1359.39 -188.32)"/><path class="cls-17" d="M1416.41,200.09c-.14.33-.65.55-.9.7a7.14,7.14,0,0,1-2.56.79c-.8.14-.87-.47-.75-1.12a2.24,2.24,0,0,1,3.69-1.3c.19.17.51.44.54.71A.53.53,0,0,1,1416.41,200.09Z" transform="translate(-1359.39 -188.32)"/><path class="cls-5" d="M1412.51,200.63c-.29-.66.46-1.37,1-1.66s1.64-.13,1.15.77a1.86,1.86,0,0,1-1.51,1.15C1412.89,200.9,1412.62,200.87,1412.51,200.63Z" transform="translate(-1359.39 -188.32)"/><path class="cls-5" d="M1412.36,200.48a2.24,2.24,0,0,1,1.5-1.75,2.36,2.36,0,0,1,1-.1,2.32,2.32,0,0,0-1.11.08,2.22,2.22,0,0,0-1.5,1.75c-.1.58-.06,1.12.5,1.14C1412.29,201.49,1412.27,201,1412.36,200.48Z" transform="translate(-1359.39 -188.32)"/><path class="cls-18" d="M1415.89,199.16a1.3,1.3,0,0,0-.23-.18,3.07,3.07,0,0,1-1.18,1.46,2.67,2.67,0,0,1-2.19.5l-.08,0-.06,0c0,.46.18.8.8.69a7.14,7.14,0,0,0,2.56-.79c.25-.15.76-.37.9-.7a.53.53,0,0,0,0-.22C1416.4,199.6,1416.08,199.33,1415.89,199.16Z" transform="translate(-1359.39 -188.32)"/><path class="cls-5" d="M1413.48,200.3c-.11.28-.33.52-.6.49-.71-.07-.22-1.12.21-1.28S1413.59,200,1413.48,200.3Z" transform="translate(-1359.39 -188.32)"/><path class="cls-5" d="M1413.71,198.94a.34.34,0,0,1,.41,0c.29.23-.23.56-.46.5S1413.58,199,1413.71,198.94Z" transform="translate(-1359.39 -188.32)"/><path class="cls-10" d="M1413,200.19c0,.09-.09.16-.17.15s-.07-.33.06-.38S1413,200.11,1413,200.19Zm.19-.41a.09.09,0,0,0-.12,0s-.09.12,0,.14S1413.23,199.85,1413.14,199.78Z" transform="translate(-1359.39 -188.32)"/><path class="cls-19" d="M1399.07,207.57c-.14.34-.65.56-.9.71a7.29,7.29,0,0,1-2.55.79c-.81.14-.88-.47-.76-1.13a2.23,2.23,0,0,1,3.69-1.29c.2.16.51.43.54.71A.49.49,0,0,1,1399.07,207.57Z" transform="translate(-1359.39 -188.32)"/><path class="cls-5" d="M1395.18,208.12c-.3-.67.45-1.37,1-1.67s1.64-.12,1.16.78a1.9,1.9,0,0,1-1.52,1.15C1395.55,208.39,1395.28,208.36,1395.18,208.12Z" transform="translate(-1359.39 -188.32)"/><path class="cls-5" d="M1395,208a2.24,2.24,0,0,1,1.5-1.75,2.36,2.36,0,0,1,1-.1,2.32,2.32,0,0,0-1.11.07,2.26,2.26,0,0,0-1.5,1.75c-.1.58-.06,1.12.5,1.15C1395,209,1394.93,208.49,1395,208Z" transform="translate(-1359.39 -188.32)"/><path class="cls-20" d="M1398.55,206.65a2.11,2.11,0,0,0-.23-.19,3,3,0,0,1-1.18,1.47,2.67,2.67,0,0,1-2.19.5l-.08,0h-.06c0,.46.19.8.81.69a7.29,7.29,0,0,0,2.55-.79c.25-.15.76-.37.9-.71a.49.49,0,0,0,0-.21C1399.06,207.08,1398.75,206.81,1398.55,206.65Z" transform="translate(-1359.39 -188.32)"/><path class="cls-5" d="M1396.14,207.79c-.11.28-.33.52-.6.49-.71-.07-.22-1.13.21-1.28S1396.26,207.5,1396.14,207.79Z" transform="translate(-1359.39 -188.32)"/><path class="cls-5" d="M1396.78,206.38c.29.24-.23.57-.46.51" transform="translate(-1359.39 -188.32)"/><path class="cls-10" d="M1395.62,207.68c0,.08-.1.16-.18.15s-.07-.34.06-.38S1395.65,207.6,1395.62,207.68Zm.18-.41a.09.09,0,0,0-.12,0s-.09.12,0,.14S1395.89,207.34,1395.8,207.27Z" transform="translate(-1359.39 -188.32)"/><path class="cls-21" d="M1373.41,207.78c-.12.28-.55.47-.77.6a6.08,6.08,0,0,1-2.18.67c-.68.12-.74-.4-.65-1a1.94,1.94,0,0,1,1.29-1.49,1.91,1.91,0,0,1,1.87.38c.16.15.43.38.46.61A.4.4,0,0,1,1373.41,207.78Z" transform="translate(-1359.39 -188.32)"/><path class="cls-5" d="M1370.09,208.24c-.25-.57.39-1.17.83-1.42s1.4-.11,1,.66a1.63,1.63,0,0,1-1.3,1A.49.49,0,0,1,1370.09,208.24Z" transform="translate(-1359.39 -188.32)"/><path class="cls-5" d="M1370,208.11a1.93,1.93,0,0,1,1.29-1.49,2,2,0,0,1,.8-.09,2,2,0,0,0-.94.07,1.94,1.94,0,0,0-1.29,1.49c-.08.5,0,1,.44,1C1369.9,209,1369.88,208.56,1370,208.11Z" transform="translate(-1359.39 -188.32)"/><path class="cls-22" d="M1373,207a1.49,1.49,0,0,0-.2-.15,2.67,2.67,0,0,1-1,1.25,2.32,2.32,0,0,1-1.88.42l-.06,0,0,0c0,.4.15.68.68.59a6.08,6.08,0,0,0,2.18-.67c.22-.13.65-.32.77-.6a.4.4,0,0,0,0-.19C1373.4,207.36,1373.13,207.13,1373,207Z" transform="translate(-1359.39 -188.32)"/><path class="cls-5" d="M1370.91,208a.55.55,0,0,1-.51.42c-.6-.07-.19-1,.17-1.09S1371,207.71,1370.91,208Z" transform="translate(-1359.39 -188.32)"/><path class="cls-5" d="M1371.11,206.8a.29.29,0,0,1,.35,0c.25.2-.2.48-.4.43S1371,206.88,1371.11,206.8Z" transform="translate(-1359.39 -188.32)"/><path class="cls-10" d="M1370.46,207.87c0,.07-.08.13-.15.12s-.06-.28,0-.32S1370.49,207.79,1370.46,207.87Zm.17-.36a.11.11,0,0,0-.11,0s-.08.1,0,.12S1370.7,207.57,1370.63,207.51Z" transform="translate(-1359.39 -188.32)"/><path class="cls-23" d="M1417.06,192.85c-.11.28-.55.47-.76.6a6.15,6.15,0,0,1-2.18.67c-.69.12-.74-.39-.65-1a1.93,1.93,0,0,1,1.29-1.49,2,2,0,0,1,1.87.38c.16.15.43.38.46.61A.31.31,0,0,1,1417.06,192.85Z" transform="translate(-1359.39 -188.32)"/><path class="cls-5" d="M1413.74,193.31c-.25-.56.39-1.17.83-1.42s1.41-.1,1,.67a1.62,1.62,0,0,1-1.29,1C1414.06,193.54,1413.83,193.52,1413.74,193.31Z" transform="translate(-1359.39 -188.32)"/><path class="cls-5" d="M1413.61,193.18a1.93,1.93,0,0,1,1.29-1.49,1.81,1.81,0,0,1,.8-.08,1.87,1.87,0,0,0-.94.06,1.93,1.93,0,0,0-1.29,1.49c-.08.5,0,1,.44,1C1413.55,194,1413.53,193.63,1413.61,193.18Z" transform="translate(-1359.39 -188.32)"/><path class="cls-24" d="M1416.63,192.05l-.2-.15a2.64,2.64,0,0,1-1,1.25,2.27,2.27,0,0,1-1.87.43l-.07,0,0,0c0,.4.16.68.69.59a6.15,6.15,0,0,0,2.18-.67c.21-.13.65-.32.76-.6a.31.31,0,0,0,0-.19C1417.06,192.43,1416.79,192.2,1416.63,192.05Z" transform="translate(-1359.39 -188.32)"/><path class="cls-5" d="M1414.57,193c-.1.24-.28.45-.52.42-.6-.06-.18-1,.18-1.09S1414.67,192.79,1414.57,193Z" transform="translate(-1359.39 -188.32)"/><path class="cls-5" d="M1414.77,191.87a.29.29,0,0,1,.35,0c.24.21-.2.48-.4.43S1414.65,192,1414.77,191.87Z" transform="translate(-1359.39 -188.32)"/><path class="cls-10" d="M1414.12,192.94c0,.07-.08.13-.15.12s-.06-.28,0-.32S1414.15,192.87,1414.12,192.94Zm.16-.35a.07.07,0,0,0-.1,0s-.08.1,0,.11S1414.36,192.65,1414.28,192.59Z" transform="translate(-1359.39 -188.32)"/></g></g></g></svg>