<svg xmlns="http://www.w3.org/2000/svg" xmlns:xlink="http://www.w3.org/1999/xlink" viewBox="0 0 160.03 73.97"><defs><style>.cls-1{isolation:isolate;}.cls-2{fill:url(#radial-gradient);}.cls-12,.cls-14,.cls-16,.cls-18,.cls-20,.cls-22,.cls-24,.cls-3,.cls-9{mix-blend-mode:multiply;}.cls-3{fill:url(#linear-gradient);}.cls-4{fill:url(#linear-gradient-2);}.cls-10,.cls-5,.cls-7{fill:#fff;}.cls-5{opacity:0.5;}.cls-5,.cls-7{mix-blend-mode:overlay;}.cls-6{fill:none;stroke:#9185e7;stroke-miterlimit:10;}.cls-7{opacity:0.25;}.cls-8{fill:url(#linear-gradient-3);}.cls-9{fill:url(#linear-gradient-4);}.cls-11{fill:url(#linear-gradient-5);}.cls-12{fill:url(#linear-gradient-6);}.cls-13{fill:url(#linear-gradient-7);}.cls-14{fill:url(#linear-gradient-8);}.cls-15{fill:url(#linear-gradient-9);}.cls-16{fill:url(#linear-gradient-10);}.cls-17{fill:url(#linear-gradient-11);}.cls-18{fill:url(#linear-gradient-12);}.cls-19{fill:url(#linear-gradient-13);}.cls-20{fill:url(#linear-gradient-14);}.cls-21{fill:url(#linear-gradient-15);}.cls-22{fill:url(#linear-gradient-16);}.cls-23{fill:url(#linear-gradient-17);}.cls-24{fill:url(#linear-gradient-18);}</style><radialGradient id="radial-gradient" cx="1106.27" cy="239" r="111.1" gradientTransform="matrix(0.93, -0.36, 0.36, 0.93, -16.14, 394.77)" gradientUnits="userSpaceOnUse"><stop offset="0" stop-color="#ffe6dc"/><stop offset="0.16" stop-color="#f5dddd"/><stop offset="0.44" stop-color="#d9c4e0"/><stop offset="0.81" stop-color="#ab9ce4"/><stop offset="0.99" stop-color="#9185e7"/></radialGradient><linearGradient id="linear-gradient" x1="1031.29" y1="294.23" x2="1204.07" y2="294.23" gradientTransform="matrix(0.93, -0.36, 0.36, 0.93, -16.14, 394.77)" gradientUnits="userSpaceOnUse"><stop offset="0" stop-color="#fff"/><stop offset="0.16" stop-color="#edeafa"/><stop offset="0.54" stop-color="#c5bcef"/><stop offset="0.83" stop-color="#ada0e8"/><stop offset="1" stop-color="#a496e5"/></linearGradient><linearGradient id="linear-gradient-2" x1="1031.29" y1="294.23" x2="1204.07" y2="294.23" gradientTransform="matrix(0.93, -0.36, 0.36, 0.93, -16.14, 394.77)" gradientUnits="userSpaceOnUse"><stop offset="0" stop-color="#8365bf"/><stop offset="1" stop-color="#61379d"/></linearGradient><linearGradient id="linear-gradient-3" x1="1084.14" y1="264.12" x2="1153.89" y2="264.12" gradientTransform="matrix(0.93, -0.36, 0.36, 0.93, -16.14, 394.77)" gradientUnits="userSpaceOnUse"><stop offset="0.01" stop-color="#ffee2f"/><stop offset="0.15" stop-color="#ffdb2b"/><stop offset="0.53" stop-color="#ffad22"/><stop offset="0.82" stop-color="#ff911c"/><stop offset="0.99" stop-color="#ff871a"/></linearGradient><linearGradient id="linear-gradient-4" x1="1084.14" y1="270.93" x2="1153.89" y2="270.93" gradientTransform="matrix(0.93, -0.36, 0.36, 0.93, -16.14, 394.77)" gradientUnits="userSpaceOnUse"><stop offset="0" stop-color="#fff"/><stop offset="0.15" stop-color="#ffefde"/><stop offset="0.44" stop-color="#ffd19f"/><stop offset="0.69" stop-color="#ffbb72"/><stop offset="0.88" stop-color="#ffad55"/><stop offset="0.99" stop-color="#ffa84b"/></linearGradient><linearGradient id="linear-gradient-5" x1="1069.41" y1="285.38" x2="1079.56" y2="285.38" xlink:href="#linear-gradient-3"/><linearGradient id="linear-gradient-6" x1="1069.41" y1="286.37" x2="1079.56" y2="286.37" xlink:href="#linear-gradient-4"/><linearGradient id="linear-gradient-7" x1="1035.67" y1="281.04" x2="1045.82" y2="281.04" xlink:href="#linear-gradient-3"/><linearGradient id="linear-gradient-8" x1="1035.67" y1="282.03" x2="1045.82" y2="282.03" xlink:href="#linear-gradient-4"/><linearGradient id="linear-gradient-9" x1="1189.54" y1="278.42" x2="1199.69" y2="278.42" xlink:href="#linear-gradient-3"/><linearGradient id="linear-gradient-10" x1="1189.54" y1="279.41" x2="1199.69" y2="279.41" xlink:href="#linear-gradient-4"/><linearGradient id="linear-gradient-11" x1="1157.51" y1="283.87" x2="1167.66" y2="283.87" xlink:href="#linear-gradient-3"/><linearGradient id="linear-gradient-12" x1="1157.51" y1="284.86" x2="1167.66" y2="284.86" xlink:href="#linear-gradient-4"/><linearGradient id="linear-gradient-13" x1="1114.67" y1="287.68" x2="1124.82" y2="287.68" xlink:href="#linear-gradient-3"/><linearGradient id="linear-gradient-14" x1="1114.67" y1="288.67" x2="1124.82" y2="288.67" xlink:href="#linear-gradient-4"/><linearGradient id="linear-gradient-15" x1="1060.5" y1="270.07" x2="1069.16" y2="270.07" xlink:href="#linear-gradient-3"/><linearGradient id="linear-gradient-16" x1="1060.5" y1="270.91" x2="1069.16" y2="270.91" xlink:href="#linear-gradient-4"/><linearGradient id="linear-gradient-17" x1="1165.56" y1="268.97" x2="1174.22" y2="268.97" xlink:href="#linear-gradient-3"/><linearGradient id="linear-gradient-18" x1="1165.56" y1="269.81" x2="1174.22" y2="269.81" xlink:href="#linear-gradient-4"/></defs><title>soucoupe_4.module_1</title><g class="cls-1"><g id="Calque_2" data-name="Calque 2"><g id="OBJECTS"><path class="cls-2" d="M1047.86,284.8s15.87-29.28,78.31-52.23,81.72-13,81.72-13S1156,300,1047.86,284.8Z" transform="translate(-1047.86 -212.75)"/><path class="cls-3" d="M1207.89,219.61c-66.53,48.33-159.85,64.77-160,65.19C1156,300,1207.89,219.61,1207.89,219.61Z" transform="translate(-1047.86 -212.75)"/><path class="cls-4" d="M1207.89,219.61c-66.53,48.33-159.85,64.77-160,65.19C1156,300,1207.89,219.61,1207.89,219.61Z" transform="translate(-1047.86 -212.75)"/><path class="cls-5" d="M1172.21,241.58c-28.88,15.18-58.78,25.69-82,32.54,12.35,4.94,23.1,6.48,32.42,5.74a161,161,0,0,0,29.77-12.21C1162.53,259.28,1168.86,248.54,1172.21,241.58Z" transform="translate(-1047.86 -212.75)"/><path class="cls-6" d="M1172.84,228.43c2,5.17-16.88,17.37-42.21,27.25s-47.5,13.69-49.52,8.51S1098,246.82,1123.33,237,1170.82,223.26,1172.84,228.43Z" transform="translate(-1047.86 -212.75)"/><path class="cls-7" d="M1182.45,235.13C1112.53,269.39,1058.34,277,1058.34,277c4.49-7.56,16.11-17.47,21.05-21.5-24.2,15.84-31.53,29.32-31.53,29.32C1160.82,258,1182.45,235.13,1182.45,235.13Z" transform="translate(-1047.86 -212.75)"/><path class="cls-8" d="M1158.11,234.46c-1.78,5.29-9.65,9.14-13.46,11.82-10.9,7.68-26.39,11.46-39.26,14.38-12.44,2.83-14-6.57-12.78-16.93a35.08,35.08,0,0,1,56.71-23.37c3.14,2.5,8.23,6.46,9,10.67A6.61,6.61,0,0,1,1158.11,234.46Z" transform="translate(-1047.86 -212.75)"/><path class="cls-5" d="M1097.73,246.17c-5.13-10.14,6-21.85,13.85-26.81,9.75-6.17,25.63-3.27,18.72,11.2-4.48,9.38-11.64,18.26-22.72,19.19C1103.81,250.06,1099.59,249.84,1097.73,246.17Z" transform="translate(-1047.86 -212.75)"/><path class="cls-5" d="M1095.14,244a35.37,35.37,0,0,1,22.11-28.61,34.87,34.87,0,0,1,14.67-2.29,34.93,34.93,0,0,0-39.31,30.67c-1.07,9.15,0,17.55,8.88,17.43C1095,259.75,1094.18,252.16,1095.14,244Z" transform="translate(-1047.86 -212.75)"/><path class="cls-9" d="M1149.32,220.36a35.35,35.35,0,0,0-3.84-2.64,47.79,47.79,0,0,1-17.15,23.87c-9,6.49-22.59,13.25-33.86,9.6-.43-.14-.84-.29-1.23-.46s-.62-.12-.93-.2c.36,7.21,3.48,12.32,13.08,10.13,12.87-2.92,28.36-6.7,39.26-14.38,3.81-2.68,11.68-6.53,13.46-11.82a6.61,6.61,0,0,0,.25-3.43C1157.55,226.82,1152.46,222.86,1149.32,220.36Z" transform="translate(-1047.86 -212.75)"/><path class="cls-5" d="M1112.6,240.19c-1.51,4.51-4.75,8.47-9,8.23-11.12-.61-4.4-17.44,2.18-20.16C1113.07,225.23,1114.12,235.63,1112.6,240.19Z" transform="translate(-1047.86 -212.75)"/><path class="cls-5" d="M1115.06,218.74c2-1.56,4.57-2.37,6.39-1,4.73,3.5-3.13,9-6.83,8.28C1110.5,225.22,1113.06,220.31,1115.06,218.74Z" transform="translate(-1047.86 -212.75)"/><path class="cls-10" d="M1104.26,239c-.45,1.33-1.4,2.5-2.67,2.43-3.28-.18-1.29-5.15.65-6C1104.4,234.55,1104.71,237.63,1104.26,239Zm2.62-6.63a1.6,1.6,0,0,0-1.89.3c-.59.46-1.35,1.91-.13,2.14S1108.27,233.37,1106.88,232.34Z" transform="translate(-1047.86 -212.75)"/><path class="cls-11" d="M1093.81,270.42c-.26.77-1.41,1.33-2,1.72a16.91,16.91,0,0,1-5.71,2.09c-1.81.41-2-1-1.86-2.46a5.1,5.1,0,0,1,8.25-3.4c.45.36,1.2.93,1.31,1.55A.94.94,0,0,1,1093.81,270.42Z" transform="translate(-1047.86 -212.75)"/><path class="cls-5" d="M1085,272.12c-.74-1.48.88-3.18,2-3.9,1.42-.9,3.73-.48,2.72,1.63a4.28,4.28,0,0,1-3.3,2.79C1085.91,272.69,1085.29,272.65,1085,272.12Z" transform="translate(-1047.86 -212.75)"/><path class="cls-5" d="M1084.65,271.8a5.1,5.1,0,0,1,5.35-4.5,5.08,5.08,0,0,0-5.72,4.47c-.16,1.33,0,2.55,1.29,2.53C1084.62,274.1,1084.51,273,1084.65,271.8Z" transform="translate(-1047.86 -212.75)"/><path class="cls-12" d="M1092.53,268.37a5.12,5.12,0,0,0-.56-.39,6.91,6.91,0,0,1-2.5,3.47c-1.3.95-3.28,1.93-4.92,1.4l-.18-.07-.14,0c.06,1.05.51,1.8,1.91,1.48a16.91,16.91,0,0,0,5.71-2.09c.55-.39,1.7-.95,2-1.72a.94.94,0,0,0,0-.5C1093.73,269.3,1093,268.73,1092.53,268.37Z" transform="translate(-1047.86 -212.75)"/><path class="cls-5" d="M1087.19,271.25c-.22.66-.69,1.23-1.32,1.2-1.62-.09-.64-2.54.32-2.94S1087.41,270.59,1087.19,271.25Z" transform="translate(-1047.86 -212.75)"/><path class="cls-5" d="M1087.54,268.13a.78.78,0,0,1,.93-.15c.69.51-.45,1.31-1,1.21S1087.25,268.36,1087.54,268.13Z" transform="translate(-1047.86 -212.75)"/><path class="cls-10" d="M1086,271.07c-.06.2-.2.37-.38.36-.48,0-.19-.75.09-.87S1086,270.88,1086,271.07Zm.38-1c-.07-.06-.19,0-.27,0s-.2.28,0,.31S1086.56,270.26,1086.35,270.11Z" transform="translate(-1047.86 -212.75)"/><path class="cls-13" d="M1060.79,278.62c-.26.77-1.4,1.33-2,1.72a16.42,16.42,0,0,1-5.71,2.09c-1.81.41-2-.95-1.86-2.46a5.11,5.11,0,0,1,8.25-3.4c.46.37,1.2.94,1.32,1.55A1,1,0,0,1,1060.79,278.62Z" transform="translate(-1047.86 -212.75)"/><path class="cls-5" d="M1052,280.33c-.75-1.48.87-3.18,2-3.9,1.42-.9,3.73-.48,2.73,1.63a4.33,4.33,0,0,1-3.31,2.79C1052.89,280.89,1052.28,280.86,1052,280.33Z" transform="translate(-1047.86 -212.75)"/><path class="cls-5" d="M1051.63,280a5.08,5.08,0,0,1,5.35-4.49,5.09,5.09,0,0,0-2.5.3,5.15,5.15,0,0,0-3.22,4.16c-.15,1.33,0,2.56,1.3,2.54C1051.61,282.3,1051.49,281.2,1051.63,280Z" transform="translate(-1047.86 -212.75)"/><path class="cls-14" d="M1059.51,276.57a4.91,4.91,0,0,0-.55-.38,7,7,0,0,1-2.5,3.47c-1.31.94-3.29,1.93-4.93,1.4l-.18-.07-.13,0c0,1.05.5,1.79,1.9,1.47a16.42,16.42,0,0,0,5.71-2.09c.56-.39,1.7-.95,2-1.72a1,1,0,0,0,0-.5C1060.71,277.51,1060,276.94,1059.51,276.57Z" transform="translate(-1047.86 -212.75)"/><path class="cls-5" d="M1054.17,279.46c-.22.65-.69,1.23-1.31,1.19-1.62-.08-.64-2.53.31-2.93S1054.39,278.79,1054.17,279.46Z" transform="translate(-1047.86 -212.75)"/><path class="cls-5" d="M1054.53,276.34a.78.78,0,0,1,.93-.15c.69.51-.46,1.31-1,1.2S1054.24,276.57,1054.53,276.34Z" transform="translate(-1047.86 -212.75)"/><path class="cls-10" d="M1053,279.28c-.07.19-.21.36-.39.35-.48,0-.19-.75.09-.86S1053,279.08,1053,279.28Zm.38-1c-.08-.06-.19,0-.28.05s-.19.28,0,.31S1053.54,278.47,1053.34,278.31Z" transform="translate(-1047.86 -212.75)"/><path class="cls-15" d="M1203.21,220.3c-.26.77-1.41,1.33-2,1.72a16.7,16.7,0,0,1-5.71,2.09c-1.81.41-2-1-1.86-2.46a5.11,5.11,0,0,1,8.25-3.4c.46.36,1.2.94,1.31,1.55A.94.94,0,0,1,1203.21,220.3Z" transform="translate(-1047.86 -212.75)"/><path class="cls-5" d="M1194.42,222c-.74-1.47.88-3.17,2-3.9,1.42-.89,3.73-.47,2.72,1.63a4.27,4.27,0,0,1-3.31,2.79C1195.31,222.57,1194.69,222.54,1194.42,222Z" transform="translate(-1047.86 -212.75)"/><path class="cls-5" d="M1194.05,221.68a5.13,5.13,0,0,1,3.21-4.16,4.91,4.91,0,0,1,2.14-.33,5,5,0,0,0-2.5.3,5.12,5.12,0,0,0-3.22,4.16c-.16,1.33,0,2.55,1.29,2.53C1194,224,1193.91,222.87,1194.05,221.68Z" transform="translate(-1047.86 -212.75)"/><path class="cls-16" d="M1201.93,218.25a5,5,0,0,0-.56-.38,7,7,0,0,1-2.49,3.47c-1.31.94-3.29,1.92-4.93,1.39l-.18-.06-.14,0c.06,1.05.51,1.79,1.91,1.47a16.7,16.7,0,0,0,5.71-2.09c.55-.39,1.7-1,2-1.72a.94.94,0,0,0,0-.5C1203.13,219.19,1202.39,218.61,1201.93,218.25Z" transform="translate(-1047.86 -212.75)"/><path class="cls-5" d="M1196.59,221.13c-.22.66-.69,1.24-1.32,1.2-1.61-.09-.64-2.54.32-2.93S1196.81,220.47,1196.59,221.13Z" transform="translate(-1047.86 -212.75)"/><path class="cls-5" d="M1197,218a.78.78,0,0,1,.92-.14c.69.51-.45,1.3-1,1.2S1196.65,218.24,1197,218Z" transform="translate(-1047.86 -212.75)"/><path class="cls-10" d="M1195.37,221c-.06.19-.2.36-.38.35-.48,0-.19-.75.09-.87S1195.44,220.76,1195.37,221Zm.38-1a.23.23,0,0,0-.27,0c-.09.07-.2.28,0,.32S1196,220.14,1195.75,220Z" transform="translate(-1047.86 -212.75)"/><path class="cls-17" d="M1175.34,237c-.26.77-1.4,1.33-2,1.72a16.75,16.75,0,0,1-5.71,2.09c-1.81.41-2-1-1.86-2.46a5.1,5.1,0,0,1,8.25-3.4c.46.36,1.2.94,1.32,1.55A.94.94,0,0,1,1175.34,237Z" transform="translate(-1047.86 -212.75)"/><path class="cls-5" d="M1166.56,238.71c-.75-1.47.87-3.18,2-3.9,1.42-.9,3.73-.48,2.73,1.63a4.3,4.3,0,0,1-3.31,2.79C1167.44,239.28,1166.83,239.24,1166.56,238.71Z" transform="translate(-1047.86 -212.75)"/><path class="cls-5" d="M1166.18,238.39a5.14,5.14,0,0,1,3.22-4.16,5,5,0,0,1,2.13-.34,5.22,5.22,0,0,0-2.5.3,5.17,5.17,0,0,0-3.22,4.17c-.15,1.33,0,2.55,1.3,2.53C1166.16,240.69,1166,239.58,1166.18,238.39Z" transform="translate(-1047.86 -212.75)"/><path class="cls-18" d="M1174.06,235a4.21,4.21,0,0,0-.55-.39A7,7,0,0,1,1171,238c-1.31,1-3.29,1.93-4.92,1.4l-.18-.06-.14,0c.06,1,.51,1.8,1.9,1.48a16.75,16.75,0,0,0,5.71-2.09c.56-.39,1.7-.95,2-1.72a.94.94,0,0,0,0-.5C1175.26,235.9,1174.52,235.32,1174.06,235Z" transform="translate(-1047.86 -212.75)"/><path class="cls-5" d="M1168.72,237.84c-.22.66-.69,1.23-1.31,1.2-1.62-.09-.64-2.54.32-2.93S1168.94,237.18,1168.72,237.84Z" transform="translate(-1047.86 -212.75)"/><path class="cls-5" d="M1169.08,234.72a.78.78,0,0,1,.93-.15c.69.51-.46,1.31-1,1.21S1168.79,235,1169.08,234.72Z" transform="translate(-1047.86 -212.75)"/><path class="cls-10" d="M1167.51,237.66c-.07.2-.2.37-.39.36-.48,0-.19-.75.09-.87S1167.57,237.47,1167.51,237.66Zm.38-1a.23.23,0,0,0-.27,0c-.09.07-.2.28,0,.31S1168.09,236.85,1167.89,236.7Z" transform="translate(-1047.86 -212.75)"/><path class="cls-19" d="M1136.81,256.12c-.26.77-1.4,1.33-2,1.72a16.83,16.83,0,0,1-5.71,2.09c-1.81.41-2-1-1.86-2.47a5.11,5.11,0,0,1,8.25-3.4c.46.37,1.2.94,1.32,1.56A1.06,1.06,0,0,1,1136.81,256.12Z" transform="translate(-1047.86 -212.75)"/><path class="cls-5" d="M1128,257.82c-.75-1.48.87-3.18,2-3.9,1.42-.9,3.73-.48,2.73,1.63a4.3,4.3,0,0,1-3.31,2.79C1128.91,258.39,1128.3,258.35,1128,257.82Z" transform="translate(-1047.86 -212.75)"/><path class="cls-5" d="M1127.65,257.5a5.12,5.12,0,0,1,3.22-4.16A5,5,0,0,1,1133,253a5.1,5.1,0,0,0-2.5.3,5.17,5.17,0,0,0-3.22,4.16c-.15,1.33,0,2.56,1.3,2.54C1127.63,259.79,1127.51,258.69,1127.65,257.5Z" transform="translate(-1047.86 -212.75)"/><path class="cls-20" d="M1135.53,254.06a3.67,3.67,0,0,0-.56-.38,6.89,6.89,0,0,1-2.49,3.47c-1.31,1-3.29,1.93-4.93,1.4l-.18-.07-.13,0c0,1.05.51,1.8,1.9,1.48a16.83,16.83,0,0,0,5.71-2.09c.56-.39,1.7-.95,2-1.72a1.06,1.06,0,0,0,0-.5C1136.73,255,1136,254.43,1135.53,254.06Z" transform="translate(-1047.86 -212.75)"/><path class="cls-5" d="M1130.19,257c-.22.65-.69,1.23-1.31,1.2-1.62-.09-.64-2.54.31-2.94S1130.41,256.29,1130.19,257Z" transform="translate(-1047.86 -212.75)"/><path class="cls-5" d="M1130.55,253.83a.78.78,0,0,1,.93-.15c.69.51-.46,1.31-1,1.21S1130.26,254.06,1130.55,253.83Z" transform="translate(-1047.86 -212.75)"/><path class="cls-10" d="M1129,256.77c-.07.2-.21.37-.39.36-.48,0-.19-.75.09-.87S1129,256.58,1129,256.77Zm.38-1a.23.23,0,0,0-.28,0c-.08.07-.19.28,0,.31S1129.56,256,1129.36,255.81Z" transform="translate(-1047.86 -212.75)"/><path class="cls-21" d="M1078.49,259.65c-.23.66-1.2,1.14-1.67,1.47a14.25,14.25,0,0,1-4.88,1.78c-1.54.36-1.74-.81-1.59-2.1a4.37,4.37,0,0,1,7.05-2.9c.39.31,1,.8,1.12,1.33A.84.84,0,0,1,1078.49,259.65Z" transform="translate(-1047.86 -212.75)"/><path class="cls-5" d="M1071,261.11c-.64-1.26.75-2.72,1.72-3.33,1.21-.77,3.18-.41,2.32,1.39a3.66,3.66,0,0,1-2.82,2.38C1071.74,261.59,1071.22,261.56,1071,261.11Z" transform="translate(-1047.86 -212.75)"/><path class="cls-5" d="M1070.67,260.83a4.35,4.35,0,0,1,4.57-3.84,4.36,4.36,0,0,0-2.14.26,4.41,4.41,0,0,0-2.75,3.55c-.13,1.14,0,2.18,1.11,2.17C1070.65,262.79,1070.55,261.85,1070.67,260.83Z" transform="translate(-1047.86 -212.75)"/><path class="cls-22" d="M1077.4,257.9a4.07,4.07,0,0,0-.48-.33,5.94,5.94,0,0,1-2.13,3c-1.12.8-2.8,1.64-4.2,1.19l-.16-.06-.11,0c0,.89.43,1.53,1.62,1.25a14.25,14.25,0,0,0,4.88-1.78c.47-.33,1.44-.81,1.67-1.47a.84.84,0,0,0,0-.42C1078.42,258.7,1077.79,258.21,1077.4,257.9Z" transform="translate(-1047.86 -212.75)"/><path class="cls-5" d="M1072.84,260.36c-.19.56-.59,1.05-1.12,1-1.38-.08-.55-2.17.27-2.51S1073,259.79,1072.84,260.36Z" transform="translate(-1047.86 -212.75)"/><path class="cls-5" d="M1073.14,257.7a.67.67,0,0,1,.79-.13c.59.44-.38,1.12-.84,1S1072.89,257.89,1073.14,257.7Z" transform="translate(-1047.86 -212.75)"/><path class="cls-10" d="M1071.8,260.21c0,.17-.17.31-.33.3-.41,0-.16-.64.08-.74S1071.86,260,1071.8,260.21Zm.33-.82a.21.21,0,0,0-.24,0c-.07.06-.17.24,0,.27S1072.3,259.52,1072.13,259.39Z" transform="translate(-1047.86 -212.75)"/><path class="cls-23" d="M1176,220.47c-.23.65-1.2,1.13-1.68,1.47a14.12,14.12,0,0,1-4.87,1.78c-1.55.35-1.74-.81-1.59-2.1a4.36,4.36,0,0,1,7-2.9c.39.31,1,.8,1.13,1.32A1,1,0,0,1,1176,220.47Z" transform="translate(-1047.86 -212.75)"/><path class="cls-5" d="M1168.48,221.92c-.64-1.26.74-2.71,1.72-3.33,1.21-.76,3.18-.4,2.32,1.39a3.67,3.67,0,0,1-2.82,2.39C1169.23,222.41,1168.71,222.38,1168.48,221.92Z" transform="translate(-1047.86 -212.75)"/><path class="cls-5" d="M1168.16,221.65a4.35,4.35,0,0,1,4.56-3.84,4.32,4.32,0,0,0-2.13.26,4.39,4.39,0,0,0-2.75,3.55c-.13,1.13,0,2.18,1.1,2.16C1168.13,223.61,1168,222.67,1168.16,221.65Z" transform="translate(-1047.86 -212.75)"/><path class="cls-24" d="M1174.88,218.72a5,5,0,0,0-.47-.33,6,6,0,0,1-2.13,3c-1.12.8-2.81,1.64-4.21,1.19l-.15-.06-.12,0c0,.9.44,1.53,1.63,1.26a14.12,14.12,0,0,0,4.87-1.78c.48-.34,1.45-.82,1.68-1.47a1,1,0,0,0,0-.43C1175.91,219.52,1175.27,219,1174.88,218.72Z" transform="translate(-1047.86 -212.75)"/><path class="cls-5" d="M1170.32,221.18c-.18.56-.59,1-1.12,1-1.38-.07-.54-2.16.27-2.5S1170.51,220.61,1170.32,221.18Z" transform="translate(-1047.86 -212.75)"/><path class="cls-5" d="M1170.63,218.52a.66.66,0,0,1,.79-.13c.59.44-.39,1.12-.84,1S1170.38,218.71,1170.63,218.52Z" transform="translate(-1047.86 -212.75)"/><path class="cls-10" d="M1169.29,221c-.06.16-.17.31-.33.3-.41,0-.16-.64.08-.74S1169.34,220.86,1169.29,221Zm.32-.82c-.06-.06-.16,0-.23,0s-.17.24,0,.27S1169.79,220.33,1169.61,220.21Z" transform="translate(-1047.86 -212.75)"/></g></g></g></svg>