<svg xmlns="http://www.w3.org/2000/svg" xmlns:xlink="http://www.w3.org/1999/xlink" viewBox="0 0 82.23 39.25"><defs><style>.cls-1{isolation:isolate;}.cls-2{fill:url(#radial-gradient);}.cls-12,.cls-14,.cls-16,.cls-18,.cls-20,.cls-22,.cls-24,.cls-3{mix-blend-mode:multiply;}.cls-3{fill:url(#linear-gradient);}.cls-4{fill:url(#linear-gradient-2);}.cls-10,.cls-5,.cls-7{fill:#fff;}.cls-5{opacity:0.5;}.cls-5,.cls-7{mix-blend-mode:overlay;}.cls-6{fill:none;stroke:#9185e7;stroke-miterlimit:10;}.cls-7{opacity:0.25;}.cls-8{fill:url(#radial-gradient-2);}.cls-9{mix-blend-mode:color-burn;fill:url(#linear-gradient-3);}.cls-11{fill:url(#linear-gradient-4);}.cls-12{fill:url(#linear-gradient-5);}.cls-13{fill:url(#linear-gradient-6);}.cls-14{fill:url(#linear-gradient-7);}.cls-15{fill:url(#linear-gradient-8);}.cls-16{fill:url(#linear-gradient-9);}.cls-17{fill:url(#linear-gradient-10);}.cls-18{fill:url(#linear-gradient-11);}.cls-19{fill:url(#linear-gradient-12);}.cls-20{fill:url(#linear-gradient-13);}.cls-21{fill:url(#linear-gradient-14);}.cls-22{fill:url(#linear-gradient-15);}.cls-23{fill:url(#linear-gradient-16);}.cls-24{fill:url(#linear-gradient-17);}</style><radialGradient id="radial-gradient" cx="936.66" cy="462.19" r="57.95" gradientTransform="translate(263 -580.56) rotate(25.04)" gradientUnits="userSpaceOnUse"><stop offset="0" stop-color="#ffe6dc"/><stop offset="0.16" stop-color="#f5dddd"/><stop offset="0.44" stop-color="#d9c4e0"/><stop offset="0.81" stop-color="#ab9ce4"/><stop offset="0.99" stop-color="#9185e7"/></radialGradient><linearGradient id="linear-gradient" x1="897.55" y1="491" x2="987.67" y2="491" gradientTransform="translate(263 -580.56) rotate(25.04)" gradientUnits="userSpaceOnUse"><stop offset="0" stop-color="#fff"/><stop offset="0.16" stop-color="#edeafa"/><stop offset="0.54" stop-color="#c5bcef"/><stop offset="0.83" stop-color="#ada0e8"/><stop offset="1" stop-color="#a496e5"/></linearGradient><linearGradient id="linear-gradient-2" x1="897.55" y1="491" x2="987.67" y2="491" gradientTransform="translate(263 -580.56) rotate(25.04)" gradientUnits="userSpaceOnUse"><stop offset="0" stop-color="#8365bf"/><stop offset="1" stop-color="#61379d"/></linearGradient><radialGradient id="radial-gradient-2" cx="918.31" cy="230.93" r="35.56" gradientUnits="userSpaceOnUse"><stop offset="0" stop-color="#00f2f4"/><stop offset="0.85" stop-color="#a841ee"/><stop offset="0.88" stop-color="#a943eb"/><stop offset="0.9" stop-color="#ac4ae2"/><stop offset="0.92" stop-color="#b255d3"/><stop offset="0.93" stop-color="#ba66bd"/><stop offset="0.95" stop-color="#c47ba0"/><stop offset="0.96" stop-color="#d1957e"/><stop offset="0.98" stop-color="#e0b454"/><stop offset="0.99" stop-color="#f1d726"/><stop offset="1" stop-color="#fff300"/></radialGradient><linearGradient id="linear-gradient-3" x1="925.12" y1="478.84" x2="961.5" y2="478.84" gradientTransform="translate(263 -580.56) rotate(25.04)" gradientUnits="userSpaceOnUse"><stop offset="0" stop-color="#fff7f5"/><stop offset="0.16" stop-color="#f9eff3"/><stop offset="0.41" stop-color="#e7d8ed"/><stop offset="0.73" stop-color="#cbb4e4"/><stop offset="1" stop-color="#ae8edb"/></linearGradient><linearGradient id="linear-gradient-4" x1="917.43" y1="486.38" x2="922.73" y2="486.38" gradientTransform="translate(263 -580.56) rotate(25.04)" gradientUnits="userSpaceOnUse"><stop offset="0.01" stop-color="#ffee2f"/><stop offset="0.15" stop-color="#ffdb2b"/><stop offset="0.53" stop-color="#ffad22"/><stop offset="0.82" stop-color="#ff911c"/><stop offset="0.99" stop-color="#ff871a"/></linearGradient><linearGradient id="linear-gradient-5" x1="917.43" y1="486.9" x2="922.73" y2="486.9" gradientTransform="translate(263 -580.56) rotate(25.04)" gradientUnits="userSpaceOnUse"><stop offset="0" stop-color="#fff"/><stop offset="0.15" stop-color="#ffefde"/><stop offset="0.44" stop-color="#ffd19f"/><stop offset="0.69" stop-color="#ffbb72"/><stop offset="0.88" stop-color="#ffad55"/><stop offset="0.99" stop-color="#ffa84b"/></linearGradient><linearGradient id="linear-gradient-6" x1="899.83" y1="484.11" x2="905.13" y2="484.11" xlink:href="#linear-gradient-4"/><linearGradient id="linear-gradient-7" x1="899.83" y1="484.63" x2="905.13" y2="484.63" xlink:href="#linear-gradient-5"/><linearGradient id="linear-gradient-8" x1="980.1" y1="482.75" x2="985.39" y2="482.75" xlink:href="#linear-gradient-4"/><linearGradient id="linear-gradient-9" x1="980.1" y1="483.27" x2="985.39" y2="483.27" xlink:href="#linear-gradient-5"/><linearGradient id="linear-gradient-10" x1="963.39" y1="485.59" x2="968.68" y2="485.59" xlink:href="#linear-gradient-4"/><linearGradient id="linear-gradient-11" x1="963.39" y1="486.11" x2="968.68" y2="486.11" xlink:href="#linear-gradient-5"/><linearGradient id="linear-gradient-12" x1="941.04" y1="487.58" x2="946.34" y2="487.58" xlink:href="#linear-gradient-4"/><linearGradient id="linear-gradient-13" x1="941.04" y1="488.1" x2="946.34" y2="488.1" xlink:href="#linear-gradient-5"/><linearGradient id="linear-gradient-14" x1="912.79" y1="478.39" x2="917.3" y2="478.39" xlink:href="#linear-gradient-4"/><linearGradient id="linear-gradient-15" x1="912.79" y1="478.83" x2="917.3" y2="478.83" xlink:href="#linear-gradient-5"/><linearGradient id="linear-gradient-16" x1="967.59" y1="477.82" x2="972.11" y2="477.82" xlink:href="#linear-gradient-4"/><linearGradient id="linear-gradient-17" x1="967.59" y1="478.26" x2="972.11" y2="478.26" xlink:href="#linear-gradient-5"/></defs><title>soucoupe_3.module_1</title><g class="cls-1"><g id="Calque_2" data-name="Calque 2"><g id="OBJECTS"><path class="cls-2" d="M870.65,239.28s16.77-4.55,47.91,10.75,34.32,26.16,34.32,26.16S903.83,285.56,870.65,239.28Z" transform="translate(-870.65 -237.72)"/><path class="cls-3" d="M952.88,276.19c-42.2-7.7-82-37-82.23-36.91C903.83,285.56,952.88,276.19,952.88,276.19Z" transform="translate(-870.65 -237.72)"/><path class="cls-4" d="M952.88,276.19c-42.2-7.7-82-37-82.23-36.91C903.83,285.56,952.88,276.19,952.88,276.19Z" transform="translate(-870.65 -237.72)"/><path class="cls-5" d="M931.74,270.64a238.74,238.74,0,0,1-41.82-19.23,37.54,37.54,0,0,0,9.51,14.3,84.22,84.22,0,0,0,15.33,6.84A40.93,40.93,0,0,0,931.74,270.64Z" transform="translate(-870.65 -237.72)"/><path class="cls-6" d="M936.93,266.15c-1.23,2.62-12.64-.12-25.48-6.12s-22.27-13-21.05-15.62,12.64.12,25.48,6.12S938.15,263.52,936.93,266.15Z" transform="translate(-870.65 -237.72)"/><path class="cls-7" d="M937.86,272.18c-38.1-14.05-60.48-31.76-60.48-31.76,4.47-1,12.39-.21,15.69.2-14.69-3.43-22.42-1.34-22.42-1.34C921.43,272.26,937.86,272.18,937.86,272.18Z" transform="translate(-870.65 -237.72)"/><path class="cls-8" d="M929.35,262.76c-2.64,1.23-6.93-.35-9.31-.82-6.82-1.35-13.83-5.84-19.56-9.64-5.55-3.67-2.56-7.65,1.79-10.92a18.3,18.3,0,0,1,29.23,13c.19,2.09.53,5.44-.77,7.26A3.43,3.43,0,0,1,929.35,262.76Z" transform="translate(-870.65 -237.72)"/><path class="cls-5" d="M903.19,244.19c2-5.59,10.4-5.6,15.1-4.43,5.84,1.46,10.46,8.5,2.52,11.1-5.15,1.69-11.09,2.18-15.43-1.66C903.91,247.89,902.47,246.21,903.19,244.19Z" transform="translate(-870.65 -237.72)"/><path class="cls-5" d="M903.09,242.42a18.46,18.46,0,0,1,18.76-2,18,18,0,0,1,6.14,4.71,18.16,18.16,0,0,0-7-5.75,18.45,18.45,0,0,0-18.75,2c-3.85,2.89-6.62,6.33-3.39,9.63C897.07,248,899.65,245,903.09,242.42Z" transform="translate(-870.65 -237.72)"/><path class="cls-9" d="M931.5,254.36a17.24,17.24,0,0,0-.38-2.39,25,25,0,0,1-15.18,2.12c-5.69-1.06-13.14-3.75-15.82-9.32q-.15-.32-.27-.63c-.09-.14-.18-.28-.26-.42-2.59,2.73-3.39,5.74.89,8.58,5.73,3.8,12.74,8.29,19.56,9.64,2.38.47,6.67,2.05,9.31.82a3.43,3.43,0,0,0,1.38-1.14C932,259.8,931.69,256.45,931.5,254.36Z" transform="translate(-870.65 -237.72)"/><path class="cls-5" d="M910.8,247.65c-2.25,1-4.91,1.26-6.36-.45-3.77-4.41,5-7.93,8.39-6.43C916.62,242.44,913.07,246.58,910.8,247.65Z" transform="translate(-870.65 -237.72)"/><path class="cls-5" d="M919.78,240.85c1.3.19,2.53.87,2.68,2.05.38,3-4.52,2.06-5.58.4C915.69,241.47,918.46,240.67,919.78,240.85Z" transform="translate(-870.65 -237.72)"/><path class="cls-10" d="M908.25,244.06a1.54,1.54,0,0,1-1.87-.13c-1.12-1.3,1.47-2.34,2.48-1.9S908.92,243.75,908.25,244.06Zm3.45-1.4c0-.35-.41-.55-.79-.6s-1.21.18-.86.72S911.81,243.56,911.7,242.66Z" transform="translate(-870.65 -237.72)"/><path class="cls-11" d="M892.63,251.44c-.39.18-1-.05-1.36-.12a8.71,8.71,0,0,1-2.85-1.4c-.8-.53-.37-1.11.26-1.59a2.67,2.67,0,0,1,4.26,1.89,1.75,1.75,0,0,1-.11,1.06A.74.74,0,0,1,892.63,251.44Z" transform="translate(-870.65 -237.72)"/><path class="cls-5" d="M888.82,248.74c.29-.81,1.51-.81,2.2-.64.85.21,1.52,1.23.36,1.61a2.22,2.22,0,0,1-2.24-.24C888.92,249.28,888.72,249,888.82,248.74Z" transform="translate(-870.65 -237.72)"/><path class="cls-5" d="M888.81,248.48a2.67,2.67,0,0,1,2.72-.28,2.75,2.75,0,0,1,.9.68,2.68,2.68,0,0,0-3.75-.55c-.55.42-1,.92-.49,1.4C887.93,249.3,888.3,248.86,888.81,248.48Z" transform="translate(-870.65 -237.72)"/><path class="cls-12" d="M892.94,250.22a2.14,2.14,0,0,0-.06-.35,3.64,3.64,0,0,1-2.21.31,3.16,3.16,0,0,1-2.3-1.35,1,1,0,0,0,0-.1l0-.06c-.38.4-.5.84.12,1.25a8.71,8.71,0,0,0,2.85,1.4c.35.07,1,.3,1.36.12a.74.74,0,0,0,.2-.16A1.75,1.75,0,0,0,892.94,250.22Z" transform="translate(-870.65 -237.72)"/><path class="cls-5" d="M889.93,249.24a.77.77,0,0,1-.93-.06c-.55-.64.73-1.16,1.22-.94S890.26,249.09,889.93,249.24Z" transform="translate(-870.65 -237.72)"/><path class="cls-5" d="M891.23,248.26c.19,0,.37.12.39.29.06.45-.65.3-.81.06S891,248.23,891.23,248.26Z" transform="translate(-870.65 -237.72)"/><path class="cls-10" d="M889.56,248.72a.22.22,0,0,1-.28,0c-.16-.19.22-.34.36-.27S889.65,248.68,889.56,248.72Zm.5-.2a.13.13,0,0,0-.12-.09c-.05,0-.17,0-.12.11S890.07,248.65,890.06,248.52Z" transform="translate(-870.65 -237.72)"/><path class="cls-13" d="M877.64,241.94c-.38.18-1-.05-1.35-.12a8.71,8.71,0,0,1-2.85-1.4c-.81-.54-.37-1.11.26-1.59a2.65,2.65,0,0,1,4.25,1.89,1.71,1.71,0,0,1-.11,1.05A.47.47,0,0,1,877.64,241.94Z" transform="translate(-870.65 -237.72)"/><path class="cls-5" d="M873.83,239.24c.29-.81,1.52-.82,2.2-.65.85.22,1.52,1.24.37,1.62a2.27,2.27,0,0,1-2.25-.24C873.94,239.78,873.73,239.53,873.83,239.24Z" transform="translate(-870.65 -237.72)"/><path class="cls-5" d="M873.82,239a2.69,2.69,0,0,1,2.73-.29,2.64,2.64,0,0,1,.89.69,2.75,2.75,0,0,0-1-.84,2.69,2.69,0,0,0-2.73.29c-.56.42-1,.92-.49,1.4C872.94,239.8,873.32,239.36,873.82,239Z" transform="translate(-870.65 -237.72)"/><path class="cls-14" d="M878,240.72c0-.12,0-.24-.05-.35a3.67,3.67,0,0,1-2.21.31,3.18,3.18,0,0,1-2.3-1.36.36.36,0,0,1,0-.09l0-.06c-.38.4-.49.84.13,1.25a8.71,8.71,0,0,0,2.85,1.4c.34.07,1,.3,1.35.12a.47.47,0,0,0,.2-.17A1.71,1.71,0,0,0,878,240.72Z" transform="translate(-870.65 -237.72)"/><path class="cls-5" d="M874.94,239.74a.79.79,0,0,1-.92-.06c-.55-.65.72-1.16,1.22-.94S875.27,239.59,874.94,239.74Z" transform="translate(-870.65 -237.72)"/><path class="cls-5" d="M876.25,238.75c.19,0,.37.13.39.3.05.44-.66.3-.81.06S876.06,238.73,876.25,238.75Z" transform="translate(-870.65 -237.72)"/><path class="cls-10" d="M874.57,239.22a.24.24,0,0,1-.27,0c-.16-.19.21-.34.36-.28S874.67,239.17,874.57,239.22Zm.5-.2c0-.06-.06-.08-.11-.09s-.18,0-.13.1S875.09,239.15,875.07,239Z" transform="translate(-870.65 -237.72)"/><path class="cls-15" d="M950.93,274.68a2.58,2.58,0,0,1-1.35-.12,8.73,8.73,0,0,1-2.85-1.41c-.81-.53-.37-1.11.26-1.58a2.67,2.67,0,0,1,4.26,1.88,1.82,1.82,0,0,1-.12,1.06A.47.47,0,0,1,950.93,274.68Z" transform="translate(-870.65 -237.72)"/><path class="cls-5" d="M947.13,272c.28-.81,1.51-.81,2.19-.64.85.21,1.53,1.24.37,1.61a2.22,2.22,0,0,1-2.24-.24C947.23,272.51,947,272.27,947.13,272Z" transform="translate(-870.65 -237.72)"/><path class="cls-5" d="M947.11,271.72a2.69,2.69,0,0,1,2.73-.29,2.64,2.64,0,0,1,.9.69,2.66,2.66,0,0,0-3.75-.55c-.56.42-1,.92-.49,1.4C946.24,272.53,946.61,272.09,947.11,271.72Z" transform="translate(-870.65 -237.72)"/><path class="cls-16" d="M951.25,273.45a2,2,0,0,0-.06-.34,3.65,3.65,0,0,1-2.21.3,3.14,3.14,0,0,1-2.3-1.35l0-.09,0-.07c-.37.4-.49.84.13,1.25a8.73,8.73,0,0,0,2.85,1.41,2.58,2.58,0,0,0,1.35.12.47.47,0,0,0,.2-.17A1.82,1.82,0,0,0,951.25,273.45Z" transform="translate(-870.65 -237.72)"/><path class="cls-5" d="M948.23,272.48a.77.77,0,0,1-.92-.07c-.55-.64.73-1.15,1.22-.93S948.56,272.32,948.23,272.48Z" transform="translate(-870.65 -237.72)"/><path class="cls-5" d="M949.54,271.49c.19,0,.37.12.39.3.06.44-.66.3-.81.06S949.35,271.46,949.54,271.49Z" transform="translate(-870.65 -237.72)"/><path class="cls-10" d="M947.86,272a.24.24,0,0,1-.27,0c-.16-.19.22-.34.36-.28S948,271.91,947.86,272Zm.5-.21c0-.05-.06-.08-.11-.09s-.18,0-.12.11S948.38,271.88,948.36,271.75Z" transform="translate(-870.65 -237.72)"/><path class="cls-17" d="M934.59,270.18c-.38.18-1-.05-1.35-.12a8.91,8.91,0,0,1-2.85-1.4c-.8-.54-.37-1.12.26-1.59a2.66,2.66,0,0,1,4.26,1.89,1.79,1.79,0,0,1-.12,1.05A.47.47,0,0,1,934.59,270.18Z" transform="translate(-870.65 -237.72)"/><path class="cls-5" d="M930.79,267.48c.29-.82,1.51-.82,2.19-.65.85.21,1.53,1.24.37,1.62a2.25,2.25,0,0,1-2.24-.25C930.89,268,930.68,267.77,930.79,267.48Z" transform="translate(-870.65 -237.72)"/><path class="cls-5" d="M930.77,267.22a2.69,2.69,0,0,1,2.73-.29,2.78,2.78,0,0,1,.9.69,2.66,2.66,0,0,0-3.75-.55c-.55.42-1,.92-.49,1.4C929.9,268,930.27,267.6,930.77,267.22Z" transform="translate(-870.65 -237.72)"/><path class="cls-18" d="M934.91,269a2,2,0,0,0-.06-.35,3.64,3.64,0,0,1-2.21.31,3.2,3.2,0,0,1-2.3-1.36l0-.09,0-.06c-.37.4-.49.83.13,1.25a8.91,8.91,0,0,0,2.85,1.4c.35.07,1,.3,1.35.12a.47.47,0,0,0,.2-.17A1.79,1.79,0,0,0,934.91,269Z" transform="translate(-870.65 -237.72)"/><path class="cls-5" d="M931.9,268a.8.8,0,0,1-.93-.06c-.55-.65.73-1.16,1.22-.94S932.22,267.82,931.9,268Z" transform="translate(-870.65 -237.72)"/><path class="cls-5" d="M933.2,267c.19,0,.37.13.39.3.06.44-.66.3-.81.06S933,267,933.2,267Z" transform="translate(-870.65 -237.72)"/><path class="cls-10" d="M931.52,267.46a.24.24,0,0,1-.27,0c-.16-.19.22-.34.36-.28S931.62,267.41,931.52,267.46Zm.51-.21a.11.11,0,0,0-.12-.08c-.06,0-.18,0-.12.1S932,267.39,932,267.25Z" transform="translate(-870.65 -237.72)"/><path class="cls-19" d="M913.51,262.52c-.39.18-1,0-1.36-.12a8.76,8.76,0,0,1-2.84-1.4c-.81-.54-.37-1.11.26-1.59a2.66,2.66,0,0,1,4.25,1.89,1.71,1.71,0,0,1-.11,1.05A.47.47,0,0,1,913.51,262.52Z" transform="translate(-870.65 -237.72)"/><path class="cls-5" d="M909.7,259.82c.29-.81,1.51-.82,2.2-.65.85.22,1.52,1.24.36,1.62a2.25,2.25,0,0,1-2.24-.24C909.81,260.36,909.6,260.11,909.7,259.82Z" transform="translate(-870.65 -237.72)"/><path class="cls-5" d="M909.69,259.56a2.69,2.69,0,0,1,2.73-.29,2.74,2.74,0,0,1,.89.69,2.63,2.63,0,0,0-1-.83,2.66,2.66,0,0,0-2.73.28c-.56.42-1,.92-.49,1.4C908.81,260.38,909.19,259.94,909.69,259.56Z" transform="translate(-870.65 -237.72)"/><path class="cls-20" d="M913.82,261.3a2,2,0,0,0-.06-.35,3.62,3.62,0,0,1-2.2.31,3.15,3.15,0,0,1-2.3-1.36.36.36,0,0,1,0-.09l0-.06c-.38.4-.5.84.13,1.25a8.76,8.76,0,0,0,2.84,1.4c.35.07,1,.3,1.36.12a.47.47,0,0,0,.2-.17A1.71,1.71,0,0,0,913.82,261.3Z" transform="translate(-870.65 -237.72)"/><path class="cls-5" d="M910.81,260.32a.77.77,0,0,1-.93-.06c-.54-.64.73-1.16,1.22-.94S911.14,260.17,910.81,260.32Z" transform="translate(-870.65 -237.72)"/><path class="cls-5" d="M912.12,259.33c.18,0,.37.13.39.3,0,.44-.66.3-.82.06S911.92,259.31,912.12,259.33Z" transform="translate(-870.65 -237.72)"/><path class="cls-10" d="M910.44,259.8a.22.22,0,0,1-.27,0c-.17-.19.21-.34.36-.28S910.54,259.75,910.44,259.8Zm.5-.2a.13.13,0,0,0-.11-.09c-.06,0-.18,0-.13.1S911,259.73,910.94,259.6Z" transform="translate(-870.65 -237.72)"/><path class="cls-21" d="M891.17,241.79c-.33.15-.86,0-1.16-.11a7.29,7.29,0,0,1-2.42-1.19c-.69-.46-.32-1,.22-1.36a2.27,2.27,0,0,1,3.63,1.61,1.53,1.53,0,0,1-.1.9A.41.41,0,0,1,891.17,241.79Z" transform="translate(-870.65 -237.72)"/><path class="cls-5" d="M887.92,239.48c.25-.69,1.29-.7,1.88-.55s1.3,1,.31,1.38a1.92,1.92,0,0,1-1.92-.21C888,239.94,887.83,239.73,887.92,239.48Z" transform="translate(-870.65 -237.72)"/><path class="cls-5" d="M887.91,239.26a2.28,2.28,0,0,1,2.33-.24,2.17,2.17,0,0,1,.76.58,2.26,2.26,0,0,0-3.19-.47c-.48.36-.82.79-.42,1.2C887.16,240,887.48,239.58,887.91,239.26Z" transform="translate(-870.65 -237.72)"/><path class="cls-22" d="M891.44,240.74a2.5,2.5,0,0,0-.05-.29,3.14,3.14,0,0,1-1.89.26,2.7,2.7,0,0,1-2-1.16l0-.08,0-.05c-.32.34-.42.71.12,1.07a7.29,7.29,0,0,0,2.42,1.19c.3.06.83.26,1.16.11a.41.41,0,0,0,.17-.15A1.53,1.53,0,0,0,891.44,240.74Z" transform="translate(-870.65 -237.72)"/><path class="cls-5" d="M888.87,239.91a.65.65,0,0,1-.79-.06c-.47-.54.62-1,1-.8S889.15,239.78,888.87,239.91Z" transform="translate(-870.65 -237.72)"/><path class="cls-5" d="M890,239.07c.16,0,.32.1.34.25,0,.38-.57.25-.7.05S889.82,239,890,239.07Z" transform="translate(-870.65 -237.72)"/><path class="cls-10" d="M888.55,239.46a.19.19,0,0,1-.23,0c-.14-.16.18-.29.31-.24S888.64,239.42,888.55,239.46Zm.43-.17a.12.12,0,0,0-.1-.08s-.15,0-.11.09S889,239.4,889,239.29Z" transform="translate(-870.65 -237.72)"/><path class="cls-23" d="M941.06,264.46a2.13,2.13,0,0,1-1.15-.1,7.46,7.46,0,0,1-2.43-1.2c-.69-.45-.32-1,.22-1.35a2.27,2.27,0,0,1,3.63,1.61,1.46,1.46,0,0,1-.1.9A.39.39,0,0,1,941.06,264.46Z" transform="translate(-870.65 -237.72)"/><path class="cls-5" d="M937.81,262.16c.25-.7,1.29-.7,1.88-.56s1.3,1.06.31,1.38a1.92,1.92,0,0,1-1.91-.2C937.9,262.61,937.73,262.41,937.81,262.16Z" transform="translate(-870.65 -237.72)"/><path class="cls-5" d="M937.8,261.94a2.28,2.28,0,0,1,2.33-.25,2.2,2.2,0,0,1,.76.59,2.15,2.15,0,0,0-.86-.72,2.3,2.3,0,0,0-2.33.25c-.48.36-.82.78-.42,1.19C937.05,262.63,937.37,262.26,937.8,261.94Z" transform="translate(-870.65 -237.72)"/><path class="cls-24" d="M941.33,263.42c0-.1,0-.2-.05-.3a3,3,0,0,1-1.88.26,2.69,2.69,0,0,1-2-1.15l0-.08,0,0c-.33.34-.43.71.11,1.06a7.46,7.46,0,0,0,2.43,1.2,2.13,2.13,0,0,0,1.15.1.39.39,0,0,0,.17-.14A1.46,1.46,0,0,0,941.33,263.42Z" transform="translate(-870.65 -237.72)"/><path class="cls-5" d="M938.76,262.58a.67.67,0,0,1-.79-.05c-.47-.55.62-1,1-.8S939,262.45,938.76,262.58Z" transform="translate(-870.65 -237.72)"/><path class="cls-5" d="M939.87,261.74a.35.35,0,0,1,.34.26c0,.37-.57.25-.7,0S939.71,261.72,939.87,261.74Z" transform="translate(-870.65 -237.72)"/><path class="cls-10" d="M938.44,262.14a.18.18,0,0,1-.23,0c-.14-.16.18-.29.31-.23S938.53,262.1,938.44,262.14Zm.43-.17c0-.05,0-.07-.1-.08s-.15,0-.1.09S938.88,262.08,938.87,262Z" transform="translate(-870.65 -237.72)"/></g></g></g></svg>