<svg xmlns="http://www.w3.org/2000/svg" xmlns:xlink="http://www.w3.org/1999/xlink" viewBox="0 0 755.61 877.22"><defs><style>.cls-1{isolation:isolate;}.cls-2{opacity:0.24;mix-blend-mode:screen;}.cls-3{fill:url(#Degradado_sin_nombre_14);}.cls-4{fill:url(#Degradado_sin_nombre_14-2);}.cls-5{fill:url(#Degradado_sin_nombre_14-3);}.cls-6{fill:url(#Degradado_sin_nombre_14-4);}.cls-7{fill:url(#Degradado_sin_nombre_14-5);}.cls-8{fill:url(#Degradado_sin_nombre_14-6);}.cls-9{fill:url(#Degradado_sin_nombre_14-7);}.cls-10{fill:url(#Degradado_sin_nombre_14-8);}.cls-11{fill:url(#Degradado_sin_nombre_14-9);}.cls-12{fill:url(#Degradado_sin_nombre_14-10);}.cls-13{fill:url(#Degradado_sin_nombre_14-11);}.cls-14{fill:url(#Degradado_sin_nombre_14-12);}.cls-15{fill:url(#Degradado_sin_nombre_14-13);}.cls-16{fill:url(#Degradado_sin_nombre_14-14);}.cls-17{fill:url(#Degradado_sin_nombre_14-15);}.cls-18{fill:url(#Degradado_sin_nombre_14-16);}.cls-19{fill:url(#Degradado_sin_nombre_14-17);}.cls-20{fill:url(#Degradado_sin_nombre_14-18);}.cls-21{fill:url(#Degradado_sin_nombre_14-19);}.cls-22{fill:url(#Degradado_sin_nombre_14-20);}.cls-23{fill:url(#Degradado_sin_nombre_14-21);}.cls-24{fill:url(#Degradado_sin_nombre_14-22);}.cls-25{fill:url(#Degradado_sin_nombre_14-23);}.cls-26{fill:url(#Degradado_sin_nombre_14-24);}.cls-27{fill:url(#Degradado_sin_nombre_14-25);}.cls-28{fill:url(#Degradado_sin_nombre_14-26);}</style><linearGradient id="Degradado_sin_nombre_14" x1="0.23" y1="369.64" x2="413.26" y2="369.64" gradientTransform="matrix(1, 0, 0, -1.04, -0.25, 1015.69)" gradientUnits="userSpaceOnUse"><stop offset="0" stop-color="#01054a"/><stop offset="1" stop-color="#01054a"/></linearGradient><linearGradient id="Degradado_sin_nombre_14-2" x1="0.23" y1="409.17" x2="669.02" y2="409.17" gradientTransform="matrix(1, 0, 0, -1.02, -0.24, 1008.39)" xlink:href="#Degradado_sin_nombre_14"/><linearGradient id="Degradado_sin_nombre_14-3" x1="0.23" y1="345.91" x2="145.7" y2="345.91" gradientTransform="matrix(1, 0, 0, -1.09, -0.26, 1033.33)" xlink:href="#Degradado_sin_nombre_14"/><linearGradient id="Degradado_sin_nombre_14-4" x1="329.93" y1="526.83" x2="751.23" y2="526.83" gradientTransform="matrix(1, 0, 0, -1.02, -0.24, 1006.58)" xlink:href="#Degradado_sin_nombre_14"/><linearGradient id="Degradado_sin_nombre_14-5" x1="-0.25" y1="487.08" x2="749.75" y2="487.08" gradientTransform="matrix(1, 0, 0, -1.01, -0.25, 998.5)" xlink:href="#Degradado_sin_nombre_14"/><linearGradient id="Degradado_sin_nombre_14-6" x1="568.32" y1="554.9" x2="731.6" y2="554.9" gradientTransform="matrix(1, -0.01, -0.01, -1, 4.73, 1000.54)" xlink:href="#Degradado_sin_nombre_14"/><linearGradient id="Degradado_sin_nombre_14-7" x1="0.15" y1="238.23" x2="413.07" y2="238.23" gradientTransform="translate(-0.23 0.35) rotate(-0.05)" xlink:href="#Degradado_sin_nombre_14"/><linearGradient id="Degradado_sin_nombre_14-8" x1="0.15" y1="278.86" x2="668.83" y2="278.86" gradientTransform="translate(-0.23 0.35) rotate(-0.05)" xlink:href="#Degradado_sin_nombre_14"/><linearGradient id="Degradado_sin_nombre_14-9" x1="0.15" y1="211.28" x2="145.51" y2="211.28" gradientTransform="translate(-0.23 0.35) rotate(-0.05)" xlink:href="#Degradado_sin_nombre_14"/><linearGradient id="Degradado_sin_nombre_14-10" x1="330.05" y1="392.41" x2="751.16" y2="392.41" gradientTransform="matrix(1, 0, 0, 1.04, -0.24, -11.53)" xlink:href="#Degradado_sin_nombre_14"/><linearGradient id="Degradado_sin_nombre_14-11" x1="0.15" y1="358.31" x2="750.15" y2="358.31" gradientTransform="translate(-0.23 0.35) rotate(-0.05)" xlink:href="#Degradado_sin_nombre_14"/><linearGradient id="Degradado_sin_nombre_14-12" x1="568.88" y1="419.92" x2="732.16" y2="419.92" gradientTransform="matrix(1, 0, 0, 1.09, -0.26, -30.59)" xlink:href="#Degradado_sin_nombre_14"/><linearGradient id="Degradado_sin_nombre_14-13" x1="-0.18" y1="749.16" x2="145.29" y2="749.16" gradientTransform="matrix(1, 0, 0, 1.09, -0.26, -102.73)" xlink:href="#Degradado_sin_nombre_14"/><linearGradient id="Degradado_sin_nombre_14-14" x1="-0.16" y1="769.6" x2="412.88" y2="769.6" gradientTransform="matrix(1, 0, 0, 1.04, -0.25, -61.24)" xlink:href="#Degradado_sin_nombre_14"/><linearGradient id="Degradado_sin_nombre_14-15" x1="-0.1" y1="750.64" x2="668.69" y2="750.64" gradientTransform="matrix(1, 0, 0, 1.02, -0.24, 13.65)" xlink:href="#Degradado_sin_nombre_14"/><linearGradient id="Degradado_sin_nombre_14-16" x1="593.68" y1="220.71" x2="1014.46" y2="220.71" gradientTransform="matrix(0.37, 0, 0, -1.02, 376.41, 1006.94)" xlink:href="#Degradado_sin_nombre_14"/><linearGradient id="Degradado_sin_nombre_14-17" x1="592.3" y1="693.75" x2="1013.03" y2="693.75" gradientTransform="matrix(0.37, 0, 0, 1.04, 376.23, -11.88)" xlink:href="#Degradado_sin_nombre_14"/><linearGradient id="Degradado_sin_nombre_14-18" x1="575.76" y1="699.9" x2="739.04" y2="699.9" gradientTransform="matrix(0.46, 0, 0, 1.09, 407.94, -30.97)" xlink:href="#Degradado_sin_nombre_14"/><linearGradient id="Degradado_sin_nombre_14-19" x1="576.72" y1="258.88" x2="740" y2="258.88" gradientTransform="matrix(0.46, 0, 0, -1.09, 407.94, 1026.68)" xlink:href="#Degradado_sin_nombre_14"/><linearGradient id="Degradado_sin_nombre_14-20" x1="0.21" y1="50.6" x2="413.25" y2="50.6" gradientTransform="matrix(1, 0, 0, -1, -0.23, 184.56)" xlink:href="#Degradado_sin_nombre_14"/><linearGradient id="Degradado_sin_nombre_14-21" x1="0.21" y1="91.23" x2="669" y2="91.23" gradientTransform="matrix(1, 0, 0, -1, -0.23, 184.56)" xlink:href="#Degradado_sin_nombre_14"/><linearGradient id="Degradado_sin_nombre_14-22" x1="0.21" y1="23.65" x2="145.68" y2="23.65" gradientTransform="matrix(1, 0, 0, -1, -0.23, 184.56)" xlink:href="#Degradado_sin_nombre_14"/><linearGradient id="Degradado_sin_nombre_14-23" x1="603.16" y1="841.68" x2="1023.94" y2="841.68" gradientTransform="matrix(0.37, 0, 0, -1.02, 376.41, 1006.94)" xlink:href="#Degradado_sin_nombre_14"/><linearGradient id="Degradado_sin_nombre_14-24" x1="605.06" y1="83.89" x2="1025.68" y2="83.89" gradientTransform="matrix(0.37, 0, 0, 1.04, 376.23, -11.88)" xlink:href="#Degradado_sin_nombre_14"/><linearGradient id="Degradado_sin_nombre_14-25" x1="593.44" y1="116.97" x2="741.43" y2="116.97" gradientTransform="matrix(0.46, 0, 0, 1.09, 407.94, -30.97)" xlink:href="#Degradado_sin_nombre_14"/><linearGradient id="Degradado_sin_nombre_14-26" x1="591.63" y1="841.81" x2="740.54" y2="841.81" gradientTransform="matrix(0.46, 0, 0, -1.09, 407.94, 1026.68)" xlink:href="#Degradado_sin_nombre_14"/></defs><title>body_space_3</title><g class="cls-1"><g id="Calque_2" data-name="Calque 2"><g id="OBJECTS"><g class="cls-2"><path class="cls-3" d="M65.76,603.49c11.32,9.39,22.46,19.23,39.55,25.9,26,10.15,61.17,11.24,93.6,9.7s64.9-5.32,97.25-3.34c39.45,2.41,76.55,13.76,99.56,30.47,8.09,5.87,14.52,12.53,17.6,19.51L313,685.64h0c-.52-.6-1.06-1.18-1.66-1.76-11.89-11.5-35.51-18.7-59.78-22.34s-49.79-4.27-74.84-6-50.61-4.86-70.91-12.64c-17.73-6.79-30-16.59-43.34-25.68s-29-18-49.87-21.71A95.89,95.89,0,0,0,.37,594.13h0l0-18.64h0a100,100,0,0,1,22.74,3.63C41.81,584.56,54.44,594.1,65.76,603.49Z"/><path class="cls-4" d="M116.68,521.07c33.89-.33,71.23-6.13,99.45,3.39,18.88,6.38,27.87,18,44.17,26,23.22,11.39,58.53,14,90.68,12.33s63.19-6.92,95.26-8.92,67.3-.18,91.87,10.45c25.71,11.13,34.14,29.21,39.31,46.11s9.25,34.86,29.7,48.49c12.54,8.36,30.15,14.31,46.7,20.63,5.19,2,10.36,3.81,15.26,6l-76.48.17a.08.08,0,0,1-.08-.06l-.45-1.74c-2.11-8-9.05-15.45-17.31-22.33-42.86-35.73-126-58-208.45-56-29.1.74-60.62,4-85.68-3.52-37.77-11.37-38.82-40.45-73-54.39-24.4-9.94-59.33-9.55-89.92-6.23s-60.84,9.07-92.09,8.19A161.39,161.39,0,0,1,.41,547l.05-52.79q3.51,2.13,7.32,4.13C35.91,513,76.33,521.46,116.68,521.07Z"/><path class="cls-5" d="M29.63,640.22c10.26,6,19.87,12.63,33.3,16.36,15.65,4.35,34.44,4.14,50.53,8,15.61,3.74,27.69,11.43,32.29,20.27l-34.47,0h0c-1.18-3.85-4.49-7.48-10-10.08-8.54-4.05-20.23-5.44-31.38-6.68l-44.11-4.92c-7.48-.84-15.26-1.67-22.68-.7q-1.44.2-2.82.48h0l0-34.27h0C11.67,630.72,21.35,635.4,29.63,640.22Z"/><path class="cls-6" d="M658.64,496c-25-7.86-44.94-19.56-71.32-26.13-62.71-15.6-142.33,1.8-205.81-13-21.72-5-39.91-13.83-51.29-24.46l106.55.1.52.32c14.53,8.56,36.19,13.15,57.77,16S539,453,560.14,456.5c26,4.34,50.34,12,77.61,12.77,38.93,1.13,76.37-11.92,113.75-14.44l0,51.17C719.42,507.93,686.08,504.66,658.64,496Z"/><path class="cls-7" d="M719.38,583.26c-36.73-2.42-71.42-11.93-95.2-26.09-17.91-10.67-30.26-24-53.19-32-38.12-13.2-90-6.82-133.94.54s-94.3,15-134.67,3.56c-28.93-8.2-45.53-24.56-74.27-32.92-39.82-11.58-90.44-4.8-135.68-9.21-37.9-3.69-72-15.9-91.63-32.44A2.27,2.27,0,0,1,0,453l0-17.56a2.27,2.27,0,0,1,2.27-2.27H5.6a2.28,2.28,0,0,1,1.75.83c6.34,7.7,15.82,14.76,27.88,20.53,23.15,11.06,55.47,17.22,87.51,16.66,34.92-.6,72.87-8.41,102.74.63,22.16,6.71,34.84,21.7,60.59,23.17,17,1,32.23-4.56,47.22-8.62,27.35-7.42,59.38-10.47,90.32-8.62,32.37,1.94,62.51,9,92,16,30.64,7.23,62.12,14.77,84.81,27.32,18.81,10.39,30.51,23.69,50.42,33.56,24.89,12.34,62.14,17.3,96.65,14.63a2.27,2.27,0,0,1,2.44,2.26v9.92a2.28,2.28,0,0,1-2.18,2.28A281.73,281.73,0,0,1,719.38,583.26Z"/><path class="cls-8" d="M627,447.9c-21.57-1.92-41.56-7-57.94-14.11l44.72-.32h0A128.54,128.54,0,0,0,667,440.72c11.72-.91,22.94-3.74,31.42-7.84h0l33.92.76C703.89,446,664.16,451.21,627,447.9Z"/><path class="cls-9" d="M65.57,264.42c11.32-9,22.46-18.45,39.55-24.86,26-9.73,61.17-10.78,93.6-9.3s64.9,5.09,97.25,3.2c39.45-2.32,76.55-13.21,99.57-29.24,8.08-5.63,14.39-10.48,17.48-17.17l-100.2-1.46h0c-.52.57-1.06,1.14-1.66,1.69-11.89,11-35.51,17.94-59.78,21.44s-49.79,4.1-74.84,5.79-50.61,4.67-70.91,12.13c-17.73,6.52-30,15.92-43.34,24.64s-29,17.28-49.87,20.83A99.73,99.73,0,0,1,.18,273.4h0l0,17.89h0a104.27,104.27,0,0,0,22.74-3.5C41.62,282.58,54.24,273.43,65.57,264.42Z"/><path class="cls-10" d="M116.49,346.31c33.89.32,71.23,6,99.44-3.32,18.89-6.23,27.88-17.62,44.18-25.44,23.22-11.13,58.53-13.67,90.68-12.05S414,312.26,446,314.21s67.31.19,91.88-10.21c25.71-10.87,34.14-28.54,39.31-45.07s9.25-34.06,29.7-47.38c12.54-8.17,30.15-14,46.7-20.17,5.19-1.94,10.24-1.94,15.14-4.1l-76.35-1.95a.08.08,0,0,0-.08.07l-.46,1.69c-2.11,7.8-9,15.1-17.31,21.83-42.86,34.91-126,56.73-208.45,54.69-29.1-.72-60.62-3.92-85.68,3.45-37.77,11.11-38.82,39.53-73.05,53.16-24.4,9.71-59.33,9.32-89.92,6.09s-60.84-8.87-92.09-8A166.06,166.06,0,0,0,.22,321l.05,51.59q3.51-2.09,7.32-4C35.72,354.17,76.13,345.93,116.49,346.31Z"/><path class="cls-11" d="M29.44,226.73c10.26-5.49,19.87-11.59,33.3-15,15.65-4,34.44-3.8,50.53-7.34,15.61-3.44,27.58-9.45,32.18-17.57l-34.36-1h0c-1.18,3.54-4.49,6.87-10,9.26-8.54,3.72-20.23,5-31.38,6.14L25.62,205.7c-7.48.77-15.26,1.53-22.68.64-1-.11-1.9-.26-2.82-.44l0,31.48C11.48,235.47,21.15,231.17,29.44,226.73Z"/><path class="cls-12" d="M658.17,369c-25,8-45.06,19.94-71.52,26.62-62.9,15.9-142.76-1.84-206.42,13.22-21.78,5.16-38.59,12.81-50,23.64l105.43,1.19.53-.32c14.57-8.72,36.29-13.41,57.93-16.27s44-4.23,65.27-7.83c26-4.41,50.49-12.2,77.84-13,39-1.14,76.6,12.15,114.09,14.73l0-52.15C719.13,356.81,685.7,360.15,658.17,369Z"/><path class="cls-13" d="M719.67,284.06c-36.73,2.4-71.42,11.85-95.2,25.91-17.91,10.6-30.26,23.87-53.18,31.76-38.13,13.12-90,6.78-133.95-.53s-94.3-14.89-134.66-3.54c-28.93,8.14-45.53,24.4-74.27,32.7-39.82,11.5-90.44,4.78-135.68,9.16-37.89,3.66-72,15.79-91.62,32.21a2.3,2.3,0,0,0-.8,1.75v17.41a2.28,2.28,0,0,0,2.28,2.27H5.91a2.26,2.26,0,0,0,1.74-.83c6.35-7.65,15.83-14.66,27.89-20.39,23.14-11,55.46-17.11,87.51-16.56,34.91.6,72.86,8.36,102.73-.62,22.16-6.66,34.84-21.55,60.59-23,17-1,32.22,4.53,47.22,8.57,27.34,7.36,59.37,10.4,90.31,8.56,32.38-1.93,62.51-8.94,92-15.85,30.63-7.19,62.11-14.68,84.8-27.14,18.81-10.33,30.51-23.53,50.42-33.34C676,300.28,713.25,295.35,747.75,298a2.27,2.27,0,0,0,2.45-2.26v-9.82a2.29,2.29,0,0,0-2.19-2.28C738.55,283.32,729,283.45,719.67,284.06Z"/><path class="cls-14" d="M626.87,418c-21.55,2.28-41.5,8-57.82,15.84l44.72,0h0a119.41,119.41,0,0,1,53.16-8.34c11.73.89,23,3.87,31.48,8.26l33.92,0C703.79,420.43,664,414,626.87,418Z"/><path class="cls-15" d="M29.63,729.46c10.26-6,19.87-12.62,33.3-16.35,15.65-4.35,34.44-4.14,50.53-8,15.61-3.74,27.69-11.43,32.29-20.28l-34.47,0h0c-1.18,3.85-4.49,7.48-10,10.08-8.54,4-20.23,5.44-31.38,6.68l-44.11,4.92c-7.48.83-15.26,1.67-22.68.7q-1.44-.19-2.82-.48h0l0,34.27h0C11.67,739,21.35,734.29,29.63,729.46Z"/><path class="cls-16" d="M65.76,767.85c11.32-9.39,22.46-19.23,39.55-25.91,26-10.15,61.17-11.24,93.6-9.69s64.9,5.31,97.25,3.33c39.45-2.4,76.55-13.76,99.56-30.46,8.09-5.88,14.52-12.54,17.6-19.52L313,685.69h0c-.52.6-1.06,1.19-1.66,1.76-11.89,11.5-35.51,18.7-59.78,22.34s-49.79,4.28-74.84,6-50.61,4.87-70.91,12.64c-17.73,6.8-30,16.59-43.34,25.68s-29,18-49.87,21.71A95.89,95.89,0,0,1,.37,777.2h0l0,18.65h0a100,100,0,0,0,22.74-3.64C41.81,786.77,54.44,777.24,65.76,767.85Z"/><path class="cls-17" d="M116.68,850.38c33.89.32,71.23,6.13,99.45-3.4C235,840.61,244,829,260.3,821c23.22-11.39,58.53-14,90.68-12.33s63.19,6.93,95.26,8.92,67.3.19,91.87-10.44C563.82,796,572.25,777.89,577.42,761s9.25-34.85,29.7-48.48c12.54-8.36,30.15-14.31,46.7-20.63,5.19-2,10.36-4.06,15.26-6.27l-76.48.07a.1.1,0,0,0-.08.06l-.45,1.74c-2.11,8-9.05,15.45-17.31,22.34-42.86,35.72-126,58-208.45,56-29.1-.74-60.62-4-85.68,3.53-37.77,11.37-38.82,40.45-73,54.39-24.4,9.94-59.33,9.54-89.92,6.23s-60.84-9.08-92.09-8.19A161.39,161.39,0,0,0,.41,824.43l.05,52.79q3.51-2.13,7.32-4.13C35.91,858.42,76.33,850,116.68,850.38Z"/><path class="cls-18" d="M717.16,808.44c-9.22-7.85-16.59-19.54-26.34-26.09-23.16-15.57-52.59,1.89-76-12.86-7.88-5-14.5-13.5-18.71-23.86-.08-.2,0-.57.09-.57l39.05,0c.07.11.13.22.2.32,5.36,8.55,13.36,13.14,21.33,15.94s16.23,4.12,24,7.64c9.58,4.31,18.59,12,28.67,12.72,14.34,1.1,28.14-11.88,41.91-14.49.07,0,.13.14.13.33l0,50.52c0,.17-.05.31-.11.32C739.53,820.3,727.27,817,717.16,808.44Z"/><path class="cls-19" d="M717.06,681.85c-9.25,8-16.66,19.91-26.44,26.59-23.24,15.86-52.79-1.93-76.32,13.1-7.52,4.8-14,13-18.27,22.84-.31.72.49,2.8.89,2.8l37.89-.79.19-.32c5.39-8.71,13.42-13.38,21.42-16.24s16.28-4.19,24.13-7.78c9.62-4.4,18.66-12.18,28.78-13,14.27-1.11,28,11.89,41.72,14.7.25.05.47-.5.47-1.2l0-49.72c0-.64-.18-1.16-.41-1.2C739.3,669.82,727.11,673.16,717.06,681.85Z"/><path class="cls-20" d="M701.47,722.22A52.33,52.33,0,0,0,674.75,737l20.67,0v1c6.94-6.27,15.88-9.73,24.56-8.31,5.42.9,10.62,3,14.55,7.39V738l15.68,0C737,724.73,718.63,718.32,701.47,722.22Z"/><path class="cls-21" d="M701.47,752.84c-10-2.26-19.18-7.93-26.72-15.81l20.67,0h0c6.94,6.27,15.88,9.74,24.56,8.31a25.35,25.35,0,0,0,14.55-8.27h0l15.68.87C737,751.19,718.63,756.74,701.47,752.84Z"/><path class="cls-22" d="M65.45,108.13c11.32,9,22.46,18.44,39.56,24.85,26,9.74,61.16,10.79,93.59,9.31s64.9-5.1,97.25-3.2c39.46,2.31,76.56,13.2,99.57,29.23,8.09,5.64,14.51,12,17.6,18.73L312.7,187h0q-.76-.85-1.65-1.68c-11.9-11-35.51-18-59.79-21.44s-49.79-4.1-74.83-5.8-50.61-4.67-70.91-12.13c-17.74-6.52-30-15.91-43.34-24.63s-29-17.28-49.87-20.84A99.91,99.91,0,0,0,.06,99.15h0l0-17.89h0a103.58,103.58,0,0,1,22.74,3.49C41.5,90,54.13,99.12,65.45,108.13Z"/><path class="cls-23" d="M116.37,26.23c33.89-.31,71.23-6,99.45,3.33C234.71,35.79,243.69,47.18,260,55c23.22,11.14,58.53,13.68,90.68,12.06s63.19-6.77,95.26-8.72,67.3-.18,91.88,10.21c25.71,10.88,34.13,28.55,39.3,45.07s9.25,34.06,29.7,47.39c12.54,8.17,30.16,14,46.7,20.16,5.2,1.94,10.36,4,15.26,6.12l-76.47-.07a.08.08,0,0,1-.08-.06l-.46-1.7c-2.1-7.8-9-15.1-17.3-21.83-42.87-34.91-126-56.73-208.45-54.68-29.11.72-60.63,3.92-85.69-3.46-37.77-11.1-38.82-39.53-73-53.15C182.88,42.62,148,43,117.35,46.24s-60.83,8.87-92.08,8A163.54,163.54,0,0,1,.11,51.59L.15,0Q3.66,2.09,7.48,4C35.6,18.37,76,26.61,116.37,26.23Z"/><path class="cls-24" d="M29.32,145.81c10.26,5.49,19.87,11.6,33.3,15,15.65,4,34.45,3.81,50.53,7.35,15.61,3.43,27.7,10.5,32.3,18.62l-34.48,0h0c-1.18-3.53-4.49-6.87-10-9.26-8.55-3.72-20.24-5-31.38-6.13l-44.11-4.53c-7.49-.76-15.26-1.53-22.68-.64-1,.12-1.91.27-2.83.44l0-31.47C11.36,137.08,21,141.37,29.32,145.81Z"/><path class="cls-25" d="M721.25,174.79c-9.22-7.85-16.59-19.54-26.34-26.09-23.16-15.57-52.59,1.89-76-12.86-7.88-5-14.5-13.49-18.71-23.86-.08-.2,0-.57.09-.57l39,0,.19.32c5.37,8.55,13.37,13.14,21.34,15.94s16.23,4.12,24,7.64c9.58,4.32,18.59,11.95,28.67,12.72,14.34,1.1,28.14-11.88,41.91-14.49.07,0,.13.14.13.33l-.05,50.52c0,.17,0,.31-.11.33C743.62,186.65,731.35,183.39,721.25,174.79Z"/><path class="cls-26" d="M721.15,48.12c-9.25,8-16.66,19.91-26.44,26.58-23.24,15.86-52.79-1.92-76.32,13.1-7.52,4.81-13.9,12.92-18.15,22.8-.31.72-.11,2.1.3,2.1l38.36,0,.19-.32c5.39-8.71,13.41-13.39,21.42-16.24s16.28-4.2,24.13-7.78c9.62-4.4,18.66-12.18,28.77-13,14.28-1.11,28,11.89,41.73,14.7.25,0,.47-.5.47-1.2l-.05-49.73c0-.63-.18-1.16-.41-1.19C743.39,36.09,731.2,39.43,721.15,48.12Z"/><path class="cls-27" d="M705.55,88.57a53.13,53.13,0,0,0-22.39,10.79,2.27,2.27,0,0,0,1.44,4h14.91v1c6.94-6.27,15.88-9.73,24.56-8.3,5.42.89,10.62,3,14.55,7.38v.89h9.83a2.27,2.27,0,0,0,1.47-4C737.2,89.84,720.89,85.09,705.55,88.57Z"/><path class="cls-28" d="M705.55,119.2A52.37,52.37,0,0,1,683,107.36a2.27,2.27,0,0,1,1.51-4h15c6.94,6.27,15.88,9.74,24.56,8.31a25.35,25.35,0,0,0,14.55-8.27h0l10.27.57a2.27,2.27,0,0,1,1.34,4C737.47,118.55,721,122.71,705.55,119.2Z"/></g></g></g></g></svg>