<svg xmlns="http://www.w3.org/2000/svg" xmlns:xlink="http://www.w3.org/1999/xlink" viewBox="0 0 750 500"><defs><style>.cls-1{isolation:isolate;}.cls-2{opacity:0.24;mix-blend-mode:screen;}.cls-3{fill:url(#Degradado_sin_nombre_14);}.cls-4{fill:url(#Degradado_sin_nombre_14-2);}.cls-5{fill:url(#Degradado_sin_nombre_14-3);}.cls-6{fill:url(#Degradado_sin_nombre_14-4);}.cls-7{fill:url(#Degradado_sin_nombre_14-5);}.cls-8{fill:url(#Degradado_sin_nombre_14-6);}</style><linearGradient id="Degradado_sin_nombre_14" y1="106.56" x2="413.04" y2="106.56" gradientUnits="userSpaceOnUse"><stop offset="0" stop-color="#01054a"/><stop offset="1" stop-color="#01054a"/></linearGradient><linearGradient id="Degradado_sin_nombre_14-2" y1="188.71" x2="668.79" y2="188.71" xlink:href="#Degradado_sin_nombre_14"/><linearGradient id="Degradado_sin_nombre_14-3" y1="52.06" x2="145.47" y2="52.06" xlink:href="#Degradado_sin_nombre_14"/><linearGradient id="Degradado_sin_nombre_14-4" x1="327.47" y1="426.96" x2="750" y2="426.96" xlink:href="#Degradado_sin_nombre_14"/><linearGradient id="Degradado_sin_nombre_14-5" y1="349.35" x2="750" y2="349.35" xlink:href="#Degradado_sin_nombre_14"/><linearGradient id="Degradado_sin_nombre_14-6" x1="568.59" y1="484.27" x2="731.87" y2="484.27" xlink:href="#Degradado_sin_nombre_14"/></defs><title>Fichier 2</title><g class="cls-1"><g id="Calque_2" data-name="Calque 2"><g id="OBJECTS"><g class="cls-2"><path class="cls-3" d="M65.4,158.92c11.33-18.19,22.47-37.26,39.58-50.18C131,89.1,166.15,87,198.58,90.1s64.89,10.43,97.25,6.65a144.41,144.41,0,0,0,99.59-58.93C403.52,26.44,410,13.54,413,0H312.72c-.52,1.15-1.06,2.29-1.65,3.4-11.91,22.3-35.53,36.22-59.81,43.24s-49.8,8.2-74.84,11.58S125.8,67.57,105.5,82.61c-17.74,13.15-30,32.13-43.36,49.73s-29,34.89-49.89,42A52.16,52.16,0,0,1,0,177v36.18a57.55,57.55,0,0,0,22.75-7C41.43,195.6,54.07,177.12,65.4,158.92Z"/><path class="cls-4" d="M116.24,324.6c33.89.71,71.23,12.24,99.45-6.53,18.9-12.56,27.89-35.57,44.2-51.35,23.23-22.46,58.54-27.54,90.69-24.2s63.18,13.8,95.25,17.8,67.3.5,91.89-20.48c25.71-21.93,34.16-57.65,39.34-91.05S586.34,79.94,606.81,53C619.35,36.54,637,24.82,653.53,12.35c5.19-3.91,10.36-8,15.26-12.35H592.16c-.1,1.19-.22,2.38-.38,3.56-2.11,15.77-9.06,30.51-17.33,44.11C531.56,118.18,448.37,162.14,366,157.85c-29.1-1.51-60.62-8-85.69,6.82-37.77,22.39-38.85,79.85-73.09,107.34-24.41,19.59-59.34,18.75-89.93,12.15S56.41,266.11,25.16,267.8A86.21,86.21,0,0,0,0,273.11V377.43q3.51-4.21,7.33-8.15A149.55,149.55,0,0,1,116.24,324.6Z"/><path class="cls-5" d="M29.31,82.66C39.57,71.57,49.18,59.24,62.62,52.34c15.65-8,34.44-7.62,50.53-14.75A59.08,59.08,0,0,0,145.47,0H111a31.57,31.57,0,0,1-10,18.71c-8.55,7.51-20.24,10.06-31.39,12.35L25.51,40.12C18,41.65,10.25,43.19,2.83,41.38A24.52,24.52,0,0,1,0,40.48v63.64C11.33,100.28,21,91.61,29.31,82.66Z"/><path class="cls-6" d="M656.9,374.64c-25,15.54-45.08,38.68-71.55,51.64-62.9,30.8-142.75-3.83-206.42,25.34A112.53,112.53,0,0,0,327.47,500H434.32l.53-.63c14.58-16.93,36.3-26,57.95-31.54s44.05-8.13,65.28-15.09c26-8.54,50.49-23.65,77.85-25.16,39-2.16,76.58,23.76,114.07,28.84V355C717.87,351.13,684.44,357.55,656.9,374.64Z"/><path class="cls-7" d="M719.48,199.86a151.11,151.11,0,0,0-95.22,52.22C606.34,273.48,594,300.29,571,316.2c-38.13,26.45-90,13.54-133.94-1.33s-94.29-30.29-134.66-7.4c-28.93,16.4-45.55,49.25-74.3,66-39.83,23.17-90.44,9.48-135.69,18.25C54,399.15,19.49,424.17,0,458.05V500H6.65a119.7,119.7,0,0,1,116.11-76.16c34.91,1.27,72.85,17,102.73-1.07,22.16-13.43,34.85-43.51,60.61-46.42,17-1.92,32.22,9.22,47.21,17.41a152.33,152.33,0,0,0,90.3,17.47c32.38-3.83,62.52-18,92-31.87,30.64-14.47,62.14-29.57,84.84-54.72,18.82-20.85,30.53-47.53,50.45-67.32,25.48-25.33,63.92-35.1,99.1-28.8V199.25A141.54,141.54,0,0,0,719.48,199.86Z"/><path class="cls-8" d="M626.43,470.63c-21.56,4.2-41.51,14.73-57.84,29.37h44.73c15-11.65,34.38-18.09,53.16-15.42A57.63,57.63,0,0,1,698,500h33.92C703.35,475.37,663.58,463.41,626.43,470.63Z"/></g></g></g></g></svg>