<svg xmlns="http://www.w3.org/2000/svg" xmlns:xlink="http://www.w3.org/1999/xlink" viewBox="0 0 176.13 182.05"><defs><style>.cls-1{isolation:isolate;}.cls-2{fill:url(#radial-gradient);}.cls-13,.cls-3,.cls-32,.cls-36,.cls-4,.cls-48,.cls-5,.cls-61,.cls-62,.cls-63,.cls-7{opacity:0.5;}.cls-3{fill:url(#radial-gradient-2);}.cls-4{fill:url(#radial-gradient-3);}.cls-5{fill:url(#radial-gradient-4);}.cls-6{fill:url(#radial-gradient-5);}.cls-7{fill:url(#radial-gradient-6);}.cls-8{fill:url(#radial-gradient-7);}.cls-9{fill:url(#radial-gradient-8);}.cls-10{fill:url(#radial-gradient-9);}.cls-11{opacity:0.2;fill:url(#radial-gradient-10);}.cls-11,.cls-22,.cls-24,.cls-26,.cls-30,.cls-42,.cls-44,.cls-46,.cls-57,.cls-59,.cls-75,.cls-76{mix-blend-mode:multiply;}.cls-12{fill:url(#radial-gradient-11);}.cls-13{fill:url(#radial-gradient-12);}.cls-14{fill:#d9938e;}.cls-15{fill:url(#radial-gradient-13);}.cls-16{fill:url(#radial-gradient-14);}.cls-17{fill:url(#radial-gradient-15);}.cls-18{fill:url(#radial-gradient-16);}.cls-19{fill:url(#radial-gradient-17);}.cls-20{fill:url(#Áåçûìÿííûé_ãðàäèåíò_236);}.cls-21{fill:url(#Áåçûìÿííûé_ãðàäèåíò_236-2);}.cls-22,.cls-24,.cls-26,.cls-30,.cls-42,.cls-44,.cls-46,.cls-57,.cls-59{opacity:0.4;}.cls-22{fill:url(#radial-gradient-18);}.cls-23{fill:url(#Áåçûìÿííûé_ãðàäèåíò_236-3);}.cls-24{fill:url(#radial-gradient-19);}.cls-25{fill:url(#Áåçûìÿííûé_ãðàäèåíò_236-4);}.cls-26{fill:url(#radial-gradient-20);}.cls-27{fill:url(#radial-gradient-21);}.cls-28{fill:#690b7c;}.cls-29{fill:url(#Áåçûìÿííûé_ãðàäèåíò_236-5);}.cls-30{fill:url(#radial-gradient-22);}.cls-31{fill:url(#radial-gradient-23);}.cls-33{fill:url(#radial-gradient-24);}.cls-34{fill:url(#radial-gradient-25);}.cls-35{fill:url(#radial-gradient-26);}.cls-36{fill:url(#radial-gradient-27);}.cls-37{fill:url(#radial-gradient-28);}.cls-38{fill:url(#radial-gradient-29);}.cls-39{fill:url(#radial-gradient-30);}.cls-40{fill:url(#radial-gradient-31);}.cls-41{fill:url(#Áåçûìÿííûé_ãðàäèåíò_236-6);}.cls-42{fill:url(#radial-gradient-32);}.cls-43{fill:url(#Áåçûìÿííûé_ãðàäèåíò_236-7);}.cls-44{fill:url(#radial-gradient-33);}.cls-45{fill:url(#Áåçûìÿííûé_ãðàäèåíò_236-8);}.cls-46{fill:url(#radial-gradient-34);}.cls-47{fill:url(#radial-gradient-35);}.cls-48{fill:url(#radial-gradient-36);}.cls-49{fill:url(#radial-gradient-37);}.cls-50{fill:url(#radial-gradient-38);}.cls-51{fill:url(#radial-gradient-39);}.cls-52{opacity:0.6;fill:url(#radial-gradient-40);}.cls-52,.cls-53{mix-blend-mode:screen;}.cls-53{opacity:0.3;}.cls-54{fill:url(#radial-gradient-41);}.cls-55{fill:url(#radial-gradient-42);}.cls-56{fill:url(#Áåçûìÿííûé_ãðàäèåíò_236-9);}.cls-57{fill:url(#radial-gradient-43);}.cls-58{fill:url(#Áåçûìÿííûé_ãðàäèåíò_236-10);}.cls-59{fill:url(#radial-gradient-44);}.cls-60{fill:url(#radial-gradient-45);}.cls-61{fill:url(#radial-gradient-46);}.cls-62{fill:url(#radial-gradient-47);}.cls-63{fill:url(#radial-gradient-48);}.cls-64{fill:url(#radial-gradient-49);}.cls-65{fill:url(#radial-gradient-50);}.cls-66{fill:url(#radial-gradient-51);}.cls-67{fill:url(#radial-gradient-52);}.cls-68{fill:url(#radial-gradient-53);}.cls-69{fill:url(#radial-gradient-54);}.cls-70{fill:url(#radial-gradient-55);}.cls-71{fill:url(#radial-gradient-56);}.cls-72{fill:url(#radial-gradient-57);}.cls-73{fill:url(#radial-gradient-58);}.cls-74{fill:url(#radial-gradient-59);}.cls-75{fill:url(#radial-gradient-60);}.cls-76{fill:url(#radial-gradient-61);}</style><radialGradient id="radial-gradient" cx="128.54" cy="109.32" r="36.58" gradientUnits="userSpaceOnUse"><stop offset="0.06" stop-color="#faf1d6"/><stop offset="0.24" stop-color="#f8edd3"/><stop offset="0.42" stop-color="#f2e1ca"/><stop offset="0.61" stop-color="#e8ccba"/><stop offset="0.8" stop-color="#dab0a5"/><stop offset="0.95" stop-color="#cc928e"/></radialGradient><radialGradient id="radial-gradient-2" cx="128.54" cy="109.32" r="36.58" gradientUnits="userSpaceOnUse"><stop offset="0.22" stop-color="#cc928e"/><stop offset="0.95" stop-color="#cc928e"/></radialGradient><radialGradient id="radial-gradient-3" cx="128.54" cy="109.32" r="36.59" xlink:href="#radial-gradient-2"/><radialGradient id="radial-gradient-4" cx="128.54" cy="109.32" r="36.58" xlink:href="#radial-gradient-2"/><radialGradient id="radial-gradient-5" cx="67.77" cy="84.04" r="30.63" xlink:href="#radial-gradient"/><radialGradient id="radial-gradient-6" cx="67.77" cy="84.04" r="30.63" xlink:href="#radial-gradient-2"/><radialGradient id="radial-gradient-7" cx="97.12" cy="121.36" r="38.05" xlink:href="#radial-gradient"/><radialGradient id="radial-gradient-8" cx="97.12" cy="121.36" r="38.05" xlink:href="#radial-gradient"/><radialGradient id="radial-gradient-9" cx="97.12" cy="121.36" r="38.05" xlink:href="#radial-gradient"/><radialGradient id="radial-gradient-10" cx="89.62" cy="117.61" r="40.57" gradientUnits="userSpaceOnUse"><stop offset="0.45" stop-color="#5e1377"/><stop offset="1" stop-color="#8160ff"/></radialGradient><radialGradient id="radial-gradient-11" cx="71.23" cy="124.33" r="59.18" xlink:href="#radial-gradient"/><radialGradient id="radial-gradient-12" cx="82.87" cy="130.45" r="118.58" xlink:href="#radial-gradient-2"/><radialGradient id="radial-gradient-13" cx="68.7" cy="145.78" r="31.75" xlink:href="#radial-gradient"/><radialGradient id="radial-gradient-14" cx="68.7" cy="145.78" r="31.75" xlink:href="#radial-gradient"/><radialGradient id="radial-gradient-15" cx="103.31" cy="154.01" r="19.49" xlink:href="#radial-gradient"/><radialGradient id="radial-gradient-16" cx="95.83" cy="158.53" r="17.23" xlink:href="#radial-gradient"/><radialGradient id="radial-gradient-17" cx="112.96" cy="149.92" r="15.24" xlink:href="#radial-gradient"/><radialGradient id="Áåçûìÿííûé_ãðàäèåíò_236" cx="65.29" cy="137.5" r="2.23" gradientUnits="userSpaceOnUse"><stop offset="0" stop-color="#ff5731"/><stop offset="0.7" stop-color="#ba005e"/><stop offset="0.95" stop-color="#5e1377"/><stop offset="1" stop-color="#8160ff"/></radialGradient><radialGradient id="Áåçûìÿííûé_ãðàäèåíò_236-2" cx="70.01" cy="97.18" r="40.58" xlink:href="#Áåçûìÿííûé_ãðàäèåíò_236"/><radialGradient id="radial-gradient-18" cx="70.01" cy="97.18" r="40.58" xlink:href="#radial-gradient-10"/><radialGradient id="Áåçûìÿííûé_ãðàäèåíò_236-3" cx="89.62" cy="117.61" r="40.57" xlink:href="#Áåçûìÿííûé_ãðàäèåíò_236"/><radialGradient id="radial-gradient-19" cx="89.62" cy="117.61" r="40.57" xlink:href="#radial-gradient-10"/><radialGradient id="Áåçûìÿííûé_ãðàäèåíò_236-4" cx="38.2" cy="109.11" r="43.23" xlink:href="#Áåçûìÿííûé_ãðàäèåíò_236"/><radialGradient id="radial-gradient-20" cx="38.2" cy="109.12" r="43.23" xlink:href="#radial-gradient-10"/><radialGradient id="radial-gradient-21" cx="35.2" cy="147.78" r="70.73" xlink:href="#radial-gradient-10"/><radialGradient id="Áåçûìÿííûé_ãðàäèåíò_236-5" cx="73.76" cy="141.41" r="45.38" gradientTransform="matrix(0.88, -0.48, 0.48, 0.88, -69.35, 53.66)" xlink:href="#Áåçûìÿííûé_ãðàäèåíò_236"/><radialGradient id="radial-gradient-22" cx="73.76" cy="141.41" r="45.38" gradientTransform="matrix(0.88, -0.48, 0.48, 0.88, -69.35, 53.66)" xlink:href="#radial-gradient-10"/><radialGradient id="radial-gradient-23" cx="70.61" cy="182" r="74.26" gradientTransform="matrix(0.88, -0.48, 0.48, 0.88, -69.35, 53.66)" xlink:href="#radial-gradient-10"/><radialGradient id="radial-gradient-24" cx="103.37" cy="118.11" r="17.4" xlink:href="#radial-gradient-2"/><radialGradient id="radial-gradient-25" cx="107.12" cy="112.11" r="15.27" xlink:href="#radial-gradient-2"/><radialGradient id="radial-gradient-26" cx="141.75" cy="111.06" r="35.82" xlink:href="#radial-gradient"/><radialGradient id="radial-gradient-27" cx="141.75" cy="111.06" r="35.82" xlink:href="#radial-gradient-2"/><radialGradient id="radial-gradient-28" cx="136.2" cy="74.95" r="70.73" xlink:href="#radial-gradient"/><radialGradient id="radial-gradient-29" cx="136.2" cy="74.95" r="70.73" xlink:href="#radial-gradient"/><radialGradient id="radial-gradient-30" cx="136.2" cy="74.95" r="70.73" xlink:href="#radial-gradient"/><radialGradient id="radial-gradient-31" cx="136.2" cy="74.95" r="70.73" xlink:href="#radial-gradient"/><radialGradient id="Áåçûìÿííûé_ãðàäèåíò_236-6" cx="187.12" cy="121.36" r="49.88" xlink:href="#Áåçûìÿííûé_ãðàäèåíò_236"/><radialGradient id="radial-gradient-32" cx="187.12" cy="121.36" r="49.88" xlink:href="#radial-gradient-10"/><radialGradient id="Áåçûìÿííûé_ãðàäèåíò_236-7" cx="51.27" cy="79.51" r="18.05" xlink:href="#Áåçûìÿííûé_ãðàäèåíò_236"/><radialGradient id="radial-gradient-33" cx="51.27" cy="79.51" r="18.05" xlink:href="#radial-gradient-10"/><radialGradient id="Áåçûìÿííûé_ãðàäèåíò_236-8" cx="97.06" cy="99.85" r="33.29" xlink:href="#Áåçûìÿííûé_ãðàäèåíò_236"/><radialGradient id="radial-gradient-34" cx="97.06" cy="99.85" r="33.29" xlink:href="#radial-gradient-10"/><radialGradient id="radial-gradient-35" cx="105.78" cy="38.19" r="51.02" xlink:href="#radial-gradient"/><radialGradient id="radial-gradient-36" cx="105.79" cy="38.19" r="51.01" xlink:href="#radial-gradient-2"/><radialGradient id="radial-gradient-37" cx="174.53" cy="86.02" r="90.31" gradientTransform="matrix(-0.4, -0.92, 0.48, -0.21, 133.94, 210.12)" xlink:href="#radial-gradient-2"/><radialGradient id="radial-gradient-38" cx="151.83" cy="105.53" r="90.3" gradientTransform="translate(174.57 177.22) rotate(-132.29) scale(1 0.52)" xlink:href="#radial-gradient-2"/><radialGradient id="radial-gradient-39" cx="54.2" cy="25.11" r="86.13" gradientTransform="translate(7.06 -4.68) rotate(18.7) scale(1 0.52)" gradientUnits="userSpaceOnUse"><stop offset="0" stop-color="#8ee1ee"/><stop offset="0.62" stop-color="#5e8dec"/><stop offset="0.63" stop-color="#5f89e8"/><stop offset="0.74" stop-color="#6b64c7"/><stop offset="0.84" stop-color="#714eb3"/><stop offset="0.9" stop-color="#7446ac"/></radialGradient><radialGradient id="radial-gradient-40" cx="56.9" cy="28.44" r="71.98" gradientTransform="translate(7.76 -3.87) rotate(18.7) scale(1 0.52)" xlink:href="#radial-gradient-39"/><radialGradient id="radial-gradient-41" cx="93.88" cy="29.03" r="118.57" gradientTransform="translate(31.98 -44.77) rotate(44.16) scale(1 0.52)" xlink:href="#radial-gradient-39"/><radialGradient id="radial-gradient-42" cx="91.78" cy="26.33" r="118.56" gradientTransform="translate(4.39 -11.12) rotate(25.46) scale(1 0.52)" xlink:href="#radial-gradient-39"/><radialGradient id="Áåçûìÿííûé_ãðàäèåíò_236-9" cx="142.62" cy="43.11" r="9.13" xlink:href="#Áåçûìÿííûé_ãðàäèåíò_236"/><radialGradient id="radial-gradient-43" cx="142.73" cy="43.24" r="5.6" xlink:href="#radial-gradient-10"/><radialGradient id="Áåçûìÿííûé_ãðàäèåíò_236-10" cx="141.37" cy="98.86" r="9.13" xlink:href="#Áåçûìÿííûé_ãðàäèåíò_236"/><radialGradient id="radial-gradient-44" cx="142.12" cy="99.36" r="5.65" xlink:href="#radial-gradient-10"/><radialGradient id="radial-gradient-45" cx="155.24" cy="67.69" r="31.39" xlink:href="#radial-gradient"/><radialGradient id="radial-gradient-46" cx="155.24" cy="67.7" r="31.39" xlink:href="#radial-gradient-2"/><radialGradient id="radial-gradient-47" cx="155.24" cy="67.7" r="31.39" xlink:href="#radial-gradient-2"/><radialGradient id="radial-gradient-48" cx="155.24" cy="67.69" r="31.39" xlink:href="#radial-gradient-2"/><radialGradient id="radial-gradient-49" cx="172.99" cy="119.98" r="46.87" xlink:href="#radial-gradient"/><radialGradient id="radial-gradient-50" cx="172.99" cy="119.99" r="46.89" xlink:href="#radial-gradient"/><radialGradient id="radial-gradient-51" cx="173" cy="119.99" r="46.89" xlink:href="#radial-gradient"/><radialGradient id="radial-gradient-52" cx="172.99" cy="119.99" r="46.88" xlink:href="#radial-gradient"/><radialGradient id="radial-gradient-53" cx="172.99" cy="119.99" r="46.88" xlink:href="#radial-gradient"/><radialGradient id="radial-gradient-54" cx="172.99" cy="119.99" r="46.88" xlink:href="#radial-gradient"/><radialGradient id="radial-gradient-55" cx="173" cy="119.99" r="46.88" xlink:href="#radial-gradient"/><radialGradient id="radial-gradient-56" cx="172.99" cy="119.99" r="46.88" xlink:href="#radial-gradient"/><radialGradient id="radial-gradient-57" cx="35.01" cy="18.4" r="75.06" gradientTransform="translate(3.49 -1.58) rotate(3.74)" xlink:href="#radial-gradient-39"/><radialGradient id="radial-gradient-58" cx="33.89" cy="18.4" r="75.35" gradientTransform="translate(3.49 -1.58) rotate(3.74)" xlink:href="#radial-gradient-39"/><radialGradient id="radial-gradient-59" cx="3.31" cy="20.8" r="50.45" gradientTransform="translate(3.49 -1.58) rotate(3.74)" gradientUnits="userSpaceOnUse"><stop offset="0" stop-color="#ffff29"/><stop offset="0.89" stop-color="#ff7e59"/><stop offset="1" stop-color="#ffff29"/></radialGradient><radialGradient id="radial-gradient-60" cx="3.31" cy="20.8" r="50.45" xlink:href="#radial-gradient-59"/><radialGradient id="radial-gradient-61" cx="3.31" cy="20.8" r="50.44" xlink:href="#radial-gradient-59"/></defs><title>float_astronaut.module_1</title><g class="cls-1"><g id="Calque_2" data-name="Calque 2"><g id="OBJECTS"><path class="cls-2" d="M125.87,75.11s22.33-3.66,26.33,8.34-3.67,57.33-12,64.33-29,3.33-33.33-6S104.54,72.78,125.87,75.11Z"/><path class="cls-3" d="M121.14,77.9c1.5,1.47,3,2.95,4.63,4.31.39.32,2.86,2.19,2.58,2l1.17.83c1.78,1.21,3.58,2.39,5.44,3.48,3.3,1.92,6.68,3.72,10.15,5.3.34.1,4.81,1.94,5.63,2.22l2.47.85c.24-5.75-.05-10.58-1-13.46-4-12-26.33-8.34-26.33-8.34a10.19,10.19,0,0,0-6.2,1.25C120.16,76.88,120.64,77.39,121.14,77.9Z"/><path class="cls-4" d="M125.1,127.74a122.78,122.78,0,0,1-19.76-11.62c-.82,11.67-.09,22.17,1.53,25.66,4.33,9.33,25,13,33.33,6,2.16-1.82,4.28-6.22,6.16-11.94A157.62,157.62,0,0,1,125.1,127.74Z"/><path class="cls-5" d="M121.51,114.31c4-14.91,12.31-29.28,26-36.6-7.84-4.86-21.63-2.6-21.63-2.6-21.33-2.33-23.33,57.34-19,66.67,2.11,4.54,8.09,7.74,14.63,9C118.86,138.76,118.32,126.15,121.51,114.31Z"/><path class="cls-6" d="M92.87,79.61s-7,10-18,8.5-19-11-19-11,3-3.5-3-9-12.5-3.5-12.5,2.5c0,0-5.5.5-4.5,11s12.5,9.5,17,5.5c0,0,9.5,22,30.5,20s17.5-14.5,18-18S99.37,80.61,92.87,79.61Z"/><path class="cls-7" d="M54.22,80.13a6.68,6.68,0,0,1,2-7.41,12,12,0,0,0-3.38-4.61c-6-5.5-12.5-3.5-12.5,2.5,0,0-5.5.5-4.5,11s12.5,9.5,17,5.5c0,0,9.5,22,30.5,20s17.5-14.5,18-18a6.6,6.6,0,0,0,0-1.93C86.33,98.43,60.77,101.53,54.22,80.13Z"/><path class="cls-8" d="M95.91,91.85a24,24,0,0,0-2.24-4.57c-.37-.59-.73-1-1-1.38s-.38-.52-.38-.52l-.41-.48c-.27-.3-.62-.77-1.12-1.25-.25-.27-.54-.56-.85-.85l-.41.37q.47.45.84.87c.48.48.81.95,1.07,1.25l.39.48s.15.17.38.49.59.77,1,1.34A24.16,24.16,0,0,1,95.49,92a20,20,0,0,1,1.2,4.83c.15,1.36.11,2.28.18,2.28a2.64,2.64,0,0,0,.06-.63,10.17,10.17,0,0,0,0-1.67A18.41,18.41,0,0,0,95.91,91.85Z"/><path class="cls-9" d="M68.17,100.92a19.35,19.35,0,0,0,1.51-2.12l.54-.89c.14-.28.26-.52.35-.72l.31-.63a5.12,5.12,0,0,0,.24-.66,13.42,13.42,0,0,0,.54-1.77,20.79,20.79,0,0,0,.59-5.53c0-.34,0-.68,0-1l-.41-.11c0,.38,0,.76,0,1.14A21.35,21.35,0,0,1,71.1,94a13.48,13.48,0,0,1-.55,1.69,5.6,5.6,0,0,1-.25.63l-.28.62-.33.7-.5.87a23,23,0,0,1-1.42,2.1c-.57.68-1.17,1.41-1.84,2.08l.39.25C67,102.28,67.6,101.58,68.17,100.92Z"/><path class="cls-10" d="M79.19,88.41a54.75,54.75,0,0,1,1.74,5.4,18.12,18.12,0,0,1,.4,1.81c.09.44.13.7.13.7a5.34,5.34,0,0,1,.1.69,15.58,15.58,0,0,1,.18,1.84,14.1,14.1,0,0,1-.81,5.5,11.93,11.93,0,0,1-1.42,2.86h.42a12.29,12.29,0,0,0,1.42-2.72,14.31,14.31,0,0,0,1-5.67,14.17,14.17,0,0,0-.14-1.9c0-.46-.09-.72-.09-.72s0-.25-.15-.7a17.77,17.77,0,0,0-.44-1.85,51.74,51.74,0,0,0-1.89-5.41s0-.11-.07-.17l-.44.06C79.12,88.23,79.15,88.32,79.19,88.41Z"/><path class="cls-11" d="M101.73,121.61c.17,1.29.4,2.57.68,3.84A19.51,19.51,0,0,1,108.6,127c7.3,3.31,9.85,11.69,10.77,16.09a33.38,33.38,0,0,0,2.9-7.42C119.87,130.46,114.23,122.63,101.73,121.61Z"/><path class="cls-12" d="M117.87,78.11l-22,3.5s-2.5,15-6,20-24.5-5-39,7-14,23-14,23-9.5-9.5-16-7.5,1,14,2,16.5,11,11.5,15.5,10,26.5-13,26.5-13,2,6.5,7,9.5c0,0-.22,4-.22,8.17a33,33,0,0,1,12.26,5.06,43.21,43.21,0,0,1,8.32,8,43.36,43.36,0,0,1,2.21-4c2.5-3.92,4.59-7.35,8.59-10s9-3.49,12.69-6.67c4.68-4,6.08-10.14,7.65-16C133.87,92.11,117.87,78.11,117.87,78.11Z"/><path class="cls-13" d="M117.87,78.11l-22,3.5s-.59,3.5-1.58,7.68c7.47-1,14.84,4.67,17.1,13.06,2.46,9.15-2.32,18.31-9.58,23.86a13.74,13.74,0,0,1,1.45,1c2.74,2.24,3.73,6.87,2.45,10.12-3.13,8-12.69,17-21.91,14.32a11.88,11.88,0,0,1-8.59-9.87,8.18,8.18,0,0,1-.61-3.74c.3-4.14,2.49-6.88,5.67-9.3.23-.17.48-.32.71-.48a19.31,19.31,0,0,1-5,.1c-6.44-.84-10.82-5-9.8-11.85.74-5,5.71-9,10.24-10.44a7.05,7.05,0,0,1,4-2.63,5.19,5.19,0,0,0,1.11-.47c-4.79-.33-11-1.09-17.3-.15a11.56,11.56,0,0,1,.16,7c-1.41,8.44-11.11,15.91-19.4,14A10.37,10.37,0,0,1,40.17,121c-3.5,6.24-3.3,10.62-3.3,10.62s-9.5-9.5-16-7.5,1,14,2,16.5,11,11.5,15.5,10,26.5-13,26.5-13,2,6.5,7,9.5c0,0-.22,4-.22,8.17a33,33,0,0,1,12.26,5.06,43.21,43.21,0,0,1,8.32,8,43.36,43.36,0,0,1,2.21-4c2.5-3.92,4.59-7.35,8.59-10s9-3.49,12.69-6.67c4.68-4,6.08-10.14,7.65-16C133.87,92.11,117.87,78.11,117.87,78.11Z"/><path class="cls-14" d="M91.12,100.61a2,2,0,0,1-.21.24c-.16.14-.36.37-.66.61a12.9,12.9,0,0,1-2.7,1.74c-2.37,1.22-5.87,2-9.18,3.07a33.34,33.34,0,0,0-8.43,4.54,14,14,0,0,0-1.36,1.13c-.39.36-.75.66-1,.92l-.79.9-.79.89c-.22.31-.46.7-.76,1.14a9.56,9.56,0,0,0-.91,1.51c-.27.59-.57,1.23-.89,1.9s-.44,1.47-.67,2.26-.35,1.61-.53,2.45-.13,1.72-.13,2.59A29.06,29.06,0,0,0,64,135.87c.51,1.21.93,2.23,1.31,2.9l.4.8a1.77,1.77,0,0,1,.12.29s-.07-.08-.18-.26l-.45-.77A24.68,24.68,0,0,1,63.82,136a28.6,28.6,0,0,1-2.17-9.45c0-.89,0-1.79.1-2.66s.26-1.73.5-2.53.46-1.57.67-2.31.61-1.36.89-2a10,10,0,0,1,.92-1.58c.3-.46.55-.87.78-1.18l.8-.93.82-.92c.28-.27.65-.57,1.06-.93a12.67,12.67,0,0,1,1.41-1.16,33.26,33.26,0,0,1,8.63-4.49c1.68-.55,3.4-1,5-1.4A28.52,28.52,0,0,0,87.45,103a14.45,14.45,0,0,0,2.72-1.62C90.77,100.89,91.1,100.59,91.12,100.61Z"/><path class="cls-14" d="M117.87,139.61a1.27,1.27,0,0,1-.14-.33c-.08-.22-.19-.55-.34-1A24.49,24.49,0,0,0,116,135a16.72,16.72,0,0,0-7.58-7.57,17.52,17.52,0,0,0-5.56-1.6l-.68-.1-.68,0-1.31-.07c-.85,0-1.66,0-2.4.08l-2,.22-1.55.27c-.86.14-1.34.27-1.34.27l-1.33.31a11,11,0,0,0-1.49.44c-.58.18-1.21.45-1.9.72a37.65,37.65,0,0,0-4.57,2.26,33.07,33.07,0,0,0-4.8,3.33,27.92,27.92,0,0,0-2.2,2,25,25,0,0,0-1.85,2.19A20.29,20.29,0,0,0,73.29,140c-.2.37-.34.77-.51,1.13a6.28,6.28,0,0,0-.4,1.09,14.37,14.37,0,0,0-.51,4.92,1.68,1.68,0,0,1-.06-.35l-.1-1a8,8,0,0,1,.05-1.59,9.87,9.87,0,0,1,.39-2,5.7,5.7,0,0,1,.38-1.12c.16-.37.3-.78.49-1.17a20.33,20.33,0,0,1,1.43-2.33,23.79,23.79,0,0,1,1.85-2.26,28.5,28.5,0,0,1,2.19-2.06,32.59,32.59,0,0,1,4.83-3.43,36.58,36.58,0,0,1,4.6-2.35c.71-.29,1.34-.57,1.94-.76a11.92,11.92,0,0,1,1.52-.47c.87-.2,1.36-.33,1.36-.33s.49-.12,1.36-.26l1.58-.25,2.06-.21c.76,0,1.58,0,2.45-.05l1.34.08.69,0,.7.11A17.84,17.84,0,0,1,108.6,127a16.81,16.81,0,0,1,7.61,7.86,21.67,21.67,0,0,1,1.3,3.4c.12.42.22.75.28,1A1.9,1.9,0,0,1,117.87,139.61Z"/><path class="cls-15" d="M59.85,106.87a19.68,19.68,0,0,1,2,3.42,12.5,12.5,0,0,1,.82,2.59,8.45,8.45,0,0,0,.22,1.23,3.84,3.84,0,0,0,0-1.27,11.06,11.06,0,0,0-.65-2.72,18.28,18.28,0,0,0-1.88-3.6s-.76-1.07-1.77-2.25c-.17.06-.34.11-.51.18C59.08,105.72,59.85,106.87,59.85,106.87Z"/><path class="cls-16" d="M61.89,135.33a73.57,73.57,0,0,0-2.09-7.61c-.31-1-.69-1.86-.9-2.45l-.36-.92s-.14-.33-.42-.9-.63-1.4-1.18-2.33a31.1,31.1,0,0,0-4.67-6.39,24.37,24.37,0,0,0-4.45-3.4c-.08.08-.16.15-.23.23A24.46,24.46,0,0,1,52,115a30.7,30.7,0,0,1,4.48,6.35c.53.93.85,1.76,1.13,2.32s.4.88.4.88.13.33.37.91.6,1.39.92,2.41a76.93,76.93,0,0,1,2.21,7.52c.29,1.19.55,2.39.8,3.54l.34-.18C62.38,137.67,62.15,136.5,61.89,135.33Z"/><path class="cls-17" d="M103.93,146.18a32.94,32.94,0,0,0-2.31-3.21c-.8-1-1.6-1.85-2.27-2.6l-1.73-1.72A8.67,8.67,0,0,0,97,138l-.7-.61c-.45-.38-1.07-.94-1.87-1.57A20.76,20.76,0,0,0,88,132.18c-2.55-.91-5.17-1.47-7-2.24-.21-.07-.41-.15-.6-.23l-.18.17a7.1,7.1,0,0,0,.69.28c1.84.85,4.47,1.49,7,2.44A20.35,20.35,0,0,1,94,136.29c.78.62,1.39,1.2,1.83,1.58l.68.61a6.4,6.4,0,0,1,.68.62l1.74,1.67c.67.73,1.48,1.58,2.28,2.53a36.23,36.23,0,0,1,2.34,3.12,28.25,28.25,0,0,1,3.12,6l.25-.11A27.91,27.91,0,0,0,103.93,146.18Z"/><path class="cls-18" d="M95.71,154.44a44.49,44.49,0,0,0-5.77-3.94c-1.67-.95-2.84-1.47-2.84-1.47l-.81-.33c-.51-.22-1.26-.5-2.18-.79a19,19,0,0,0-7-.94,14.1,14.1,0,0,0-3.68.81,15.46,15.46,0,0,0-1.68.83c0,.1,0,.23,0,.34a16.12,16.12,0,0,1,1.82-.84,13.93,13.93,0,0,1,3.59-.69,18.69,18.69,0,0,1,6.74,1c.89.3,1.62.58,2.12.8l.79.35s1.16.49,2.81,1.39a46.67,46.67,0,0,1,5.79,3.79c1.3,1,2.52,2,3.6,3l.21-.24A46.76,46.76,0,0,0,95.71,154.44Z"/><path class="cls-19" d="M113.91,140a38.78,38.78,0,0,0-2.59-5.87c-.4-.78-.82-1.38-1.07-1.82l-.42-.69-.47-.65c-.31-.41-.7-1-1.26-1.7a38.2,38.2,0,0,0-4.39-4.68c-.26-.23-.53-.44-.8-.66l-.59,0c.37.31.74.63,1.09,1a38.86,38.86,0,0,1,4.23,4.7c.54.68.92,1.29,1.21,1.7l.46.65.42.67c.25.43.68,1,1.08,1.78a38.14,38.14,0,0,1,2.68,5.72,31.08,31.08,0,0,1,1.56,6.14,15.72,15.72,0,0,1,.19,1.76l.15-.11a10.6,10.6,0,0,0-.1-1.68A29.32,29.32,0,0,0,113.91,140Z"/><path class="cls-20" d="M65.59,139.43c.09.15.19.29.28.43s-.4-.77-.94-2.06C65,138.08,65.24,138.66,65.59,139.43Z"/><path class="cls-21" d="M73.82,102.46c-6.21,2.91-12.62,8-14.28,15.65-2.34,10.67,2,15.88,4.89,19.73l.42-.22c-2.07-5-6-17.31,1.46-24.27s17.14-7.26,21.25-10.45C84.6,103.52,79.59,102.7,73.82,102.46Z"/><path class="cls-22" d="M63.82,116.56c-.74,0-1.47-.06-2.2-.11a13.29,13.29,0,0,1-1.56-.19,16.92,16.92,0,0,0-.52,1.85c-2.34,10.67,2,15.88,4.89,19.73l.42-.22C63.07,133.3,59.92,123.61,63.82,116.56Z"/><path class="cls-23" d="M122.27,135.69c-3-6.44-10.83-16.84-30.4-13.58s-22.71,15.82-23,22.5a12.92,12.92,0,0,0,3,2.5l0,.41c.82-3.54,2.81-10.29,6.64-14.34,5.38-5.68,20.38-10.57,30.11-6.16,7.3,3.31,9.85,11.69,10.77,16.09A33.38,33.38,0,0,0,122.27,135.69Z"/><path class="cls-24" d="M77.94,133.8q-.72-2.7-1.23-5.43a21.64,21.64,0,0,0-7.81,16.24,12.92,12.92,0,0,0,3,2.5l0,.41C72.63,144.15,74.47,137.89,77.94,133.8Z"/><path class="cls-25" d="M38.37,150.61c2.55-.85,10.74-4.92,17.35-8.28a28.7,28.7,0,0,0-3.52-11.22c-2.61-4.56-7.45-8.17-11.72-10.67-3.82,6.54-3.61,11.17-3.61,11.17s-9.5-9.5-16-7.5,1,14,2,16.5S33.87,152.11,38.37,150.61Z"/><path class="cls-26" d="M21.89,138.6c.45.88.81,1.59,1,2,1,2.5,11,11.5,15.5,10,2.55-.85,10.74-4.92,17.35-8.28a29.72,29.72,0,0,0-2.35-8.89C43.53,138.74,32.37,141.48,21.89,138.6Z"/><path class="cls-27" d="M28.54,134.11c-4.49-5-8-5.9-10.28-5.67.23,4.35,3.93,10.47,4.61,12.17.82,2,7.68,8.46,12.6,9.88C40.42,149,35.49,141.93,28.54,134.11Z"/><path class="cls-28" d="M39.87,137.11c-.06,0-.38-.71-1-1.75a23.89,23.89,0,0,0-2.59-3.56,24.94,24.94,0,0,0-3.18-3c-.45-.39-.87-.66-1.15-.87l-.45-.32s-.15-.12-.45-.31-.7-.47-1.22-.77a19.84,19.84,0,0,0-4-1.79,14.41,14.41,0,0,0-4.32-.69,11,11,0,0,0-1.45.08,1.8,1.8,0,0,1-.55,0,1.75,1.75,0,0,1,.54-.13,6.64,6.64,0,0,1,1.46-.2,13.44,13.44,0,0,1,4.44.5A19.58,19.58,0,0,1,30.13,126c.54.29,1,.58,1.27.76s.47.31.47.31l.45.34a14.08,14.08,0,0,1,1.16.92,25.64,25.64,0,0,1,3.15,3.18,22,22,0,0,1,2.46,3.73,11.74,11.74,0,0,1,.6,1.34A2.09,2.09,0,0,1,39.87,137.11Z"/><path class="cls-28" d="M52.54,143.28c-.06,0-.12-.77-.34-1.88a19.15,19.15,0,0,0-1.26-4,24.71,24.71,0,0,0-2-3.63c-.65-.93-1.12-1.53-1.12-1.53s-.46-.6-1.19-1.48-1.78-2-2.88-3-2.28-2-3.18-2.74A14.65,14.65,0,0,1,39,123.78a1.52,1.52,0,0,1,.46.25c.29.18.7.43,1.16.77A38.94,38.94,0,0,1,44,127.42a37.34,37.34,0,0,1,3,3c.77.87,1.25,1.48,1.25,1.48s.46.62,1.1,1.6a23.73,23.73,0,0,1,2,3.77,17.77,17.77,0,0,1,1.1,4.1,12.11,12.11,0,0,1,.1,1.4A2,2,0,0,1,52.54,143.28Z"/><path class="cls-29" d="M84.32,180.39c1.92-2.07,7.41-9.95,11.8-16.38a30.32,30.32,0,0,0-8.89-8.55c-4.71-2.89-11-3.76-16.18-3.91-.22,7.94,2.31,12.1,2.31,12.1s-13.54-4-18.51,1.16S62.83,177.2,65,179,80.93,184,84.32,180.39Z"/><path class="cls-30" d="M63.09,177.64c.86.58,1.55,1.05,1.92,1.36,2.18,1.8,15.92,5,19.31,1.39,1.92-2.07,7.41-9.95,11.8-16.38a30.63,30.63,0,0,0-6.65-7C83.09,166.85,74.19,175,63.09,177.64Z"/><path class="cls-31" d="M67,170.16c-6.68-2.39-10.37-1.39-12.33,0C57,174,63.52,177.77,65,179c1.78,1.47,11.33,3.91,16.58,2.74C85.39,177.87,77.29,173.85,67,170.16Z"/><path class="cls-28" d="M78.9,167.2a20.45,20.45,0,0,1-1.8-1.11,24.84,24.84,0,0,0-4.18-2,28,28,0,0,0-4.45-1.18c-.61-.14-1.14-.16-1.5-.22l-.57-.07-.57-.06c-.37,0-.89-.08-1.52-.09a21.24,21.24,0,0,0-4.57.35,15.32,15.32,0,0,0-4.32,1.55,9.76,9.76,0,0,0-1.29.8,3.18,3.18,0,0,1-.51.3s.14-.16.43-.4a7.08,7.08,0,0,1,1.24-.92,14.2,14.2,0,0,1,4.35-1.78,21.37,21.37,0,0,1,4.69-.51c.64,0,1.17.05,1.55.06s.59.05.59.05l.58.08c.37.07.91.11,1.53.26a27.07,27.07,0,0,1,4.51,1.35,22.09,22.09,0,0,1,4.15,2.19,13.49,13.49,0,0,1,1.23.94A2.76,2.76,0,0,1,78.9,167.2Z"/><path class="cls-28" d="M93.67,166.5c-.06,0-.5-.65-1.26-1.57a20.09,20.09,0,0,0-3.16-3,25.9,25.9,0,0,0-3.72-2.31c-1.07-.53-1.8-.85-1.8-.85s-.73-.32-1.85-.76a41.7,41.7,0,0,0-4.18-1.34c-1.55-.4-3.12-.73-4.31-.93a17.09,17.09,0,0,1-2-.37,2.16,2.16,0,0,1,.55,0c.35,0,.86,0,1.46.13a39.71,39.71,0,0,1,4.39.72,38.83,38.83,0,0,1,4.28,1.23c1.15.41,1.9.73,1.9.73s.74.34,1.82.92a24.62,24.62,0,0,1,3.73,2.47,19,19,0,0,1,3.08,3.23,13.39,13.39,0,0,1,.8,1.23A2.27,2.27,0,0,1,93.67,166.5Z"/><g class="cls-32"><path class="cls-33" d="M122.87,133.11a6.11,6.11,0,0,1-.72-.8l-1.8-2.2c-1.44-1.86-3.54-4.17-5.6-6.52-1.06-1.14-2.2-2.22-3.22-3.27L110,118.83l-1.43-1.24L105.67,115a2.08,2.08,0,0,0-.22-.18l-.63-.47-2.27-1.69L101,111.57c-.55-.39-1.17-.73-1.79-1.12-1.25-.74-2.56-1.6-3.93-2.35a72,72,0,0,0-7.82-3.53l-2.64-1a6.26,6.26,0,0,1-1-.43,9,9,0,0,1,1,.31l2.69.92a67.17,67.17,0,0,1,7.94,3.37c1.39.72,2.72,1.57,4,2.3.63.39,1.26.72,1.82,1.1l1.54,1.12,2.3,1.68.65.47a1.57,1.57,0,0,1,.22.17l2.94,2.61,1.42,1.27L111.9,120c1,1.07,2.13,2.17,3.17,3.35,2,2.39,4.09,4.76,5.47,6.66l1.71,2.27A7.35,7.35,0,0,1,122.87,133.11Z"/><path class="cls-34" d="M124.37,125.11a5.14,5.14,0,0,1-.61-.73l-1.5-2c-1.17-1.71-3-3.74-4.82-5.82-.93-1-2-1.92-2.87-2.83l-1.33-1.29-1.3-1-2.66-2.15s-.28-.21-.77-.54l-2.05-1.41-1.37-.94c-.49-.33-1-.61-1.6-.93-1.12-.63-2.3-1.33-3.52-2-2.49-1.15-5-2.38-6.91-3l-2.32-.92a5.65,5.65,0,0,1-.87-.39,6.32,6.32,0,0,1,.91.27l2.36.81c2,.61,4.49,1.78,7,2.88,1.23.62,2.44,1.31,3.58,1.92.56.32,1.13.58,1.63.91l1.4.93,2.09,1.39.78.53,2.67,2.22,1.29,1.07c.42.42.86.87,1.32,1.32.9.94,1.92,1.88,2.83,2.91a65.9,65.9,0,0,1,4.69,6l1.42,2.06A6.18,6.18,0,0,1,124.37,125.11Z"/></g><path class="cls-35" d="M109.87,97.11s8,34.5,40,39c0,0,3,10.5,8,8.5s0-5.5,0-5.5,14,0,17-6.5c4.51-9.77-14.16-5.55-17.61-6.06-10.92-1.59-21.24-16.8-24.39-25.94-5-14.5-12-19-18.5-17S109.87,97.11,109.87,97.11Z"/><path class="cls-36" d="M159.06,126.56c1.27,5.32-4.74,12-11.35,8.77-10.45-5.12-19.11-14.8-25.09-24.6-5-8.2-8.75-17.33-9-26.84-5.62,2.61-3.78,13.22-3.78,13.22s8,34.5,40,39c0,0,3,10.5,8,8.5s0-5.5,0-5.5,14,0,17-6.5C178.84,124,164.81,126.26,159.06,126.56Z"/><path class="cls-37" d="M118,113.57l.31-1.25a8.66,8.66,0,0,1,.44-1.3,9.2,9.2,0,0,1,.55-1.3,22.07,22.07,0,0,1,2.83-4.39c.46-.55.87-1,1.14-1.3a5.1,5.1,0,0,1,.45-.48l.46-.47c.3-.28.69-.74,1.23-1.2a34.67,34.67,0,0,1,4.12-3.26c.69-.45,1.39-.88,2.07-1.28,0-.11-.09-.22-.13-.34-.72.38-1.45.8-2.18,1.25a32.72,32.72,0,0,0-4.26,3.2c-.57.46-1,.91-1.29,1.2l-.48.47s-.17.17-.44.5-.69.78-1.14,1.35a22.24,22.24,0,0,0-2.78,4.56,9.81,9.81,0,0,0-.53,1.36,7.43,7.43,0,0,0-.4,1.35c-.09.44-.18.88-.26,1.29s0,.74-.07,1.08l.21.34a1.81,1.81,0,0,1,0-.23C118,114.36,118,114,118,113.57Z"/><path class="cls-38" d="M127.43,114.21l.35-.45.37-.43c.25-.28.56-.69,1-1.13a27.71,27.71,0,0,1,3.47-3c1.08-.79,2.19-1.5,3.16-2.08l-.13-.25a31.61,31.61,0,0,0-3.28,2,26.32,26.32,0,0,0-3.63,3c-.48.43-.81.85-1.07,1.12l-.39.44s-.14.17-.36.47-.57.72-.89,1.28a18.4,18.4,0,0,0-2,4.26,16.56,16.56,0,0,0-.6,2.73l.29.31a17.11,17.11,0,0,1,.73-2.9,18.65,18.65,0,0,1,2.07-4.08C126.86,114.89,127.22,114.51,127.43,114.21Z"/><path class="cls-39" d="M134,126.32a24.34,24.34,0,0,1,1.24-4.13c.2-.55.45-1,.59-1.29l.24-.48s.35-.69,1-1.69a16,16,0,0,1,2.82-3.22c.32-.26.66-.51,1-.75l-.24-.31a11.91,11.91,0,0,0-1,.72,15.67,15.67,0,0,0-3,3.24c-.67,1-1.05,1.72-1.05,1.72l-.23.51a13.42,13.42,0,0,0-.57,1.34,23,23,0,0,0-1.15,4.26,26.34,26.34,0,0,0-.32,3.94l.26.16A29.71,29.71,0,0,1,134,126.32Z"/><path class="cls-40" d="M111.92,103.36c.16-.79.36-1.61.59-2.43a24.07,24.07,0,0,1,2.11-4.87,15.45,15.45,0,0,1,.95-1.47l.37-.55.42-.51a11.71,11.71,0,0,1,1.14-1.31,14,14,0,0,1,4.28-3,12.9,12.9,0,0,1,4.54-1.08l-.23-.28a12.75,12.75,0,0,0-4.49,1,14.53,14.53,0,0,0-4.51,3,13.49,13.49,0,0,0-1.21,1.33l-.44.53-.38.57a14.73,14.73,0,0,0-.94,1.53,24.53,24.53,0,0,0-2,5c-.16.64-.29,1.27-.41,1.9C111.75,102.92,111.84,103.14,111.92,103.36Z"/><path class="cls-41" d="M174.87,132.61c4.51-9.77-14.16-5.55-17.61-6.06-4.56-.66-9-3.7-12.87-7.67-3.18,2-7,6-6.61,13.73a43.79,43.79,0,0,0,12.09,3.5s3,10.39,8,8.5c4-1.5,0-5.5,0-5.5S171.87,139.11,174.87,132.61Z"/><path class="cls-42" d="M157.87,139.11h1.2l.28,0h.13l.31,0h.13l.36,0h.13l.4,0h.13l.42,0,.14,0,.46,0h.12l.51-.07h.07a33.54,33.54,0,0,0,4.62-.94h0l.61-.18.1,0,.56-.19.13,0,.53-.2.16-.06.5-.21.17-.07.47-.22.17-.09.45-.24.18-.09.42-.25.17-.11.4-.27.16-.12.38-.29L173,135l.35-.32.12-.11.34-.36.07-.09.34-.41h0a35.41,35.41,0,0,1-8.62,1.14c-10.13,0-18.62-4.22-26.07-10.86-.15.27-.28.54-.42.83l0,.05c-.12.27-.24.54-.34.83a.78.78,0,0,0-.05.14c-.1.26-.19.53-.28.81l-.06.25c-.08.25-.14.51-.2.78,0,.12,0,.25-.08.37s-.09.48-.13.73,0,.36-.07.53,0,.44-.07.66,0,.5,0,.74,0,.35,0,.54c0,.44,0,.89,0,1.36a43.79,43.79,0,0,0,12.09,3.5s.19.66.54,1.61l0,.06c0,.1.07.19.11.3,1.15,2.91,3.7,7.89,7.32,6.53C161.87,143.11,157.87,139.11,157.87,139.11Z"/><path class="cls-28" d="M155.62,135.36a3.07,3.07,0,0,1,.41.41c.25.26.59.66,1,1.15a16.7,16.7,0,0,1,2.44,3.93,3.57,3.57,0,0,1,.23,2.57,2.42,2.42,0,0,1-1.85,1.36,4,4,0,0,1-.89.14,4.17,4.17,0,0,1-.68,0h-.59a3.93,3.93,0,0,1-.6-.07,3.33,3.33,0,0,1-1.5-.63,8.49,8.49,0,0,1-2.61-3.88c-.62-1.56-1.1-3.16-1.55-4.33s-.83-1.89-.79-1.92a1.93,1.93,0,0,1,.33.47,12.82,12.82,0,0,1,.69,1.36c.52,1.15,1.07,2.73,1.73,4.25a8.23,8.23,0,0,0,2.52,3.58,2.87,2.87,0,0,0,1.28.49,1.89,1.89,0,0,0,.53.05l.56,0a3.6,3.6,0,0,0,.64,0,3.36,3.36,0,0,0,.8-.1,1.91,1.91,0,0,0,1.5-1A3.13,3.13,0,0,0,159,141a17.9,17.9,0,0,0-2.22-3.94A19.74,19.74,0,0,1,155.62,135.36Z"/><path class="cls-28" d="M172.87,135.61c-.06,0-.05-.5-.33-1.15a2.77,2.77,0,0,0-1.93-1.48,9,9,0,0,0-2.59-.23c-.72,0-1.19.08-1.19.08s-.49,0-1.21.1-1.68.22-2.63.38a24.65,24.65,0,0,1-3.87.55,6.94,6.94,0,0,1,1.17-.34c.71-.19,1.65-.43,2.61-.65s1.92-.4,2.65-.51,1.22-.15,1.22-.15a12.14,12.14,0,0,1,1.24,0,9.16,9.16,0,0,1,2.73.38,4.1,4.1,0,0,1,1.31.73,2.53,2.53,0,0,1,.72,1.1,2.33,2.33,0,0,1,.14.89C172.9,135.49,172.89,135.61,172.87,135.61Z"/><path class="cls-28" d="M175.37,131.86a10.53,10.53,0,0,0-.47-1.19,3.77,3.77,0,0,0-2.16-1.59,10.05,10.05,0,0,0-2.76-.39,11.46,11.46,0,0,0-1.28,0s-.52,0-1.29.07a25.78,25.78,0,0,0-2.81.41,22.7,22.7,0,0,0-2.76.72c-.74.24-1.2.48-1.22.44a3.5,3.5,0,0,1,1.14-.66,17.1,17.1,0,0,1,2.74-.93,22.69,22.69,0,0,1,2.85-.55c.79-.11,1.32-.13,1.32-.13s.53,0,1.33,0a9.84,9.84,0,0,1,2.88.56,3.91,3.91,0,0,1,2.24,1.89,2.58,2.58,0,0,1,.25.94C175.39,131.73,175.39,131.86,175.37,131.86Z"/><path class="cls-28" d="M176.12,130.36a6.83,6.83,0,0,1-.54-1.12,5.23,5.23,0,0,0-1.8-1.91,7.19,7.19,0,0,0-2.5-.83c-.73-.09-1.22-.11-1.22-.11s-.48,0-1.22,0-1.74,0-2.73.15a29.44,29.44,0,0,1-4,.35,6.3,6.3,0,0,1,1.22-.29c.74-.15,1.72-.34,2.72-.49a24.53,24.53,0,0,1,2.76-.3c.76,0,1.28,0,1.28,0s.51,0,1.27.16a7.53,7.53,0,0,1,2.65,1,5.26,5.26,0,0,1,1.78,2.19A4.31,4.31,0,0,1,176.12,130.36Z"/><path class="cls-43" d="M59.67,97.24c2.13-1.1,7.83-4.65,7.93-11.33a38,38,0,0,1-11.73-8.8s3-3.5-3-9-12.5-3.5-12.5,2.5c0,0-5.5.5-4.5,11s12.5,9.5,17,5.5A41.34,41.34,0,0,0,59.67,97.24Z"/><path class="cls-44" d="M55.56,81.63a7.8,7.8,0,0,1,1-6.1,6.41,6.41,0,0,0-1.44-5,18.35,18.35,0,0,1-.31,4.28c-.93,4.82-4.91,8.82-9.94,9a11.26,11.26,0,0,1-9.08-4.67,24.17,24.17,0,0,0,.12,2.46c1,10.5,12.5,9.5,17,5.5a41.34,41.34,0,0,0,6.8,10.13,16.57,16.57,0,0,0,5.78-4.89A15.7,15.7,0,0,1,55.56,81.63Z"/><path class="cls-28" d="M47.62,69.36s.17.06.44.22a4.67,4.67,0,0,1,1,.81,4.33,4.33,0,0,1,1.21,3.71,2.28,2.28,0,0,1-1.42,1.7,3.47,3.47,0,0,1-1.93.07,6.67,6.67,0,0,1-1.28-.41,2.33,2.33,0,0,1-.45-.21,7.74,7.74,0,0,1-1.52-1,9.23,9.23,0,0,1-2.49-3.09,5.53,5.53,0,0,1-.54-2.07,4,4,0,0,1,1.09-2.9c.22-.22.35-.34.37-.33a10.71,10.71,0,0,0-.87,1.5A4,4,0,0,0,41,69.07a5.63,5.63,0,0,0,.58,1.9A9.1,9.1,0,0,0,44,73.79a7.54,7.54,0,0,0,1.45.9,2.12,2.12,0,0,0,.42.21,6.14,6.14,0,0,0,1.15.41,3,3,0,0,0,1.63,0A1.79,1.79,0,0,0,49.86,74a4.11,4.11,0,0,0-1-3.44A17.28,17.28,0,0,0,47.62,69.36Z"/><path class="cls-28" d="M47.12,75.36a1.79,1.79,0,0,1,.34.33,6.92,6.92,0,0,1,.78,1,4,4,0,0,1,.65,1.69,2.06,2.06,0,0,1-.83,1.93,5.88,5.88,0,0,1-3.79.77,9.45,9.45,0,0,1-1.73-.29,10.4,10.4,0,0,1-1.65-.6,8.91,8.91,0,0,1-3.08-2.3,5.74,5.74,0,0,1-1.31-4.8,1.73,1.73,0,0,1,.12-.46c.07,0-.07.69,0,1.7a5.92,5.92,0,0,0,1.49,3.27,8.72,8.72,0,0,0,3,2.06,11,11,0,0,0,1.58.53,9.78,9.78,0,0,0,1.62.32,5.52,5.52,0,0,0,3.47-.56,1.65,1.65,0,0,0,.75-1.54A3.87,3.87,0,0,0,48,76.8C47.53,75.92,47.06,75.41,47.12,75.36Z"/><path class="cls-28" d="M45.62,80.36a1.36,1.36,0,0,1,.42.1,1.69,1.69,0,0,1,.45.2A2.45,2.45,0,0,1,47,81a3.07,3.07,0,0,1,.91,1.35A3.62,3.62,0,0,1,48,84.24a3.89,3.89,0,0,1-2.2,2.7,5.22,5.22,0,0,1-1.14.31,3.53,3.53,0,0,1-.45,0,5.3,5.3,0,0,1-1.59-.17,9.09,9.09,0,0,1-3.12-1.48,11.19,11.19,0,0,1-2.41-2.41,4.51,4.51,0,0,1-.72-1.37c.05,0,.34.52.92,1.22a11.53,11.53,0,0,0,2.47,2.19,8.62,8.62,0,0,0,3,1.28,4.56,4.56,0,0,0,1.45.11,2.28,2.28,0,0,0,.39,0,4.58,4.58,0,0,0,1-.23,3.45,3.45,0,0,0,2-2.27,3.31,3.31,0,0,0,0-1.68,2.67,2.67,0,0,0-.74-1.27A8,8,0,0,0,45.62,80.36Z"/><path class="cls-28" d="M53.12,84.36A4.76,4.76,0,0,1,51,83.24,6.67,6.67,0,0,1,49.78,82a3.1,3.1,0,0,1-.31-.48l-.11-.19s-.13-.29-.28-.74a5,5,0,0,1-.19-1.72,4.23,4.23,0,0,1,.51-1.64c.24-.4.44-.63.47-.61s-.09.3-.25.71a4.3,4.3,0,0,0,0,3.08c.16.39.29.64.29.64a7,7,0,0,0,1.33,1.87A20.38,20.38,0,0,0,53.12,84.36Z"/><path class="cls-28" d="M45.37,85.86A2.48,2.48,0,0,1,47,86.3a2.76,2.76,0,0,1,.91.84,2.25,2.25,0,0,1,.27.53,2.08,2.08,0,0,1,.08.6,2,2,0,0,1-.44,1.2,2.17,2.17,0,0,1-1.47.89c-.06-.09.74-.46,1.1-1.14a1.46,1.46,0,0,0,.23-.94,2,2,0,0,0-.09-.42,2.34,2.34,0,0,0-.17-.41,2.38,2.38,0,0,0-.67-.79C46.17,86.15,45.35,86,45.37,85.86Z"/><path class="cls-45" d="M89.33,81.83s-.22,7.55,12.72,7.34c15.8-.27,25.67-4.75,22.65-11.22S89.33,81.83,89.33,81.83Z"/><path class="cls-46" d="M124.7,78c-.6-1.29-2.36-1.9-4.79-2.07a27.12,27.12,0,0,1-5,8.86q-1.45,1.86-3,3.61C121.68,86.75,127,82.94,124.7,78Z"/><path class="cls-47" d="M111.54.45s-37.34-6-49.34,26,4.67,57.33,33.34,58,54.66-10,59.33-29.34S145.54,5.11,111.54.45Z"/><path class="cls-48" d="M151.78,29.68a49,49,0,0,1-16.55,29.69C116.27,75.61,90,82.59,67.05,71.92c6.57,7.62,16.47,12.25,28.49,12.53,28.66.66,54.66-10,59.33-29.34C156.68,47.61,155.67,38.41,151.78,29.68Z"/><g class="cls-32"><path class="cls-49" d="M102.41,4.51c.37-1.61,3.82-2.17,7.7-1.27s6.72,2.93,6.35,4.53-3.82,2.17-7.7,1.27S102,6.11,102.41,4.51Z"/><path class="cls-50" d="M91.77,6.44c-.1-1,1.69-1.9,4-2.13s4.24.36,4.33,1.31-1.69,1.9-4,2.13S91.86,7.39,91.77,6.44Z"/></g><path class="cls-51" d="M132.2,42.11c0-18.22-19.85-33-44.33-33A57.93,57.93,0,0,0,72.2,11.24a39,39,0,0,0-10,15.21c-6.74,18-4.43,33.86,4,44.44a56.21,56.21,0,0,0,21.69,4.22C112.35,75.11,132.2,60.34,132.2,42.11Z"/><path class="cls-52" d="M63,50.86c3.9,3.78,9.55,5.5,14.93,5.65,13.7.37,35.66-4.44,41-19,4.55-12.36-13.14-20.84-24.12-22.4C82.32,13.33,68.78,15,63.9,28a53.16,53.16,0,0,0-3.61,19.16A17.86,17.86,0,0,0,63,50.86Z"/><g class="cls-53"><path class="cls-54" d="M106,63.74c.34,2.14-3.56,4.54-8.72,5.37s-9.63-.22-10-2.35,3.57-4.54,8.73-5.37S105.66,61.61,106,63.74Z"/><path class="cls-55" d="M118,56.1c.58,1.11-1.11,3.15-3.79,4.57s-5.32,1.66-5.91.56,1.11-3.15,3.79-4.57S117.39,55,118,56.1Z"/></g><ellipse class="cls-56" cx="142.62" cy="43.11" rx="8.75" ry="9.5"/><path class="cls-57" d="M148.1,43.24a5.38,5.38,0,1,1-10.73,0,5.38,5.38,0,1,1,10.73,0Z"/><path class="cls-58" d="M150.12,98.86c0,5.25-3.92,9.5-8.75,9.5s-8.75-4.25-8.75-9.5,3.92-9.5,8.75-9.5S150.12,93.62,150.12,98.86Z"/><path class="cls-59" d="M147.54,99.36a5.44,5.44,0,1,1-5.42-5.88A5.66,5.66,0,0,1,147.54,99.36Z"/><path class="cls-60" d="M140.1,47l.16.1c1.94,1.23,6.44-.17,8.9,0,7.17.58,13.48,4.17,15,11.65,3.34,16-2.66,35.67-7.66,37.33s-18.67-2.33-19.34,1.67,4,9.43,20.34,6.33c12.33-2.33,14-18.66,16-31.33s1-32.33-16.34-35c-4.65-.72-12.21-2.05-16.34,1.17C138.61,40.69,137.41,45.1,140.1,47Z"/><path class="cls-61" d="M140.1,47l.16.1c1.94,1.23,6.44-.17,8.9,0A21,21,0,0,1,156.38,49a19.76,19.76,0,0,1,4.54-10.27,20.45,20.45,0,0,0-3.72-.92c-4.65-.72-12.21-2.05-16.34,1.17C138.61,40.69,137.41,45.1,140.1,47Z"/><path class="cls-62" d="M163.42,83.11a18.93,18.93,0,0,1,3.45-.33,19.75,19.75,0,0,1,4.91.65c.7-3.58,1.22-7.25,1.76-10.65.07-.49.14-1,.21-1.51A19.8,19.8,0,0,1,165.16,68,61.46,61.46,0,0,1,163.42,83.11Z"/><path class="cls-63" d="M147.2,102.45a19.71,19.71,0,0,1,1-6.15c-5.22-.41-10.58-1-11,1.48-.5,3,2,6.85,10.32,7.22C147.44,104.33,147.34,103.51,147.2,102.45Z"/><path class="cls-64" d="M170.87,79.92s-.83,0-2.07,0a35,35,0,0,1-4.54-.37h-.09c0,.14,0,.29-.07.43l.08,0a33.19,33.19,0,0,0,4.6.51c1.26,0,2.11,0,2.11,0s.56,0,1.43-.09c0-.2.07-.4.1-.6C171.48,79.91,170.87,79.92,170.87,79.92Z"/><path class="cls-65" d="M160.86,101.08c-.42-.24-.74-.49-1-.64l-.36-.24s-.53-.38-1.27-1a13.38,13.38,0,0,1-2.38-2.61l-.17-.28-.45.08c.09.15.16.3.25.45a14.28,14.28,0,0,0,2.36,2.8c.76.66,1.29,1.06,1.29,1.06l.39.24c.25.15.59.4,1,.63s1,.5,1.56.75l.52-.33C162,101.69,161.36,101.37,160.86,101.08Z"/><path class="cls-66" d="M148.65,104.72c-.46-.94-.71-1.6-.71-1.6l-.16-.45a10.28,10.28,0,0,1-.39-1.21,15.25,15.25,0,0,1-.54-3.81,13.76,13.76,0,0,1,.09-1.45l-.38,0a14,14,0,0,0-.15,1.48,14.76,14.76,0,0,0,.42,4,9.74,9.74,0,0,0,.37,1.26c.1.3.15.48.15.48s.28.68.79,1.64l0,0h.66Z"/><path class="cls-67" d="M165.82,69a35.1,35.1,0,0,0,4.24.22l1.4,0H172l1.92-.24.11,0c0-.19,0-.38,0-.58l-.23,0-1.89.19-.53,0-1.37,0a33.76,33.76,0,0,1-4.18-.09c-.24,0-.48-.06-.71-.09v.42Z"/><path class="cls-68" d="M169.79,88.79l-1.53-.27-1.52-.36a30.66,30.66,0,0,1-3.3-1c-.36-.13-.71-.27-1.06-.42l-.12.36c.33.17.67.33,1,.47a28.16,28.16,0,0,0,3.31,1.12l1.54.41,1.58.23c.2,0,.42.06.64.09.05-.18.11-.36.16-.54A6.75,6.75,0,0,1,169.79,88.79Z"/><path class="cls-69" d="M169.33,56.82l-1.45.33c-.87.24-2,.39-3.23.59l-.69.08c0,.13.06.26.1.39l.64,0c1.2-.15,2.41-.26,3.29-.46l1.49-.29s2.08-.56,4.22-1.31c0-.15,0-.31-.08-.46C171.44,56.32,169.33,56.82,169.33,56.82Z"/><path class="cls-70" d="M148.74,38.11l-.27.49s-.34.74-.73,1.89a17.06,17.06,0,0,0-.73,4.36,16.22,16.22,0,0,0,.14,2.35l.35,0a19.38,19.38,0,0,1-.05-2.3,16.75,16.75,0,0,1,.84-4.2c.4-1.1.74-1.8.74-1.8l.25-.48a9.09,9.09,0,0,1,.7-1.22c0-.08.1-.16.15-.24l-.67,0A10.15,10.15,0,0,0,148.74,38.11Z"/><path class="cls-71" d="M166.09,42.27a24.19,24.19,0,0,0-3,1.85c-.78.58-1.28,1-1.28,1l-.32.3c-.2.21-.52.46-.83.83a14.81,14.81,0,0,0-2.1,2.88c-.14.28-.26.56-.38.85l.34.22c.13-.29.27-.57.43-.85a14.2,14.2,0,0,1,2.13-2.7c.31-.35.63-.58.82-.77s.32-.29.32-.29.48-.41,1.21-1a26.3,26.3,0,0,1,2.89-1.92l.68-.38-.32-.3Z"/><path class="cls-72" d="M47.78,69.66l-13-52.86C35,17.79,41,46,46,69.18A2.85,2.85,0,0,1,47.78,69.66Z"/><path class="cls-73" d="M49.17,75.34a3.07,3.07,0,0,1-.56.45,9.73,9.73,0,0,1-1,.45c.48.52,1.2,1,1.2,1.75v.12a2.89,2.89,0,0,1-.51,1.63C50.73,91,52.5,99.13,52.5,99.13l2.37-.51Z"/><polygon class="cls-74" points="39.43 20.61 0 33.57 15.01 41.56 8.98 57.2 44.25 46.48 39.43 20.61"/><path class="cls-75" d="M33.13,22.68,22.75,26.09q-3.51,14.29-6.14,28.79L26.26,52C28.47,42.18,30.81,32.43,33.13,22.68Z"/><path class="cls-76" d="M36.08,49l8.17-2.49-3.34-17.9C39.28,35.37,37.65,42.16,36.08,49Z"/></g></g></g></svg>