<svg xmlns="http://www.w3.org/2000/svg" xmlns:xlink="http://www.w3.org/1999/xlink" width="240.032" height="391.139" viewBox="0 0 240.032 391.139"><defs><style>.a,.aa,.ab,.as,.bc,.bh,.bt,.bw,.bx,.by,.bz,.c,.cp,.cq,.cr,.cv,.cw,.d,.dh,.di,.dj,.dn,.do,.dz,.ec,.fd,.fe,.z{opacity:0.5;}.a{fill:url(#a);}.b{fill:url(#b);}.c{fill:url(#c);}.d{fill:url(#d);}.e{fill:url(#e);}.ak,.al,.ax,.ba,.bi,.bo,.br,.ca,.cg,.ch,.dt,.dv,.dx,.ee,.en,.eo,.ex,.ez,.f,.fa,.fb,.fk,.fl,.fn,.fr,.fw,.fx,.g,.gf,.h,.o,.p,.u,.v,.x{opacity:0.25;}.f{fill:url(#f);}.g{fill:url(#g);}.h{fill:url(#h);}.i{fill:url(#i);}.j{fill:url(#j);}.k{fill:url(#k);}.l{fill:url(#l);}.m{fill:url(#m);}.aj,.am,.ap,.at,.bv,.cm,.cy,.cz,.dq,.dr,.em,.ep,.es,.fp,.ft,.fz,.n,.q,.s{opacity:0.45;}.n{fill:url(#n);}.o{fill:url(#o);}.p{fill:url(#p);}.q{fill:url(#q);}.r{fill:url(#r);}.s{fill:url(#s);}.t{fill:url(#t);}.u{fill:#fff;}.v{fill:url(#u);}.w{fill:url(#v);}.x{fill:url(#w);}.y{fill:url(#x);}.z{fill:url(#y);}.aa{fill:url(#z);}.ab{fill:url(#aa);}.ac{fill:url(#ab);}.ad{fill:url(#ac);}.ae{fill:url(#ad);}.af{fill:url(#ae);}.ag{fill:url(#af);}.ah{fill:url(#ag);}.ai{fill:url(#ah);}.aj{fill:url(#ai);}.ak{fill:url(#aj);}.al{fill:url(#ak);}.am{fill:url(#al);}.an{fill:url(#am);}.ao{fill:url(#an);}.ap{fill:url(#ao);}.aq{fill:url(#ap);}.ar{fill:url(#aq);}.as{fill:url(#ar);}.at{fill:url(#as);}.au{fill:url(#at);}.av{fill:url(#au);}.aw{fill:url(#av);}.ay{fill:url(#aw);}.az{fill:url(#ax);}.ba{fill:url(#ay);}.bb{fill:url(#az);}.bd{fill:url(#ba);}.be{fill:url(#bb);}.bf{fill:url(#bc);}.bg{fill:url(#bd);}.bh{fill:url(#be);}.bi{fill:url(#bf);}.bj,.bk{fill:#e0a326;}.bk{opacity:0.54;}.bl{fill:url(#bg);}.bm{fill:url(#bh);}.bn{fill:url(#bi);}.bo{fill:url(#bj);}.bp{fill:url(#bk);}.bq{fill:url(#bl);}.br{fill:url(#bm);}.bs{fill:url(#bn);}.bt{fill:url(#bo);}.bu{fill:url(#bp);}.bv{fill:url(#bq);}.bw{fill:url(#br);}.bx{fill:url(#bs);}.by{fill:url(#bt);}.bz{fill:url(#bu);}.ca{fill:url(#bv);}.cb{fill:url(#bw);}.cc{fill:url(#bx);}.cd{fill:url(#by);}.ce{fill:url(#bz);}.cf{fill:url(#ca);}.cg{fill:url(#cb);}.ch{fill:url(#cc);}.ci{fill:url(#cd);}.cj,.dc{opacity:0.34;}.cj{fill:url(#ce);}.ck{fill:url(#cf);}.cl{fill:url(#cg);}.cn{fill:url(#ch);}.co{fill:url(#ci);}.cp{fill:url(#cj);}.cq{fill:url(#ck);}.cr{fill:url(#cl);}.cs{fill:url(#cm);}.ct{fill:url(#cn);}.cu{fill:url(#co);}.cv{fill:url(#cp);}.cw{fill:url(#cq);}.cx{fill:url(#cr);}.cy{fill:url(#cs);}.cz{fill:url(#ct);}.da{fill:url(#cu);}.db{fill:url(#cv);}.dc{fill:url(#cw);}.dd{fill:url(#cx);}.de{fill:url(#cy);}.df{fill:url(#cz);}.dg{fill:url(#da);}.dh{fill:url(#db);}.di{fill:url(#dc);}.dj{fill:url(#dd);}.dk{fill:url(#de);}.dl{fill:url(#df);}.dm{fill:url(#dg);}.dn{fill:url(#dh);}.do{fill:url(#di);}.dp{fill:url(#dj);}.dq{fill:url(#dk);}.dr{fill:url(#dl);}.ds{fill:url(#dm);}.dt{fill:url(#dn);}.du{fill:url(#do);}.dv{fill:url(#dp);}.dw{fill:url(#dq);}.dx{fill:url(#dr);}.dy{fill:url(#ds);}.dz{fill:url(#dt);}.ea{fill:url(#du);}.eb{fill:url(#dv);}.ec{fill:url(#dw);}.ed{fill:url(#dx);}.ee{fill:url(#dy);}.ef{fill:url(#dz);}.eg{fill:url(#ea);}.eh{fill:url(#eb);}.ei{fill:url(#ec);}.ej{fill:url(#ed);}.ek{fill:url(#ee);}.el{fill:url(#ef);}.em{fill:url(#eg);}.en{fill:url(#eh);}.eo{fill:url(#ei);}.ep{fill:url(#ej);}.eq{fill:url(#ek);}.er{fill:url(#el);}.es{fill:url(#em);}.et{fill:url(#en);}.eu{fill:url(#eo);}.ev{fill:url(#ep);}.ew{fill:url(#eq);}.ex{fill:url(#er);}.ey{fill:url(#es);}.ez{fill:url(#et);}.fa{fill:url(#eu);}.fb{fill:url(#ev);}.fc{fill:url(#ew);}.fd{fill:url(#ex);}.fe{fill:url(#ey);}.ff{fill:url(#ez);}.fg{fill:url(#fa);}.fh{fill:url(#fb);}.fi{fill:url(#fc);}.fj{fill:url(#fd);}.fk{fill:url(#fe);}.fl{fill:url(#ff);}.fm{fill:url(#fg);}.fn{fill:url(#fh);}.fo{fill:url(#fi);}.fp{fill:url(#fj);}.fq{fill:url(#fk);}.fr{fill:url(#fl);}.fs{fill:url(#fm);}.ft{fill:url(#fn);}.fu{fill:url(#fo);}.fv{fill:url(#fp);}.fw{fill:url(#fq);}.fx{fill:url(#fr);}.fy{fill:url(#fs);}.fz{fill:url(#ft);}.ga{fill:url(#fu);}.gb{fill:url(#fv);}.gc{fill:url(#fw);}.gd{fill:url(#fx);}.ge{fill:url(#fy);}.gf{fill:url(#fz);}.gg{fill:url(#ga);}.gh{fill:url(#gb);}.gi{fill:url(#gc);}</style><radialGradient id="a" cx="0.356" cy="-1.832" r="6.795" gradientTransform="translate(0.417) scale(0.166 1)" gradientUnits="objectBoundingBox"><stop offset="0" stop-color="#4a289c"/><stop offset="0.96" stop-color="#00092b"/></radialGradient><radialGradient id="b" cx="0.562" cy="-0.037" r="1.141" gradientTransform="translate(-0.036 0.004) scale(1.13 0.968)" gradientUnits="objectBoundingBox"><stop offset="0" stop-color="#f20074"/><stop offset="0.14" stop-color="#ed0376"/><stop offset="0.31" stop-color="#df0b7d"/><stop offset="0.49" stop-color="#c71887"/><stop offset="0.67" stop-color="#a62a96"/><stop offset="0.87" stop-color="#7b42a9"/><stop offset="0.9" stop-color="#7446ac"/></radialGradient><radialGradient id="c" cx="-0.84" cy="0.606" r="2.001" gradientTransform="translate(0.002)" xlink:href="#b"/><radialGradient id="d" cx="0.248" cy="0.716" r="0.491" gradientTransform="translate(-0.111) scale(1.221 1)" xlink:href="#b"/><radialGradient id="e" cx="-0.184" cy="0.457" r="2.351" gradientTransform="translate(0.022) scale(0.956 1)" gradientUnits="objectBoundingBox"><stop offset="0.06" stop-color="#faf1d6"/><stop offset="0.24" stop-color="#f8edd3"/><stop offset="0.42" stop-color="#f2e1ca"/><stop offset="0.61" stop-color="#e8ccba"/><stop offset="0.8" stop-color="#dab0a5"/><stop offset="0.95" stop-color="#cc928e"/></radialGradient><radialGradient id="f" cx="-0.184" cy="0.457" r="2.351" gradientTransform="translate(0.022) scale(0.956 1)" gradientUnits="objectBoundingBox"><stop offset="0" stop-color="#b10058"/><stop offset="1" stop-color="#5c2d7d" stop-opacity="0.6"/></radialGradient><radialGradient id="g" cx="-0.184" cy="0.457" r="2.185" gradientTransform="translate(-0.022) scale(1.044 1)" xlink:href="#f"/><radialGradient id="h" cx="0.746" cy="0.293" r="2.996" gradientTransform="matrix(-0.936, 0.24, 0.232, 0.971, 3.621, -0.449)" xlink:href="#f"/><radialGradient id="i" cx="-0.062" cy="0.193" r="0.881" gradientTransform="matrix(-0.625, 0.924, 1.513, 0.382, -77.279, 42.7)" gradientUnits="objectBoundingBox"><stop offset="0" stop-color="#fbe877"/><stop offset="0.07" stop-color="#f6e87c"/><stop offset="0.16" stop-color="#e9e78a"/><stop offset="0.25" stop-color="#d4e5a2"/><stop offset="0.35" stop-color="#b5e4c3"/><stop offset="0.45" stop-color="#8ee1ee"/><stop offset="0.62" stop-color="#5e8dec"/><stop offset="0.63" stop-color="#5f89e8"/><stop offset="0.74" stop-color="#6b64c7"/><stop offset="0.84" stop-color="#714eb3"/><stop offset="0.9" stop-color="#7446ac"/></radialGradient><radialGradient id="j" cx="-249.963" cy="65.02" r="12.371" gradientTransform="translate(0.192) scale(0.616 1)" xlink:href="#i"/><radialGradient id="k" cx="-199.012" cy="20.558" r="2.739" gradientTransform="translate(-0.397) scale(1.793 1)" xlink:href="#i"/><radialGradient id="l" cx="-425.039" cy="52.044" r="8.718" gradientTransform="translate(-0.193) scale(1.385 1)" xlink:href="#i"/><radialGradient id="m" cx="-377.377" cy="58.345" r="9.035" gradientTransform="translate(-0.111) scale(1.221 1)" xlink:href="#i"/><radialGradient id="n" cx="-48.384" cy="6.08" r="0.492" gradientTransform="translate(-0.322) scale(1.645 1)" xlink:href="#i"/><radialGradient id="o" cx="-53.462" cy="5.606" r="0.464" gradientTransform="translate(-0.488) scale(1.977 1)" xlink:href="#i"/><radialGradient id="p" cx="-61.092" cy="13.953" r="1.855" gradientTransform="translate(0.073) scale(0.854 1)" xlink:href="#i"/><radialGradient id="q" cx="0.794" cy="1.021" r="2.139" gradientTransform="matrix(0.148, 0.966, 0.553, -0.259, -148.566, 259.721)" xlink:href="#i"/><radialGradient id="r" cx="0.108" cy="0.012" r="3.503" gradientTransform="matrix(-0.321, 0.924, 0.776, 0.382, -42.396, 30.181)" gradientUnits="objectBoundingBox"><stop offset="0.05" stop-color="#e0a326"/><stop offset="1" stop-color="#cc2db4"/></radialGradient><radialGradient id="s" cx="-33.204" cy="7.286" r="3.327" gradientTransform="translate(0.045) scale(0.91 1)" xlink:href="#r"/><radialGradient id="t" cx="-106.542" cy="19.881" r="2.034" gradientTransform="translate(-0.073) scale(1.147 1)" xlink:href="#r"/><radialGradient id="u" cx="0.501" cy="0.499" r="0.504" gradientTransform="translate(0.008) scale(0.983 1)" xlink:href="#f"/><radialGradient id="v" cx="0.492" cy="0.502" r="0.334" gradientTransform="matrix(6.513, 0.072, -0.51, 1.076, -2.438, -0.073)" xlink:href="#e"/><radialGradient id="w" cx="0.5" cy="0.5" r="0.357" gradientTransform="translate(-2.926) scale(6.852 1)" xlink:href="#f"/><radialGradient id="x" cx="0.044" cy="0.329" r="2.369" gradientTransform="translate(0.028) scale(0.375 1)" xlink:href="#b"/><radialGradient id="y" cx="0.045" cy="0.328" r="1.059" gradientTransform="translate(0.001) scale(0.987 1)" xlink:href="#b"/><radialGradient id="z" cx="0.044" cy="0.329" r="2.093" gradientTransform="translate(0.025) scale(0.429 1)" xlink:href="#b"/><radialGradient id="aa" cx="0.264" cy="-0.401" r="1.221" gradientTransform="translate(0.114) scale(0.571 1)" xlink:href="#b"/><radialGradient id="ab" cx="0.386" cy="0.199" r="0.902" gradientTransform="matrix(-0.541, 0.853, 0.884, 0.522, -30.853, 17.035)" xlink:href="#i"/><radialGradient id="ac" cx="0.106" cy="-3.101" r="5.079" gradientTransform="matrix(-0.443, 0.853, 0.724, 0.522, -139.302, 83.296)" xlink:href="#i"/><radialGradient id="ad" cx="-1.861" cy="-9.72" r="11.82" gradientTransform="matrix(-0.322, 0.853, 0.527, 0.522, -228.59, 153.463)" xlink:href="#i"/><radialGradient id="ae" cx="-2.69" cy="-9.92" r="13.915" gradientTransform="matrix(-0.277, 0.853, 0.453, 0.522, -225.302, 159.726)" xlink:href="#i"/><radialGradient id="af" cx="-3.551" cy="0.002" r="2.822" gradientTransform="matrix(-0.83, 0.853, 1.357, 0.522, -240.388, 109.594)" xlink:href="#i"/><radialGradient id="ag" cx="-8.432" cy="-4.239" r="9.303" gradientTransform="matrix(-0.576, 0.853, 0.941, 0.522, -411.787, 221.653)" xlink:href="#i"/><radialGradient id="ah" cx="-8.771" cy="1.247" r="8.716" gradientTransform="matrix(-0.687, 0.853, 1.123, 0.522, -484.21, 241.023)" xlink:href="#i"/><radialGradient id="ai" cx="0.512" cy="0.451" r="0.532" gradientTransform="matrix(-0.459, 0.853, 0.75, 0.522, -29.836, 17.646)" xlink:href="#i"/><radialGradient id="aj" cx="0.496" cy="0.466" r="0.474" gradientTransform="matrix(-0.719, 0.853, 1.176, 0.522, -47.302, 23.002)" xlink:href="#i"/><radialGradient id="ak" cx="0.344" cy="0.206" r="1.329" gradientTransform="matrix(-0.365, 0.853, 0.596, 0.522, -36.076, 23.359)" xlink:href="#i"/><radialGradient id="al" cx="-0.232" cy="0.042" r="2.369" gradientTransform="matrix(0.055, 0.994, 0.491, -0.11, -117.037, 194.885)" xlink:href="#i"/><radialGradient id="am" cx="-0.013" cy="0.786" r="2.048" gradientTransform="matrix(0.237, 0.921, 0.559, -0.39, -220.108, 451.868)" xlink:href="#i"/><radialGradient id="an" cx="0.555" cy="-0.046" r="3.175" gradientTransform="matrix(-0.26, 0.853, 0.425, 0.522, -13.918, 10.303)" xlink:href="#r"/><radialGradient id="ao" cx="0.534" cy="0.006" r="2.979" gradientTransform="matrix(-0.281, 0.853, 0.459, 0.522, -16.523, 11.857)" xlink:href="#r"/><radialGradient id="ap" cx="0.3" cy="0.091" r="2.088" gradientTransform="matrix(-0.547, 0.853, 0.894, 0.522, -118.006, 64.828)" xlink:href="#r"/><radialGradient id="aq" cx="0.512" cy="0.213" r="1.777" gradientTransform="matrix(-0.655, 0.853, 1.071, 0.522, -157.257, 80.054)" xlink:href="#r"/><radialGradient id="ar" cx="-0.804" cy="-0.488" r="6.056" gradientTransform="translate(-0.455) scale(0.434 1)" xlink:href="#b"/><radialGradient id="as" cx="-0.805" cy="-0.488" r="2.718" gradientTransform="translate(0.306) scale(1.38 1)" xlink:href="#i"/><radialGradient id="at" cx="0.53" cy="-0.025" r="1.443" gradientTransform="translate(0.191 0.016) scale(0.592 0.863)" xlink:href="#e"/><radialGradient id="au" cx="0.999" cy="0.226" r="0.95" gradientTransform="translate(0.104 0.015) scale(0.871 0.968)" xlink:href="#e"/><radialGradient id="av" cx="-0.159" cy="0.806" r="0.996" gradientTransform="translate(0.04 0.034) scale(1.097 0.968)" xlink:href="#e"/><radialGradient id="aw" cx="0.525" cy="0.496" r="1.025" gradientTransform="translate(0.282 0.023) scale(0.371 0.968)" xlink:href="#f"/><radialGradient id="ax" cx="0.525" cy="0.498" r="1.025" gradientTransform="translate(0.282 0.023) scale(0.371 0.968)" gradientUnits="objectBoundingBox"><stop offset="0.06" stop-color="#66b0d8"/><stop offset="1" stop-color="#3f1f7d"/></radialGradient><radialGradient id="ay" cx="0.518" cy="0.499" r="0.674" gradientTransform="translate(0.17 0.019) scale(0.626 0.968)" xlink:href="#f"/><radialGradient id="az" cx="0.365" cy="0.113" r="1.247" gradientTransform="translate(0.045) scale(0.91 1)" xlink:href="#b"/><radialGradient id="ba" cx="0.401" cy="-1.48" r="2.627" gradientTransform="translate(-0.055) scale(1.109 1)" xlink:href="#b"/><radialGradient id="bb" cx="-0.284" cy="-2.032" r="2.235" gradientTransform="translate(-0.329) scale(1.659 1)" xlink:href="#b"/><radialGradient id="bc" cx="-5.59" cy="-2.485" r="3.69" gradientTransform="translate(-0.852) scale(2.704 1)" xlink:href="#b"/><radialGradient id="bd" cx="-4.779" cy="-3.879" r="5.534" gradientTransform="translate(-0.242) scale(1.485 1)" xlink:href="#b"/><radialGradient id="be" cx="0.351" cy="0.712" r="0.581" gradientTransform="translate(0.071) scale(0.858 1)" xlink:href="#b"/><radialGradient id="bf" cx="0.658" cy="0.499" r="0.383" gradientTransform="translate(0.049 0.024) scale(3.113 0.968)" xlink:href="#f"/><radialGradient id="bg" cx="0.512" cy="-0.036" r="1.083" gradientTransform="translate(-0.186) scale(1.372 1)" xlink:href="#e"/><radialGradient id="bh" cx="1.002" cy="0.018" r="2.364" gradientTransform="matrix(-0.013, 1, -0.621, -0.02, 1.024, -0.996)" xlink:href="#e"/><radialGradient id="bi" cx="0.906" cy="-0.759" r="1.933" gradientTransform="matrix(-0.026, 1, -1.184, -0.02, 0.025, -1.691)" xlink:href="#e"/><radialGradient id="bj" cx="0.5" cy="0.5" r="0.437" gradientTransform="translate(-0.188) scale(1.375 1)" xlink:href="#f"/><radialGradient id="bk" cx="0.81" cy="0.25" r="0.641" gradientTransform="translate(-0.043) scale(1.086 1)" xlink:href="#f"/><radialGradient id="bl" cx="0.81" cy="0.25" r="0.641" gradientTransform="translate(-0.069) scale(1.085 1)" xlink:href="#ax"/><radialGradient id="bm" cx="0.5" cy="0.5" r="0.67" gradientTransform="translate(0.19) scale(0.621 1)" xlink:href="#f"/><radialGradient id="bn" cx="-0.301" cy="0.647" r="1.575" gradientTransform="translate(-0.002) scale(0.994 1)" xlink:href="#b"/><radialGradient id="bo" cx="-0.246" cy="0.557" r="1.916" gradientTransform="translate(-0.043 -0.016) scale(0.806 1.038)" xlink:href="#b"/><radialGradient id="bp" cx="-0.301" cy="0.648" r="1.998" gradientTransform="translate(-0.069) scale(0.772 1)" xlink:href="#ax"/><radialGradient id="bq" cx="-0.301" cy="0.647" r="2.035" gradientTransform="translate(-0.073) scale(0.758 1)" xlink:href="#ax"/><radialGradient id="br" cx="0.274" cy="-0.103" r="3.855" gradientTransform="translate(0.223) scale(0.185 1)" xlink:href="#b"/><radialGradient id="bs" cx="0.273" cy="-0.106" r="3.584" gradientTransform="translate(0.218) scale(0.201 1)" xlink:href="#b"/><radialGradient id="bt" cx="0.273" cy="-0.105" r="2.919" gradientTransform="translate(0.204) scale(0.252 1)" xlink:href="#b"/><radialGradient id="bu" cx="-0.301" cy="0.647" r="1.574" gradientTransform="translate(-0.002) scale(0.995 1)" xlink:href="#b"/><radialGradient id="bv" cx="0.497" cy="0.498" r="0.677" gradientTransform="translate(0.193) scale(0.613 1)" xlink:href="#f"/><radialGradient id="bw" cx="0.512" cy="-0.036" r="1.067" gradientTransform="translate(-0.304) scale(1.607 1)" xlink:href="#e"/><radialGradient id="bx" cx="1.11" cy="0.027" r="3.23" gradientTransform="matrix(-0.013, 1, -0.62, -0.02, 1.15, -1.112)" xlink:href="#e"/><radialGradient id="by" cx="0.928" cy="-0.347" r="1.478" gradientTransform="matrix(-0.026, 1, -1.188, -0.02, 0.549, -1.302)" xlink:href="#e"/><radialGradient id="bz" cx="1.089" cy="-1.317" r="3.478" gradientTransform="translate(-1.225) scale(3.45 1)" xlink:href="#e"/><radialGradient id="ca" cx="0.534" cy="-3.291" r="5.075" gradientTransform="translate(-0.205) scale(1.41 1)" xlink:href="#e"/><radialGradient id="cb" cx="-0.204" cy="0.023" r="1.799" gradientTransform="translate(-0.296) scale(1.593 1)" xlink:href="#f"/><radialGradient id="cc" cx="0.223" cy="0.051" r="1.581" gradientTransform="translate(0.18) scale(0.64 1)" xlink:href="#f"/><radialGradient id="cd" cx="-0.117" cy="0.452" r="3.577" gradientTransform="translate(-0.069) scale(0.413 1)" xlink:href="#ax"/><radialGradient id="ce" cx="-0.205" cy="0.025" r="4.691" gradientTransform="translate(-0.124) scale(0.392 1)" xlink:href="#ax"/><radialGradient id="cf" cx="0.5" cy="0.5" r="2.426" gradientTransform="translate(0.426) scale(0.147 1)" xlink:href="#ax"/><radialGradient id="cg" cx="0.272" cy="-0.08" r="1.438" gradientTransform="translate(0.018) scale(0.935 1)" xlink:href="#b"/><radialGradient id="ch" cx="0.19" cy="-2.131" r="7.303" gradientTransform="translate(0.074) scale(0.609 1)" xlink:href="#i"/><radialGradient id="ci" cx="-3.716" cy="0.234" r="3.724" gradientTransform="translate(7.544) scale(3.03 1)" xlink:href="#i"/><radialGradient id="cj" cx="-0.117" cy="0.451" r="1.703" gradientTransform="translate(-0.008) scale(0.935 1)" xlink:href="#b"/><radialGradient id="ck" cx="0.446" cy="-0.349" r="2.206" gradientTransform="translate(0.082) scale(0.815 1)" xlink:href="#b"/><radialGradient id="cl" cx="-0.339" cy="-0.075" r="2.291" gradientTransform="translate(-0.073) scale(0.784 1)" xlink:href="#b"/><radialGradient id="cm" cx="-0.117" cy="0.453" r="2.517" gradientTransform="translate(0.2) scale(0.599 1)" xlink:href="#e"/><radialGradient id="cn" cx="-0.121" cy="0.449" r="2.033" gradientTransform="translate(0.119) scale(0.762 1)" xlink:href="#f"/><radialGradient id="co" cx="-0.122" cy="0.449" r="2.033" gradientTransform="translate(0.119) scale(0.763 1)" xlink:href="#f"/><radialGradient id="cp" cx="0.5" cy="0.498" r="0.752" gradientTransform="translate(0.234) scale(0.533 1)" xlink:href="#b"/><radialGradient id="cq" cx="-0.208" cy="0.023" r="1.901" gradientTransform="translate(0.082) scale(1.395 1)" xlink:href="#b"/><radialGradient id="cr" cx="-0.204" cy="0.023" r="1.739" gradientTransform="translate(0.153) scale(1.753 1)" xlink:href="#ax"/><radialGradient id="cs" cx="-0.204" cy="0.023" r="1.6" gradientTransform="translate(0.283) scale(2.389 1)" xlink:href="#ax"/><radialGradient id="ct" cx="-0.204" cy="0.019" r="4.57" gradientTransform="translate(-0.122) scale(0.403 1)" xlink:href="#ax"/><radialGradient id="cu" cx="0.5" cy="0.501" r="0.388" gradientTransform="translate(-0.609) scale(2.218 1)" xlink:href="#ax"/><radialGradient id="cv" cx="1.117" cy="0.452" r="3.577" gradientTransform="matrix(-0.413, 0, 0, 1, 0.207, 0)" xlink:href="#ax"/><radialGradient id="cw" cx="1.204" cy="0.025" r="4.682" gradientTransform="matrix(-0.393, 0, 0, 1, 0.083, 0)" xlink:href="#ax"/><radialGradient id="cx" cx="0.5" cy="0.5" r="2.426" gradientTransform="matrix(-0.147, 0, 0, 1, 0.635, 0)" xlink:href="#ax"/><radialGradient id="cy" cx="0.728" cy="-0.08" r="1.438" gradientTransform="matrix(-0.935, 0, 0, 1, 1.08, 0)" xlink:href="#b"/><radialGradient id="cz" cx="0.811" cy="-2.131" r="7.303" gradientTransform="matrix(-0.609, 0, 0, 1, -2.562, 0)" xlink:href="#i"/><radialGradient id="da" cx="4.71" cy="0.234" r="3.724" gradientTransform="matrix(-3.025, 0, 0, 1, -5.557, 0)" xlink:href="#i"/><radialGradient id="db" cx="1.117" cy="0.451" r="1.703" gradientTransform="matrix(-0.935, 0, 0, 1, 0.325, 0)" xlink:href="#b"/><radialGradient id="dc" cx="0.554" cy="-0.349" r="2.204" gradientTransform="matrix(-0.816, 0, 0, 1, -0.851, 0)" xlink:href="#b"/><radialGradient id="dd" cx="1.34" cy="-0.075" r="2.291" gradientTransform="matrix(-0.787, 0, 0, 1, 0.563, 0)" xlink:href="#b"/><radialGradient id="de" cx="1.119" cy="0.453" r="2.532" gradientTransform="matrix(-0.597, 0, 0, 1, -0.251, 0)" xlink:href="#e"/><radialGradient id="df" cx="1.122" cy="0.449" r="2.033" gradientTransform="matrix(-0.762, 0, 0, 1, -1.719, 0)" xlink:href="#f"/><radialGradient id="dg" cx="1.118" cy="0.445" r="2.033" gradientTransform="matrix(-0.76, 0, 0, 1, 1.05, 0)" xlink:href="#f"/><radialGradient id="dh" cx="0.5" cy="0.498" r="0.752" gradientTransform="matrix(-0.533, 0, 0, 1, 2.209, 0)" xlink:href="#b"/><radialGradient id="di" cx="1.208" cy="0.023" r="1.901" gradientTransform="matrix(-1.396, 0, 0, 1, 0.706, 0)" xlink:href="#b"/><radialGradient id="dj" cx="1.204" cy="0.023" r="1.739" gradientTransform="matrix(-1.754, 0, 0, 1, -0.488, 0)" xlink:href="#ax"/><radialGradient id="dk" cx="1.205" cy="0.023" r="1.6" gradientTransform="matrix(-2.39, 0, 0, 1, 0.821, 0)" xlink:href="#ax"/><radialGradient id="dl" cx="1.204" cy="0.019" r="4.57" gradientTransform="matrix(-0.404, 0, 0, 1, 0.311, 0)" xlink:href="#ax"/><radialGradient id="dm" cx="0.5" cy="0.501" r="0.388" gradientTransform="matrix(-2.217, 0, 0, 1, 0.258, 0)" xlink:href="#ax"/><radialGradient id="dn" cx="0.521" cy="0.488" r="0.356" gradientTransform="matrix(-5.007, 0.749, -5.455, -0.639, 5.722, 0.445)" xlink:href="#f"/><radialGradient id="do" cx="0.521" cy="0.489" r="0.356" gradientTransform="matrix(-5.007, 0.749, -5.456, -0.639, 5.731, 0.445)" xlink:href="#ax"/><radialGradient id="dp" cx="0.535" cy="0.49" r="0.357" gradientTransform="matrix(-5.025, 0.749, -5.475, -0.639, 5.752, 0.446)" xlink:href="#f"/><radialGradient id="dq" cx="0.534" cy="0.49" r="0.357" gradientTransform="matrix(-5.027, 0.749, -5.477, -0.639, 5.755, 0.445)" xlink:href="#ax"/><radialGradient id="dr" cx="0.5" cy="0.5" r="0.666" gradientTransform="translate(0.187) scale(0.627 1)" xlink:href="#f"/><radialGradient id="ds" cx="0.815" cy="0.05" r="1.66" gradientTransform="matrix(-0.604, 0, 0, 0.962, -2.464, 0.002)" xlink:href="#b"/><radialGradient id="dt" cx="0.539" cy="0.499" r="0.744" gradientTransform="matrix(-0.544, 0, 0, 0.962, -1.964, 0.019)" xlink:href="#b"/><radialGradient id="du" cx="0.678" cy="-0.28" r="2.729" gradientTransform="matrix(-0.228, 0, 0, 0.962, -4.701, -0.011)" xlink:href="#i"/><radialGradient id="dv" cx="0.224" cy="0.05" r="1.596" gradientTransform="translate(0.083) scale(0.63 1)" xlink:href="#b"/><radialGradient id="dw" cx="0.5" cy="0.499" r="0.716" gradientTransform="translate(0.216) scale(0.568 1)" xlink:href="#b"/><radialGradient id="dx" cx="0.399" cy="-0.28" r="2.624" gradientTransform="translate(0.304) scale(0.238 1)" xlink:href="#i"/><radialGradient id="dy" cx="0.194" cy="0.383" r="3.124" gradientTransform="translate(0.234) scale(0.532 1)" xlink:href="#f"/><radialGradient id="dz" cx="0.553" cy="0.199" r="0.928" gradientTransform="matrix(0.585, 0.806, -0.797, 0.592, -13.814, 32.892)" xlink:href="#i"/><radialGradient id="ea" cx="0.457" cy="-2.97" r="4.984" gradientTransform="matrix(0.522, 0.806, -0.711, 0.592, -88.403, 169.26)" xlink:href="#i"/><radialGradient id="eb" cx="2.005" cy="-9.838" r="11.91" gradientTransform="matrix(0.36, 0.806, -0.49, 0.592, -210.456, 294.006)" xlink:href="#i"/><radialGradient id="ec" cx="2.843" cy="-10.664" r="14.676" gradientTransform="matrix(0.296, 0.806, -0.403, 0.592, -234.229, 299.55)" xlink:href="#i"/><radialGradient id="ed" cx="4.006" cy="-0.156" r="2.899" gradientTransform="matrix(0.867, 0.806, -1.18, 0.592, -19.323, 203.162)" xlink:href="#i"/><radialGradient id="ee" cx="7.991" cy="-5.006" r="9.904" gradientTransform="matrix(0.576, 0.806, -0.784, 0.592, -183.794, 403.816)" xlink:href="#i"/><radialGradient id="ef" cx="9.506" cy="0.826" r="8.588" gradientTransform="matrix(0.812, 0.806, -1.106, 0.592, -75.261, 476.971)" xlink:href="#i"/><radialGradient id="eg" cx="0.451" cy="0.455" r="0.568" gradientTransform="matrix(0.474, 0.806, -0.645, 0.592, -18.184, 33.407)" xlink:href="#i"/><radialGradient id="eh" cx="0.463" cy="0.48" r="0.489" gradientTransform="matrix(0.793, 0.806, -1.08, 0.592, -7.857, 46.419)" xlink:href="#i"/><radialGradient id="ei" cx="0.584" cy="0.215" r="1.44" gradientTransform="matrix(0.371, 0.806, -0.505, 0.592, -28.84, 43.367)" xlink:href="#i"/><radialGradient id="ej" cx="0.957" cy="1.933" r="2.47" gradientTransform="matrix(-0.009, 1, -0.471, -0.02, -46.102, 293.65)" xlink:href="#i"/><radialGradient id="ek" cx="0.885" cy="0.624" r="2.242" gradientTransform="matrix(-0.17, 0.95, -0.515, -0.313, -37.036, 678.509)" xlink:href="#i"/><radialGradient id="el" cx="0.402" cy="-0.081" r="3.655" gradientTransform="matrix(0.25, 0.806, -0.341, 0.592, -14.395, 18.479)" xlink:href="#r"/><radialGradient id="em" cx="0.42" cy="-0.026" r="3.417" gradientTransform="matrix(0.271, 0.806, -0.369, 0.592, -16.359, 21.456)" xlink:href="#r"/><radialGradient id="en" cx="0.512" cy="0.163" r="2.126" gradientTransform="matrix(0.579, 0.806, -0.789, 0.592, -45.757, 111.206)" xlink:href="#r"/><radialGradient id="eo" cx="0.244" cy="0.27" r="1.792" gradientTransform="matrix(0.752, 0.806, -1.023, 0.592, -44.264, 177.638)" xlink:href="#r"/><radialGradient id="ep" cx="0.996" cy="0.701" r="25.696" gradientTransform="matrix(-0.042, -0.017, 0.001, -0.96, 0.55, -21.942)" xlink:href="#f"/><radialGradient id="eq" cx="1.012" cy="0.094" r="25.702" gradientTransform="matrix(-0.042, -0.02, 0.001, -0.96, 0.552, -21.947)" xlink:href="#b"/><radialGradient id="er" cx="0.5" cy="0.5" r="3.668" gradientTransform="translate(0.452) scale(0.097 1)" xlink:href="#f"/><radialGradient id="es" cx="0.5" cy="0.497" r="3.666" gradientTransform="translate(0.452) scale(0.097 1)" xlink:href="#ax"/><radialGradient id="et" cx="-0.263" cy="-1.567" r="4.229" gradientTransform="translate(0.211) scale(0.579 1)" xlink:href="#f"/><radialGradient id="eu" cx="1.105" cy="-0.41" r="1.841" gradientTransform="translate(-0.341) scale(1.681 1)" xlink:href="#f"/><radialGradient id="ev" cx="-0.183" cy="0.457" r="2.261" gradientTransform="translate(0)" xlink:href="#f"/><radialGradient id="ew" cx="-0.185" cy="0.457" r="2.265" gradientTransform="matrix(1, 0, 0, 1, 0, 0)" xlink:href="#b"/><radialGradient id="ex" cx="-0.432" cy="0.357" r="2.182" gradientTransform="translate(-1.522 -0.49) scale(1.032 1.037)" xlink:href="#b"/><radialGradient id="ey" cx="-0.185" cy="0.453" r="2.74" gradientTransform="translate(-0.037) scale(0.8 1)" xlink:href="#b"/><radialGradient id="ez" cx="0.24" cy="0.546" r="0.814" gradientTransform="translate(-0.342) scale(1.684 1)" xlink:href="#e"/><radialGradient id="fa" cx="0.239" cy="0.53" r="4.289" gradientTransform="translate(0.386) scale(0.227 1)" xlink:href="#e"/><radialGradient id="fb" cx="0.239" cy="0.544" r="7.053" gradientTransform="translate(0.431) scale(0.138 1)" xlink:href="#e"/><radialGradient id="fc" cx="0.24" cy="0.546" r="0.769" gradientTransform="translate(-0.451) scale(1.901 1)" xlink:href="#e"/><radialGradient id="fd" cx="0.24" cy="0.546" r="0.743" gradientTransform="translate(-0.533) scale(2.067 1)" xlink:href="#e"/><radialGradient id="fe" cx="-0.187" cy="0.457" r="1.503" gradientTransform="translate(-0.381) scale(1.762 1)" xlink:href="#f"/><radialGradient id="ff" cx="0.499" cy="0.501" r="1.361" gradientTransform="translate(0.366) scale(0.269 1)" xlink:href="#f"/><radialGradient id="fg" cx="0.441" cy="-0.731" r="2.698" gradientTransform="matrix(1.722, -0.05, 0.069, 0.799, -0.345, -0.144)" xlink:href="#e"/><radialGradient id="fh" cx="0.45" cy="0.429" r="0.654" gradientTransform="translate(-0.386) scale(1.772 1)" xlink:href="#f"/><radialGradient id="fi" cx="0.581" cy="0.429" r="0.579" gradientTransform="translate(-2.532) scale(5.356 1)" xlink:href="#ax"/><radialGradient id="fj" cx="0.431" cy="0.43" r="0.573" gradientTransform="translate(-1.773) scale(5.111 1)" xlink:href="#ax"/><radialGradient id="fk" cx="0.561" cy="-0.743" r="2.698" gradientTransform="matrix(-1.722, -0.048, -0.066, 0.799, 8.934, -0.05)" xlink:href="#e"/><radialGradient id="fl" cx="0.548" cy="0.429" r="0.654" gradientTransform="matrix(-1.768, 0, 0, 1, 5.467, 0)" xlink:href="#f"/><radialGradient id="fm" cx="0.407" cy="0.43" r="0.581" gradientTransform="matrix(-5.423, 0, 0, 1, 94.181, 0)" xlink:href="#ax"/><radialGradient id="fn" cx="0.569" cy="0.43" r="0.573" gradientTransform="matrix(-5.11, 0, 0, 1, 103.79, 0)" xlink:href="#ax"/><radialGradient id="fo" cx="0.494" cy="0.447" r="1.489" gradientTransform="translate(0.058) scale(0.884 1)" xlink:href="#e"/><radialGradient id="fp" cx="0.723" cy="-1.119" r="2.603" gradientTransform="translate(0.046) scale(0.909 1)" xlink:href="#e"/><radialGradient id="fq" cx="0.494" cy="0.448" r="2.031" gradientTransform="translate(0.229) scale(0.542 1)" xlink:href="#f"/><radialGradient id="fr" cx="0.503" cy="-0.814" r="2.264" gradientTransform="translate(0.111) scale(0.778 1)" xlink:href="#f"/><radialGradient id="fs" cx="0.503" cy="-0.813" r="2.263" gradientTransform="translate(0.112) scale(0.778 1)" xlink:href="#ax"/><radialGradient id="ft" cx="0.503" cy="-0.813" r="2.263" gradientTransform="translate(0.111) scale(0.779 1)" xlink:href="#ax"/><radialGradient id="fu" cx="0.512" cy="-0.036" r="1.197" gradientTransform="translate(0.111) scale(0.778 1)" gradientUnits="objectBoundingBox"><stop offset="0.06" stop-color="#66b0d8"/><stop offset="0.89" stop-color="#93fcce"/></radialGradient><radialGradient id="fv" cx="0.547" cy="-0.039" r="1.276" gradientTransform="translate(0.11) scale(0.78 1)" xlink:href="#fu"/><radialGradient id="fw" cx="0.24" cy="-0.717" r="1.996" gradientTransform="translate(0.132) scale(0.735 1)" xlink:href="#fu"/><radialGradient id="fx" cx="0.073" cy="-1.198" r="2.54" gradientTransform="translate(0.151) scale(0.697 1)" xlink:href="#fu"/><radialGradient id="fy" cx="0.548" cy="-0.038" r="1.236" gradientTransform="translate(0.047) scale(0.905 1)" xlink:href="#fu"/><radialGradient id="fz" cx="0.512" cy="-0.036" r="1.395" gradientTransform="translate(0.245) scale(0.509 1)" xlink:href="#fu"/><radialGradient id="ga" cx="0.5" cy="0.5" r="0.563" gradientTransform="translate(0.097) scale(0.807 1)" xlink:href="#fu"/><radialGradient id="gb" cx="0.5" cy="0.5" r="0.872" gradientTransform="translate(0.278) scale(0.443 1)" xlink:href="#fu"/><radialGradient id="gc" cx="0.5" cy="0.5" r="0.435" gradientTransform="translate(-0.197) scale(1.393 1)" xlink:href="#fu"/></defs><g transform="translate(0.001 -0.002)"><path class="a" d="M521.22,445.79s-55.58-2.37-80.46.56-37,12.11-23.31,10.67-53.3,12.22-43.61,20.11,88.27-6.4,116.07-5.85,89.27,8.17,91.59-1.2S541.26,449.18,521.22,445.79Z" transform="translate(-341.56 -88.37)"/><path class="b" d="M374.94,307.64s-12.9,2-14.53,9.87,4.27,17.09,10.67,18.86,12,2.08,14.83-3.45S382.05,307.24,374.94,307.64Z" transform="translate(-341.56 -88.37)"/><path class="c" d="M378.59,335.46a3.86,3.86,0,0,1-1,1.55,6.4,6.4,0,0,1-.59.47,21.614,21.614,0,0,1-2.19-.25h.12a6.5,6.5,0,0,0,.69-.15,5,5,0,0,0,1.42-.66,4.241,4.241,0,0,0,1.12-1.12c.25-.36.37-.65.46-.64S378.73,335,378.59,335.46ZM367,333.71a11.782,11.782,0,0,0,1.53.19,13.409,13.409,0,0,0,3.38-.18c2.44-.4,4.52-1.7,4.42-1.84a29.926,29.926,0,0,1-4.54,1,14.457,14.457,0,0,1-3.14-.07c-.85-.12-1.4-.26-1.4-.26s-.55-.1-1.37-.34a12.6,12.6,0,0,1-1.32-.47,16.455,16.455,0,0,0,1.63,1.7A4.441,4.441,0,0,0,367,333.71Zm-6.82-13.36a18.619,18.619,0,0,0,3.48,3.86,12.852,12.852,0,0,0,1.44,1,11.77,11.77,0,0,0,3.57,1.37,9.29,9.29,0,0,0,3.8,0,3.2,3.2,0,0,0,1.57-.66c0-.08-.67.13-1.65.22a10.129,10.129,0,0,1-3.52-.34,11.21,11.21,0,0,1-3.18-1.48,14.364,14.364,0,0,1-1.29-.95s-.52-.37-1.24-1a18.139,18.139,0,0,1-2.41-2.59c-.18-.24-.36-.5-.52-.76a7.988,7.988,0,0,0-.08,1.33Z" transform="translate(-341.56 -88.37)"/><path class="d" d="M374.94,307.64S366.05,309,362.1,314a11.66,11.66,0,0,1,.08,1.89c-.23,5.71,10.34,11.65,7.52,15.61-1.11,1.56-3.08,1.29-5.07.41a13.58,13.58,0,0,0,6.45,4.47c6.4,1.78,12,2.08,14.83-3.45S382.05,307.24,374.94,307.64Z" transform="translate(-341.56 -88.37)"/><path class="e" d="M427.44,214.42s-14.53.55-21.23,22.34,12.29,112.85,34.07,117.88,82.13,14.52,99.45-10.62,35.19-98.32,16.76-118.43S444.75,204.36,427.44,214.42Z" transform="translate(-341.56 -88.37)"/><path class="f" d="M427.44,214.42s-14.53.55-21.23,22.34,12.29,112.85,34.07,117.88,82.13,14.52,99.45-10.62,35.19-98.32,16.76-118.43S444.75,204.36,427.44,214.42Z" transform="translate(-341.56 -88.37)"/><path class="g" d="M539.73,344l.35-.52c-4.74-2.73-4.35-17.44-3.9-25.91,1.13-21.08-.3-70.92,18.81-93.44-21.47-18.72-110.66-19.54-127.55-9.73,0,0-11.17.43-18.44,15.21,4.11,1.67,7.89,6,9.75,15.26,5.24,26.21,17.36,69.61,14,88.23-.6,3.33-4,5.36-5.93,7.8,4.21,7.54,8.78,12.63,13.48,13.72C462.07,359.67,522.41,369.16,539.73,344Z" transform="translate(-341.56 -88.37)"/><path class="h" d="M424.94,267.15c-.22-1.38-3.14-1.73-7.27-.72h0l-.21.06-.87.23-.37.11c-.36.11-.72.22-1.09.35a6.458,6.458,0,0,0-1.15-1c-2.28-1.57-5.56-1.21-8.36.6.79,5.69,1.64,11.41,2.75,17.06a11.65,11.65,0,0,0,5.83-4.31c.2-.26.39-.54.58-.82a14.882,14.882,0,0,0,.75-1.35l.09-.19a13.812,13.812,0,0,0,.55-1.33.9.9,0,0,1,.08-.25c.03-.09.13-.42.19-.63C421.5,271.68,425.23,268.89,424.94,267.15Zm-8.21,6.57c0-.3.08-.6.1-.9v-.15a8.657,8.657,0,0,0,0-1.35.489.489,0,0,0,0-.12,7.17,7.17,0,0,0-1-3.2c3.38-.93,5.76-.75,6,.38S419.87,271.48,416.73,273.72Z" transform="translate(-341.56 -88.37)"/><path class="i" d="M414.07,265.27c-2.33-1.61-5.71-1.21-8.55.69.79,5.68,1.62,11.39,2.7,17a12,12,0,0,0,6.65-5.2C417.71,273.31,417.8,267.69,414.07,265.27Z" transform="translate(-341.56 -88.37)"/><path class="j" d="M409.3,280c-.41.33-1.32.6-1.59.13a.291.291,0,0,1,0-.14.46.46,0,0,1,.15-.3,1.24,1.24,0,0,1,.6-.35c.29-.08,1.18-.38,1.19.15A.75.75,0,0,1,409.3,280Z" transform="translate(-341.56 -88.37)"/><path class="k" d="M414.26,270.11c.24-.51.81-1,1.26-.76a1.871,1.871,0,0,1,.65,1.53,3.54,3.54,0,0,1-.71,2.41,1.1,1.1,0,0,1-.74.44.65.65,0,0,1-.33-.11,1.73,1.73,0,0,1-.68-1.54,5.17,5.17,0,0,1,.55-1.97Z" transform="translate(-341.56 -88.37)"/><path class="l" d="M414.17,276a2.67,2.67,0,0,1,.85-1.37.2.2,0,0,1,.3.14.71.71,0,0,1-.1.44c-.2.43-.34.95-.84,1-.09,0-.18,0-.21-.08a.29.29,0,0,1,0-.13Z" transform="translate(-341.56 -88.37)"/><path class="m" d="M414.28,268.27c-.14-.23-.26-.84.12-1.08a.4.4,0,0,1,.42,0,1,1,0,0,1,.61.74.85.85,0,0,1-.05.54.41.41,0,0,1-.28.25.381.381,0,0,1-.15,0A1.11,1.11,0,0,1,414.28,268.27Z" transform="translate(-341.56 -88.37)"/><path class="n" d="M415.45,266.54a8.15,8.15,0,0,1-1.18,4.71,7.311,7.311,0,0,1-1.55,2,4.69,4.69,0,0,1-2.81,1.11,4.14,4.14,0,0,0-2,.28,2.93,2.93,0,0,0-1,.95q.58,3.74,1.29,7.44a12,12,0,0,0,6.65-5.2C417.29,274,417.72,269.36,415.45,266.54Z" transform="translate(-341.56 -88.37)"/><path class="o" d="M410.85,279.65c-1.2,0,.57-5.33-1.61-8.82s4.87-4.26,2.81-5.95c0,0-1.75-1.07-5.71,1.05-.26.15-.51.31-.76.47.2,1.45.41,2.9.62,4.35h0c2.73-2.2,4.67,9,2.8,10.13a8.209,8.209,0,0,1-1.12.55c.06.37.13.73.2,1.09a12.561,12.561,0,0,0,6.1-4.73C416,274.48,411.92,279.6,410.85,279.65Z" transform="translate(-341.56 -88.37)"/><path class="p" d="M412.18,265.25a6.35,6.35,0,0,0-5.2.43,9,9,0,0,0-1.39.77q.36,2.63.75,5.26c2.26-1.95,3.79-1.84,5.36-2.25S414.78,266.35,412.18,265.25Z" transform="translate(-341.56 -88.37)"/><path class="q" d="M408.38,265.76c1.16-.29,2.06,0,2,.57s-1,1.27-2.14,1.56-2,.07-2-.52S407.22,266,408.38,265.76Z" transform="translate(-341.56 -88.37)"/><path class="r" d="M415.09,266.29a4,4,0,0,1,.66.8c3.43-.95,5.85-.78,6.07.36.36,1.93-5.4,5.77-11.84,9.83l-2.52,1.52.15.87,2.61-1.59c7.87-5,15.19-9.45,14.79-11.85C424.74,264.56,420.58,264.39,415.09,266.29Z" transform="translate(-341.56 -88.37)"/><path class="s" d="M417.12,266.19c-.15-.17.13-.42.63-.69a25.916,25.916,0,0,0-2.66.79,4,4,0,0,1,.66.8c3.43-.95,5.85-.78,6.07.36.36,1.93-5.4,5.77-11.84,9.83l-2.52,1.52v.21c2.22-1.31,4.41-2.64,6.16-3.66,4.13-2.58,7.06-5,8.46-7.27S417.73,266.79,417.12,266.19Z" transform="translate(-341.56 -88.37)"/><path class="t" d="M420.45,265.31s4.38-.57,4.33,1.07-3.2,4.08-4.26,4.32,2.39-2.43,2.43-3.65S418.57,265.68,420.45,265.31Z" transform="translate(-341.56 -88.37)"/><path class="u" d="M79.47,204.95Z"/><path class="v" d="M533.66,295.67l-1.55-.31-.44-.09-1.08-.2-.44-.09-1.24-.22h-.18l-1.35-.24-.36-.06-.94-.15-.4-.06-.94-.15h-.24l-.74-.11a3.9,3.9,0,0,0,0-1,2.936,2.936,0,0,0,0-.84,4.58,4.58,0,0,0-1-2c13.35-6.77,23.21-17.48,27.14-31.91h0c2.2-.11,6.37-3.19,9-7.53h0a1.14,1.14,0,0,0,.1-.19c.16-.25.3-.5.44-.76.17-1.12.36-2.24.55-3.37.09-.59.16-1.17.21-1.73v-3.34c0-.3-.05-.81-.08-1.21v-.44h0c-.12-.66-.25-1.31-.4-2h0c-.14-.64-.3-1.27-.47-1.91h0a19,19,0,0,0-8-7h-.1l-.65-.26-.24-.08-.5-.15h0q-.39-1.5-.84-3h0a62.579,62.579,0,0,0-2.22-6c-30.17-13.75-104.13-13.55-119.35-4.7a15.06,15.06,0,0,0-4.73,1.23,63.217,63.217,0,0,0-4.81,13.08,19.1,19.1,0,0,0-7.75,6.89h0c-.16.64-.32,1.27-.46,1.91h0c-.15.66-.29,1.31-.4,2h0c-.09,1-.14,2-.14,3v.34a6.636,6.636,0,0,0,.05,1,3.063,3.063,0,0,1,0,.68,10.6,10.6,0,0,0,.21,1.73c.18,1.13.37,2.25.54,3.37.14.27.29.52.45.78l.1.17h0a19.006,19.006,0,0,0,1.35,1.93h-.05q-.44.31-.87.66l-.29.23-1,.8c-1.45,1.19-3,2.54-4.46,4,.18,2.61.44,5.35.76,8.19a53.45,53.45,0,0,1,10.34-9.72,10.46,10.46,0,0,0,1.48.85c.14.55.27,1.11.42,1.65a49.627,49.627,0,0,0,1.95,5.54,47.451,47.451,0,0,0,7.35,12,50.232,50.232,0,0,0,5.95,6c.72.61,1.46,1.21,2.22,1.79a59.109,59.109,0,0,0,9.11,5.67,4.911,4.911,0,0,0-.57,1.34,4.46,4.46,0,0,0-.15,1.25c0,.09,0,.18,0,.28a7,7,0,0,0,.32,2.49c-.74.32-1.53.68-2.37,1.07h-.05c-.9.42-1.86.89-2.87,1.4h0l-1.91,1a11.44,11.44,0,0,0-5.52-4.79,21,21,0,0,0-10.63-1h0c-1,.11-2,.25-2.94.39l-1.5.21a20.611,20.611,0,0,1-5.91.19q.69,3.08,1.45,6.13h4.11l1.32-.16h0l1.46-.2c1.34-.2,2.65-.38,3.93-.49h2.85a10.177,10.177,0,0,1,1.11.12h.33l.83.17.33.09a8.738,8.738,0,0,1,1.09.37,5.42,5.42,0,0,1,2.59,2.17c-2.46,1.47-5.12,3.16-8,5.1a42.879,42.879,0,0,1-8.85,4.26c3.71,12.57,8.2,24,13.14,32,.63-.21,1.27-.43,1.89-.66a14.78,14.78,0,0,0,6.48,3.45l-.36,2.37a1,1,0,0,1,0,.17c-.12.88-.24,1.75-.35,2.63l-.06.46-.06.51a11.86,11.86,0,0,0,4.47,2.25c21.79,5,82.13,14.52,99.45-10.62,6.26-9.09,12.6-24.48,17.27-41.37a129.642,129.642,0,0,0-23.34-7Zm-95.84,43.72a2.738,2.738,0,0,1-.05.28l-.12.65c-.34-.11-.67-.23-1-.37l1.17-.62Zm107.11-5h0l-.1.09h0c-.05.05-.1.11-.17.17h0l-.22.22h0l-.61.64h0l-.36.38h0c-.92,1-2.17,2.39-3.56,4.1-.3.37-.61.75-.92,1.15-.15.19-.31.39-.46.6-.43.55-.85,1.12-1.28,1.7h0c-.09.13-.19.26-.28.4h0c-.11.17-.23.33-.34.49l-.48.69-.14.21h0c-.15.22-.3.43-.44.65h0c-.41.61-.82,1.24-1.21,1.89h0l-.17.28h0c-.05-.31-.1-.62-.16-.92h0c-.13-.7-.25-1.4-.38-2.09h0c-.61-3.23-1.26-6.35-1.94-9.34L545,334.35Z" transform="translate(-341.56 -88.37)"/><path class="w" d="M393.77,471.63a2.39,2.39,0,0,1-2.13-2.11L342.32,121.6a2.53,2.53,0,0,1,2-2.9,2.34,2.34,0,0,1,2.66,2.09L396.3,468.71a2.53,2.53,0,0,1-2,2.89,2.361,2.361,0,0,1-.53.03Z" transform="translate(-341.56 -88.37)"/><path class="x" d="M346.94,120.79h0a2.54,2.54,0,0,0-1.81,2.85l49.32,347.92h0a2.55,2.55,0,0,0,1.81-2.85Z" transform="translate(-341.56 -88.37)"/><path class="y" d="M341.56,125.46c-.24.1,34.75-26.14,80.48-35.39,46-8.49,41.88,17.65,41.63,17.14,0,.16,22.52-2,48.7-1.55,26.06.06,55.79,2.82,67.41,2.69q-15.45,13-30,26.67,10.56,13.46,19.91,27.35a433.4,433.4,0,0,0-107.5-8.66q-7.5.81-14.86,1.86c.09-4.12-.1-10.64-.06-14.77,0-1.58-72.36,3.85-97.18,36.88C348.29,159.94,344,143.17,341.56,125.46Z" transform="translate(-341.56 -88.37)"/><path class="z" d="M461,146.65c7.12-8.14-13.79-5.85-13.79-5.85,0,4.13.15,10.65.06,14.77l1.15-.15C450.32,153.94,457.75,150.39,461,146.65Z" transform="translate(-341.56 -88.37)"/><path class="aa" d="M463.67,107.21,462.4,142.8s-5.11-4.63-15.17-2c0,4.13.15,10.65.06,14.77q7.36-1,14.86-1.86a433.4,433.4,0,0,1,107.5,8.66Q560.3,148.5,549.74,135q14.58-13.67,30-26.67c-11.62.13-41.35-2.63-67.41-2.69-26-.49-48.34,1.68-48.68,1.55h0Z" transform="translate(-341.56 -88.37)"/><path class="ab" d="M371.78,139.35c1,3,7.11,1.55,16.33-1.94a9.545,9.545,0,0,0,.84.71c6.07,4.23,14.64,2.17,21.52-4.43q.69-.66,1.35-1.38a27,27,0,0,0,1.83-2.35,4.155,4.155,0,0,0,.24-.34,24,24,0,0,0,1.44-2.36c.08-.14.15-.29.23-.44.19-.38.38-.76.55-1.14,10.59-4.74,18.53-8.93,18.5-12.31,0-2.7-5.44-4.25-13.6-3.57h-.41l-1.72.18-.74.1c-.71.09-1.43.2-2.18.33a11.2,11.2,0,0,0-1.89-2.21c-6-5.73-18-3.37-24.92,5.49a22.87,22.87,0,0,0-4.81,10.1c-.85.61-1.66,1.22-2.44,1.84-.53.41-1,.83-1.51,1.24l-.77.66c-.6.53-1.17,1.05-1.7,1.57l-.06.05C373.45,133.46,371.22,137.31,371.78,139.35Zm45.15-27.15c6.71-.74,11.18.32,11.25,2.53s-4.51,5.33-11.18,8.64c.19-.56.35-1.11.48-1.67a.448.448,0,0,1,.07-.29,19.076,19.076,0,0,0,.38-2.56v-.24a13.851,13.851,0,0,0-1-6.41Zm-39.71,23.57c-.45-1.91,2.06-5.56,6.85-9.49a16,16,0,0,0,.73,5.95h-.07a13,13,0,0,0,1.28,2.69l.08.12a9.158,9.158,0,0,0,.61.88C381.31,137.51,377.79,137.8,377.22,135.77Z" transform="translate(-341.56 -88.37)"/><path class="ac" d="M389.36,136.38c6.48,4.51,15.8,1.86,22.87-5.82,6.77-7.67,8.63-18.34,2.27-24.07-6-5.73-18-3.38-24.92,5.49C382.34,120.89,383.17,131.84,389.36,136.38Z" transform="translate(-341.56 -88.37)"/><path class="ad" d="M388.66,131.59a2.09,2.09,0,0,1,.68-2.25,4.58,4.58,0,0,1,4.25-.76,3.78,3.78,0,0,1,1.81,3.1,2.32,2.32,0,0,1-.37,1.93,1.89,1.89,0,0,1-1.41.61,6.32,6.32,0,0,1-3.4-1.08A3.18,3.18,0,0,1,388.66,131.59Z" transform="translate(-341.56 -88.37)"/><path class="ae" d="M395.21,136.69c-.42-.41-.16-1.23.45-1.58a2.24,2.24,0,0,1,.88-.27,3.84,3.84,0,0,1,1.82,0,.71.71,0,0,1,.53.51,1,1,0,0,1-.12.6,2.17,2.17,0,0,1-1.44,1.14,3.06,3.06,0,0,1-1.57-.14A1.37,1.37,0,0,1,395.21,136.69Z" transform="translate(-341.56 -88.37)"/><path class="af" d="M401,133c-.89.51-2.69.74-3.06-.22a.64.64,0,0,1,0-.28,1,1,0,0,1,.38-.54,2.41,2.41,0,0,1,1.24-.47c.58-.07,2.37-.37,2.21.65a1.37,1.37,0,0,1-.77.86Z" transform="translate(-341.56 -88.37)"/><path class="ag" d="M413.4,115.77c.62-.9,1.84-1.64,2.64-1.06s.92,2,.77,3.09a6.86,6.86,0,0,1-2.09,4.38,2.08,2.08,0,0,1-1.53.6,1.26,1.26,0,0,1-.6-.3,3.33,3.33,0,0,1-.82-3.14,9.66,9.66,0,0,1,1.63-3.57Z" transform="translate(-341.56 -88.37)"/><path class="ah" d="M411.45,127a5.19,5.19,0,0,1,2-2.34.38.38,0,0,1,.53.36,1.451,1.451,0,0,1-.32.8c-.53.75-.94,1.7-1.93,1.7-.16,0-.33,0-.37-.21a.61.61,0,0,1,.09-.31Z" transform="translate(-341.56 -88.37)"/><path class="ai" d="M414,112.26c-.2-.47-.26-1.67.54-2a.82.82,0,0,1,.81.12,1.94,1.94,0,0,1,.93,1.6,1.62,1.62,0,0,1-.25,1,.86.86,0,0,1-.61.4.69.69,0,0,1-.29-.07,2,2,0,0,1-1.13-1.05Z" transform="translate(-341.56 -88.37)"/><path class="aj" d="M416.75,109.34c3.45,6,1.25,14.67-4.52,21.22-7.07,7.68-16.39,10.33-22.87,5.82a11.9,11.9,0,0,1-4.22-5.94c1.05,1.18,2.91,1.47,4.68,1.35a5.74,5.74,0,0,0,3.62-1.32,8.26,8.26,0,0,0,1.57-2.16,32.545,32.545,0,0,1,2-3.43,6.7,6.7,0,0,1,2.95-2.49c1.37-.48,2.63-.08,3.9.07a9.06,9.06,0,0,0,5.69-1.24,14.25,14.25,0,0,0,3.53-3.28C415.13,115.35,416.65,112.18,416.75,109.34Z" transform="translate(-341.56 -88.37)"/><path class="ak" d="M410.79,105.15s-3-2.58-11.19.27-13,10.9-11.62,12.51,4.22,0,10-3.44,6.15,18.58,2.27,20.12-7.2.93-5.86,2.64,12.14-1.37,16.63-6.94c4.32-5.72-4.92,2.8-7,2.57-2.29-.31,2.7-10-.41-17.27S414.19,109,410.79,105.15Z" transform="translate(-341.56 -88.37)"/><path class="al" d="M400.91,105.14s5.42-2.12,10,.75,1.09,7.56-2.19,7.86-6.37-.47-11.87,3.3-7.45,7.72-9.52,4.35S391.52,107.43,400.91,105.14Z" transform="translate(-341.56 -88.37)"/><path class="am" d="M403.54,105.7c2.28-.19,3.93.6,3.67,1.7s-2.29,2.11-4.54,2.32-3.9-.47-3.68-1.59S401.25,105.9,403.54,105.7Z" transform="translate(-341.56 -88.37)"/><path class="an" d="M396.23,108c1-.43,1.94-.39,2,.08s-.77,1.2-1.81,1.63-1.93.41-2-.06S395.18,108.39,396.23,108Z" transform="translate(-341.56 -88.37)"/><path class="ao" d="M372.19,137.61c-.79-2.9,3.93-9.43,12.84-15.72a12.311,12.311,0,0,0-.29,2.42c-5,4-7.57,7.77-7.11,9.72,1,3.64,11.57-.18,25.46-5.92,13.48-5.78,25.6-11.33,25.5-15.12-.07-2.24-4.62-3.3-11.43-2.51a7.881,7.881,0,0,0-1-1.74c11-1.95,18.88-.36,18.88,2.89,0,4.7-15.23,10.92-31.7,18.06C386.21,136.76,373.61,142.08,372.19,137.61Z" transform="translate(-341.56 -88.37)"/><path class="ap" d="M379.94,136.8c-7.24,1.38-2.86-4.39-2.17-7,.18-.77-.34-.87-1.17-.62a54.09,54.09,0,0,1,8.43-7.28,12.313,12.313,0,0,0-.29,2.42c-5,4-7.57,7.77-7.11,9.72,1,3.64,11.57-.18,25.46-5.92,13.48-5.78,25.6-11.33,25.5-15.12-.07-2.24-4.62-3.3-11.43-2.51a7.881,7.881,0,0,0-1-1.74c1.86-.33,3.64-.56,5.3-.7-1,.38-1.64.77-1.4,1.14,1,1.31,12.28,1.07,8.91,5.1s-9.66,7.6-18.28,11.27C401.69,129,387.06,135.31,379.94,136.8Z" transform="translate(-341.56 -88.37)"/><path class="aq" d="M426.63,108.51c0-.07,8.5.23,7.92,3.33s-7.33,6.8-9.41,6.94,5.28-3.89,5.72-6.21S422.94,108.63,426.63,108.51Z" transform="translate(-341.56 -88.37)"/><path class="ar" d="M372.52,136.73a10,10,0,0,1,3.24-5.63c1.85-1.51-1.9,3.27-1.13,5.32s5.69.1,4,1.59S372.26,139.27,372.52,136.73Z" transform="translate(-341.56 -88.37)"/><path class="as" d="M525.7,155.58c-4.26-.45-8.51-.82-12.75-1.14l25.43-48c4.51.21,8.93.45,13.13.69Zm-24.61-1.85,25.82-47.8c-4.88-.16-9.77-.26-14.54-.27-4.61-.08-9.11-.09-13.39,0l-26.6,47.75q14.22-.34,28.71.32ZM397,97a228.377,228.377,0,0,0-28.71,12.33l-18.45,66.52c.07.61.14,1.23.2,1.84,7.39-9.84,19-17.23,31.68-22.72Zm24.63-6.84q-6.75,1.38-13.16,3.22L394,150.3c4.43-1.48,8.87-2.75,13.19-3.85Z" transform="translate(-341.56 -88.37)"/><path class="at" d="M434.17,91.74s16.56-6.6,26,7.23c-1.77-.4-3.7-1.42-5-.19-2.81,2.64-1.84,7-1.7,10.32l.51,11.78a45.71,45.71,0,0,0,1.86,11.76c1.11,3.46,1.86,5.08,4.68,7.42,0,0-19.72-5.58-36.16,0,3.3-1.12,6.55-2.27,9.92-3.19,5.48-1.49,14-2.39,15.5-9.28.81-3.7.46-7.56.25-11.31q-.36-6.51-.73-13c-.19-3.5-.6-9.16-5-9.92C440.87,92.78,437.52,92.28,434.17,91.74Z" transform="translate(-341.56 -88.37)"/><path class="au" d="M454.8,291.28s-9.67,2.09-26,13.25c-8.41,5.75-33.66,11.81-45,9.8s-16,19.59,3,25.35,54.24,2.44,64.9-14S462.13,293,454.8,291.28Z" transform="translate(-341.56 -88.37)"/><path class="av" d="M426.77,318.8a101.016,101.016,0,0,0,.14-11.14c-9.31,4.56-24.9,7.53-24.9,7.53s5.18,7.48,3.25,14.24a97.9,97.9,0,0,0,21.51-10.63Z" transform="translate(-341.56 -88.37)"/><path class="aw" d="M431.29,305a13.986,13.986,0,0,1-1.32,1,96.1,96.1,0,0,1,.08,10.6c7.17-5.18,14.27-12,18.84-20.76C448.89,295.78,438.69,298.94,431.29,305Z" transform="translate(-341.56 -88.37)"/><g class="ax"><path class="ay" d="M395.58,320H395v-1.72c.18,0,17.44.25,29.79-6.07,4-2.07,7.86-4.41,11.55-6.66,7.93-4.84,14.76-9,20.22-8.29l-.24,1.7c-4.82-.64-11.4,3.39-19,8-3.72,2.28-7.57,4.63-11.67,6.73C414,319.62,398.76,320,395.58,320Z" transform="translate(-341.56 -88.37)"/></g><path class="az" d="M395.31,318.87h-.58v-1.72c.17,0,17.43.25,29.78-6.08,4-2.07,7.86-4.4,11.56-6.66,7.92-4.83,14.76-9,20.22-8.28l-.24,1.7c-4.82-.64-11.41,3.38-19,8-3.73,2.27-7.58,4.63-11.67,6.72C413.76,318.55,398.48,318.87,395.31,318.87Z" transform="translate(-341.56 -88.37)"/><path class="ba" d="M454.8,291.28s-4.26.92-11.89,4.8c2,3.35,3.86,7.55,3.34,10.91-1,6.68-7.72,24.37-28.67,21.7-14.77-1.88-12.37-11.16-9.68-16.46-7.67,1.76-15.66,2.8-21.43,2.4-7.47,5.11-8.65,12.75-7.62,20.69a20.5,20.5,0,0,0,8,4.36c19,5.76,54.24,2.44,64.9-14S462.13,293,454.8,291.28Z" transform="translate(-341.56 -88.37)"/><path class="bb" d="M391.36,314.57s-6.88-6.88-15.52-6.31-13,10.7-9.44,14.14,7.47-1.14,7.47-1.14a10.36,10.36,0,0,0-.19,9.36c2.35,5.35,12.77,11.85,24.95,12,0,0,9.83-12.23-.19-28.66Z" transform="translate(-341.56 -88.37)"/><g class="bc"><path class="bd" d="M377,318.61a5,5,0,0,1-1.23,1.74,11.11,11.11,0,0,1-4,2.61,10.149,10.149,0,0,1-2.56.61,4.53,4.53,0,0,1-2.4-.36,3.24,3.24,0,0,1-1.35-1.19,4.074,4.074,0,0,1-.32-.56s-.09-.22-.22-.6a6.922,6.922,0,0,1-.27-1.61,8.29,8.29,0,0,1,1.29-4.61,14.7,14.7,0,0,1,3.17-3.51,7.808,7.808,0,0,1,1.75-1.23,11,11,0,0,1-1.45,1.54,15.541,15.541,0,0,0-2.79,3.57,7.68,7.68,0,0,0-.95,4.18,5.541,5.541,0,0,0,.29,1.35c.12.31.2.48.2.48a2.6,2.6,0,0,0,.22.45,2.37,2.37,0,0,0,.89.86,3.77,3.77,0,0,0,1.88.35,9.68,9.68,0,0,0,2.36-.44,11.4,11.4,0,0,0,4-2.19C376.43,319.24,376.94,318.56,377,318.61Z" transform="translate(-341.56 -88.37)"/><path class="be" d="M382.07,338.47a15.48,15.48,0,0,1-4.42-2.58,18.13,18.13,0,0,1-2.58-2.45,12.941,12.941,0,0,1-1-1.29,12.379,12.379,0,0,1-.74-1.45,11.571,11.571,0,0,1-.92-3.42,9,9,0,0,1,.32-3.5,3.129,3.129,0,0,1,.7-1.42,11,11,0,0,1-.28,1.52,9.67,9.67,0,0,0,0,3.3,11.9,11.9,0,0,0,1.06,3.11,11.3,11.3,0,0,0,.76,1.29,13.663,13.663,0,0,0,.85,1.25,18.36,18.36,0,0,0,2.28,2.48C380,337,382.16,338.33,382.07,338.47Z" transform="translate(-341.56 -88.37)"/><path class="bf" d="M393.14,323.62a13.694,13.694,0,0,1-.63-2.54,21.811,21.811,0,0,0-.8-2.42,19.379,19.379,0,0,0-.87-2.4,16.582,16.582,0,0,1-1.07-2.39c.12-.09,1.05.89,1.77,2a15.374,15.374,0,0,1,1.22,2.41,15.843,15.843,0,0,1,.52,2.64,5.77,5.77,0,0,1-.14,2.7Z" transform="translate(-341.56 -88.37)"/><path class="bg" d="M394.89,321.36c-.14.06-.65-.78-1.21-1.57s-1.13-1.56-1.13-1.56-.48-.83-1-1.65-1.11-1.6-1-1.71.91.52,1.61,1.24a18.59,18.59,0,0,1,1.33,1.53,16.564,16.564,0,0,1,.89,1.79A4.477,4.477,0,0,1,394.89,321.36Z" transform="translate(-341.56 -88.37)"/></g><path class="bh" d="M399.28,320.15c-.11,15.15-11,19.72-7.79,13.08,2.54-5.29,1.11-15,.41-18.7h-.54a25.63,25.63,0,0,0-6.37-4.35,22.42,22.42,0,0,1,1.48,4.74c1.92,9.75-4.81,20.55-9.4,14.63s1.92-13.8,1.92-13.8-4.16,3.53-9.29,3.21c-3.09-.18-2-4.45-.69-7.8-3.77,3.41-5,8.86-2.61,11.2,3.54,3.44,7.47-1.14,7.47-1.14a10.36,10.36,0,0,0-.19,9.36c2.35,5.35,12.77,11.85,24.95,12,0,0,8.76-10.91,1.29-26a9.93,9.93,0,0,0-.64,3.57Z" transform="translate(-341.56 -88.37)"/><path class="bi" d="M396.8,314.25c1.37,3,4.45,10.44,3.76,15.6-.59,4.49-3.4,9.14-5.14,11.67q2.49.35,5.13.54c1.77-2.62,8.11-13.75-.62-28.06Z" transform="translate(-341.56 -88.37)"/><path class="bj" d="M393.47,342.18a34.72,34.72,0,0,0,5.16.48s9.83-12.23-.19-28.66l-3.13.25c1.37,3,4.45,10.44,3.76,15.6C398.42,334.76,395.11,339.89,393.47,342.18Z" transform="translate(-341.56 -88.37)"/><path class="bk" d="M393.47,342.18a34.72,34.72,0,0,0,5.16.48,23.69,23.69,0,0,0,4.28-15c-.25,3.46-1.29,6.09-2.8,6.77-2.23,1,.28-4,0-7.84-.23-3.14-3.08-10-4.14-12.42l-.66.05c1.37,3,4.45,10.44,3.76,15.6C398.42,334.76,395.11,339.89,393.47,342.18Z" transform="translate(-341.56 -88.37)"/><path class="bl" d="M516.31,291.43s59.17,5.26,60,34S552,358.29,552,358.29s8.92,2.43,7.7,10.53-17.42,10.13-29.17-2c-12.85-13.3,11.34-36.88,11.34-36.88l-14.58,1.62S510.64,304.39,516.31,291.43Z" transform="translate(-341.56 -88.37)"/><path class="bm" d="M559.94,314.57a16.639,16.639,0,0,1,.65,5,101.368,101.368,0,0,1,10.4-4.38c-6.47-13.94-35.56-18.62-35.56-18.62S556.24,301.85,559.94,314.57Z" transform="translate(-341.56 -88.37)"/><path class="bn" d="M560,323.54c-2.12,8.47-9.58,14.62-9.58,14.62l16,8.33c4.59-6.44,9-12.19,5.61-28.14A100.434,100.434,0,0,0,560,323.54Z" transform="translate(-341.56 -88.37)"/><path class="bo" d="M530.5,366.8c11.75,12.15,28,10.13,29.17,2s-7.7-10.53-7.7-10.53,22.26-3.6,24.19-28c-6.79,12.31-24.66,22.27-30.83,12.73-6.86-10.63,9.16-21.26,9.16-21.26s-8.83,1.48-20.11-5.55c-7.81-4.87-5.35-16-3.1-22.41a143.933,143.933,0,0,0-15-2.34c-5.67,13,11,40.11,11,40.11l14.58-1.62S517.65,353.5,530.5,366.8Z" transform="translate(-341.56 -88.37)"/><g class="ax"><path class="bp" d="M553.74,351.43l-1.23-1.4c3.6-3.15,8.73-8.06,11.69-14.27,2.87-6,3.23-12.43,1-17.57-2.15-4.95-6.37-8.14-9.53-10a53.392,53.392,0,0,0-13.42-5,216.194,216.194,0,0,0-24.56-5.09l.28-1.85a220.4,220.4,0,0,1,24.77,5.14c5.37,1.44,9.79,2.88,13.86,5.22,3.41,1.95,8,5.42,10.31,10.84,2.45,5.64,2.08,12.61-1,19.12S557.47,348.17,553.74,351.43Z" transform="translate(-341.56 -88.37)"/></g><path class="bq" d="M553.9,350.33l-1.23-1.41c3.6-3.15,8.73-8.06,11.69-14.26,2.87-6,3.23-12.43,1-17.58-2.15-4.94-6.37-8.14-9.53-9.95a54.732,54.732,0,0,0-13.42-5,216.227,216.227,0,0,0-24.56-5.1l.27-1.85a220.094,220.094,0,0,1,24.78,5.14c5.37,1.45,9.78,2.89,13.86,5.23,3.41,1.95,8,5.41,10.31,10.83,2.45,5.64,2.08,12.61-1,19.12S557.63,347.07,553.9,350.33Z" transform="translate(-341.56 -88.37)"/><path class="br" d="M535.62,337.08a60,60,0,0,0-5.15,7.86l9.7,6.84a130.5,130.5,0,0,0,12.3,6.41,32.219,32.219,0,0,0,12-5.57C558.12,341.6,542.45,338.1,535.62,337.08Z" transform="translate(-341.56 -88.37)"/><path class="bj" d="M556,360.29a13.76,13.76,0,0,0-4-2,31.3,31.3,0,0,0,10.69-4.41c-5.86-11.3-22-14.55-28.1-15.38a56.24,56.24,0,0,0-4.48,7.19l9.43,6.64S548.8,357.91,556,360.29Z" transform="translate(-341.56 -88.37)"/><path class="bk" d="M552,358.29a31.3,31.3,0,0,0,10.69-4.41,19.777,19.777,0,0,0-2.39-3.56c0,1.25-.78,1.81-3.31.33-6.64-3.88-9.27-4.75-16.53-8-3.52-1.58-1.45-2.3,1.62-2.63a60.313,60.313,0,0,0-7.49-1.51,56.242,56.242,0,0,0-4.48,7.19l9.43,6.64s9.29,5.58,16.47,8a13.76,13.76,0,0,0-4.01-2.05Z" transform="translate(-341.56 -88.37)"/><path class="bs" d="M531.84,342.56c-4.71,7.7-8,17.35-1.34,24.24,11.75,12.15,28,10.13,29.17,2s-7.7-10.53-7.7-10.53a30,30,0,0,0,7.68-2.69C551.74,345.08,536.24,343,531.84,342.56Z" transform="translate(-341.56 -88.37)"/><path class="bt" d="M528.8,348.68c-2.33,5.91-3.12,12.15,0,17.38,8.1,1.15,19.8-.69,19.91-6.18C548.8,353.21,532.65,349.48,528.8,348.68Z" transform="translate(-341.56 -88.37)"/><path class="bu" d="M528.68,348.68c-2.2,5.35-2.94,11,0,15.74,7.66,1,18.72-.63,18.82-5.6C547.6,352.78,532.33,349.4,528.68,348.68Z" transform="translate(-341.56 -88.37)"/><path class="bv" d="M528.68,348.68c-.28.7-.54,1.4-.77,2.1,5.6,1.32,16.35,4.52,16.25,9.59a4,4,0,0,1-1.94,3.14c3-1,5.21-2.51,5.25-4.69C547.6,352.78,532.33,349.4,528.68,348.68Z" transform="translate(-341.56 -88.37)"/><path class="bw" d="M552.78,357.76c-.82,0-1.61-.07-1.61-.07s-.8.07-1.62.07-1.65-.06-1.69.1.74.51,1.59.72a10.633,10.633,0,0,0,1.72.28,11,11,0,0,0,1.68-.27,9.2,9.2,0,0,0-.88-.3,20.776,20.776,0,0,0,2.2-.54C553.85,357.73,553.31,357.76,552.78,357.76Z" transform="translate(-341.56 -88.37)"/><path class="bx" d="M556.21,368.87a12.7,12.7,0,0,1-2.93.19,12.511,12.511,0,0,1-2.94-.28c-1.46-.3-2.81-1-2.9-.89a5.72,5.72,0,0,0,2.67,1.69,8.56,8.56,0,0,0,6.32.09,5.71,5.71,0,0,0,2.72-1.61C559.06,367.92,557.68,368.61,556.21,368.87Z" transform="translate(-341.56 -88.37)"/><path class="by" d="M551.26,374.28a41.638,41.638,0,0,1-7.88-1.56c-1.92-.63-3.72-1.6-3.81-1.46a10.829,10.829,0,0,0,3.51,2.23,23.109,23.109,0,0,0,4,1.35,23.6,23.6,0,0,0,4.19.27,13.138,13.138,0,0,0,1.56-.12,12.668,12.668,0,0,0,2.08-.67C554.18,374.31,552.72,374.39,551.26,374.28Z" transform="translate(-341.56 -88.37)"/><path class="bz" d="M559.67,368.82c1.22-8.1-7.7-10.53-7.7-10.53a30,30,0,0,0,7.68-2.69,24.817,24.817,0,0,0-2.54-2.86c-1.23,3.85-12.67,3.42-12.67,3.42s8.76,4.13,11.14,7.14-3.5,11.64-14.15,6.76-8.63-16-5.38-20.28c2.19-2.86,7.83-3.35,11.29-3.36a53,53,0,0,0-15.5-3.86c-4.71,7.7-8,17.35-1.34,24.24C542.25,379,558.46,376.93,559.67,368.82Z" transform="translate(-341.56 -88.37)"/><path class="ca" d="M553,325.68a21.06,21.06,0,0,0-9.29,3.18c-.71.42-1.37.88-2,1.31l.61-.52A65.627,65.627,0,0,1,552,323.3c2.55-1.33,5.3-2.28,5.25-2.44a20,20,0,0,0-5.61,1.69,39.444,39.444,0,0,0-5.21,2.74,40.708,40.708,0,0,0-4.54,3.75c-.34.33-.66.66-1,1l1-.11s-.72.71-1.86,1.95c.36-.09,2.17-1.33,4.16-2.28a32.7,32.7,0,0,1,4.45-1.76,33.411,33.411,0,0,1,4.59-1.33c2.35-.51,4.77-.61,4.77-.78A14.189,14.189,0,0,0,553,325.68Z" transform="translate(-341.56 -88.37)"/><path class="cb" d="M454.84,287.84s-15.74,40-16.19,75.54,15.29,83.18,15.29,83.18-23.83,1.8-23.83,10.79,43,3.41,49.78-5.13-9.44-51.7,1.56-57.31c8.93-4.57,14.5,2.25,12.7,20.23s-6.47,33.29-1.07,37.79,21.11,13,38.64,10.27,2.7-16.2-15.72-18.44c0,0,22-43.16,18-85s-18.88-70.14-18.88-70.14Z" transform="translate(-341.56 -88.37)"/><g class="bc"><path class="cc" d="M470.52,403.11l-1-6.93s-16.84-11-23.88-8.88c0,0,.24,3.63.87,8.9a120.251,120.251,0,0,1,24.01,6.91Z" transform="translate(-341.56 -88.37)"/><path class="cd" d="M446.89,399.64c1.19,8.82,3.3,20.41,6.8,28l21.6,7.16-4.2-27.85a118.4,118.4,0,0,0-24.2-7.31Z" transform="translate(-341.56 -88.37)"/></g><path class="ce" d="M446.73,347.7q6.52-3.4,13.32-6.22c-3.38-11.7-5.86-25.48-5.17-39.74a199.543,199.543,0,0,0-8.15,45.96Z" transform="translate(-341.56 -88.37)"/><path class="cf" d="M446.58,351.59a171.438,171.438,0,0,0,.68,20.59s15.27.36,25.5,9.52c0,0-6.11-18.94-11.75-37Q453.65,347.8,446.58,351.59Z" transform="translate(-341.56 -88.37)"/><path class="cg" d="M479.89,452.22c6.74-8.55-9.44-51.7,1.56-57.31,8.93-4.57,14.5,2.25,12.7,20.23s-6.47,33.29-1.07,37.79,21.11,13,38.64,10.27,2.7-16.2-15.72-18.44c0,0,22-43.16,18-85s-18.88-70.14-18.88-70.14l-4.52-.14-.2.09s4.57,5.52,12.94,33.89,7.24,86.26-13.13,85.31-8-22.66-8-22.66c-8.38-3.43-34.85-1.33-34.85-1.33s10.29,12.18.76,19.61-21.32,2.66-24.94-28.56c-3.46-29.91,9.66-81.29,10.78-85.59-3.36,9.17-14.89,42.78-15.28,73.12-.45,35.52,15.29,83.18,15.29,83.18s-23.83,1.8-23.83,10.79S473.15,460.76,479.89,452.22Z" transform="translate(-341.56 -88.37)"/><path class="ch" d="M457.82,380.33c-4.6-1.76-13.86-5.85-18.65-3.32.26,3.16.6,6.35,1,9.54.05-.62-.32-1.41.33-1.89.46-.34,1.68,0,2.24,0,1.4.11,2.8.24,4.19.43a58.27,58.27,0,0,1,10.6,2.47,47,47,0,0,1,13.17,6.82c2.77,2.06,5.53,4.29,7.06,7.36a13.309,13.309,0,0,1,1.28-4.38C475.17,389.49,465.66,383.33,457.82,380.33Z" transform="translate(-341.56 -88.37)"/><path class="ci" d="M430.1,454.69s-4.87,5.36,1.22,10.48,23.87,2.43,32.39.24,14.85-3.9,18.26-9-1.21-11-1.21-11Z" transform="translate(-341.56 -88.37)"/><path class="cj" d="M482,456.4c3.41-5.11-1.21-11-1.21-11l-50.66,9.25s-3.77,4.16-.51,8.65a9.3,9.3,0,0,1-.2-3.18s3.26,5.81,25.67,1.84,21.84-5,18.58-1.56c-2.05,2.14-10.29,4.85-17.63,6.56,2.92-.48,5.59-1.05,7.7-1.59C472.23,463.22,478.56,461.51,482,456.4Z" transform="translate(-341.56 -88.37)"/><path class="ck" d="M466.49,461c.08.23-4,1.88-8.31,3a75.386,75.386,0,0,1-8.68,1.72s-1.1.11-2.76.2a55.6,55.6,0,0,1-6.11,0,17.45,17.45,0,0,1-6-1.36,5.11,5.11,0,0,1-2.28-1.61c.08-.11,1,.49,2.53,1a18.9,18.9,0,0,0,5.8.75c2.15,0,4.32-.23,5.94-.39s2.7-.33,2.7-.33,4.32-.37,8.6-1.19S466.41,460.77,466.49,461Z" transform="translate(-341.56 -88.37)"/><path class="cl" d="M445.09,413.8c4.18,18.62,8.85,32.76,8.85,32.76s-23.83,1.8-23.83,10.79,43,3.41,49.78-5.13c2.7-3.42,1.73-12.38.29-22.25C470.85,417.64,453,414.57,445.09,413.8Z" transform="translate(-341.56 -88.37)"/><g class="cm"><path class="cn" d="M444.07,450.09c.07.24-1.51.9-3,1.59a32.585,32.585,0,0,0-2.92,1.5,15.43,15.43,0,0,0-2.8,1.58c-1.34.91-2.35,2.24-2.56,2.13s.46-1.78,1.74-3.07a13.731,13.731,0,0,1,2.81-2.2s.41-.19,1-.42a20.832,20.832,0,0,1,2.3-.69C442.32,450.1,444,449.87,444.07,450.09Z" transform="translate(-341.56 -88.37)"/><path class="co" d="M455.88,445.67c-.23.09-1.1-1.48-1.85-3.11s-1.39-3.3-1.39-3.3-.45-1.73-.77-3.5-.53-3.54-.29-3.6.86,1.62,1.48,3.27l1.26,3.3.88,3.41C455.64,443.86,456.1,445.58,455.88,445.67Z" transform="translate(-341.56 -88.37)"/></g><path class="cp" d="M445.09,413.8q.81,3.58,1.62,6.92c11.78.45,26.31,18.38,20.77,24.66-4,4.53-11.41-1.71-15.84-6.29,1.38,4.7,2.3,7.47,2.3,7.47s-1.17.09-3,.32c2.58,2.22,6.1,5.43,6.49,6.81.63,2.19-3.29,5.17-16,4.54-7.07-.34-8.94-2.93-9.21-5.15a5.73,5.73,0,0,0-2.13,4.27c0,9,43,3.41,49.78-5.13,2.7-3.42,1.73-12.38.29-22.25C470.85,417.64,453,414.57,445.09,413.8Z" transform="translate(-341.56 -88.37)"/><path class="cq" d="M445.82,459.83a3.45,3.45,0,0,0,.46-.12,4.24,4.24,0,0,0,.87-.38,3.669,3.669,0,0,0,.56-.38,2.816,2.816,0,0,0,.36-.33,3.361,3.361,0,0,0,.95-1.87,5,5,0,0,0,.06-.54q0-.21,0-.42v-.1c-.15-3.8-4.3-6.51-8.21-6.79a32.9,32.9,0,0,0-5.3,2,.741.741,0,0,0,0,.26h0a.789.789,0,0,0,.12.3,2.719,2.719,0,0,0,.8.65,15.772,15.772,0,0,1,2.77,2.88c.14.16.28.33.41.51.93,1.23,1.59,2.74,2.83,3.65a4.3,4.3,0,0,0,.55.35,4.349,4.349,0,0,0,1.36.4A4.9,4.9,0,0,0,445.82,459.83Z" transform="translate(-341.56 -88.37)"/><path class="cr" d="M446.3,448a2.43,2.43,0,0,0,.8.64,15.709,15.709,0,0,1,2.76,2.88c.88,1,1.47,2.25,2.3,3.26a5.391,5.391,0,0,0,.94.91,4,4,0,0,0,.56.34,3.51,3.51,0,0,0,.89.32,4.33,4.33,0,0,0,.95.11,4.452,4.452,0,0,0,.95-.1,4.7,4.7,0,0,0,.9-.28,3.69,3.69,0,0,0,2.3-2.79h0a2.31,2.31,0,0,1,.06-.54v-1.03h0c-.39-2.83-3-5-6-5.87l.23.7a75.119,75.119,0,0,0-7.76,1.09v.05a.839.839,0,0,0,.12.31Z" transform="translate(-341.56 -88.37)"/><path class="cs" d="M450.15,450.61a15.419,15.419,0,0,0-2.6-2.69c-.36-.23-.8-.47-.86-.89a1.13,1.13,0,0,1,.54-1c4.11-3.18,13,.47,12.11,6.2-.38,2.45-3.5,3.64-5.63,2.56a3.457,3.457,0,0,1-.52-.32C451.86,453.54,451.24,451.83,450.15,450.61Zm-6.94,7.13a3,3,0,0,0,.52.32c2.13,1.08,5.25-.11,5.63-2.56.88-5.73-8-9.38-12.11-6.2a1.14,1.14,0,0,0-.55,1c.06.42.5.66.86.89a14.729,14.729,0,0,1,2.6,2.69C441.26,455.06,441.88,456.77,443.21,457.74Z" transform="translate(-341.56 -88.37)"/><g class="ax"><path class="ct" d="M443.82,455.51c-.18-.1-.36-.21-.52-.32-1.33-1-1.95-2.68-3-3.9a19.659,19.659,0,0,0-2.29-2.45,5.883,5.883,0,0,0-.72.46,1.14,1.14,0,0,0-.55,1c.06.42.5.66.86.89a14.729,14.729,0,0,1,2.6,2.69c1.1,1.22,1.72,2.93,3,3.9a3,3,0,0,0,.52.32c2.13,1.08,5.25-.11,5.63-2.56a5,5,0,0,0-.08-1.94,4.07,4.07,0,0,1-5.45,1.91Z" transform="translate(-341.56 -88.37)"/><path class="cu" d="M453.81,452.28a4.664,4.664,0,0,1-.53-.32c-1.33-1-1.94-2.68-3-3.9a19.666,19.666,0,0,0-2.29-2.45,6.755,6.755,0,0,0-.72.46,1.13,1.13,0,0,0-.54,1c.06.42.5.66.86.89a15.42,15.42,0,0,1,2.6,2.69c1.09,1.22,1.71,2.93,3,3.9a3.464,3.464,0,0,0,.52.32c2.13,1.08,5.25-.11,5.63-2.56a5,5,0,0,0-.08-1.93,4.07,4.07,0,0,1-5.45,1.9Z" transform="translate(-341.56 -88.37)"/></g><path class="cv" d="M480.18,430c-6.72-8.88-17.84-13-26.5-14.83v.1s-13.05,6.6-1.2,5.1c10-1.27,24.07,9.21,28.1,12.42C480.45,431.84,480.32,430.91,480.18,430Z" transform="translate(-341.56 -88.37)"/><path class="bj" d="M479.52,425.5c-9.62-11-26.24-12.27-26.24-12.27v.6s-13,6.6-1.2,5.1c10.24-1.3,24.62,9.61,28.33,12.6C480.13,429.55,479.83,427.53,479.52,425.5Z" transform="translate(-341.56 -88.37)"/><path class="bk" d="M475.89,422c-.2,3.58-6.72-.19-12.7-2.73-3.58-1.53-4.66-3.61-4.88-5.24a41.57,41.57,0,0,0-5-.82v.6s-13,6.6-1.2,5.1c10.24-1.3,24.62,9.61,28.33,12.6q-.42-3-.89-6a29,29,0,0,0-3.66-3.51Z" transform="translate(-341.56 -88.37)"/><path class="cw" d="M449.26,430.62l.29.15c11.81,4.85,9.72-5.6,7-14.24-.09-.26-.66-2.75-.73-3-4.42-1.14-7.91.54-10.69.27C446.49,420,447.94,425.76,449.26,430.62Z" transform="translate(-341.56 -88.37)"/><path class="cx" d="M440.32,404.55c.16-2.06.14-4.93,7.37-3.73,9.78,1.63,4.59,5.28,7.36,13.92s4.85,19.09-7,14.24C440.19,425.74,440.11,407.33,440.32,404.55Z" transform="translate(-341.56 -88.37)"/><path class="cy" d="M455.05,414.74c-2.44-7.6,1.28-11.34-4.44-13.24,1,2.23-.29,5.66,1.41,11,2.75,8.61,4.83,19-6.85,14.28a7.57,7.57,0,0,0,2.92,2.23C459.9,433.83,457.81,423.38,455.05,414.74Z" transform="translate(-341.56 -88.37)"/><path class="cz" d="M448.09,429c5.23,2.15,7.73,1.29,8.66-1.07a11.911,11.911,0,0,1-3-2.37c-.9,2.42-3.36,3.33-8.58,1.21A7.57,7.57,0,0,0,448.09,429Z" transform="translate(-341.56 -88.37)"/><path class="da" d="M451.38,426c.08.06-.6.8-2,.9a5.13,5.13,0,0,1-2.28-.43,6.17,6.17,0,0,1-2.15-1.63,12.79,12.79,0,0,1-2.2-4.34c-.39-1.22-.6-2.06-.6-2.06s-.18-.84-.36-2.12a38.541,38.541,0,0,1-.33-4.69c0-3.43.61-6.78.85-6.74s0,3.38.39,6.67a43.376,43.376,0,0,0,1.16,6.49s.15.81.45,2a12.088,12.088,0,0,0,1.62,4,4.88,4.88,0,0,0,3.46,2.14A8.89,8.89,0,0,0,451.38,426Z" transform="translate(-341.56 -88.37)"/><path class="db" d="M541.14,454.69s4.87,5.36-1.22,10.48-23.86,2.43-32.38.24-14.86-3.9-18.27-9,1.22-11,1.22-11Z" transform="translate(-341.56 -88.37)"/><path class="dc" d="M489.27,456.4c-3.41-5.11,1.22-11,1.22-11l50.65,9.25s3.78,4.16.52,8.65a9.55,9.55,0,0,0,.2-3.18S538.59,466,516.18,462s-21.84-5-18.58-1.56c2.06,2.14,10.29,4.85,17.64,6.56-2.92-.48-5.6-1.05-7.7-1.59C499,463.22,492.68,461.51,489.27,456.4Z" transform="translate(-341.56 -88.37)"/><path class="dd" d="M504.76,461c-.08.23,4,1.88,8.3,3a75.825,75.825,0,0,0,8.68,1.72s1.1.11,2.76.2a55.6,55.6,0,0,0,6.11,0,17.4,17.4,0,0,0,6-1.36,5.19,5.19,0,0,0,2.29-1.61c-.08-.11-1,.49-2.54,1a18.82,18.82,0,0,1-5.8.75c-2.14,0-4.32-.23-5.94-.39s-2.69-.33-2.69-.33-4.33-.37-8.61-1.19S504.84,460.77,504.76,461Z" transform="translate(-341.56 -88.37)"/><path class="de" d="M526.15,413.8c-4.18,18.62-8.84,32.76-8.84,32.76s23.83,1.8,23.83,10.79-43,3.41-49.78-5.13c-2.7-3.42-1.73-12.38-.3-22.25C500.39,417.64,518.23,414.57,526.15,413.8Z" transform="translate(-341.56 -88.37)"/><g class="cm"><path class="df" d="M527.17,450.09c-.07.24,1.52.9,3,1.59a31,31,0,0,1,2.92,1.5,15.069,15.069,0,0,1,2.8,1.58c1.35.91,2.35,2.24,2.56,2.13s-.45-1.78-1.74-3.07a13.441,13.441,0,0,0-2.81-2.2s-.41-.19-1-.42a20.2,20.2,0,0,0-2.3-.69C528.93,450.1,527.24,449.87,527.17,450.09Z" transform="translate(-341.56 -88.37)"/><path class="dg" d="M515.37,445.67c.22.09,1.09-1.48,1.84-3.11s1.39-3.3,1.39-3.3.45-1.73.78-3.5.53-3.54.29-3.6-.86,1.62-1.49,3.27-1.25,3.3-1.25,3.3-.44,1.71-.89,3.41S515.14,445.58,515.37,445.67Z" transform="translate(-341.56 -88.37)"/></g><path class="dh" d="M526.15,413.8c-.53,2.39-1.08,4.7-1.62,6.92-11.77.45-26.31,18.38-20.77,24.66,4,4.53,11.42-1.71,15.84-6.29-1.38,4.7-2.29,7.47-2.29,7.47s1.17.09,3,.32c-2.59,2.22-6.11,5.43-6.5,6.81-.63,2.19,3.29,5.17,16,4.54,7.06-.34,8.93-2.93,9.2-5.15a5.74,5.74,0,0,1,2.14,4.27c0,9-43,3.41-49.78-5.13-2.7-3.42-1.73-12.38-.3-22.25C500.39,417.64,518.23,414.57,526.15,413.8Z" transform="translate(-341.56 -88.37)"/><path class="di" d="M525.43,459.83a4.048,4.048,0,0,1-.47-.12,4.776,4.776,0,0,1-.87-.38,4.235,4.235,0,0,1-.56-.38q-.18-.15-.36-.33a3.36,3.36,0,0,1-.95-1.87,4.924,4.924,0,0,1-.05-.54v-.52c.16-3.8,4.31-6.51,8.22-6.79a32.769,32.769,0,0,1,5.29,2,.74.74,0,0,1,0,.26h0a.77.77,0,0,1-.11.3,2.85,2.85,0,0,1-.8.65A15.449,15.449,0,0,0,532,455a5.188,5.188,0,0,0-.42.51c-.93,1.23-1.58,2.74-2.82,3.65a4.436,4.436,0,0,1-.56.35,4.271,4.271,0,0,1-1.36.4,4.83,4.83,0,0,1-1.41-.08Z" transform="translate(-341.56 -88.37)"/><path class="dj" d="M525,448a2.66,2.66,0,0,1-.8.64,16.1,16.1,0,0,0-2.77,2.88c-.87,1-1.46,2.25-2.3,3.26a5.069,5.069,0,0,1-.94.91,3.868,3.868,0,0,1-.55.34,3.719,3.719,0,0,1-.9.32,4.24,4.24,0,0,1-.94.11,4.323,4.323,0,0,1-1-.1,4.791,4.791,0,0,1-.91-.28,3.73,3.73,0,0,1-2.3-2.79h0v-.54a2.941,2.941,0,0,1,0-.42v-.1a4.388,4.388,0,0,1,0-.51h0c.39-2.83,3-5,5.95-5.87-.14.46-.22.7-.22.7a74.732,74.732,0,0,1,7.75,1.09v.05a.838.838,0,0,1-.07.31Z" transform="translate(-341.56 -88.37)"/><path class="dk" d="M518.05,454.51a3,3,0,0,1-.52.32c-2.13,1.08-5.25-.11-5.63-2.56-.88-5.73,8-9.38,12.11-6.2a1.14,1.14,0,0,1,.55,1c-.06.42-.5.66-.86.89a14.727,14.727,0,0,0-2.6,2.69C520,451.83,519.38,453.54,518.05,454.51Zm13-.67a15.07,15.07,0,0,1,2.6-2.69c.36-.23.8-.47.86-.89a1.13,1.13,0,0,0-.54-1c-4.11-3.18-13,.47-12.11,6.2.37,2.45,3.5,3.64,5.63,2.56a3.461,3.461,0,0,0,.52-.32c1.36-.93,1.99-2.64,3.07-3.86Z" transform="translate(-341.56 -88.37)"/><g class="ax"><path class="dl" d="M527.42,455.51a5.13,5.13,0,0,0,.52-.32c1.33-1,1.95-2.68,3-3.9a18.263,18.263,0,0,1,2.29-2.45,6.756,6.756,0,0,1,.72.46,1.13,1.13,0,0,1,.54,1c-.06.42-.5.66-.86.89a15.069,15.069,0,0,0-2.6,2.69c-1.1,1.22-1.71,2.93-3,3.9a3.461,3.461,0,0,1-.52.32c-2.13,1.08-5.26-.11-5.63-2.56a5,5,0,0,1,.07-1.94,4.08,4.08,0,0,0,5.47,1.91Z" transform="translate(-341.56 -88.37)"/><path class="dm" d="M517.44,452.28A4.517,4.517,0,0,0,518,452c1.33-1,1.95-2.68,3-3.9a19.666,19.666,0,0,1,2.29-2.45,5.215,5.215,0,0,1,.72.46,1.14,1.14,0,0,1,.55,1c-.06.42-.5.66-.86.89a14.729,14.729,0,0,0-2.6,2.69c-1.1,1.22-1.72,2.93-3.05,3.9a3,3,0,0,1-.52.32c-2.13,1.08-5.25-.11-5.63-2.56a5.17,5.17,0,0,1,.08-1.93,4.08,4.08,0,0,0,5.46,1.86Z" transform="translate(-341.56 -88.37)"/></g><path class="dn" d="M491.06,430c6.72-8.88,17.85-13,26.51-14.83v.1s13,6.6,1.2,5.1c-10-1.27-24.08,9.21-28.1,12.42Q490.85,431.38,491.06,430Z" transform="translate(-341.56 -88.37)"/><path class="bj" d="M491.72,425.5c9.62-11,26.24-12.27,26.24-12.27v.6s13,6.6,1.2,5.1c-10.24-1.3-24.61,9.61-28.32,12.6C491.12,429.55,491.42,427.53,491.72,425.5Z" transform="translate(-341.56 -88.37)"/><path class="bk" d="M495.36,422c.19,3.58,6.72-.19,12.69-2.73,3.58-1.53,4.66-3.61,4.89-5.24a41.614,41.614,0,0,1,5-.82v.6s13,6.6,1.2,5.1c-10.24-1.3-24.61,9.61-28.32,12.6.28-2,.58-4,.88-6a29.787,29.787,0,0,1,3.66-3.51Z" transform="translate(-341.56 -88.37)"/><path class="do" d="M522,430.62l-.3.15c-11.81,4.85-9.72-5.6-7-14.24.08-.26.66-2.75.73-3,4.41-1.14,7.91.54,10.68.27C524.75,420,523.3,425.76,522,430.62Z" transform="translate(-341.56 -88.37)"/><path class="dp" d="M530.92,404.55c-.16-2.06-.14-4.93-7.36-3.73-9.79,1.63-4.6,5.28-7.36,13.92s-4.86,19.09,7,14.24C531.05,425.74,531.13,407.33,530.92,404.55Z" transform="translate(-341.56 -88.37)"/><path class="dq" d="M516.2,414.74c2.43-7.6-1.29-11.34,4.44-13.24-1,2.23.29,5.66-1.41,11-2.76,8.61-4.84,19,6.84,14.28a7.61,7.61,0,0,1-2.91,2.23C511.34,433.83,513.43,423.38,516.2,414.74Z" transform="translate(-341.56 -88.37)"/><path class="dr" d="M523.16,429c-5.23,2.15-7.74,1.29-8.66-1.07a11.911,11.911,0,0,0,3-2.37c.89,2.42,3.36,3.33,8.57,1.21A7.61,7.61,0,0,1,523.16,429Z" transform="translate(-341.56 -88.37)"/><path class="ds" d="M519.87,426c-.08.06.59.8,2,.9a5.13,5.13,0,0,0,2.28-.43,6.14,6.14,0,0,0,2.14-1.63,12.607,12.607,0,0,0,2.2-4.34c.4-1.22.61-2.06.61-2.06s.17-.84.35-2.12a36.469,36.469,0,0,0,.34-4.69c.05-3.43-.62-6.78-.86-6.74s0,3.38-.38,6.67a44.155,44.155,0,0,1-1.17,6.49s-.15.81-.44,2a12.12,12.12,0,0,1-1.63,4,4.86,4.86,0,0,1-3.46,2.14A8.751,8.751,0,0,1,519.87,426Z" transform="translate(-341.56 -88.37)"/><path class="dt" d="M473.56,448.71c.87-5.87-2.15-19.76-4.57-30.93-.65-3-1.27-5.84-1.69-8-1.86-9.55-.82-21.93-.81-22.05l-1.86-.16c0,.51-1.07,12.76.83,22.57.43,2.2,1.05,5.05,1.7,8.06,2.27,10.43,5.37,24.72,4.55,30.26a14.69,14.69,0,0,1-6.08,9.95v.05c1.41-.38,2.77-.79,4-1.22A16.63,16.63,0,0,0,473.56,448.71Z" transform="translate(-341.56 -88.37)"/><path class="du" d="M474.19,449c.87-5.87-2.14-19.77-4.57-30.93-.65-3-1.27-5.84-1.69-8-1.86-9.55-.81-21.93-.8-22.05l-1.87-.17c0,.52-1.07,12.76.83,22.57.43,2.21,1.05,5.05,1.71,8.06,2.26,10.44,5.37,24.73,4.55,30.26a14.69,14.69,0,0,1-6.09,9.95v.06c1.41-.38,2.77-.79,4-1.22a16.67,16.67,0,0,0,3.93-8.53Z" transform="translate(-341.56 -88.37)"/><path class="dv" d="M504.05,458.25a14.68,14.68,0,0,1-6.09-9.94c-.82-5.54,2.29-19.83,4.55-30.27.66-3,1.28-5.85,1.7-8.06,1.91-9.81.88-22.05.83-22.57l-1.86.17c0,.12,1.06,12.5-.8,22.05-.43,2.18-1,5-1.69,8-2.43,11.16-5.45,25.06-4.58,30.93a16.64,16.64,0,0,0,3.58,8.16q1.85,1,4.05,2Z" transform="translate(-341.56 -88.37)"/><path class="dw" d="M503.17,458.25a14.64,14.64,0,0,1-6.09-9.94c-.82-5.54,2.28-19.83,4.55-30.27.65-3,1.27-5.85,1.7-8.06,1.91-9.81.87-22.05.83-22.57l-1.86.17c0,.12,1.05,12.5-.8,22.05-.43,2.18-1.05,5-1.7,8-2.42,11.16-5.44,25.06-4.57,30.93a16.55,16.55,0,0,0,3.58,8.16q1.85,1,4,2Z" transform="translate(-341.56 -88.37)"/><path class="dx" d="M515,379.77c-8.47,3.1-18.8,9.6-22.55,17.9a16.75,16.75,0,0,1,1.4,4.21c1.51-3.43,4.59-5.83,7.69-8A50,50,0,0,1,515.3,387a62.371,62.371,0,0,1,11.07-2.46c1.45-.19,2.91-.33,4.38-.43.58-.05,1.86-.37,2.34,0,.75.53.19,1.45.39,2.09.39-3.23.68-6.52.84-9.83C529.26,374,519.76,378,515,379.77Z" transform="translate(-341.56 -88.37)"/><path class="dy" d="M537.35,382.44a3.539,3.539,0,0,1-.64,1.07,4.29,4.29,0,0,1-2,1.24,1.1,1.1,0,0,1-.94-.05c-.78-.58.28-1.82-.64-2.47-.48-.34-1.76,0-2.34,0-1.47.1-2.93.24-4.38.43a62.371,62.371,0,0,0-11.07,2.46A50,50,0,0,0,501.55,392c-3.55,2.54-7.09,5.32-8.25,9.62a2.4,2.4,0,0,1-1.73-2.09,5.73,5.73,0,0,1,.5-2.84c3.4-8.71,14.18-15.55,22.94-18.76,6.57-2.41,22.23-9.18,22.64,2.57a4.9,4.9,0,0,1-.3,1.94Z" transform="translate(-341.56 -88.37)"/><path class="dz" d="M537.65,380.47a4.9,4.9,0,0,1-.3,2,3.539,3.539,0,0,1-.64,1.07,4.29,4.29,0,0,1-2,1.24,1.1,1.1,0,0,1-.94-.05c-.78-.58.28-1.82-.64-2.47-.48-.34-1.76,0-2.34,0-1.47.1-2.93.24-4.38.43a62.368,62.368,0,0,0-11.07,2.46A50,50,0,0,0,501.55,392c-3.55,2.54-7.09,5.32-8.25,9.62a2.4,2.4,0,0,1-1.73-2.09,5.73,5.73,0,0,1,.5-2.84c1.86-4.77,5.94-9,10.69-12.33-1.57,2.65-1.58,4.42,3.44,2.15,11.29-5.09,20.58-5.09,27-6.15,2.79-.46,3.49-2.11,3.39-3.84a7.9,7.9,0,0,1,1.06,3.95Z" transform="translate(-341.56 -88.37)"/><g class="cm"><path class="ea" d="M510.89,381.06c.11.22,2.87-.84,5.67-1.68,1.4-.42,2.81-.78,3.87-1s1.77-.35,1.77-.35a32.23,32.23,0,0,1,5.69-.88c2.89-.23,5.8.3,5.86.07s-2.8-1.22-5.87-1.31a28.76,28.76,0,0,0-6.07.4s-.74.18-1.83.5a38.948,38.948,0,0,0-3.88,1.41C513.35,379.38,510.78,380.85,510.89,381.06Z" transform="translate(-341.56 -88.37)"/></g><path class="eb" d="M436.11,382.44a3.449,3.449,0,0,0,.61,1.07,4.07,4.07,0,0,0,1.95,1.24,1,1,0,0,0,.9-.05c.75-.58-.27-1.82.61-2.47.46-.34,1.69,0,2.24,0,1.41.1,2.8.24,4.2.43a57.621,57.621,0,0,1,10.6,2.46A47.08,47.08,0,0,1,470.38,392c3.41,2.54,6.8,5.32,7.91,9.62a2.36,2.36,0,0,0,1.65-2.09,5.83,5.83,0,0,0-.48-2.84c-3.25-8.71-13.57-15.55-22-18.76-6.29-2.41-21.29-9.18-21.69,2.57a5.281,5.281,0,0,0,.34,1.94Z" transform="translate(-341.56 -88.37)"/><path class="ec" d="M435.81,380.47a5.28,5.28,0,0,0,.3,2,3.45,3.45,0,0,0,.61,1.07,4.07,4.07,0,0,0,1.95,1.24,1,1,0,0,0,.9-.05c.75-.58-.27-1.82.61-2.47.46-.34,1.69,0,2.24,0,1.41.1,2.8.24,4.2.43a57.623,57.623,0,0,1,10.6,2.46A47.079,47.079,0,0,1,470.38,392c3.41,2.54,6.8,5.32,7.91,9.62a2.36,2.36,0,0,0,1.65-2.09,5.83,5.83,0,0,0-.48-2.84c-1.78-4.77-5.69-9-10.23-12.33,1.5,2.65,1.52,4.42-3.29,2.15-10.81-5.09-19.72-5.09-25.87-6.15-2.66-.46-3.33-2.11-3.24-3.84A8.24,8.24,0,0,0,435.81,380.47Z" transform="translate(-341.56 -88.37)"/><g class="cm"><path class="ed" d="M461.44,381.06c-.11.22-2.75-.84-5.43-1.68-1.34-.42-2.68-.78-3.7-1s-1.7-.35-1.7-.35a29.63,29.63,0,0,0-5.45-.88c-2.77-.23-5.55.3-5.61.07s2.68-1.22,5.62-1.31a26.288,26.288,0,0,1,5.81.4s.71.18,1.75.5a39.071,39.071,0,0,1,3.72,1.41C459.09,379.38,461.55,380.85,461.44,381.06Z" transform="translate(-341.56 -88.37)"/></g><path class="ee" d="M516.57,312.39h0l-.69-.54-.31-.22-.61-.43c-.31-.21-.64-.41-1-.62a8.709,8.709,0,0,0-2.13-3.66c-2.89-3.13-7.5-3.64-9.58-1.29a4.32,4.32,0,0,0-.65.89l-.83-.06h-1.09c-3.1,0-5.1.75-5,1.77.1,1.28,3.22,2.62,7.37,4.08l.24.41a1.4,1.4,0,0,1,.1.16c.19.29.4.57.62.85l.1.12a9.855,9.855,0,0,0,.77.82c.18.17.36.33.55.48,2.8,2.28,6.1,2.79,8.26,1l.3-.3c3.59,1,5.95,1.41,6.22.23C519.34,315.25,518.38,313.87,516.57,312.39Zm-15.45-2.75v.09a6.639,6.639,0,0,0,.22,1v.11c.07.2.14.41.23.61-2.62-1-4.44-2-4.49-2.91s1.61-1.38,4.17-1.31A5.17,5.17,0,0,0,501.12,309.64Zm12.33,5.55c.08-.12.14-.23.21-.35a4.639,4.639,0,0,0,.4-1.06h0a6.11,6.11,0,0,0,.09-2.27c1.93,1.34,3,2.64,2.88,3.38S515.54,315.64,513.45,315.19Z" transform="translate(-341.56 -88.37)"/><path class="ef" d="M512.46,315.46c-2.3,1.91-5.9,1.2-8.81-1.48s-3.84-6.66-1.61-9c2.08-2.35,6.69-1.83,9.58,1.3S514.66,313.56,512.46,315.46Z" transform="translate(-341.56 -88.37)"/><path class="eg" d="M512.58,313.63a.8.8,0,0,0-.33-.83,1.72,1.72,0,0,0-1.63-.15,1.46,1.46,0,0,0-.59,1.23,1,1,0,0,0,.2.72.76.76,0,0,0,.56.18,2.43,2.43,0,0,0,1.25-.51,1.22,1.22,0,0,0,.54-.64Z" transform="translate(-341.56 -88.37)"/><path class="eh" d="M510.26,315.76c.15-.17,0-.47-.21-.58a1.109,1.109,0,0,0-.35-.08,1.52,1.52,0,0,0-.68.07.27.27,0,0,0-.19.21.38.38,0,0,0,.07.22.8.8,0,0,0,.58.39,1.08,1.08,0,0,0,.59-.11.469.469,0,0,0,.19-.12Z" transform="translate(-341.56 -88.37)"/><path class="ei" d="M508,314.55c.36.16,1,.19,1.16-.18a.21.21,0,0,0,0-.11.33.33,0,0,0-.16-.19.86.86,0,0,0-.48-.14c-.22,0-.91-.07-.82.31C507.69,314.38,507.84,314.48,508,314.55Z" transform="translate(-341.56 -88.37)"/><path class="ej" d="M502.74,308.43c-.26-.32-.74-.56-1-.32a1.26,1.26,0,0,0-.19,1.19,2.62,2.62,0,0,0,.93,1.59.77.77,0,0,0,.59.18.45.45,0,0,0,.22-.13,1.27,1.27,0,0,0,.21-1.21,3.52,3.52,0,0,0-.76-1.3Z" transform="translate(-341.56 -88.37)"/><path class="ek" d="M503.83,312.6a2,2,0,0,0-.84-.82.14.14,0,0,0-.19.15.51.51,0,0,0,.15.29c.22.27.41.62.78.58a.12.12,0,0,0,.13-.09A.26.26,0,0,0,503.83,312.6Z" transform="translate(-341.56 -88.37)"/><path class="el" d="M502.41,307.13c.06-.19,0-.64-.27-.75a.34.34,0,0,0-.31.07.73.73,0,0,0-.29.64.58.58,0,0,0,.12.37.36.36,0,0,0,.24.13.351.351,0,0,0,.11,0,.84.84,0,0,0,.4-.46Z" transform="translate(-341.56 -88.37)"/><path class="em" d="M501.28,306.11c-1.12,2.38,0,5.57,2.37,7.87,2.91,2.68,6.51,3.39,8.81,1.48a4.47,4.47,0,0,0,1.41-2.37,2.15,2.15,0,0,1-1.72.65,2.19,2.19,0,0,1-1.41-.38,3.06,3.06,0,0,1-.66-.77,12.924,12.924,0,0,0-.86-1.23,2.56,2.56,0,0,0-1.19-.85,3,3,0,0,0-1.47.15,3.48,3.48,0,0,1-2.19-.29,5.53,5.53,0,0,1-1.43-1.13,6,6,0,0,1-1.66-3.13Z" transform="translate(-341.56 -88.37)"/><path class="en" d="M503.4,304.34s1.06-1.07,4.23-.25,5.24,3.71,4.78,4.36-1.6.13-3.88-1-1.74,7.2-.23,7.66,2.75.13,2.29.82-4.62-.14-6.49-2.1,1.95.9,2.71.75-1.33-3.68-.38-6.53S502.23,305.89,503.4,304.34Z" transform="translate(-341.56 -88.37)"/><path class="eo" d="M507.13,304a4.62,4.62,0,0,0-3.76.59c-1.65,1.24-.17,2.89,1.08,2.9a6.944,6.944,0,0,1,4.58.88c2.2,1.25,3.05,2.68,3.73,1.34S510.74,304.6,507.13,304Z" transform="translate(-341.56 -88.37)"/><path class="ep" d="M506.15,304.32c-.87,0-1.46.35-1.33.76s.93.72,1.79.73,1.46-.3,1.34-.71S507,304.32,506.15,304.32Z" transform="translate(-341.56 -88.37)"/><path class="eq" d="M509,304.94c-.41-.13-.74-.08-.75.1s.33.42.74.55.74.1.74-.08S509.39,305.08,509,304.94Z" transform="translate(-341.56 -88.37)"/><path class="er" d="M519,315.39c.21-1.12-1.77-3.44-5.33-5.53a5.311,5.311,0,0,1,.18.9c2,1.37,3.1,2.7,3,3.45-.27,1.41-4.37.29-9.8-1.44-5.27-1.76-10-3.48-10.1-4.91,0-.85,1.64-1.39,4.24-1.31a3.139,3.139,0,0,1,.33-.69c-4.22-.39-7.14.45-7,1.68.13,1.78,6.09,3.65,12.54,5.83C513.66,315.51,518.59,317.12,519,315.39Z" transform="translate(-341.56 -88.37)"/><path class="es" d="M516,315.33c2.78.29,1-1.75.6-2.72-.09-.28.11-.33.43-.27a21.255,21.255,0,0,0-3.41-2.48,5.31,5.31,0,0,1,.18.9c2,1.37,3.1,2.7,3,3.45-.27,1.41-4.37.29-9.8-1.44-5.27-1.76-10-3.48-10.1-4.91,0-.85,1.64-1.39,4.24-1.31a3.136,3.136,0,0,1,.33-.69c-.71-.07-1.39-.1-2-.1.4.11.64.24.56.39-.32.53-4.6.78-3.2,2.2s3.88,2.57,7.25,3.69S513.3,315,516,315.33Z" transform="translate(-341.56 -88.37)"/><path class="et" d="M497.52,306.1s-3.2.36-2.88,1.51,3,2.34,3.77,2.32-2.12-1.3-2.36-2.16S498.92,306,497.52,306.1Z" transform="translate(-341.56 -88.37)"/><path class="eu" d="M518.83,315.07a3.7,3.7,0,0,0-1.4-2c-.74-.52.82,1.17.6,2s-2.15.21-1.45.72S519,316,518.83,315.07Z" transform="translate(-341.56 -88.37)"/><g class="ax"><rect class="ev" width="66.15" height="2.8" transform="translate(143.888 269.292) rotate(-89.74)"/></g><rect class="ew" width="66.15" height="2.8" transform="translate(142.542 268.328) rotate(-89.74)"/><path class="ex" d="M534.26,365.92l.07-.2c0-.6-.06-1.19-.1-1.78-41.09-14.08-84.89-2.76-95.58.42v1.95C448.12,363.43,492.71,351.4,534.26,365.92Z" transform="translate(-341.56 -88.37)"/><path class="ey" d="M534.26,365l.07-.2c0-.59-.06-1.18-.1-1.78-41.09-14.07-84.89-2.76-95.58.43v1.95C448.12,362.5,492.71,350.47,534.26,365Z" transform="translate(-341.56 -88.37)"/><path class="ez" d="M496.08,321.53c-2.95,2.07-4.18,6.29-3.14,10.74.88,3.76,3.61,8,8.64,8.82,3.52.54,8.15.41,13.06.27,5.94-.16,12.05-.33,16.88.63q-.18-1-.36-1.95c-4.91-.85-10.81-.71-16.58-.54-4.81.13-9.37.26-12.72-.26-4.1-.63-6.36-4.23-7.1-7.39-.87-3.71.07-7.16,2.39-8.79,4.39-3.09,22.86-1.32,30.05-.31-.18-.67-.36-1.32-.54-2C521.58,320.13,501.4,317.78,496.08,321.53Z" transform="translate(-341.56 -88.37)"/><path class="fa" d="M465.94,310.17a5.21,5.21,0,0,0-2.55-3.59c-4.39-2.61-12.95-.4-14.88.15-.07.22-.14.45-.2.68l.37,1.21c.09,0,9.61-2.9,13.75-.43a3.41,3.41,0,0,1,1.68,2.35c.5,2.48-.2,6.26-.88,9.92-1,5.3-1.91,10.31.17,13a4.76,4.76,0,0,0,3.6,1.75h.58c8,.55,9.89.68,9.64,8a116.635,116.635,0,0,1-1.16,13.58l1.85.31a118.991,118.991,0,0,0,1.17-13.83c.32-9.16-3.34-9.41-11.37-10h-.58a2.93,2.93,0,0,1-2.26-1c-1.56-2-.67-6.84.2-11.5C465.77,317,466.51,313,465.94,310.17Z" transform="translate(-341.56 -88.37)"/><path class="fb" d="M462.13,338.19a6.11,6.11,0,1,1-1.793-4.324,6.12,6.12,0,0,1,1.793,4.324Z" transform="translate(-341.56 -88.37)"/><circle class="fc" cx="6.11" cy="6.11" r="6.11" transform="translate(107.52 242.47)"/><ellipse class="fd" cx="3.49" cy="3.6" rx="3.49" ry="3.6" transform="translate(109.06 245.46)"/><path class="fe" d="M454,339.05c-4.41-.24-4.86-2.55-4.41-4.54a6,6,0,0,0-.51,2.44,6.11,6.11,0,1,0,11-3.59C460.24,335.51,459.67,339.35,454,339.05Z" transform="translate(-341.56 -88.37)"/><path class="ff" d="M446.56,341.79c-4.45,0-9.21-1.15-12.19-4.15-2.34-2.38-4.47-6.75-1.3-14.13,4.24-9.84,5.6-18.1,3.74-22.66a5.31,5.31,0,0,0-3-3.12c-3-1.22-6.26-.75-9.74-.24-6.86,1-15.39,2.23-21.08-11.42-8.37-20.09,19.19-35.91,20.37-36.57a2.8,2.8,0,1,1,2.76,4.88h0c-.25.14-24.41,14-17.95,29.54,4,9.62,8.42,9,15.09,8,3.89-.56,8.29-1.2,12.68.6a11,11,0,0,1,6,6.19c2.46,6,1.12,15.62-3.77,27-1.56,3.62-1.52,6.3.13,8,3,3.05,10.6,3,14.24,1.49a2.8,2.8,0,0,1,2.16,5.17,22.26,22.26,0,0,1-8.14,1.42Z" transform="translate(-341.56 -88.37)"/><path class="fg" d="M453.94,335H454a2.84,2.84,0,0,0-1.4.19,13.771,13.771,0,0,1-2.91.77,14.76,14.76,0,0,0,4.25-.96Z" transform="translate(-341.56 -88.37)"/><path class="fh" d="M423.28,291.94l-1.39.2c.87-.1,1.77-.23,2.73-.37l1.41-.2C425.09,291.68,424.17,291.81,423.28,291.94Z" transform="translate(-341.56 -88.37)"/><path class="fi" d="M447.9,341.63c-4.46,0-9.22-1.15-12.19-4.16-2.35-2.37-4.47-6.75-1.3-14.13,4.24-9.84,5.6-18.1,3.73-22.66a5.35,5.35,0,0,0-3-3.12c-2.59-1.06-5.43-.84-8.42-.43a14.12,14.12,0,0,1,7.08.6,5.31,5.31,0,0,1,3,3.12c1.86,4.56.5,12.82-3.74,22.66-3.17,7.38-1,11.75,1.3,14.13,3,3,7.74,4.15,12.19,4.15a25,25,0,0,0,3.84-.29C449.58,341.58,448.75,341.63,447.9,341.63Z" transform="translate(-341.56 -88.37)"/><path class="fj" d="M404.35,285.91c-8.37-20.1,19.19-35.91,20.37-36.58a3,3,0,0,1,.37-.16,2.74,2.74,0,0,0-1.71.33c-1.18.66-28.74,16.48-20.37,36.57,5.32,12.76,13.12,12.51,19.71,11.61C416.43,298.39,409.31,297.81,404.35,285.91Z" transform="translate(-341.56 -88.37)"/><path class="fk" d="M456.27,336.69a2.8,2.8,0,0,0-3.67-1.51c-3.64,1.52-11.23,1.56-14.24-1.49-1.65-1.66-1.69-4.34-.13-8,4.89-11.38,6.23-21,3.77-27a11,11,0,0,0-6-6.19c-4.39-1.8-8.79-1.16-12.68-.6-6.67,1-11.08,1.6-15.09-8-6.46-15.51,17.7-29.4,17.95-29.54a2.8,2.8,0,1,0-2.76-4.88,61.888,61.888,0,0,0-8,5.62l2,2.1s-10.49,8.82-12.17,17.84,4,15.32,7.76,18.67c1.47,1.31.78,2.39-.61,3.23a16.71,16.71,0,0,0,8,1c-1.85-1.59-3-3.45.16-4.22,6.08-1.47,14.68-2.94,18.25,3.78,4.35,8.18,2.26,17.62-1.56,25.23-4,7.88-2.09,14.95,6.18,15.68,5.57.5,10.25.56,12.05,1.55A2.79,2.79,0,0,0,456.27,336.69Z" transform="translate(-341.56 -88.37)"/><path class="fl" d="M449,288s-3.69,3.5.81,9.25,22.26,9.56,35.76,9.26a66.17,66.17,0,0,0,33.4-10.42c7.15-4.84-.09-9.61-.09-9.61Z" transform="translate(-341.56 -88.37)"/><path class="bj" d="M449,287.84s-3.69,3.06.81,8.09,22.26,8.36,35.76,8.1,26.25-4.88,33.4-9.11-.09-8.41-.09-8.41Z" transform="translate(-341.56 -88.37)"/><path class="bk" d="M510.23,299a58.478,58.478,0,0,0,8.7-4.12c7.15-4.24-.09-8.41-.09-8.41L449,287.84s-3.69,3.06.81,8.09c1.83,2.05,5.87,3.82,10.92,5.17-2.78-1.69-5.82-4.05-6.87-6.67,0,0,14.59,5,29.38,4.38s29.18-3.54,34-6.25A22.71,22.71,0,0,1,510.23,299Z" transform="translate(-341.56 -88.37)"/><path class="fm" d="M556,247.61a24.576,24.576,0,0,0,.13-6.28c-.22-1.23-.5-2.45-.82-3.67-2.81-4.5-7.88-7.33-10.22-7.21-3.25.16-5.56,6.62-5.16,14.42s3.36,14,6.61,13.82c2.2-.11,6.51-3.4,9-7.92A25.065,25.065,0,0,1,556,247.61Z" transform="translate(-341.56 -88.37)"/><path class="fn" d="M555.78,248.71a4.25,4.25,0,0,1-1.39.37c-3.25.17-6.21-6-6.61-13.82a33.2,33.2,0,0,1,.05-4.13,6.52,6.52,0,0,0-2.78-.68c-3.25.16-5.56,6.62-5.16,14.42s3.36,14,6.61,13.82c2.2-.11,6.52-3.41,9-7.95C555.56,250.07,555.67,249.39,555.78,248.71Z" transform="translate(-341.56 -88.37)"/><path class="fo" d="M556,247.61a24.576,24.576,0,0,0,.13-6.28c-.22-1.22-.5-2.44-.82-3.65-.18-.29-.36-.58-.56-.85A20,20,0,0,0,553.5,244a19.531,19.531,0,0,0,1.44,7.69q.27-.45.51-.9C555.61,249.72,555.79,248.67,556,247.61Z" transform="translate(-341.56 -88.37)"/><path class="fp" d="M555.79,243.62a12.17,12.17,0,0,0-1.58-5.29,21.75,21.75,0,0,0-.71,5.64,21,21,0,0,0,.86,6.1,13.4,13.4,0,0,0,1.43-6.45Z" transform="translate(-341.56 -88.37)"/><path class="fq" d="M415.17,247.61a24.578,24.578,0,0,1-.13-6.28c.22-1.23.5-2.45.82-3.67,2.82-4.5,7.88-7.33,10.22-7.21,3.25.16,5.56,6.62,5.16,14.42s-3.35,14-6.61,13.82c-2.19-.11-6.51-3.4-8.95-7.92C415.52,249.72,415.34,248.68,415.17,247.61Z" transform="translate(-341.56 -88.37)"/><path class="fr" d="M415.35,248.71a4.25,4.25,0,0,0,1.39.37c3.25.17,6.21-6,6.61-13.82a35.3,35.3,0,0,0,0-4.13,6.45,6.45,0,0,1,2.77-.68c3.25.16,5.56,6.62,5.16,14.42s-3.35,14-6.61,13.82c-2.2-.11-6.52-3.41-8.95-7.95Z" transform="translate(-341.56 -88.37)"/><path class="fs" d="M415.17,247.61a24.578,24.578,0,0,1-.13-6.28c.22-1.22.5-2.44.82-3.65.18-.29.37-.58.57-.85a20.221,20.221,0,0,1,1.2,7.14,19.529,19.529,0,0,1-1.44,7.69q-.27-.45-.51-.9C415.52,249.72,415.34,248.67,415.17,247.61Z" transform="translate(-341.56 -88.37)"/><path class="ft" d="M415.34,243.62a12.169,12.169,0,0,1,1.58-5.29,21.75,21.75,0,0,1,.71,5.64,21,21,0,0,1-.85,6.1,13.29,13.29,0,0,1-1.44-6.45Z" transform="translate(-341.56 -88.37)"/><path class="fu" d="M548.25,245.17c0,33.56-29,51.38-64,51.38s-62.83-17.82-62.83-51.38,28.39-60.78,63.41-60.78S548.25,211.6,548.25,245.17Z" transform="translate(-341.56 -88.37)"/><path class="fv" d="M452.37,252.78c-16.19-1.61-27.06-17.8-27.06-17.8s.69-16.42,21.74-34.92c.56-.49,1.13-1,1.7-1.42,9.7-2.54,20-2.84,30.2-1.76C449,217.29,452.37,252.78,452.37,252.78Zm31.08-58.72a74.927,74.927,0,0,1,14.48-6.26s-22.22-4.64-41.84,6A99.56,99.56,0,0,1,483.45,194.06Z" transform="translate(-341.56 -88.37)"/><path class="fw" d="M545.63,227.85c-4.8,27.65-31.55,42.24-63.24,42.24-28.63,0-52.43-11.91-60.17-34.59a59.332,59.332,0,0,0-.8,9.67c0,33.56,27.8,51.38,62.83,51.38s64-17.82,64-51.38a58.762,58.762,0,0,0-2.62-17.32Z" transform="translate(-341.56 -88.37)"/><path class="fx" d="M545.33,252.11c0,27.69-27.16,42.39-60,42.39s-58.88-14.7-58.88-42.39S453.08,202,485.9,202,545.33,224.41,545.33,252.11Z" transform="translate(-341.56 -88.37)"/><path class="fy" d="M544.26,249.82c0,27.69-27.15,42.39-60,42.39s-58.88-14.7-58.88-42.39,26.61-50.15,59.43-50.15S544.26,222.13,544.26,249.82Z" transform="translate(-341.56 -88.37)"/><path class="fz" d="M540.4,249.57c0,25.89-25.39,39.64-56.08,39.64s-55.06-13.75-55.06-39.64,24.88-46.89,55.57-46.89S540.4,223.67,540.4,249.57Z" transform="translate(-341.56 -88.37)"/><path class="ga" d="M537.56,249.38c0,24.57-24.1,37.61-53.21,37.61s-52.24-13-52.24-37.61,23.61-44.48,52.72-44.48S537.56,224.81,537.56,249.38Z" transform="translate(-341.56 -88.37)"/><path class="gb" d="M456,282c2.65-1.54,5.3-3.09,7.92-4.68a440.789,440.789,0,0,0,39.12-27c9.49-7.28,18.72-14.86,27.8-22.64-9-13.54-26.22-22.69-46-22.69-29.11,0-52.72,19.91-52.72,44.48C432.11,265.08,441.55,276.06,456,282Z" transform="translate(-341.56 -88.37)"/><path class="gc" d="M509.66,258.29a457.617,457.617,0,0,1-39.05,27.2l-.58.35c1.54.26,3.12.48,4.73.65A421.47,421.47,0,0,0,537,243.08a38.239,38.239,0,0,0-1.46-5.83C527.08,244.44,518.48,251.5,509.66,258.29Z" transform="translate(-341.56 -88.37)"/><path class="gd" d="M482.06,287h2.29c29.11,0,53.21-13,53.21-37.61v-1.08A414.7,414.7,0,0,1,482.06,287Z" transform="translate(-341.56 -88.37)"/><path class="ge" d="M488.64,205l-42.49,33.84,15.64,1.33L434,260.9a31.911,31.911,0,0,0,8.73,12.94l48.63-36.66-17.3-2,36-24.86A59.76,59.76,0,0,0,488.64,205Z" transform="translate(-341.56 -88.37)"/><path class="gf" d="M534,233.34c-5.32,18.54-26.74,28.31-51.93,28.31-22.29,0-41-7.64-48.62-22.24a38,38,0,0,0-1.35,10c0,24.57,23.12,37.61,52.24,37.61s53.21-13,53.21-37.61A38.35,38.35,0,0,0,534,233.34Z" transform="translate(-341.56 -88.37)"/><path class="gg" d="M476.79,208.28a24.19,24.19,0,0,1-3.86,1.54c-2.32.87-5.39,2.11-8.35,3.55a68.5,68.5,0,0,0-7.84,4.47c-1,.68-1.85,1.27-2.42,1.7l-.9.68-.9.67c-.57.42-1.38,1.05-2.31,1.85a49.187,49.187,0,0,0-6.3,6.4,45.19,45.19,0,0,0-5,7.52c-1.15,2.19-1.75,3.73-1.88,3.69a14.171,14.171,0,0,1,1.26-4,38.859,38.859,0,0,1,4.6-8,48.227,48.227,0,0,1,6.21-6.85c.93-.85,1.74-1.53,2.32-2l.91-.72.95-.67c.6-.42,1.48-1,2.55-1.66a63.005,63.005,0,0,1,8.2-4.24,71.409,71.409,0,0,1,8.65-3.07,17.62,17.62,0,0,1,4.11-.86Z" transform="translate(-341.56 -88.37)"/><path class="gh" d="M525.58,268.27a8.232,8.232,0,0,1-1.71,2.42,30,30,0,0,1-4.84,4.36,39.549,39.549,0,0,1-5.6,3.36c-1.61.78-2.71,1.22-2.71,1.22s-1.12.42-2.83.92a58.261,58.261,0,0,1-6.32,1.5c-4.64.84-9.32,1.16-9.35.94s4.59-1,9.09-2.16c2.25-.57,4.46-1.23,6.09-1.82s2.68-1,2.68-1,1.09-.37,2.67-1.05a43,43,0,0,0,5.59-2.92,37.853,37.853,0,0,0,5-3.82,15.327,15.327,0,0,1,2.24-1.95Z" transform="translate(-341.56 -88.37)"/><path class="gi" d="M533.35,257.36c.23.09,0,1.13-.31,2.13a6,6,0,0,1-2.41,3.41c-.81.68-1.73,1.2-1.89,1s.44-1,1-1.84,1-1.68,1-1.68.63-.72,1.23-1.51S533.12,257.27,533.35,257.36Z" transform="translate(-341.56 -88.37)"/></g></svg>