<svg xmlns="http://www.w3.org/2000/svg" xmlns:xlink="http://www.w3.org/1999/xlink" viewBox="0 0 1070.12 655.09"><defs><style>.cls-1{fill:url(#Áåçûìÿííûé_ãðàäèåíò_15);}.cls-2{fill:url(#Áåçûìÿííûé_ãðàäèåíò_15-2);}.cls-3{fill:url(#Áåçûìÿííûé_ãðàäèåíò_15-3);}.cls-4{fill:url(#Áåçûìÿííûé_ãðàäèåíò_15-4);}.cls-5{fill:url(#Áåçûìÿííûé_ãðàäèåíò_15-5);}.cls-6{fill:url(#linear-gradient);}.cls-7{fill:url(#linear-gradient-2);}.cls-8{fill:url(#linear-gradient-3);}.cls-9{fill:url(#linear-gradient-4);}.cls-10{fill:url(#linear-gradient-5);}.cls-11{fill:url(#linear-gradient-6);}.cls-12{fill:url(#linear-gradient-7);}.cls-13{fill:url(#linear-gradient-8);}.cls-14{fill:url(#linear-gradient-9);}.cls-15{fill:url(#linear-gradient-10);}.cls-16{fill:url(#linear-gradient-11);}.cls-17{fill:url(#linear-gradient-12);}.cls-18{fill:url(#linear-gradient-13);}.cls-19{fill:url(#linear-gradient-14);}.cls-20{fill:url(#linear-gradient-15);}.cls-21{fill:url(#linear-gradient-16);}.cls-22{fill:url(#linear-gradient-17);}.cls-23{fill:url(#linear-gradient-18);}</style><linearGradient id="Áåçûìÿííûé_ãðàäèåíò_15" x1="1106.36" y1="24.29" x2="1110.36" y2="524.29" gradientUnits="userSpaceOnUse"><stop offset="0" stop-color="#1d0e3d"/><stop offset="1" stop-color="#0f051d"/></linearGradient><linearGradient id="Áåçûìÿííûé_ãðàäèåíò_15-2" x1="1166.21" y1="23.81" x2="1170.21" y2="523.81" xlink:href="#Áåçûìÿííûé_ãðàäèåíò_15"/><linearGradient id="Áåçûìÿííûé_ãðàäèåíò_15-3" x1="1357.19" y1="22.29" x2="1361.19" y2="522.29" xlink:href="#Áåçûìÿííûé_ãðàäèåíò_15"/><linearGradient id="Áåçûìÿííûé_ãðàäèåíò_15-4" x1="911.32" y1="25.85" x2="915.32" y2="525.85" xlink:href="#Áåçûìÿííûé_ãðàäèåíò_15"/><linearGradient id="Áåçûìÿííûé_ãðàäèåíò_15-5" x1="813.66" y1="26.63" x2="817.66" y2="526.63" xlink:href="#Áåçûìÿííûé_ãðàäèåíò_15"/><linearGradient id="linear-gradient" x1="955.44" y1="1025.38" x2="1116.33" y2="1025.38" gradientTransform="translate(-239.69 -591.12) rotate(3.63)" gradientUnits="userSpaceOnUse"><stop offset="0.07" stop-color="#1d0e3d"/><stop offset="1" stop-color="#1d0e3d"/></linearGradient><linearGradient id="linear-gradient-2" x1="934.4" y1="1025.38" x2="1137.37" y2="1025.38" xlink:href="#linear-gradient"/><linearGradient id="linear-gradient-3" x1="975.94" y1="1025.38" x2="1095.84" y2="1025.38" xlink:href="#linear-gradient"/><linearGradient id="linear-gradient-4" x1="1500.89" y1="809.07" x2="1661.78" y2="809.07" gradientTransform="translate(-239.69 -591.12) rotate(3.63)" gradientUnits="userSpaceOnUse"><stop offset="0" stop-color="#1d0e3d"/><stop offset="0.62" stop-color="#1d0e3d"/><stop offset="1" stop-color="#1d0e3d"/></linearGradient><linearGradient id="linear-gradient-5" x1="1479.85" y1="809.07" x2="1682.83" y2="809.07" xlink:href="#linear-gradient-4"/><linearGradient id="linear-gradient-6" x1="1521.39" y1="809.07" x2="1641.29" y2="809.07" xlink:href="#linear-gradient-4"/><linearGradient id="linear-gradient-7" x1="1155.21" y1="686.38" x2="1316.08" y2="686.38" gradientTransform="matrix(0.78, 0.63, -0.63, 0.78, 452.25, -1132.75)" xlink:href="#linear-gradient-4"/><linearGradient id="linear-gradient-8" x1="1134.17" y1="686.38" x2="1337.13" y2="686.38" gradientTransform="matrix(0.78, 0.63, -0.63, 0.78, 452.25, -1132.75)" xlink:href="#linear-gradient-4"/><linearGradient id="linear-gradient-9" x1="1175.7" y1="686.37" x2="1295.59" y2="686.37" gradientTransform="matrix(0.78, 0.63, -0.63, 0.78, 452.25, -1132.75)" xlink:href="#linear-gradient-4"/><linearGradient id="linear-gradient-10" x1="1361.41" y1="434.01" x2="1565.99" y2="434.01" gradientTransform="translate(-94.26 -481.18) rotate(6.04)" xlink:href="#linear-gradient-4"/><linearGradient id="linear-gradient-11" x1="1334.65" y1="434.01" x2="1592.75" y2="434.01" gradientTransform="translate(-94.26 -481.18) rotate(6.04)" xlink:href="#linear-gradient-4"/><linearGradient id="linear-gradient-12" x1="1387.47" y1="434.01" x2="1539.93" y2="434.01" gradientTransform="translate(-94.26 -481.18) rotate(6.04)" xlink:href="#linear-gradient-4"/><linearGradient id="linear-gradient-13" x1="1307.6" y1="830.6" x2="1512.19" y2="830.6" gradientTransform="translate(1095.05 -1111.87) rotate(55.57)" xlink:href="#linear-gradient-4"/><linearGradient id="linear-gradient-14" x1="1280.85" y1="830.6" x2="1538.95" y2="830.6" gradientTransform="translate(1095.05 -1111.87) rotate(55.57)" xlink:href="#linear-gradient-4"/><linearGradient id="linear-gradient-15" x1="1333.66" y1="830.6" x2="1486.13" y2="830.6" gradientTransform="translate(1095.05 -1111.87) rotate(55.57)" xlink:href="#linear-gradient-4"/><linearGradient id="linear-gradient-16" x1="805.86" y1="1086.28" x2="1010.45" y2="1086.28" gradientTransform="translate(-44.23 -928.21) rotate(7.07)" xlink:href="#linear-gradient-4"/><linearGradient id="linear-gradient-17" x1="779.11" y1="1086.28" x2="1037.21" y2="1086.28" gradientTransform="translate(-44.23 -928.21) rotate(7.07)" xlink:href="#linear-gradient-4"/><linearGradient id="linear-gradient-18" x1="831.92" y1="1086.28" x2="984.39" y2="1086.28" gradientTransform="translate(-44.23 -928.21) rotate(7.07)" xlink:href="#linear-gradient-4"/></defs><title>bg</title><g id="Calque_2" data-name="Calque 2"><g id="OBJECTS"><path class="cls-1" d="M673.55,44.84C703.41,55.23,733.41,65.34,763,76.4s60.23,19.43,90.51,28.25c62,18,125.16,31.49,189.38,38.24,66.25,7,132.54,2.44,197.71-11.14,27.18-5.67,53.25-14.21,79-24.62,14.3-5.79,28.46-11.93,42.6-18.11,6.1-2.67,12.21-5.36,18.32-8q4.58-2,9.18-4l4.59-2,3.07-1.31q-5.34,2.27-1.52.64l3.14-1.32c1.51-.64,3-1.26,4.53-1.89q4.59-1.9,9.22-3.75,9.19-3.69,18.51-7.06c12.26-4.46,24.72-8.38,37.36-11.62,11.86-3,24-5.62,36.06-7.72,1.52-.27,3-.5,4.58-.73h.1c3.2-.4,6.42-.68,9.63-1,6.11-.54,12.21-.74,17.67-3.94,3.13-1.83,5.85-4.75,8.63-7.12,7.07-6,5.8-17.29,0-23.52C1542.63,1.93,1540-1,1536.63-3c-5.42-3.17-11.57-3.59-17.67-4a195.21,195.21,0,0,0-20.81,0,223,223,0,0,0-44.7,6.9c-28.19,7.14-55.29,18.13-82,29.6-12.75,5.49-25.41,11.19-38.09,16.83q-9.09,4-18.21,8l-4.55,1.95-.66.28q-5,2.09-10,4.1a462.41,462.41,0,0,1-80.5,24.26c-7.71,1.59-15.45,3-23.21,4.33-3.86.66-7.73,1.26-11.6,1.85-1.93.29-3.87.57-5.8.84l-.45.06-2.59.33c-16.07,2-32.22,3.37-48.39,4.11-32,1.45-64-.11-95.89-3.06-7.52-.7-15-1.53-22.53-2.43l-5.61-.7-3-.39q-5.65-.78-11.32-1.62c-15.58-2.33-31.1-5.07-46.56-8.09-31-6-61.74-13.1-92.35-20.68-28.23-7-56.07-15.38-84.4-21.9s-56.25-14.45-84.41-21.42a15.06,15.06,0,0,0-18.3,10.39C660.9,34.75,665.9,42.18,673.55,44.84Z" transform="translate(-588.38 7.27)"/><path class="cls-2" d="M1656.09,124.07c-41.65-29-95.71-16.23-139.39.56-45.8,17.6-87.89,42.88-132.59,62.82a635.18,635.18,0,0,1-84,30.47c-28.95,8.15-58.66,12.69-88.77,11.19-29.11-1.44-57.18-10.52-84.22-20.88-25-9.56-48.88-21.49-72.94-33.07-24.86-12-49.91-23.66-75.81-33.27a399.66,399.66,0,0,0-82.32-20.58c-58.08-8.43-118.24-10.88-175.5,3.91a298.54,298.54,0,0,0-42,14.32c-6,2.54-1.68,12.63,4.43,10.5,27.36-9.49,55.37-13.63,84.11-16,29.32-2.43,58.87-1.43,88.11,1.51,28.36,2.85,56.86,7.37,84.31,15.13,26.23,7.41,51.4,18,76,29.52,49.78,23.4,98.54,52.13,152,66.6,61.46,16.64,125.09,3.26,183.68-17.63a674.11,674.11,0,0,0,73.65-31.52c21.94-10.91,43.63-22.33,65.83-32.74s44.11-19.4,68.51-25.86c5.59-1.48,11.24-2.73,16.92-3.81,5.19-1,12.82-2.47,16-2.85,5.78-.71,9.84-1.36,16.51-1.77,5.87-.36,11.69.07,17.54,0,8.72-.17,17.43,1.26,26,2.89A5.15,5.15,0,0,0,1656.09,124.07Z" transform="translate(-588.38 7.27)"/><path class="cls-3" d="M1586,282c-8.53-5-17.5-1.32-22.92,6l-1.26,1.68-.13.16c-1.17,1.48-2.37,2.93-3.59,4.37-2.64,3.15-5.41,6.19-8.25,9.16a227.1,227.1,0,0,1-17.58,16.4q-2.25,1.89-4.53,3.72l-2.13,1.69c-3.37,2.57-6.82,5.06-10.3,7.49-7,4.84-14.1,9.38-21.38,13.72-15.14,9-30.88,17.07-46.82,24.6-8.24,3.89-16.55,7.61-24.89,11.26-4,1.77-8.12,3.51-12.18,5.24l-.91.38-2,.85-7.18,3c-35.29,14.65-70.94,28.46-105.71,44.34-31.43,14.35-62.42,30.5-89.87,51.65-21.43,16.51-40.38,35.64-54.78,58.68a181.56,181.56,0,0,0-17.28,36.85,103.92,103.92,0,0,0-5.14,21.88c-.91,7.64.66,15.23,2.33,22.66,2.28,10.19,18.14,12.69,22.84,3,1.69-3.48,3.76-6.82,5.28-10.36.84-2,1.64-3.89,2.44-5.84-2.33,5.67.41-.87,1.15-2.84a68.52,68.52,0,0,0,2.18-6.68c1-3.81,2.17-7.57,3.44-11.29.63-1.83,1.31-3.65,2-5.45.3-.79.61-1.56.93-2.34,0-.13.11-.26.18-.42A161.64,161.64,0,0,1,1181,564.83c2-3.17,4.12-6.25,6.32-9.29l1.42-1.9c1.25-1.59,2.54-3.15,3.85-4.7A202.14,202.14,0,0,1,1209,531.83c2.81-2.63,5.71-5.17,8.65-7.66q2.22-1.89,4.49-3.73c.7-.58,3.09-2.46,4-3.19a361.63,361.63,0,0,1,40.79-26.49c15.5-8.77,31.49-16.64,47.66-24.09,8.32-3.83,16.7-7.53,25.11-11.17q6.11-2.65,12.23-5.24l6.15-2.6,1.28-.54L1362,446c35.1-14.77,70.47-29,104.73-45.66,47.51-23.11,93.81-52,125.26-95.4C1597.33,297.55,1593.25,286.31,1586,282ZM1562,289.41c1.7-2.23.73-.94,0,0Z" transform="translate(-588.38 7.27)"/><path class="cls-4" d="M1131.29,412.41c-8.67-45-56.64-63.44-96.27-71.76C926.46,317.86,815.17,318.26,705.5,304c-11.71-1.52-14.47,19-2.79,20.63,62.72,8.62,125.94,12.38,188.92,18.5,30.8,3,61.53,6.88,92,12.27,23.59,4.17,47.73,8.54,70.48,16.22a108.13,108.13,0,0,1,25.4,11.8c2,1.24,3.91,2.57,5.8,3.95l.27.19.76.63c.89.73,1.74,1.49,2.6,2.26,1.71,1.52,3.3,3.15,4.85,4.83.78.84,1.51,1.71,2.24,2.58l.08.1,1.27,1.8a61.93,61.93,0,0,1,3.52,5.92c.44.82.84,1.67,1.23,2.51-.64-1.34.59,1.56.7,1.86a60.88,60.88,0,0,1,2,7c.29,1.23.5,2.48.71,3.73-.47-2.75.22,2.43.26,2.95a77.23,77.23,0,0,1-.36,13.08c0,.2-.08.61-.13,1-.13.81-.26,1.61-.4,2.41-.42,2.34-1,4.64-1.55,6.94a100.82,100.82,0,0,1-3.84,11.59l-.1.27-.08.17c-.41.94-.85,1.87-1.28,2.8-1,2.19-2.16,4.33-3.33,6.45-2,3.71-4.29,7.29-6.66,10.78-1.21,1.79-2.48,3.53-3.77,5.27l-.35.48-.07.08c-.9,1.15-1.83,2.28-2.76,3.41a217.87,217.87,0,0,1-19.63,20.56c-3.47,3.23-7,6.34-10.65,9.4-1.83,1.55-3.69,3.07-5.56,4.59-.94.76-1.89,1.51-2.84,2.26-.32.26-2.14,1.67-2.65,2.07-25.86,19.81-53.44,37.14-81.14,54.24-12.88,8-25.63,16-38.1,24.63-6.25,4.3-12.25,8.94-18.16,13.69-5.13,4.12-8.18,11.1-11.17,16.88-2.8,5.41,1.79,12.61,8.19,10.65q4.68-1.43,9.41-2.63a45.16,45.16,0,0,0,13.1-5.92q11.09-6.87,22.25-13.63c16.8-10.13,33.59-20.27,50.25-30.63,35-21.79,70.21-45,98.29-75.58C1119.13,490.34,1139,452.46,1131.29,412.41Z" transform="translate(-588.38 7.27)"/><path class="cls-5" d="M952.55,531.71A149.56,149.56,0,0,0,983.46,501c7.41-9.63,13.66-20.75,16.46-32.65,3.3-14.05,1.46-27.15-4.64-40.08-10.47-22.2-37.71-33.28-59.79-39.2-26.48-7.09-54.13-8.79-81.43-7.87-26.87.91-53.61,4.12-80.41,6.14-13.19,1-26.41,1.68-39.64,1.67-6.16,0-12.33-.2-18.48-.46-3-.12-6-.33-9.07-.58-1.5-.12-3-.27-4.48-.42-.64-.06-2.09-.25-3.19-.39-14.24-2.26-27.92-7-42.14-9.32-8.7-1.45-17.15.82-21.88,8.9a19.59,19.59,0,0,0,3,23.48c20.48,20.85,53,25.35,80.78,28,26.23,2.49,53.06,0,79.26-1.89,26.52-1.93,53.11-4.06,79.73-2.93,6.12.26,12.22.76,18.31,1.45,1.15.17,2.31.35,3.46.54,3.43.57,6.84,1.26,10.23,2,5.84,1.31,11.63,2.82,17.33,4.62,2.46.77,4.89,1.65,7.3,2.57,1.06.49,2.12,1,3.17,1.53,2,1,4,2.18,5.93,3.39q.62.38,1.2.78c.92.82,1.8,1.68,2.64,2.57.1.16.2.32.29.49s0,.6,0,.9c-.29,1.16-.64,2.3-1,3.43-.15.31-.3.62-.46.92a72.46,72.46,0,0,1-3.88,6.59c-.75,1.16-1.55,2.29-2.35,3.42-2,2.52-4.22,4.94-6.44,7.32a100.44,100.44,0,0,1-9.6,8.84c-.62.45-1.23.9-1.86,1.34-2.27,1.61-4.61,3.12-7,4.6-36.64,22.95-82.13,33.14-106.37,72.12a44.81,44.81,0,0,0-5.69,16c-.63,3.92-2.35,7.76-3.19,11.68-2.14,10.07,1.27,20.31,10.46,25.69,9.72,5.7,26.2,3.23,31.12-8.16,1-2.24,2-4.43,3.19-6.59.11-.21.25-.43.38-.64.29-.27.59-.53.87-.8,3.59-3.32,6.54-7.29,9.94-10.79,3.16-3.24,6.67-6.19,10.12-9.11l.66-.54.08,0c2.19-1.6,4.45-3.09,6.73-4.55,17-10.88,35.87-18.44,53.77-27.63A187.87,187.87,0,0,0,952.55,531.71Zm-55.86-96.79c2,.25,4.95.7,0,0Zm52,20.86c.34.72.46,1.05,0,0Zm-.82-2.14v0h0C949.15,455,950.93,457.69,947.89,453.64Zm-2.07,5.56c-.53,1.31-1,2.31,0,0Zm-100,140.07c.07-.09.09-.1,0,0Zm19.45-18.95c-2.15,1.7-1.19.92,0,0Z" transform="translate(-588.38 7.27)"/><path class="cls-6" d="M722.86,480.83c-45.39,16.85-79.39,38.05-75.94,47.36s43.06,3.19,88.45-13.66,79.39-38,75.94-47.36S768.25,464,722.86,480.83Zm11.49,30.95c-38,14.1-71.14,19.22-74,11.43s25.57-25.53,63.56-39.63,71.14-19.22,74-11.43S772.34,497.68,734.35,511.78Z" transform="translate(-588.38 7.27)"/><path class="cls-7" d="M832.81,459.19c-4.36-11.74-54.32-4-111.59,17.23s-100.16,48-95.8,59.75,54.32,4,111.59-17.23S837.17,470.93,832.81,459.19Zm-97,56.43c-48.33,17.94-90.49,24.45-94.17,14.54s32.52-32.48,80.86-50.42S813,455.29,816.63,465.2,784.11,497.68,735.77,515.62Z" transform="translate(-588.38 7.27)"/><path class="cls-8" d="M724.45,485.12c-33.83,12.56-59.17,28.36-56.59,35.3s32.09,2.38,65.92-10.18,59.16-28.36,56.59-35.3S758.28,472.56,724.45,485.12Zm8.75,23.56c-29.63,11-55.46,15-57.72,8.91s19.94-19.91,49.55-30.91,55.46-15,57.72-8.91S762.82,497.68,733.2,508.68Z" transform="translate(-588.38 7.27)"/><path class="cls-9" d="M1280.86,299.5c-45.39,16.84-79.39,38.05-75.94,47.36s43.06,3.19,88.45-13.66,79.39-38.06,75.94-47.36S1326.25,282.65,1280.86,299.5Zm11.49,30.95c-38,14.1-71.14,19.22-74,11.43s25.57-25.53,63.56-39.63,71.14-19.22,74-11.44S1330.34,316.35,1292.35,330.45Z" transform="translate(-588.38 7.27)"/><path class="cls-10" d="M1390.81,277.86c-4.36-11.74-54.32-4-111.59,17.23s-100.16,48-95.8,59.75,54.32,4,111.59-17.23S1395.17,289.6,1390.81,277.86Zm-97,56.43c-48.33,17.94-90.49,24.45-94.17,14.54s32.52-32.48,80.86-50.42S1371,274,1374.63,283.86,1342.11,316.35,1293.77,334.29Z" transform="translate(-588.38 7.27)"/><path class="cls-11" d="M1282.45,303.79c-33.83,12.56-59.17,28.36-56.59,35.29s32.09,2.38,65.92-10.18,59.16-28.36,56.59-35.29S1316.28,291.23,1282.45,303.79Zm8.75,23.55c-29.63,11-55.46,15-57.72,8.92s19.94-19.91,49.55-30.91,55.46-15,57.72-8.91S1320.82,316.34,1291.2,327.34Z" transform="translate(-588.38 7.27)"/><path class="cls-12" d="M982.9,161.85c-46.75-12.63-86.75-15.09-89.33-5.5s33.21,27.58,79.95,40.2,86.75,15.09,89.33,5.5S1029.64,174.47,982.9,161.85Zm-8.61,31.87c-39.13-10.56-69.08-25.63-66.92-33.65s35.63-6,74.76,4.61,69.09,25.63,66.92,33.64S1013.42,204.29,974.29,193.72Z" transform="translate(-588.38 7.27)"/><path class="cls-13" d="M1085,208c3.27-12.09-41.9-34.8-100.87-50.72s-109.43-19-112.69-6.94,41.9,34.8,100.87,50.72S1081.73,220.12,1085,208ZM973.22,197.67c-49.77-13.43-87.89-32.6-85.13-42.8s45.33-7.59,95.11,5.86,87.88,32.6,85.13,42.8S1023,211.11,973.22,197.67Z" transform="translate(-588.38 7.27)"/><path class="cls-14" d="M981.7,166.27c-34.84-9.41-64.64-11.24-66.57-4.1s24.75,20.56,59.59,30,64.64,11.24,66.57,4.1S1016.54,175.67,981.7,166.27Zm-6.55,24.25c-30.5-8.23-53.86-20-52.17-26.23s27.78-4.65,58.29,3.58,53.86,20,52.17,26.24S1005.66,198.76,975.15,190.52Z" transform="translate(-588.38 7.27)"/><path class="cls-15" d="M1308.5,82.79c-58.58,19-102.91,44.09-99,56.1s54.53,6.36,113.1-12.61,102.92-44.09,99-56.1S1367.08,63.82,1308.5,82.79Zm12.94,39.94c-49,15.88-91.41,20.6-94.67,10.55s33.85-31.07,82.88-46.94,91.41-20.61,94.66-10.56S1370.46,106.85,1321.44,122.73Z" transform="translate(-588.38 7.27)"/><path class="cls-16" d="M1449.35,61.2c-4.91-15.15-68.79-8-142.69,15.9s-129.83,55.62-124.92,70.77,68.79,8,142.69-15.91S1454.26,76.34,1449.35,61.2ZM1323,127.68c-62.37,20.2-116.29,26.22-120.43,13.43s43.06-39.53,105.43-59.72S1424.33,55.17,1428.47,68,1385.41,107.48,1323,127.68Z" transform="translate(-588.38 7.27)"/><path class="cls-17" d="M1310.29,88.33c-43.65,14.14-76.69,32.86-73.79,41.8s40.64,4.75,84.29-9.39,76.69-32.86,73.8-41.81S1354,74.19,1310.29,88.33Zm9.85,30.39c-38.23,12.38-71.27,16.06-73.81,8.23s26.4-24.22,64.61-36.61,71.27-16.06,73.81-8.22S1358.36,106.34,1320.14,118.72Z" transform="translate(-588.38 7.27)"/><path class="cls-18" d="M1219.18,501c-52.46-32.23-100.35-49.65-107-38.89s30.57,45.6,83,77.84,100.35,49.66,107,38.9S1271.63,533.27,1219.18,501Zm-22,35.78c-43.9-27-75-56.16-69.48-65.16s45.61,5.58,89.51,32.56,75,56.15,69.49,65.15S1241.1,563.78,1197.19,536.8Z" transform="translate(-588.38 7.27)"/><path class="cls-19" d="M1327,594.14c8.34-13.56-38.55-57.54-104.73-98.21s-126.6-62.64-134.93-49.07,38.55,57.53,104.73,98.2S1318.71,607.71,1327,594.14Zm-132.57-52.91c-55.86-34.32-95.43-71.44-88.39-82.88s58,7.09,113.87,41.42,95.43,71.43,88.39,82.88S1250.33,575.56,1194.47,541.23Z" transform="translate(-588.38 7.27)"/><path class="cls-20" d="M1216.13,506c-39.1-24-74.79-37-79.71-29s22.78,34,61.87,58,74.78,37,79.71,29S1255.23,530,1216.13,506ZM1199.4,533.2c-34.23-21-58.48-43.77-54.17-50.79s35.56,4.35,69.79,25.38,58.48,43.78,54.17,50.8S1233.64,554.24,1199.4,533.2Z" transform="translate(-588.38 7.27)"/><path class="cls-21" d="M716.56,239.63c-58.91,17.92-103.69,42.25-100,54.32s54.41,7.34,113.31-10.58,103.69-42.25,100-54.33S775.46,221.71,716.56,239.63Zm12.22,40.17c-49.31,15-91.77,19-94.84,8.86s34.4-30.46,83.7-45.46,91.76-19,94.84-8.86S778.08,264.8,728.78,279.8Z" transform="translate(-588.38 7.27)"/><path class="cls-22" d="M857.77,220.56c-4.63-15.23-68.64-9.26-143,13.35S584,287.21,588.65,302.44s68.64,9.25,143-13.35S862.41,235.79,857.77,220.56ZM730.29,284.78c-62.72,19.08-116.74,24.13-120.64,11.27s43.75-38.75,106.48-57.83S832.86,214.09,836.78,227,793,265.7,730.29,284.78Z" transform="translate(-588.38 7.27)"/><path class="cls-23" d="M718.25,245.2c-43.9,13.36-77.27,31.49-74.53,40.48s40.55,5.47,84.45-7.89,77.27-31.48,74.53-40.48S762.15,231.84,718.25,245.2Zm9.3,30.57c-38.44,11.69-71.54,14.78-73.94,6.9s26.82-23.74,65.26-35.44,71.54-14.79,73.94-6.91S766,264.07,727.55,275.77Z" transform="translate(-588.38 7.27)"/></g></g></svg>