<svg xmlns="http://www.w3.org/2000/svg" xmlns:xlink="http://www.w3.org/1999/xlink" width="1641.205" height="457.835"
    viewBox="0 0 1641.205 457.835">
    <defs>
        <style>
            .a,
            .aa,
            .ab,
            .ac,
            .ad,
            .ae,
            .af,
            .ag,
            .ah,
            .ai,
            .aj,
            .ak,
            .al,
            .am,
            .an,
            .ao,
            .ap,
            .aq,
            .ar,
            .as,
            .at,
            .au,
            .av,
            .aw,
            .ax,
            .ay,
            .az,
            .b,
            .ba,
            .bb,
            .bc,
            .bd,
            .be,
            .bf,
            .bg,
            .bh,
            .bi,
            .bj,
            .bk,
            .bl,
            .bm,
            .bn,
            .bo,
            .bp,
            .bq,
            .br,
            .bs,
            .bt,
            .bu,
            .bv,
            .bw,
            .bx,
            .by,
            .bz,
            .c,
            .ca,
            .cb,
            .cc,
            .cd,
            .ce,
            .cf,
            .cg,
            .ch,
            .ci,
            .cj,
            .ck,
            .cl,
            .cm,
            .cn,
            .co,
            .cp,
            .cq,
            .cr,
            .cs,
            .ct,
            .cu,
            .cv,
            .cw,
            .cx,
            .cy,
            .cz,
            .d,
            .da,
            .db,
            .dc,
            .dd,
            .de,
            .df,
            .dg,
            .dh,
            .di,
            .dj,
            .e,
            .f,
            .g,
            .h,
            .i,
            .j,
            .k,
            .l,
            .m,
            .n,
            .o,
            .p,
            .q,
            .r,
            .s,
            .t,
            .u,
            .v,
            .w,
            .x,
            .y,
            .z {
                fill-rule: evenodd;
            }

            .a {
                fill: url(#a);
            }

            .b {
                fill: url(#b);
            }

            .c {
                fill: url(#c);
            }

            .d {
                fill: url(#d);
            }

            .e {
                fill: url(#e);
            }

            .f {
                fill: url(#f);
            }

            .g {
                fill: #756ac9;
            }

            .h,
            .j {
                opacity: 0.5;
            }

            .h {
                fill: url(#g);
            }

            .i {
                fill: #c39ecb;
            }

            .j {
                fill: url(#h);
            }

            .k {
                fill: url(#i);
            }

            .l {
                fill: #756aba;
            }

            .m {
                fill: url(#j);
            }

            .n {
                fill: #7551ba;
            }

            .o {
                fill: url(#k);
            }

            .p {
                fill: url(#l);
            }

            .q {
                fill: url(#m);
            }

            .r {
                fill: url(#n);
            }

            .s {
                fill: url(#o);
            }

            .t {
                fill: url(#p);
            }

            .u {
                fill: url(#q);
            }

            .v {
                fill: url(#r);
            }

            .w {
                fill: url(#s);
            }

            .x {
                fill: url(#t);
            }

            .y {
                fill: url(#u);
            }

            .z {
                fill: url(#v);
            }

            .aa {
                fill: url(#w);
            }

            .ab {
                fill: url(#x);
            }

            .ac {
                fill: url(#y);
            }

            .ad {
                fill: url(#z);
            }

            .ae {
                fill: url(#aa);
            }

            .af {
                fill: url(#ab);
            }

            .ag {
                fill: url(#ac);
            }

            .ah {
                fill: url(#ad);
            }

            .ai {
                fill: url(#ae);
            }

            .aj {
                fill: url(#af);
            }

            .ak {
                fill: url(#ag);
            }

            .al {
                fill: url(#ah);
            }

            .am {
                fill: url(#ai);
            }

            .an {
                fill: url(#aj);
            }

            .ao {
                fill: url(#ak);
            }

            .ap {
                fill: url(#al);
            }

            .aq {
                fill: url(#am);
            }

            .ar {
                fill: url(#an);
            }

            .as {
                fill: url(#ao);
            }

            .at {
                fill: url(#ap);
            }

            .au {
                fill: url(#aq);
            }

            .av {
                fill: url(#ar);
            }

            .aw {
                fill: url(#as);
            }

            .ax {
                fill: url(#at);
            }

            .ay {
                fill: url(#au);
            }

            .az {
                fill: url(#av);
            }

            .ba {
                fill: url(#aw);
            }

            .bb {
                fill: url(#ax);
            }

            .bc {
                fill: url(#ay);
            }

            .bd {
                fill: url(#az);
            }

            .be {
                fill: url(#ba);
            }

            .bf {
                fill: url(#bb);
            }

            .bg {
                fill: url(#bc);
            }

            .bh {
                fill: url(#bd);
            }

            .bi {
                fill: url(#be);
            }

            .bj {
                fill: url(#bf);
            }

            .bk {
                fill: url(#bg);
            }

            .bl {
                fill: url(#bh);
            }

            .bm {
                fill: url(#bi);
            }

            .bn {
                fill: url(#bj);
            }

            .bo {
                fill: url(#bk);
            }

            .bp {
                fill: url(#bl);
            }

            .bq {
                fill: url(#bm);
            }

            .br {
                fill: url(#bn);
            }

            .bs {
                fill: url(#bo);
            }

            .bt {
                fill: url(#bp);
            }

            .bu {
                fill: url(#bq);
            }

            .bv {
                fill: url(#br);
            }

            .bw {
                fill: url(#bs);
            }

            .bx {
                fill: url(#bt);
            }

            .by {
                fill: url(#bu);
            }

            .bz {
                fill: url(#bv);
            }

            .ca {
                fill: url(#bw);
            }

            .cb {
                fill: url(#bx);
            }

            .cc {
                fill: url(#bz);
            }

            .cd {
                fill: url(#cb);
            }

            .ce {
                fill: url(#cc);
            }

            .cf {
                fill: url(#cd);
            }

            .cg {
                opacity: 0.2;
                fill: url(#ce);
            }

            .ch {
                fill: url(#cf);
            }

            .ci {
                fill: url(#cg);
            }

            .cj,
            .cm {
                opacity: 0.36;
            }

            .cj {
                fill: url(#ch);
            }

            .ck {
                fill: url(#cj);
            }

            .cl {
                fill: url(#ck);
            }

            .cm {
                fill: url(#cl);
            }

            .cn {
                fill: url(#cn);
            }

            .co {
                fill: url(#co);
            }

            .cp {
                fill: url(#cp);
            }

            .cq {
                fill: url(#cr);
            }

            .cr {
                fill: url(#cs);
            }

            .cs {
                fill: url(#ct);
            }

            .ct {
                fill: url(#cv);
            }

            .cu {
                fill: url(#cw);
            }

            .cv {
                fill: url(#cx);
            }

            .cw {
                fill: url(#cy);
            }

            .cx {
                fill: url(#cz);
            }

            .cy {
                fill: url(#da);
            }

            .cz {
                fill: url(#db);
            }

            .da {
                fill: url(#dc);
            }

            .db {
                fill: url(#df);
            }

            .dc {
                fill: url(#dg);
            }

            .dd {
                fill: url(#di);
            }

            .de {
                fill: url(#dj);
            }

            .df {
                fill: url(#dl);
            }

            .dg {
                fill: url(#dm);
            }

            .dh {
                fill: url(#dn);
            }

            .di {
                fill: url(#do);
            }

            .dj {
                fill: url(#dq);
            }
        </style>
        <linearGradient id="a" x1="0.5" y1="1" x2="0.5" gradientUnits="objectBoundingBox">
            <stop offset="0" stop-color="#3d2887" />
            <stop offset="0.26" stop-color="#311b7a" />
            <stop offset="0.65" stop-color="#240e6d" />
            <stop offset="1" stop-color="#200969" />
        </linearGradient>
        <linearGradient id="b" x1="0.5" y1="1" x2="0.5" gradientUnits="objectBoundingBox">
            <stop offset="0" stop-color="#6389fd" />
            <stop offset="1" stop-color="#5234dd" />
        </linearGradient>
        <linearGradient id="c" x1="0.5" y1="1" x2="0.5" gradientUnits="objectBoundingBox">
            <stop offset="0" stop-color="#240061" />
            <stop offset="1" stop-color="#1b0531" />
        </linearGradient>
        <linearGradient id="d" x1="0" y1="0.5" x2="1" y2="0.5" xlink:href="#c" />
        <linearGradient id="e" x1="0.5" y1="1" x2="0.5" y2="0" xlink:href="#c" />
        <linearGradient id="f" x1="0.5" y1="1" x2="0.5" gradientUnits="objectBoundingBox">
            <stop offset="0" stop-color="#01003e" />
            <stop offset="1" stop-color="#1b0531" />
        </linearGradient>
        <linearGradient id="g" y1="0.5" x2="1" y2="0.5" gradientUnits="objectBoundingBox">
            <stop offset="0" stop-color="#b77cbc" />
            <stop offset="1" stop-color="#451390" />
        </linearGradient>
        <linearGradient id="h" y1="0.5" x2="1" y2="0.5" gradientUnits="objectBoundingBox">
            <stop offset="0" stop-color="#967cff" />
            <stop offset="1" stop-color="#4513b5" />
        </linearGradient>
        <linearGradient id="i" x1="0" y1="0.5" x2="1" y2="0.5" xlink:href="#f" />
        <linearGradient id="j" x1="0.5" x2="0.5" y2="0" xlink:href="#f" />
        <linearGradient id="k" x1="0.5" y1="1" x2="0.5" gradientUnits="objectBoundingBox">
            <stop offset="0" stop-color="#802c7d" />
            <stop offset="0.09" stop-color="#722b7e" />
            <stop offset="0.33" stop-color="#532980" />
            <stop offset="0.57" stop-color="#3d2882" />
            <stop offset="0.8" stop-color="#302783" />
            <stop offset="1" stop-color="#2b2783" />
        </linearGradient>
        <linearGradient id="l" y1="0.496" x2="0.997" y2="0.496" gradientUnits="objectBoundingBox">
            <stop offset="0" stop-color="#090d4c" />
            <stop offset="1" stop-color="#180033" />
        </linearGradient>
        <linearGradient id="m" x1="1.8" y1="-0.843" x2="1.8" y2="-1.788" gradientUnits="objectBoundingBox">
            <stop offset="0" stop-color="#3d0a61" />
            <stop offset="0.23" stop-color="#320a64" />
            <stop offset="0.64" stop-color="#250968" />
            <stop offset="1" stop-color="#200969" />
        </linearGradient>
        <linearGradient id="n" x1="1.511" y1="-2.364" x2="2.435" y2="-2.364" xlink:href="#l" />
        <linearGradient id="o" x1="-0.872" y1="-5.306" x2="-0.872" y2="-6.28" xlink:href="#m" />
        <linearGradient id="p" x1="-1.493" y1="-12.654" x2="-0.529" y2="-12.654" xlink:href="#l" />
        <linearGradient id="q" x1="8.318" y1="-7.451" x2="8.318" y2="-8.395" xlink:href="#m" />
        <linearGradient id="r" x1="8.318" y1="-12.989" x2="9.239" y2="-12.989" xlink:href="#l" />
        <linearGradient id="s" x1="2.188" y1="-12.558" x2="2.188" y2="-13.504" xlink:href="#m" />
        <linearGradient id="t" x1="1.911" y1="-21.23" x2="2.832" y2="-21.23" xlink:href="#l" />
        <linearGradient id="u" x1="8.599" y1="4.079" x2="8.599" y2="3.133" xlink:href="#m" />
        <linearGradient id="v" x1="8.61" y1="5.57" x2="9.529" y2="5.57" xlink:href="#l" />
        <linearGradient id="w" x1="17.773" y1="-13.974" x2="17.773" y2="-14.924" xlink:href="#m" />
        <linearGradient id="x" x1="18.006" y1="-23.346" x2="18.923" y2="-23.346" xlink:href="#l" />
        <linearGradient id="y" x1="12.702" y1="-40.958" x2="12.702" y2="-41.907" xlink:href="#m" />
        <linearGradient id="z" x1="12.757" y1="-66.551" x2="13.677" y2="-66.551" xlink:href="#l" />
        <linearGradient id="aa" x1="-6.669" y1="6.26" x2="-6.669" y2="5.154" xlink:href="#l" />
        <linearGradient id="ab" x1="-12.074" y1="6.158" x2="-10.828" y2="6.158" xlink:href="#l" />
        <linearGradient id="ac" x1="20.065" y1="14.547" x2="20.065" y2="13.441" xlink:href="#l" />
        <linearGradient id="ad" x1="31.579" y1="14.742" x2="32.817" y2="14.742" xlink:href="#l" />
        <linearGradient id="ae" x1="4.617" y1="39.469" x2="4.617" y2="38.651" xlink:href="#l" />
        <linearGradient id="af" x1="4.682" y1="68.176" x2="5.22" y2="68.176" xlink:href="#l" />
        <linearGradient id="ag" x1="20.634" y1="42.89" x2="20.634" y2="42.071" xlink:href="#l" />
        <linearGradient id="ah" x1="22.029" y1="74.6" x2="22.568" y2="74.6" xlink:href="#l" />
        <linearGradient id="ai" x1="-0.376" y1="36.35" x2="-0.376" y2="35.531" xlink:href="#l" />
        <linearGradient id="aj" x1="-0.716" y1="62.699" x2="-0.178" y2="62.699" xlink:href="#l" />
        <linearGradient id="ak" x1="-17.382" y1="21.709" x2="-17.382" y2="20.89" xlink:href="#l" />
        <linearGradient id="al" x1="-19.119" y1="37.2" x2="-18.581" y2="37.2" xlink:href="#l" />
        <linearGradient id="am" x1="41.577" y1="55.715" x2="41.577" y2="54.897" xlink:href="#l" />
        <linearGradient id="an" x1="44.703" y1="97.246" x2="45.242" y2="97.246" xlink:href="#l" />
        <linearGradient id="ao" x1="-0.294" y1="9.051" x2="-0.294" y2="7.951" xlink:href="#l" />
        <linearGradient id="ap" x1="-1.638" y1="9.05" x2="-0.393" y2="9.05" xlink:href="#l" />
        <linearGradient id="aq" x1="-1.269" y1="12.406" x2="-1.269" y2="11.297" xlink:href="#l" />
        <linearGradient id="ar" x1="-3.201" y1="12.525" x2="-1.963" y2="12.525" xlink:href="#l" />
        <linearGradient id="as" x1="-16.003" y1="101.086" x2="-16.003" y2="99.977" xlink:href="#l" />
        <linearGradient id="at" x1="-27.362" y1="104.38" x2="-26.116" y2="104.38" xlink:href="#l" />
        <linearGradient id="au" x1="-62.639" y1="106.828" x2="-62.639" y2="105.724" xlink:href="#l" />
        <linearGradient id="av" x1="-103.676" y1="110.358" x2="-102.434" y2="110.358" xlink:href="#l" />
        <linearGradient id="aw" x1="-7.129" y1="56.327" x2="-7.129" y2="55.222" xlink:href="#l" />
        <linearGradient id="ax" x1="-12.828" y1="58.018" x2="-11.583" y2="58.018" xlink:href="#l" />
        <linearGradient id="ay" x1="11.366" y1="-19.002" x2="11.366" y2="-20.111" xlink:href="#l" />
        <linearGradient id="az" x1="17.298" y1="-19.963" x2="18.538" y2="-19.963" xlink:href="#l" />
        <linearGradient id="ba" x1="28.189" y1="-16.963" x2="28.189" y2="-18.064" xlink:href="#l" />
        <linearGradient id="bb" x1="44.8" y1="-17.896" x2="46.043" y2="-17.896" xlink:href="#l" />
        <linearGradient id="bc" x1="24.526" y1="-31.881" x2="24.526" y2="-32.987" xlink:href="#l" />
        <linearGradient id="bd" x1="39.08" y1="-33.348" x2="40.325" y2="-33.348" xlink:href="#l" />
        <linearGradient id="be" x1="44.55" y1="-34.511" x2="44.55" y2="-35.62" xlink:href="#l" />
        <linearGradient id="bf" x1="71.414" y1="-36.118" x2="72.652" y2="-36.118" xlink:href="#l" />
        <linearGradient id="bg" x1="51.915" y1="-43.08" x2="51.915" y2="-44.05" xlink:href="#l" />
        <linearGradient id="bh" x1="56.801" y1="-92.653" x2="57.759" y2="-92.653" xlink:href="#l" />
        <linearGradient id="bi" x1="43.941" y1="-59.893" x2="43.941" y2="-60.994" xlink:href="#l" />
        <linearGradient id="bj" x1="70.853" y1="-62.351" x2="72.098" y2="-62.351" xlink:href="#l" />
        <linearGradient id="bk" x1="-7.897" y1="53.631" x2="-7.897" y2="52.526" xlink:href="#l" />
        <linearGradient id="bl" x1="-14.08" y1="55.226" x2="-12.834" y2="55.226" xlink:href="#l" />
        <linearGradient id="bm" x1="9.764" y1="-14.983" x2="9.764" y2="-16.002" xlink:href="#m" />
        <linearGradient id="bn" x1="11.277" y1="-30.335" x2="12.302" y2="-30.335" xlink:href="#l" />
        <linearGradient id="bo" x1="9.964" y1="-19.05" x2="9.964" y2="-20.069" xlink:href="#m" />
        <linearGradient id="bp" x1="11.522" y1="-38.008" x2="12.546" y2="-38.008" xlink:href="#l" />
        <linearGradient id="bq" x1="9.739" y1="-11.971" x2="9.739" y2="-12.916" xlink:href="#m" />
        <linearGradient id="br" x1="9.809" y1="-20.266" x2="10.728" y2="-20.266" xlink:href="#l" />
        <linearGradient id="bs" x1="19.346" y1="8.161" x2="19.346" y2="7.216" xlink:href="#m" />
        <linearGradient id="bt" x1="19.856" y1="12.144" x2="20.779" y2="12.144" xlink:href="#l" />
        <linearGradient id="bu" x1="0.5" y1="1" x2="0.5" y2="0" xlink:href="#a" />
        <linearGradient id="bv" x1="0" y1="0.499" x2="0.997" y2="0.499" xlink:href="#l" />
        <linearGradient id="bw" x1="0.502" y1="1" x2="0.502" y2="0" xlink:href="#k" />
        <linearGradient id="bx" x1="0" y1="0.499" x2="1" y2="0.499" xlink:href="#l" />
        <linearGradient id="bz" x1="0" y1="0.5" x2="0.995" y2="0.5" xlink:href="#l" />
        <linearGradient id="cb" x1="0" y1="0.499" x2="0.993" y2="0.499" xlink:href="#l" />
        <linearGradient id="cc" x1="0.499" y1="1" x2="0.499" y2="0" xlink:href="#a" />
        <linearGradient id="cd" x1="0.001" y1="0.5" x2="1" y2="0.5" xlink:href="#f" />
        <linearGradient id="ce" x1="0" y1="0.5" x2="0.998" y2="0.5" xlink:href="#h" />
        <linearGradient id="cf" x1="0.601" y1="0.948" x2="0.601" y2="-0.068" xlink:href="#a" />
        <linearGradient id="cg" x1="0" y1="0.5" x2="1" y2="0.5" xlink:href="#f" />
        <linearGradient id="ch" x1="0" y1="0.5" x2="1" y2="0.5" xlink:href="#h" />
        <linearGradient id="cj" x1="1.088" y1="1.444" x2="1.088" y2="0.428" xlink:href="#a" />
        <linearGradient id="ck" x1="0" y1="0.501" x2="1" y2="0.501" xlink:href="#f" />
        <linearGradient id="cl" x1="0" y1="0.501" x2="1" y2="0.501" xlink:href="#h" />
        <linearGradient id="cn" x1="0.5" y1="1" x2="0.5" y2="0" xlink:href="#a" />
        <linearGradient id="co" x1="0" y1="0.5" x2="1" y2="0.5" xlink:href="#f" />
        <linearGradient id="cp" x1="0" y1="0.5" x2="1" y2="0.5" xlink:href="#f" />
        <linearGradient id="cr" x1="0.5" y1="1" x2="0.5" y2="-0.002" xlink:href="#a" />
        <linearGradient id="cs" x1="0" y1="0.499" x2="1" y2="0.499" xlink:href="#f" />
        <linearGradient id="ct" x1="0" y1="0.502" x2="1" y2="0.502" xlink:href="#f" />
        <linearGradient id="cv" x1="0.499" x2="0.499" y2="0" xlink:href="#b" />
        <linearGradient id="cw" x1="0.5" y1="1" x2="0.5" y2="0" xlink:href="#m" />
        <linearGradient id="cx" x1="0" y1="0.5" x2="1" y2="0.5" xlink:href="#l" />
        <linearGradient id="cy" x1="0.499" x2="0.499" y2="0" xlink:href="#b" />
        <linearGradient id="cz" x1="0.5" y1="1" x2="0.5" y2="-0.002" xlink:href="#m" />
        <linearGradient id="da" x1="0" y1="0.501" x2="1" y2="0.501" xlink:href="#l" />
        <linearGradient id="db" x1="0.499" x2="0.499" y2="0" xlink:href="#b" />
        <linearGradient id="dc" x1="0.502" y1="1.005" x2="0.502" y2="-0.002" xlink:href="#m" />
        <linearGradient id="df" x1="0.499" y1="0.996" x2="0.499" y2="0.003" xlink:href="#m" />
        <linearGradient id="dg" x1="0" y1="0.5" x2="1.001" y2="0.5" xlink:href="#l" />
        <linearGradient id="di" x1="0.5" y1="1" x2="0.5" y2="-0.001" xlink:href="#m" />
        <linearGradient id="dj" x1="0" y1="0.502" x2="1" y2="0.502" xlink:href="#l" />
        <linearGradient id="dl" x1="-14.252" y1="0.996" x2="-14.252" y2="-0.01" xlink:href="#m" />
        <linearGradient id="dm" x1="23.397" y1="65.119" x2="24.397" y2="65.119" xlink:href="#l" />
        <linearGradient id="dn" x1="50.176" y1="29.318" x2="50.176" y2="28.318" xlink:href="#b" />
        <linearGradient id="do" x1="0.501" y1="1" x2="0.501" y2="-0.001" xlink:href="#m" />
        <linearGradient id="dq" x1="0.502" x2="0.502" y2="0" xlink:href="#b" />
    </defs>
    <g transform="translate(0 0.01)">
        <g transform="translate(0 -0.01)">
            <path class="a"
                d="M896.335,277.781s-7.774,8.4-17.674,17.415a142.221,142.221,0,0,1-23.531,18.14l-9.044,4.535L772,354.9l-4.146,7.774-3.239,6.012-2.825,5.183-17.777,24.2s-18.5.752-27.392,0l-23.323-26.433-13.527-15.419-8.578-9.744-8.681-2.851-6.945-2.281L643.8,337.488l-22.883-21.509-4.872-4.561-4.406-4.3L602,298.072,591.63,288.38s7.956-9.822,13.605-12.465l9.848-20.032s40.038-37.421,61.21-47.243a696.242,696.242,0,0,1,151.161-13.968l4.172,21.535,13.968-1.5,19.7,24.541,13.786,17.181,13.346,16.611h0l.829,1.037Z"
                transform="translate(376.466 -112.419)" />
            <path class="b"
                d="M661.474,203.44l11.066,54.551L702,282.273l1.529,8.992L700.5,310.908l28.351,53.669-12.284,19.281-45.377-51.6L643.8,323.27l-52.14-49.031L606.146,259.7l8.941-17.959S650.849,210.2,661.474,203.44Z"
                transform="translate(376.514 -98.304)" />
            <path class="c"
                d="M609.89,258.019l33.689-24.282L761.854,218.68l-7.178,11.662-81.631,27.677S636.349,262.269,609.89,258.019Z"
                transform="translate(405.526 -74.05)" />
            <path class="d"
                d="M393.73,123.43,453.438,91.4,518.82,75.9,646.165,63.8,604.987,99.329,521.852,140.9l-71.447-29.854L423.947,132.4Z"
                transform="translate(626.61 101.562)" />
            <path class="e" d="M639.86,287.924l12.284-19.281L685,263.72s-10.185,18.14-17.752,24.2Z"
                transform="translate(453.223 -2.37)" />
            <path class="f" d="M447.69,105.784l47.994-52.529L491.512,31.72l-36.643,62.4Z"
                transform="translate(712.486 50.507)" />
            <path class="g" d="M403.4,67.309l2.643-7.619L419.571,63.5Z" transform="translate(642 95.021)" />
            <path class="g" d="M426.863,100.94l-2.073,13.113,8.811-9.1Z" transform="translate(676.041 160.669)" />
            <path class="h" d="M391.83,87.977l64.631,8.992,65.383-15.5L536.59,60.3,454.958,87.977Z"
                transform="translate(623.586 95.992)" />
            <path class="i"
                d="M872.868,244.467a32.73,32.73,0,0,1-7.775-4.224,150.021,150.021,0,0,0-46.828-21.535,45.245,45.245,0,0,1-12.051-4.354,21.355,21.355,0,0,0-4.872-2.592,14.357,14.357,0,0,0-6.375.156c-40.712,6.738-84.223-1.244-122.343,14.59a45.116,45.116,0,0,0-12.491,7.2c-6.66,5.7-10.366,14.124-16.533,20.421-5.183,5.338-11.817,8.967-17.674,13.5a63.256,63.256,0,0,0-19.358,23.66,41.48,41.48,0,0,0-1.347,3.965l-9.64-9.044c14.512-13.813,31.771-24.7,44.5-40.323,7.385-9.07,14.02-19.177,23.867-25.448,8.344-5.313,18.14-7.438,28.014-9.122,34.778-5.96,70.151-7.541,105.421-9.1a47.376,47.376,0,0,1,11.014.389,42.159,42.159,0,0,1,8.241,2.747,275.594,275.594,0,0,1,42.319,22.028Z"
                transform="translate(382.752 -100.485)" />
            <path class="i"
                d="M879.366,251.1c-24.93-1.581-47.113-15.549-70.877-23.323-40.66-13.165-84.741-7.334-126.982-1.348a69.971,69.971,0,0,0-19.151,4.561,64.139,64.139,0,0,0-18.3,13.942c-4.121,4.069-25.915,31.875-38.069,45.61l-4.872-4.561a60.179,60.179,0,0,0,11.688-10.7c11.325-12.646,23.556-24.9,34.156-38.147a36.284,36.284,0,0,1,9.3-8.267,35.114,35.114,0,0,1,9.588-3.058,729.154,729.154,0,0,1,112.366-15.16,10.132,10.132,0,0,1,6.841,1.27c1.762,1.348,2.591,3.654,3.913,5.312,4.017,4.535,11.247,2.436,17.285,2.591,8.059.311,15.056,5.338,22,9.433a110.269,110.269,0,0,0,37.292,13.735c4.2.751,9.148,1.814,11.946,4.639h0l.829,1.037a6.869,6.869,0,0,1,1.037,2.436Z"
                transform="translate(391.569 -87.059)" />
            <path class="i"
                d="M713.6,270.721l-3.239,6.012a111.742,111.742,0,0,0-41.464-14.486,24.359,24.359,0,0,0-13.579,1.011,25.629,25.629,0,0,0-7.93,6.738q-4.2,4.742-8.137,9.718L625.72,264.294c9.278-5.183,19.98-11.817,29.906-12.024a41.466,41.466,0,0,1,9.744,1.3l28.921,6.142a37.368,37.368,0,0,1,14.875,5.494,15.236,15.236,0,0,1,4.432,5.52Z"
                transform="translate(430.72 -20.592)" />
            <path class="j"
                d="M839.368,233.448a142.218,142.218,0,0,1-23.531,18.14l-9.044,4.535c-10.366-8.111-25.552-7.93-39.053-7.127l-44.314,2.591c-20.732,1.244-41.748,2.591-61.651,8.552a97.362,97.362,0,0,0-38.509,21.639l-6.945-2.28a228.268,228.268,0,0,1,22.961-12.828c11.247-6.531,22.6-13.139,35.037-16.948,20.965-6.427,43.407-4.509,65.279-5.779C773,241.974,806.145,232.411,839.368,233.448Z"
                transform="translate(415.76 -50.672)" />
            <path class="k"
                d="M388.672,92.931l3.6,12.491L442.16,89.613l16.482-13.605,38.742,4.3,84.041-23.842,11.014-1.84,8.63-22.909,4.172,21.535,13.968-1.5-30.346,7.7L500.442,81.891,463.617,86.3l-21.146,6.479-50.015,16.041-13.605,4.146Z"
                transform="translate(602.929 50.507)" />
            <path class="l"
                d="M609.427,40.953,593.852,45.54l-75.567,19.8-13.657,4.25L467.8,73.994l-21.146,6.479L393.842,96.514l-10.806,4.146-6.816,5.675,65.253-21.069,5.183-3.447,21.976-5.338,24-4.095,15.989,2.151,25.992-11.351,60.381-14.409,28.4-9.329Z"
                transform="translate(598.744 62.81)" />
            <path class="m" d="M461.54,71l25.992-7.2,12.8,3.6-20.55,4.535Z" transform="translate(734.528 101.562)" />
            <path class="n" d="M461.54,68.792l19.41-1.762,19.384-1.84-20.55,6.064Z"
                transform="translate(734.528 103.774)" />
            <path class="o"
                d="M661.08,282.9l5.649,20.032,26.848,5.675,3.784-19.281s-1.14-12.957-17.026-18.892C680.335,270.43,663.723,277.608,661.08,282.9Z"
                transform="translate(486.994 8.309)" />
            <path class="p"
                d="M663.26,291.355l5.183-10.573,25.526-3.032-3.784,19.281A90.026,90.026,0,0,1,663.26,291.355Z"
                transform="translate(490.463 19.958)" />
            <path class="q"
                d="M448.5,167.429l-5.416,20.11,20.11,18.633,13.139-14.59s5.624-11.61-4.872-24.956C471.379,166.626,453.5,164.242,448.5,167.429Z"
                transform="translate(140.053 -158.256)" />
            <path class="r" d="M443.08,178.133l9.822-6.453,23.323,10.366-13.139,14.59a90.7,90.7,0,0,1-20.006-18.5Z"
                transform="translate(140.053 -148.849)" />
            <path class="s"
                d="M633.48,173.573l3.809,20.447,26.2,8.059,5.546-18.84s0-12.957-15.212-20.369C653.823,162.9,636.616,168.519,633.48,173.573Z"
                transform="translate(443.069 -162.87)" />
            <path class="t" d="M635,181.469l6.064-10.055,25.681-.674-5.675,18.814A89.846,89.846,0,0,1,635,181.469Z"
                transform="translate(445.488 -150.345)" />
            <path class="u"
                d="M495.591,245.423,493,254.934l9.511,8.811,6.219-6.919a11.532,11.532,0,0,0-2.332-11.791S498.028,243.92,495.591,245.423Z"
                transform="translate(219.499 -32.741)" />
            <path class="v" d="M493,250.488l4.639-3.058,11.091,4.95-6.219,6.919A42.915,42.915,0,0,1,493,250.488Z"
                transform="translate(219.499 -28.295)" />
            <path class="w"
                d="M582.972,193.883l-2.591,9.485,9.511,8.811,6.22-6.893a11.505,11.505,0,0,0-2.306-11.791S585.33,192.38,582.972,193.883Z"
                transform="translate(358.562 -114.765)" />
            <path class="x" d="M580.39,198.922l4.639-3.032,11.091,4.95-6.22,6.893a42.763,42.763,0,0,1-9.511-8.811Z"
                transform="translate(358.578 -110.32)" />
            <path class="y"
                d="M340.9,206.177l-2.592,9.511,9.511,8.811,6.22-6.893a11.558,11.558,0,0,0-2.332-11.791S343.26,204.674,340.9,206.177Z"
                transform="translate(-26.686 -95.184)" />
            <path class="z" d="M338.32,211.248l4.639-3.058,11.091,4.976-6.219,6.893A42.141,42.141,0,0,1,338.32,211.248Z"
                transform="translate(-26.67 -90.744)" />
            <path class="aa"
                d="M488.645,265.169l-1.425,5.183,5.183,4.872,3.447-3.835a6.375,6.375,0,0,0-1.27-6.531,15.108,15.108,0,0,0-5.934.311Z"
                transform="translate(210.301 -0.813)" />
            <path class="ab" d="M487.22,267.97l2.591-1.71,6.142,2.747-3.447,3.835a23.48,23.48,0,0,1-5.287-4.872Z"
                transform="translate(210.301 1.672)" />
            <path class="ac"
                d="M696.085,288.049l-1.425,5.183,5.183,4.9,3.447-3.835a6.349,6.349,0,0,0-1.3-6.531,15,15,0,0,0-5.909.285Z"
                transform="translate(540.435 35.626)" />
            <path class="ad" d="M694.66,290.834l2.591-1.684,6.142,2.747-3.447,3.835A24.046,24.046,0,0,1,694.66,290.834Z"
                transform="translate(540.435 38.101)" />
            <path class="ae"
                d="M498.284,263.256l3.5.777,3.058-3.576-2.591-2.151a4.2,4.2,0,0,0-4.25,1.011,10.053,10.053,0,0,0,.285,3.939Z"
                transform="translate(227.328 -11.313)" />
            <path class="af" d="M500.126,263.907l-1.166-1.633,1.633-4.094,2.591,2.151a15.392,15.392,0,0,1-3.058,3.576Z"
                transform="translate(228.984 -11.187)" />
            <path class="ag"
                d="M478.549,193.536l3.473.777,3.084-3.576-2.592-2.151a4.2,4.2,0,0,0-4.25,1.011,9.563,9.563,0,0,0,.285,3.939Z"
                transform="translate(195.907 -122.27)" />
            <path class="ah"
                d="M480.376,194.187l-1.166-1.633,1.659-4.095,2.591,2.151A15.159,15.159,0,0,1,480.376,194.187Z"
                transform="translate(197.553 -122.144)" />
            <path class="ai"
                d="M629,184.179l.829,4.095,7.774,2.954,1.97-3.317s.207-2.462-4.3-4.691a21.121,21.121,0,0,0-6.271.959Z"
                transform="translate(435.939 -130.484)" />
            <path class="aj" d="M629.36,186.157l2-1.607,7.775,1.244-1.97,3.317a44.458,44.458,0,0,1-7.8-2.954Z"
                transform="translate(436.512 -128.367)" />
            <path class="ak"
                d="M515.87,290.349l.829,4.12,7.774,2.928,1.97-3.291s.207-2.462-4.3-4.717A21.972,21.972,0,0,0,515.87,290.349Z"
                transform="translate(255.896 38.483)" />
            <path class="al" d="M516.19,292.337l2-1.607,7.774,1.244-1.97,3.291a45.453,45.453,0,0,1-7.8-2.928Z"
                transform="translate(256.405 40.616)" />
            <path class="am"
                d="M674.14,187.159l.855,4.094,7.774,2.954,1.97-3.317s.233-2.462-4.3-4.691a21.222,21.222,0,0,0-6.3.959Z"
                transform="translate(507.779 -125.741)" />
            <path class="an" d="M674.47,189.137l2-1.607,7.774,1.244-1.97,3.317a43.821,43.821,0,0,1-7.8-2.954Z"
                transform="translate(508.303 -123.624)" />
            <path class="ao"
                d="M847.28,267.369l.829,4.095,7.774,2.954,1.97-3.317s.207-2.591-4.3-4.691A21.121,21.121,0,0,0,847.28,267.369Z"
                transform="translate(783.326 1.911)" />
            <path class="ap" d="M847.6,269.331l2-1.581,7.775,1.218-1.97,3.317a44.453,44.453,0,0,1-7.8-2.954Z"
                transform="translate(783.835 4.044)" />
            <path class="aq"
                d="M327.69,282.709l.829,4.095,7.774,2.954,1.97-3.317s.207-2.462-4.3-4.691A21.121,21.121,0,0,0,327.69,282.709Z"
                transform="translate(-43.587 26.324)" />
            <path class="ar" d="M328,284.671l2-1.581,7.774,1.218-1.97,3.317A43.612,43.612,0,0,1,328,284.671Z"
                transform="translate(-43.094 28.457)" />
            <path class="as"
                d="M495.228,245.676l3.473.8,3.084-3.576-2.591-2.177a4.2,4.2,0,0,0-4.25,1.011,9.666,9.666,0,0,0,.285,3.939Z"
                transform="translate(222.454 -39.291)" />
            <path class="at" d="M497.076,246.353l-1.166-1.633,1.633-4.12,2.591,2.177a15.783,15.783,0,0,1-3.058,3.576Z"
                transform="translate(224.13 -39.165)" />
            <path class="au"
                d="M502.934,244.066l3.5.777,3.058-3.576-2.591-2.151a4.2,4.2,0,0,0-4.25,1.011,10.052,10.052,0,0,0,.285,3.939Z"
                transform="translate(234.729 -41.853)" />
            <path class="av" d="M504.792,244.717l-1.192-1.633,1.659-4.095,2.591,2.151a15.39,15.39,0,0,1-3.058,3.576Z"
                transform="translate(236.369 -41.727)" />
            <path class="aw"
                d="M693.684,175.736l3.5.777,3.058-3.576-2.591-2.151a4.2,4.2,0,0,0-4.25,1.011A10.025,10.025,0,0,0,693.684,175.736Z"
                transform="translate(538.302 -150.598)" />
            <path class="ax" d="M695.526,176.387l-1.166-1.633,1.633-4.095,2.591,2.151a15.393,15.393,0,0,1-3.058,3.576Z"
                transform="translate(539.958 -150.472)" />
            <path class="ay"
                d="M844.04,281.012l4.406.985,3.887-4.509-3.291-2.747a5.338,5.338,0,0,0-5.39,1.27,12.357,12.357,0,0,0,.388,5Z"
                transform="translate(777.392 14.753)" />
            <path class="az" d="M846.347,281.806l-1.477-2.073,2.073-5.183,3.291,2.747A19,19,0,0,1,846.347,281.806Z"
                transform="translate(779.49 14.866)" />
            <path class="ba"
                d="M595.508,207l3.473.777,3.084-3.576-2.591-2.151a4.2,4.2,0,0,0-4.25,1.011,9.692,9.692,0,0,0,.285,3.939Z"
                transform="translate(382.047 -100.849)" />
            <path class="bb"
                d="M597.336,207.647l-1.166-1.633,1.633-4.095,2.591,2.151A15.163,15.163,0,0,1,597.336,207.647Z"
                transform="translate(383.691 -100.723)" />
            <path class="bc"
                d="M379.248,253.614l6.479,1.477,5.7-6.634-4.846-4.017a7.775,7.775,0,0,0-7.774,1.866S378.16,252.085,379.248,253.614Z"
                transform="translate(37.461 -33.624)" />
            <path class="bd" d="M382.713,254.871l-2.2-3.032,3.058-7.619,4.846,4.017a29.466,29.466,0,0,1-5.7,6.634Z"
                transform="translate(40.475 -33.404)" />
            <path class="be"
                d="M344.554,179.175l6.479,1.477,5.7-6.66-4.794-4.017a7.774,7.774,0,0,0-7.9,1.892S343.491,177.62,344.554,179.175Z"
                transform="translate(-17.795 -152.172)" />
            <path class="bf" d="M347.987,180.417l-2.177-3.058,3.058-7.619,4.82,4.017A28.5,28.5,0,0,1,347.987,180.417Z"
                transform="translate(-14.749 -151.937)" />
            <path class="bg"
                d="M383.028,236.636l3.473.777,3.084-3.576-2.591-2.151a4.2,4.2,0,0,0-4.25,1.011,9.666,9.666,0,0,0,.285,3.939Z"
                transform="translate(43.891 -53.678)" />
            <path class="bh" d="M384.856,237.287l-1.166-1.633,1.633-4.095,2.592,2.151a15.161,15.161,0,0,1-3.058,3.576Z"
                transform="translate(45.535 -53.552)" />
            <path class="bi"
                d="M351.154,194.664l3.5.8,3.058-3.576-2.592-2.151a4.146,4.146,0,0,0-4.25,1.011,9.925,9.925,0,0,0,.285,3.913Z"
                transform="translate(-6.825 -120.444)" />
            <path class="bj" d="M353.012,195.337,351.82,193.7l1.659-4.095,2.592,2.151a15.4,15.4,0,0,1-3.058,3.576Z"
                transform="translate(-5.185 -120.314)" />
            <path class="bk"
                d="M386,242.542l.57,3.524,4.457,1.5,1.037-3.213a4.224,4.224,0,0,0-2.591-3.576S386.57,241.687,386,242.542Z"
                transform="translate(49.212 -38.878)" />
            <path class="bl" d="M386.23,243.87l1.089-1.71h4.405l-1.037,3.213a16.092,16.092,0,0,1-4.457-1.5Z"
                transform="translate(49.578 -36.682)" />
            <path class="bm"
                d="M302.574,225.346l3.5.8,3.058-3.576-2.591-2.177a4.2,4.2,0,0,0-4.25,1.011A10.029,10.029,0,0,0,302.574,225.346Z"
                transform="translate(-84.139 -71.645)" />
            <path class="bn" d="M304.416,226.023l-1.166-1.659,1.633-4.095,2.592,2.177a16.013,16.013,0,0,1-3.058,3.576Z"
                transform="translate(-82.483 -71.519)" />
            <path class="bo"
                d="M591.314,211.8l3.5.777L597.87,209l-2.591-2.151a4.2,4.2,0,0,0-4.25,1.011A10.028,10.028,0,0,0,591.314,211.8Z"
                transform="translate(375.383 -93.21)" />
            <path class="bp" d="M593.156,212.447l-1.166-1.633,1.633-4.095,2.591,2.151a15.4,15.4,0,0,1-3.058,3.576Z"
                transform="translate(377.039 -93.084)" />
            <path class="bq"
                d="M604.3,339.186l2.1,6.271,8.63,1.4.907-6.194a7.775,7.775,0,0,0-5.7-5.753S605.052,337.45,604.3,339.186Z"
                transform="translate(396.63 110.927)" />
            <path class="br" d="M605.11,341.944l1.477-3.447,8.059-1.348-.907,6.194a28.5,28.5,0,0,1-8.629-1.4Z"
                transform="translate(397.919 114.492)" />
            <path class="bs"
                d="M219.19,330.02l2.1,6.3,8.63,1.4.907-6.219a7.774,7.774,0,0,0-5.7-5.727S219.942,328.31,219.19,330.02Z"
                transform="translate(-216.262 96.381)" />
            <path class="bt" d="M220,332.8l1.477-3.447,8.06-1.373-.907,6.219a29.487,29.487,0,0,1-8.63-1.4Z"
                transform="translate(-214.973 99.898)" />
            <path class="bu"
                d="M551.4,278.543l-2.591,9.511,9.511,8.811,6.22-6.919a11.506,11.506,0,0,0-2.307-11.791S553.76,277.04,551.4,278.543Z"
                transform="translate(308.319 19.969)" />
            <path class="bv" d="M548.82,283.608l4.639-3.058,11.092,4.95-6.22,6.919a43.6,43.6,0,0,1-9.511-8.811Z"
                transform="translate(308.335 24.414)" />
            <path class="bw"
                d="M252.351,314.333l-2.591,9.511,9.511,8.811,6.194-6.919a11.506,11.506,0,0,0-2.306-11.791S254.71,312.83,252.351,314.333Z"
                transform="translate(-167.61 76.928)" />
            <path class="bx" d="M249.78,319.4l4.639-3.058,11.066,4.95-6.194,6.919a42.914,42.914,0,0,1-9.511-8.811Z"
                transform="translate(-167.579 81.373)" />
            <path class="by"
                d="M795.39,305.521l5.675,20.032,26.822,5.649,3.784-19.255s-1.14-12.957-17-18.918C814.671,292.953,798.033,300.235,795.39,305.521Z"
                transform="translate(700.745 44.276)" />
            <path class="bz" d="M797.58,313.935l5.183-10.6,25.526-3.006-3.784,19.255a90.34,90.34,0,0,1-26.925-5.649Z"
                transform="translate(704.23 55.894)" />
            <path class="ca"
                d="M621.47,275.646l3.291,11.636L640.31,290.6l2.177-11.221a14.15,14.15,0,0,0-9.873-10.988S623,272.562,621.47,275.646Z"
                transform="translate(423.955 5.062)" />
            <path class="cb"
                d="M622.74,280.534l2.98-6.142,14.823-1.762-2.177,11.221A53.074,53.074,0,0,1,622.74,280.534Z"
                transform="translate(425.977 11.81)" />
            <path class="o"
                d="M782.58,289.106l2.773,9.822,13.139,2.773,1.866-9.433a11.947,11.947,0,0,0-8.344-9.277S783.876,286.514,782.58,289.106Z"
                transform="translate(680.358 28.298)" />
            <path class="cc" d="M783.65,293.23l2.591-5.183,12.491-1.477L796.867,296a44.725,44.725,0,0,1-13.216-2.773Z"
                transform="translate(682.061 33.995)" />
            <path class="o"
                d="M839.59,284.606l2.8,9.8,13.139,2.8,1.84-9.459a11.9,11.9,0,0,0-8.318-9.252S840.886,282.015,839.59,284.606Z"
                transform="translate(771.087 21.136)" />
            <path class="cd" d="M840.67,288.72l2.591-5.183,12.491-1.477-1.84,9.459a44.31,44.31,0,0,1-13.242-2.8Z"
                transform="translate(772.806 26.817)" />
            <path class="ce"
                d="M820.845,295.754l-.259.881-7.515,23.5-35.529,20.395v19.307l-15.86,10.936-19.332-42.733-4.38-9.614L732.527,306.4,724.1,287.591,710.37,257.27l8.707-17.933,29.076-12.957,4.172,5.675,44.211-5.675a118.677,118.677,0,0,1,14.435,29.1,210.409,210.409,0,0,1,7.282,26.381c.751,3.576,1.3,6.634,1.685,8.966C820.482,293.94,820.845,295.754,820.845,295.754Z"
                transform="translate(565.437 -61.796)" />
            <path class="cf"
                d="M719.1,231.35l22.313,70.281,13.968,35.711,11.895-7.541,7.567.181,1.322-16.067s26.278-19.281,44.6-26.07l-7.645,24.386-35.5,20.395v19.332l-15.886,10.91L710.34,249.283Z"
                transform="translate(565.39 -53.886)" />
            <path class="cg" d="M726.55,232.065l23.816,89.743,44.729-26.07s-7-50.275-24.179-69.348Z"
                transform="translate(591.188 -61.78)" />
            <path class="i"
                d="M809.818,263.928l-7.775.544a319.756,319.756,0,0,0-44.47,5.183,84.841,84.841,0,0,0-8.733,2.281,55.586,55.586,0,0,0-24.567,16.534l-8.6-18.814a18.814,18.814,0,0,1,4.743-8.966,15.913,15.913,0,0,1,7.049-3.188l75.153-19.851A210.45,210.45,0,0,1,809.818,263.928Z"
                transform="translate(573.872 -43.86)" />
            <path class="i"
                d="M803.752,256.206l-.259.881q-8.552.181-17.052,1.14A109.436,109.436,0,0,0,754.41,266a74.611,74.611,0,0,0-28.921,22.572l-4.38-9.614a50.272,50.272,0,0,1,13.372-11.947,78.994,78.994,0,0,1,20.032-8.6,181.4,181.4,0,0,1,48.279-7.178C803.389,254.392,803.752,256.206,803.752,256.206Z"
                transform="translate(582.53 -22.248)" />
            <path class="ch"
                d="M498.33,256.877l1.659-42.474s19.047-8.345,28.247-11.377l.337-9.07,42.967-10.806L584.5,197.844l-10.521,29.672L563.609,266.8l-31.538,8.422L521.187,263.46Z"
                transform="translate(227.982 -130.595)" />
            <path class="ci"
                d="M280.27,52.22l23.816-6.79,2.54,12.465,32.031-9.07,7.023,15.082-31.512,8.4L303.282,60.538,280.27,53.982Z"
                transform="translate(446.042 72.327)" />
            <path class="cj" d="M310.176,27.94l-6.09,45.325-23.816,6.79,1.659-40.738Z"
                transform="translate(446.042 44.492)" />
            <path class="b" d="M302.8,88.866V49.942L317.649,20.27l13.035,14.694L318.012,72.851l-8.189,31.1Z"
                transform="translate(481.898 32.285)" />
            <path class="ck"
                d="M315.07,308.17l.57-15.031s6.738-2.954,10-4.017l.13-3.213,15.186-3.809,4.613,5.183-3.732,10.366-3.628,14.02-11.143,2.98-3.835-4.172Z"
                transform="translate(-63.671 26.881)" />
            <path class="cl"
                d="M97.01,130.52l8.422-2.41.907,4.406,11.325-3.187,2.488,5.313-11.143,2.98-3.861-4.146-8.137-2.332Z"
                transform="translate(154.389 203.909)" />
            <path class="cm" d="M107.583,121.93l-2.151,16.015-8.422,2.41.6-14.409Z"
                transform="translate(154.389 194.074)" />
            <path class="b" d="M104.98,143.476V129.715l5.235-10.5,4.613,5.183-4.483,13.4-2.877,10.988Z"
                transform="translate(167.073 189.761)" />
            <path class="cn"
                d="M410.774,266.429l15.316,17.389A122.242,122.242,0,0,0,468.616,258.5l6.4-25.319,7.567-8.941-13.605-37.55s-31.357-5.183-61.211,20.732L403,240l13.994,9.459Z"
                transform="translate(76.267 -125.635)" />
            <path class="co"
                d="M406,227.529s20.991-13.968,45.351-16.819l12.491,8.889a132.164,132.164,0,0,1-42.526,25.319Z"
                transform="translate(81.041 -86.734)" />
            <path class="cp" d="M416.944,224.1,456.231,209.7V202.18s-22.39.57-53.281,12.465Z"
                transform="translate(76.187 -100.309)" />
            <path class="b"
                d="M219.688,23.55,206.861,34.927,204.58,64.366l2.281,7.541,5.287-24.178,4.613-3.473-9.9,42.215,12.465,8.889,6.427-25.319,7.541-8.941Z"
                transform="translate(325.583 37.505)" />
            <path class="cq"
                d="M370.45,204.753l-6.79,45.739,18.14,8.681,43.848-8.681,2.591-4.509h11.714l7.282-9.874,3.291-24.749-8.241-4.017-17.752-2.591-.389-9.07L412.82,190.5S384.055,193.014,370.45,204.753Z"
                transform="translate(13.658 -118.898)" />
            <path class="cr" d="M363.66,219.723s15.886-10.184,47.994-9.9l13.994,9.9L381.8,228.43Z"
                transform="translate(13.658 -88.154)" />
            <path class="cs" d="M385.75,210.373l7.386,9.485h11.714L403.32,206.9S391.581,208.87,385.75,210.373Z"
                transform="translate(48.814 -92.797)" />
            <path class="b" d="M165.26,27.57l-1.14,50.223,9.277-4.12,3.576-31.746-.363-9.07Z"
                transform="translate(261.192 43.903)" />
            <path class="ct" d="M178.264,34.13,174.48,59.837l1.5,12.88,7.282-9.848,3.317-24.774Z"
                transform="translate(277.68 54.343)" />
            <path class="cu" d="M279.311,109.58l-3.421,37.6,20.991,12.931,6.22-5,16.456-45.532-10.21-7.93Z"
                transform="translate(439.071 161.799)" />
            <path class="cv" d="M275.89,123.151l25.811-6.4,1.4,14.331-6.22,5Z" transform="translate(439.071 185.83)" />
            <path class="cw" d="M293.495,101.65l-7.645,39.131,1.4,14.331,16.456-45.532Z"
                transform="translate(454.922 161.799)" />
            <path class="cx"
                d="M462.23,290.419v25.422l14.175,9.07,13.838-9.07,6.3-25.422L490.14,285a70.617,70.617,0,0,0-27.91,5.416Z"
                transform="translate(170.53 31.494)" />
            <path class="cy" d="M244.18,136.805l20.68-4.535,7.334,4.535-13.864,9.07Z"
                transform="translate(388.606 210.53)" />
            <path class="cz" d="M259.494,122.1l-7.334,26.355,7.334,4.535,6.271-25.422Z"
                transform="translate(401.306 194.345)" />
            <path class="da"
                d="M391.28,251.037v12.724l7.049,4.431,6.919-4.535,3.136-12.724-3.136-2.591a35.477,35.477,0,0,0-13.968,2.7Z"
                transform="translate(57.615 -26.848)" />
            <path class="cv" d="M173.23,92.795l10.34-2.255,3.654,2.255L180.3,97.33Z"
                transform="translate(275.691 144.118)" />
            <path class="b" d="M180.874,85.45,177.22,98.641l3.654,2.255,3.136-12.7Z"
                transform="translate(282.041 136.017)" />
            <path class="db"
                d="M218.06,296.183v22.909l12.776,8.163,12.465-8.163,5.7-22.909L243.3,291a63.594,63.594,0,0,0-25.241,5.183Z"
                transform="translate(-218.06 41.045)" />
            <path class="dc" d="M0,141.425l18.659-4.095,6.582,4.095-12.465,8.189Z" transform="translate(0 218.583)" />
            <path class="ct" d="M13.782,128.17,7.2,151.908,13.782,156l5.675-22.909Z"
                transform="translate(11.459 204.005)" />
            <path class="dd"
                d="M292.83,269.312v12.724l7.1,4.535,6.919-4.535,3.136-12.724-3.136-2.721a35.478,35.478,0,0,0-14.02,2.721Z"
                transform="translate(-99.066 2.196)" />
            <path class="de" d="M74.78,111.07l10.34-2.28,3.654,2.28-6.919,4.535Z"
                transform="translate(119.01 173.162)" />
            <path class="b" d="M82.424,103.71,78.77,116.875l3.654,2.28,3.136-12.7Z"
                transform="translate(125.36 165.077)" />
            <path class="df"
                d="M756.357,203.225v12.258l-6.79,4.431-6.738-4.328-3.11-12.258,3.006-2.591a33.69,33.69,0,0,1,13.631,2.488Z"
                transform="translate(612.147 -102.624)" />
            <path class="dg" d="M536.427,44.829l-10-2.1-3.524,2.2,6.712,4.328Z" transform="translate(832.181 68.03)" />
            <path class="dh" d="M524.706,37.83l3.628,12.7-3.524,2.2L521.7,40.5Z"
                transform="translate(830.271 60.231)" />
            <path class="di"
                d="M437.78,182.048v12.7l7.075,4.535,6.919-4.535,3.136-12.7-3.136-2.747a35.14,35.14,0,0,0-13.994,2.747Z"
                transform="translate(131.618 -136.723)" />
            <path class="cv" d="M219.72,23.765l10.34-2.255,3.68,2.255L226.821,28.3Z"
                transform="translate(349.678 34.258)" />
            <path class="dj" d="M227.39,16.42l-3.68,13.191,3.68,2.255,3.136-12.7Z"
                transform="translate(356.028 26.158)" />
        </g>
    </g>
</svg>