<svg xmlns="http://www.w3.org/2000/svg" xmlns:xlink="http://www.w3.org/1999/xlink" viewBox="0 0 25.41 25.41"><defs><style>.cls-1{isolation:isolate;}.cls-2{fill:url(#radial-gradient);}.cls-3{fill:url(#radial-gradient-2);}.cls-4,.cls-57,.cls-6,.cls-7,.cls-8,.cls-9{mix-blend-mode:screen;}.cls-4{fill:url(#radial-gradient-3);}.cls-5{opacity:0.7;}.cls-6{fill:url(#radial-gradient-4);}.cls-7{fill:url(#radial-gradient-5);}.cls-8{fill:url(#radial-gradient-6);}.cls-9{fill:url(#radial-gradient-7);}.cls-10,.cls-11,.cls-12,.cls-13,.cls-14,.cls-15,.cls-16,.cls-17,.cls-18,.cls-19,.cls-20,.cls-21,.cls-22,.cls-23,.cls-24,.cls-25,.cls-26,.cls-27,.cls-28,.cls-29,.cls-30,.cls-31,.cls-32,.cls-33,.cls-34,.cls-35,.cls-36,.cls-37,.cls-38,.cls-39,.cls-40,.cls-41,.cls-42,.cls-43,.cls-44,.cls-45,.cls-46,.cls-47,.cls-48,.cls-49,.cls-50,.cls-51,.cls-52,.cls-53,.cls-54,.cls-55,.cls-56,.cls-57{opacity:0.5;}.cls-10,.cls-11,.cls-12,.cls-13,.cls-14,.cls-15,.cls-16,.cls-17,.cls-18,.cls-19,.cls-20,.cls-21,.cls-22,.cls-23,.cls-24,.cls-25,.cls-26,.cls-27,.cls-28,.cls-29,.cls-30,.cls-31,.cls-32,.cls-33,.cls-34,.cls-35,.cls-36,.cls-37,.cls-38,.cls-39,.cls-40,.cls-41,.cls-42,.cls-43,.cls-44,.cls-45,.cls-46,.cls-47,.cls-48,.cls-49,.cls-50,.cls-51,.cls-52,.cls-53,.cls-54,.cls-55,.cls-56{mix-blend-mode:multiply;}.cls-10{fill:url(#radial-gradient-8);}.cls-11{fill:url(#radial-gradient-9);}.cls-12{fill:url(#radial-gradient-10);}.cls-13{fill:url(#radial-gradient-11);}.cls-14{fill:url(#radial-gradient-12);}.cls-15{fill:url(#radial-gradient-14);}.cls-16{fill:url(#radial-gradient-15);}.cls-17{fill:url(#radial-gradient-16);}.cls-18{fill:url(#radial-gradient-17);}.cls-19{fill:url(#radial-gradient-18);}.cls-20{fill:url(#radial-gradient-19);}.cls-21{fill:url(#radial-gradient-20);}.cls-22{fill:url(#radial-gradient-21);}.cls-23{fill:url(#radial-gradient-22);}.cls-24{fill:url(#radial-gradient-23);}.cls-25{fill:url(#radial-gradient-24);}.cls-26{fill:url(#radial-gradient-25);}.cls-27{fill:url(#radial-gradient-26);}.cls-28{fill:url(#radial-gradient-27);}.cls-29{fill:url(#radial-gradient-28);}.cls-30{fill:url(#radial-gradient-29);}.cls-31{fill:url(#radial-gradient-30);}.cls-32{fill:url(#radial-gradient-31);}.cls-33{fill:url(#radial-gradient-32);}.cls-34{fill:url(#radial-gradient-33);}.cls-35{fill:url(#radial-gradient-34);}.cls-36{fill:url(#radial-gradient-36);}.cls-37{fill:url(#radial-gradient-37);}.cls-38{fill:url(#radial-gradient-38);}.cls-39{fill:url(#radial-gradient-40);}.cls-40{fill:url(#radial-gradient-41);}.cls-41{fill:url(#radial-gradient-42);}.cls-42{fill:url(#radial-gradient-43);}.cls-43{fill:url(#radial-gradient-44);}.cls-44{fill:url(#radial-gradient-45);}.cls-45{fill:url(#radial-gradient-46);}.cls-46{fill:url(#radial-gradient-47);}.cls-47{fill:url(#radial-gradient-48);}.cls-48{fill:url(#radial-gradient-49);}.cls-49{fill:url(#radial-gradient-50);}.cls-50{fill:url(#radial-gradient-51);}.cls-51{fill:url(#radial-gradient-52);}.cls-52{fill:url(#radial-gradient-53);}.cls-53{fill:url(#radial-gradient-54);}.cls-54{fill:url(#radial-gradient-55);}.cls-55{fill:url(#radial-gradient-56);}.cls-56{fill:url(#radial-gradient-57);}.cls-57{fill:url(#radial-gradient-58);}</style><radialGradient id="radial-gradient" cx="466.04" cy="-29.18" r="12.84" gradientTransform="translate(-8.66 432.65) rotate(-36.69)" gradientUnits="userSpaceOnUse"><stop offset="0" stop-color="#f20074"/><stop offset="0.14" stop-color="#ed0376"/><stop offset="0.31" stop-color="#df0b7d"/><stop offset="0.49" stop-color="#c71887"/><stop offset="0.67" stop-color="#a62a96"/><stop offset="0.87" stop-color="#7b42a9"/><stop offset="0.9" stop-color="#7446ac"/></radialGradient><radialGradient id="radial-gradient-2" cx="467.24" cy="-39.08" r="22.39" gradientTransform="translate(-2.83 -177.78) rotate(44.93)" xlink:href="#radial-gradient"/><radialGradient id="radial-gradient-3" cx="451.33" cy="207.86" r="21.29" gradientTransform="matrix(1.26, -0.5, 0.44, 1.1, -329.38, 110.58)" xlink:href="#radial-gradient"/><radialGradient id="radial-gradient-4" cx="466.97" cy="-38.96" r="16.66" xlink:href="#radial-gradient"/><radialGradient id="radial-gradient-5" cx="466.97" cy="-38.96" r="16.66" xlink:href="#radial-gradient"/><radialGradient id="radial-gradient-6" cx="466.97" cy="-38.96" r="16.66" xlink:href="#radial-gradient"/><radialGradient id="radial-gradient-7" cx="466.97" cy="-38.96" r="16.66" xlink:href="#radial-gradient"/><radialGradient id="radial-gradient-8" cx="467.22" cy="-36.02" r="19.6" xlink:href="#radial-gradient"/><radialGradient id="radial-gradient-9" cx="467.09" cy="-30.01" r="14.41" xlink:href="#radial-gradient"/><radialGradient id="radial-gradient-10" cx="465.24" cy="-41.1" r="4.99" xlink:href="#radial-gradient"/><radialGradient id="radial-gradient-11" cx="465.24" cy="-41.1" r="4.99" xlink:href="#radial-gradient"/><radialGradient id="radial-gradient-12" cx="157.4" cy="507.11" r="4.99" gradientTransform="translate(748.47 -235.69) rotate(64.56)" xlink:href="#radial-gradient"/><radialGradient id="radial-gradient-14" cx="585.93" cy="843.51" r="4.99" gradientTransform="translate(1347.93 402.78) rotate(139.75)" xlink:href="#radial-gradient"/><radialGradient id="radial-gradient-15" cx="585.93" cy="843.51" r="4.99" gradientTransform="translate(1347.93 402.78) rotate(139.75)" xlink:href="#radial-gradient"/><radialGradient id="radial-gradient-16" cx="838.9" cy="609.44" r="5.98" gradientTransform="matrix(-1, 0.05, -0.09, -1.77, 1241.71, 1173.48)" xlink:href="#radial-gradient"/><radialGradient id="radial-gradient-17" cx="461.44" cy="-31.26" r="7.62" xlink:href="#radial-gradient"/><radialGradient id="radial-gradient-18" cx="430.57" cy="282.24" r="3.85" gradientTransform="matrix(0.92, -0.39, 0.7, 1.62, -249.79, -165.33)" xlink:href="#radial-gradient"/><radialGradient id="radial-gradient-19" cx="480.4" cy="679.04" r="4.9" gradientTransform="translate(1179.39 94.54) rotate(123.03)" xlink:href="#radial-gradient"/><radialGradient id="radial-gradient-20" cx="376.66" cy="707.67" r="4.83" gradientTransform="matrix(-0.24, 0.97, -1.71, -0.43, 1662.7, 70.93)" xlink:href="#radial-gradient"/><radialGradient id="radial-gradient-21" cx="942.5" cy="81.85" r="6.15" gradientTransform="translate(588.55 1048.17) rotate(-109.6)" xlink:href="#radial-gradient"/><radialGradient id="radial-gradient-22" cx="902.67" cy="240.82" r="3.93" gradientTransform="translate(103.89 1036.26) rotate(-90.47)" xlink:href="#radial-gradient"/><radialGradient id="radial-gradient-23" cx="902.67" cy="240.82" r="3.93" gradientTransform="translate(103.89 1036.26) rotate(-90.47)" xlink:href="#radial-gradient"/><radialGradient id="radial-gradient-24" cx="994.41" cy="661.71" r="4.99" gradientTransform="translate(1004.51 1138.24) rotate(-157.19)" xlink:href="#radial-gradient"/><radialGradient id="radial-gradient-25" cx="994.41" cy="661.71" r="4.99" gradientTransform="translate(1004.51 1138.24) rotate(-157.19)" xlink:href="#radial-gradient"/><radialGradient id="radial-gradient-26" cx="288.34" cy="26.91" r="2.82" gradientTransform="translate(56.33 126.71) rotate(-6.74)" xlink:href="#radial-gradient"/><radialGradient id="radial-gradient-27" cx="288.34" cy="26.91" r="2.82" gradientTransform="translate(56.33 126.71) rotate(-6.74)" xlink:href="#radial-gradient"/><radialGradient id="radial-gradient-28" cx="516.11" cy="874.65" r="2.82" gradientTransform="translate(1361.65 290.53) rotate(129.24)" xlink:href="#radial-gradient"/><radialGradient id="radial-gradient-29" cx="516.11" cy="874.65" r="2.82" gradientTransform="translate(1361.65 290.53) rotate(129.24)" xlink:href="#radial-gradient"/><radialGradient id="radial-gradient-30" cx="835.92" cy="471.97" r="2.82" gradientTransform="translate(507.4 1084.02) rotate(-129.52)" xlink:href="#radial-gradient"/><radialGradient id="radial-gradient-31" cx="835.92" cy="471.97" r="2.82" gradientTransform="translate(507.4 1084.02) rotate(-129.52)" xlink:href="#radial-gradient"/><radialGradient id="radial-gradient-32" cx="471.26" cy="913.45" r="2.82" gradientTransform="translate(1150.31 790.14) rotate(156.45)" xlink:href="#radial-gradient"/><radialGradient id="radial-gradient-33" cx="471.26" cy="913.45" r="2.82" gradientTransform="translate(1150.31 790.14) rotate(156.45)" xlink:href="#radial-gradient"/><radialGradient id="radial-gradient-34" cx="175.75" cy="264.45" r="2.17" gradientTransform="translate(348.23 -195.66) rotate(32.43)" xlink:href="#radial-gradient"/><radialGradient id="radial-gradient-36" cx="331.59" cy="709.36" r="2.17" gradientTransform="translate(690.26 841.2) rotate(-180)" xlink:href="#radial-gradient"/><radialGradient id="radial-gradient-37" cx="331.59" cy="709.36" r="2.17" gradientTransform="translate(1084.38 -165.03) rotate(92.91)" xlink:href="#radial-gradient"/><radialGradient id="radial-gradient-38" cx="1156.5" cy="637.59" r="1.48" gradientTransform="matrix(-0.82, -0.58, 0.58, -0.82, 918.36, 1326.4)" xlink:href="#radial-gradient"/><radialGradient id="radial-gradient-40" cx="1014.67" cy="339.68" r="1.48" gradientTransform="matrix(1, 0, 0, 1.74, -672.13, -462.33)" xlink:href="#radial-gradient"/><radialGradient id="radial-gradient-41" cx="1014.67" cy="339.68" r="1.48" gradientTransform="matrix(0.35, -0.94, 1.63, 0.6, -564.21, 875)" xlink:href="#radial-gradient"/><radialGradient id="radial-gradient-42" cx="651" cy="244.73" r="1.48" gradientTransform="translate(-347 54.41) rotate(-15.01)" xlink:href="#radial-gradient"/><radialGradient id="radial-gradient-43" cx="651" cy="244.73" r="1.48" gradientTransform="translate(-347 54.41) rotate(-15.01)" xlink:href="#radial-gradient"/><radialGradient id="radial-gradient-44" cx="509.09" cy="699.4" r="1.18" gradientTransform="matrix(0.34, 0.94, -1.54, 0.56, 1257.02, -744.84)" xlink:href="#radial-gradient"/><radialGradient id="radial-gradient-45" cx="509.09" cy="699.4" r="1.18" gradientTransform="matrix(0.34, 0.94, -1.54, 0.56, 1257.02, -744.84)" xlink:href="#radial-gradient"/><radialGradient id="radial-gradient-46" cx="676.03" cy="100.95" r="2.82" gradientTransform="translate(66.17 756.4) rotate(-75.23)" xlink:href="#radial-gradient"/><radialGradient id="radial-gradient-47" cx="676.03" cy="100.95" r="2.82" gradientTransform="translate(66.17 756.4) rotate(-75.23)" xlink:href="#radial-gradient"/><radialGradient id="radial-gradient-48" cx="702.19" cy="-77.76" r="6.54" gradientTransform="matrix(0.4, -0.92, 0.76, 0.33, 129.73, 801.51)" xlink:href="#radial-gradient"/><radialGradient id="radial-gradient-49" cx="702.19" cy="-77.76" r="6.55" gradientTransform="matrix(0.4, -0.92, 0.76, 0.33, 129.73, 801.51)" xlink:href="#radial-gradient"/><radialGradient id="radial-gradient-50" cx="37.24" cy="90.74" r="7.3" gradientTransform="matrix(0.89, 0.45, -0.37, 0.74, 347.1, 49.7)" xlink:href="#radial-gradient"/><radialGradient id="radial-gradient-51" cx="38.51" cy="92.77" r="4.41" gradientTransform="matrix(0.89, 0.45, -0.37, 0.74, 347.1, 49.7)" xlink:href="#radial-gradient"/><radialGradient id="radial-gradient-52" cx="-26.35" cy="247.54" r="3.59" gradientTransform="matrix(0.69, 0.72, -0.6, 0.57, 509.81, 12.32)" xlink:href="#radial-gradient"/><radialGradient id="radial-gradient-53" cx="-27.24" cy="224.2" r="5.23" gradientTransform="matrix(0.69, 0.72, -0.6, 0.57, 509.81, 12.32)" xlink:href="#radial-gradient"/><radialGradient id="radial-gradient-54" cx="-26.17" cy="225.95" r="3.42" gradientTransform="matrix(0.69, 0.72, -0.6, 0.57, 509.81, 12.32)" xlink:href="#radial-gradient"/><radialGradient id="radial-gradient-55" cx="172.1" cy="-64.58" r="6.55" gradientTransform="matrix(1, 0.03, -0.03, 0.83, 174.73, 184.6)" xlink:href="#radial-gradient"/><radialGradient id="radial-gradient-56" cx="172.1" cy="-64.58" r="6.55" gradientTransform="matrix(1, 0.03, -0.03, 0.83, 174.73, 184.6)" xlink:href="#radial-gradient"/><radialGradient id="radial-gradient-57" cx="169.76" cy="-64.55" r="6.55" gradientTransform="matrix(1, 0.03, -0.03, 0.83, 174.73, 184.6)" xlink:href="#radial-gradient"/><radialGradient id="radial-gradient-58" cx="703.17" cy="60.42" r="39.58" gradientTransform="translate(191.75 816.95) rotate(-84)" xlink:href="#radial-gradient"/></defs><title>planete_7.module</title><g class="cls-1"><g id="Calque_2" data-name="Calque 2"><g id="BACKGROUND1"><circle class="cls-3" cx="347.75" cy="130.82" r="11.37" transform="matrix(0.15, -0.99, 0.99, 0.15, -167.42, 337.66)"/><path class="cls-4" d="M339.85,134.9a4.64,4.64,0,0,1-2-2.63,8.44,8.44,0,0,1,.69-6.05c2.61-5.83,9.83-6.4,11.71-4.75s.69,4.17-2.46,5.53-2.95,5.84-4.79,7.23a3.58,3.58,0,0,1-2.43.87A1.88,1.88,0,0,1,339.85,134.9Z" transform="translate(-335.04 -118.11)"/><g class="cls-5"><path class="cls-6" d="M339.06,130.58a22.65,22.65,0,0,1-2-1.54,10.75,10.75,0,0,0,6,11.44,10.81,10.81,0,0,1-2-2A10.69,10.69,0,0,1,339.06,130.58Z" transform="translate(-335.04 -118.11)"/><path class="cls-7" d="M347,120a10.76,10.76,0,0,0-9.75,8.26,21.11,21.11,0,0,0,1.94,1.57,10.76,10.76,0,0,1,9.13-8.51A11.75,11.75,0,0,0,347,120Z" transform="translate(-335.04 -118.11)"/><path class="cls-8" d="M351.75,121.45a11.36,11.36,0,0,0-.77-.92,10.76,10.76,0,0,0-3.28-.52,12.1,12.1,0,0,1,1.19,1.28A10.54,10.54,0,0,1,351.75,121.45Z" transform="translate(-335.04 -118.11)"/><path class="cls-9" d="M352.46,121.61a11.3,11.3,0,0,1,1.87.68,10.74,10.74,0,0,0-2.42-1.42C352.1,121.11,352.28,121.36,352.46,121.61Z" transform="translate(-335.04 -118.11)"/></g><path class="cls-10" d="M349.05,119.74A9.27,9.27,0,0,1,351.4,122a9.1,9.1,0,0,1-14.6,10.88l0-.05a11.05,11.05,0,0,0,2.05,4.73,11.17,11.17,0,1,0,10.24-17.77Z" transform="translate(-335.04 -118.11)"/><path class="cls-11" d="M355.26,123.14l0,0a10.78,10.78,0,0,1-16.44,13.94,10.8,10.8,0,1,0,17.28-12.94A9.66,9.66,0,0,0,355.26,123.14Z" transform="translate(-335.04 -118.11)"/><path class="cls-12" d="M344.69,121.22c.42.56-.2,1.73-1.38,2.61s-2.49,1.14-2.91.58.2-1.73,1.39-2.62S344.27,120.65,344.69,121.22Z" transform="translate(-335.04 -118.11)"/><path class="cls-13" d="M340.91,124.69a3.56,3.56,0,0,0,2.4-.86,3.2,3.2,0,0,0,1.51-2.24,3.6,3.6,0,0,0-2.4.85A3.21,3.21,0,0,0,340.91,124.69Z" transform="translate(-335.04 -118.11)"/><path class="cls-14" d="M357.77,129.15c-.63.3-1.66-.54-2.3-1.87s-.63-2.66,0-3,1.66.53,2.3,1.87S358.4,128.84,357.77,129.15Z" transform="translate(-335.04 -118.11)"/><path class="cls-14" d="M355.1,124.76a3.57,3.57,0,0,0,.37,2.52c.52,1.08,1.3,1.84,1.91,1.92a3.57,3.57,0,0,0-.37-2.52C356.49,125.6,355.71,124.84,355.1,124.76Z" transform="translate(-335.04 -118.11)"/><path class="cls-15" d="M350.91,138.34c-.45-.53.09-1.74,1.22-2.69s2.41-1.3,2.86-.76-.09,1.74-1.22,2.7S351.36,138.88,350.91,138.34Z" transform="translate(-335.04 -118.11)"/><path class="cls-16" d="M354.47,134.64a3.61,3.61,0,0,0-2.34,1,3.17,3.17,0,0,0-1.37,2.33,3.59,3.59,0,0,0,2.34-1A3.19,3.19,0,0,0,354.47,134.64Z" transform="translate(-335.04 -118.11)"/><path class="cls-17" d="M343.69,135.42A3.25,3.25,0,1,1,347,138,3,3,0,0,1,343.69,135.42Z" transform="translate(-335.04 -118.11)"/><path class="cls-18" d="M346.75,132.57a3.09,3.09,0,0,0-3,2.42,3.34,3.34,0,0,0,6.32-.32A3.11,3.11,0,0,0,346.75,132.57Z" transform="translate(-335.04 -118.11)"/><path class="cls-19" d="M346.88,125.34a2.09,2.09,0,1,1-2.58-.78A1.91,1.91,0,0,1,346.88,125.34Z" transform="translate(-335.04 -118.11)"/><path class="cls-20" d="M345.67,127.74a1.54,1.54,0,1,0-2.45-.53A2,2,0,0,0,345.67,127.74Z" transform="translate(-335.04 -118.11)"/><path class="cls-21" d="M352.48,132.85a2.63,2.63,0,1,1,2.74-2A2.41,2.41,0,0,1,352.48,132.85Z" transform="translate(-335.04 -118.11)"/><path class="cls-22" d="M351,129.81a1.93,1.93,0,1,0,2.39-2A2.49,2.49,0,0,0,351,129.81Z" transform="translate(-335.04 -118.11)"/><path class="cls-23" d="M339.21,128.29c.56,0,1,.93,1,2.1s-.43,2.11-1,2.11-1-.93-1-2.1S338.66,128.29,339.21,128.29Z" transform="translate(-335.04 -118.11)"/><path class="cls-24" d="M339.66,132.31a2.8,2.8,0,0,0,.57-1.92,2.53,2.53,0,0,0-.72-2,2.8,2.8,0,0,0-.57,1.92A2.53,2.53,0,0,0,339.66,132.31Z" transform="translate(-335.04 -118.11)"/><path class="cls-25" d="M341.49,138.86c.27-.64,1.6-.7,3-.13s2.24,1.56,2,2.21-1.6.7-3,.13S341.22,139.51,341.49,138.86Z" transform="translate(-335.04 -118.11)"/><path class="cls-26" d="M346.4,140.36a3.51,3.51,0,0,0-1.95-1.63,3.22,3.22,0,0,0-2.7-.17,3.51,3.51,0,0,0,1.95,1.63A3.18,3.18,0,0,0,346.4,140.36Z" transform="translate(-335.04 -118.11)"/><path class="cls-27" d="M348.36,120.68c.05.4-.59.8-1.42.89s-1.54-.14-1.58-.53.58-.8,1.41-.89S348.31,120.29,348.36,120.68Z" transform="translate(-335.04 -118.11)"/><path class="cls-28" d="M345.52,121.32a2,2,0,0,0,1.42.25,1.84,1.84,0,0,0,1.38-.67,2,2,0,0,0-1.42-.26A1.81,1.81,0,0,0,345.52,121.32Z" transform="translate(-335.04 -118.11)"/><path class="cls-29" d="M355.16,137.92c-.31-.26-.13-1,.4-1.63s1.21-1,1.51-.72.13,1-.4,1.63S355.47,138.17,355.16,137.92Z" transform="translate(-335.04 -118.11)"/><path class="cls-30" d="M356.76,135.49a2,2,0,0,0-1.2.8,1.8,1.8,0,0,0-.52,1.44,2.07,2.07,0,0,0,1.2-.8A1.84,1.84,0,0,0,356.76,135.49Z" transform="translate(-335.04 -118.11)"/><path class="cls-31" d="M339.06,136.11c.31-.26,1,.06,1.52.71s.71,1.37.41,1.62-1-.07-1.52-.71S338.75,136.36,339.06,136.11Z" transform="translate(-335.04 -118.11)"/><path class="cls-32" d="M341.13,138.15a2,2,0,0,0-.55-1.33,1.81,1.81,0,0,0-1.31-.8,2,2,0,0,0,.55,1.33A1.8,1.8,0,0,0,341.13,138.15Z" transform="translate(-335.04 -118.11)"/><path class="cls-33" d="M350.65,140.73c-.15-.36.34-.93,1.1-1.26s1.52-.31,1.68.06-.33.93-1.1,1.26S350.81,141.1,350.65,140.73Z" transform="translate(-335.04 -118.11)"/><path class="cls-34" d="M353.19,139.31a2,2,0,0,0-1.44.16,1.83,1.83,0,0,0-1.12,1,2,2,0,0,0,1.43-.16A1.82,1.82,0,0,0,353.19,139.31Z" transform="translate(-335.04 -118.11)"/><path class="cls-35" d="M355.75,123.68c-.16.26-.73.19-1.27-.16s-.85-.83-.69-1.08.74-.19,1.28.15S355.92,123.42,355.75,123.68Z" transform="translate(-335.04 -118.11)"/><path class="cls-35" d="M353.76,122.68a1.52,1.52,0,0,0,.72.84,1.39,1.39,0,0,0,1.14.27,1.52,1.52,0,0,0-.72-.84A1.39,1.39,0,0,0,353.76,122.68Z" transform="translate(-335.04 -118.11)"/><ellipse class="cls-36" cx="358.03" cy="130.77" rx="1.16" ry="0.55" transform="translate(-125.76 363.6) rotate(-87.1)"/><path class="cls-37" d="M357.86,129.7a1.54,1.54,0,0,0-.38,1,1.37,1.37,0,0,0,.33,1.13,1.57,1.57,0,0,0,.38-1A1.42,1.42,0,0,0,357.86,129.7Z" transform="translate(-335.04 -118.11)"/><path class="cls-38" d="M341.56,136.85c.12-.17.51-.1.87.15s.55.59.43.76-.51.1-.87-.15S341.44,137,341.56,136.85Z" transform="translate(-335.04 -118.11)"/><path class="cls-38" d="M342.89,137.59a1.08,1.08,0,0,0-.46-.59.92.92,0,0,0-.77-.22,1,1,0,0,0,.46.59A.92.92,0,0,0,342.89,137.59Z" transform="translate(-335.04 -118.11)"/><ellipse class="cls-39" cx="343.04" cy="128.76" rx="0.79" ry="0.65" transform="translate(-232.03 287.49) rotate(-69.65)"/><path class="cls-40" d="M343,129.53a.81.81,0,0,0,.61-.54.78.78,0,0,0-.16-.87.81.81,0,0,0-.61.54A.79.79,0,0,0,343,129.53Z" transform="translate(-335.04 -118.11)"/><path class="cls-41" d="M346.58,122.56c.05.2-.25.46-.67.57s-.81,0-.86-.16.24-.45.67-.57S346.52,122.36,346.58,122.56Z" transform="translate(-335.04 -118.11)"/><path class="cls-42" d="M345.16,123.1a1,1,0,0,0,.75,0,1,1,0,0,0,.66-.45,1.08,1.08,0,0,0-.75,0A.92.92,0,0,0,345.16,123.1Z" transform="translate(-335.04 -118.11)"/><path class="cls-43" d="M354.49,127.34a.65.65,0,0,1-.43-1.18.65.65,0,0,1,.43,1.18Z" transform="translate(-335.04 -118.11)"/><path class="cls-44" d="M353.89,126.28a.67.67,0,0,0-.08.64.66.66,0,0,0,.53.45.67.67,0,0,0,.08-.64A.64.64,0,0,0,353.89,126.28Z" transform="translate(-335.04 -118.11)"/><path class="cls-45" d="M338.12,126.54c.38.1.52.84.31,1.65s-.7,1.38-1.08,1.28-.53-.84-.31-1.65S337.73,126.44,338.12,126.54Z" transform="translate(-335.04 -118.11)"/><path class="cls-46" d="M337.67,129.41a2,2,0,0,0,.76-1.22,1.85,1.85,0,0,0-.12-1.53,2,2,0,0,0-.76,1.23A1.76,1.76,0,0,0,337.67,129.41Z" transform="translate(-335.04 -118.11)"/><path class="cls-47" d="M356.32,133.3c.16.07.19.36.07.64s-.36.47-.52.39-.2-.36-.07-.64S356.16,133.23,356.32,133.3Z" transform="translate(-335.04 -118.11)"/><path class="cls-48" d="M356.22,132.26c.1,0,.12.21,0,.39s-.22.28-.32.24-.12-.22,0-.4S356.13,132.21,356.22,132.26Z" transform="translate(-335.04 -118.11)"/><path class="cls-49" d="M345.33,138.51c-.09.17-.42.19-.73,0s-.49-.42-.4-.6.41-.19.72,0S345.42,138.33,345.33,138.51Z" transform="translate(-335.04 -118.11)"/><path class="cls-50" d="M346.23,138.71c-.05.11-.25.12-.44,0s-.29-.26-.24-.37.25-.11.44,0S346.28,138.61,346.23,138.71Z" transform="translate(-335.04 -118.11)"/><path class="cls-51" d="M341.11,136.87c-.07.07-.22,0-.34-.1s-.15-.28-.08-.35.22,0,.34.11S341.18,136.8,341.11,136.87Z" transform="translate(-335.04 -118.11)"/><path class="cls-52" d="M353.93,123.75c-.1.1-.32,0-.5-.15s-.22-.4-.12-.5.32,0,.5.15S354,123.66,353.93,123.75Z" transform="translate(-335.04 -118.11)"/><path class="cls-53" d="M354.32,124.54c-.07.07-.22,0-.33-.09s-.15-.27-.08-.33.21,0,.32.09S354.38,124.48,354.32,124.54Z" transform="translate(-335.04 -118.11)"/><path class="cls-54" d="M349.14,140.79c0,.18-.26.32-.58.31s-.56-.16-.55-.34.26-.31.57-.3S349.15,140.62,349.14,140.79Z" transform="translate(-335.04 -118.11)"/><path class="cls-55" d="M350.07,140.32c0,.11-.16.19-.35.18s-.34-.1-.34-.2.16-.19.35-.19S350.08,140.21,350.07,140.32Z" transform="translate(-335.04 -118.11)"/><path class="cls-56" d="M347.73,140.27c0,.1-.16.19-.35.18s-.34-.1-.34-.21.16-.19.35-.18S347.74,140.16,347.73,140.27Z" transform="translate(-335.04 -118.11)"/><path class="cls-57" d="M339,126.45c-.14-.1-.12-.39,0-.65s.43-.39.58-.29.13.39-.05.65S339.19,126.55,339,126.45Zm.27.87c.11-.16.12-.34,0-.4s-.25,0-.35.18-.12.34,0,.4S339.21,127.48,339.31,127.32Zm1.28-2c.1-.15.11-.33,0-.39s-.24,0-.35.18-.12.33,0,.39S340.48,125.51,340.59,125.35Zm7.34-3c-.06-.16.13-.38.42-.49s.58-.06.64.1-.13.39-.42.5S348,122.48,347.93,122.31Zm1.89,0c.18-.06.29-.2.26-.3s-.21-.13-.39-.06-.3.2-.26.3S349.64,122.41,349.82,122.34Z" transform="translate(-335.04 -118.11)"/></g></g></g></svg>