<svg xmlns="http://www.w3.org/2000/svg" xmlns:xlink="http://www.w3.org/1999/xlink" viewBox="0 0 68.25 68.94"><defs><style>.cls-1{isolation:isolate;}.cls-2{fill:url(#radial-gradient);}.cls-3{fill:url(#radial-gradient-2);}.cls-10,.cls-11,.cls-14,.cls-17,.cls-4,.cls-6,.cls-8,.cls-9{mix-blend-mode:screen;}.cls-4{fill:url(#radial-gradient-3);}.cls-5,.cls-7{opacity:0.34;mix-blend-mode:color-burn;}.cls-5{fill:url(#radial-gradient-4);}.cls-6,.cls-9{opacity:0.45;}.cls-6{fill:url(#radial-gradient-5);}.cls-7{fill:url(#radial-gradient-6);}.cls-9{fill:url(#radial-gradient-7);}.cls-10{fill:url(#radial-gradient-8);}.cls-11{fill:url(#radial-gradient-9);}.cls-12{fill:url(#radial-gradient-10);}.cls-13,.cls-14,.cls-16,.cls-17{fill:#e0a326;}.cls-15{opacity:0.7;}.cls-16,.cls-17{opacity:0.5;}.cls-16{mix-blend-mode:multiply;}</style><radialGradient id="radial-gradient" cx="297.49" cy="308.24" r="9.71" gradientTransform="translate(305.17 -120.01) rotate(45)" gradientUnits="userSpaceOnUse"><stop offset="0" stop-color="#f20074"/><stop offset="0.38" stop-color="#f10174" stop-opacity="0.99"/><stop offset="0.51" stop-color="#ed0376" stop-opacity="0.96"/><stop offset="0.61" stop-color="#e70679" stop-opacity="0.92"/><stop offset="0.69" stop-color="#df0b7d" stop-opacity="0.85"/><stop offset="0.75" stop-color="#d31182" stop-opacity="0.75"/><stop offset="0.81" stop-color="#c51988" stop-opacity="0.64"/><stop offset="0.87" stop-color="#b42290" stop-opacity="0.51"/><stop offset="0.92" stop-color="#a02d98" stop-opacity="0.35"/><stop offset="0.96" stop-color="#8b39a2" stop-opacity="0.18"/><stop offset="1" stop-color="#7446ac" stop-opacity="0"/></radialGradient><radialGradient id="radial-gradient-2" cx="295.96" cy="304.75" r="15.47" gradientTransform="translate(140.65 -90.36) rotate(22.5)" gradientUnits="userSpaceOnUse"><stop offset="0" stop-color="#f20074"/><stop offset="0.14" stop-color="#ed0376"/><stop offset="0.31" stop-color="#df0b7d"/><stop offset="0.49" stop-color="#c71887"/><stop offset="0.67" stop-color="#a62a96"/><stop offset="0.87" stop-color="#7b42a9"/><stop offset="0.9" stop-color="#7446ac"/></radialGradient><radialGradient id="radial-gradient-3" cx="292.6" cy="300.7" r="24.81" gradientTransform="matrix(1, 0, 0, 1, 0, 0)" xlink:href="#radial-gradient-2"/><radialGradient id="radial-gradient-4" cx="294.56" cy="307.72" r="11.9" gradientTransform="matrix(1, 0, 0, 1, 0, 0)" xlink:href="#radial-gradient-2"/><radialGradient id="radial-gradient-5" cx="296.23" cy="303.91" r="12.79" gradientTransform="matrix(1, 0, 0, 1, 0, 0)" xlink:href="#radial-gradient-2"/><radialGradient id="radial-gradient-6" cx="294.39" cy="308.34" r="9.87" gradientTransform="matrix(1, 0, 0, 1, 0, 0)" xlink:href="#radial-gradient-2"/><radialGradient id="radial-gradient-7" cx="547.5" cy="90.27" r="14.38" gradientTransform="matrix(0.62, 1.2, -1.06, 0.54, 62.9, -413.26)" xlink:href="#radial-gradient-2"/><radialGradient id="radial-gradient-8" cx="579.71" cy="-184.84" r="4.78" gradientTransform="translate(-310.94 322.35) rotate(15.52)" xlink:href="#radial-gradient-2"/><radialGradient id="radial-gradient-9" cx="489.84" cy="-46.49" r="2.63" gradientTransform="translate(-103.65 22.38) rotate(40.01)" xlink:href="#radial-gradient-2"/><radialGradient id="radial-gradient-10" cx="264.23" cy="274.46" r="25.49" gradientTransform="translate(497.6 -26.68) rotate(81.69)" gradientUnits="userSpaceOnUse"><stop offset="0" stop-color="#e0a326"/><stop offset="0.38" stop-color="#e0a326" stop-opacity="0.99"/><stop offset="0.52" stop-color="#e0a326" stop-opacity="0.96"/><stop offset="0.62" stop-color="#e0a326" stop-opacity="0.91"/><stop offset="0.7" stop-color="#e0a326" stop-opacity="0.83"/><stop offset="0.77" stop-color="#e0a326" stop-opacity="0.73"/><stop offset="0.83" stop-color="#e0a326" stop-opacity="0.61"/><stop offset="0.88" stop-color="#e0a326" stop-opacity="0.47"/><stop offset="0.93" stop-color="#e0a326" stop-opacity="0.3"/><stop offset="0.98" stop-color="#e0a326" stop-opacity="0.12"/><stop offset="1" stop-color="#e0a326" stop-opacity="0"/></radialGradient></defs><title>planete_8.module</title><g class="cls-1"><g id="Calque_2" data-name="Calque 2"><g id="BACKGROUND1"><circle class="cls-2" cx="297.45" cy="308.37" r="9.54" transform="translate(-369.67 51.68) rotate(-45)"/><circle class="cls-3" cx="297.45" cy="308.37" r="8.32" transform="translate(-334.11 -111.66) rotate(-22.5)"/><path class="cls-4" d="M302.54,309.14c-.07.17-.12.26.14.3a1.29,1.29,0,0,0,.84-.37,7.1,7.1,0,0,0,.85-.81l1.26-1.35,0,.18-1.12,1.32a7,7,0,0,1-.85.87,3.43,3.43,0,0,1-.48.33,1.06,1.06,0,0,1-.55.13.49.49,0,0,1-.47-.31.62.62,0,0,1,.06-.42,2.74,2.74,0,0,1,.12-.26,5.87,5.87,0,0,1,.57-.87c.37-.5.91-1.1,1.38-1.76.27-.37.52-.74.74-1.1l.09.2c-.19.34-.41.69-.64,1-.45.68-1,1.32-1.33,1.8a5.12,5.12,0,0,0-.52.85A2,2,0,0,0,302.54,309.14ZM290.18,305a7.4,7.4,0,0,1,2.17-.27c.39,0,.8.05,1.19,0a2.25,2.25,0,0,0,1.06-.28,2.77,2.77,0,0,0,.6-.47l.2-.2a6.39,6.39,0,0,0,.66-.79,8.58,8.58,0,0,0,1.09-2,8.92,8.92,0,0,0,.31-1h-.2c-.09.29-.2.58-.32.87a9.14,9.14,0,0,1-1.11,1.87,6.73,6.73,0,0,1-.66.75l-.19.2a2.92,2.92,0,0,1-.53.44,2.08,2.08,0,0,1-.92.26c-.37,0-.77,0-1.18,0a7.06,7.06,0,0,0-2.21.38l-.26.11a.52.52,0,0,0-.06.13Zm5.06,9.54.18-.17a.53.53,0,0,0,.16-.24.43.43,0,0,0-.05-.4.76.76,0,0,0-.37-.22,3.25,3.25,0,0,0-1.89.08c-.65.2-1.25.48-1.73.6h-.07l.1.11c.5-.09,1.13-.33,1.77-.5a3,3,0,0,1,1.72,0,.41.41,0,0,1,.22.13.09.09,0,0,1,0,.09.68.68,0,0,1-.1.14l-.16.15a2.64,2.64,0,0,1-.46.33,6,6,0,0,1-1.7.55l-.2,0a2,2,0,0,0,.26.18,5.75,5.75,0,0,0,1.78-.51A3,3,0,0,0,295.24,314.49Zm-2-13.23c-.09.17-.1.29-.08.3s.25-.42.67-.58a1.46,1.46,0,0,1,.57-.12h.1s0,0,0,.05a2.73,2.73,0,0,1-.42.4c-.33.27-.73.4-.72.44a1.5,1.5,0,0,0,.85-.26,2.63,2.63,0,0,0,.51-.39l.12-.13.11-.15.13-.16-.18-.05-.15,0-.17,0a8.06,8.06,0,0,0-1.23.57Zm11.79,10.47a7.49,7.49,0,0,1-1.82.37,10.3,10.3,0,0,0-2.05.34,5.56,5.56,0,0,0-.9.35,5.76,5.76,0,0,0-.82.49,6.63,6.63,0,0,0-1.49,1.47c-.44.61-.83,1.25-1.2,1.66a2.55,2.55,0,0,1-.24.23h.14l.19-.16a17.43,17.43,0,0,0,1.3-1.6,6.31,6.31,0,0,1,1.47-1.36,5.25,5.25,0,0,1,.79-.45,5.55,5.55,0,0,1,.85-.35,10.09,10.09,0,0,1,2-.4,7.56,7.56,0,0,0,1.7-.41Zm-5.86,3.33s-.07,0-.17.15a1.68,1.68,0,0,0-.31.53c0,.08-.17.36.08.41a.67.67,0,0,0,.49-.13l.87-.44,1.6-.84a5.26,5.26,0,0,0,.53-.3l.2-.14.14-.13a2.22,2.22,0,0,0,.19-.24,2.09,2.09,0,0,0,.1-.21.39.39,0,0,0,0-.39.37.37,0,0,0-.27-.13.76.76,0,0,0-.27.05,5,5,0,0,0-.58.2,5.19,5.19,0,0,0-1.28.77,4.57,4.57,0,0,0-.92,1,2.1,2.1,0,0,0-.29.51,7.79,7.79,0,0,1,1.33-1.34,5.17,5.17,0,0,1,1.26-.68,2.19,2.19,0,0,1,.77-.19.51.51,0,0,1-.1.25l-.15.18-.12.11a4.1,4.1,0,0,1-.66.43l-1.57.9-.84.49a1.18,1.18,0,0,1-.19.1.41.41,0,0,1-.15,0c-.11,0-.05-.11,0-.23A3,3,0,0,1,299.2,315.06Zm-4.71.49a6.72,6.72,0,0,0,2.6-2.09,1.59,1.59,0,0,0,.27-.63.85.85,0,0,0-.12-.55A1,1,0,0,0,297,312l-.09-.08-.11-.07a1.56,1.56,0,0,0-.32-.12,2.58,2.58,0,0,0-1.15.06,30.76,30.76,0,0,0-3.15,1,15,15,0,0,1-1.45.45l.12.16c.46-.11.94-.23,1.4-.39a32.69,32.69,0,0,1,3.14-1,2.37,2.37,0,0,1,1,0,1,1,0,0,1,.32.14.84.84,0,0,1,.24.25.75.75,0,0,1-.13.85,6.29,6.29,0,0,1-2.45,2,5,5,0,0,1-.91.35l.28.13A5.39,5.39,0,0,0,294.49,315.55ZM291.18,303l0-.09c.1-.12.2-.23.31-.34a.45.45,0,0,0,0,.11.46.46,0,0,0,0,.18s0,.06.14.09l.37.06a3.42,3.42,0,0,0,3.39-1.88,8.56,8.56,0,0,0,.35-.9v0h0l.06,0v0a.3.3,0,0,1-.08.22.22.22,0,0,0,0,.08,3,3,0,0,1-.21.68,3.59,3.59,0,0,1-1.42,1.62,3.67,3.67,0,0,1-2.12.5l-.41,0A.51.51,0,0,1,291.18,303Zm4.53-2.71v0Zm1.91,1.38c-.16.19-.31.38-.45.58a1.2,1.2,0,0,0-.27.72,1.23,1.23,0,0,0,.87,1,1.87,1.87,0,0,0,.94.07,1.5,1.5,0,0,0,.35-.08,3.2,3.2,0,0,0,1.08-.65,11.67,11.67,0,0,0,1.75-2l-.2-.12a11.9,11.9,0,0,1-1.74,1.91,3,3,0,0,1-1,.57,1.78,1.78,0,0,1-.3.07,1.68,1.68,0,0,1-.79,0,.94.94,0,0,1-.7-.73c0-.37.35-.77.62-1.14a18.61,18.61,0,0,0,1.26-1.65l-.17,0C298.54,300.67,298.07,301.19,297.62,301.71Zm1.53-.07c.14-.22.3-.45.46-.68s.23-.35.34-.52l-.19-.06-.34.45-.49.66a2.24,2.24,0,0,0-.23.34.43.43,0,0,0,.08.48.55.55,0,0,0,.66.06.65.65,0,0,0,.18-.15,1.31,1.31,0,0,0,.13-.16l.3-.42.64-.93a2.5,2.5,0,0,0-.25-.09l-.63.85-.31.4-.11.13s-.19.25-.41.1c0,0,0-.07,0-.16A1.47,1.47,0,0,1,299.15,301.64Zm4.24,4a23.07,23.07,0,0,1-2.18,2.66,6.56,6.56,0,0,0-.68.95,3.34,3.34,0,0,0-.2.41,1.87,1.87,0,0,0-.11.46,1.47,1.47,0,0,0,.37,1.18,1.1,1.1,0,0,0,.78.33,2,2,0,0,0,.89-.21,10.45,10.45,0,0,0,1.56-1,22.08,22.08,0,0,0,1.93-1.66c0-.07,0-.15,0-.22a20.65,20.65,0,0,1-2.07,1.69,10.05,10.05,0,0,1-1.54,1,1.84,1.84,0,0,1-.76.17.85.85,0,0,1-.59-.26,1.15,1.15,0,0,1-.26-.93,1.29,1.29,0,0,1,.1-.39,2.21,2.21,0,0,1,.16-.37,7.23,7.23,0,0,1,.64-.91,22.28,22.28,0,0,0,2.14-2.73,12,12,0,0,0,.91-1.83l-.11-.18A12.25,12.25,0,0,1,303.39,305.66Zm-12.05,2.58a1.24,1.24,0,0,0,.24-.39,1,1,0,0,0,.05-.18.63.63,0,0,0,0-.2.7.7,0,0,0-.08-.23.39.39,0,0,0-.28-.2.6.6,0,0,0-.34,0l-.29.11c-.2.09-.41.18-.62.29a6,6,0,0,0-.88.53,1.09,1.09,0,0,0,0,.18,10,10,0,0,1,1-.51l.61-.24a1.69,1.69,0,0,1,.48-.12c.06,0,.1.1.1.17a.23.23,0,0,1,0,.12.77.77,0,0,1-.19.43,3.18,3.18,0,0,1-1,.7c-.34.2-.69.38-1,.52a.78.78,0,0,0,0,.14c.31-.12.69-.27,1.07-.45A3.4,3.4,0,0,0,291.34,308.24ZM290,306.58c.75-.25,1.5-.46,2.07-.62.29-.09.43-.06.52,0a.41.41,0,0,1,.11.17.51.51,0,0,1,.05.2,1.12,1.12,0,0,1-.17.6,13,13,0,0,1-1.13,1.81,5,5,0,0,1-1.59,1.38,3.48,3.48,0,0,1-.45.21s0,.05,0,.08a4.16,4.16,0,0,0,.49-.17,5,5,0,0,0,1.71-1.36,14.4,14.4,0,0,0,1.22-1.81,1.48,1.48,0,0,0,.22-.75A.8.8,0,0,0,293,306a.75.75,0,0,0-.2-.27.64.64,0,0,0-.37-.16,1.33,1.33,0,0,0-.45.08c-.56.17-1.31.41-2.05.68l-.57.21c0,.08,0,.16-.05.24Zm4.28,4.46c1.05-.17,2.13-.09,2.95-.31a3.06,3.06,0,0,0,.93-.4,3,3,0,0,0,.31-.23,6.16,6.16,0,0,0,.95-1c.51-.62,1.18-1.47,1.8-2.35s1.23-1.77,1.65-2.45c.21-.34.38-.63.5-.84a1.27,1.27,0,0,0,.17-.33,1.68,1.68,0,0,0-.22.3c-.14.19-.33.47-.55.8-.46.66-1.08,1.54-1.73,2.39s-1.32,1.68-1.85,2.29a6.15,6.15,0,0,1-.92.93,1.75,1.75,0,0,1-.28.21,2.66,2.66,0,0,1-.84.38c-.74.22-1.84.18-2.91.37a13.93,13.93,0,0,0-2.85.81c-.37.15-.68.3-.89.41a1.4,1.4,0,0,0-.31.19l.34-.13c.22-.09.53-.22.91-.35A13.55,13.55,0,0,1,294.25,311Zm-3.4-.07a6.57,6.57,0,0,0,2.39-2c.33-.47.61-1,.9-1.41a4.89,4.89,0,0,1,.92-1.09,4.15,4.15,0,0,1,.82-.55,2.57,2.57,0,0,1,.35-.15,2.47,2.47,0,0,1,.35-.13,4.07,4.07,0,0,1,1-.17c.41,0,.9.06,1.45.07a2.64,2.64,0,0,0,1.64-.53,5.41,5.41,0,0,0,1.15-1.25,10.92,10.92,0,0,0,.79-1.24l.24-.45-.07-.06c-.08.14-.17.29-.28.45-.22.36-.5.77-.82,1.2a5.06,5.06,0,0,1-1.15,1.16,2.31,2.31,0,0,1-1.5.45c-.51,0-1-.12-1.46-.1a4.17,4.17,0,0,0-1.06.17,2.81,2.81,0,0,0-.38.13,3.28,3.28,0,0,0-.37.17,4.15,4.15,0,0,0-.88.61,5.39,5.39,0,0,0-.94,1.16c-.29.46-.55,1-.87,1.43a6.56,6.56,0,0,1-2.26,2.06,6.76,6.76,0,0,1-1.1.5l0,0,.17,0A5.55,5.55,0,0,0,290.85,311Zm6.75-3.77a3.11,3.11,0,0,0-.32.22c-.15.11-.25.19-.24.21s.13,0,.3-.11a2.59,2.59,0,0,1,.24-.1c.05,0,.05.06,0,.08a.69.69,0,0,1-.16.23,1.09,1.09,0,0,1-.22.17,1.67,1.67,0,0,1-.27.14l-.26.16-.06,0,0,0s-.09.07-.08,0a.26.26,0,0,1,0-.1,2.44,2.44,0,0,1,.16-.23c.12-.14.22-.21.21-.23s-.14,0-.29.14a1.26,1.26,0,0,0-.26.26,1.89,1.89,0,0,0-.25.49c-.17.28.1.1.21.08l.49-.24.28-.14.08,0,.2-.13a1.47,1.47,0,0,0,.25-.25.66.66,0,0,0,.19-.42.53.53,0,0,0-.06-.26C297.76,307.1,297.67,307.17,297.6,307.2Zm1.15-1.29a.63.63,0,0,1,.49.63,1.39,1.39,0,0,1-.19.67c-.11.18-.21.35-.32.5a3.73,3.73,0,0,1-.58.66c-.15.15-.25.23-.25.23a4.8,4.8,0,0,1-1,.63,5.07,5.07,0,0,1-1.19.36c-.23,0-.46.05-.7.06h-.36a.56.56,0,0,1-.4-.19.4.4,0,0,1,0-.46,1,1,0,0,1,.28-.27l.46-.33s.07-.1.22-.24.37-.34.64-.57a13.5,13.5,0,0,1,2.18-1.43A1.3,1.3,0,0,1,298.75,305.91Zm0,.25a1.19,1.19,0,0,0-.59.19,15.73,15.73,0,0,0-2.2,1.33l-.69.53.82-.59.71-.49A1.46,1.46,0,0,1,297,307a1.43,1.43,0,0,1-.24.22l-.67.54-.95.75-.54.42c-.17.11-.33.34-.24.43s.35.07.57.08a4.62,4.62,0,0,0,.65-.08,4.47,4.47,0,0,0,1.12-.36,4.69,4.69,0,0,0,1-.61l.24-.21a4,4,0,0,0,.55-.61,2.06,2.06,0,0,0,.49-1A.37.37,0,0,0,298.71,306.16Z" transform="translate(-238.74 -248.97)"/><path class="cls-5" d="M294,304.19a8.26,8.26,0,0,0-4.37,1.25,8.3,8.3,0,0,0,7.78,11.25,8.23,8.23,0,0,0,4.37-1.25,8.15,8.15,0,0,0,.54-2.93A8.31,8.31,0,0,0,294,304.19Z" transform="translate(-238.74 -248.97)"/><path class="cls-6" d="M296.58,301.44a8,8,0,0,1,8,8.05,7.94,7.94,0,0,1-.8,3.48A8,8,0,1,0,290,304.91,8,8,0,0,1,296.58,301.44Z" transform="translate(-238.74 -248.97)"/><path class="cls-7" d="M290.24,306.48a7.55,7.55,0,0,0,1.8,7.3c3.16,3.28,7.74,2.06,8.58.6s-2-4-4.74-3.76-2.05-4-3.47-4.89S290.49,305.92,290.24,306.48Z" transform="translate(-238.74 -248.97)"/><g class="cls-8"><path class="cls-9" d="M294.06,302.85c.2-.44,1.67-2.83,5.74-1.46s4.94,6.15,4,7.52-2.74.74-3.87-1.28-4.1-1.58-5.15-2.73S293.85,303.3,294.06,302.85Z" transform="translate(-238.74 -248.97)"/><path class="cls-10" d="M300.1,302.88c-.14.49-1,.69-1.89.43s-1.53-.85-1.4-1.34,1-.68,1.89-.43S300.23,302.4,300.1,302.88Z" transform="translate(-238.74 -248.97)"/><path class="cls-11" d="M302.18,304.13c-.18.22-.65.12-1-.21s-.58-.78-.4-1,.65-.11,1.05.22S302.36,303.92,302.18,304.13Z" transform="translate(-238.74 -248.97)"/></g><circle class="cls-12" cx="264.23" cy="274.46" r="25.49" transform="translate(-284.29 247.26) rotate(-81.69)"/><circle class="cls-13" cx="264.23" cy="274.46" r="22.82" transform="translate(-332.67 155.37) rotate(-66.02)"/><path class="cls-14" d="M248.39,282.66c-2-1-3.43-3.4-4.06-5.29-1.34-4-.3-8.39,1.38-12.13,5.24-11.7,19.73-12.85,23.51-9.53s1.38,8.35-4.94,11.09-5.92,11.72-9.62,14.51a7.11,7.11,0,0,1-4.88,1.74A3.9,3.9,0,0,1,248.39,282.66Z" transform="translate(-238.74 -248.97)"/><g class="cls-15"><path class="cls-14" d="M246.79,274a47.12,47.12,0,0,1-3.95-3.09,21.59,21.59,0,0,0,12,23A21.6,21.6,0,0,1,246.79,274Z" transform="translate(-238.74 -248.97)"/><path class="cls-14" d="M262.71,252.82a21.59,21.59,0,0,0-19.57,16.57,45.49,45.49,0,0,0,3.9,3.15,21.61,21.61,0,0,1,18.33-17.09A22.77,22.77,0,0,0,262.71,252.82Z" transform="translate(-238.74 -248.97)"/><path class="cls-14" d="M272.26,255.67a19.58,19.58,0,0,0-1.55-1.86,21.55,21.55,0,0,0-6.58-1,24.36,24.36,0,0,1,2.4,2.56A21.16,21.16,0,0,1,272.26,255.67Z" transform="translate(-238.74 -248.97)"/><path class="cls-14" d="M273.68,256a21.16,21.16,0,0,1,3.76,1.37,21.32,21.32,0,0,0-4.86-2.86C273,255,273.33,255.48,273.68,256Z" transform="translate(-238.74 -248.97)"/></g><path class="cls-16" d="M266.84,252.24a18.27,18.27,0,1,1-24.59,26.25l-.06-.09a22.42,22.42,0,1,0,24.65-26.16Z" transform="translate(-238.74 -248.97)"/><path class="cls-16" d="M279.32,259l.06.08c7.36,9.89,5.55,23.7-4,30.85a21.92,21.92,0,0,1-29-2.88c7.38,9.81,21.08,12,30.64,4.87s11.41-21,4-30.84A23.64,23.64,0,0,0,279.32,259Z" transform="translate(-238.74 -248.97)"/><path class="cls-16" d="M258.1,255.19c.84,1.13-.41,3.48-2.78,5.25s-5,2.29-5.83,1.16.41-3.48,2.78-5.25S257.26,254.06,258.1,255.19Z" transform="translate(-238.74 -248.97)"/><path class="cls-16" d="M250.5,262.16c1.21.21,3.07-.42,4.82-1.72,1.93-1.44,3.11-3.26,3-4.5a7.16,7.16,0,0,0-4.82,1.72C251.61,259.1,250.42,260.92,250.5,262.16Z" transform="translate(-238.74 -248.97)"/><path class="cls-16" d="M284.34,271.11c-1.27.6-3.33-1.08-4.6-3.75s-1.28-5.34,0-5.94,3.34,1.07,4.61,3.75S285.61,270.5,284.34,271.11Z" transform="translate(-238.74 -248.97)"/><path class="cls-16" d="M279,262.3c-.44,1.14-.19,3.09.75,5.06,1,2.17,2.59,3.69,3.82,3.85a7.12,7.12,0,0,0-.75-5C281.78,264,280.22,262.46,279,262.3Z" transform="translate(-238.74 -248.97)"/><path class="cls-16" d="M270.58,289.56c-.91-1.07.19-3.49,2.45-5.41s4.83-2.59,5.74-1.52-.19,3.5-2.45,5.41S271.49,290.64,270.58,289.56Z" transform="translate(-238.74 -248.97)"/><path class="cls-16" d="M277.73,282.14c-1.22-.13-3,.61-4.7,2-1.84,1.56-2.91,3.45-2.75,4.68,1.21.13,3-.61,4.69-2C276.81,285.26,277.88,283.37,277.73,282.14Z" transform="translate(-238.74 -248.97)"/><path class="cls-16" d="M256.08,283.7c-.15-3,2.6-5.54,6.15-5.72s6.55,2.09,6.7,5.07-2.6,5.54-6.15,5.72S256.24,286.68,256.08,283.7Z" transform="translate(-238.74 -248.97)"/><path class="cls-16" d="M262.23,278c-3.2.16-5.75,2.26-6.11,4.86.63,2.54,3.38,4.37,6.57,4.21s5.76-2.27,6.11-4.87C268.18,279.64,265.43,277.82,262.23,278Z" transform="translate(-238.74 -248.97)"/><path class="cls-16" d="M262.49,263.46c.76,1.77-.33,3.93-2.43,4.83s-4.42.2-5.18-1.56.33-3.93,2.44-4.83S261.73,261.7,262.49,263.46Z" transform="translate(-238.74 -248.97)"/><path class="cls-16" d="M260.06,268.29a3.09,3.09,0,1,0-4.91-1.07A4,4,0,0,0,260.06,268.29Z" transform="translate(-238.74 -248.97)"/><path class="cls-16" d="M273.73,278.54c-2.34-.59-3.66-3.33-3-6.11s3.17-4.56,5.5-4,3.67,3.33,3,6.11S276.07,279.13,273.73,278.54Z" transform="translate(-238.74 -248.97)"/><path class="cls-16" d="M270.77,272.43c-.63,2.51.38,5,2.3,5.87a5,5,0,0,0,4.81-4.07c.63-2.51-.38-5-2.3-5.87A5,5,0,0,0,270.77,272.43Z" transform="translate(-238.74 -248.97)"/><path class="cls-16" d="M247.11,269.38c1.11,0,2,1.88,2,4.21s-.86,4.24-2,4.25-2-1.88-2.05-4.21S246,269.39,247.11,269.38Z" transform="translate(-238.74 -248.97)"/><path class="cls-16" d="M248,277.46a5.66,5.66,0,0,0,1.15-3.87c0-1.9-.62-3.5-1.45-4a5.64,5.64,0,0,0-1.15,3.86C246.57,275.33,247.18,276.93,248,277.46Z" transform="translate(-238.74 -248.97)"/><path class="cls-16" d="M251.68,290.6c.54-1.29,3.2-1.41,5.93-.26s4.5,3.13,4,4.42-3.21,1.42-5.94.27S251.13,291.9,251.68,290.6Z" transform="translate(-238.74 -248.97)"/><path class="cls-16" d="M261.53,293.61c-.43-1.14-1.92-2.43-3.92-3.27-2.22-.94-4.39-1-5.42-.34.43,1.14,1.92,2.44,3.92,3.28C258.34,294.21,260.51,294.31,261.53,293.61Z" transform="translate(-238.74 -248.97)"/><path class="cls-16" d="M265.46,254.12c.09.79-1.18,1.59-2.84,1.79s-3.1-.29-3.19-1.08,1.18-1.59,2.85-1.79S265.37,253.33,265.46,254.12Z" transform="translate(-238.74 -248.97)"/><path class="cls-16" d="M259.77,255.39a4.06,4.06,0,0,0,2.85.52,3.64,3.64,0,0,0,2.76-1.35,4.09,4.09,0,0,0-2.85-.52A3.64,3.64,0,0,0,259.77,255.39Z" transform="translate(-238.74 -248.97)"/><path class="cls-16" d="M279.1,288.7c-.61-.5-.25-2,.81-3.26s2.42-1.94,3-1.44.26,2-.8,3.27S279.72,289.21,279.1,288.7Z" transform="translate(-238.74 -248.97)"/><path class="cls-16" d="M282.31,283.83a4.09,4.09,0,0,0-2.4,1.61,3.6,3.6,0,0,0-1.05,2.89,4,4,0,0,0,2.41-1.61A3.61,3.61,0,0,0,282.31,283.83Z" transform="translate(-238.74 -248.97)"/><path class="cls-16" d="M246.8,285.07c.61-.5,2,.13,3,1.43s1.44,2.75.82,3.26-2-.13-3-1.43S246.18,285.58,246.8,285.07Z" transform="translate(-238.74 -248.97)"/><path class="cls-16" d="M251,289.17a4,4,0,0,0-1.11-2.67,3.61,3.61,0,0,0-2.63-1.59,4.08,4.08,0,0,0,1.11,2.67A3.64,3.64,0,0,0,251,289.17Z" transform="translate(-238.74 -248.97)"/><path class="cls-16" d="M270.07,294.36c-.32-.73.67-1.86,2.2-2.53s3-.63,3.36.11-.67,1.86-2.2,2.53S270.38,295.09,270.07,294.36Z" transform="translate(-238.74 -248.97)"/><path class="cls-16" d="M275.15,291.5a4,4,0,0,0-2.88.33,3.61,3.61,0,0,0-2.25,2.09,4.08,4.08,0,0,0,2.87-.33A3.69,3.69,0,0,0,275.15,291.5Z" transform="translate(-238.74 -248.97)"/><path class="cls-16" d="M280.3,260.14c-.33.52-1.48.38-2.57-.31s-1.7-1.67-1.37-2.19,1.48-.37,2.56.32S280.62,259.62,280.3,260.14Z" transform="translate(-238.74 -248.97)"/><path class="cls-16" d="M276.29,258.14a3.13,3.13,0,0,0,1.44,1.69,2.78,2.78,0,0,0,2.3.53,3.08,3.08,0,0,0-1.44-1.69A2.77,2.77,0,0,0,276.29,258.14Z" transform="translate(-238.74 -248.97)"/><path class="cls-16" d="M284.75,276.7c-.61,0-1.05-1.1-1-2.39s.61-2.3,1.22-2.27,1.06,1.1,1,2.39S285.36,276.73,284.75,276.7Z" transform="translate(-238.74 -248.97)"/><path class="cls-16" d="M284.52,272.23a3.09,3.09,0,0,0-.76,2.08,2.81,2.81,0,0,0,.67,2.27,3.09,3.09,0,0,0,.75-2.09A2.77,2.77,0,0,0,284.52,272.23Z" transform="translate(-238.74 -248.97)"/><path class="cls-16" d="M251.82,286.56c.24-.34,1-.2,1.73.3s1.1,1.2.86,1.54-1,.2-1.73-.3S251.58,286.9,251.82,286.56Z" transform="translate(-238.74 -248.97)"/><path class="cls-16" d="M254.48,288.06a2.13,2.13,0,0,0-.93-1.2,1.92,1.92,0,0,0-1.54-.44,2.1,2.1,0,0,0,.92,1.2A1.9,1.9,0,0,0,254.48,288.06Z" transform="translate(-238.74 -248.97)"/><path class="cls-16" d="M255.34,268.84a1.62,1.62,0,0,1-1.1,3,1.62,1.62,0,0,1,1.1-3Z" transform="translate(-238.74 -248.97)"/><path class="cls-16" d="M254.79,271.88a1.67,1.67,0,0,0,1.23-1.09,1.6,1.6,0,0,0-.34-1.75,1.67,1.67,0,0,0-1.23,1.09A1.61,1.61,0,0,0,254.79,271.88Z" transform="translate(-238.74 -248.97)"/><path class="cls-16" d="M261.88,257.9c.11.4-.49.91-1.34,1.14s-1.62.08-1.73-.32.49-.91,1.34-1.14S261.77,257.49,261.88,257.9Z" transform="translate(-238.74 -248.97)"/><path class="cls-16" d="M259,259a2.13,2.13,0,0,0,1.51.06,1.91,1.91,0,0,0,1.33-.91,2.08,2.08,0,0,0-1.51-.05A1.88,1.88,0,0,0,259,259Z" transform="translate(-238.74 -248.97)"/><path class="cls-16" d="M277.76,267.49a1.31,1.31,0,1,1,.49-1.53A1.16,1.16,0,0,1,277.76,267.49Z" transform="translate(-238.74 -248.97)"/><path class="cls-16" d="M276.55,265.36a1.34,1.34,0,0,0-.15,1.28,1.28,1.28,0,0,0,1.07.89,1.34,1.34,0,0,0,.15-1.28A1.28,1.28,0,0,0,276.55,265.36Z" transform="translate(-238.74 -248.97)"/><path class="cls-16" d="M244.9,265.88c.77.2,1,1.68.63,3.3s-1.4,2.78-2.17,2.57-1.05-1.68-.63-3.3S244.13,265.68,244.9,265.88Z" transform="translate(-238.74 -248.97)"/><path class="cls-16" d="M244,271.64a4.09,4.09,0,0,0,1.53-2.46,3.67,3.67,0,0,0-.25-3.06,4,4,0,0,0-1.52,2.46A3.63,3.63,0,0,0,244,271.64Z" transform="translate(-238.74 -248.97)"/><path class="cls-16" d="M281.43,279.44c.33.14.39.72.14,1.3s-.72.92-1.05.78-.38-.72-.13-1.3S281.11,279.3,281.43,279.44Z" transform="translate(-238.74 -248.97)"/><path class="cls-16" d="M281.24,277.35c.2.08.24.44.08.79s-.43.56-.63.47-.24-.44-.08-.79S281,277.26,281.24,277.35Z" transform="translate(-238.74 -248.97)"/><path class="cls-16" d="M259.37,289.89c-.17.35-.83.39-1.45.08s-1-.86-.81-1.21.83-.39,1.45-.08S259.55,289.54,259.37,289.89Z" transform="translate(-238.74 -248.97)"/><path class="cls-16" d="M261.19,290.31c-.11.21-.5.23-.88,0s-.6-.51-.49-.73.5-.23.88,0S261.3,290.09,261.19,290.31Z" transform="translate(-238.74 -248.97)"/><path class="cls-16" d="M250.92,286.61c-.14.13-.45,0-.69-.21s-.31-.56-.17-.69.45,0,.69.2S251.06,286.48,250.92,286.61Z" transform="translate(-238.74 -248.97)"/><path class="cls-16" d="M276.64,260.29c-.21.19-.65.06-1-.31s-.46-.81-.25-1,.65-.06,1,.31S276.85,260.09,276.64,260.29Z" transform="translate(-238.74 -248.97)"/><path class="cls-16" d="M277.41,261.87c-.13.13-.42,0-.65-.2s-.3-.53-.17-.66.43,0,.66.2S277.55,261.74,277.41,261.87Z" transform="translate(-238.74 -248.97)"/><path class="cls-16" d="M267,294.48c0,.36-.52.63-1.15.61s-1.13-.32-1.11-.68.52-.63,1.15-.61S267,294.13,267,294.48Z" transform="translate(-238.74 -248.97)"/><path class="cls-16" d="M268.9,293.53c0,.21-.33.38-.71.37s-.68-.2-.67-.42.32-.38.7-.36S268.9,293.31,268.9,293.53Z" transform="translate(-238.74 -248.97)"/><path class="cls-16" d="M264.2,293.42c0,.22-.32.38-.7.37s-.69-.2-.68-.41.32-.38.7-.37S264.21,293.2,264.2,293.42Z" transform="translate(-238.74 -248.97)"/><path class="cls-17" d="M246.77,265.7c-.3-.2-.26-.78.09-1.3s.86-.79,1.16-.59.25.78-.09,1.3S247.06,265.9,246.77,265.7Zm.53,1.74c.21-.32.24-.68.06-.8s-.5.05-.71.36-.24.68-.05.8S247.09,267.75,247.3,267.44Zm2.56-3.94c.21-.32.24-.68.06-.8s-.5.05-.71.36-.24.68-.06.8S249.65,263.81,249.86,263.5Zm14.73-6.1c-.12-.34.26-.78.85-1s1.16-.12,1.28.21-.25.78-.84,1S264.72,257.73,264.59,257.4Zm3.8.05c.36-.13.59-.4.52-.6s-.43-.26-.79-.13-.58.4-.51.6S268,257.58,268.39,257.45Z" transform="translate(-238.74 -248.97)"/></g></g></g></svg>