<svg xmlns="http://www.w3.org/2000/svg" xmlns:xlink="http://www.w3.org/1999/xlink" viewBox="0 0 104.39 102.1"><defs><style>.cls-1{isolation:isolate;}.cls-19,.cls-2,.cls-20,.cls-22,.cls-23,.cls-29,.cls-30,.cls-31,.cls-32,.cls-33,.cls-34,.cls-35,.cls-36,.cls-38,.cls-8{opacity:0.5;}.cls-10,.cls-11,.cls-17,.cls-19,.cls-2,.cls-22,.cls-23,.cls-29,.cls-30,.cls-31,.cls-32,.cls-33,.cls-34,.cls-35,.cls-36,.cls-37,.cls-38,.cls-42,.cls-43,.cls-44,.cls-5,.cls-9{mix-blend-mode:screen;}.cls-2{fill:url(#radial-gradient);}.cls-3{fill:url(#radial-gradient-2);}.cls-4{fill:#dfab45;}.cls-18,.cls-5{fill:#de007b;}.cls-12,.cls-13,.cls-14,.cls-15,.cls-16,.cls-24,.cls-40,.cls-41,.cls-45,.cls-46,.cls-47,.cls-48,.cls-49,.cls-6,.cls-7{opacity:0.4;mix-blend-mode:multiply;}.cls-6{fill:url(#radial-gradient-3);}.cls-7{fill:url(#radial-gradient-4);}.cls-9{fill:url(#radial-gradient-5);}.cls-10{fill:url(#radial-gradient-6);}.cls-11{fill:url(#radial-gradient-7);}.cls-12{fill:url(#radial-gradient-8);}.cls-13{fill:url(#radial-gradient-9);}.cls-14{fill:url(#radial-gradient-10);}.cls-15{fill:url(#radial-gradient-11);}.cls-16{fill:url(#radial-gradient-12);}.cls-17{fill:url(#radial-gradient-13);}.cls-19{fill:url(#radial-gradient-14);}.cls-20{fill:url(#radial-gradient-15);}.cls-21{fill:url(#radial-gradient-16);}.cls-22{fill:url(#radial-gradient-17);}.cls-23{fill:url(#radial-gradient-18);}.cls-25{fill:url(#radial-gradient-19);}.cls-26{fill:url(#radial-gradient-20);}.cls-27{fill:url(#radial-gradient-21);}.cls-28{fill:url(#radial-gradient-22);}.cls-29{fill:url(#radial-gradient-23);}.cls-30{fill:url(#radial-gradient-24);}.cls-31{fill:url(#radial-gradient-25);}.cls-32{fill:url(#radial-gradient-26);}.cls-33{fill:url(#radial-gradient-27);}.cls-34{fill:url(#radial-gradient-28);}.cls-35{fill:url(#radial-gradient-29);}.cls-36{fill:url(#radial-gradient-30);}.cls-37{opacity:0.25;fill:url(#radial-gradient-31);}.cls-38{fill:url(#radial-gradient-32);}.cls-39{fill:url(#radial-gradient-33);}.cls-40{fill:url(#radial-gradient-34);}.cls-41{fill:url(#radial-gradient-35);}.cls-42{fill:url(#radial-gradient-36);}.cls-43{fill:url(#radial-gradient-37);}.cls-44{fill:url(#radial-gradient-38);}.cls-45{fill:url(#radial-gradient-39);}.cls-46{fill:url(#radial-gradient-40);}.cls-47{fill:url(#radial-gradient-41);}.cls-48{fill:url(#radial-gradient-42);}.cls-49{fill:url(#radial-gradient-43);}</style><radialGradient id="radial-gradient" cx="10.18" cy="55.47" r="9.12" gradientUnits="userSpaceOnUse"><stop offset="0.02" stop-color="#e43d99"/><stop offset="0.47" stop-color="#e43d99"/><stop offset="0.84" stop-color="#e44099" stop-opacity="0.5"/><stop offset="1" stop-color="#e47e99" stop-opacity="0"/></radialGradient><radialGradient id="radial-gradient-2" cx="7.63" cy="49.98" r="15.42" gradientUnits="userSpaceOnUse"><stop offset="0" stop-color="#d1e1ee"/><stop offset="0.34" stop-color="#8ee1ee"/><stop offset="0.94" stop-color="#732fa4"/></radialGradient><radialGradient id="radial-gradient-3" cx="641.89" cy="114.78" r="12.79" gradientUnits="userSpaceOnUse"><stop offset="0.01" stop-color="#b30058"/><stop offset="1" stop-color="#5c2d7d"/></radialGradient><radialGradient id="radial-gradient-4" cx="423.56" cy="-71.56" r="12.79" gradientTransform="matrix(0.64, 0.77, -0.77, 0.64, 313.82, -163.31)" xlink:href="#radial-gradient-3"/><radialGradient id="radial-gradient-5" cx="636.7" cy="100.31" r="12.33" xlink:href="#radial-gradient-2"/><radialGradient id="radial-gradient-6" cx="636.7" cy="100.31" r="12.33" xlink:href="#radial-gradient-2"/><radialGradient id="radial-gradient-7" cx="636.7" cy="100.31" r="12.33" xlink:href="#radial-gradient-2"/><radialGradient id="radial-gradient-8" cx="641.23" cy="110.8" r="12.32" xlink:href="#radial-gradient-3"/><radialGradient id="radial-gradient-9" cx="10.43" cy="52.31" r="12.32" xlink:href="#radial-gradient-3"/><radialGradient id="radial-gradient-10" cx="10.43" cy="52.31" r="12.32" xlink:href="#radial-gradient-3"/><radialGradient id="radial-gradient-11" cx="641.23" cy="110.8" r="12.33" xlink:href="#radial-gradient-3"/><radialGradient id="radial-gradient-12" cx="641.23" cy="110.8" r="12.32" xlink:href="#radial-gradient-3"/><radialGradient id="radial-gradient-13" cx="752.59" cy="-140.52" r="59.77" gradientTransform="translate(34.33 -297.6) rotate(42.82)" gradientUnits="userSpaceOnUse"><stop offset="0.08" stop-color="#dfab45"/><stop offset="0.85" stop-color="#dfab45" stop-opacity="0"/></radialGradient><radialGradient id="radial-gradient-14" cx="745.16" cy="-145.18" r="33.9" gradientTransform="translate(20.3 493.45) rotate(-19.46)" gradientUnits="userSpaceOnUse"><stop offset="0" stop-color="#8ee1ee"/><stop offset="0.94" stop-color="#5e8dec"/></radialGradient><radialGradient id="radial-gradient-15" cx="750.39" cy="-139.64" r="37.35" gradientTransform="translate(20.3 493.45) rotate(-19.46)" xlink:href="#radial-gradient-3"/><radialGradient id="radial-gradient-16" cx="775.65" cy="-112.26" r="49.94" gradientTransform="translate(20.3 493.45) rotate(-19.46)" xlink:href="#radial-gradient-3"/><radialGradient id="radial-gradient-17" cx="752" cy="-145.58" r="27.8" xlink:href="#radial-gradient-14"/><radialGradient id="radial-gradient-18" cx="751.53" cy="-117.83" r="24.23" xlink:href="#radial-gradient-14"/><radialGradient id="radial-gradient-19" cx="751.17" cy="-129.35" r="26.57" gradientTransform="translate(20.3 493.45) rotate(-19.46)" xlink:href="#radial-gradient-3"/><radialGradient id="radial-gradient-20" cx="751.32" cy="-107.69" r="17.11" gradientTransform="translate(20.3 493.45) rotate(-19.46)" xlink:href="#radial-gradient-3"/><radialGradient id="radial-gradient-21" cx="752.89" cy="-175.19" r="15.81" gradientTransform="translate(20.3 493.45) rotate(-19.46)" xlink:href="#radial-gradient-3"/><radialGradient id="radial-gradient-22" cx="752.36" cy="-157.96" r="25.84" gradientTransform="translate(20.3 493.45) rotate(-19.46)" xlink:href="#radial-gradient-3"/><radialGradient id="radial-gradient-23" cx="753.72" cy="-168.37" r="20.11" xlink:href="#radial-gradient-14"/><radialGradient id="radial-gradient-24" cx="721.51" cy="-140.72" r="5.82" xlink:href="#radial-gradient-14"/><radialGradient id="radial-gradient-25" cx="771.89" cy="-135.26" r="11.73" xlink:href="#radial-gradient-14"/><radialGradient id="radial-gradient-26" cx="767.55" cy="-162.98" r="10.41" xlink:href="#radial-gradient-14"/><radialGradient id="radial-gradient-27" cx="755.8" cy="-110.91" r="3.09" xlink:href="#radial-gradient-14"/><radialGradient id="radial-gradient-28" cx="732.29" cy="-112.62" r="5.78" xlink:href="#radial-gradient-14"/><radialGradient id="radial-gradient-29" cx="737.94" cy="-135.87" r="2.02" xlink:href="#radial-gradient-14"/><radialGradient id="radial-gradient-30" cx="733.41" cy="-165.16" r="5.7" xlink:href="#radial-gradient-14"/><radialGradient id="radial-gradient-31" cx="670.51" cy="-188.28" r="21.39" gradientTransform="translate(2.66 292.28)" xlink:href="#radial-gradient-14"/><radialGradient id="radial-gradient-32" cx="718.9" cy="111.22" r="16.29" gradientTransform="translate(289.21 -475.77) rotate(45)" xlink:href="#radial-gradient"/><radialGradient id="radial-gradient-33" cx="714.35" cy="101.41" r="27.55" gradientTransform="translate(289.21 -475.77) rotate(45)" xlink:href="#radial-gradient-2"/><radialGradient id="radial-gradient-34" cx="720.53" cy="112.69" r="22.84" xlink:href="#radial-gradient-3"/><radialGradient id="radial-gradient-35" cx="472.22" cy="-132.41" r="22.84" gradientTransform="matrix(0.64, 0.77, -0.77, 0.64, 313.82, -163.31)" xlink:href="#radial-gradient-3"/><radialGradient id="radial-gradient-36" cx="711.26" cy="86.83" r="22.02" xlink:href="#radial-gradient-2"/><radialGradient id="radial-gradient-37" cx="711.26" cy="86.83" r="22.02" xlink:href="#radial-gradient-2"/><radialGradient id="radial-gradient-38" cx="711.26" cy="86.83" r="22.02" xlink:href="#radial-gradient-2"/><radialGradient id="radial-gradient-39" cx="88.55" cy="47.08" r="22.01" xlink:href="#radial-gradient-3"/><radialGradient id="radial-gradient-40" cx="88.55" cy="47.08" r="22.01" xlink:href="#radial-gradient-3"/><radialGradient id="radial-gradient-41" cx="88.55" cy="47.08" r="22.01" xlink:href="#radial-gradient-3"/><radialGradient id="radial-gradient-42" cx="719.35" cy="105.57" r="22.01" xlink:href="#radial-gradient-3"/><radialGradient id="radial-gradient-43" cx="88.55" cy="47.08" r="22.01" xlink:href="#radial-gradient-3"/></defs><title>planete_10.module</title><g class="cls-1"><g id="Calque_2" data-name="Calque 2"><g id="BACKGROUND1"><circle class="cls-2" cx="10.18" cy="55.47" r="9.12"/><circle class="cls-3" cx="10.18" cy="55.47" r="7.29"/><path class="cls-4" d="M634.85,114.78a7.29,7.29,0,0,1,10.92-6.31,7.29,7.29,0,1,0-8.42,11.81A7.28,7.28,0,0,1,634.85,114.78Z" transform="translate(-630.81 -58.49)"/><path class="cls-5" d="M637.2,118.92a7.28,7.28,0,0,1,3.26-12.19A7.29,7.29,0,1,0,642.85,121,7.31,7.31,0,0,1,637.2,118.92Z" transform="translate(-630.81 -58.49)"/><path class="cls-6" d="M646.73,109.48a7.52,7.52,0,0,1,.19,1.65,7.29,7.29,0,0,1-13,4.49,7.29,7.29,0,1,0,12.84-6.14Z" transform="translate(-630.81 -58.49)"/><path class="cls-7" d="M648.1,115.38a7.28,7.28,0,0,1-13-5.89,7.29,7.29,0,0,0,10.51,10A7.2,7.2,0,0,0,648.1,115.38Z" transform="translate(-630.81 -58.49)"/><g class="cls-8"><path class="cls-9" d="M646.31,110.75l-3.33,2a2.68,2.68,0,0,0-.9.73,1,1,0,0,0,0,1.09,1.41,1.41,0,0,0,1.06.37l2,.1c.52,0,1.17.17,1.27.68.06.35-.19.75,0,1.05a.7.7,0,0,0,.39.26,1.87,1.87,0,0,0,.81.08,7.14,7.14,0,0,0,.73-3.17,7.26,7.26,0,0,0-1.11-3.86A3.2,3.2,0,0,1,646.31,110.75Z" transform="translate(-630.81 -58.49)"/><path class="cls-10" d="M641.72,121.21a1.81,1.81,0,0,0-.52-.2c-.34-.09-.76-.28-.76-.64a.75.75,0,0,1,.1-.33c.51-.88,1.59-1.19,2.47-1.68.23-.12.47-.32.45-.57a.67.67,0,0,0-.27-.39,3,3,0,0,0-2.36-.52,4.7,4.7,0,0,0-2.18,1.12,2.78,2.78,0,0,1-.84.61.76.76,0,0,1-.93-.26c-.12-.25,0-.56-.12-.82a1,1,0,0,0-1.14-.56,2.36,2.36,0,0,0-1,.55,7.25,7.25,0,0,0,6.35,3.73A6,6,0,0,0,641.72,121.21Z" transform="translate(-630.81 -58.49)"/><path class="cls-11" d="M633.73,113.27a3.37,3.37,0,0,1,.61.28c.78.46,1.38,1.18,2.15,1.64a4.05,4.05,0,0,0,2.14.58,1.9,1.9,0,0,0,1.07-.27,1,1,0,0,0,.44-1c-.12-.56-.83-.81-1-1.35a1.3,1.3,0,0,1,.71-1.44,16,16,0,0,1,1.64-.59,3.28,3.28,0,0,0,1.38-1.09,1.86,1.86,0,0,0,.32-1.84c-.27-.57-.92-.84-1.4-1.27a1.72,1.72,0,0,1-.27-.27l-.51,0A7.28,7.28,0,0,0,633.73,113.27Z" transform="translate(-630.81 -58.49)"/></g><path class="cls-12" d="M641.54,112.84a.58.58,0,1,1-.58-.58A.58.58,0,0,1,641.54,112.84Z" transform="translate(-630.81 -58.49)"/><circle class="cls-13" cx="13.53" cy="51.68" r="0.33"/><circle class="cls-14" cx="14.51" cy="59.57" r="0.71"/><path class="cls-15" d="M641.94,116a.31.31,0,0,1-.3.31.31.31,0,0,1,0-.61A.31.31,0,0,1,641.94,116Z" transform="translate(-630.81 -58.49)"/><path class="cls-16" d="M638,117.3a.26.26,0,1,1-.51,0,.26.26,0,0,1,.51,0Z" transform="translate(-630.81 -58.49)"/><circle class="cls-17" cx="681.85" cy="109.54" r="51.03" transform="translate(-363.01 603.75) rotate(-62.29)"/><circle class="cls-18" cx="681.85" cy="109.54" r="38.92" transform="translate(-508.55 455.74) rotate(-45)"/><path class="cls-19" d="M649.21,123.92a38.91,38.91,0,0,1,47.47-50.36,38.91,38.91,0,1,0-25.6,73.37A38.81,38.81,0,0,1,649.21,123.92Z" transform="translate(-630.81 -58.49)"/><path class="cls-20" d="M699.83,129.65A36.11,36.11,0,0,1,654.31,82a38.93,38.93,0,1,0,66.46,28.28A36,36,0,0,1,699.83,129.65Z" transform="translate(-630.81 -58.49)"/><path class="cls-21" d="M692.52,72.11a36.16,36.16,0,0,1-44.42,56.81,38.92,38.92,0,1,0,44.42-56.81Z" transform="translate(-630.81 -58.49)"/><path class="cls-22" d="M643,110.88a37.64,37.64,0,0,0,.4,4.34c4.23,1.69,9.37,1.39,13.82,1.18A130.6,130.6,0,0,0,680,113.24a116.93,116.93,0,0,0,22.51-7.66c5.36-2.42,11.27-5.22,16-9v0a36.82,36.82,0,0,0-1.83-4.32c-5.43,2.43-10.6,5.65-16.06,8a140.43,140.43,0,0,1-19,6.49,122.19,122.19,0,0,1-20.44,3.68C655.81,110.94,648.59,112.25,643,110.88Z" transform="translate(-630.81 -58.49)"/><path class="cls-23" d="M720.16,116.44c-8.4,5.17-16.81,10.16-26.28,13.62a131.38,131.38,0,0,1-20.34,5.58c-5.64,1.09-12.06,1-17.48,3.05a39.5,39.5,0,0,0,3.92,3c5.07.54,10.62-.56,15.35-1.34A110.38,110.38,0,0,0,695.61,135a116.89,116.89,0,0,0,22.25-10.66A38.76,38.76,0,0,0,720.16,116.44Z" transform="translate(-630.81 -58.49)"/><g class="cls-24"><path class="cls-25" d="M694.46,115.68a181.17,181.17,0,0,1-30.29,9.21c-4.94,1-10,2.08-15,2.66l-1.74.17a38.89,38.89,0,0,0,5.69,8.1c3.17-.22,6.12-.65,8.27-1a169.3,169.3,0,0,0,35.29-8.73A151.66,151.66,0,0,0,720.4,115a38.6,38.6,0,0,0-.32-12.76A141.68,141.68,0,0,1,694.46,115.68Z" transform="translate(-630.81 -58.49)"/><path class="cls-26" d="M689.4,143c-6.93,2.44-14,2.32-21,3a38.92,38.92,0,0,0,46.89-16.53c-4.09,1.4-7.74,4.41-11.44,6.54A87,87,0,0,1,689.4,143Z" transform="translate(-630.81 -58.49)"/><path class="cls-27" d="M650.79,86.08c2.18-.31,4.34-.74,6.38-1.11a170.94,170.94,0,0,0,19-4.43,93.49,93.49,0,0,0,18.76-7.66,38.82,38.82,0,0,0-11.23-2.22c-3.43,1.46-6.93,2.73-10.48,3.86-4.82,1.54-9.73,2.77-14.68,3.84A39.32,39.32,0,0,0,650.79,86.08Z" transform="translate(-630.81 -58.49)"/><path class="cls-28" d="M660.22,108.77c12.12-.22,23.73-5.32,34.53-10.33,6.66-3.1,13.34-6.39,19.71-10.16A38.81,38.81,0,0,0,704.65,78c-4.7,2.71-9.54,5.2-14.48,7.51-9.56,4.48-19.53,9.12-30.12,10.31a67.77,67.77,0,0,1-14.59-.06,39,39,0,0,0-2.39,10.56A55.36,55.36,0,0,0,660.22,108.77Z" transform="translate(-630.81 -58.49)"/></g><path class="cls-29" d="M696.24,73.38c-.9.48-1.8,1-2.72,1.39a144.47,144.47,0,0,1-15.24,6.29c-9.33,3.17-19,4.58-28.62,6.61-.71,1-1.36,2.11-2,3.21,10.95,1.54,22.09-.94,32.49-4.42,7.14-2.4,15.19-5.65,21.9-10.17A39.84,39.84,0,0,0,696.24,73.38Z" transform="translate(-630.81 -58.49)"/><path class="cls-30" d="M662.12,121.67a1,1,0,0,0-.4-1.87,84.81,84.81,0,0,0-8.59-.27c-3.08,0-6.06-.54-9.1-.81a38.07,38.07,0,0,0,1.13,3.79c.07.22.17.43.25.65C650.9,124.5,657.32,124.17,662.12,121.67Z" transform="translate(-630.81 -58.49)"/><path class="cls-31" d="M709.72,105.52a229.45,229.45,0,0,1-24.78,10.06c-.53.18-.23.9.28.79a114.62,114.62,0,0,0,26.72-9.13c2.73-1.34,5.53-2.73,8.28-4.23-.17-1-.37-2-.61-2.92C716.39,102,713.13,103.89,709.72,105.52Z" transform="translate(-630.81 -58.49)"/><path class="cls-32" d="M673.69,90.75A146.73,146.73,0,0,0,705.2,78.4q-.74-.56-1.5-1.08a243,243,0,0,1-30.19,12.92C673.18,90.35,673.36,90.84,673.69,90.75Z" transform="translate(-630.81 -58.49)"/><path class="cls-33" d="M700.13,134.91c-3,1.32-5.87,2.94-8.86,4.29a0,0,0,0,0,0,.08,56.58,56.58,0,0,0,9.08-3.9C700.63,135.23,700.41,134.78,700.13,134.91Z" transform="translate(-630.81 -58.49)"/><path class="cls-34" d="M681.43,141.42c-6,.63-12,1.75-18,2.39q.78.42,1.59.81a37.68,37.68,0,0,0,16.73-1.78A.74.74,0,0,0,681.43,141.42Z" transform="translate(-630.81 -58.49)"/><path class="cls-35" d="M667.82,119.45c-.57.17-.26,1,.3.87a19.46,19.46,0,0,1,2.84-.64c.86-.12,1.76-.08,2.61-.25.4-.08.51-.68,0-.76A13.05,13.05,0,0,0,667.82,119.45Z" transform="translate(-630.81 -58.49)"/><path class="cls-36" d="M665.08,93.22c.95-.31.57-1.64-.34-1.64-5.94-.06-11.75,1.07-17.57,2a.08.08,0,0,0,0,.16C653.17,94.83,659.14,95.13,665.08,93.22Z" transform="translate(-630.81 -58.49)"/><ellipse class="cls-37" cx="673.15" cy="104" rx="20.34" ry="22.38" transform="translate(-636.82 -6.28) rotate(-4.42)"/><circle class="cls-38" cx="718.9" cy="111.22" r="16.29" transform="translate(-498.89 482.43) rotate(-45)"/><circle class="cls-39" cx="718.9" cy="111.22" r="13.02" transform="translate(-498.89 482.43) rotate(-45)"/><path class="cls-4" d="M707.94,112.69a13,13,0,0,1,13-13,12.85,12.85,0,0,1,6.49,1.74,13,13,0,1,0-15,21.09A13,13,0,0,1,707.94,112.69Z" transform="translate(-630.81 -58.49)"/><path class="cls-5" d="M712.15,120.08A13,13,0,0,1,718,98.31a13,13,0,0,0-8.31,22.18,13,13,0,0,0,12.59,3.37A13,13,0,0,1,712.15,120.08Z" transform="translate(-630.81 -58.49)"/><path class="cls-40" d="M729.17,103.22a13,13,0,0,1-22.94,11,13,13,0,1,0,22.94-11Z" transform="translate(-630.81 -58.49)"/><path class="cls-41" d="M731.62,113.76a12.58,12.58,0,0,1-2,2.16,13,13,0,0,1-21.1-12.68,13,13,0,1,0,23.14,10.52Z" transform="translate(-630.81 -58.49)"/><g class="cls-8"><path class="cls-42" d="M728.42,105.49l-5.95,3.6a4.88,4.88,0,0,0-1.6,1.31,1.69,1.69,0,0,0-.08,1.95,2.49,2.49,0,0,0,1.9.65l3.54.19c.92,0,2.09.3,2.26,1.21.11.62-.34,1.33,0,1.88a1.24,1.24,0,0,0,.68.46,3.51,3.51,0,0,0,1.47.15,13.05,13.05,0,0,0-.69-12.57A5.66,5.66,0,0,1,728.42,105.49Z" transform="translate(-630.81 -58.49)"/><path class="cls-43" d="M720.22,124.17a3.33,3.33,0,0,0-.92-.36c-.62-.16-1.37-.5-1.37-1.14a1.25,1.25,0,0,1,.19-.59c.9-1.57,2.83-2.13,4.41-3,.4-.22.84-.57.79-1a1.1,1.1,0,0,0-.48-.69,5.34,5.34,0,0,0-4.2-.93,8.35,8.35,0,0,0-3.9,2,5,5,0,0,1-1.51,1.09,1.35,1.35,0,0,1-1.65-.48c-.23-.44-.08-1-.22-1.46a1.72,1.72,0,0,0-2-1,4.19,4.19,0,0,0-1.77,1,13,13,0,0,0,11.35,6.66C719.35,124.24,719.79,124.21,720.22,124.17Z" transform="translate(-630.81 -58.49)"/><path class="cls-44" d="M706,110a6,6,0,0,1,1.09.49c1.39.83,2.46,2.11,3.85,2.94a7.22,7.22,0,0,0,3.82,1,3.48,3.48,0,0,0,1.9-.49,1.73,1.73,0,0,0,.79-1.71c-.22-1-1.48-1.45-1.84-2.41a2.3,2.3,0,0,1,1.27-2.57,25,25,0,0,1,2.93-1.07,5.86,5.86,0,0,0,2.46-1.94,3.33,3.33,0,0,0,.58-3.28c-.49-1-1.65-1.51-2.51-2.27a5.44,5.44,0,0,1-.48-.48c-.3,0-.6,0-.91,0A13,13,0,0,0,706,110Z" transform="translate(-630.81 -58.49)"/></g><circle class="cls-45" cx="88.05" cy="50.73" r="1.04"/><circle class="cls-46" cx="94.09" cy="45.96" r="0.59"/><circle class="cls-47" cx="95.84" cy="60.05" r="1.26"/><path class="cls-48" d="M720.62,114.94a.55.55,0,1,1-.54-.54A.54.54,0,0,1,720.62,114.94Z" transform="translate(-630.81 -58.49)"/><circle class="cls-49" cx="82.33" cy="58.7" r="0.45"/></g></g></g></svg>