<svg xmlns="http://www.w3.org/2000/svg" xmlns:xlink="http://www.w3.org/1999/xlink" viewBox="0 0 59.93 86.48"><defs><style>.cls-1{isolation:isolate;}.cls-2{fill:url(#radial-gradient);}.cls-3{fill:url(#radial-gradient-2);}.cls-10,.cls-11,.cls-14,.cls-16,.cls-17,.cls-18,.cls-19,.cls-4,.cls-6,.cls-65,.cls-8,.cls-9{mix-blend-mode:screen;}.cls-4{fill:url(#radial-gradient-3);}.cls-5,.cls-7{opacity:0.34;mix-blend-mode:color-burn;}.cls-5{fill:url(#radial-gradient-4);}.cls-6,.cls-9{opacity:0.45;}.cls-6{fill:url(#radial-gradient-5);}.cls-7{fill:url(#radial-gradient-6);}.cls-9{fill:url(#radial-gradient-7);}.cls-10{fill:url(#radial-gradient-8);}.cls-11{fill:url(#radial-gradient-9);}.cls-12{fill:url(#radial-gradient-10);}.cls-13{fill:url(#radial-gradient-11);}.cls-14{fill:url(#radial-gradient-12);}.cls-15{opacity:0.7;}.cls-16{fill:url(#radial-gradient-13);}.cls-17{fill:url(#radial-gradient-14);}.cls-18{fill:url(#radial-gradient-15);}.cls-19{fill:url(#radial-gradient-16);}.cls-20,.cls-21,.cls-22,.cls-23,.cls-24,.cls-25,.cls-26,.cls-27,.cls-28,.cls-29,.cls-30,.cls-31,.cls-32,.cls-33,.cls-34,.cls-35,.cls-36,.cls-37,.cls-38,.cls-39,.cls-40,.cls-41,.cls-42,.cls-43,.cls-44,.cls-45,.cls-46,.cls-47,.cls-48,.cls-49,.cls-50,.cls-51,.cls-52,.cls-53,.cls-54,.cls-55,.cls-56,.cls-57,.cls-58,.cls-59,.cls-60,.cls-61,.cls-62,.cls-63,.cls-64,.cls-65{opacity:0.5;}.cls-20,.cls-21,.cls-22,.cls-23,.cls-24,.cls-25,.cls-26,.cls-27,.cls-28,.cls-29,.cls-30,.cls-31,.cls-32,.cls-33,.cls-34,.cls-35,.cls-36,.cls-37,.cls-38,.cls-39,.cls-40,.cls-41,.cls-42,.cls-43,.cls-44,.cls-45,.cls-46,.cls-47,.cls-48,.cls-49,.cls-50,.cls-51,.cls-52,.cls-53,.cls-54,.cls-55,.cls-56,.cls-57,.cls-58,.cls-59,.cls-60,.cls-61,.cls-62,.cls-63,.cls-64{mix-blend-mode:multiply;}.cls-20{fill:url(#radial-gradient-17);}.cls-21{fill:url(#radial-gradient-18);}.cls-22{fill:url(#radial-gradient-19);}.cls-23{fill:url(#radial-gradient-20);}.cls-24{fill:url(#radial-gradient-21);}.cls-25{fill:url(#radial-gradient-22);}.cls-26{fill:url(#radial-gradient-23);}.cls-27{fill:url(#radial-gradient-25);}.cls-28{fill:url(#radial-gradient-26);}.cls-29{fill:url(#radial-gradient-27);}.cls-30{fill:url(#radial-gradient-28);}.cls-31{fill:url(#radial-gradient-29);}.cls-32{fill:url(#radial-gradient-30);}.cls-33{fill:url(#radial-gradient-31);}.cls-34{fill:url(#radial-gradient-33);}.cls-35{fill:url(#radial-gradient-34);}.cls-36{fill:url(#radial-gradient-35);}.cls-37{fill:url(#radial-gradient-36);}.cls-38{fill:url(#radial-gradient-37);}.cls-39{fill:url(#radial-gradient-38);}.cls-40{fill:url(#radial-gradient-39);}.cls-41{fill:url(#radial-gradient-40);}.cls-42{fill:url(#radial-gradient-41);}.cls-43{fill:url(#radial-gradient-42);}.cls-44{fill:url(#radial-gradient-43);}.cls-45{fill:url(#radial-gradient-44);}.cls-46{fill:url(#radial-gradient-45);}.cls-47{fill:url(#radial-gradient-46);}.cls-48{fill:url(#radial-gradient-47);}.cls-49{fill:url(#radial-gradient-49);}.cls-50{fill:url(#radial-gradient-50);}.cls-51{fill:url(#radial-gradient-51);}.cls-52{fill:url(#radial-gradient-52);}.cls-53{fill:url(#radial-gradient-53);}.cls-54{fill:url(#radial-gradient-55);}.cls-55{fill:url(#radial-gradient-57);}.cls-56{fill:url(#radial-gradient-58);}.cls-57{fill:url(#radial-gradient-59);}.cls-58{fill:url(#radial-gradient-60);}.cls-59{fill:url(#radial-gradient-61);}.cls-60{fill:url(#radial-gradient-62);}.cls-61{fill:url(#radial-gradient-63);}.cls-62{fill:url(#radial-gradient-64);}.cls-63{fill:url(#radial-gradient-65);}.cls-64{fill:url(#radial-gradient-66);}.cls-65{fill:url(#radial-gradient-67);}</style><radialGradient id="radial-gradient" cx="676.6" cy="224.49" r="26.16" gradientTransform="translate(692.21 -474.3) rotate(73.51)" gradientUnits="userSpaceOnUse"><stop offset="0" stop-color="#f20074"/><stop offset="0.38" stop-color="#f10174" stop-opacity="0.99"/><stop offset="0.51" stop-color="#ed0376" stop-opacity="0.96"/><stop offset="0.61" stop-color="#e70679" stop-opacity="0.92"/><stop offset="0.69" stop-color="#df0b7d" stop-opacity="0.85"/><stop offset="0.75" stop-color="#d31182" stop-opacity="0.75"/><stop offset="0.81" stop-color="#c51988" stop-opacity="0.64"/><stop offset="0.87" stop-color="#b42290" stop-opacity="0.51"/><stop offset="0.92" stop-color="#a02d98" stop-opacity="0.35"/><stop offset="0.96" stop-color="#8b39a2" stop-opacity="0.18"/><stop offset="1" stop-color="#7446ac" stop-opacity="0"/></radialGradient><radialGradient id="radial-gradient-2" cx="672.48" cy="215.08" r="41.65" gradientTransform="translate(655.31 -474.56) rotate(70.55)" gradientUnits="userSpaceOnUse"><stop offset="0" stop-color="#f20074"/><stop offset="0.14" stop-color="#ed0376"/><stop offset="0.31" stop-color="#df0b7d"/><stop offset="0.49" stop-color="#c71887"/><stop offset="0.67" stop-color="#a62a96"/><stop offset="0.87" stop-color="#7b42a9"/><stop offset="0.9" stop-color="#7446ac"/></radialGradient><radialGradient id="radial-gradient-3" cx="663.44" cy="204.2" r="66.8" gradientTransform="translate(416.85 -428.75) rotate(50.93)" xlink:href="#radial-gradient-2"/><radialGradient id="radial-gradient-4" cx="668.72" cy="223.08" r="32.05" gradientTransform="translate(416.85 -428.75) rotate(50.93)" xlink:href="#radial-gradient-2"/><radialGradient id="radial-gradient-5" cx="673.23" cy="212.83" r="34.44" gradientTransform="translate(416.85 -428.75) rotate(50.93)" xlink:href="#radial-gradient-2"/><radialGradient id="radial-gradient-6" cx="668.26" cy="224.75" r="26.59" gradientTransform="translate(416.85 -428.75) rotate(50.93)" xlink:href="#radial-gradient-2"/><radialGradient id="radial-gradient-7" cx="609.79" cy="-246.36" r="38.73" gradientTransform="matrix(-0.54, 1.24, -1.09, -0.48, 777.02, -640.01)" xlink:href="#radial-gradient-2"/><radialGradient id="radial-gradient-8" cx="917.17" cy="-380.84" r="12.86" gradientTransform="translate(-28.78 -466.49) rotate(66.45)" xlink:href="#radial-gradient-2"/><radialGradient id="radial-gradient-9" cx="724" cy="-367.06" r="7.09" gradientTransform="translate(1412.77 -124.91) rotate(180)" xlink:href="#radial-gradient-2"/><radialGradient id="radial-gradient-10" cx="703.53" cy="282.38" r="14.97" gradientTransform="translate(213.04 -306.79) rotate(29.34)" gradientUnits="userSpaceOnUse"><stop offset="0" stop-color="#8ee1ee"/><stop offset="0.62" stop-color="#5e8dec"/><stop offset="0.7" stop-color="#5e8ceb" stop-opacity="0.99"/><stop offset="0.75" stop-color="#5f8ae9" stop-opacity="0.95"/><stop offset="0.8" stop-color="#6085e5" stop-opacity="0.89"/><stop offset="0.84" stop-color="#627fdf" stop-opacity="0.8"/><stop offset="0.87" stop-color="#6576d8" stop-opacity="0.68"/><stop offset="0.91" stop-color="#686cce" stop-opacity="0.54"/><stop offset="0.94" stop-color="#6c60c4" stop-opacity="0.37"/><stop offset="0.97" stop-color="#7053b7" stop-opacity="0.18"/><stop offset="1" stop-color="#7446ac" stop-opacity="0"/></radialGradient><radialGradient id="radial-gradient-11" cx="704.93" cy="270.84" r="26.09" gradientTransform="matrix(0.7, 0.71, -0.71, 0.7, 394.17, -414.75)" gradientUnits="userSpaceOnUse"><stop offset="0" stop-color="#8ee1ee"/><stop offset="0.62" stop-color="#5e8dec"/><stop offset="0.63" stop-color="#5f89e8"/><stop offset="0.74" stop-color="#6b64c7"/><stop offset="0.84" stop-color="#714eb3"/><stop offset="0.9" stop-color="#7446ac"/></radialGradient><radialGradient id="radial-gradient-12" cx="679.76" cy="405.85" r="24.81" gradientTransform="matrix(1.18, 0.66, -0.58, 1.03, 123.07, -614.61)" xlink:href="#radial-gradient-11"/><radialGradient id="radial-gradient-13" cx="704.62" cy="270.98" r="19.42" gradientTransform="translate(75.56 -162.73) rotate(14.25)" xlink:href="#radial-gradient-11"/><radialGradient id="radial-gradient-14" cx="704.62" cy="270.98" r="19.42" gradientTransform="translate(75.56 -162.73) rotate(14.25)" xlink:href="#radial-gradient-11"/><radialGradient id="radial-gradient-15" cx="704.62" cy="270.98" r="19.42" gradientTransform="translate(75.56 -162.73) rotate(14.25)" xlink:href="#radial-gradient-11"/><radialGradient id="radial-gradient-16" cx="704.62" cy="270.98" r="19.42" gradientTransform="translate(75.56 -162.73) rotate(14.25)" xlink:href="#radial-gradient-11"/><radialGradient id="radial-gradient-17" cx="704.91" cy="274.4" r="22.84" gradientTransform="translate(75.56 -162.73) rotate(14.25)" xlink:href="#radial-gradient-11"/><radialGradient id="radial-gradient-18" cx="704.76" cy="281.41" r="16.79" gradientTransform="translate(75.56 -162.73) rotate(14.25)" xlink:href="#radial-gradient-11"/><radialGradient id="radial-gradient-19" cx="702.6" cy="268.49" r="5.82" gradientTransform="translate(75.56 -162.73) rotate(14.25)" xlink:href="#radial-gradient-11"/><radialGradient id="radial-gradient-20" cx="702.6" cy="268.49" r="5.82" gradientTransform="translate(75.56 -162.73) rotate(14.25)" xlink:href="#radial-gradient-11"/><radialGradient id="radial-gradient-21" cx="416.68" cy="211.12" r="5.82" gradientTransform="translate(1071.51 3.61) rotate(115.49)" xlink:href="#radial-gradient-11"/><radialGradient id="radial-gradient-22" cx="416.68" cy="211.12" r="5.82" gradientTransform="translate(1071.51 3.61) rotate(115.49)" xlink:href="#radial-gradient-11"/><radialGradient id="radial-gradient-23" cx="367.3" cy="516.86" r="5.81" gradientTransform="translate(952.97 872.31) rotate(-169.32)" xlink:href="#radial-gradient-11"/><radialGradient id="radial-gradient-25" cx="468.73" cy="536.57" r="6.97" gradientTransform="matrix(-0.67, -0.74, 1.31, -1.18, 288.85, 1275.22)" xlink:href="#radial-gradient-11"/><radialGradient id="radial-gradient-26" cx="698.17" cy="279.95" r="8.88" gradientTransform="translate(75.56 -162.73) rotate(14.25)" xlink:href="#radial-gradient-11"/><radialGradient id="radial-gradient-27" cx="734.45" cy="421.63" r="4.49" gradientTransform="matrix(0.89, 0.47, -0.82, 1.56, 387.45, -727.26)" xlink:href="#radial-gradient-11"/><radialGradient id="radial-gradient-28" cx="364.36" cy="305.61" r="5.71" gradientTransform="translate(1086.18 547.56) rotate(173.96)" xlink:href="#radial-gradient-11"/><radialGradient id="radial-gradient-29" cx="388.59" cy="485.39" r="5.63" gradientTransform="matrix(-0.91, 0.42, -0.74, -1.6, 1409.76, 907.12)" xlink:href="#radial-gradient-11"/><radialGradient id="radial-gradient-30" cx="714.8" cy="400.63" r="7.17" gradientTransform="translate(-26.36 689.4) rotate(-58.66)" xlink:href="#radial-gradient-11"/><radialGradient id="radial-gradient-31" cx="791.61" cy="615.38" r="4.58" gradientTransform="translate(-322.58 304.69) rotate(-39.54)" xlink:href="#radial-gradient-11"/><radialGradient id="radial-gradient-33" cx="605.67" cy="706.72" r="5.82" gradientTransform="matrix(-0.28, -0.96, 0.96, -0.28, 165.87, 1069.19)" xlink:href="#radial-gradient-11"/><radialGradient id="radial-gradient-34" cx="605.67" cy="706.72" r="5.82" gradientTransform="matrix(-0.28, -0.96, 0.96, -0.28, 165.87, 1069.19)" xlink:href="#radial-gradient-11"/><radialGradient id="radial-gradient-35" cx="649.72" cy="175.91" r="3.29" gradientTransform="matrix(0.72, 0.7, -0.7, 0.72, 353.59, -304.85)" xlink:href="#radial-gradient-11"/><radialGradient id="radial-gradient-36" cx="649.72" cy="175.91" r="3.29" gradientTransform="matrix(0.72, 0.7, -0.7, 0.72, 353.59, -304.85)" xlink:href="#radial-gradient-11"/><radialGradient id="radial-gradient-37" cx="360.64" cy="513.61" r="3.29" gradientTransform="translate(1048.93 812.42) rotate(-179.83)" xlink:href="#radial-gradient-11"/><radialGradient id="radial-gradient-38" cx="360.64" cy="513.61" r="3.29" gradientTransform="translate(1048.93 812.42) rotate(-179.83)" xlink:href="#radial-gradient-11"/><radialGradient id="radial-gradient-39" cx="513.26" cy="693.02" r="3.29" gradientTransform="translate(-106.07 648.62) rotate(-78.59)" xlink:href="#radial-gradient-11"/><radialGradient id="radial-gradient-40" cx="513.26" cy="693.02" r="3.29" gradientTransform="translate(-106.07 648.62) rotate(-78.59)" xlink:href="#radial-gradient-11"/><radialGradient id="radial-gradient-41" cx="168.99" cy="662.07" r="3.29" gradientTransform="translate(528.42 962.4) rotate(-152.61)" xlink:href="#radial-gradient-11"/><radialGradient id="radial-gradient-42" cx="168.99" cy="662.07" r="3.29" gradientTransform="translate(528.42 962.4) rotate(-152.61)" xlink:href="#radial-gradient-11"/><radialGradient id="radial-gradient-43" cx="551.01" cy="151.96" r="2.53" gradientTransform="matrix(0.12, 0.99, -0.99, 0.12, 788.56, -280.97)" xlink:href="#radial-gradient-11"/><radialGradient id="radial-gradient-44" cx="551.01" cy="151.96" r="2.53" gradientTransform="matrix(0.12, 0.99, -0.99, 0.12, 788.56, -280.97)" xlink:href="#radial-gradient-11"/><radialGradient id="radial-gradient-45" cx="418.99" cy="325.68" r="2.53" gradientTransform="translate(1227.48 309.71) rotate(143.84)" xlink:href="#radial-gradient-11"/><radialGradient id="radial-gradient-46" cx="418.99" cy="325.68" r="2.53" gradientTransform="translate(1227.48 309.71) rotate(143.84)" xlink:href="#radial-gradient-11"/><radialGradient id="radial-gradient-47" cx="786.15" cy="765.7" r="1.72" gradientTransform="translate(-34.52 1119.79) rotate(-93.81)" xlink:href="#radial-gradient-11"/><radialGradient id="radial-gradient-49" cx="1043.73" cy="563.72" r="1.72" gradientTransform="matrix(0.95, -0.32, 0.56, 1.65, -617.36, -315.09)" xlink:href="#radial-gradient-11"/><radialGradient id="radial-gradient-50" cx="1043.73" cy="563.72" r="1.72" gradientTransform="matrix(0.95, -0.32, 0.56, 1.65, -617.36, -315.09)" xlink:href="#radial-gradient-11"/><radialGradient id="radial-gradient-51" cx="986.92" cy="445.05" r="1.72" gradientTransform="translate(155.88 -663.89) rotate(35.92)" xlink:href="#radial-gradient-11"/><radialGradient id="radial-gradient-52" cx="986.92" cy="445.05" r="1.72" gradientTransform="translate(155.88 -663.89) rotate(35.92)" xlink:href="#radial-gradient-11"/><radialGradient id="radial-gradient-53" cx="739.6" cy="505.04" r="1.37" gradientTransform="matrix(-0.51, 0.86, -1.41, -0.84, 1787.45, 77.5)" xlink:href="#radial-gradient-11"/><radialGradient id="radial-gradient-55" cx="667.12" cy="489.88" r="3.29" gradientTransform="translate(-127.97 99.92) rotate(-24.29)" xlink:href="#radial-gradient-11"/><radialGradient id="radial-gradient-57" cx="753.82" cy="390" r="7.63" gradientTransform="matrix(0.96, -0.27, 0.22, 0.8, -123.07, 177.34)" xlink:href="#radial-gradient-11"/><radialGradient id="radial-gradient-58" cx="753.82" cy="390" r="7.63" gradientTransform="matrix(0.96, -0.27, 0.22, 0.8, -123.07, 177.34)" xlink:href="#radial-gradient-11"/><radialGradient id="radial-gradient-59" cx="421.56" cy="4.52" r="8.51" gradientTransform="matrix(0.22, 0.98, -0.81, 0.18, 597.12, -127.04)" xlink:href="#radial-gradient-11"/><radialGradient id="radial-gradient-60" cx="423.04" cy="6.88" r="5.14" gradientTransform="matrix(0.22, 0.98, -0.81, 0.18, 597.12, -127.04)" xlink:href="#radial-gradient-11"/><radialGradient id="radial-gradient-61" cx="310.56" cy="10.11" r="4.19" gradientTransform="matrix(-0.13, 0.99, -0.82, -0.11, 728.84, -24.44)" xlink:href="#radial-gradient-11"/><radialGradient id="radial-gradient-62" cx="309.53" cy="-17.1" r="6.09" gradientTransform="matrix(-0.13, 0.99, -0.82, -0.11, 728.84, -24.44)" xlink:href="#radial-gradient-11"/><radialGradient id="radial-gradient-63" cx="310.77" cy="-15.06" r="3.99" gradientTransform="matrix(-0.13, 0.99, -0.82, -0.11, 728.84, -24.44)" xlink:href="#radial-gradient-11"/><radialGradient id="radial-gradient-64" cx="552.51" cy="50.85" r="7.63" gradientTransform="matrix(0.6, 0.8, -0.66, 0.5, 382.84, -176.5)" xlink:href="#radial-gradient-11"/><radialGradient id="radial-gradient-65" cx="552.51" cy="50.85" r="7.63" gradientTransform="matrix(0.6, 0.8, -0.66, 0.5, 382.84, -176.5)" xlink:href="#radial-gradient-11"/><radialGradient id="radial-gradient-66" cx="549.78" cy="50.88" r="7.63" gradientTransform="matrix(0.6, 0.8, -0.66, 0.5, 382.84, -176.5)" xlink:href="#radial-gradient-11"/><radialGradient id="radial-gradient-67" cx="635.15" cy="442.66" r="46.12" gradientTransform="translate(-96.04 234.51) rotate(-33.07)" xlink:href="#radial-gradient-11"/></defs><title>planete_9.module</title><g class="cls-1"><g id="Calque_2" data-name="Calque 2"><g id="BACKGROUND1"><circle class="cls-2" cx="668.61" cy="238.19" r="25.68" transform="translate(-683.13 62.45) rotate(-22.58)"/><circle class="cls-3" cx="668.61" cy="238.19" r="22.41" transform="translate(-684.09 25.73) rotate(-19.61)"/><path class="cls-4" d="M675.64,250.13c-.49.14-.75.2-.39.81a3.56,3.56,0,0,0,2.19,1.13,19.25,19.25,0,0,0,3.14.39l5,.35-.34.38-4.67-.12a19.47,19.47,0,0,1-3.26-.29,7.83,7.83,0,0,1-1.49-.46,2.66,2.66,0,0,1-1.21-.92,1.32,1.32,0,0,1-.15-1.5,1.58,1.58,0,0,1,1-.59c.48-.14.76-.2.76-.2a17.14,17.14,0,0,1,2.79-.29c1.67,0,3.85.05,6-.09,1.23-.06,2.43-.18,3.55-.31l-.27.52c-1,.17-2.13.31-3.23.41-2.2.21-4.42.17-6,.27a16,16,0,0,0-2.65.34S676.08,250,675.64,250.13Zm-12.22-32.94a20,20,0,0,1,4.25,4.06c.65.85,1.25,1.77,2,2.56a6.11,6.11,0,0,0,2.37,1.74,8.53,8.53,0,0,0,2,.48l.76.07a19.48,19.48,0,0,0,2.76,0,23.82,23.82,0,0,0,6-1.07,23.1,23.1,0,0,0,2.54-1v0c-.11-.14-.24-.26-.35-.39a22.38,22.38,0,0,1-2.35.8,23.68,23.68,0,0,1-5.82.86,18.85,18.85,0,0,1-2.66-.1l-.73-.06a7.45,7.45,0,0,1-1.83-.38,5.37,5.37,0,0,1-2.12-1.47c-.68-.72-1.29-1.61-2-2.46a18.33,18.33,0,0,0-4.55-4c-.24-.15-.45-.26-.66-.38l-.38.09C662.82,216.78,663.11,217,663.42,217.19Zm-11.35,26.75.66.11a2.17,2.17,0,0,0,.77-.09,1.07,1.07,0,0,0,.75-.79,1.91,1.91,0,0,0-.17-1.13,8.6,8.6,0,0,0-3.37-3.81c-1.52-1-3.12-1.82-4.19-2.62l-.14-.1c0,.13,0,.25-.06.38,1,.89,2.62,1.8,4,2.84a8,8,0,0,1,3,3.59,1.13,1.13,0,0,1,.11.66c0,.1-.08.13-.2.17a1.68,1.68,0,0,1-.45,0l-.57-.08a6,6,0,0,1-1.48-.41,15.75,15.75,0,0,1-4-2.6l-.43-.36c0,.29,0,.58.08.86a15.46,15.46,0,0,0,4.09,2.84A6.8,6.8,0,0,0,652.07,243.94Zm24.31-26.55c-.5.09-.78.27-.76.32a5.34,5.34,0,0,1,2.36.42,3.42,3.42,0,0,1,1.2,1,1.26,1.26,0,0,1,.14.2h0v0h0s0,0-.14,0a7,7,0,0,1-1.55-.19c-1.11-.24-2.08-.86-2.15-.77a3.87,3.87,0,0,0,2,1.33,6.6,6.6,0,0,0,1.68.41,3.41,3.41,0,0,0,.5,0h1l-.2-.45a3.52,3.52,0,0,0-.19-.38c-.06-.11-.13-.25-.22-.4a22.52,22.52,0,0,0-3.27-1.61A2.42,2.42,0,0,0,676.38,217.39ZM674.5,259.8a18.87,18.87,0,0,1-3.86-3.19,28.26,28.26,0,0,0-4.2-3.7,15.5,15.5,0,0,0-2.24-1.29,14.91,14.91,0,0,0-2.42-.87,17.13,17.13,0,0,0-5.6-.62c-2,.11-4,.38-5.51.28l-.89-.08.21.3c.21,0,.41.09.65.12a41.24,41.24,0,0,0,5.56,0,16.87,16.87,0,0,1,5.35.78,14.64,14.64,0,0,1,2.29.89,15.29,15.29,0,0,1,2.16,1.16,28.41,28.41,0,0,1,4.21,3.49,20.1,20.1,0,0,0,3.74,2.87Zm-16.9-6.6a1.3,1.3,0,0,0-.61-.1,4.35,4.35,0,0,0-1.63.25c-.2.1-1.05.26-.72.88a2,2,0,0,0,1.1.8l2.39,1,4.48,1.93a15,15,0,0,0,1.54.6c.39.12.63.17.63.17a4.31,4.31,0,0,0,1.32.06,2.71,2.71,0,0,0,.62-.14,1.06,1.06,0,0,0,.77-.72.94.94,0,0,0-.19-.77,2.08,2.08,0,0,0-.56-.48,12.78,12.78,0,0,0-1.4-.87,14,14,0,0,0-3.79-1.38,13.18,13.18,0,0,0-3.62-.25,4.92,4.92,0,0,0-1.54.28,19.83,19.83,0,0,1,5,.49,13.87,13.87,0,0,1,3.55,1.48c1,.55,1.92,1.38,1.7,1.3a1.3,1.3,0,0,1-.68.21,2.69,2.69,0,0,1-.64,0l-.41-.06a11.38,11.38,0,0,1-2-.66l-4.56-1.76-2.44-.93c-.2-.08-.39-.14-.54-.22a1,1,0,0,1-.33-.25c-.15-.24.13-.28.44-.45A7.67,7.67,0,0,1,657.6,253.2Zm-9-9a17.66,17.66,0,0,0,8.78,1.87,3.72,3.72,0,0,0,1.77-.49,2.33,2.33,0,0,0,1-1.18,2.85,2.85,0,0,0,.18-.94,2.73,2.73,0,0,0,0-.33s0-.12,0-.33a3.31,3.31,0,0,0-.29-.89,6.69,6.69,0,0,0-2.07-2.29,78.93,78.93,0,0,0-7.5-4.84,39.25,39.25,0,0,1-3.39-2.28c-.05.18-.1.35-.14.53,1,.79,2.08,1.56,3.2,2.27a81.52,81.52,0,0,1,7.33,4.95,5.82,5.82,0,0,1,1.8,2,2.11,2.11,0,0,1,.24.91,2,2,0,0,1-.11.92c-.15.55-.81,1.1-2,1.17a17.2,17.2,0,0,1-8.45-1.63,13.45,13.45,0,0,1-2.27-1.32c0,.27.13.53.19.8A13.47,13.47,0,0,0,648.58,244.18ZM669.11,216a1.53,1.53,0,0,1,.15-.23c.41,0,.82,0,1.22.07l-.26.16a1,1,0,0,0-.33.34c0,.11-.07.18.05.44a8.47,8.47,0,0,0,.5.87,9.22,9.22,0,0,0,9.69,3.91,21.5,21.5,0,0,0,2.46-.8l0,0,.08-.07,0,0,.15.11,0,.05a.73.73,0,0,1-.58.2l-.19.11a8.85,8.85,0,0,1-1.77.72,9.51,9.51,0,0,1-5.79-.22,9.89,9.89,0,0,1-4.65-3.57c-.23-.34-.42-.65-.59-1A1.28,1.28,0,0,1,669.11,216Zm13.35,4.87-.05,0Zm.35,6.33c-.65,0-1.31,0-2,0a2.8,2.8,0,0,0-2.57,4.19,5.56,5.56,0,0,0,1.43,2.09,5.7,5.7,0,0,0,.76.59,8.5,8.5,0,0,0,3.19,1.15,31.19,31.19,0,0,0,7.18.24l-.09-.62a31.59,31.59,0,0,1-6.94-.4,7.78,7.78,0,0,1-2.87-1.1,4.71,4.71,0,0,1-.66-.5,4.6,4.6,0,0,1-1.25-1.73,2.54,2.54,0,0,1,.34-2.7c.74-.66,2.19-.57,3.44-.63a45.64,45.64,0,0,0,5.58-.18l-.24-.4C686.55,227.39,684.69,227.29,682.81,227.24Zm2.75,3.08,2.21-.2,1.68-.17-.22-.49-1.5,0-2.23.09a5.37,5.37,0,0,0-1.09.11,1.13,1.13,0,0,0-.87,1,1.49,1.49,0,0,0,1,1.47,2.11,2.11,0,0,0,.62.14,4.27,4.27,0,0,0,.57,0l1.38-.09c.85-.06,1.92-.15,3-.26-.06-.22-.15-.44-.22-.66-1,.06-2,.1-2.85.12l-1.36,0a2.32,2.32,0,0,1-.47,0s-.84,0-.9-.67c0-.12.06-.22.3-.3A4.33,4.33,0,0,1,685.56,230.32ZM684.37,246c-3.35.42-6.7,0-9.28,0a18.89,18.89,0,0,0-3.13.19,7.25,7.25,0,0,0-1.2.29,5.11,5.11,0,0,0-1.14.54,4,4,0,0,0-1.84,2.78,3,3,0,0,0,.64,2.2,5.48,5.48,0,0,0,1.93,1.49,29.54,29.54,0,0,0,4.8,1.54,57.31,57.31,0,0,0,6.73,1.22c.16-.12.33-.23.48-.36a58.8,58.8,0,0,1-7.05-1.46,27.77,27.77,0,0,1-4.64-1.59,4.62,4.62,0,0,1-1.64-1.3,2.26,2.26,0,0,1-.46-1.65,3.1,3.1,0,0,1,1.5-2.14,4.06,4.06,0,0,1,1-.45,7.55,7.55,0,0,1,1.06-.28,18.41,18.41,0,0,1,3-.22c2.5,0,5.95.36,9.35-.15a31.35,31.35,0,0,0,5.36-1.2c.06-.19.14-.37.2-.55A31.52,31.52,0,0,1,684.37,246Zm-25.85-20.8a3.34,3.34,0,0,0,1.24-.17,2.09,2.09,0,0,0,.44-.2,1.53,1.53,0,0,0,.42-.33A1.63,1.63,0,0,0,661,224a1.13,1.13,0,0,0-.05-1,1.92,1.92,0,0,0-.69-.61l-.73-.42c-.51-.28-1.07-.55-1.63-.8a17.28,17.28,0,0,0-2.63-1c-.12.1-.26.18-.38.28a23.8,23.8,0,0,1,2.74,1.22c.54.28,1.06.58,1.54.87a4.46,4.46,0,0,1,1.08.8c.08.13-.06.37-.21.5a1.06,1.06,0,0,1-.25.18,2.21,2.21,0,0,1-1.24.32,8.75,8.75,0,0,1-3.09-.81c-1-.38-2-.82-2.74-1.18-.09.09-.16.19-.25.28a28.42,28.42,0,0,0,2.75,1.47A9,9,0,0,0,658.52,225.2Zm1.16-5.69c1.77,1.14,3.5,2.34,4.78,3.27.7.46.87.8.83,1.15a1.26,1.26,0,0,1-.16.51,1.43,1.43,0,0,1-.34.46,3.28,3.28,0,0,1-1.54.66,37.3,37.3,0,0,1-5.7.68,13.66,13.66,0,0,1-5.59-1,9.68,9.68,0,0,1-1.21-.61l-.13.18a7.88,7.88,0,0,0,1.2.73,13.32,13.32,0,0,0,5.73,1.27,35.88,35.88,0,0,0,5.85-.52,3.9,3.9,0,0,0,2-.81,2.22,2.22,0,0,0,.55-.69,1.88,1.88,0,0,0,.24-.87,1.75,1.75,0,0,0-.3-1.05,3.26,3.26,0,0,0-.92-.79c-1.32-.9-3.1-2.06-4.92-3.15l-1.41-.82-.57.29C658.57,218.79,659.12,219.14,659.68,219.51ZM657.6,236c2.13,1.91,3.8,4.3,5.65,5.64a8.52,8.52,0,0,0,2.43,1.27,7.16,7.16,0,0,0,1,.27,18.91,18.91,0,0,0,3.68.31c2.17,0,5.07,0,8-.23s5.78-.44,7.93-.72c1.08-.14,2-.27,2.6-.37a5.09,5.09,0,0,0,1-.21,4.27,4.27,0,0,0-1,0l-2.61.22c-2.16.17-5,.36-7.92.44s-5.77.09-7.93,0a17.28,17.28,0,0,1-3.51-.36,6.81,6.81,0,0,1-.92-.23,8,8,0,0,1-2.22-1.1c-1.72-1.18-3.48-3.55-5.7-5.45a36.43,36.43,0,0,0-6.53-4.6c-1-.52-1.78-.91-2.36-1.17a4.34,4.34,0,0,0-.94-.34,5.38,5.38,0,0,0,.86.5c.56.31,1.35.74,2.27,1.3A39.84,39.84,0,0,1,657.6,236ZM652,228.8a17.69,17.69,0,0,0,8.34,1.53c1.56-.1,3.07-.37,4.49-.51a13.69,13.69,0,0,1,3.82.07,10.92,10.92,0,0,1,2.55.79,9.32,9.32,0,0,1,.9.46,10.09,10.09,0,0,1,.87.53,10.85,10.85,0,0,1,2,1.75c.76.81,1.4,2,2.31,3.15a6.89,6.89,0,0,0,3.89,2.53,15.18,15.18,0,0,0,4.57.3,38.77,38.77,0,0,0,3.92-.45c.5-.09,1-.17,1.36-.26,0-.09,0-.18,0-.28-.43.07-.9.14-1.41.2-1.14.14-2.48.26-3.91.3a14.51,14.51,0,0,1-4.38-.41,6.21,6.21,0,0,1-3.48-2.37c-.83-1.12-1.47-2.34-2.28-3.24a11.06,11.06,0,0,0-2.14-1.92,10.61,10.61,0,0,0-.92-.59,10.15,10.15,0,0,0-1-.47,11,11,0,0,0-2.76-.81,14.31,14.31,0,0,0-4,0c-1.45.17-3,.47-4.46.61a18,18,0,0,1-8.16-1.24A19.69,19.69,0,0,1,649.2,227l-.07.11.39.28A14.94,14.94,0,0,0,652,228.8Zm19.36,7.71c-.54-.18-.74-.23-1-.3-.49-.13-.83-.2-.85-.14s.27.23.73.46a6.38,6.38,0,0,1,.61.31c.19,0,0,.21-.1.22a1.84,1.84,0,0,1-.72.06,3.88,3.88,0,0,1-.76-.17c-.42-.15-.75-.34-.74-.32l-.78-.29a.66.66,0,0,0-.17-.06h-.09c-.05,0-.3-.05-.19-.09a.57.57,0,0,1,.26-.12,3.54,3.54,0,0,1,.75,0c.49,0,.82.08.84,0s-.28-.24-.8-.36a3.21,3.21,0,0,0-1-.09,5.33,5.33,0,0,0-1.45.29c-.87.14,0,.38.19.59l1.32.6.78.37.22.08a3.93,3.93,0,0,0,.61.2,4.3,4.3,0,0,0,.94.12,2.08,2.08,0,0,0,1.2-.32,1.35,1.35,0,0,0,.44-.59C671.8,236.67,671.49,236.61,671.32,236.51Zm4.64.23a1.7,1.7,0,0,1-.47,2.09,3.83,3.83,0,0,1-1.74.73c-.56.09-1.09.16-1.58.19a12.82,12.82,0,0,1-2.38-.09,8.17,8.17,0,0,1-.89-.15,12.77,12.77,0,0,1-3.08-1.1,13.18,13.18,0,0,1-2.77-1.88,14.2,14.2,0,0,1-1.32-1.36l-.58-.78a1.36,1.36,0,0,1-.29-1.15,1.09,1.09,0,0,1,1-.71,3,3,0,0,1,1,.12l1.48.4a3.38,3.38,0,0,1,.87,0c.55.07,1.34.19,2.28.39a35.93,35.93,0,0,1,6.7,2.11A3.5,3.5,0,0,1,676,236.74Zm-.58.33c-.21-.39-.83-.64-1.4-.91a39.63,39.63,0,0,0-6.53-2.34c-.94-.25-1.72-.43-2.27-.55l2.63.72,2.22.65a3.12,3.12,0,0,1,.82.3,4.09,4.09,0,0,1-.86-.13l-2.26-.49-3.18-.72-1.79-.42c-.53-.15-1.27-.1-1.31.23s.44.87.8,1.33a12.34,12.34,0,0,0,1.27,1.24,12.41,12.41,0,0,0,5.56,2.68,7.25,7.25,0,0,0,.83.15,11.27,11.27,0,0,0,2.22.14,5.7,5.7,0,0,0,2.9-.67A1,1,0,0,0,675.38,237.07Z" transform="translate(-642.93 -212.51)"/><path class="cls-5" d="M671.57,224a22.29,22.29,0,0,0-10-7,22.37,22.37,0,0,0-.3,42.38A22.36,22.36,0,0,0,671.57,224Z" transform="translate(-642.93 -212.51)"/><path class="cls-6" d="M681.62,224.59a21.62,21.62,0,0,1-11.82,34.72,21.66,21.66,0,1,0-6.67-42.66A21.66,21.66,0,0,1,681.62,224.59Z" transform="translate(-642.93 -212.51)"/><path class="cls-7" d="M660.34,219.9a20.37,20.37,0,0,0-12.23,16.15c-1.5,12.18,8.85,19.69,13.32,18.95s5.05-10.87-.2-16.28,4.82-11,4.34-15.55S661.93,219.47,660.34,219.9Z" transform="translate(-642.93 -212.51)"/><g class="cls-8"><path class="cls-9" d="M674.4,221.73c1.25-.34,8.74-1.32,12.81,9.52s-4.5,20.77-9,21S672,247.81,674.3,242s-3.65-11.28-3-15.41S673.1,222.07,674.4,221.73Z" transform="translate(-642.93 -212.51)"/><path class="cls-10" d="M684.57,234.4c-1.25.55-3.09-.89-4.1-3.21s-.81-4.64.44-5.19,3.09.89,4.1,3.21S685.83,233.86,684.57,234.4Z" transform="translate(-642.93 -212.51)"/><ellipse class="cls-11" cx="685.55" cy="238.35" rx="2.53" ry="1.37" transform="translate(-206.95 707.39) rotate(-89.06)"/></g><circle class="cls-12" cx="688.05" cy="284.19" r="14.8" transform="translate(-693.19 -23.57) rotate(-15.09)"/><path class="cls-14" d="M678.55,280a5.38,5.38,0,0,1,.9-3.76,9.83,9.83,0,0,1,6-3.82c7.19-1.92,13,4.19,12.9,7.11s-3.26,3.68-6.81,1.83-7.45,1.62-10.06,1a4.12,4.12,0,0,1-2.57-1.57A2.32,2.32,0,0,1,678.55,280Z" transform="translate(-642.93 -212.51)"/><g class="cls-15"><path class="cls-16" d="M681.88,276.15a25.83,25.83,0,0,1,0-2.92,12.56,12.56,0,0,0-6,13.83,12.89,12.89,0,0,1,.39-3.3A12.47,12.47,0,0,1,681.88,276.15Z" transform="translate(-642.93 -212.51)"/><path class="cls-17" d="M697.25,275.58a12.53,12.53,0,0,0-14.63-2.76,25.68,25.68,0,0,0,0,2.91,12.52,12.52,0,0,1,8.88-1,12.65,12.65,0,0,1,5.54,3.05A14.36,14.36,0,0,0,697.25,275.58Z" transform="translate(-642.93 -212.51)"/><path class="cls-18" d="M699.46,280.93a10.52,10.52,0,0,0,.27-1.38,12.26,12.26,0,0,0-1.94-3.34,13.88,13.88,0,0,1-.28,2A12.59,12.59,0,0,1,699.46,280.93Z" transform="translate(-642.93 -212.51)"/><path class="cls-19" d="M699.84,281.69a12.86,12.86,0,0,1,.75,2.19,12,12,0,0,0-.48-3.23C700,281,699.94,281.34,699.84,281.69Z" transform="translate(-642.93 -212.51)"/></g><path class="cls-20" d="M699,277.23a10.41,10.41,0,0,1-.26,3.75,10.61,10.61,0,0,1-20.57-5.23s0,0,0-.06A13,13,0,1,0,699,277.23Z" transform="translate(-642.93 -212.51)"/><path class="cls-21" d="M700.52,285.35v0a12.57,12.57,0,0,1-24.69-4.64,12.58,12.58,0,1,0,24.4,6.13A13.94,13.94,0,0,0,700.52,285.35Z" transform="translate(-642.93 -212.51)"/><path class="cls-22" d="M694.49,274.37c-.2.79-1.72,1.09-3.38.67s-2.86-1.41-2.66-2.2,1.72-1.1,3.39-.67S694.69,273.58,694.49,274.37Z" transform="translate(-642.93 -212.51)"/><path class="cls-23" d="M688.57,273.49a4.13,4.13,0,0,0,2.54,1.55,3.75,3.75,0,0,0,3.14-.28,4.13,4.13,0,0,0-2.54-1.54A3.75,3.75,0,0,0,688.57,273.49Z" transform="translate(-642.93 -212.51)"/><path class="cls-24" d="M696.92,292c-.74-.36-.73-1.9,0-3.45s1.94-2.53,2.67-2.18.74,1.9,0,3.45S697.66,292.38,696.92,292Z" transform="translate(-642.93 -212.51)"/><path class="cls-25" d="M698.93,286.39a4.14,4.14,0,0,0-2,2.19,3.68,3.68,0,0,0-.34,3.13,4.14,4.14,0,0,0,2-2.19A3.68,3.68,0,0,0,698.93,286.39Z" transform="translate(-642.93 -212.51)"/><path class="cls-26" d="M683.56,292.58c.15-.81,1.65-1.2,3.34-.88s2.94,1.23,2.78,2-1.64,1.2-3.33.88S683.41,293.38,683.56,292.58Z" transform="translate(-642.93 -212.51)"/><path class="cls-26" d="M689.53,293.08a4.17,4.17,0,0,0-2.63-1.38,3.74,3.74,0,0,0-3.12.47,4.12,4.12,0,0,0,2.63,1.38A3.75,3.75,0,0,0,689.53,293.08Z" transform="translate(-642.93 -212.51)"/><path class="cls-27" d="M680.9,283.9a3.48,3.48,0,0,1,4.83.67c1.38,1.54,1.46,3.72.17,4.88s-3.45.85-4.83-.68S679.61,285.05,680.9,283.9Z" transform="translate(-642.93 -212.51)"/><path class="cls-28" d="M685.73,284.57a2.79,2.79,0,1,0,.51,4.5A3.6,3.6,0,0,0,685.73,284.57Z" transform="translate(-642.93 -212.51)"/><path class="cls-29" d="M692.37,279.38a2.44,2.44,0,1,1-1.19-2.91A2.25,2.25,0,0,1,692.37,279.38Z" transform="translate(-642.93 -212.51)"/><path class="cls-30" d="M689.3,280.05a1.8,1.8,0,1,0-1.31-2.61A2.33,2.33,0,0,0,689.3,280.05Z" transform="translate(-642.93 -212.51)"/><path class="cls-31" d="M689.69,290a3.06,3.06,0,1,1,3.8,1A2.81,2.81,0,0,1,689.69,290Z" transform="translate(-642.93 -212.51)"/><path class="cls-32" d="M691.36,286.39a2.25,2.25,0,1,0,3.59.68A2.91,2.91,0,0,0,691.36,286.39Z" transform="translate(-642.93 -212.51)"/><path class="cls-33" d="M684.07,274.61c.41.49-.1,1.6-1.15,2.46s-2.23,1.16-2.64.66.11-1.6,1.15-2.46S683.66,274.11,684.07,274.61Z" transform="translate(-642.93 -212.51)"/><path class="cls-33" d="M680.76,278a3.27,3.27,0,0,0,2.16-.89,3,3,0,0,0,1.29-2.13,3.29,3.29,0,0,0-2.17.9A2.91,2.91,0,0,0,680.76,278Z" transform="translate(-642.93 -212.51)"/><path class="cls-34" d="M676.18,284.43c.78-.22,1.81.93,2.29,2.58s.23,3.18-.55,3.41-1.81-.93-2.29-2.58S675.39,284.66,676.18,284.43Z" transform="translate(-642.93 -212.51)"/><path class="cls-35" d="M678.43,290a4.2,4.2,0,0,0,0-3,3.73,3.73,0,0,0-1.83-2.56,4.11,4.11,0,0,0,0,3A3.76,3.76,0,0,0,678.43,290Z" transform="translate(-642.93 -212.51)"/><path class="cls-36" d="M697.67,277.3c-.32.33-1.15.05-1.85-.63s-1-1.5-.68-1.83,1.15,0,1.85.63S698,277,697.67,277.3Z" transform="translate(-642.93 -212.51)"/><path class="cls-37" d="M695,275.2a2.38,2.38,0,0,0,.81,1.47,2.12,2.12,0,0,0,1.62.75,2.31,2.31,0,0,0-.81-1.47A2.09,2.09,0,0,0,695,275.2Z" transform="translate(-642.93 -212.51)"/><path class="cls-38" d="M687.07,296.1c0-.46.79-.83,1.77-.83s1.76.38,1.76.85-.8.83-1.77.83S687.07,296.57,687.07,296.1Z" transform="translate(-642.93 -212.51)"/><path class="cls-39" d="M690.44,295.77a2.34,2.34,0,0,0-1.6-.5,2.12,2.12,0,0,0-1.69.59,2.33,2.33,0,0,0,1.6.49A2.08,2.08,0,0,0,690.44,295.77Z" transform="translate(-642.93 -212.51)"/><path class="cls-40" d="M676.88,280.21c.46.09.67.94.48,1.89s-.72,1.66-1.17,1.57-.67-.94-.48-1.9S676.43,280.12,676.88,280.21Z" transform="translate(-642.93 -212.51)"/><path class="cls-41" d="M676.56,283.58a2.43,2.43,0,0,0,.8-1.48,2.12,2.12,0,0,0-.25-1.76,2.31,2.31,0,0,0-.8,1.47A2.07,2.07,0,0,0,676.56,283.58Z" transform="translate(-642.93 -212.51)"/><path class="cls-42" d="M681.21,294.1c.21-.41,1.09-.38,1.95.07s1.4,1.14,1.18,1.55-1.08.38-2-.06S681,294.51,681.21,294.1Z" transform="translate(-642.93 -212.51)"/><path class="cls-43" d="M684.36,295.34a2.33,2.33,0,0,0-1.2-1.17,2.1,2.1,0,0,0-1.77-.25,2.41,2.41,0,0,0,1.2,1.17A2.11,2.11,0,0,0,684.36,295.34Z" transform="translate(-642.93 -212.51)"/><path class="cls-44" d="M700.38,286.19c-.35,0-.7-.53-.79-1.27s.13-1.38.48-1.42.71.53.8,1.27S700.74,286.15,700.38,286.19Z" transform="translate(-642.93 -212.51)"/><path class="cls-45" d="M699.82,283.65a1.86,1.86,0,0,0-.23,1.27,1.63,1.63,0,0,0,.6,1.23,1.81,1.81,0,0,0,.23-1.27A1.63,1.63,0,0,0,699.82,283.65Z" transform="translate(-642.93 -212.51)"/><path class="cls-46" d="M694.55,294.26c-.21-.29.11-.88.71-1.32s1.26-.57,1.47-.28-.11.88-.71,1.32S694.76,294.54,694.55,294.26Z" transform="translate(-642.93 -212.51)"/><path class="cls-47" d="M696.48,292.52a1.74,1.74,0,0,0-1.22.42,1.59,1.59,0,0,0-.77,1.13,1.79,1.79,0,0,0,1.21-.43A1.6,1.6,0,0,0,696.48,292.52Z" transform="translate(-642.93 -212.51)"/><path class="cls-48" d="M678.05,283c.24,0,.46.38.5.89s-.14.93-.38.95-.46-.38-.5-.89S677.81,283,678.05,283Z" transform="translate(-642.93 -212.51)"/><path class="cls-48" d="M678.35,284.77a1.29,1.29,0,0,0,.2-.86,1.12,1.12,0,0,0-.37-.86,1.27,1.27,0,0,0-.2.86A1.12,1.12,0,0,0,678.35,284.77Z" transform="translate(-642.93 -212.51)"/><path class="cls-49" d="M687.33,278.12a.94.94,0,1,1-1.12-.42A.85.85,0,0,1,687.33,278.12Z" transform="translate(-642.93 -212.51)"/><path class="cls-50" d="M685.76,279a.93.93,0,0,0,.94.16.92.92,0,0,0,.66-.79,1,1,0,0,0-.94-.16A.93.93,0,0,0,685.76,279Z" transform="translate(-642.93 -212.51)"/><path class="cls-51" d="M694.66,277.06c-.14.2-.59.12-1-.18s-.63-.7-.49-.9.6-.11,1,.19S694.8,276.87,694.66,277.06Z" transform="translate(-642.93 -212.51)"/><path class="cls-52" d="M693.12,276.18a1.28,1.28,0,0,0,.53.7,1.16,1.16,0,0,0,.9.27,1.26,1.26,0,0,0-.53-.71A1.11,1.11,0,0,0,693.12,276.18Z" transform="translate(-642.93 -212.51)"/><path class="cls-53" d="M696.14,287.73a.66.66,0,0,1-.11-.92.59.59,0,1,1,1,.59A.66.66,0,0,1,696.14,287.73Z" transform="translate(-642.93 -212.51)"/><path class="cls-53" d="M696.66,286.41a.78.78,0,0,0-.63.4.72.72,0,0,0,0,.81.8.8,0,0,0,.63-.4A.74.74,0,0,0,696.66,286.41Z" transform="translate(-642.93 -212.51)"/><path class="cls-54" d="M684.84,272.33c.19.42-.37,1.09-1.26,1.49s-1.76.38-2,0,.37-1.09,1.26-1.49S684.65,271.91,684.84,272.33Z" transform="translate(-642.93 -212.51)"/><path class="cls-54" d="M681.91,274a2.32,2.32,0,0,0,1.67-.21,2.1,2.1,0,0,0,1.29-1.23,2.35,2.35,0,0,0-1.66.21A2.18,2.18,0,0,0,681.91,274Z" transform="translate(-642.93 -212.51)"/><path class="cls-55" d="M692.1,293.76c0,.2-.19.44-.54.54s-.68,0-.73-.18.18-.44.54-.54S692,293.57,692.1,293.76Z" transform="translate(-642.93 -212.51)"/><path class="cls-56" d="M693,292.91c0,.12-.11.27-.32.33s-.42,0-.45-.11.11-.27.33-.33S692.94,292.79,693,292.91Z" transform="translate(-642.93 -212.51)"/><path class="cls-57" d="M679.31,287.64c-.22.05-.47-.23-.56-.63s0-.75.25-.8.47.23.56.62S679.54,287.59,679.31,287.64Z" transform="translate(-642.93 -212.51)"/><path class="cls-58" d="M679.79,288.61c-.14,0-.29-.14-.34-.38s0-.45.15-.48.29.14.34.38S679.93,288.58,679.79,288.61Z" transform="translate(-642.93 -212.51)"/><path class="cls-59" d="M677.7,282.63c-.11,0-.18-.19-.16-.38s.14-.35.25-.34.19.19.16.39S677.81,282.65,677.7,282.63Z" transform="translate(-642.93 -212.51)"/><path class="cls-60" d="M699,284.59c-.16,0-.26-.27-.23-.56s.2-.5.37-.48.26.27.22.56S699.14,284.62,699,284.59Z" transform="translate(-642.93 -212.51)"/><path class="cls-61" d="M698.55,285.52c-.11,0-.18-.18-.15-.36s.13-.34.24-.32.17.18.15.37S698.66,285.54,698.55,285.52Z" transform="translate(-642.93 -212.51)"/><path class="cls-62" d="M680,292.77c-.16.13-.47,0-.69-.3s-.27-.62-.1-.75.47,0,.69.3S680.21,292.65,680,292.77Z" transform="translate(-642.93 -212.51)"/><path class="cls-63" d="M681.16,293.27c-.1.07-.29,0-.42-.18s-.17-.38-.07-.46.29,0,.43.18S681.26,293.19,681.16,293.27Z" transform="translate(-642.93 -212.51)"/><path class="cls-64" d="M679.49,291.11c-.1.08-.29,0-.42-.18s-.17-.38-.07-.46.29,0,.43.18S679.59,291,679.49,291.11Z" transform="translate(-642.93 -212.51)"/><path class="cls-65" d="M685.61,273.11c0-.21.25-.4.62-.44s.67.1.69.31-.26.4-.62.43S685.63,273.31,685.61,273.11ZM685,274c.22,0,.39-.14.38-.26s-.2-.21-.42-.19-.39.14-.38.27S684.8,274,685,274Zm2.71-.29c.22,0,.39-.14.38-.26s-.2-.21-.42-.19-.39.14-.38.27S687.51,273.72,687.73,273.69Zm8.15,4.41c.1-.17.44-.16.75,0s.48.48.38.66-.45.17-.76,0S695.77,278.28,695.88,278.1Zm1.36,1.74c.19.11.4.12.46,0s0-.29-.23-.4-.39-.12-.46,0S697.05,279.73,697.24,279.84Z" transform="translate(-642.93 -212.51)"/></g></g></g></svg>