<svg xmlns="http://www.w3.org/2000/svg" xmlns:xlink="http://www.w3.org/1999/xlink" width="896.186" height="540.321" viewBox="0 0 896.186 540.321"><defs><style>.a{fill:url(#a);}.b{fill:url(#b);}.c{fill:url(#c);}.d{opacity:0.7;}.e{fill:url(#d);}.f{fill:url(#e);}.g{fill:url(#f);}.h{fill:url(#g);}.aa,.ab,.ac,.ad,.ae,.af,.ag,.ah,.ai,.aj,.ak,.al,.am,.an,.ao,.ap,.aq,.ar,.as,.at,.au,.av,.aw,.ax,.ay,.az,.ba,.bb,.bc,.bd,.be,.bf,.i,.j,.k,.l,.m,.n,.o,.p,.q,.r,.s,.t,.u,.v,.w,.x,.y,.z{opacity:0.5;}.i{fill:url(#h);}.j{fill:url(#i);}.k{fill:url(#j);}.l{fill:url(#k);}.m{fill:url(#l);}.n{fill:url(#m);}.o{fill:url(#n);}.p{fill:url(#o);}.q{fill:url(#p);}.r{fill:url(#q);}.s{fill:url(#r);}.t{fill:url(#s);}.u{fill:url(#t);}.v{fill:url(#u);}.w{fill:url(#v);}.x{fill:url(#w);}.y{fill:url(#x);}.z{fill:url(#y);}.aa{fill:url(#z);}.ab{fill:url(#aa);}.ac{fill:url(#ab);}.ad{fill:url(#ac);}.ae{fill:url(#ad);}.af{fill:url(#ae);}.ag{fill:url(#af);}.ah{fill:url(#ag);}.ai{fill:url(#ah);}.aj{fill:url(#ai);}.ak{fill:url(#aj);}.al{fill:url(#ak);}.am{fill:url(#al);}.an{fill:url(#am);}.ao{fill:url(#an);}.ap{fill:url(#ao);}.aq{fill:url(#ap);}.ar{fill:url(#aq);}.as{fill:url(#ar);}.at{fill:url(#as);}.au{fill:url(#at);}.av{fill:url(#au);}.aw{fill:url(#av);}.ax{fill:url(#aw);}.ay{fill:url(#ax);}.az{fill:url(#ay);}.ba{fill:url(#az);}.bb{fill:url(#ba);}.bc{fill:url(#bb);}.bd{fill:url(#bc);}.be{fill:url(#bd);}.bf{fill:url(#be);}.bg{opacity:0.35;}.bh{fill:url(#bf);}.bi{fill:url(#bg);}</style><radialGradient id="a" cx="0.495" cy="0.498" r="0.506" gradientUnits="objectBoundingBox"><stop offset="0" stop-color="#f20074"/><stop offset="0.38" stop-color="#f10174" stop-opacity="0.988"/><stop offset="0.51" stop-color="#ed0376" stop-opacity="0.961"/><stop offset="0.61" stop-color="#e70679" stop-opacity="0.922"/><stop offset="0.69" stop-color="#df0b7d" stop-opacity="0.851"/><stop offset="0.75" stop-color="#d31182" stop-opacity="0.749"/><stop offset="0.81" stop-color="#c51988" stop-opacity="0.639"/><stop offset="0.87" stop-color="#b42290" stop-opacity="0.51"/><stop offset="0.92" stop-color="#a02d98" stop-opacity="0.349"/><stop offset="0.96" stop-color="#8b39a2" stop-opacity="0.18"/><stop offset="1" stop-color="#7446ac" stop-opacity="0"/></radialGradient><radialGradient id="b" cx="0.548" cy="0.062" r="0.984" gradientUnits="objectBoundingBox"><stop offset="0" stop-color="#f20074"/><stop offset="0.14" stop-color="#ed0376"/><stop offset="0.31" stop-color="#df0b7d"/><stop offset="0.49" stop-color="#c71887"/><stop offset="0.67" stop-color="#a62a96"/><stop offset="0.87" stop-color="#7b42a9"/><stop offset="0.9" stop-color="#7446ac"/></radialGradient><radialGradient id="c" cx="0.213" cy="-1.28" r="2.817" gradientTransform="matrix(0.591, 0.26, -0.14, 0.848, -0.367, 0.159)" gradientUnits="objectBoundingBox"><stop offset="0.05" stop-color="#e0a326"/><stop offset="0.41" stop-color="#e0a227" stop-opacity="0.988"/><stop offset="0.55" stop-color="#df9e2b" stop-opacity="0.961"/><stop offset="0.64" stop-color="#de9833" stop-opacity="0.91"/><stop offset="0.71" stop-color="#dd8f3e" stop-opacity="0.831"/><stop offset="0.78" stop-color="#db844c" stop-opacity="0.729"/><stop offset="0.84" stop-color="#d8755d" stop-opacity="0.612"/><stop offset="0.89" stop-color="#d56471" stop-opacity="0.471"/><stop offset="0.93" stop-color="#d25089" stop-opacity="0.302"/><stop offset="0.98" stop-color="#ce3ba3" stop-opacity="0.122"/><stop offset="1" stop-color="#cc2db4" stop-opacity="0"/></radialGradient><radialGradient id="d" cx="2.942" cy="-0.16" r="1.306" gradientTransform="translate(-6.602) scale(3.244 1)" xlink:href="#c"/><radialGradient id="e" cx="0.593" cy="0.199" r="3.375" gradientTransform="translate(0.369) scale(0.379 1)" xlink:href="#c"/><radialGradient id="f" cx="-2.351" cy="-0.321" r="4.661" gradientTransform="translate(1.173) scale(1.499 1)" xlink:href="#c"/><radialGradient id="g" cx="-7.73" cy="-1.681" r="6.439" gradientTransform="translate(10.537) scale(2.363 1)" xlink:href="#c"/><radialGradient id="h" cx="0.548" cy="0.062" r="1.015" gradientTransform="translate(0.068) scale(0.864 1)" xlink:href="#b"/><radialGradient id="i" cx="0.548" cy="0.062" r="1.155" gradientTransform="translate(0.211) scale(0.578 1)" xlink:href="#b"/><radialGradient id="j" cx="0.214" cy="-0.466" r="1.965" gradientTransform="translate(0.263) scale(0.475 1)" xlink:href="#b"/><radialGradient id="k" cx="0.181" cy="-1.273" r="3.046" gradientTransform="translate(0.336) scale(0.328 1)" xlink:href="#b"/><radialGradient id="l" cx="0.786" cy="1.465" r="1.965" gradientTransform="translate(-24.634 -59.477) rotate(180) scale(0.475 1)" xlink:href="#b"/><radialGradient id="m" cx="2.259" cy="0.298" r="1.014" gradientTransform="matrix(-0.534, 0.981, -2.688, -0.195, -117.949, 31.438)" xlink:href="#b"/><radialGradient id="n" cx="0.786" cy="1.466" r="1.965" gradientTransform="translate(-36.333 -6.367) rotate(180) scale(0.475 1)" xlink:href="#b"/><radialGradient id="o" cx="0.855" cy="2.179" r="2.992" gradientTransform="matrix(-0.335, 0.062, -0.021, -0.998, -35.492, -8.027)" xlink:href="#b"/><radialGradient id="p" cx="-0.438" cy="0.786" r="0.933" gradientTransform="translate(-29.799 -16.67) rotate(-90) scale(1 2.108)" xlink:href="#b"/><radialGradient id="q" cx="0.214" cy="-0.465" r="1.521" gradientTransform="translate(0.056) scale(0.888 1)" xlink:href="#b"/><radialGradient id="r" cx="1.438" cy="0.212" r="0.934" gradientTransform="translate(5.517 1.166) rotate(90) scale(1 2.107)" xlink:href="#b"/><radialGradient id="s" cx="1.018" cy="1.361" r="1.648" gradientTransform="matrix(-0.704, 0.347, -0.26, -0.938, -57.202, -2.634)" xlink:href="#b"/><radialGradient id="t" cx="-0.429" cy="0.522" r="1.479" gradientTransform="matrix(0.276, -0.956, 0.898, 0.294, -18.811, -0.445)" xlink:href="#b"/><radialGradient id="u" cx="0.215" cy="-0.465" r="1.964" gradientTransform="translate(-0.993) scale(0.475 1)" xlink:href="#b"/><radialGradient id="v" cx="-0.604" cy="0.391" r="1.213" gradientTransform="matrix(0.818, -0.807, 1.117, 0.591, -24.89, 5.675)" xlink:href="#b"/><radialGradient id="w" cx="-0.464" cy="0.786" r="0.934" gradientTransform="translate(-56.891 -20.092) rotate(-90) scale(1 2.105)" xlink:href="#b"/><radialGradient id="x" cx="-0.204" cy="1.124" r="1.181" gradientTransform="matrix(-0.778, -0.86, 1.312, -0.51, -71.784, -2.712)" xlink:href="#b"/><radialGradient id="y" cx="0.481" cy="-0.336" r="1.442" gradientTransform="matrix(0.624, 0.499, -0.359, 0.867, -8.548, -0.175)" xlink:href="#b"/><radialGradient id="z" cx="0.519" cy="-0.763" r="1.904" gradientTransform="matrix(0.517, 0.499, -0.298, 0.867, -9.994, -0.801)" xlink:href="#b"/><radialGradient id="aa" cx="0.898" cy="1.219" r="1.787" gradientTransform="matrix(-0.518, 0.243, -0.13, -0.97, -70.1, -14.595)" xlink:href="#b"/><radialGradient id="ab" cx="0.967" cy="1.751" r="2.571" gradientTransform="matrix(-0.392, 0.243, -0.098, -0.97, -70.056, -24.845)" xlink:href="#b"/><radialGradient id="ac" cx="-0.466" cy="0.787" r="0.933" gradientTransform="translate(-100.868 -22.984) rotate(-90) scale(1 2.104)" xlink:href="#b"/><radialGradient id="ad" cx="-1.206" cy="0.846" r="1.003" gradientTransform="matrix(-0.149, -0.999, 2.996, -0.05, -166.001, -45.847)" xlink:href="#b"/><radialGradient id="ae" cx="0.679" cy="1.492" r="1.81" gradientTransform="matrix(-0.513, -0.227, 0.12, -0.974, -79.315, 11.274)" xlink:href="#b"/><radialGradient id="af" cx="0.682" cy="2.218" r="2.691" gradientTransform="matrix(-0.369, -0.227, 0.086, -0.974, -77.098, 21.621)" xlink:href="#b"/><radialGradient id="ag" cx="1.463" cy="0.212" r="0.933" gradientTransform="translate(-108.723 13.937) rotate(90) scale(1 2.107)" xlink:href="#b"/><radialGradient id="ah" cx="1.452" cy="-0.048" r="1.082" gradientTransform="matrix(0.733, 0.934, -1.921, 0.357, -81.631, 24.051)" xlink:href="#b"/><radialGradient id="ai" cx="1.189" cy="0.604" r="1.127" gradientTransform="matrix(-0.721, 0.769, -0.867, -0.639, -139.871, -0.446)" xlink:href="#b"/><radialGradient id="aj" cx="1.479" cy="0.676" r="1.269" gradientTransform="matrix(-0.796, 0.769, -0.958, -0.639, -179.959, 5.417)" xlink:href="#b"/><radialGradient id="ak" cx="-0.472" cy="0.786" r="0.932" gradientTransform="translate(-174.51 -18.464) rotate(-90) scale(1 2.104)" xlink:href="#b"/><radialGradient id="al" cx="-0.737" cy="1.042" r="1.061" gradientTransform="matrix(-0.69, -0.951, 2.116, -0.31, -261.564, -4.043)" xlink:href="#b"/><radialGradient id="am" cx="0.148" cy="0.533" r="1.059" gradientTransform="matrix(0.776, -0.544, 0.878, 1.464, -23.489, -4.156)" xlink:href="#b"/><radialGradient id="an" cx="-0.047" cy="0.364" r="1.444" gradientTransform="matrix(0.7, -0.544, 0.792, 1.464, -26.861, -7.038)" xlink:href="#b"/><radialGradient id="ao" cx="0.393" cy="-0.417" r="1.613" gradientTransform="matrix(0.569, 0.369, -0.226, 0.929, 8.233, -7.008)" xlink:href="#b"/><radialGradient id="ap" cx="0.409" cy="-0.992" r="2.271" gradientTransform="matrix(0.435, 0.369, -0.173, 0.929, 11.523, -7.569)" xlink:href="#b"/><radialGradient id="aq" cx="1.235" cy="0.542" r="0.951" gradientTransform="matrix(-0.353, 0.958, -1.928, -0.469, -105.043, 35.803)" xlink:href="#b"/><radialGradient id="ar" cx="1.86" cy="0.577" r="1.032" gradientTransform="matrix(-0.487, 0.958, -2.655, -0.469, -168.622, 61.667)" xlink:href="#b"/><radialGradient id="as" cx="0.212" cy="-0.466" r="1.963" gradientTransform="translate(-2.101) scale(0.475 1)" xlink:href="#b"/><radialGradient id="at" cx="-0.302" cy="0.106" r="1.536" gradientTransform="matrix(0.667, -0.623, 0.531, 0.782, -16.372, 2.224)" xlink:href="#b"/><radialGradient id="au" cx="-1.754" cy="-5.068" r="8.35" gradientTransform="matrix(0.659, -0.496, 0.31, 0.717, -18.037, 9.74)" xlink:href="#b"/><radialGradient id="av" cx="-4.397" cy="-6.534" r="13.671" gradientTransform="matrix(0.664, -0.496, 0.313, 0.717, -30.745, 15.649)" xlink:href="#b"/><radialGradient id="aw" cx="5.287" cy="-1.632" r="6.21" gradientTransform="matrix(0.618, 0.893, -1.016, 0.374, -93.763, -1.107)" xlink:href="#b"/><radialGradient id="ax" cx="5.26" cy="-1.698" r="6.219" gradientTransform="matrix(0.619, 0.893, -1.018, 0.374, -154.053, -1.576)" xlink:href="#b"/><radialGradient id="ay" cx="7.78" cy="-0.463" r="5.747" gradientTransform="matrix(0.21, 0.993, -1.451, 0.101, -356.381, 66.172)" xlink:href="#b"/><radialGradient id="az" cx="7.782" cy="-0.405" r="5.797" gradientTransform="matrix(0.209, 0.993, -1.443, 0.101, -307.002, 61.059)" xlink:href="#b"/><radialGradient id="ba" cx="8.136" cy="-0.526" r="5.805" gradientTransform="matrix(0.208, 0.993, -1.438, 0.101, -464.097, 90.13)" xlink:href="#b"/><radialGradient id="bb" cx="2.837" cy="-3.916" r="7.538" gradientTransform="matrix(0.696, 0.624, -0.464, 0.653, -39.278, -15.597)" xlink:href="#b"/><radialGradient id="bc" cx="2.303" cy="-7.367" r="12.411" gradientTransform="matrix(0.695, 0.624, -0.463, 0.653, -65.747, -24.549)" xlink:href="#b"/><radialGradient id="bd" cx="2.313" cy="-7.355" r="12.411" gradientTransform="matrix(0.695, 0.624, -0.464, 0.653, -64.743, -23.042)" xlink:href="#b"/><radialGradient id="be" cx="0.313" cy="-1.295" r="5.119" gradientTransform="translate(0.217) scale(0.305 1)" xlink:href="#c"/><radialGradient id="bf" cx="0.549" cy="0.603" r="1.754" gradientTransform="matrix(0.623, -0.245, 0.122, 0.75, -0.053, 0.639)" gradientUnits="objectBoundingBox"><stop offset="0" stop-color="#d1e1ee"/><stop offset="0.34" stop-color="#8ee1ee"/><stop offset="0.94" stop-color="#732fa4"/></radialGradient><radialGradient id="bg" cx="0.493" cy="0.853" r="3.786" gradientTransform="matrix(0.252, 0.229, -0.046, 0.761, 0.354, -0.17)" xlink:href="#bf"/></defs><g transform="translate(0)"><g transform="translate(0)"><ellipse class="a" cx="270.16" cy="270.16" rx="270.16" ry="270.16" transform="translate(177.199)"/><ellipse class="b" cx="241.877" cy="241.877" rx="241.877" ry="241.877" transform="translate(205.483 28.283)"/><path class="c" d="M1056.68,449.868c-10.873-20.727-7.6-50.526-.971-70.661,14.023-42.638,50.526-73.2,88.5-94.349,118.653-66.184,249.078,15.729,260.164,67.866s-41.146,79.757-112.209,63.01-124.551,62.11-173.609,62.37c-18.714,0-37.9-3.032-52.492-16.06a43.42,43.42,0,0,1-9.38-12.175Z" transform="translate(-795.91 -210.359)"/><g class="d" transform="translate(218.585 39.962)"><path class="e" d="M1118.373,334.488A487.235,487.235,0,0,1,1104.4,283.18,228.754,228.754,0,0,0,1061.356,554.5a228.968,228.968,0,0,1,57.064-220.013Z" transform="translate(-1034.781 -218.773)"/><path class="f" d="M1340.453,292.659a228.635,228.635,0,0,0-271.2,16.866,457.419,457.419,0,0,0,13.171,51.45,228.707,228.707,0,0,1,263.978-29.16A238.9,238.9,0,0,0,1340.453,292.659Z" transform="translate(-987.601 -255.99)"/><path class="g" d="M1239.716,351.134a243.605,243.605,0,0,0-1.373-25.583A230.055,230.055,0,0,0,1189,275.12,271.59,271.59,0,0,1,1193.169,312a230.243,230.243,0,0,1,46.547,39.132Z" transform="translate(-823.688 -229.805)"/><path class="h" d="M1214.64,323.493a227.8,227.8,0,0,1,23.285,35.413,228.773,228.773,0,0,0-23.167-55.027Q1215.042,313.639,1214.64,323.493Z" transform="translate(-788.592 -190.439)"/></g><path class="i" d="M1431.6,280.43a193.672,193.672,0,1,1-375.24,67.416v-1.208A237.589,237.589,0,1,0,1431.58,280.43Z" transform="translate(-821.343 -182.575)"/><path class="j" d="M1491.071,338.194v1.019c0,130.662-102.805,236.595-229.607,236.595-117.374,0-214.162-90.748-227.925-207.885.568,130.165,103.137,235.5,229.583,235.5,126.825,0,229.607-105.909,229.607-236.571a248.37,248.37,0,0,0-1.66-28.67Z" transform="translate(-817.895 -103.518)"/><ellipse class="k" cx="56.851" cy="27.004" rx="56.851" ry="27.004" transform="translate(403.513 40.554)"/><path class="l" d="M1115,283.291c8.93,9.475,28.757,15.895,51.805,15.895,25.536,0,47.139-8.007,54.316-18.95-8.93-9.357-28.757-15.895-51.805-15.895C1143.733,264.269,1122.106,272.276,1115,283.291Z" transform="translate(-706.393 -204.599)"/><ellipse class="m" cx="56.851" cy="27.004" rx="56.851" ry="27.004" transform="translate(613.172 363.787) rotate(-78.75)"/><path class="n" d="M1232.947,349c-10.92,6.941-21.177,25.109-25.677,47.707-4.975,25.062-1.35,47.8,8.054,56.993,10.92-6.941,21.177-25.109,25.677-47.707C1246,380.908,1242.352,358.167,1232.947,349Z" transform="translate(-583.151 -88.717)"/><ellipse class="o" cx="56.851" cy="27.004" rx="56.851" ry="27.004" transform="translate(403.981 411.897) rotate(-3.56)"/><path class="p" d="M1220.349,424.242c-9.475-8.788-29.7-14.071-52.706-12.649-25.488,1.587-46.547,10.92-53.013,22.361,9.475,8.788,29.681,14.071,52.682,12.649C1192.8,445.016,1213.858,435.683,1220.349,424.242Z" transform="translate(-706.9 -3.356)"/><ellipse class="q" cx="57.254" cy="68.174" rx="57.254" ry="68.174" transform="matrix(0.556, -0.831, 0.831, 0.556, 287.881, 344.884)"/><path class="r" d="M1164.859,368.125c-28.236-18.95-63.223-17.174-82.718,2.629-10.778,25.559,1.019,58.485,29.231,77.341s63.223,17.174,82.718-2.629C1204.868,419.907,1193.048,386.981,1164.859,368.125Z" transform="translate(-756.774 -80.696)"/><ellipse class="s" cx="36.858" cy="43.87" rx="36.858" ry="43.87" transform="translate(408.474 181.205) rotate(-76.52)"/><path class="t" d="M1153.064,355.605c21.319,5.093,42-3.743,49.342-20.064.805-17.837-13.668-35.082-34.892-40.269s-42.022,3.743-49.365,20.064C1117.343,333.267,1131.84,350.512,1153.064,355.605Z" transform="translate(-702.127 -164.278)"/><path class="u" d="M1173.262,371.5c-21.319,17.316-28.26,44.746-17.6,64.5,17.174,14.4,45.41,13.1,66.658-4.216s28.283-44.746,17.6-64.478C1222.746,352.906,1194.51,354.209,1173.262,371.5Z" transform="translate(-657.492 -77.179)"/><ellipse class="v" cx="44.818" cy="21.296" rx="44.818" ry="21.296" transform="matrix(0.591, -0.807, 0.807, 0.591, 263.724, 178.178)"/><path class="w" d="M1065.788,360.385c10.115-1.3,23.5-10.9,34.229-25.536,11.844-16.25,16.866-33.732,13.218-43.42-10.115,1.326-23.5,10.9-34.229,25.559C1067.115,333.215,1062.141,350.7,1065.788,360.385Z" transform="translate(-775.361 -167.519)"/><ellipse class="x" cx="27.004" cy="56.851" rx="27.004" ry="56.851" transform="matrix(0.862, -0.508, 0.508, 0.862, 215.172, 341.539)"/><path class="y" d="M1103.851,466.6c3.553-12.436-.9-32.831-12.6-52.706-12.957-22.006-30.794-36.55-43.941-37.143-3.553,12.436.9,32.831,12.6,52.706C1072.868,451.462,1090.847,466.006,1103.851,466.6Z" transform="translate(-800.68 -50.734)"/><path class="z" d="M1222.973,304.793c-4.216,7.32-20.111,6.064-35.532-2.819s-24.469-21.982-20.253-29.3,20.111-6.064,35.532,2.819S1227.189,297.473,1222.973,304.793Z" transform="translate(-636.376 -199.713)"/><path class="aa" d="M1166.32,273.732c1.729,7.106,9.617,15.895,20.916,22.409,12.531,7.106,25.393,9.475,32,6.017-1.729-7.106-9.594-15.895-20.917-22.409C1185.815,272.524,1172.953,270.345,1166.32,273.732Z" transform="translate(-636.147 -193.88)"/><path class="ab" d="M1146.767,458.2c-2.037-8.172,10.257-18.334,27.5-22.646s32.879-1.184,34.939,7.106-10.257,18.334-27.5,22.646S1148.828,466.47,1146.767,458.2Z" transform="translate(-663.213 27.115)"/><path class="ac" d="M1204.592,437.173c-6.182-3.909-17.979-4.738-30.628-1.587-14.023,3.506-24.778,10.873-27.194,17.908,6.183,3.932,17.979,4.738,30.629,1.611C1191.421,451.575,1202.176,444.208,1204.592,437.173Z" transform="translate(-662.907 27.158)"/><ellipse class="ad" cx="15.302" cy="32.192" rx="15.302" ry="32.192" transform="matrix(0.999, -0.05, 0.05, 0.999, 216.744, 250.569)"/><path class="ae" d="M1051.518,405.067c5.046-5.306,8.172-16.7,7.533-29.728-.711-14.45-5.851-26.436-12.271-30.178-5.045,5.306-8.172,16.582-7.533,29.728C1039.958,389.338,1045.1,401.324,1051.518,405.067Z" transform="translate(-810.196 -93.974)"/><path class="af" d="M1099.213,445.53c1.919-8.22,17.505-11.607,34.8-7.58s29.8,14,27.881,22.219-17.505,11.607-34.821,7.58S1097.294,453.75,1099.213,445.53Z" transform="translate(-728.27 30.715)"/><path class="ag" d="M1159.028,453.391c-3.7-6.325-13.786-12.46-26.507-15.444-14.07-3.269-27-1.635-32.381,3.506,3.719,6.3,13.81,12.46,26.507,15.421C1140.67,460.166,1153.627,458.531,1159.028,453.391Z" transform="translate(-726.734 30.718)"/><ellipse class="ah" cx="11.726" cy="24.707" rx="11.726" ry="24.707" transform="matrix(0.934, -0.357, 0.357, 0.934, 646.013, 208.208)"/><path class="ai" d="M1219.125,326.85c-2.369,5.069-1.99,14.213,1.587,23.475,3.956,10.375,10.541,17.908,16.132,19.116,2.369-5.093,1.99-14.213-1.587-23.5C1231.3,335.591,1224.715,328.058,1219.125,326.85Z" transform="translate(-565.918 -119.036)"/><path class="aj" d="M1200.39,438.81c-4.974-4.122-1.99-15.989,6.7-26.507s19.779-15.681,24.777-11.536,2.013,15.989-6.68,26.507S1205.364,443.05,1200.39,438.81Z" transform="translate(-592.805 -19.819)"/><path class="ak" d="M1226.747,399.39c-5.614.4-13.289,5.235-19.661,12.934-7.106,8.551-10.375,18-8.67,23.451,5.614-.4,13.289-5.235,19.661-12.934C1225.137,414.29,1228.453,404.838,1226.747,399.39Z" transform="translate(-592.822 -19.744)"/><ellipse class="al" cx="8.007" cy="16.842" rx="8.007" ry="16.842" transform="translate(257.623 297.067) rotate(-18.05)"/><path class="am" d="M1066.91,393c1.824-3.387,1.824-9.475-.284-16.037-2.369-7.106-6.585-12.555-10.328-13.549-1.824,3.364-1.848,9.475.26,16.037C1058.927,386.624,1063.167,391.978,1066.91,393Z" transform="translate(-788.587 -68.993)"/><path class="an" d="M1131.881,312.542c4.193,6.419,1.256,15.752-6.562,20.8s-17.505,3.956-21.675-2.487-1.232-15.752,6.562-20.822S1127.712,306.1,1131.881,312.542Z" transform="translate(-724.53 -146.396)"/><path class="ao" d="M1104.568,330.274a17.245,17.245,0,0,0,17.292-1.492c6.349-4.1,9.475-11.039,8.172-16.937a17.245,17.245,0,0,0-17.293,1.492C1106.392,317.435,1103.265,324.375,1104.568,330.274Z" transform="translate(-721.071 -141.836)"/><path class="ap" d="M1185.435,296.686c-1.634,4.1-9.972,4.738-18.595,1.208s-14.213-9.475-12.7-13.644,9.949-4.738,18.595-1.208S1187.069,292.588,1185.435,296.686Z" transform="translate(-653.154 -182.178)"/><path class="aq" d="M1154.07,284.636c1.445,3.553,6.183,7.509,12.531,10.02,7.106,2.8,13.834,2.961,17.008.711-1.421-3.553-6.159-7.509-12.507-10.02C1164.066,282.552,1157.244,282.386,1154.07,284.636Z" transform="translate(-652.915 -178.941)"/><path class="ar" d="M1202.509,379.354c-5.519-1.658-8.267-8.741-6.159-15.823s8.314-11.489,13.833-9.854,8.267,8.741,6.135,15.824S1208.028,380.965,1202.509,379.354Z" transform="translate(-596.013 -82.782)"/><path class="as" d="M1205.846,353.45a13.952,13.952,0,0,0-9.475,9.925,13.454,13.454,0,0,0,3.364,14.355,14,14,0,0,0,9.475-9.925C1210.82,362.049,1209.423,356.269,1205.846,353.45Z" transform="translate(-596.129 -82.626)"/><ellipse class="at" cx="32.192" cy="15.302" rx="32.192" ry="15.302" transform="matrix(0.782, -0.623, 0.623, 0.782, 277.532, 103.011)"/><path class="au" d="M1066.33,311.519c7.249.995,18.334-3.127,28.425-11.252,11.3-9,18.05-20.158,17.34-27.573-7.249-.995-18.334,3.1-28.544,11.228C1072.37,292.924,1065.619,304.081,1066.33,311.519Z" transform="translate(-773.083 -193.364)"/><path class="av" d="M1192.206,418.4c1.871,3.269-1.3,8.6-7.106,11.844s-11.844,3.316-13.833,0,1.3-8.6,7.106-11.844S1190.382,415.18,1192.206,418.4Z" transform="translate(-630.173 2.959)"/><path class="aw" d="M1192.218,409.862c1.137,1.99-.805,5.235-4.311,7.225s-7.272,2.013-8.409,0,.805-5.235,4.311-7.225S1191.081,407.873,1192.218,409.862Z" transform="translate(-618.555 -7.452)"/><path class="ax" d="M1081.415,409.682c-3.742,1.9-9.475-1.942-12.815-8.575s-3.008-13.5.758-15.4,9.475,1.942,12.815,8.575S1085.182,407.787,1081.415,409.682Z" transform="translate(-773.056 -39.132)"/><path class="ay" d="M1083.36,410.431c-2.369,1.137-5.733-1.184-7.746-5.164s-1.824-8.172.45-9.309,5.733,1.161,7.746,5.164S1085.539,409.294,1083.36,410.431Z" transform="translate(-762.209 -24.84)"/><path class="az" d="M1053.771,368.835c-2.037.26-4.051-2.487-4.5-6.111s.876-6.751,2.937-7.106,4.074,2.487,4.5,6.111S1055.856,368.6,1053.771,368.835Z" transform="translate(-796.483 -79.701)"/><path class="ba" d="M1217.633,346.535c-2.985.355-5.922-3.624-6.562-8.883s1.279-9.854,4.264-10.209,5.922,3.624,6.538,8.907S1220.546,346.18,1217.633,346.535Z" transform="translate(-575.061 -118.255)"/><path class="bb" d="M1214.826,350.462c-1.942.237-3.861-2.369-4.288-5.8s.829-6.443,2.8-6.68,3.885,2.369,4.288,5.827S1216.792,350.249,1214.826,350.462Z" transform="translate(-575.736 -103.824)"/><path class="bc" d="M1099.272,442.132c-2.369,2.937-8.456,1.966-13.668-2.156s-7.509-9.878-5.164-12.839,8.457-1.966,13.668,2.156S1101.618,439.194,1099.272,442.132Z" transform="translate(-754.955 15.898)"/><path class="bd" d="M1104.076,439.926c-1.421,1.777-5.14,1.184-8.314-1.327s-4.572-6.017-3.15-7.793,5.164-1.208,8.314,1.3S1105.5,438.126,1104.076,439.926Z" transform="translate(-737.799 21.845)"/><path class="be" d="M1087.49,426.986c-1.421,1.777-5.14,1.184-8.291-1.326s-4.572-6.017-3.15-7.793,5.14-1.208,8.314,1.3S1088.935,425.186,1087.49,426.986Z" transform="translate(-760.465 4.133)"/><path class="bf" d="M1100.694,281.806c-1.279-3.529,2.748-8.243,9-10.494s12.365-1.184,13.644,2.369-2.771,8.243-9.025,10.494S1101.974,285.359,1100.694,281.806Zm-6.419,18.145c3.79-1.374,6.254-4.216,5.472-6.372s-4.477-2.8-8.291-1.421-6.254,4.216-5.472,6.372S1090.461,301.324,1094.275,299.95Zm46.689-17.292c3.79-1.374,6.254-4.216,5.472-6.372s-4.477-2.8-8.291-1.421-6.254,4.216-5.472,6.372S1137.15,284.032,1140.964,282.658Zm163.825,41.454c1.066-3.6,7.106-5,13.478-3.1s10.66,6.348,9.475,9.949-7.106,5-13.478,3.1S1303.723,327.713,1304.789,324.112Zm31.955,24.541c3.861,1.137,7.533.308,8.2-1.9s-1.966-4.9-5.851-6.064-7.533-.284-8.2,1.9S1332.859,347.492,1336.744,348.653Z" transform="translate(-746.31 -196.671)"/><g class="bg" transform="translate(61.145 28.528)"><path class="bh" d="M1740.454,271.717c-20.656-34.347-96.386-19.306-156.34-.64l-2.369.758c-26.057,8.2-53.819,18.571-82.908,30.794,3.98,2.487,7.864,5.046,11.583,7.841,26.222-10.8,51.308-20.04,74.854-27.454l2.369-.758c76.678-23.9,130.023-25.583,142.7-4.5s-14,67.155-71.348,123.177c-60.878,59.5-149.873,125.38-250.594,185.5S1207.264,693.6,1125.967,719.086c-76.654,23.9-130,25.583-142.672,4.477s14-67.155,71.348-123.177c18.666-18.24,39.985-37.1,63.484-56.211-.521-2.606-.948-5.235-1.256-7.888-.379-1.777-.687-3.553-.971-5.354-25.844,20.774-49.224,41.288-69.5,61.115-44.794,43.8-93.875,103.232-73.219,137.6s96.386,19.329,156.34.64l2.369-.758c81.794-25.82,181.994-72.959,282.5-132.913,101.526-60.57,191.3-127.062,252.821-187.134C1712.029,365.521,1761.11,306.088,1740.454,271.717Z" transform="translate(-968.317 -251.163)"/></g><g class="bg" transform="translate(0 166.218)"><path class="bi" d="M1838.607,391.511c-2.866-40.435-77.625-61.375-139.759-71.8l-2.558-.426c-27-4.43-56.685-7.77-88.332-10,2.369,4.074,4.738,8.172,6.8,12.389,28.426,2.179,55.122,5.282,79.615,9.286l2.511.426c79.615,13.36,128.2,36.148,129.976,60.973s-43.088,54.269-120,78.786c-81.652,26.057-191.4,45.007-309.032,53.345s-229.062,5.14-313.485-8.978c-79.615-13.36-128.2-36.148-129.976-60.973s43.112-54.269,120-78.786c25.062-7.983,52.753-15.279,82.5-21.84.711-2.582,1.54-5.164,2.369-7.7.5-1.777,1.019-3.529,1.587-5.282-32.618,7.106-62.915,14.876-90.014,23.546-60.1,19.14-131.113,50.455-128.223,90.914s77.625,61.375,139.759,71.8l2.558.426c85.063,13.952,196.349,17.055,313.722,8.693,118.439-8.457,229.3-27.6,311.78-53.89C1770.386,463.285,1841.45,431.969,1838.607,391.511Z" transform="translate(-942.504 -309.29)"/></g></g></g></svg>