<svg xmlns="http://www.w3.org/2000/svg" xmlns:xlink="http://www.w3.org/1999/xlink" viewBox="0 0 106.65 94.51"><defs><style>.cls-1{isolation:isolate;}.cls-10,.cls-2,.cls-21,.cls-22,.cls-23,.cls-27,.cls-28,.cls-29,.cls-6,.cls-7,.cls-8{mix-blend-mode:screen;}.cls-2{fill:url(#radial-gradient);}.cls-3{fill:url(#Áåçûìÿííûé_ãðàäèåíò_236);}.cls-19,.cls-20,.cls-25,.cls-26,.cls-4,.cls-5{opacity:0.1;}.cls-13,.cls-14,.cls-19,.cls-20,.cls-25,.cls-26,.cls-4,.cls-5{mix-blend-mode:color-burn;}.cls-4{fill:url(#linear-gradient);}.cls-5{fill:url(#linear-gradient-2);}.cls-21,.cls-22,.cls-23,.cls-27,.cls-28,.cls-6,.cls-7,.cls-8{opacity:0.2;}.cls-6{fill:url(#radial-gradient-2);}.cls-7{fill:url(#radial-gradient-3);}.cls-8{fill:url(#radial-gradient-4);}.cls-9{fill:#fff;mix-blend-mode:overlay;}.cls-15,.cls-16,.cls-17,.cls-9{opacity:0.5;}.cls-10{opacity:0.45;}.cls-11{fill:url(#radial-gradient-5);}.cls-12{fill:url(#linear-gradient-3);}.cls-13{fill:url(#linear-gradient-4);}.cls-14{fill:url(#linear-gradient-5);}.cls-15,.cls-16,.cls-17{mix-blend-mode:color-dodge;}.cls-15{fill:url(#radial-gradient-6);}.cls-16{fill:url(#radial-gradient-7);}.cls-17{fill:url(#radial-gradient-8);}.cls-18{fill:url(#Áåçûìÿííûé_ãðàäèåíò_236-2);}.cls-19{fill:url(#linear-gradient-6);}.cls-20{fill:url(#linear-gradient-7);}.cls-21{fill:url(#radial-gradient-9);}.cls-22{fill:url(#radial-gradient-10);}.cls-23{fill:url(#radial-gradient-11);}.cls-24{fill:url(#radial-gradient-12);}.cls-25{fill:url(#linear-gradient-8);}.cls-26{fill:url(#linear-gradient-9);}.cls-27{fill:url(#radial-gradient-13);}.cls-28{fill:url(#radial-gradient-14);}.cls-29{fill:url(#radial-gradient-15);}</style><radialGradient id="radial-gradient" cx="983.97" cy="78.1" r="43.98" gradientTransform="translate(406.43 -158.48) rotate(30.66)" gradientUnits="userSpaceOnUse"><stop offset="0" stop-color="#f20074"/><stop offset="0.17" stop-color="#f00175" stop-opacity="0.99"/><stop offset="0.3" stop-color="#eb0477" stop-opacity="0.95"/><stop offset="0.42" stop-color="#e2097b" stop-opacity="0.88"/><stop offset="0.54" stop-color="#d61080" stop-opacity="0.78"/><stop offset="0.65" stop-color="#c61888" stop-opacity="0.65"/><stop offset="0.75" stop-color="#b22390" stop-opacity="0.5"/><stop offset="0.86" stop-color="#9b309b" stop-opacity="0.31"/><stop offset="0.96" stop-color="#813fa6" stop-opacity="0.1"/><stop offset="1" stop-color="#7446ac" stop-opacity="0"/></radialGradient><radialGradient id="Áåçûìÿííûé_ãðàäèåíò_236" cx="1159.9" cy="325.31" r="53.69" gradientTransform="translate(2082.82 -425.84) rotate(123.38) scale(1 0.82)" gradientUnits="userSpaceOnUse"><stop offset="0" stop-color="#ff5731"/><stop offset="0.7" stop-color="#ba005e"/><stop offset="0.95" stop-color="#5e1377"/><stop offset="1" stop-color="#8160ff"/></radialGradient><linearGradient id="linear-gradient" x1="1084.09" y1="301.23" x2="1157.19" y2="301.23" gradientTransform="translate(272.31 -263.3) rotate(21.21)" gradientUnits="userSpaceOnUse"><stop offset="0" stop-color="#1c0067"/><stop offset="0.1" stop-color="#1c007f"/><stop offset="0.29" stop-color="#1c00a5"/><stop offset="0.47" stop-color="#1c00c2"/><stop offset="0.65" stop-color="#1c00d7"/><stop offset="0.83" stop-color="#1c00e4"/><stop offset="1" stop-color="#1c00e8"/></linearGradient><linearGradient id="linear-gradient-2" x1="1103.96" y1="301.58" x2="1157.19" y2="301.58" xlink:href="#linear-gradient"/><radialGradient id="radial-gradient-2" cx="1135.4" cy="335.54" r="53.49" gradientTransform="translate(595.64 -632.95) rotate(43)" gradientUnits="userSpaceOnUse"><stop offset="0" stop-color="#ffff29"/><stop offset="0.89" stop-color="#ff7e59"/><stop offset="1" stop-color="#ffff29"/></radialGradient><radialGradient id="radial-gradient-3" cx="1135.4" cy="335.54" r="53.49" xlink:href="#radial-gradient-2"/><radialGradient id="radial-gradient-4" cx="1154.72" cy="337.68" r="24.11" xlink:href="#radial-gradient-2"/><radialGradient id="radial-gradient-5" cx="1045.21" cy="38.46" r="76.7" gradientTransform="translate(190 175.99) rotate(11.15)" gradientUnits="userSpaceOnUse"><stop offset="0" stop-color="#8ee1ee"/><stop offset="0.62" stop-color="#5e8dec"/><stop offset="0.63" stop-color="#5f89e8"/><stop offset="0.74" stop-color="#6b64c7"/><stop offset="0.84" stop-color="#714eb3"/><stop offset="0.9" stop-color="#7446ac"/></radialGradient><linearGradient id="linear-gradient-3" x1="952.71" y1="205.32" x2="971.04" y2="205.32" gradientTransform="translate(714.65 -473.5) rotate(50.4)" gradientUnits="userSpaceOnUse"><stop offset="0" stop-color="#ff91a7"/><stop offset="0.1" stop-color="#fc8aa9"/><stop offset="0.24" stop-color="#f275ae"/><stop offset="0.42" stop-color="#e353b7"/><stop offset="0.62" stop-color="#ce25c3"/><stop offset="0.76" stop-color="#bd00cc"/><stop offset="1" stop-color="#8b00cc"/></linearGradient><linearGradient id="linear-gradient-4" x1="975.16" y1="88.53" x2="993.49" y2="88.53" gradientTransform="translate(346.29 -148.05) rotate(28.61)" gradientUnits="userSpaceOnUse"><stop offset="0" stop-color="#fff7f5"/><stop offset="0.16" stop-color="#f9eff3"/><stop offset="0.41" stop-color="#e7d8ed"/><stop offset="0.73" stop-color="#cbb4e4"/><stop offset="1" stop-color="#ae8edb"/></linearGradient><linearGradient id="linear-gradient-5" x1="980.15" y1="88.62" x2="993.49" y2="88.62" xlink:href="#linear-gradient-4"/><radialGradient id="radial-gradient-6" cx="954.76" cy="203.3" r="13.41" gradientTransform="translate(714.65 -473.5) rotate(50.4)" gradientUnits="userSpaceOnUse"><stop offset="0"/><stop offset="0.28" stop-color="#4e4e4e"/><stop offset="0.63" stop-color="#acacac"/><stop offset="0.88" stop-color="#e8e8e8"/><stop offset="1" stop-color="#fff"/></radialGradient><radialGradient id="radial-gradient-7" cx="954.76" cy="203.3" r="13.41" xlink:href="#radial-gradient-6"/><radialGradient id="radial-gradient-8" cx="959.61" cy="203.84" r="6.05" gradientTransform="translate(714.65 -473.5) rotate(50.4)" gradientUnits="userSpaceOnUse"><stop offset="0" stop-color="#fff"/><stop offset="0.12" stop-color="#e8e8e8"/><stop offset="0.37" stop-color="#acacac"/><stop offset="0.72" stop-color="#4e4e4e"/><stop offset="1"/></radialGradient><radialGradient id="Áåçûìÿííûé_ãðàäèåíò_236-2" cx="952.6" cy="217.23" r="8.71" gradientTransform="translate(1990.56 -129.29) rotate(136.12) scale(1 0.82)" xlink:href="#Áåçûìÿííûé_ãðàäèåíò_236"/><linearGradient id="linear-gradient-6" x1="964.18" y1="99.51" x2="976.04" y2="99.51" gradientTransform="translate(428.11 -217.84) rotate(33.94)" xlink:href="#linear-gradient"/><linearGradient id="linear-gradient-7" x1="967.41" y1="99.56" x2="976.04" y2="99.56" gradientTransform="translate(428.11 -217.84) rotate(33.94)" xlink:href="#linear-gradient"/><radialGradient id="radial-gradient-9" cx="948.62" cy="218.89" r="8.68" gradientTransform="translate(823.84 -506.95) rotate(55.74)" xlink:href="#radial-gradient-2"/><radialGradient id="radial-gradient-10" cx="948.62" cy="218.88" r="8.68" gradientTransform="translate(823.84 -506.95) rotate(55.74)" xlink:href="#radial-gradient-2"/><radialGradient id="radial-gradient-11" cx="951.76" cy="219.23" r="3.91" gradientTransform="translate(823.84 -506.95) rotate(55.74)" xlink:href="#radial-gradient-2"/><radialGradient id="radial-gradient-12" cx="1008.85" cy="161.02" r="6.86" gradientTransform="translate(2077.27 -186.65) rotate(136.12) scale(1 0.82)" gradientUnits="userSpaceOnUse"><stop offset="0" stop-color="#8ee1ee"/><stop offset="0.62" stop-color="#5e8dec"/><stop offset="0.63" stop-color="#5f89e8"/><stop offset="0.74" stop-color="#6b64c7"/><stop offset="0.84" stop-color="#714eb3"/><stop offset="0.9" stop-color="#7446ac"/><stop offset="0.99" stop-color="#8ee1ee"/></radialGradient><linearGradient id="linear-gradient-8" x1="1039.13" y1="67.17" x2="1047.99" y2="67.17" gradientTransform="translate(428.11 -217.84) rotate(33.94)" xlink:href="#linear-gradient"/><linearGradient id="linear-gradient-9" x1="1041.54" y1="67.21" x2="1047.99" y2="67.21" gradientTransform="translate(428.11 -217.84) rotate(33.94)" xlink:href="#linear-gradient"/><radialGradient id="radial-gradient-13" cx="1005.71" cy="162.33" r="6.84" gradientTransform="translate(823.84 -506.95) rotate(55.74)" xlink:href="#radial-gradient-12"/><radialGradient id="radial-gradient-14" cx="1005.71" cy="162.33" r="6.84" gradientTransform="translate(823.84 -506.95) rotate(55.74)" xlink:href="#radial-gradient-12"/><radialGradient id="radial-gradient-15" cx="1008.18" cy="162.6" r="3.08" gradientTransform="translate(823.84 -506.95) rotate(55.74)" gradientUnits="userSpaceOnUse"><stop offset="0" stop-color="#8ee1ee"/><stop offset="0.94" stop-color="#5e8dec" stop-opacity="0"/></radialGradient></defs><title>planete_12.module</title><g class="cls-1"><g id="Calque_2" data-name="Calque 2"><g id="OBJECTS"><path class="cls-2" d="M1189,451c-.24-.14-.48-.28-.71-.43a47.32,47.32,0,0,1-17.44-61.38c.26-.52.55-1.07.89-1.68a47.13,47.13,0,0,1,10.35-12.82l1.37-1.15a47.33,47.33,0,0,1,64.79,5.21c.23.25.46.52.69.79a47.23,47.23,0,0,1,6.8,51.18c-.59,1.25-1.26,2.51-2,3.74A47.31,47.31,0,0,1,1189,451Z" transform="translate(-1160.26 -363.09)"/><path class="cls-3" d="M1239.09,436.91a36.55,36.55,0,1,1-1.8-51.66A36.55,36.55,0,0,1,1239.09,436.91Z" transform="translate(-1160.26 -363.09)"/><path class="cls-4" d="M1218.26,424.41a66.22,66.22,0,0,1-25.06-2.05c-5.92-1.66-12-3.76-17.24-7.11a36.55,36.55,0,0,0,73-3A62.64,62.64,0,0,1,1218.26,424.41Z" transform="translate(-1160.26 -363.09)"/><path class="cls-5" d="M1198.4,438.86a84.7,84.7,0,0,1-11.24-.39,36.54,36.54,0,0,0,61.72-25c-.05-.15-.08-.31-.13-.47A62.61,62.61,0,0,1,1223,433.51,66.55,66.55,0,0,1,1198.4,438.86Z" transform="translate(-1160.26 -363.09)"/><path class="cls-6" d="M1248.25,418.9a36.55,36.55,0,1,0-72.11-11.79c5.75-3.15,15.89-6.17,29.9-.73C1226.05,414.14,1238.08,426.76,1248.25,418.9Z" transform="translate(-1160.26 -363.09)"/><path class="cls-7" d="M1196.76,378.94a38.87,38.87,0,0,1,16.92,9c16.07,13.89,23.19,29.63,35.17,26.09a36.54,36.54,0,0,0-52.09-35.05Z" transform="translate(-1160.26 -363.09)"/><path class="cls-8" d="M1232.25,410.23A24.1,24.1,0,1,1,1218.5,379,24.09,24.09,0,0,1,1232.25,410.23Z" transform="translate(-1160.26 -363.09)"/><path class="cls-9" d="M1204,393c-3.15,1.75-7,2.3-9.25,0-5.88-6,6.47-12,11.53-10.13C1211.9,384.9,1207.17,391.23,1204,393Z" transform="translate(-1160.26 -363.09)"/><path class="cls-9" d="M1213.76,380.31c1.9.14,3.76,1,4.08,2.69.85,4.38-6.34,3.42-8,1.13C1207.91,381.59,1211.85,380.16,1213.76,380.31Z" transform="translate(-1160.26 -363.09)"/><g class="cls-10"><path class="cls-11" d="M1266.73,428.4h0c.64-1.83-.42-3.93-3.25-6.43a60.86,60.86,0,0,0-10.37-6.89c-1.08-.6-2.21-1.21-3.39-1.82a10.52,10.52,0,0,1-.27,3.06h0c10,6.1,11.61,9.51,11.37,10.31s-3.37,2.51-14.77.87c-9.6-1.38-21.93-4.69-34.72-9.31s-24.49-10-32.95-15.13c-10-6.1-11.61-9.51-11.36-10.32s3.37-2.51,14.77-.87l.09,0a17.25,17.25,0,0,1,1.15-2c-1.24-.24-2.46-.47-3.63-.66a61,61,0,0,0-12.4-1.09c-3.77.18-5.92,1.16-6.56,3s.43,3.93,3.26,6.43a61.12,61.12,0,0,0,10.36,6.89c9.27,5.15,22,10.67,35.94,15.55a258.53,258.53,0,0,0,34.07,9.62c1.27.25,2.51.47,3.71.68a61.53,61.53,0,0,0,12.4,1.08C1264,431.2,1266.09,430.22,1266.73,428.4Z" transform="translate(-1160.26 -363.09)"/></g><path class="cls-12" d="M1175.29,405.53a9.16,9.16,0,1,1,1.22-12.9A9.16,9.16,0,0,1,1175.29,405.53Z" transform="translate(-1160.26 -363.09)"/><path class="cls-13" d="M1170.52,401.75a16.57,16.57,0,0,1-6.17-1.32,16.05,16.05,0,0,1-4.06-2.32,9.17,9.17,0,0,0,17.21,4.75,9.3,9.3,0,0,0,1-3.13A15.65,15.65,0,0,1,1170.52,401.75Z" transform="translate(-1160.26 -363.09)"/><path class="cls-14" d="M1165.11,404.7a20.66,20.66,0,0,1-2.78-.46,9.06,9.06,0,0,0,2.73,2.28,9.15,9.15,0,0,0,13.42-6.51s0-.08,0-.12a15.76,15.76,0,0,1-7.08,4.28A16.64,16.64,0,0,1,1165.11,404.7Z" transform="translate(-1160.26 -363.09)"/><path class="cls-15" d="M1178.15,401.35a9.16,9.16,0,0,0-16.74-7.27,9.3,9.3,0,0,0-.81,2,8.59,8.59,0,0,1,7.46.79C1172.79,399.45,1175.37,403,1178.15,401.35Z" transform="translate(-1160.26 -363.09)"/><path class="cls-16" d="M1166.64,389.75a9.78,9.78,0,0,1,3.92,2.78c3.54,4,4.8,8.11,7.9,7.62a9.16,9.16,0,0,0-11.82-10.4Z" transform="translate(-1160.26 -363.09)"/><path class="cls-17" d="M1174.45,398.68a6,6,0,1,1-2.41-8.2A6,6,0,0,1,1174.45,398.68Z" transform="translate(-1160.26 -363.09)"/><path class="cls-9" d="M1168.1,394a1.93,1.93,0,0,1-2.3-.31c-1.27-1.68,2-2.76,3.2-2.14S1169,393.62,1168.1,394Z" transform="translate(-1160.26 -363.09)"/><path class="cls-9" d="M1171.51,391.7c.47.09.9.37.93.8.07,1.12-1.69.64-2,0S1171,391.6,1171.51,391.7Z" transform="translate(-1160.26 -363.09)"/><path class="cls-18" d="M1181.76,409.74a5.93,5.93,0,1,1,1.56-8.24A5.93,5.93,0,0,1,1181.76,409.74Z" transform="translate(-1160.26 -363.09)"/><path class="cls-19" d="M1178.91,407a10.76,10.76,0,0,1-3.9-1.22,10.32,10.32,0,0,1-2.47-1.74,5.93,5.93,0,0,0,10.8,4.1,5.85,5.85,0,0,0,.85-2A10.16,10.16,0,0,1,1178.91,407Z" transform="translate(-1160.26 -363.09)"/><path class="cls-20" d="M1175.25,408.59a13.43,13.43,0,0,1-1.76-.47,5.59,5.59,0,0,0,1.62,1.63,5.93,5.93,0,0,0,8.23-1.6,6.2,6.2,0,0,0,.81-1.78s0-.05,0-.08a10.08,10.08,0,0,1-4.81,2.33A10.77,10.77,0,0,1,1175.25,408.59Z" transform="translate(-1160.26 -363.09)"/><path class="cls-21" d="M1183.85,407.21a5.93,5.93,0,1,0-11-4.44,5.55,5.55,0,0,1,4.76,1C1180.51,405.67,1182,408.09,1183.85,407.21Z" transform="translate(-1160.26 -363.09)"/><path class="cls-22" d="M1177.13,399a6.39,6.39,0,0,1,2.36,2c2,2.77,2.61,5.52,4.63,5.39a5.93,5.93,0,0,0-7-7.42Z" transform="translate(-1160.26 -363.09)"/><path class="cls-23" d="M1181.63,405.27a3.91,3.91,0,1,1-1.06-5.43A3.91,3.91,0,0,1,1181.63,405.27Z" transform="translate(-1160.26 -363.09)"/><path class="cls-9" d="M1177.82,401.85a1.26,1.26,0,0,1-1.46-.34c-.72-1.16,1.45-1.66,2.18-1.19S1178.39,401.68,1177.82,401.85Z" transform="translate(-1160.26 -363.09)"/><path class="cls-9" d="M1180.16,400.59c.29.09.55.3.54.58,0,.72-1.12.31-1.31-.11S1179.86,400.5,1180.16,400.59Z" transform="translate(-1160.26 -363.09)"/><path class="cls-24" d="M1259.61,423.08a4.67,4.67,0,1,1,1.23-6.49A4.66,4.66,0,0,1,1259.61,423.08Z" transform="translate(-1160.26 -363.09)"/><path class="cls-25" d="M1257.37,420.94a8.73,8.73,0,0,1-3.07-1,8.31,8.31,0,0,1-2-1.38,4.67,4.67,0,0,0,8.51,3.23,4.57,4.57,0,0,0,.67-1.54A8.11,8.11,0,0,1,1257.37,420.94Z" transform="translate(-1160.26 -363.09)"/><path class="cls-26" d="M1254.48,422.18a11.9,11.9,0,0,1-1.39-.37,4.62,4.62,0,0,0,1.28,1.29,4.68,4.68,0,0,0,6.49-1.27,4.54,4.54,0,0,0,.64-1.4.13.13,0,0,1,0-.06,7.91,7.91,0,0,1-3.79,1.83A8.51,8.51,0,0,1,1254.48,422.18Z" transform="translate(-1160.26 -363.09)"/><path class="cls-27" d="M1261.26,421.1a4.67,4.67,0,0,0-8.15-4.49,4.81,4.81,0,0,0-.51,1,4.4,4.4,0,0,1,3.75.75C1258.63,419.88,1259.77,421.79,1261.26,421.1Z" transform="translate(-1160.26 -363.09)"/><path class="cls-28" d="M1256,414.66a5.09,5.09,0,0,1,1.86,1.6c1.61,2.18,2.05,4.34,3.65,4.24a4.67,4.67,0,0,0-5.51-5.84Z" transform="translate(-1160.26 -363.09)"/><path class="cls-29" d="M1259.51,419.56a3.08,3.08,0,1,1-.83-4.27A3.08,3.08,0,0,1,1259.51,419.56Z" transform="translate(-1160.26 -363.09)"/><path class="cls-9" d="M1256.51,416.87a1,1,0,0,1-1.15-.27c-.56-.92,1.14-1.31,1.72-.94S1257,416.74,1256.51,416.87Z" transform="translate(-1160.26 -363.09)"/><path class="cls-9" d="M1258.35,415.88c.23.07.44.23.43.45,0,.57-.88.25-1-.09S1258.12,415.81,1258.35,415.88Z" transform="translate(-1160.26 -363.09)"/></g></g></g></svg>