<svg xmlns="http://www.w3.org/2000/svg" xmlns:xlink="http://www.w3.org/1999/xlink" viewBox="0 0 29.61 29.61"><defs><style>.cls-1{isolation:isolate;}.cls-2{fill:url(#radial-gradient);}.cls-3{fill:url(#radial-gradient-2);}.cls-4,.cls-55,.cls-6,.cls-7,.cls-8,.cls-9{mix-blend-mode:screen;}.cls-4{fill:url(#radial-gradient-3);}.cls-5{opacity:0.7;}.cls-6{fill:url(#radial-gradient-4);}.cls-7{fill:url(#radial-gradient-5);}.cls-8{fill:url(#radial-gradient-6);}.cls-9{fill:url(#radial-gradient-7);}.cls-10,.cls-11,.cls-12,.cls-13,.cls-14,.cls-15,.cls-16,.cls-17,.cls-18,.cls-19,.cls-20,.cls-21,.cls-22,.cls-23,.cls-24,.cls-25,.cls-26,.cls-27,.cls-28,.cls-29,.cls-30,.cls-31,.cls-32,.cls-33,.cls-34,.cls-35,.cls-36,.cls-37,.cls-38,.cls-39,.cls-40,.cls-41,.cls-42,.cls-43,.cls-44,.cls-45,.cls-46,.cls-47,.cls-48,.cls-49,.cls-50,.cls-51,.cls-52,.cls-53,.cls-54,.cls-55{opacity:0.5;}.cls-10,.cls-11,.cls-12,.cls-13,.cls-14,.cls-15,.cls-16,.cls-17,.cls-18,.cls-19,.cls-20,.cls-21,.cls-22,.cls-23,.cls-24,.cls-25,.cls-26,.cls-27,.cls-28,.cls-29,.cls-30,.cls-31,.cls-32,.cls-33,.cls-34,.cls-35,.cls-36,.cls-37,.cls-38,.cls-39,.cls-40,.cls-41,.cls-42,.cls-43,.cls-44,.cls-45,.cls-46,.cls-47,.cls-48,.cls-49,.cls-50,.cls-51,.cls-52,.cls-53,.cls-54{mix-blend-mode:multiply;}.cls-10{fill:url(#radial-gradient-8);}.cls-11{fill:url(#radial-gradient-9);}.cls-12{fill:url(#radial-gradient-10);}.cls-13{fill:url(#radial-gradient-11);}.cls-14{fill:url(#radial-gradient-12);}.cls-15{fill:url(#radial-gradient-13);}.cls-16{fill:url(#radial-gradient-14);}.cls-17{fill:url(#radial-gradient-16);}.cls-18{fill:url(#radial-gradient-17);}.cls-19{fill:url(#radial-gradient-18);}.cls-20{fill:url(#radial-gradient-19);}.cls-21{fill:url(#radial-gradient-20);}.cls-22{fill:url(#radial-gradient-21);}.cls-23{fill:url(#radial-gradient-22);}.cls-24{fill:url(#radial-gradient-24);}.cls-25{fill:url(#radial-gradient-25);}.cls-26{fill:url(#radial-gradient-26);}.cls-27{fill:url(#radial-gradient-27);}.cls-28{fill:url(#radial-gradient-28);}.cls-29{fill:url(#radial-gradient-29);}.cls-30{fill:url(#radial-gradient-30);}.cls-31{fill:url(#radial-gradient-31);}.cls-32{fill:url(#radial-gradient-32);}.cls-33{fill:url(#radial-gradient-33);}.cls-34{fill:url(#radial-gradient-34);}.cls-35{fill:url(#radial-gradient-35);}.cls-36{fill:url(#radial-gradient-36);}.cls-37{fill:url(#radial-gradient-37);}.cls-38{fill:url(#radial-gradient-38);}.cls-39{fill:url(#radial-gradient-40);}.cls-40{fill:url(#radial-gradient-41);}.cls-41{fill:url(#radial-gradient-42);}.cls-42{fill:url(#radial-gradient-43);}.cls-43{fill:url(#radial-gradient-44);}.cls-44{fill:url(#radial-gradient-46);}.cls-45{fill:url(#radial-gradient-48);}.cls-46{fill:url(#radial-gradient-49);}.cls-47{fill:url(#radial-gradient-50);}.cls-48{fill:url(#radial-gradient-51);}.cls-49{fill:url(#radial-gradient-52);}.cls-50{fill:url(#radial-gradient-53);}.cls-51{fill:url(#radial-gradient-54);}.cls-52{fill:url(#radial-gradient-55);}.cls-53{fill:url(#radial-gradient-56);}.cls-54{fill:url(#radial-gradient-57);}.cls-55{fill:url(#radial-gradient-58);}</style><radialGradient id="radial-gradient" cx="703.53" cy="282.38" r="14.97" gradientTransform="translate(213.04 -306.79) rotate(29.34)" gradientUnits="userSpaceOnUse"><stop offset="0" stop-color="#8ee1ee"/><stop offset="0.62" stop-color="#5e8dec"/><stop offset="0.7" stop-color="#5e8ceb" stop-opacity="0.99"/><stop offset="0.75" stop-color="#5f8ae9" stop-opacity="0.95"/><stop offset="0.8" stop-color="#6085e5" stop-opacity="0.89"/><stop offset="0.84" stop-color="#627fdf" stop-opacity="0.8"/><stop offset="0.87" stop-color="#6576d8" stop-opacity="0.68"/><stop offset="0.91" stop-color="#686cce" stop-opacity="0.54"/><stop offset="0.94" stop-color="#6c60c4" stop-opacity="0.37"/><stop offset="0.97" stop-color="#7053b7" stop-opacity="0.18"/><stop offset="1" stop-color="#7446ac" stop-opacity="0"/></radialGradient><radialGradient id="radial-gradient-2" cx="704.93" cy="270.84" r="26.09" gradientTransform="matrix(0.7, 0.71, -0.71, 0.7, 394.17, -414.75)" gradientUnits="userSpaceOnUse"><stop offset="0" stop-color="#8ee1ee"/><stop offset="0.62" stop-color="#5e8dec"/><stop offset="0.63" stop-color="#5f89e8"/><stop offset="0.74" stop-color="#6b64c7"/><stop offset="0.84" stop-color="#714eb3"/><stop offset="0.9" stop-color="#7446ac"/></radialGradient><radialGradient id="radial-gradient-3" cx="679.76" cy="405.85" r="24.81" gradientTransform="matrix(1.18, 0.66, -0.58, 1.03, 123.07, -614.61)" xlink:href="#radial-gradient-2"/><radialGradient id="radial-gradient-4" cx="704.62" cy="270.98" r="19.42" gradientTransform="translate(75.56 -162.73) rotate(14.25)" xlink:href="#radial-gradient-2"/><radialGradient id="radial-gradient-5" cx="704.62" cy="270.98" r="19.42" gradientTransform="translate(75.56 -162.73) rotate(14.25)" xlink:href="#radial-gradient-2"/><radialGradient id="radial-gradient-6" cx="704.62" cy="270.98" r="19.42" gradientTransform="translate(75.56 -162.73) rotate(14.25)" xlink:href="#radial-gradient-2"/><radialGradient id="radial-gradient-7" cx="704.62" cy="270.98" r="19.42" gradientTransform="translate(75.56 -162.73) rotate(14.25)" xlink:href="#radial-gradient-2"/><radialGradient id="radial-gradient-8" cx="704.91" cy="274.4" r="22.84" gradientTransform="translate(75.56 -162.73) rotate(14.25)" xlink:href="#radial-gradient-2"/><radialGradient id="radial-gradient-9" cx="704.76" cy="281.41" r="16.79" gradientTransform="translate(75.56 -162.73) rotate(14.25)" xlink:href="#radial-gradient-2"/><radialGradient id="radial-gradient-10" cx="702.6" cy="268.49" r="5.82" gradientTransform="translate(75.56 -162.73) rotate(14.25)" xlink:href="#radial-gradient-2"/><radialGradient id="radial-gradient-11" cx="702.6" cy="268.49" r="5.82" gradientTransform="translate(75.56 -162.73) rotate(14.25)" xlink:href="#radial-gradient-2"/><radialGradient id="radial-gradient-12" cx="416.68" cy="211.12" r="5.82" gradientTransform="translate(1071.51 3.61) rotate(115.49)" xlink:href="#radial-gradient-2"/><radialGradient id="radial-gradient-13" cx="416.68" cy="211.12" r="5.82" gradientTransform="translate(1071.51 3.61) rotate(115.49)" xlink:href="#radial-gradient-2"/><radialGradient id="radial-gradient-14" cx="367.3" cy="516.86" r="5.81" gradientTransform="translate(952.97 872.31) rotate(-169.32)" xlink:href="#radial-gradient-2"/><radialGradient id="radial-gradient-16" cx="468.73" cy="536.57" r="6.97" gradientTransform="matrix(-0.67, -0.74, 1.31, -1.18, 288.85, 1275.22)" xlink:href="#radial-gradient-2"/><radialGradient id="radial-gradient-17" cx="698.17" cy="279.95" r="8.88" gradientTransform="translate(75.56 -162.73) rotate(14.25)" xlink:href="#radial-gradient-2"/><radialGradient id="radial-gradient-18" cx="734.45" cy="421.63" r="4.49" gradientTransform="matrix(0.89, 0.47, -0.82, 1.56, 387.45, -727.26)" xlink:href="#radial-gradient-2"/><radialGradient id="radial-gradient-19" cx="364.36" cy="305.61" r="5.71" gradientTransform="translate(1086.18 547.56) rotate(173.96)" xlink:href="#radial-gradient-2"/><radialGradient id="radial-gradient-20" cx="388.59" cy="485.39" r="5.63" gradientTransform="matrix(-0.91, 0.42, -0.74, -1.6, 1409.76, 907.12)" xlink:href="#radial-gradient-2"/><radialGradient id="radial-gradient-21" cx="714.8" cy="400.63" r="7.17" gradientTransform="translate(-26.36 689.4) rotate(-58.66)" xlink:href="#radial-gradient-2"/><radialGradient id="radial-gradient-22" cx="791.61" cy="615.38" r="4.58" gradientTransform="translate(-322.58 304.69) rotate(-39.54)" xlink:href="#radial-gradient-2"/><radialGradient id="radial-gradient-24" cx="605.67" cy="706.72" r="5.82" gradientTransform="matrix(-0.28, -0.96, 0.96, -0.28, 165.87, 1069.19)" xlink:href="#radial-gradient-2"/><radialGradient id="radial-gradient-25" cx="605.67" cy="706.72" r="5.82" gradientTransform="matrix(-0.28, -0.96, 0.96, -0.28, 165.87, 1069.19)" xlink:href="#radial-gradient-2"/><radialGradient id="radial-gradient-26" cx="649.72" cy="175.91" r="3.29" gradientTransform="matrix(0.72, 0.7, -0.7, 0.72, 353.59, -304.85)" xlink:href="#radial-gradient-2"/><radialGradient id="radial-gradient-27" cx="649.72" cy="175.91" r="3.29" gradientTransform="matrix(0.72, 0.7, -0.7, 0.72, 353.59, -304.85)" xlink:href="#radial-gradient-2"/><radialGradient id="radial-gradient-28" cx="360.64" cy="513.61" r="3.29" gradientTransform="translate(1048.93 812.42) rotate(-179.83)" xlink:href="#radial-gradient-2"/><radialGradient id="radial-gradient-29" cx="360.64" cy="513.61" r="3.29" gradientTransform="translate(1048.93 812.42) rotate(-179.83)" xlink:href="#radial-gradient-2"/><radialGradient id="radial-gradient-30" cx="513.26" cy="693.02" r="3.29" gradientTransform="translate(-106.07 648.62) rotate(-78.59)" xlink:href="#radial-gradient-2"/><radialGradient id="radial-gradient-31" cx="513.26" cy="693.02" r="3.29" gradientTransform="translate(-106.07 648.62) rotate(-78.59)" xlink:href="#radial-gradient-2"/><radialGradient id="radial-gradient-32" cx="168.99" cy="662.07" r="3.29" gradientTransform="translate(528.42 962.4) rotate(-152.61)" xlink:href="#radial-gradient-2"/><radialGradient id="radial-gradient-33" cx="168.99" cy="662.07" r="3.29" gradientTransform="translate(528.42 962.4) rotate(-152.61)" xlink:href="#radial-gradient-2"/><radialGradient id="radial-gradient-34" cx="551.01" cy="151.96" r="2.53" gradientTransform="matrix(0.12, 0.99, -0.99, 0.12, 788.56, -280.97)" xlink:href="#radial-gradient-2"/><radialGradient id="radial-gradient-35" cx="551.01" cy="151.96" r="2.53" gradientTransform="matrix(0.12, 0.99, -0.99, 0.12, 788.56, -280.97)" xlink:href="#radial-gradient-2"/><radialGradient id="radial-gradient-36" cx="418.99" cy="325.68" r="2.53" gradientTransform="translate(1227.48 309.71) rotate(143.84)" xlink:href="#radial-gradient-2"/><radialGradient id="radial-gradient-37" cx="418.99" cy="325.68" r="2.53" gradientTransform="translate(1227.48 309.71) rotate(143.84)" xlink:href="#radial-gradient-2"/><radialGradient id="radial-gradient-38" cx="786.15" cy="765.7" r="1.72" gradientTransform="translate(-34.52 1119.79) rotate(-93.81)" xlink:href="#radial-gradient-2"/><radialGradient id="radial-gradient-40" cx="1043.73" cy="563.72" r="1.72" gradientTransform="matrix(0.95, -0.32, 0.56, 1.65, -617.36, -315.09)" xlink:href="#radial-gradient-2"/><radialGradient id="radial-gradient-41" cx="1043.73" cy="563.72" r="1.72" gradientTransform="matrix(0.95, -0.32, 0.56, 1.65, -617.36, -315.09)" xlink:href="#radial-gradient-2"/><radialGradient id="radial-gradient-42" cx="986.92" cy="445.05" r="1.72" gradientTransform="translate(155.88 -663.89) rotate(35.92)" xlink:href="#radial-gradient-2"/><radialGradient id="radial-gradient-43" cx="986.92" cy="445.05" r="1.72" gradientTransform="translate(155.88 -663.89) rotate(35.92)" xlink:href="#radial-gradient-2"/><radialGradient id="radial-gradient-44" cx="739.6" cy="505.04" r="1.37" gradientTransform="matrix(-0.51, 0.86, -1.41, -0.84, 1787.45, 77.5)" xlink:href="#radial-gradient-2"/><radialGradient id="radial-gradient-46" cx="667.12" cy="489.88" r="3.29" gradientTransform="translate(-127.97 99.92) rotate(-24.29)" xlink:href="#radial-gradient-2"/><radialGradient id="radial-gradient-48" cx="753.82" cy="390" r="7.63" gradientTransform="matrix(0.96, -0.27, 0.22, 0.8, -123.07, 177.34)" xlink:href="#radial-gradient-2"/><radialGradient id="radial-gradient-49" cx="753.82" cy="390" r="7.63" gradientTransform="matrix(0.96, -0.27, 0.22, 0.8, -123.07, 177.34)" xlink:href="#radial-gradient-2"/><radialGradient id="radial-gradient-50" cx="421.56" cy="4.52" r="8.51" gradientTransform="matrix(0.22, 0.98, -0.81, 0.18, 597.12, -127.04)" xlink:href="#radial-gradient-2"/><radialGradient id="radial-gradient-51" cx="423.04" cy="6.88" r="5.14" gradientTransform="matrix(0.22, 0.98, -0.81, 0.18, 597.12, -127.04)" xlink:href="#radial-gradient-2"/><radialGradient id="radial-gradient-52" cx="310.56" cy="10.11" r="4.19" gradientTransform="matrix(-0.13, 0.99, -0.82, -0.11, 728.84, -24.44)" xlink:href="#radial-gradient-2"/><radialGradient id="radial-gradient-53" cx="309.53" cy="-17.1" r="6.09" gradientTransform="matrix(-0.13, 0.99, -0.82, -0.11, 728.84, -24.44)" xlink:href="#radial-gradient-2"/><radialGradient id="radial-gradient-54" cx="310.77" cy="-15.06" r="3.99" gradientTransform="matrix(-0.13, 0.99, -0.82, -0.11, 728.84, -24.44)" xlink:href="#radial-gradient-2"/><radialGradient id="radial-gradient-55" cx="552.51" cy="50.85" r="7.63" gradientTransform="matrix(0.6, 0.8, -0.66, 0.5, 382.84, -176.5)" xlink:href="#radial-gradient-2"/><radialGradient id="radial-gradient-56" cx="552.51" cy="50.85" r="7.63" gradientTransform="matrix(0.6, 0.8, -0.66, 0.5, 382.84, -176.5)" xlink:href="#radial-gradient-2"/><radialGradient id="radial-gradient-57" cx="549.78" cy="50.88" r="7.63" gradientTransform="matrix(0.6, 0.8, -0.66, 0.5, 382.84, -176.5)" xlink:href="#radial-gradient-2"/><radialGradient id="radial-gradient-58" cx="635.15" cy="442.66" r="46.12" gradientTransform="translate(-96.04 234.51) rotate(-33.07)" xlink:href="#radial-gradient-2"/></defs><title>planet_1.module_2</title><g class="cls-1"><g id="Calque_2" data-name="Calque 2"><g id="BACKGROUND1"><circle class="cls-2" cx="688.05" cy="284.19" r="14.8" transform="translate(-723.5 -80.44) rotate(-15.09)"/><path class="cls-4" d="M678.55,280a5.38,5.38,0,0,1,.9-3.76,9.83,9.83,0,0,1,6-3.82c7.19-1.92,13,4.19,12.9,7.11s-3.26,3.68-6.81,1.83-7.45,1.62-10.06,1a4.12,4.12,0,0,1-2.57-1.57A2.32,2.32,0,0,1,678.55,280Z" transform="translate(-673.24 -269.38)"/><g class="cls-5"><path class="cls-6" d="M681.88,276.15a25.83,25.83,0,0,1,0-2.92,12.56,12.56,0,0,0-6,13.83,12.89,12.89,0,0,1,.39-3.3A12.47,12.47,0,0,1,681.88,276.15Z" transform="translate(-673.24 -269.38)"/><path class="cls-7" d="M697.25,275.58a12.53,12.53,0,0,0-14.63-2.76,25.68,25.68,0,0,0,0,2.91,12.52,12.52,0,0,1,8.88-1,12.65,12.65,0,0,1,5.54,3.05A14.36,14.36,0,0,0,697.25,275.58Z" transform="translate(-673.24 -269.38)"/><path class="cls-8" d="M699.46,280.93a10.52,10.52,0,0,0,.27-1.38,12.26,12.26,0,0,0-1.94-3.34,13.88,13.88,0,0,1-.28,2A12.59,12.59,0,0,1,699.46,280.93Z" transform="translate(-673.24 -269.38)"/><path class="cls-9" d="M699.84,281.69a12.86,12.86,0,0,1,.75,2.19,12,12,0,0,0-.48-3.23C700,281,699.94,281.34,699.84,281.69Z" transform="translate(-673.24 -269.38)"/></g><path class="cls-10" d="M699,277.23a10.41,10.41,0,0,1-.26,3.75,10.61,10.61,0,0,1-20.57-5.23s0,0,0-.06A13,13,0,1,0,699,277.23Z" transform="translate(-673.24 -269.38)"/><path class="cls-11" d="M700.52,285.35v0a12.57,12.57,0,0,1-24.69-4.64,12.58,12.58,0,1,0,24.4,6.13A13.94,13.94,0,0,0,700.52,285.35Z" transform="translate(-673.24 -269.38)"/><path class="cls-12" d="M694.49,274.37c-.2.79-1.72,1.09-3.38.67s-2.86-1.41-2.66-2.2,1.72-1.1,3.39-.67S694.69,273.58,694.49,274.37Z" transform="translate(-673.24 -269.38)"/><path class="cls-13" d="M688.57,273.49a4.13,4.13,0,0,0,2.54,1.55,3.75,3.75,0,0,0,3.14-.28,4.13,4.13,0,0,0-2.54-1.54A3.75,3.75,0,0,0,688.57,273.49Z" transform="translate(-673.24 -269.38)"/><path class="cls-14" d="M696.92,292c-.74-.36-.73-1.9,0-3.45s1.94-2.53,2.67-2.18.74,1.9,0,3.45S697.66,292.38,696.92,292Z" transform="translate(-673.24 -269.38)"/><path class="cls-15" d="M698.93,286.39a4.14,4.14,0,0,0-2,2.19,3.68,3.68,0,0,0-.34,3.13,4.14,4.14,0,0,0,2-2.19A3.68,3.68,0,0,0,698.93,286.39Z" transform="translate(-673.24 -269.38)"/><path class="cls-16" d="M683.56,292.58c.15-.81,1.65-1.2,3.34-.88s2.94,1.23,2.78,2-1.64,1.2-3.33.88S683.41,293.38,683.56,292.58Z" transform="translate(-673.24 -269.38)"/><path class="cls-16" d="M689.53,293.08a4.17,4.17,0,0,0-2.63-1.38,3.74,3.74,0,0,0-3.12.47,4.12,4.12,0,0,0,2.63,1.38A3.75,3.75,0,0,0,689.53,293.08Z" transform="translate(-673.24 -269.38)"/><path class="cls-17" d="M680.9,283.9a3.48,3.48,0,0,1,4.83.67c1.38,1.54,1.46,3.72.17,4.88s-3.45.85-4.83-.68S679.61,285.05,680.9,283.9Z" transform="translate(-673.24 -269.38)"/><path class="cls-18" d="M685.73,284.57a2.79,2.79,0,1,0,.51,4.5A3.6,3.6,0,0,0,685.73,284.57Z" transform="translate(-673.24 -269.38)"/><path class="cls-19" d="M692.37,279.38a2.44,2.44,0,1,1-1.19-2.91A2.25,2.25,0,0,1,692.37,279.38Z" transform="translate(-673.24 -269.38)"/><path class="cls-20" d="M689.3,280.05a1.8,1.8,0,1,0-1.31-2.61A2.33,2.33,0,0,0,689.3,280.05Z" transform="translate(-673.24 -269.38)"/><path class="cls-21" d="M689.69,290a3.06,3.06,0,1,1,3.8,1A2.81,2.81,0,0,1,689.69,290Z" transform="translate(-673.24 -269.38)"/><path class="cls-22" d="M691.36,286.39a2.25,2.25,0,1,0,3.59.68A2.91,2.91,0,0,0,691.36,286.39Z" transform="translate(-673.24 -269.38)"/><path class="cls-23" d="M684.07,274.61c.41.49-.1,1.6-1.15,2.46s-2.23,1.16-2.64.66.11-1.6,1.15-2.46S683.66,274.11,684.07,274.61Z" transform="translate(-673.24 -269.38)"/><path class="cls-23" d="M680.76,278a3.27,3.27,0,0,0,2.16-.89,3,3,0,0,0,1.29-2.13,3.29,3.29,0,0,0-2.17.9A2.91,2.91,0,0,0,680.76,278Z" transform="translate(-673.24 -269.38)"/><path class="cls-24" d="M676.18,284.43c.78-.22,1.81.93,2.29,2.58s.23,3.18-.55,3.41-1.81-.93-2.29-2.58S675.39,284.66,676.18,284.43Z" transform="translate(-673.24 -269.38)"/><path class="cls-25" d="M678.43,290a4.2,4.2,0,0,0,0-3,3.73,3.73,0,0,0-1.83-2.56,4.11,4.11,0,0,0,0,3A3.76,3.76,0,0,0,678.43,290Z" transform="translate(-673.24 -269.38)"/><path class="cls-26" d="M697.67,277.3c-.32.33-1.15.05-1.85-.63s-1-1.5-.68-1.83,1.15,0,1.85.63S698,277,697.67,277.3Z" transform="translate(-673.24 -269.38)"/><path class="cls-27" d="M695,275.2a2.38,2.38,0,0,0,.81,1.47,2.12,2.12,0,0,0,1.62.75,2.31,2.31,0,0,0-.81-1.47A2.09,2.09,0,0,0,695,275.2Z" transform="translate(-673.24 -269.38)"/><path class="cls-28" d="M687.07,296.1c0-.46.79-.83,1.77-.83s1.76.38,1.76.85-.8.83-1.77.83S687.07,296.57,687.07,296.1Z" transform="translate(-673.24 -269.38)"/><path class="cls-29" d="M690.44,295.77a2.34,2.34,0,0,0-1.6-.5,2.12,2.12,0,0,0-1.69.59,2.33,2.33,0,0,0,1.6.49A2.08,2.08,0,0,0,690.44,295.77Z" transform="translate(-673.24 -269.38)"/><path class="cls-30" d="M676.88,280.21c.46.09.67.94.48,1.89s-.72,1.66-1.17,1.57-.67-.94-.48-1.9S676.43,280.12,676.88,280.21Z" transform="translate(-673.24 -269.38)"/><path class="cls-31" d="M676.56,283.58a2.43,2.43,0,0,0,.8-1.48,2.12,2.12,0,0,0-.25-1.76,2.31,2.31,0,0,0-.8,1.47A2.07,2.07,0,0,0,676.56,283.58Z" transform="translate(-673.24 -269.38)"/><path class="cls-32" d="M681.21,294.1c.21-.41,1.09-.38,1.95.07s1.4,1.14,1.18,1.55-1.08.38-2-.06S681,294.51,681.21,294.1Z" transform="translate(-673.24 -269.38)"/><path class="cls-33" d="M684.36,295.34a2.33,2.33,0,0,0-1.2-1.17,2.1,2.1,0,0,0-1.77-.25,2.41,2.41,0,0,0,1.2,1.17A2.11,2.11,0,0,0,684.36,295.34Z" transform="translate(-673.24 -269.38)"/><path class="cls-34" d="M700.38,286.19c-.35,0-.7-.53-.79-1.27s.13-1.38.48-1.42.71.53.8,1.27S700.74,286.15,700.38,286.19Z" transform="translate(-673.24 -269.38)"/><path class="cls-35" d="M699.82,283.65a1.86,1.86,0,0,0-.23,1.27,1.63,1.63,0,0,0,.6,1.23,1.81,1.81,0,0,0,.23-1.27A1.63,1.63,0,0,0,699.82,283.65Z" transform="translate(-673.24 -269.38)"/><path class="cls-36" d="M694.55,294.26c-.21-.29.11-.88.71-1.32s1.26-.57,1.47-.28-.11.88-.71,1.32S694.76,294.54,694.55,294.26Z" transform="translate(-673.24 -269.38)"/><path class="cls-37" d="M696.48,292.52a1.74,1.74,0,0,0-1.22.42,1.59,1.59,0,0,0-.77,1.13,1.79,1.79,0,0,0,1.21-.43A1.6,1.6,0,0,0,696.48,292.52Z" transform="translate(-673.24 -269.38)"/><path class="cls-38" d="M678.05,283c.24,0,.46.38.5.89s-.14.93-.38.95-.46-.38-.5-.89S677.81,283,678.05,283Z" transform="translate(-673.24 -269.38)"/><path class="cls-38" d="M678.35,284.77a1.29,1.29,0,0,0,.2-.86,1.12,1.12,0,0,0-.37-.86,1.27,1.27,0,0,0-.2.86A1.12,1.12,0,0,0,678.35,284.77Z" transform="translate(-673.24 -269.38)"/><path class="cls-39" d="M687.33,278.12a.94.94,0,1,1-1.12-.42A.85.85,0,0,1,687.33,278.12Z" transform="translate(-673.24 -269.38)"/><path class="cls-40" d="M685.76,279a.93.93,0,0,0,.94.16.92.92,0,0,0,.66-.79,1,1,0,0,0-.94-.16A.93.93,0,0,0,685.76,279Z" transform="translate(-673.24 -269.38)"/><path class="cls-41" d="M694.66,277.06c-.14.2-.59.12-1-.18s-.63-.7-.49-.9.6-.11,1,.19S694.8,276.87,694.66,277.06Z" transform="translate(-673.24 -269.38)"/><path class="cls-42" d="M693.12,276.18a1.28,1.28,0,0,0,.53.7,1.16,1.16,0,0,0,.9.27,1.26,1.26,0,0,0-.53-.71A1.11,1.11,0,0,0,693.12,276.18Z" transform="translate(-673.24 -269.38)"/><path class="cls-43" d="M696.14,287.73a.66.66,0,0,1-.11-.92.59.59,0,1,1,1,.59A.66.66,0,0,1,696.14,287.73Z" transform="translate(-673.24 -269.38)"/><path class="cls-43" d="M696.66,286.41a.78.78,0,0,0-.63.4.72.72,0,0,0,0,.81.8.8,0,0,0,.63-.4A.74.74,0,0,0,696.66,286.41Z" transform="translate(-673.24 -269.38)"/><path class="cls-44" d="M684.84,272.33c.19.42-.37,1.09-1.26,1.49s-1.76.38-2,0,.37-1.09,1.26-1.49S684.65,271.91,684.84,272.33Z" transform="translate(-673.24 -269.38)"/><path class="cls-44" d="M681.91,274a2.32,2.32,0,0,0,1.67-.21,2.1,2.1,0,0,0,1.29-1.23,2.35,2.35,0,0,0-1.66.21A2.18,2.18,0,0,0,681.91,274Z" transform="translate(-673.24 -269.38)"/><path class="cls-45" d="M692.1,293.76c0,.2-.19.44-.54.54s-.68,0-.73-.18.18-.44.54-.54S692,293.57,692.1,293.76Z" transform="translate(-673.24 -269.38)"/><path class="cls-46" d="M693,292.91c0,.12-.11.27-.32.33s-.42,0-.45-.11.11-.27.33-.33S692.94,292.79,693,292.91Z" transform="translate(-673.24 -269.38)"/><path class="cls-47" d="M679.31,287.64c-.22.05-.47-.23-.56-.63s0-.75.25-.8.47.23.56.62S679.54,287.59,679.31,287.64Z" transform="translate(-673.24 -269.38)"/><path class="cls-48" d="M679.79,288.61c-.14,0-.29-.14-.34-.38s0-.45.15-.48.29.14.34.38S679.93,288.58,679.79,288.61Z" transform="translate(-673.24 -269.38)"/><path class="cls-49" d="M677.7,282.63c-.11,0-.18-.19-.16-.38s.14-.35.25-.34.19.19.16.39S677.81,282.65,677.7,282.63Z" transform="translate(-673.24 -269.38)"/><path class="cls-50" d="M699,284.59c-.16,0-.26-.27-.23-.56s.2-.5.37-.48.26.27.22.56S699.14,284.62,699,284.59Z" transform="translate(-673.24 -269.38)"/><path class="cls-51" d="M698.55,285.52c-.11,0-.18-.18-.15-.36s.13-.34.24-.32.17.18.15.37S698.66,285.54,698.55,285.52Z" transform="translate(-673.24 -269.38)"/><path class="cls-52" d="M680,292.77c-.16.13-.47,0-.69-.3s-.27-.62-.1-.75.47,0,.69.3S680.21,292.65,680,292.77Z" transform="translate(-673.24 -269.38)"/><path class="cls-53" d="M681.16,293.27c-.1.07-.29,0-.42-.18s-.17-.38-.07-.46.29,0,.43.18S681.26,293.19,681.16,293.27Z" transform="translate(-673.24 -269.38)"/><path class="cls-54" d="M679.49,291.11c-.1.08-.29,0-.42-.18s-.17-.38-.07-.46.29,0,.43.18S679.59,291,679.49,291.11Z" transform="translate(-673.24 -269.38)"/><path class="cls-55" d="M685.61,273.11c0-.21.25-.4.62-.44s.67.1.69.31-.26.4-.62.43S685.63,273.31,685.61,273.11ZM685,274c.22,0,.39-.14.38-.26s-.2-.21-.42-.19-.39.14-.38.27S684.8,274,685,274Zm2.71-.29c.22,0,.39-.14.38-.26s-.2-.21-.42-.19-.39.14-.38.27S687.51,273.72,687.73,273.69Zm8.15,4.41c.1-.17.44-.16.75,0s.48.48.38.66-.45.17-.76,0S695.77,278.28,695.88,278.1Zm1.36,1.74c.19.11.4.12.46,0s0-.29-.23-.4-.39-.12-.46,0S697.05,279.73,697.24,279.84Z" transform="translate(-673.24 -269.38)"/></g></g></g></svg>