<svg xmlns="http://www.w3.org/2000/svg" xmlns:xlink="http://www.w3.org/1999/xlink" viewBox="0 0 204.66 159.35"><defs><style>.cls-1{isolation:isolate;}.cls-10,.cls-12,.cls-13,.cls-14,.cls-15,.cls-16,.cls-18,.cls-19,.cls-2,.cls-20,.cls-21,.cls-22,.cls-24,.cls-25,.cls-26,.cls-27,.cls-28,.cls-30,.cls-31,.cls-32,.cls-33,.cls-34,.cls-36,.cls-37,.cls-38,.cls-39,.cls-40,.cls-42,.cls-43,.cls-44,.cls-45,.cls-46,.cls-48,.cls-49,.cls-50,.cls-51,.cls-6,.cls-7,.cls-9{opacity:0.5;}.cls-2{fill:url(#radial-gradient);}.cls-3{fill:url(#radial-gradient-2);}.cls-4,.cls-5,.cls-52,.cls-53,.cls-54,.cls-55,.cls-56{opacity:0.25;}.cls-12,.cls-13,.cls-18,.cls-19,.cls-24,.cls-25,.cls-30,.cls-31,.cls-36,.cls-37,.cls-4,.cls-42,.cls-43,.cls-48,.cls-49,.cls-5,.cls-52,.cls-53,.cls-54{mix-blend-mode:screen;}.cls-4{fill:url(#radial-gradient-3);}.cls-5{fill:url(#radial-gradient-4);}.cls-14,.cls-15,.cls-20,.cls-21,.cls-26,.cls-27,.cls-32,.cls-33,.cls-38,.cls-39,.cls-44,.cls-45,.cls-50,.cls-51,.cls-55,.cls-56,.cls-6,.cls-7,.cls-9{mix-blend-mode:multiply;}.cls-6{fill:url(#radial-gradient-5);}.cls-7{fill:url(#radial-gradient-6);}.cls-8{fill:url(#radial-gradient-7);}.cls-9{fill:url(#radial-gradient-8);}.cls-10{fill:url(#radial-gradient-9);}.cls-11{fill:url(#radial-gradient-10);}.cls-12{fill:url(#radial-gradient-11);}.cls-13{fill:url(#radial-gradient-12);}.cls-14{fill:url(#radial-gradient-13);}.cls-15{fill:url(#radial-gradient-14);}.cls-16{fill:url(#radial-gradient-15);}.cls-17{fill:url(#radial-gradient-16);}.cls-18{fill:url(#radial-gradient-17);}.cls-19{fill:url(#radial-gradient-18);}.cls-20{fill:url(#radial-gradient-19);}.cls-21{fill:url(#radial-gradient-20);}.cls-22{fill:url(#radial-gradient-21);}.cls-23{fill:url(#radial-gradient-22);}.cls-24{fill:url(#radial-gradient-23);}.cls-25{fill:url(#radial-gradient-24);}.cls-26{fill:url(#radial-gradient-25);}.cls-27{fill:url(#radial-gradient-26);}.cls-28{fill:url(#radial-gradient-27);}.cls-29{fill:url(#radial-gradient-28);}.cls-30{fill:url(#radial-gradient-29);}.cls-31{fill:url(#radial-gradient-30);}.cls-32{fill:url(#radial-gradient-31);}.cls-33{fill:url(#radial-gradient-32);}.cls-34{fill:url(#radial-gradient-33);}.cls-35{fill:url(#radial-gradient-34);}.cls-36{fill:url(#radial-gradient-35);}.cls-37{fill:url(#radial-gradient-36);}.cls-38{fill:url(#radial-gradient-37);}.cls-39{fill:url(#radial-gradient-38);}.cls-40{fill:url(#radial-gradient-39);}.cls-41{fill:url(#radial-gradient-40);}.cls-42{fill:url(#radial-gradient-41);}.cls-43{fill:url(#radial-gradient-42);}.cls-44{fill:url(#radial-gradient-43);}.cls-45{fill:url(#radial-gradient-44);}.cls-46{fill:url(#radial-gradient-45);}.cls-47{fill:url(#radial-gradient-46);}.cls-48{fill:url(#radial-gradient-47);}.cls-49{fill:url(#radial-gradient-48);}.cls-50{fill:url(#radial-gradient-49);}.cls-51{fill:url(#radial-gradient-50);}.cls-52{fill:url(#radial-gradient-51);}.cls-53{fill:url(#radial-gradient-52);}.cls-54{fill:url(#radial-gradient-53);}.cls-55{fill:url(#radial-gradient-54);}.cls-56{fill:url(#radial-gradient-55);}</style><radialGradient id="radial-gradient" cx="654.03" cy="452.62" r="79.83" gradientTransform="translate(509.9 -329.5) rotate(45)" gradientUnits="userSpaceOnUse"><stop offset="0.06" stop-color="#5e8dec"/><stop offset="0.24" stop-color="#5f8eec" stop-opacity="0.99"/><stop offset="0.37" stop-color="#6091ec" stop-opacity="0.95"/><stop offset="0.48" stop-color="#6497ec" stop-opacity="0.88"/><stop offset="0.59" stop-color="#689fec" stop-opacity="0.79"/><stop offset="0.68" stop-color="#6ea9ed" stop-opacity="0.66"/><stop offset="0.78" stop-color="#75b6ed" stop-opacity="0.51"/><stop offset="0.87" stop-color="#7ec5ed" stop-opacity="0.34"/><stop offset="0.95" stop-color="#87d6ee" stop-opacity="0.14"/><stop offset="1" stop-color="#8ee1ee" stop-opacity="0"/></radialGradient><radialGradient id="radial-gradient-2" cx="630.87" cy="418.99" r="129.02" gradientTransform="translate(509.9 -329.5) rotate(45)" gradientUnits="userSpaceOnUse"><stop offset="0.08" stop-color="#ffe245"/><stop offset="0.53" stop-color="#de007b"/><stop offset="1" stop-color="#e38427"/></radialGradient><radialGradient id="radial-gradient-3" cx="639.23" cy="406.35" r="97.71" gradientUnits="userSpaceOnUse"><stop offset="0" stop-color="#8ee1ee"/><stop offset="0.94" stop-color="#5e8dec"/></radialGradient><radialGradient id="radial-gradient-4" cx="453.69" cy="520.7" r="97.71" gradientTransform="translate(-20.61 159.89) rotate(-27.07)" xlink:href="#radial-gradient-3"/><radialGradient id="radial-gradient-5" cx="691.21" cy="451.62" r="246.83" xlink:href="#radial-gradient-3"/><radialGradient id="radial-gradient-6" cx="387.85" cy="582.81" r="246.82" gradientTransform="matrix(0.73, -0.69, 0.69, 0.73, -1.83, 268.89)" xlink:href="#radial-gradient-3"/><radialGradient id="radial-gradient-7" cx="651.96" cy="449.01" r="81.35" gradientUnits="userSpaceOnUse"><stop offset="0.02" stop-color="#732fa4"/><stop offset="0.35" stop-color="#702da1"/><stop offset="0.62" stop-color="#682797"/><stop offset="0.86" stop-color="#591d86"/><stop offset="1" stop-color="#4f1579"/><stop offset="1" stop-color="#51167b"/></radialGradient><radialGradient id="radial-gradient-8" cx="651.64" cy="448.43" r="76.82" xlink:href="#radial-gradient-7"/><radialGradient id="radial-gradient-9" cx="579.99" cy="500.17" r="17.71" gradientTransform="translate(523.16 -263.53) rotate(45)" gradientUnits="userSpaceOnUse"><stop offset="0.06" stop-color="#ecb900"/><stop offset="0.24" stop-color="#ecb901" stop-opacity="0.99"/><stop offset="0.37" stop-color="#ecb802" stop-opacity="0.95"/><stop offset="0.48" stop-color="#ecb705" stop-opacity="0.88"/><stop offset="0.59" stop-color="#ecb509" stop-opacity="0.79"/><stop offset="0.68" stop-color="#edb30e" stop-opacity="0.66"/><stop offset="0.78" stop-color="#edb014" stop-opacity="0.51"/><stop offset="0.87" stop-color="#edac1b" stop-opacity="0.34"/><stop offset="0.95" stop-color="#eea923" stop-opacity="0.14"/><stop offset="1" stop-color="#eea629" stop-opacity="0"/></radialGradient><radialGradient id="radial-gradient-10" cx="26.77" cy="121.63" r="28.62" gradientUnits="userSpaceOnUse"><stop offset="0" stop-color="#eeca6c"/><stop offset="0.34" stop-color="#eea629"/><stop offset="0.94" stop-color="#ecb900"/></radialGradient><radialGradient id="radial-gradient-11" cx="576.7" cy="489.9" r="21.68" gradientUnits="userSpaceOnUse"><stop offset="0" stop-color="#eea629"/><stop offset="0.94" stop-color="#ecb900"/></radialGradient><radialGradient id="radial-gradient-12" cx="376.87" cy="565.93" r="21.68" gradientTransform="translate(-20.61 159.89) rotate(-27.07)" xlink:href="#radial-gradient-11"/><radialGradient id="radial-gradient-13" cx="588.24" cy="499.94" r="54.76" xlink:href="#radial-gradient-11"/><radialGradient id="radial-gradient-14" cx="271.19" cy="567.9" r="54.76" gradientTransform="matrix(0.73, -0.69, 0.69, 0.73, -1.83, 268.89)" xlink:href="#radial-gradient-11"/><radialGradient id="radial-gradient-15" cx="721.94" cy="438.1" r="14.7" gradientTransform="translate(520.92 -382.1) rotate(45)" xlink:href="#radial-gradient"/><radialGradient id="radial-gradient-16" cx="717.67" cy="431.9" r="23.77" gradientTransform="translate(520.92 -382.1) rotate(45)" gradientUnits="userSpaceOnUse"><stop offset="0" stop-color="#d1e1ee"/><stop offset="0.34" stop-color="#8ee1ee"/><stop offset="0.94" stop-color="#5e8dec"/></radialGradient><radialGradient id="radial-gradient-17" cx="719.21" cy="429.57" r="18" xlink:href="#radial-gradient-3"/><radialGradient id="radial-gradient-18" cx="532.04" cy="577.03" r="18" gradientTransform="translate(-20.61 159.89) rotate(-27.07)" xlink:href="#radial-gradient-3"/><radialGradient id="radial-gradient-19" cx="728.79" cy="437.91" r="45.47" xlink:href="#radial-gradient-3"/><radialGradient id="radial-gradient-20" cx="415.39" cy="620.72" r="45.47" gradientTransform="matrix(0.73, -0.69, 0.69, 0.73, -1.83, 268.89)" xlink:href="#radial-gradient-3"/><radialGradient id="radial-gradient-21" cx="199.62" cy="38.65" r="4.69" gradientTransform="matrix(1, 0, 0, 1, 0, 0)" xlink:href="#radial-gradient-9"/><radialGradient id="radial-gradient-22" cx="198.26" cy="36.68" r="7.57" xlink:href="#radial-gradient-10"/><radialGradient id="radial-gradient-23" cx="746.83" cy="407.01" r="5.74" xlink:href="#radial-gradient-11"/><radialGradient id="radial-gradient-24" cx="569.63" cy="569.39" r="5.74" gradientTransform="translate(-20.61 159.89) rotate(-27.07)" xlink:href="#radial-gradient-11"/><radialGradient id="radial-gradient-25" cx="749.88" cy="409.67" r="14.49" xlink:href="#radial-gradient-11"/><radialGradient id="radial-gradient-26" cx="448.74" cy="618.15" r="14.49" gradientTransform="matrix(0.73, -0.69, 0.69, 0.73, -1.83, 268.89)" xlink:href="#radial-gradient-11"/><radialGradient id="radial-gradient-27" cx="685.38" cy="452.34" r="4.69" gradientTransform="matrix(1, 0, 0, 1, 0, 0)" xlink:href="#radial-gradient"/><radialGradient id="radial-gradient-28" cx="684.02" cy="450.36" r="7.57" gradientTransform="matrix(1, 0, 0, 1, 0, 0)" xlink:href="#radial-gradient-16"/><radialGradient id="radial-gradient-29" cx="684.51" cy="449.62" r="5.74" xlink:href="#radial-gradient-3"/><radialGradient id="radial-gradient-30" cx="494.74" cy="578.97" r="5.74" gradientTransform="translate(-20.61 159.89) rotate(-27.07)" xlink:href="#radial-gradient-3"/><radialGradient id="radial-gradient-31" cx="687.56" cy="452.28" r="14.49" xlink:href="#radial-gradient-3"/><radialGradient id="radial-gradient-32" cx="374.2" cy="606.13" r="14.49" gradientTransform="matrix(0.73, -0.69, 0.69, 0.73, -1.83, 268.89)" xlink:href="#radial-gradient-3"/><radialGradient id="radial-gradient-33" cx="606.91" cy="496.24" r="4.69" gradientTransform="matrix(1, 0, 0, 1, 0, 0)" xlink:href="#radial-gradient"/><radialGradient id="radial-gradient-34" cx="605.55" cy="494.26" r="7.57" gradientTransform="matrix(1, 0, 0, 1, 0, 0)" xlink:href="#radial-gradient-16"/><radialGradient id="radial-gradient-35" cx="606.04" cy="493.52" r="5.74" xlink:href="#radial-gradient-3"/><radialGradient id="radial-gradient-36" cx="404.88" cy="582.35" r="5.74" gradientTransform="translate(-20.61 159.89) rotate(-27.07)" xlink:href="#radial-gradient-3"/><radialGradient id="radial-gradient-37" cx="609.09" cy="496.18" r="14.49" xlink:href="#radial-gradient-3"/><radialGradient id="radial-gradient-38" cx="287.08" cy="583.93" r="14.49" gradientTransform="matrix(0.73, -0.69, 0.69, 0.73, -1.83, 268.89)" xlink:href="#radial-gradient-3"/><radialGradient id="radial-gradient-39" cx="617.78" cy="484.11" r="4.69" gradientTransform="matrix(1, 0, 0, 1, 0, 0)" xlink:href="#radial-gradient-9"/><radialGradient id="radial-gradient-40" cx="616.42" cy="482.13" r="7.57" xlink:href="#radial-gradient-10"/><radialGradient id="radial-gradient-41" cx="616.91" cy="481.39" r="5.74" xlink:href="#radial-gradient-11"/><radialGradient id="radial-gradient-42" cx="420.09" cy="576.5" r="5.74" gradientTransform="translate(-20.61 159.89) rotate(-27.07)" xlink:href="#radial-gradient-11"/><radialGradient id="radial-gradient-43" cx="619.96" cy="484.05" r="14.49" xlink:href="#radial-gradient-11"/><radialGradient id="radial-gradient-44" cx="303.31" cy="582.62" r="14.49" gradientTransform="matrix(0.73, -0.69, 0.69, 0.73, -1.83, 268.89)" xlink:href="#radial-gradient-11"/><radialGradient id="radial-gradient-45" cx="4.76" cy="127.19" r="4.69" gradientTransform="matrix(1, 0, 0, 1, 0, 0)" xlink:href="#radial-gradient"/><radialGradient id="radial-gradient-46" cx="3.4" cy="125.22" r="7.57" gradientTransform="matrix(1, 0, 0, 1, 0, 0)" xlink:href="#radial-gradient-16"/><radialGradient id="radial-gradient-47" cx="551.96" cy="495.55" r="5.74" xlink:href="#radial-gradient-3"/><radialGradient id="radial-gradient-48" cx="355.81" cy="559.55" r="5.74" gradientTransform="translate(-20.61 159.89) rotate(-27.07)" xlink:href="#radial-gradient-3"/><radialGradient id="radial-gradient-49" cx="555.02" cy="498.21" r="14.49" xlink:href="#radial-gradient-3"/><radialGradient id="radial-gradient-50" cx="246.47" cy="548.16" r="14.49" gradientTransform="matrix(0.73, -0.69, 0.69, 0.73, -1.83, 268.89)" xlink:href="#radial-gradient-3"/><radialGradient id="radial-gradient-51" cx="76.08" cy="48.75" r="44.21" gradientTransform="matrix(1, 0, 0, 1, 0, 0)" xlink:href="#radial-gradient-2"/><radialGradient id="radial-gradient-52" cx="670.67" cy="426.46" r="52.99" gradientTransform="translate(998.82 -289.26) rotate(80.81)" xlink:href="#radial-gradient-2"/><radialGradient id="radial-gradient-53" cx="670.67" cy="426.46" r="52.99" gradientTransform="matrix(1, 0, 0, 1, 0, 0)" xlink:href="#radial-gradient-2"/><radialGradient id="radial-gradient-54" cx="658.85" cy="485.67" r="15.32" gradientTransform="translate(977.66 -270.2) rotate(76.1)" xlink:href="#radial-gradient-3"/><radialGradient id="radial-gradient-55" cx="685.15" cy="482.81" r="12.69" xlink:href="#radial-gradient-3"/></defs><title>planete_11.module</title><g class="cls-1"><g id="Calque_2" data-name="Calque 2"><g id="BACKGROUND1"><circle class="cls-2" cx="652.69" cy="450.75" r="79.68" transform="translate(-675.64 222.47) rotate(-45)"/><circle class="cls-3" cx="652.69" cy="450.75" r="64.59" transform="translate(-675.64 222.47) rotate(-45)"/><path class="cls-4" d="M594.69,457.34a64.58,64.58,0,0,1,107.09-48.62,64.58,64.58,0,1,0-91.12,91.12A64.31,64.31,0,0,1,594.69,457.34Z" transform="translate(-548.08 -371.07)"/><path class="cls-5" d="M603.88,482.72a64.57,64.57,0,0,1,73.23-92,64.58,64.58,0,1,0-39.67,122.61A64.28,64.28,0,0,1,603.88,482.72Z" transform="translate(-548.08 -371.07)"/><path class="cls-6" d="M681.44,392.91a53.74,53.74,0,1,1-87.78,31.62,64.59,64.59,0,1,0,87.78-31.62Z" transform="translate(-548.08 -371.07)"/><path class="cls-7" d="M633.25,388.53a53.72,53.72,0,1,1-36.09,90.63,54.6,54.6,0,0,1-5.77-7.25,64.59,64.59,0,1,0,41.86-83.38Z" transform="translate(-548.08 -371.07)"/><path class="cls-8" d="M751.69,400.67c-4-8.21-17.32-9.35-40.8-3.49-5.25,1.32-10.88,3-16.76,4.88a33.25,33.25,0,0,1,4.08,3.6,50.85,50.85,0,0,1,5,4.95c2.69-.82,5.34-1.58,7.88-2.25,23.57-6.21,29.76-3.5,30.74-2.91-.14,1.14-1.85,7.67-21.33,22.33-15.68,11.79-37.45,24.65-61.29,36.21s-47.43,20.67-66.4,25.67c-23.57,6.21-29.76,3.51-30.74,2.91.14-1.13,1.85-7.67,21.33-22.32,2.13-1.6,4.4-3.23,6.75-4.87a36,36,0,0,1-1.85-11.91c-4.88,3.27-9.44,6.52-13.54,9.69-19.15,14.79-26.52,26-22.54,34.19,2.32,4.78,7.81,7.17,16.63,7.17,6.33,0,14.36-1.23,24.17-3.68,20.08-5,45.27-14.63,70.93-27.07s48.81-26.25,65.19-38.91C748.3,420.07,755.67,408.89,751.69,400.67Z" transform="translate(-548.08 -371.07)"/><path class="cls-9" d="M665.74,466c76.68-36.58,88-60.09,79.86-65.87-7.72-5.52-30.63.28-46.56,6.29a55.09,55.09,0,0,1,4.18,4.19c2.69-.82,5.34-1.58,7.88-2.25,23.57-6.21,29.76-3.5,30.74-2.91-.14,1.14-1.85,7.67-21.33,22.33-15.68,11.79-37.45,24.65-61.29,36.21s-47.43,20.67-66.4,25.67c-23.57,6.21-29.76,3.51-30.74,2.91.14-1.13,1.85-7.67,21.33-22.32,2.13-1.6,4.4-3.23,6.75-4.87a37.71,37.71,0,0,1-1.61-7.47c-8.66,6.2-38.91,28.72-32.1,36.3C564.38,503,589.06,502.58,665.74,466Z" transform="translate(-548.08 -371.07)"/><circle class="cls-10" cx="579.69" cy="499.75" r="17.68" transform="translate(-731.67 185.2) rotate(-45)"/><circle class="cls-11" cx="31.61" cy="128.68" r="14.33"/><path class="cls-12" d="M566.82,501.21a14.32,14.32,0,0,1,23.76-10.78,14.33,14.33,0,1,0-20.22,20.21A14.28,14.28,0,0,1,566.82,501.21Z" transform="translate(-548.08 -371.07)"/><path class="cls-13" d="M568.86,506.84a14.33,14.33,0,0,1,16.25-20.42,14.33,14.33,0,1,0-8.8,27.21A14.26,14.26,0,0,1,568.86,506.84Z" transform="translate(-548.08 -371.07)"/><path class="cls-14" d="M586.07,486.92A11.92,11.92,0,1,1,566.41,496a12.6,12.6,0,0,1,.18-2.05,14.33,14.33,0,1,0,19.48-7Z" transform="translate(-548.08 -371.07)"/><path class="cls-15" d="M575.38,486a11.92,11.92,0,1,1-8,20.1,10.9,10.9,0,0,1-1.28-1.61,14.15,14.15,0,0,0,3.11,5.07A14.33,14.33,0,1,0,575.38,486Z" transform="translate(-548.08 -371.07)"/><circle class="cls-16" cx="721.69" cy="437.75" r="14.68" transform="translate(-646.24 267.45) rotate(-45)"/><circle class="cls-17" cx="721.69" cy="437.75" r="11.9" transform="translate(-646.24 267.45) rotate(-45)"/><path class="cls-18" d="M711,439a11.9,11.9,0,0,1,19.73-9A11.89,11.89,0,1,0,714,446.79,11.85,11.85,0,0,1,711,439Z" transform="translate(-548.08 -371.07)"/><path class="cls-19" d="M712.7,443.64a11.89,11.89,0,0,1,13.49-16.95,11.89,11.89,0,1,0-7.31,22.58A11.83,11.83,0,0,1,712.7,443.64Z" transform="translate(-548.08 -371.07)"/><path class="cls-20" d="M727,427.1a9.89,9.89,0,1,1-16.31,7.52,9.51,9.51,0,0,1,.15-1.7A11.9,11.9,0,1,0,727,427.1Z" transform="translate(-548.08 -371.07)"/><path class="cls-21" d="M718.11,426.29A9.89,9.89,0,1,1,711.46,443a9.51,9.51,0,0,1-1.06-1.33,11.9,11.9,0,1,0,7.71-15.36Z" transform="translate(-548.08 -371.07)"/><circle class="cls-22" cx="199.54" cy="38.54" r="4.68"/><circle class="cls-23" cx="199.54" cy="38.54" r="3.79"/><path class="cls-24" d="M744.22,410a3.79,3.79,0,0,1,3.79-3.79,3.73,3.73,0,0,1,2.49.94,3.75,3.75,0,0,0-2.85-1.3,3.8,3.8,0,0,0-2.5,6.65A3.8,3.8,0,0,1,744.22,410Z" transform="translate(-548.08 -371.07)"/><path class="cls-25" d="M744.76,411.49a3.78,3.78,0,0,1,1.65-5.1,3.73,3.73,0,0,1,2.65-.3,3.79,3.79,0,1,0-2.33,7.2A3.75,3.75,0,0,1,744.76,411.49Z" transform="translate(-548.08 -371.07)"/><path class="cls-26" d="M749.31,406.22a3.15,3.15,0,1,1-5.2,2.4,3.31,3.31,0,0,1,0-.55,3.84,3.84,0,0,0-.33,1.54,3.79,3.79,0,1,0,5.48-3.39Z" transform="translate(-548.08 -371.07)"/><path class="cls-27" d="M746.48,406a3.15,3.15,0,1,1-2.12,5.32,4.46,4.46,0,0,1-.34-.42,3.94,3.94,0,0,0,.83,1.34,3.79,3.79,0,1,0,1.63-6.24Z" transform="translate(-548.08 -371.07)"/><path class="cls-28" d="M690,452.23a4.68,4.68,0,1,1-4.68-4.68A4.69,4.69,0,0,1,690,452.23Z" transform="translate(-548.08 -371.07)"/><path class="cls-29" d="M689.09,452.23a3.79,3.79,0,1,1-3.79-3.79A3.79,3.79,0,0,1,689.09,452.23Z" transform="translate(-548.08 -371.07)"/><path class="cls-30" d="M681.89,452.62a3.79,3.79,0,0,1,6.29-2.86,3.79,3.79,0,1,0-5.35,5.35A3.8,3.8,0,0,1,681.89,452.62Z" transform="translate(-548.08 -371.07)"/><path class="cls-31" d="M682.43,454.1a3.8,3.8,0,0,1,1.65-5.1,3.84,3.84,0,0,1,2.65-.3,3.79,3.79,0,1,0-2.33,7.2A3.79,3.79,0,0,1,682.43,454.1Z" transform="translate(-548.08 -371.07)"/><path class="cls-32" d="M687,448.83a3.15,3.15,0,1,1-5.2,2.4,3.27,3.27,0,0,1,0-.54,3.79,3.79,0,1,0,7.26,1.54A3.8,3.8,0,0,0,687,448.83Z" transform="translate(-548.08 -371.07)"/><path class="cls-33" d="M684.16,448.58A3.15,3.15,0,1,1,682,453.9a3.37,3.37,0,0,1-.34-.43,3.79,3.79,0,1,0,6.32-3.88A3.78,3.78,0,0,0,684.16,448.58Z" transform="translate(-548.08 -371.07)"/><path class="cls-34" d="M611.51,496.13a4.68,4.68,0,1,1-4.68-4.68A4.69,4.69,0,0,1,611.51,496.13Z" transform="translate(-548.08 -371.07)"/><path class="cls-35" d="M610.62,496.13a3.79,3.79,0,1,1-3.79-3.79A3.79,3.79,0,0,1,610.62,496.13Z" transform="translate(-548.08 -371.07)"/><path class="cls-36" d="M603.43,496.52a3.78,3.78,0,0,1,6.28-2.86,3.79,3.79,0,1,0-5.35,5.35A3.79,3.79,0,0,1,603.43,496.52Z" transform="translate(-548.08 -371.07)"/><path class="cls-37" d="M604,498a3.8,3.8,0,0,1,4.3-5.41,3.79,3.79,0,1,0-2.32,7.2A3.79,3.79,0,0,1,604,498Z" transform="translate(-548.08 -371.07)"/><path class="cls-38" d="M608.52,492.73a3.15,3.15,0,1,1-5.2,2.4,2.47,2.47,0,0,1,0-.54,3.79,3.79,0,1,0,7.25,1.54A3.8,3.8,0,0,0,608.52,492.73Z" transform="translate(-548.08 -371.07)"/><path class="cls-39" d="M605.69,492.48a3.15,3.15,0,1,1-2.12,5.32,3.37,3.37,0,0,1-.34-.43,3.71,3.71,0,0,0,.83,1.34,3.79,3.79,0,1,0,1.63-6.23Z" transform="translate(-548.08 -371.07)"/><path class="cls-40" d="M622.38,484a4.68,4.68,0,1,1-4.68-4.68A4.67,4.67,0,0,1,622.38,484Z" transform="translate(-548.08 -371.07)"/><path class="cls-41" d="M621.5,484a3.8,3.8,0,1,1-3.8-3.79A3.8,3.8,0,0,1,621.5,484Z" transform="translate(-548.08 -371.07)"/><path class="cls-42" d="M614.3,484.38a3.79,3.79,0,0,1,6.29-2.85,3.79,3.79,0,0,0-6.65,2.5,3.78,3.78,0,0,0,1.3,2.85A3.76,3.76,0,0,1,614.3,484.38Z" transform="translate(-548.08 -371.07)"/><path class="cls-43" d="M614.84,485.87a3.79,3.79,0,0,1,1.65-5.1,3.84,3.84,0,0,1,2.65-.3,3.79,3.79,0,1,0-2.33,7.2A3.75,3.75,0,0,1,614.84,485.87Z" transform="translate(-548.08 -371.07)"/><path class="cls-44" d="M619.39,480.6a3.15,3.15,0,1,1-5.2,2.4,3.19,3.19,0,0,1,0-.54,3.79,3.79,0,1,0,5.15-1.86Z" transform="translate(-548.08 -371.07)"/><path class="cls-45" d="M616.56,480.35a3.15,3.15,0,1,1-2.12,5.32,3.28,3.28,0,0,1-.33-.43,3.68,3.68,0,0,0,.82,1.34,3.79,3.79,0,1,0,1.63-6.23Z" transform="translate(-548.08 -371.07)"/><circle class="cls-46" cx="4.68" cy="127.08" r="4.68"/><circle class="cls-47" cx="4.68" cy="127.08" r="3.79"/><path class="cls-48" d="M549.35,498.54a3.79,3.79,0,0,1,6.29-2.85,3.79,3.79,0,1,0-5.35,5.35A3.76,3.76,0,0,1,549.35,498.54Z" transform="translate(-548.08 -371.07)"/><path class="cls-49" d="M549.89,500a3.79,3.79,0,0,1,4.3-5.4,3.79,3.79,0,1,0-2.33,7.2A3.79,3.79,0,0,1,549.89,500Z" transform="translate(-548.08 -371.07)"/><path class="cls-50" d="M554.44,494.76a3.15,3.15,0,1,1-5.2,2.4,3.1,3.1,0,0,1,0-.54,3.79,3.79,0,1,0,5.15-1.86Z" transform="translate(-548.08 -371.07)"/><path class="cls-51" d="M551.61,494.5a3.15,3.15,0,1,1-2.12,5.32,3.39,3.39,0,0,1-.33-.42,3.79,3.79,0,1,0,6.32-3.88A3.82,3.82,0,0,0,551.61,494.5Z" transform="translate(-548.08 -371.07)"/><circle class="cls-52" cx="83.56" cy="59.63" r="22.13"/><circle class="cls-53" cx="669.33" cy="442.1" r="8.55" transform="translate(-422.1 661.13) rotate(-80.81)"/><path class="cls-54" d="M682.34,427.36a4,4,0,1,1-4-4A4,4,0,0,1,682.34,427.36Z" transform="translate(-548.08 -371.07)"/><circle class="cls-55" cx="661.44" cy="489.44" r="7.67" transform="translate(-520.63 642.87) rotate(-76.1)"/><path class="cls-56" d="M693.65,485.93a6.36,6.36,0,1,1-6.35-6.35A6.35,6.35,0,0,1,693.65,485.93Z" transform="translate(-548.08 -371.07)"/></g></g></g></svg>