<svg xmlns="http://www.w3.org/2000/svg" width="491.108" height="430.585" viewBox="0 0 491.108 430.585"><defs><style>.a{mix-blend-mode:screen;isolation:isolate;}.b{fill:#7d0d98;}.c{fill:#ed6326;}.d{fill:#ef8a34;}.e{fill:#9ce8e6;opacity:0.2;}.f{fill:#fff;opacity:0.1;}.g{fill:#a812cc;}.h{fill:#c318ed;}</style></defs><g class="a" transform="translate(-730.72 422.143) rotate(-19)"><path class="b" d="M1479,210.51,1469,205s-18.52-2.77-42.33,4-47.36,18.14-47.36,18.14l30,42.62,29.47,17,40.81-60.09Z" transform="translate(-293 -200.749)"/><path class="b" d="M1149.68,297s-35.94,22.88-55.08,41c-14.64,13.86-26.71,38.79-26.71,38.79l58,27.88,46.48-27.21Z" transform="translate(-293 -200.749)"/><circle class="c" cx="168.93" cy="168.93" r="168.93" transform="translate(828.9 -43.519)"/><path class="d" d="M1315.37,450.88c-5.85-26.34-14.78-40.13-34.64-58.44-15.1-13.92-27.76-19-27.71-41,0-13.89,5.45-22.65,9.38-35.43,5.44-17.64-5.65-37.38-3.71-56.68,1.14-11.32,7.29-20.8,9.89-31.77,2.76-11.64.55-22.57-2.2-34.23-2.37-10-5.86-21.54-7.8-33.09a168.068,168.068,0,0,0-31.83,9.51,30.27,30.27,0,0,1,8.16,25c-1.81,12.44-12.62,23.45-17,35.12-5,13.19-8.1,26.92-6.83,41.09,1.33,14.84,6.33,29,5.7,44.27-.62,14.66-3.84,27.93,0,42.51,4.21,16,11.64,22.92,21.53,35.33,8.23,10.33,8.6,22.82,14.43,34.07,11,21.12,34.77,24.94,39.11,52.09.71,4.48.58,10.16.73,15.81a170.3,170.3,0,0,0,26-2.26C1320.21,479,1318.25,463.88,1315.37,450.88Z" transform="translate(-293 -200.749)"/><path class="d" d="M1238.29,438.43c-8.4-16-15.4-25.67-30.36-36-8.12-5.64-14.66-9-20.41-17.48-10.67-15.73-10.45-34.28-10.45-53,0-20.86-6.81-39.12-5.67-60.11,1-18.74,9.51-32.2,13.85-49.88,2.37-9.64,2.78-21.26,5.36-31.83a170,170,0,0,0-42,44.84c3.06,14.54,11,27.66,8.33,43.42-3.84,22.9-18.41,41-9.31,64.87,4.4,11.52,10.36,19,11.58,31.49.88,8.93,1,19.1,5.67,27.2,4.31,7.49,12,11.06,17.94,17,6.71,6.79,9.52,14.39,13.55,22.89,6.93,14.63,17.64,25.74,26.26,38.82a167.785,167.785,0,0,0,33.63,10.81C1254.54,472.66,1248.49,457.86,1238.29,438.43Z" transform="translate(-293 -200.749)"/><path class="d" d="M1413.15,401.91c-7.05-16.94-.56-35.83-8.53-53.39-2.38-5.23-5-11.18-9.84-14.68-4.22-3.07-8.09-1-11.39-5.3-4.93-6.5-3.41-22.66-3.4-30.67,0-24.33,3.89-48.19,14.45-70.28,2.58-5.39,6-16.31,10.73-25.86a170.115,170.115,0,0,0-29.59-21.81c1.55,26.09-9.26,52.57-17.95,76.83-9.71,27.07-20,75.18,4,98.11,7.91,7.59,16.25,10.24,19.49,21.23,3,10-1,19.51-1.1,29.48-.06,9.31,1.4,22.14,8.16,29.46,5.21,5.65,13.25,8.3,20.93,11.7a170.422,170.422,0,0,0,25.08-31.19C1425.61,413.65,1417.49,412.34,1413.15,401.91Z" transform="translate(-293 -200.749)"/><path class="d" d="M1330.11,167.48c0-1.84,0-3.76.11-5.7a169.387,169.387,0,0,0-31.85-4.45c0,39.26-.44,80.53-7.94,118.95a260.7,260.7,0,0,0-4.53,50.81c0,17.59,1,22.86,12.21,35.65,8.26,9.4,12.76,20.3,15,32.62,2.3,12.57,3.9,13.9,11,24.12,3.83,5.5,5.22,12.28,7.28,18.79,19.56-.63-8.2-66.47-9.32-75.81-1.89-15.85-4.23-22-15.33-34.91-9.79-11.41-14.44-14.76-7.31-29.07,6.21-12.46,11.64-22.69,12.53-36.63.73-11.57-4.68-21.61-3.43-33.19C1311.1,205.26,1329.92,191.58,1330.11,167.48Z" transform="translate(-293 -200.749)"/><path class="d" d="M1428.87,228.68c-1.88,3.52-3.58,6.64-4.67,9-11.76,26-8.67,53.4-.91,80.49,4.19,14.62,15.44,47.14,30,54.45a169.27,169.27,0,0,0-24.39-144Z" transform="translate(-293 -200.749)"/><path class="e" d="M1408.38,445.39a169,169,0,0,0-201.76-267.61c3.66,5.23,9.6,9.93,18.3,13.62,32.38,13.72,70.93,12.62,103.53,25.57,68.36,27.14,117.84,88.91,74.69,160.91-17.48,29.18-50.15,53.58-83.57,57.95-38.48,5-60.08-24.54-79.69-53-19.5-28.31-37.5-85.84-74-97.8-9.68-3.17-36.29-4.7-43,17.46a168.93,168.93,0,0,0,285.54,142.9Z" transform="translate(-293 -200.749)"/><path class="f" d="M1243,311.84c-21.76,27.48-55.33,37.15-75,21.59s-17.92-50.44,3.85-77.93,55.33-37.15,75-21.59S1264.81,284.35,1243,311.84Z" transform="translate(-293 -200.749)"/><path class="g" d="M1068.9,373.26s63.48,38.29,242.89-33.22C1454.49,283.17,1469,205,1469,205s16.54.64,28.74,13.78c14.74,15.87-3.4,46.48-3.4,46.48s-38.54,77.08-154.17,128.09c-145.05,64-263.17,51.48-274.34,11.34C1061.23,388.24,1068.9,373.26,1068.9,373.26Z" transform="translate(-293 -200.749)"/><path class="h" d="M1080.84,389.53l-6.77,11.24S1101,413,1132.78,411c78.47-5.15,145.2-26.2,169-35.31a318.471,318.471,0,0,0,45.9-21.69L1359,328.2s-30.88,19.57-65,31.63c-37.85,13.39-103.34,32.93-159.88,36C1100.69,397.58,1080.84,389.53,1080.84,389.53Z" transform="translate(-293 -200.749)"/></g></svg>