<svg xmlns="http://www.w3.org/2000/svg" xmlns:xlink="http://www.w3.org/1999/xlink" viewBox="0 0 51.89 51.89"><defs><style>.cls-1{isolation:isolate;}.cls-2{fill:url(#radial-gradient);}.cls-3{fill:url(#radial-gradient-2);}.cls-4{fill:#e0a326;}.cls-5,.cls-7{opacity:0.34;mix-blend-mode:color-burn;}.cls-5{fill:url(#radial-gradient-3);}.cls-6,.cls-9{opacity:0.45;}.cls-10,.cls-11,.cls-6,.cls-8,.cls-9{mix-blend-mode:screen;}.cls-6{fill:url(#radial-gradient-4);}.cls-7{fill:url(#radial-gradient-5);}.cls-9{fill:url(#radial-gradient-6);}.cls-10{fill:url(#radial-gradient-7);}.cls-11{fill:url(#radial-gradient-8);}</style><radialGradient id="radial-gradient" cx="26.04" cy="25.59" r="26.43" gradientUnits="userSpaceOnUse"><stop offset="0" stop-color="#8ee1ee"/><stop offset="0.62" stop-color="#5e8dec"/><stop offset="0.7" stop-color="#5e8ceb" stop-opacity="0.99"/><stop offset="0.75" stop-color="#5f8ae9" stop-opacity="0.95"/><stop offset="0.8" stop-color="#6085e5" stop-opacity="0.89"/><stop offset="0.84" stop-color="#627fdf" stop-opacity="0.8"/><stop offset="0.87" stop-color="#6576d8" stop-opacity="0.68"/><stop offset="0.91" stop-color="#686cce" stop-opacity="0.54"/><stop offset="0.94" stop-color="#6c60c4" stop-opacity="0.37"/><stop offset="0.97" stop-color="#7053b7" stop-opacity="0.18"/><stop offset="1" stop-color="#7446ac" stop-opacity="0"/></radialGradient><radialGradient id="radial-gradient-2" cx="21.88" cy="16.08" r="42.08" gradientUnits="userSpaceOnUse"><stop offset="0" stop-color="#8ee1ee"/><stop offset="0.62" stop-color="#5e8dec"/><stop offset="0.63" stop-color="#5f89e8"/><stop offset="0.74" stop-color="#6b64c7"/><stop offset="0.84" stop-color="#714eb3"/><stop offset="0.9" stop-color="#7446ac"/></radialGradient><radialGradient id="radial-gradient-3" cx="297.37" cy="101.46" r="32.37" gradientUnits="userSpaceOnUse"><stop offset="0.06" stop-color="#66b0d8"/><stop offset="1" stop-color="#3f1f7d"/></radialGradient><radialGradient id="radial-gradient-4" cx="301.92" cy="91.11" r="34.8" gradientUnits="userSpaceOnUse"><stop offset="0.05" stop-color="#e0a326"/><stop offset="0.41" stop-color="#e0a227" stop-opacity="0.99"/><stop offset="0.55" stop-color="#df9e2b" stop-opacity="0.96"/><stop offset="0.64" stop-color="#de9833" stop-opacity="0.91"/><stop offset="0.71" stop-color="#dd8f3e" stop-opacity="0.83"/><stop offset="0.78" stop-color="#db844c" stop-opacity="0.73"/><stop offset="0.84" stop-color="#d8755d" stop-opacity="0.61"/><stop offset="0.89" stop-color="#d56471" stop-opacity="0.47"/><stop offset="0.93" stop-color="#d25089" stop-opacity="0.3"/><stop offset="0.98" stop-color="#ce3ba3" stop-opacity="0.12"/><stop offset="1" stop-color="#cc2db4" stop-opacity="0"/></radialGradient><radialGradient id="radial-gradient-5" cx="296.9" cy="103.15" r="26.86" xlink:href="#radial-gradient-3"/><radialGradient id="radial-gradient-6" cx="404.49" cy="-15.23" r="39.12" gradientTransform="matrix(0.62, 1.2, -1.06, 0.54, 62.9, -413.26)" xlink:href="#radial-gradient-4"/><radialGradient id="radial-gradient-7" cx="527.54" cy="-399.29" r="12.99" gradientTransform="translate(-310.94 322.35) rotate(15.52)" xlink:href="#radial-gradient-4"/><radialGradient id="radial-gradient-8" cx="361.83" cy="-221.86" r="7.17" gradientTransform="translate(-103.65 22.38) rotate(40.01)" xlink:href="#radial-gradient-4"/></defs><title>planete_3.module</title><g class="cls-1"><g id="Calque_2" data-name="Calque 2"><g id="BACKGROUND1"><circle class="cls-2" cx="25.94" cy="25.94" r="25.94"/><circle class="cls-3" cx="25.94" cy="25.94" r="22.64"/><path class="cls-4" d="M319.08,105.34c-.2.47-.32.71.39.82a3.59,3.59,0,0,0,2.28-1,18.35,18.35,0,0,0,2.3-2.22l3.45-3.68c0,.17.05.34.08.51l-3.07,3.59a18.51,18.51,0,0,1-2.31,2.37,7.82,7.82,0,0,1-1.3.88,2.72,2.72,0,0,1-1.49.36,1.32,1.32,0,0,1-1.27-.84,1.61,1.61,0,0,1,.15-1.14,7.33,7.33,0,0,1,.33-.71,16.4,16.4,0,0,1,1.55-2.38c1-1.35,2.48-3,3.76-4.78.73-1,1.41-2,2-3,.08.18.16.36.23.54-.52.91-1.11,1.87-1.74,2.8-1.23,1.86-2.67,3.58-3.62,4.9a15.28,15.28,0,0,0-1.42,2.3S319.27,104.91,319.08,105.34ZM285.46,94a20,20,0,0,1,5.9-.75c1.07,0,2.18.15,3.24.11a6.33,6.33,0,0,0,2.88-.75,9.51,9.51,0,0,0,1.65-1.28l.54-.54a20.29,20.29,0,0,0,1.79-2.15,24.28,24.28,0,0,0,3-5.36,22.18,22.18,0,0,0,.85-2.62h0c-.18,0-.35,0-.53,0a24.81,24.81,0,0,1-.87,2.35,24.1,24.1,0,0,1-3,5.11,21.08,21.08,0,0,1-1.78,2l-.51.53a8.26,8.26,0,0,1-1.46,1.2,5.42,5.42,0,0,1-2.51.72c-1,.08-2.08,0-3.2,0a18.92,18.92,0,0,0-6,1c-.26.09-.49.18-.72.28l-.17.35C284.76,94.16,285.09,94.05,285.46,94Zm13.76,25.93c.32-.27.5-.44.5-.44a2.54,2.54,0,0,0,.43-.66,1.09,1.09,0,0,0-.15-1.09,2,2,0,0,0-1-.59,8.58,8.58,0,0,0-5.13.22c-1.77.54-3.42,1.28-4.73,1.62l-.17,0c.09.09.17.2.26.29,1.36-.24,3.08-.91,4.8-1.35a8,8,0,0,1,4.71,0,1.22,1.22,0,0,1,.59.33c.06.09.05.15,0,.27a1.79,1.79,0,0,1-.27.37l-.42.39a6,6,0,0,1-1.27.9,15.75,15.75,0,0,1-4.62,1.51l-.54.12c.23.16.47.33.72.48a15.7,15.7,0,0,0,4.83-1.4A6.84,6.84,0,0,0,299.22,119.88Zm-5.35-36c-.25.45-.29.79-.24.81s.69-1.14,1.84-1.59a3.62,3.62,0,0,1,1.55-.31l.25,0a0,0,0,0,1,0,0h0s0,0,0,0h0s0,0-.08.12a7.06,7.06,0,0,1-1.14,1.09c-.9.72-2,1.09-2,1.2a4,4,0,0,0,2.3-.7,7.23,7.23,0,0,0,1.39-1.06c.06-.06.21-.22.33-.37l.31-.39.35-.45-.48-.13-.42-.09c-.12,0-.27-.06-.45-.08a22.65,22.65,0,0,0-3.35,1.54A2.84,2.84,0,0,0,293.87,83.91Zm32.07,28.48a19.85,19.85,0,0,1-5,1,28.67,28.67,0,0,0-5.58.93,16.11,16.11,0,0,0-2.43.94,15,15,0,0,0-2.23,1.35,17.44,17.44,0,0,0-4.05,4,53.92,53.92,0,0,1-3.29,4.5c-.22.25-.43.46-.63.65l.37,0c.17-.14.33-.27.51-.44a43.27,43.27,0,0,0,3.53-4.36,17.44,17.44,0,0,1,4-3.71,14.53,14.53,0,0,1,2.16-1.22,15.55,15.55,0,0,1,2.28-1,29.26,29.26,0,0,1,5.42-1.08,19.89,19.89,0,0,0,4.63-1.11Zm-15.94,9s-.2.11-.47.42a4.37,4.37,0,0,0-.83,1.43c-.06.22-.47,1,.22,1.13a2,2,0,0,0,1.33-.35l2.35-1.21,4.37-2.29a16,16,0,0,0,1.45-.82c.34-.23.53-.39.53-.39a3.29,3.29,0,0,0,.37-.34,3.58,3.58,0,0,0,.52-.66,4.1,4.1,0,0,0,.29-.56,1.13,1.13,0,0,0-.08-1.07.93.93,0,0,0-.73-.34,2.11,2.11,0,0,0-.73.13,12.05,12.05,0,0,0-1.58.55,14.11,14.11,0,0,0-3.49,2.09,13.33,13.33,0,0,0-2.49,2.68,5.09,5.09,0,0,0-.78,1.39,20.68,20.68,0,0,1,3.6-3.64,13.7,13.7,0,0,1,3.43-1.85,5.38,5.38,0,0,1,2.1-.5c.06,0-.11.48-.27.66a2.79,2.79,0,0,1-.41.51c-.23.22-.31.28-.31.28a11.16,11.16,0,0,1-1.81,1.17l-4.28,2.46L310,123.64c-.19.1-.36.21-.52.28a1.06,1.06,0,0,1-.41.1c-.28,0-.14-.28-.07-.62A8.07,8.07,0,0,1,310,121.44Zm-12.82,1.34a17.87,17.87,0,0,0,7.07-5.7,3.93,3.93,0,0,0,.73-1.7,2.33,2.33,0,0,0-.31-1.5,3.29,3.29,0,0,0-.62-.75,2.53,2.53,0,0,0-.27-.2,2.74,2.74,0,0,0-.28-.18,3.58,3.58,0,0,0-.89-.33,6.78,6.78,0,0,0-3.11.16,82.65,82.65,0,0,0-8.58,2.8,39.3,39.3,0,0,1-3.94,1.21l.33.45a39.55,39.55,0,0,0,3.81-1.07,85.23,85.23,0,0,1,8.55-2.6,6.12,6.12,0,0,1,2.74-.12,2.27,2.27,0,0,1,.87.4,1.87,1.87,0,0,1,.65.66,2,2,0,0,1-.35,2.31,17.27,17.27,0,0,1-6.66,5.59,13.3,13.3,0,0,1-2.48.94c.25.14.5.24.75.36A13.62,13.62,0,0,0,297.18,122.78Zm-9-34c0-.1-.06-.18-.09-.26.27-.31.55-.62.84-.92,0,.2,0,.31,0,.31a1,1,0,0,0,.06.49c.05.1.09.16.37.23a10,10,0,0,0,1,.16,9.29,9.29,0,0,0,9.24-5.11,21.76,21.76,0,0,0,.94-2.44.12.12,0,0,1,0,.05v-.11s0,0,0,0l.17-.05a.19.19,0,0,0,0,.07.76.76,0,0,1-.22.59q0,.09,0,.21a8.38,8.38,0,0,1-.57,1.85A9.58,9.58,0,0,1,296,88.2a10.08,10.08,0,0,1-5.76,1.37,11.11,11.11,0,0,1-1.13-.15A1.31,1.31,0,0,1,288.18,88.75Zm12.33-7.37s0,0,0,.07S300.5,81.4,300.51,81.38Zm5.18,3.75c-.43.51-.84,1-1.22,1.57a2.83,2.83,0,0,0,1.65,4.68,5.36,5.36,0,0,0,2.55.2,4.68,4.68,0,0,0,.94-.22,8.68,8.68,0,0,0,2.94-1.76,31.4,31.4,0,0,0,4.75-5.48l-.53-.32A32.27,32.27,0,0,1,312,89a7.65,7.65,0,0,1-2.69,1.55,5.38,5.38,0,0,1-.81.21,4.73,4.73,0,0,1-2.16-.13,2.57,2.57,0,0,1-1.9-2c0-1,.95-2.09,1.7-3.1A45.56,45.56,0,0,0,309.58,81l-.47-.07A52.58,52.58,0,0,1,305.69,85.13Zm4.17-.19,1.25-1.86.93-1.42c-.17-.06-.35-.09-.52-.15l-.92,1.22-1.35,1.8a5.52,5.52,0,0,0-.6.93,1.13,1.13,0,0,0,.2,1.3,1.5,1.5,0,0,0,1.79.15,2.12,2.12,0,0,0,.5-.39,4.07,4.07,0,0,0,.37-.45l.8-1.14c.5-.7,1.11-1.59,1.73-2.54-.21-.09-.44-.16-.66-.24l-1.72,2.31c-.35.45-.63.83-.84,1.09a3,3,0,0,1-.31.36s-.5.67-1.1.27c-.09-.08-.13-.19-.05-.42A4.63,4.63,0,0,1,309.86,84.94ZM321.4,95.86c-1.8,2.89-4.27,5.25-5.94,7.25a19.38,19.38,0,0,0-1.85,2.58,7.92,7.92,0,0,0-.53,1.13,4.85,4.85,0,0,0-.3,1.23,4,4,0,0,0,1,3.22,3.15,3.15,0,0,0,2.13.9,5.46,5.46,0,0,0,2.4-.57,29,29,0,0,0,4.27-2.79,56.33,56.33,0,0,0,5.24-4.5c0-.2,0-.4,0-.6a60.7,60.7,0,0,1-5.64,4.6,29.22,29.22,0,0,1-4.19,2.63,4.79,4.79,0,0,1-2.08.46,2.3,2.3,0,0,1-1.58-.7,3.13,3.13,0,0,1-.72-2.54,4,4,0,0,1,.26-1,6.53,6.53,0,0,1,.46-1,17.47,17.47,0,0,1,1.73-2.49c1.58-2,4.06-4.43,5.83-7.43a31.37,31.37,0,0,0,2.47-5c-.1-.17-.2-.35-.31-.51A31.6,31.6,0,0,1,321.4,95.86Zm-32.78,7a3.12,3.12,0,0,0,.79-1.56,2.09,2.09,0,0,0,0-.54,1.91,1.91,0,0,0-.2-.62,1.12,1.12,0,0,0-.78-.57,1.83,1.83,0,0,0-.92.16l-.79.3c-.54.22-1.11.48-1.67.77a17.85,17.85,0,0,0-2.41,1.45l0,.48a24.13,24.13,0,0,1,2.7-1.37c.56-.24,1.13-.46,1.67-.65a4.52,4.52,0,0,1,1.31-.34c.15,0,.25.28.26.48a1.15,1.15,0,0,1,0,.31,2.16,2.16,0,0,1-.54,1.18,9,9,0,0,1-2.6,1.91c-.93.53-1.88,1-2.67,1.39,0,.13,0,.25.06.38a28.73,28.73,0,0,0,2.9-1.22A9.18,9.18,0,0,0,288.62,102.9Zm-3.73-4.54c2-.66,4.08-1.25,5.62-1.66.8-.26,1.18-.17,1.42.08a1.2,1.2,0,0,1,.31.45,1.43,1.43,0,0,1,.14.56,3.16,3.16,0,0,1-.47,1.62,36.33,36.33,0,0,1-3.09,4.91,13.59,13.59,0,0,1-4.3,3.77,10.62,10.62,0,0,1-1.24.57,2.25,2.25,0,0,0,.05.22,9.27,9.27,0,0,0,1.34-.48,13.49,13.49,0,0,0,4.64-3.69,35.8,35.8,0,0,0,3.32-4.92,4.13,4.13,0,0,0,.61-2,2.06,2.06,0,0,0-.2-.87,1.88,1.88,0,0,0-.53-.74,1.63,1.63,0,0,0-1-.43,3.42,3.42,0,0,0-1.21.21c-1.55.46-3.59,1.12-5.6,1.86l-1.55.58c0,.21-.09.42-.13.63Zm11.64,12.14c2.85-.45,5.79-.24,8-.84a8.42,8.42,0,0,0,2.54-1.09,9.17,9.17,0,0,0,.85-.62,18.51,18.51,0,0,0,2.58-2.69c1.39-1.7,3.19-4,4.9-6.39s3.33-4.81,4.48-6.68c.58-.93,1.05-1.71,1.36-2.27a5.54,5.54,0,0,0,.46-.9,4.07,4.07,0,0,0-.61.8c-.36.53-.88,1.28-1.49,2.19-1.25,1.8-2.93,4.18-4.7,6.49s-3.6,4.59-5,6.24a17.11,17.11,0,0,1-2.51,2.53,6.8,6.8,0,0,1-.77.58,7.67,7.67,0,0,1-2.28,1c-2,.61-5,.48-7.91,1a37.12,37.12,0,0,0-7.76,2.19c-1,.42-1.84.82-2.41,1.11a4.07,4.07,0,0,0-.87.52,5.86,5.86,0,0,0,.94-.36c.59-.24,1.43-.58,2.46-.95A40.19,40.19,0,0,1,296.53,110.5Zm-9.26-.17a17.87,17.87,0,0,0,6.51-5.57c.91-1.28,1.67-2.64,2.46-3.84a14,14,0,0,1,2.48-3,11.12,11.12,0,0,1,2.25-1.5c.59-.29.94-.42.94-.42a9.33,9.33,0,0,1,1-.34,10.58,10.58,0,0,1,2.65-.47c1.12-.08,2.44.15,4,.19A6.94,6.94,0,0,0,313.93,94a15,15,0,0,0,3.15-3.39,36.49,36.49,0,0,0,2.14-3.37c.25-.44.47-.84.66-1.22l-.2-.19c-.22.38-.47.79-.75,1.24-.61,1-1.37,2.1-2.25,3.25a14.64,14.64,0,0,1-3.11,3.18,6.26,6.26,0,0,1-4.08,1.21c-1.4-.06-2.77-.33-4-.27a12.06,12.06,0,0,0-2.87.45,10.16,10.16,0,0,0-2.05.83,11.76,11.76,0,0,0-2.39,1.65,14.45,14.45,0,0,0-2.56,3.17c-.78,1.24-1.51,2.61-2.36,3.88a18.08,18.08,0,0,1-6.16,5.62,20.46,20.46,0,0,1-3,1.34.56.56,0,0,0,0,.12l.46-.12A15.25,15.25,0,0,0,287.27,110.33Zm18.38-10.27c-.49.3-.65.43-.88.59-.41.3-.68.52-.65.58s.36-.07.82-.29c.22-.09.58-.27.64-.28s.14.16.11.23a2,2,0,0,1-.41.6,3.79,3.79,0,0,1-.62.49c-.39.23-.74.37-.72.37l-.73.43c-.15.08-.13.08-.15.1l-.07.06s-.23.2-.19.09a.62.62,0,0,1,.07-.28,4.3,4.3,0,0,1,.45-.61c.32-.38.59-.59.55-.65s-.36.07-.79.4a3.51,3.51,0,0,0-.69.7,5,5,0,0,0-.69,1.32c-.45.77.27.27.58.23l1.31-.65.78-.38.21-.12a3.86,3.86,0,0,0,.54-.35,3.94,3.94,0,0,0,.7-.67,2,2,0,0,0,.5-1.14,1.21,1.21,0,0,0-.17-.72C306.08,99.78,305.83,100,305.65,100.06Zm3.13-3.5a1.72,1.72,0,0,1,1.34,1.7,3.69,3.69,0,0,1-.54,1.83,13.94,13.94,0,0,1-.85,1.36,12.68,12.68,0,0,1-1.59,1.81c-.42.4-.68.6-.68.6a12.73,12.73,0,0,1-2.83,1.72,13.32,13.32,0,0,1-3.24,1,13,13,0,0,1-1.9.16l-1,0a1.43,1.43,0,0,1-1.09-.51,1.1,1.1,0,0,1,.08-1.24,3.09,3.09,0,0,1,.75-.74l1.26-.9a3.79,3.79,0,0,1,.6-.65c.4-.39,1-.93,1.75-1.55a36.26,36.26,0,0,1,5.93-3.91A3.59,3.59,0,0,1,308.78,96.56Zm-.11.67a3.12,3.12,0,0,0-1.6.51,40.32,40.32,0,0,0-6,3.64c-.79.57-1.43,1.08-1.87,1.42l2.24-1.6,1.91-1.32a3.3,3.3,0,0,1,.76-.46,3.66,3.66,0,0,1-.65.6l-1.82,1.46-2.59,2-1.46,1.14c-.46.32-.89.93-.66,1.17s1,.21,1.55.22a13.07,13.07,0,0,0,1.79-.2,12.3,12.3,0,0,0,3-1,12.11,12.11,0,0,0,2.62-1.66,7.74,7.74,0,0,0,.65-.55,12,12,0,0,0,1.52-1.66,5.7,5.7,0,0,0,1.31-2.7A1,1,0,0,0,308.67,97.23Z" transform="translate(-279.29 -77.31)"/><path class="cls-5" d="M296,91.87a22.54,22.54,0,0,0-11.89,3.4,22.6,22.6,0,0,0,33.06,27.21A22.59,22.59,0,0,0,296,91.87Z" transform="translate(-279.29 -77.31)"/><path class="cls-6" d="M302.86,84.39a21.85,21.85,0,0,1,19.7,31.38,21.88,21.88,0,1,0-37.7-21.93A21.84,21.84,0,0,1,302.86,84.39Z" transform="translate(-279.29 -77.31)"/><path class="cls-7" d="M285.63,98.09A20.57,20.57,0,0,0,290.51,118c8.59,8.93,21.07,5.59,23.34,1.62S308.54,108.7,301,109.38s-5.56-10.78-9.44-13.31S286.3,96.58,285.63,98.09Z" transform="translate(-279.29 -77.31)"/><g class="cls-8"><path class="cls-9" d="M296,88.22c.54-1.19,4.54-7.69,15.62-4s13.44,16.76,10.76,20.49-7.45,2-10.51-3.49-11.17-4.32-14-7.43S295.45,89.46,296,88.22Z" transform="translate(-279.29 -77.31)"/><path class="cls-10" d="M312.43,88.32c-.37,1.33-2.67,1.85-5.13,1.17s-4.16-2.32-3.79-3.65,2.66-1.85,5.13-1.17S312.8,87,312.43,88.32Z" transform="translate(-279.29 -77.31)"/><path class="cls-11" d="M318.11,91.71c-.49.59-1.77.32-2.85-.58s-1.56-2.12-1.07-2.7S316,88.11,317,89,318.6,91.13,318.11,91.71Z" transform="translate(-279.29 -77.31)"/></g></g></g></g></svg>