<svg xmlns="http://www.w3.org/2000/svg" xmlns:xlink="http://www.w3.org/1999/xlink" viewBox="0 0 181.03 163.34"><defs><style>.cls-1{isolation:isolate;}.cls-10,.cls-2,.cls-21,.cls-22,.cls-23,.cls-27,.cls-28,.cls-29{mix-blend-mode:screen;}.cls-2{fill:url(#radial-gradient);}.cls-3{fill:url(#radial-gradient-2);}.cls-4,.cls-5{mix-blend-mode:multiply;}.cls-4{fill:url(#linear-gradient);}.cls-5{fill:url(#linear-gradient-2);}.cls-15,.cls-16,.cls-17,.cls-6,.cls-7,.cls-8,.cls-9{opacity:0.5;}.cls-15,.cls-16,.cls-17,.cls-6,.cls-7,.cls-8{mix-blend-mode:color-dodge;}.cls-6{fill:url(#radial-gradient-3);}.cls-7{fill:url(#radial-gradient-4);}.cls-8{fill:url(#radial-gradient-5);}.cls-9{fill:#fff;mix-blend-mode:overlay;}.cls-10{opacity:0.45;}.cls-11{fill:url(#radial-gradient-6);}.cls-12{fill:url(#linear-gradient-3);}.cls-13,.cls-14,.cls-19,.cls-20,.cls-25,.cls-26{mix-blend-mode:color-burn;}.cls-13{fill:url(#linear-gradient-4);}.cls-14{fill:url(#linear-gradient-5);}.cls-15{fill:url(#radial-gradient-7);}.cls-16{fill:url(#radial-gradient-8);}.cls-17{fill:url(#radial-gradient-9);}.cls-18{fill:url(#Áåçûìÿííûé_ãðàäèåíò_236);}.cls-19,.cls-20,.cls-25,.cls-26{opacity:0.1;}.cls-19{fill:url(#linear-gradient-6);}.cls-20{fill:url(#linear-gradient-7);}.cls-21,.cls-22,.cls-23,.cls-27,.cls-28{opacity:0.2;}.cls-21{fill:url(#radial-gradient-10);}.cls-22{fill:url(#radial-gradient-11);}.cls-23{fill:url(#radial-gradient-12);}.cls-24{fill:url(#radial-gradient-13);}.cls-25{fill:url(#linear-gradient-8);}.cls-26{fill:url(#linear-gradient-9);}.cls-27{fill:url(#radial-gradient-14);}.cls-28{fill:url(#radial-gradient-15);}.cls-29{fill:url(#radial-gradient-16);}</style><radialGradient id="radial-gradient" cx="838.4" cy="282.47" r="76.02" gradientTransform="matrix(0.83, 0.56, -0.56, 0.83, 327.49, -447.45)" gradientUnits="userSpaceOnUse"><stop offset="0" stop-color="#f20074"/><stop offset="0.17" stop-color="#f00175" stop-opacity="0.99"/><stop offset="0.3" stop-color="#eb0477" stop-opacity="0.95"/><stop offset="0.42" stop-color="#e2097b" stop-opacity="0.88"/><stop offset="0.54" stop-color="#d61080" stop-opacity="0.78"/><stop offset="0.65" stop-color="#c61888" stop-opacity="0.65"/><stop offset="0.75" stop-color="#b22390" stop-opacity="0.5"/><stop offset="0.86" stop-color="#9b309b" stop-opacity="0.31"/><stop offset="0.96" stop-color="#813fa6" stop-opacity="0.1"/><stop offset="1" stop-color="#7446ac" stop-opacity="0"/></radialGradient><radialGradient id="radial-gradient-2" cx="952.46" cy="312.44" r="70.03" gradientTransform="translate(360.46 -617.75) rotate(41.51)" gradientUnits="userSpaceOnUse"><stop offset="0" stop-color="#ffff29"/><stop offset="0.89" stop-color="#ff7e59"/><stop offset="1" stop-color="#ffff29"/></radialGradient><linearGradient id="linear-gradient" x1="892.63" y1="341.3" x2="1019.46" y2="341.3" gradientTransform="translate(360.46 -617.75) rotate(41.51)" gradientUnits="userSpaceOnUse"><stop offset="0" stop-color="#fff"/><stop offset="0.15" stop-color="#ffefde"/><stop offset="0.44" stop-color="#ffd19f"/><stop offset="0.69" stop-color="#ffbb72"/><stop offset="0.88" stop-color="#ffad55"/><stop offset="0.99" stop-color="#ffa84b"/></linearGradient><linearGradient id="linear-gradient-2" x1="927.12" y1="341.9" x2="1019.46" y2="341.9" xlink:href="#linear-gradient"/><radialGradient id="radial-gradient-3" cx="1022.25" cy="362.76" r="144.33" gradientTransform="translate(360.46 -617.75) rotate(41.51)" gradientUnits="userSpaceOnUse"><stop offset="0" stop-color="#fff"/><stop offset="0.12" stop-color="#e8e8e8"/><stop offset="0.37" stop-color="#acacac"/><stop offset="0.72" stop-color="#4e4e4e"/><stop offset="1"/></radialGradient><radialGradient id="radial-gradient-4" cx="1019.56" cy="322" r="89.27" xlink:href="#radial-gradient-3"/><radialGradient id="radial-gradient-5" cx="942.02" cy="285.89" r="60.12" xlink:href="#radial-gradient-3"/><radialGradient id="radial-gradient-6" cx="836.89" cy="186.78" r="132.57" gradientTransform="matrix(0.97, 0.25, -0.25, 0.97, 91.42, -126.29)" gradientUnits="userSpaceOnUse"><stop offset="0" stop-color="#8ee1ee"/><stop offset="0.62" stop-color="#5e8dec"/><stop offset="0.63" stop-color="#5f89e8"/><stop offset="0.74" stop-color="#6b64c7"/><stop offset="0.84" stop-color="#714eb3"/><stop offset="0.9" stop-color="#7446ac"/></radialGradient><linearGradient id="linear-gradient-3" x1="850.44" y1="466.14" x2="882.12" y2="466.14" gradientTransform="matrix(0.59, 0.81, -0.81, 0.59, 654.6, -743.25)" gradientUnits="userSpaceOnUse"><stop offset="0" stop-color="#ff91a7"/><stop offset="0.1" stop-color="#fc8aa9"/><stop offset="0.24" stop-color="#f275ae"/><stop offset="0.42" stop-color="#e353b7"/><stop offset="0.62" stop-color="#ce25c3"/><stop offset="0.76" stop-color="#bd00cc"/><stop offset="1" stop-color="#8b00cc"/></linearGradient><linearGradient id="linear-gradient-4" x1="783.66" y1="298.58" x2="815.35" y2="298.58" gradientTransform="translate(267.52 -441.69) rotate(32.03)" gradientUnits="userSpaceOnUse"><stop offset="0" stop-color="#fff7f5"/><stop offset="0.16" stop-color="#f9eff3"/><stop offset="0.41" stop-color="#e7d8ed"/><stop offset="0.73" stop-color="#cbb4e4"/><stop offset="1" stop-color="#ae8edb"/></linearGradient><linearGradient id="linear-gradient-5" x1="792.28" y1="298.73" x2="815.35" y2="298.73" xlink:href="#linear-gradient-4"/><radialGradient id="radial-gradient-7" cx="853.99" cy="462.66" r="23.18" gradientTransform="matrix(0.59, 0.81, -0.81, 0.59, 654.6, -743.25)" gradientUnits="userSpaceOnUse"><stop offset="0"/><stop offset="0.28" stop-color="#4e4e4e"/><stop offset="0.63" stop-color="#acacac"/><stop offset="0.88" stop-color="#e8e8e8"/><stop offset="1" stop-color="#fff"/></radialGradient><radialGradient id="radial-gradient-8" cx="853.99" cy="462.66" r="23.18" xlink:href="#radial-gradient-7"/><radialGradient id="radial-gradient-9" cx="862.37" cy="463.59" r="10.45" gradientTransform="matrix(0.59, 0.81, -0.81, 0.59, 654.6, -743.25)" xlink:href="#radial-gradient-3"/><radialGradient id="Áåçûìÿííûé_ãðàäèåíò_236" cx="888.79" cy="481.55" r="15.06" gradientTransform="matrix(-0.76, 0.65, -0.53, -0.62, 1740.67, -36.91)" gradientUnits="userSpaceOnUse"><stop offset="0" stop-color="#ff5731"/><stop offset="0.7" stop-color="#ba005e"/><stop offset="0.95" stop-color="#5e1377"/><stop offset="1" stop-color="#8160ff"/></radialGradient><linearGradient id="linear-gradient-6" x1="802.48" y1="324.88" x2="822.98" y2="324.88" gradientTransform="matrix(0.79, 0.61, -0.61, 0.79, 353.62, -505.79)" gradientUnits="userSpaceOnUse"><stop offset="0" stop-color="#1c0067"/><stop offset="0.1" stop-color="#1c007f"/><stop offset="0.29" stop-color="#1c00a5"/><stop offset="0.47" stop-color="#1c00c2"/><stop offset="0.65" stop-color="#1c00d7"/><stop offset="0.83" stop-color="#1c00e4"/><stop offset="1" stop-color="#1c00e8"/></linearGradient><linearGradient id="linear-gradient-7" x1="808.06" y1="324.97" x2="822.98" y2="324.97" xlink:href="#linear-gradient-6"/><radialGradient id="radial-gradient-10" cx="881.92" cy="484.42" r="15" gradientTransform="matrix(0.51, 0.86, -0.86, 0.51, 766.14, -770.47)" xlink:href="#radial-gradient-2"/><radialGradient id="radial-gradient-11" cx="881.91" cy="484.41" r="15" gradientTransform="matrix(0.51, 0.86, -0.86, 0.51, 766.14, -770.47)" xlink:href="#radial-gradient-2"/><radialGradient id="radial-gradient-12" cx="887.33" cy="485.02" r="6.76" gradientTransform="matrix(0.51, 0.86, -0.86, 0.51, 766.14, -770.47)" xlink:href="#radial-gradient-2"/><radialGradient id="radial-gradient-13" cx="986.02" cy="384.4" r="11.87" gradientTransform="matrix(-0.76, 0.65, -0.53, -0.62, 1896.22, -126.92)" gradientUnits="userSpaceOnUse"><stop offset="0" stop-color="#8ee1ee"/><stop offset="0.62" stop-color="#5e8dec"/><stop offset="0.63" stop-color="#5f89e8"/><stop offset="0.74" stop-color="#6b64c7"/><stop offset="0.84" stop-color="#714eb3"/><stop offset="0.9" stop-color="#7446ac"/><stop offset="0.99" stop-color="#8ee1ee"/></radialGradient><linearGradient id="linear-gradient-8" x1="932.03" y1="268.99" x2="947.35" y2="268.99" xlink:href="#linear-gradient-6"/><linearGradient id="linear-gradient-9" x1="936.2" y1="269.06" x2="947.35" y2="269.06" xlink:href="#linear-gradient-6"/><radialGradient id="radial-gradient-14" cx="980.61" cy="386.66" r="11.82" gradientTransform="matrix(0.51, 0.86, -0.86, 0.51, 766.14, -770.47)" xlink:href="#radial-gradient-13"/><radialGradient id="radial-gradient-15" cx="980.6" cy="386.66" r="11.82" gradientTransform="matrix(0.51, 0.86, -0.86, 0.51, 766.14, -770.47)" xlink:href="#radial-gradient-13"/><radialGradient id="radial-gradient-16" cx="984.87" cy="387.13" r="5.33" gradientTransform="matrix(0.51, 0.86, -0.86, 0.51, 766.14, -770.47)" gradientUnits="userSpaceOnUse"><stop offset="0" stop-color="#8ee1ee"/><stop offset="0.94" stop-color="#5e8dec" stop-opacity="0"/></radialGradient></defs><title>planete_13.module</title><g class="cls-1"><g id="Calque_2" data-name="Calque 2"><g id="OBJECTS"><path class="cls-2" d="M817.93,323.78c-.4-.26-.79-.53-1.18-.81a82.11,82.11,0,0,1-33.43-81.11A80.34,80.34,0,0,1,793,215.27c.49-.88,1-1.8,1.7-2.82a82.19,82.19,0,0,1,10.37-13.17,79.79,79.79,0,0,1,8.82-7.87c.75-.59,1.57-1.19,2.49-1.85a81.77,81.77,0,0,1,111.24,15.68c.36.45.74.94,1.11,1.43a81.66,81.66,0,0,1,11.46,20.76,82.44,82.44,0,0,1,5.21,27.86,81.54,81.54,0,0,1-10.21,40.39c-1.16,2.1-2.45,4.21-3.83,6.24A81.77,81.77,0,0,1,817.93,323.78Z" transform="translate(-773.76 -174.46)"/><path class="cls-3" d="M911.2,298.18a63.42,63.42,0,1,1-5.45-89.52A63.42,63.42,0,0,1,911.2,298.18Z" transform="translate(-773.76 -174.46)"/><path class="cls-4" d="M865.82,279.92a115.23,115.23,0,0,1-39.53-18.42c-8.64-6.27-17.3-13.35-23.78-22A63.42,63.42,0,0,0,923,278.65,108.59,108.59,0,0,1,865.82,279.92Z" transform="translate(-773.76 -174.46)"/><path class="cls-5" d="M824.81,291.47a146,146,0,0,1-18-7.4,63.42,63.42,0,0,0,115.5-3.56c0-.28,0-.57.07-.85A108.54,108.54,0,0,1,868,297.56,115.4,115.4,0,0,1,824.81,291.47Z" transform="translate(-773.76 -174.46)"/><path class="cls-6" d="M917.94,289A63.41,63.41,0,1,0,807.71,226.4c11.26-1.66,29.57-.47,49.09,16.82C884.69,267.9,896.66,295.67,917.94,289Z" transform="translate(-773.76 -174.46)"/><path class="cls-7" d="M858.22,193c7.59,4.93,15.47,12.66,22.14,24.78,17.79,32.27,19.89,62.16,41.53,63.62A63.4,63.4,0,0,0,858.22,193Z" transform="translate(-773.76 -174.46)"/><path class="cls-8" d="M897.13,265.28a41.82,41.82,0,1,1-3.58-59A41.82,41.82,0,0,1,897.13,265.28Z" transform="translate(-773.76 -174.46)"/><path class="cls-9" d="M861.58,223.62c-6.16.95-12.73-.46-15-5.6-5.94-13.35,17.73-15.59,24.85-9.55C879.33,215.2,867.82,222.66,861.58,223.62Z" transform="translate(-773.76 -174.46)"/><path class="cls-9" d="M888.09,213.64c3,1.38,5.5,3.91,5,6.84-1.26,7.64-12.37,1.74-13.76-3C877.8,212.2,885.06,212.25,888.09,213.64Z" transform="translate(-773.76 -174.46)"/><g class="cls-10"><path class="cls-11" d="M954.37,292.8h0c1.29-3.07-.33-6.81-5-11.41-3.78-3.76-9.56-8.12-17.16-13-1.81-1.15-3.7-2.32-5.66-3.49a18.48,18.48,0,0,1-.8,5.26h0c16.7,11.56,19.05,17.61,18.55,19s-6.08,4-25.58,0c-16.41-3.38-37.35-10.36-58.94-19.65S818.6,249.72,804.54,240c-16.69-11.57-19-17.61-18.54-19s6.07-4,25.57,0l.17,0a25.5,25.5,0,0,1,2.19-3.33c-2.13-.55-4.2-1.07-6.21-1.53-8.79-2-15.94-3.09-21.28-3.15-6.52-.07-10.33,1.39-11.61,4.47s.32,6.81,4.95,11.42c3.78,3.76,9.56,8.12,17.17,13,15.45,9.84,36.9,20.68,60.4,30.53,20.81,8.72,41,15.75,57.8,20.11,2.16.56,4.28,1.08,6.32,1.56,8.79,2,15.95,3.08,21.28,3.14C949.28,297.35,953.08,295.89,954.37,292.8Z" transform="translate(-773.76 -174.46)"/></g><path class="cls-12" d="M799,243.92a15.84,15.84,0,1,1,3.43-22.14A15.85,15.85,0,0,1,799,243.92Z" transform="translate(-773.76 -174.46)"/><path class="cls-13" d="M791.11,236.9A28.72,28.72,0,0,1,780.6,234a28,28,0,0,1-6.76-4.43,15.84,15.84,0,0,0,29.19,10,15.65,15.65,0,0,0,2.11-5.29A27,27,0,0,1,791.11,236.9Z" transform="translate(-773.76 -174.46)"/><path class="cls-14" d="M781.47,241.43a36.49,36.49,0,0,1-4.75-1.07,15.85,15.85,0,0,0,26.31-.83,15.5,15.5,0,0,0,2-4.8c0-.08,0-.15,0-.22a27.17,27.17,0,0,1-12.65,6.65A28.76,28.76,0,0,1,781.47,241.43Z" transform="translate(-773.76 -174.46)"/><path class="cls-15" d="M804.32,237a15.84,15.84,0,1,0-29.74-10.89c2.71-.87,7.27-1.33,12.79,2.12C795.26,233.17,799.35,239.51,804.32,237Z" transform="translate(-773.76 -174.46)"/><path class="cls-16" d="M785.65,215.8a16.78,16.78,0,0,1,6.48,5.19c5.71,7.22,7.46,14.5,12.85,14a15.83,15.83,0,0,0-19.33-19.16Z" transform="translate(-773.76 -174.46)"/><path class="cls-17" d="M798.22,232a10.45,10.45,0,1,1-3.32-14.4A10.45,10.45,0,0,1,798.22,232Z" transform="translate(-773.76 -174.46)"/><path class="cls-9" d="M787.74,223.21c-1.48.48-3.15.41-3.93-.77-2-3,3.73-4.57,5.73-3.37C791.77,220.4,789.24,222.71,787.74,223.21Z" transform="translate(-773.76 -174.46)"/><path class="cls-9" d="M793.86,219.66c.8.21,1.52.73,1.52,1.48,0,1.93-3,.94-3.51-.18S793.06,219.44,793.86,219.66Z" transform="translate(-773.76 -174.46)"/><path class="cls-18" d="M809.68,251.84a10.25,10.25,0,1,1,3.55-14.06A10.26,10.26,0,0,1,809.68,251.84Z" transform="translate(-773.76 -174.46)"/><path class="cls-19" d="M805,246.84a18.66,18.66,0,0,1-6.59-2.5,17.89,17.89,0,0,1-4.09-3.27,10.25,10.25,0,0,0,19.89,4.9A17.5,17.5,0,0,1,805,246.84Z" transform="translate(-773.76 -174.46)"/><path class="cls-20" d="M798.57,249.19a23.92,23.92,0,0,1-3-1,10.25,10.25,0,0,0,17,1.06,10.33,10.33,0,0,0,1.58-3v-.14a17.46,17.46,0,0,1-8.55,3.52A18.5,18.5,0,0,1,798.57,249.19Z" transform="translate(-773.76 -174.46)"/><path class="cls-21" d="M813.55,247.7a10.25,10.25,0,1,0-18.5-8.8,9.61,9.61,0,0,1,8.11,2.13C807.94,244.69,810.2,249,813.55,247.7Z" transform="translate(-773.76 -174.46)"/><path class="cls-22" d="M802.8,232.91a11,11,0,0,1,3.86,3.74c3.25,5,3.93,9.79,7.44,9.77a10.26,10.26,0,0,0-11.3-13.51Z" transform="translate(-773.76 -174.46)"/><path class="cls-23" d="M809.92,244.12a6.76,6.76,0,1,1-1.27-9.48A6.76,6.76,0,0,1,809.92,244.12Z" transform="translate(-773.76 -174.46)"/><path class="cls-9" d="M803.7,237.82a2.18,2.18,0,0,1-2.49-.73c-1.11-2.08,2.68-2.72,3.9-1.83S804.7,237.59,803.7,237.82Z" transform="translate(-773.76 -174.46)"/><path class="cls-9" d="M807.86,235.9c.5.18.93.56.89,1-.12,1.25-2,.43-2.26-.32S807.35,235.71,807.86,235.9Z" transform="translate(-773.76 -174.46)"/><path class="cls-24" d="M942.63,282.9a8.08,8.08,0,1,1,2.8-11.07A8.06,8.06,0,0,1,942.63,282.9Z" transform="translate(-773.76 -174.46)"/><path class="cls-25" d="M939,279a14.63,14.63,0,0,1-5.19-2,14.06,14.06,0,0,1-3.23-2.57,8.08,8.08,0,0,0,14.35,6.45,7.85,7.85,0,0,0,1.32-2.59A13.87,13.87,0,0,1,939,279Z" transform="translate(-773.76 -174.46)"/><path class="cls-26" d="M933.88,280.81a18.7,18.7,0,0,1-2.37-.77,8.09,8.09,0,0,0,14.65-1.52v-.1a13.92,13.92,0,0,1-6.74,2.77A14.76,14.76,0,0,1,933.88,280.81Z" transform="translate(-773.76 -174.46)"/><path class="cls-27" d="M945.69,279.64a8.08,8.08,0,0,0-13.62-8.57,7.74,7.74,0,0,0-1,1.64,7.55,7.55,0,0,1,6.39,1.68C941.27,277.27,943,280.68,945.69,279.64Z" transform="translate(-773.76 -174.46)"/><path class="cls-28" d="M937.21,268a8.56,8.56,0,0,1,3,2.95c2.56,3.93,3.1,7.71,5.86,7.7a8.08,8.08,0,0,0-8.9-10.65Z" transform="translate(-773.76 -174.46)"/><path class="cls-29" d="M942.82,276.82a5.33,5.33,0,1,1-1-7.47A5.31,5.31,0,0,1,942.82,276.82Z" transform="translate(-773.76 -174.46)"/><path class="cls-9" d="M937.92,271.85a1.71,1.71,0,0,1-2-.57c-.88-1.64,2.11-2.14,3.07-1.44S938.71,271.68,937.92,271.85Z" transform="translate(-773.76 -174.46)"/><path class="cls-9" d="M941.2,270.34c.39.15.73.45.7.83-.09,1-1.56.33-1.78-.26S940.8,270.19,941.2,270.34Z" transform="translate(-773.76 -174.46)"/></g></g></g></svg>