<svg xmlns="http://www.w3.org/2000/svg" xmlns:xlink="http://www.w3.org/1999/xlink" viewBox="0 0 51.36 51.36"><defs><style>.cls-1{isolation:isolate;}.cls-2{fill:url(#radial-gradient);}.cls-3{fill:url(#radial-gradient-2);}.cls-10,.cls-11,.cls-4,.cls-6,.cls-8,.cls-9{mix-blend-mode:screen;}.cls-4{fill:url(#radial-gradient-3);}.cls-5,.cls-7{opacity:0.34;mix-blend-mode:color-burn;}.cls-5{fill:url(#radial-gradient-4);}.cls-6,.cls-9{opacity:0.45;}.cls-6{fill:url(#radial-gradient-5);}.cls-7{fill:url(#radial-gradient-6);}.cls-9{fill:url(#radial-gradient-7);}.cls-10{fill:url(#radial-gradient-8);}.cls-11{fill:url(#radial-gradient-9);}</style><radialGradient id="radial-gradient" cx="676.6" cy="224.49" r="26.16" gradientTransform="translate(692.21 -474.3) rotate(73.51)" gradientUnits="userSpaceOnUse"><stop offset="0" stop-color="#f20074"/><stop offset="0.38" stop-color="#f10174" stop-opacity="0.99"/><stop offset="0.51" stop-color="#ed0376" stop-opacity="0.96"/><stop offset="0.61" stop-color="#e70679" stop-opacity="0.92"/><stop offset="0.69" stop-color="#df0b7d" stop-opacity="0.85"/><stop offset="0.75" stop-color="#d31182" stop-opacity="0.75"/><stop offset="0.81" stop-color="#c51988" stop-opacity="0.64"/><stop offset="0.87" stop-color="#b42290" stop-opacity="0.51"/><stop offset="0.92" stop-color="#a02d98" stop-opacity="0.35"/><stop offset="0.96" stop-color="#8b39a2" stop-opacity="0.18"/><stop offset="1" stop-color="#7446ac" stop-opacity="0"/></radialGradient><radialGradient id="radial-gradient-2" cx="672.48" cy="215.08" r="41.65" gradientTransform="translate(655.31 -474.56) rotate(70.55)" gradientUnits="userSpaceOnUse"><stop offset="0" stop-color="#f20074"/><stop offset="0.14" stop-color="#ed0376"/><stop offset="0.31" stop-color="#df0b7d"/><stop offset="0.49" stop-color="#c71887"/><stop offset="0.67" stop-color="#a62a96"/><stop offset="0.87" stop-color="#7b42a9"/><stop offset="0.9" stop-color="#7446ac"/></radialGradient><radialGradient id="radial-gradient-3" cx="663.44" cy="204.2" r="66.8" gradientTransform="translate(416.85 -428.75) rotate(50.93)" xlink:href="#radial-gradient-2"/><radialGradient id="radial-gradient-4" cx="668.72" cy="223.08" r="32.05" gradientTransform="translate(416.85 -428.75) rotate(50.93)" xlink:href="#radial-gradient-2"/><radialGradient id="radial-gradient-5" cx="673.23" cy="212.83" r="34.44" gradientTransform="translate(416.85 -428.75) rotate(50.93)" xlink:href="#radial-gradient-2"/><radialGradient id="radial-gradient-6" cx="668.26" cy="224.75" r="26.59" gradientTransform="translate(416.85 -428.75) rotate(50.93)" xlink:href="#radial-gradient-2"/><radialGradient id="radial-gradient-7" cx="609.79" cy="-246.36" r="38.73" gradientTransform="matrix(-0.54, 1.24, -1.09, -0.48, 777.02, -640.01)" xlink:href="#radial-gradient-2"/><radialGradient id="radial-gradient-8" cx="917.17" cy="-380.84" r="12.86" gradientTransform="translate(-28.78 -466.49) rotate(66.45)" xlink:href="#radial-gradient-2"/><radialGradient id="radial-gradient-9" cx="724" cy="-367.06" r="7.09" gradientTransform="translate(1412.77 -124.91) rotate(180)" xlink:href="#radial-gradient-2"/></defs><title>planete_6.module</title><g class="cls-1"><g id="Calque_2" data-name="Calque 2"><g id="BACKGROUND1"><circle class="cls-2" cx="668.61" cy="238.19" r="25.68" transform="translate(-683.13 62.45) rotate(-22.58)"/><circle class="cls-3" cx="668.61" cy="238.19" r="22.41" transform="translate(-684.09 25.73) rotate(-19.61)"/><path class="cls-4" d="M675.64,250.13c-.49.14-.75.2-.39.81a3.56,3.56,0,0,0,2.19,1.13,19.25,19.25,0,0,0,3.14.39l5,.35-.34.38-4.67-.12a19.47,19.47,0,0,1-3.26-.29,7.83,7.83,0,0,1-1.49-.46,2.66,2.66,0,0,1-1.21-.92,1.32,1.32,0,0,1-.15-1.5,1.58,1.58,0,0,1,1-.59c.48-.14.76-.2.76-.2a17.14,17.14,0,0,1,2.79-.29c1.67,0,3.85.05,6-.09,1.23-.06,2.43-.18,3.55-.31l-.27.52c-1,.17-2.13.31-3.23.41-2.2.21-4.42.17-6,.27a16,16,0,0,0-2.65.34S676.08,250,675.64,250.13Zm-12.22-32.94a20,20,0,0,1,4.25,4.06c.65.85,1.25,1.77,2,2.56a6.11,6.11,0,0,0,2.37,1.74,8.53,8.53,0,0,0,2,.48l.76.07a19.48,19.48,0,0,0,2.76,0,23.82,23.82,0,0,0,6-1.07,23.1,23.1,0,0,0,2.54-1v0c-.11-.14-.24-.26-.35-.39a22.38,22.38,0,0,1-2.35.8,23.68,23.68,0,0,1-5.82.86,18.85,18.85,0,0,1-2.66-.1l-.73-.06a7.45,7.45,0,0,1-1.83-.38,5.37,5.37,0,0,1-2.12-1.47c-.68-.72-1.29-1.61-2-2.46a18.33,18.33,0,0,0-4.55-4c-.24-.15-.45-.26-.66-.38l-.38.09C662.82,216.78,663.11,217,663.42,217.19Zm-11.35,26.75.66.11a2.17,2.17,0,0,0,.77-.09,1.07,1.07,0,0,0,.75-.79,1.91,1.91,0,0,0-.17-1.13,8.6,8.6,0,0,0-3.37-3.81c-1.52-1-3.12-1.82-4.19-2.62l-.14-.1c0,.13,0,.25-.06.38,1,.89,2.62,1.8,4,2.84a8,8,0,0,1,3,3.59,1.13,1.13,0,0,1,.11.66c0,.1-.08.13-.2.17a1.68,1.68,0,0,1-.45,0l-.57-.08a6,6,0,0,1-1.48-.41,15.75,15.75,0,0,1-4-2.6l-.43-.36c0,.29,0,.58.08.86a15.46,15.46,0,0,0,4.09,2.84A6.8,6.8,0,0,0,652.07,243.94Zm24.31-26.55c-.5.09-.78.27-.76.32a5.34,5.34,0,0,1,2.36.42,3.42,3.42,0,0,1,1.2,1,1.26,1.26,0,0,1,.14.2h0v0h0s0,0-.14,0a7,7,0,0,1-1.55-.19c-1.11-.24-2.08-.86-2.15-.77a3.87,3.87,0,0,0,2,1.33,6.6,6.6,0,0,0,1.68.41,3.41,3.41,0,0,0,.5,0h1l-.2-.45a3.52,3.52,0,0,0-.19-.38c-.06-.11-.13-.25-.22-.4a22.52,22.52,0,0,0-3.27-1.61A2.42,2.42,0,0,0,676.38,217.39ZM674.5,259.8a18.87,18.87,0,0,1-3.86-3.19,28.26,28.26,0,0,0-4.2-3.7,15.5,15.5,0,0,0-2.24-1.29,14.91,14.91,0,0,0-2.42-.87,17.13,17.13,0,0,0-5.6-.62c-2,.11-4,.38-5.51.28l-.89-.08.21.3c.21,0,.41.09.65.12a41.24,41.24,0,0,0,5.56,0,16.87,16.87,0,0,1,5.35.78,14.64,14.64,0,0,1,2.29.89,15.29,15.29,0,0,1,2.16,1.16,28.41,28.41,0,0,1,4.21,3.49,20.1,20.1,0,0,0,3.74,2.87Zm-16.9-6.6a1.3,1.3,0,0,0-.61-.1,4.35,4.35,0,0,0-1.63.25c-.2.1-1.05.26-.72.88a2,2,0,0,0,1.1.8l2.39,1,4.48,1.93a15,15,0,0,0,1.54.6c.39.12.63.17.63.17a4.31,4.31,0,0,0,1.32.06,2.71,2.71,0,0,0,.62-.14,1.06,1.06,0,0,0,.77-.72.94.94,0,0,0-.19-.77,2.08,2.08,0,0,0-.56-.48,12.78,12.78,0,0,0-1.4-.87,14,14,0,0,0-3.79-1.38,13.18,13.18,0,0,0-3.62-.25,4.92,4.92,0,0,0-1.54.28,19.83,19.83,0,0,1,5,.49,13.87,13.87,0,0,1,3.55,1.48c1,.55,1.92,1.38,1.7,1.3a1.3,1.3,0,0,1-.68.21,2.69,2.69,0,0,1-.64,0l-.41-.06a11.38,11.38,0,0,1-2-.66l-4.56-1.76-2.44-.93c-.2-.08-.39-.14-.54-.22a1,1,0,0,1-.33-.25c-.15-.24.13-.28.44-.45A7.67,7.67,0,0,1,657.6,253.2Zm-9-9a17.66,17.66,0,0,0,8.78,1.87,3.72,3.72,0,0,0,1.77-.49,2.33,2.33,0,0,0,1-1.18,2.85,2.85,0,0,0,.18-.94,2.73,2.73,0,0,0,0-.33s0-.12,0-.33a3.31,3.31,0,0,0-.29-.89,6.69,6.69,0,0,0-2.07-2.29,78.93,78.93,0,0,0-7.5-4.84,39.25,39.25,0,0,1-3.39-2.28c-.05.18-.1.35-.14.53,1,.79,2.08,1.56,3.2,2.27a81.52,81.52,0,0,1,7.33,4.95,5.82,5.82,0,0,1,1.8,2,2.11,2.11,0,0,1,.24.91,2,2,0,0,1-.11.92c-.15.55-.81,1.1-2,1.17a17.2,17.2,0,0,1-8.45-1.63,13.45,13.45,0,0,1-2.27-1.32c0,.27.13.53.19.8A13.47,13.47,0,0,0,648.58,244.18ZM669.11,216a1.53,1.53,0,0,1,.15-.23c.41,0,.82,0,1.22.07l-.26.16a1,1,0,0,0-.33.34c0,.11-.07.18.05.44a8.47,8.47,0,0,0,.5.87,9.22,9.22,0,0,0,9.69,3.91,21.5,21.5,0,0,0,2.46-.8l0,0,.08-.07,0,0,.15.11,0,.05a.73.73,0,0,1-.58.2l-.19.11a8.85,8.85,0,0,1-1.77.72,9.51,9.51,0,0,1-5.79-.22,9.89,9.89,0,0,1-4.65-3.57c-.23-.34-.42-.65-.59-1A1.28,1.28,0,0,1,669.11,216Zm13.35,4.87-.05,0Zm.35,6.33c-.65,0-1.31,0-2,0a2.8,2.8,0,0,0-2.57,4.19,5.56,5.56,0,0,0,1.43,2.09,5.7,5.7,0,0,0,.76.59,8.5,8.5,0,0,0,3.19,1.15,31.19,31.19,0,0,0,7.18.24l-.09-.62a31.59,31.59,0,0,1-6.94-.4,7.78,7.78,0,0,1-2.87-1.1,4.71,4.71,0,0,1-.66-.5,4.6,4.6,0,0,1-1.25-1.73,2.54,2.54,0,0,1,.34-2.7c.74-.66,2.19-.57,3.44-.63a45.64,45.64,0,0,0,5.58-.18l-.24-.4C686.55,227.39,684.69,227.29,682.81,227.24Zm2.75,3.08,2.21-.2,1.68-.17-.22-.49-1.5,0-2.23.09a5.37,5.37,0,0,0-1.09.11,1.13,1.13,0,0,0-.87,1,1.49,1.49,0,0,0,1,1.47,2.11,2.11,0,0,0,.62.14,4.27,4.27,0,0,0,.57,0l1.38-.09c.85-.06,1.92-.15,3-.26-.06-.22-.15-.44-.22-.66-1,.06-2,.1-2.85.12l-1.36,0a2.32,2.32,0,0,1-.47,0s-.84,0-.9-.67c0-.12.06-.22.3-.3A4.33,4.33,0,0,1,685.56,230.32ZM684.37,246c-3.35.42-6.7,0-9.28,0a18.89,18.89,0,0,0-3.13.19,7.25,7.25,0,0,0-1.2.29,5.11,5.11,0,0,0-1.14.54,4,4,0,0,0-1.84,2.78,3,3,0,0,0,.64,2.2,5.48,5.48,0,0,0,1.93,1.49,29.54,29.54,0,0,0,4.8,1.54,57.31,57.31,0,0,0,6.73,1.22c.16-.12.33-.23.48-.36a58.8,58.8,0,0,1-7.05-1.46,27.77,27.77,0,0,1-4.64-1.59,4.62,4.62,0,0,1-1.64-1.3,2.26,2.26,0,0,1-.46-1.65,3.1,3.1,0,0,1,1.5-2.14,4.06,4.06,0,0,1,1-.45,7.55,7.55,0,0,1,1.06-.28,18.41,18.41,0,0,1,3-.22c2.5,0,5.95.36,9.35-.15a31.35,31.35,0,0,0,5.36-1.2c.06-.19.14-.37.2-.55A31.52,31.52,0,0,1,684.37,246Zm-25.85-20.8a3.34,3.34,0,0,0,1.24-.17,2.09,2.09,0,0,0,.44-.2,1.53,1.53,0,0,0,.42-.33A1.63,1.63,0,0,0,661,224a1.13,1.13,0,0,0-.05-1,1.92,1.92,0,0,0-.69-.61l-.73-.42c-.51-.28-1.07-.55-1.63-.8a17.28,17.28,0,0,0-2.63-1c-.12.1-.26.18-.38.28a23.8,23.8,0,0,1,2.74,1.22c.54.28,1.06.58,1.54.87a4.46,4.46,0,0,1,1.08.8c.08.13-.06.37-.21.5a1.06,1.06,0,0,1-.25.18,2.21,2.21,0,0,1-1.24.32,8.75,8.75,0,0,1-3.09-.81c-1-.38-2-.82-2.74-1.18-.09.09-.16.19-.25.28a28.42,28.42,0,0,0,2.75,1.47A9,9,0,0,0,658.52,225.2Zm1.16-5.69c1.77,1.14,3.5,2.34,4.78,3.27.7.46.87.8.83,1.15a1.26,1.26,0,0,1-.16.51,1.43,1.43,0,0,1-.34.46,3.28,3.28,0,0,1-1.54.66,37.3,37.3,0,0,1-5.7.68,13.66,13.66,0,0,1-5.59-1,9.68,9.68,0,0,1-1.21-.61l-.13.18a7.88,7.88,0,0,0,1.2.73,13.32,13.32,0,0,0,5.73,1.27,35.88,35.88,0,0,0,5.85-.52,3.9,3.9,0,0,0,2-.81,2.22,2.22,0,0,0,.55-.69,1.88,1.88,0,0,0,.24-.87,1.75,1.75,0,0,0-.3-1.05,3.26,3.26,0,0,0-.92-.79c-1.32-.9-3.1-2.06-4.92-3.15l-1.41-.82-.57.29C658.57,218.79,659.12,219.14,659.68,219.51ZM657.6,236c2.13,1.91,3.8,4.3,5.65,5.64a8.52,8.52,0,0,0,2.43,1.27,7.16,7.16,0,0,0,1,.27,18.91,18.91,0,0,0,3.68.31c2.17,0,5.07,0,8-.23s5.78-.44,7.93-.72c1.08-.14,2-.27,2.6-.37a5.09,5.09,0,0,0,1-.21,4.27,4.27,0,0,0-1,0l-2.61.22c-2.16.17-5,.36-7.92.44s-5.77.09-7.93,0a17.28,17.28,0,0,1-3.51-.36,6.81,6.81,0,0,1-.92-.23,8,8,0,0,1-2.22-1.1c-1.72-1.18-3.48-3.55-5.7-5.45a36.43,36.43,0,0,0-6.53-4.6c-1-.52-1.78-.91-2.36-1.17a4.34,4.34,0,0,0-.94-.34,5.38,5.38,0,0,0,.86.5c.56.31,1.35.74,2.27,1.3A39.84,39.84,0,0,1,657.6,236ZM652,228.8a17.69,17.69,0,0,0,8.34,1.53c1.56-.1,3.07-.37,4.49-.51a13.69,13.69,0,0,1,3.82.07,10.92,10.92,0,0,1,2.55.79,9.32,9.32,0,0,1,.9.46,10.09,10.09,0,0,1,.87.53,10.85,10.85,0,0,1,2,1.75c.76.81,1.4,2,2.31,3.15a6.89,6.89,0,0,0,3.89,2.53,15.18,15.18,0,0,0,4.57.3,38.77,38.77,0,0,0,3.92-.45c.5-.09,1-.17,1.36-.26,0-.09,0-.18,0-.28-.43.07-.9.14-1.41.2-1.14.14-2.48.26-3.91.3a14.51,14.51,0,0,1-4.38-.41,6.21,6.21,0,0,1-3.48-2.37c-.83-1.12-1.47-2.34-2.28-3.24a11.06,11.06,0,0,0-2.14-1.92,10.61,10.61,0,0,0-.92-.59,10.15,10.15,0,0,0-1-.47,11,11,0,0,0-2.76-.81,14.31,14.31,0,0,0-4,0c-1.45.17-3,.47-4.46.61a18,18,0,0,1-8.16-1.24A19.69,19.69,0,0,1,649.2,227l-.07.11.39.28A14.94,14.94,0,0,0,652,228.8Zm19.36,7.71c-.54-.18-.74-.23-1-.3-.49-.13-.83-.2-.85-.14s.27.23.73.46a6.38,6.38,0,0,1,.61.31c.19,0,0,.21-.1.22a1.84,1.84,0,0,1-.72.06,3.88,3.88,0,0,1-.76-.17c-.42-.15-.75-.34-.74-.32l-.78-.29a.66.66,0,0,0-.17-.06h-.09c-.05,0-.3-.05-.19-.09a.57.57,0,0,1,.26-.12,3.54,3.54,0,0,1,.75,0c.49,0,.82.08.84,0s-.28-.24-.8-.36a3.21,3.21,0,0,0-1-.09,5.33,5.33,0,0,0-1.45.29c-.87.14,0,.38.19.59l1.32.6.78.37.22.08a3.93,3.93,0,0,0,.61.2,4.3,4.3,0,0,0,.94.12,2.08,2.08,0,0,0,1.2-.32,1.35,1.35,0,0,0,.44-.59C671.8,236.67,671.49,236.61,671.32,236.51Zm4.64.23a1.7,1.7,0,0,1-.47,2.09,3.83,3.83,0,0,1-1.74.73c-.56.09-1.09.16-1.58.19a12.82,12.82,0,0,1-2.38-.09,8.17,8.17,0,0,1-.89-.15,12.77,12.77,0,0,1-3.08-1.1,13.18,13.18,0,0,1-2.77-1.88,14.2,14.2,0,0,1-1.32-1.36l-.58-.78a1.36,1.36,0,0,1-.29-1.15,1.09,1.09,0,0,1,1-.71,3,3,0,0,1,1,.12l1.48.4a3.38,3.38,0,0,1,.87,0c.55.07,1.34.19,2.28.39a35.93,35.93,0,0,1,6.7,2.11A3.5,3.5,0,0,1,676,236.74Zm-.58.33c-.21-.39-.83-.64-1.4-.91a39.63,39.63,0,0,0-6.53-2.34c-.94-.25-1.72-.43-2.27-.55l2.63.72,2.22.65a3.12,3.12,0,0,1,.82.3,4.09,4.09,0,0,1-.86-.13l-2.26-.49-3.18-.72-1.79-.42c-.53-.15-1.27-.1-1.31.23s.44.87.8,1.33a12.34,12.34,0,0,0,1.27,1.24,12.41,12.41,0,0,0,5.56,2.68,7.25,7.25,0,0,0,.83.15,11.27,11.27,0,0,0,2.22.14,5.7,5.7,0,0,0,2.9-.67A1,1,0,0,0,675.38,237.07Z" transform="translate(-642.93 -212.51)"/><path class="cls-5" d="M671.57,224a22.29,22.29,0,0,0-10-7,22.37,22.37,0,0,0-.3,42.38A22.36,22.36,0,0,0,671.57,224Z" transform="translate(-642.93 -212.51)"/><path class="cls-6" d="M681.62,224.59a21.62,21.62,0,0,1-11.82,34.72,21.66,21.66,0,1,0-6.67-42.66A21.66,21.66,0,0,1,681.62,224.59Z" transform="translate(-642.93 -212.51)"/><path class="cls-7" d="M660.34,219.9a20.37,20.37,0,0,0-12.23,16.15c-1.5,12.18,8.85,19.69,13.32,18.95s5.05-10.87-.2-16.28,4.82-11,4.34-15.55S661.93,219.47,660.34,219.9Z" transform="translate(-642.93 -212.51)"/><g class="cls-8"><path class="cls-9" d="M674.4,221.73c1.25-.34,8.74-1.32,12.81,9.52s-4.5,20.77-9,21S672,247.81,674.3,242s-3.65-11.28-3-15.41S673.1,222.07,674.4,221.73Z" transform="translate(-642.93 -212.51)"/><path class="cls-10" d="M684.57,234.4c-1.25.55-3.09-.89-4.1-3.21s-.81-4.64.44-5.19,3.09.89,4.1,3.21S685.83,233.86,684.57,234.4Z" transform="translate(-642.93 -212.51)"/><ellipse class="cls-11" cx="685.55" cy="238.35" rx="2.53" ry="1.37" transform="translate(-206.95 707.39) rotate(-89.06)"/></g></g></g></g></svg>