<svg xmlns="http://www.w3.org/2000/svg" xmlns:xlink="http://www.w3.org/1999/xlink" viewBox="0 0 20.07 20.07"><defs><style>.cls-1{isolation:isolate;}.cls-2{fill:url(#radial-gradient);}.cls-3,.cls-4,.cls-5,.cls-7{fill:#e0a326;}.cls-4{opacity:0.34;mix-blend-mode:color-burn;}.cls-5{opacity:0.45;}.cls-5,.cls-6,.cls-7{mix-blend-mode:screen;}</style><radialGradient id="radial-gradient" cx="10.04" cy="10.04" r="10.04" gradientUnits="userSpaceOnUse"><stop offset="0" stop-color="#e0a326"/><stop offset="0.38" stop-color="#e0a326" stop-opacity="0.99"/><stop offset="0.52" stop-color="#e0a326" stop-opacity="0.96"/><stop offset="0.62" stop-color="#e0a326" stop-opacity="0.91"/><stop offset="0.7" stop-color="#e0a326" stop-opacity="0.83"/><stop offset="0.77" stop-color="#e0a326" stop-opacity="0.73"/><stop offset="0.83" stop-color="#e0a326" stop-opacity="0.61"/><stop offset="0.88" stop-color="#e0a326" stop-opacity="0.47"/><stop offset="0.93" stop-color="#e0a326" stop-opacity="0.3"/><stop offset="0.98" stop-color="#e0a326" stop-opacity="0.12"/><stop offset="1" stop-color="#e0a326" stop-opacity="0"/></radialGradient></defs><title>planete_4.module</title><g class="cls-1"><g id="Calque_2" data-name="Calque 2"><g id="BACKGROUND1"><circle class="cls-2" cx="10.04" cy="10.04" r="10.04"/><circle class="cls-3" cx="355.29" cy="498.36" r="8.76" transform="translate(-587.98 -120.24) rotate(-42.23)"/><path class="cls-3" d="M360.64,499.17c-.07.18-.12.28.15.32a1.41,1.41,0,0,0,.89-.39,7.13,7.13,0,0,0,.89-.86l1.33-1.42,0,.2-1.19,1.38a6.47,6.47,0,0,1-.89.92,3.16,3.16,0,0,1-.5.34,1.08,1.08,0,0,1-.58.14.5.5,0,0,1-.49-.32.6.6,0,0,1,.06-.44c.07-.18.12-.28.12-.28a7.6,7.6,0,0,1,.6-.92c.4-.52,1-1.15,1.46-1.85.28-.39.54-.78.78-1.15l.09.21c-.2.35-.43.72-.67,1.08-.48.72-1,1.38-1.4,1.9a5.48,5.48,0,0,0-.55.88Zm-13-4.4a7.39,7.39,0,0,1,2.28-.29c.42,0,.84,0,1.26,0a2.56,2.56,0,0,0,1.11-.29,3.51,3.51,0,0,0,.63-.5l.22-.21a9.07,9.07,0,0,0,1.83-2.9c.13-.34.24-.68.33-1h-.21c-.1.3-.21.6-.34.91a9.85,9.85,0,0,1-1.17,2,8.3,8.3,0,0,1-.69.79l-.2.2a3.26,3.26,0,0,1-.56.47,2.26,2.26,0,0,1-1,.28c-.38,0-.81,0-1.24,0a7,7,0,0,0-2.32.4l-.28.11-.07.13Zm5.32,10,.19-.18a.58.58,0,0,0,.17-.25.42.42,0,0,0-.06-.42.73.73,0,0,0-.38-.23,3.42,3.42,0,0,0-2,.08c-.68.22-1.32.5-1.82.63l-.07,0,.1.11c.53-.09,1.19-.35,1.86-.52a3.13,3.13,0,0,1,1.82,0,.52.52,0,0,1,.23.12.11.11,0,0,1,0,.11,1.41,1.41,0,0,1-.1.14l-.17.15a2.23,2.23,0,0,1-.49.35,6.08,6.08,0,0,1-1.78.59l-.21,0,.27.19a6.25,6.25,0,0,0,1.87-.54A2.69,2.69,0,0,0,353,504.8Zm-2.07-13.92c-.09.18-.11.31-.09.31s.26-.44.71-.61a1.28,1.28,0,0,1,.6-.12h.11l0,0a3,3,0,0,1-.44.42c-.35.28-.78.42-.77.46a1.49,1.49,0,0,0,.89-.27,2.64,2.64,0,0,0,.54-.41l.13-.14.12-.15.13-.17-.18,0-.16,0-.18,0a8.41,8.41,0,0,0-1.29.6A.51.51,0,0,0,350.89,490.88Zm12.41,11a7.75,7.75,0,0,1-1.92.39,10.56,10.56,0,0,0-2.16.36,5.55,5.55,0,0,0-.94.36,5.87,5.87,0,0,0-.86.52,6.54,6.54,0,0,0-1.57,1.55c-.47.64-.87,1.31-1.27,1.74l-.24.25h.14l.19-.17a16.58,16.58,0,0,0,1.37-1.69,6.73,6.73,0,0,1,1.55-1.43,6.31,6.31,0,0,1,.84-.48,7.11,7.11,0,0,1,.88-.37,12.33,12.33,0,0,1,2.1-.42,7.71,7.71,0,0,0,1.79-.42Zm-6.17,3.5s-.08,0-.18.16a1.76,1.76,0,0,0-.32.56c0,.08-.18.38.08.43a.82.82,0,0,0,.52-.13l.9-.47,1.7-.89.56-.31.2-.15.15-.14a1.64,1.64,0,0,0,.2-.25,1.5,1.5,0,0,0,.11-.22.44.44,0,0,0,0-.41.35.35,0,0,0-.28-.13.68.68,0,0,0-.29.05,4,4,0,0,0-.61.21,5.62,5.62,0,0,0-1.35.81,5.21,5.21,0,0,0-1,1,1.58,1.58,0,0,0-.3.54,7.87,7.87,0,0,1,1.39-1.41A5.06,5.06,0,0,1,360,504a2.08,2.08,0,0,1,.81-.2.53.53,0,0,1-.1.26,2.3,2.3,0,0,1-.16.2l-.12.1a4.2,4.2,0,0,1-.7.46l-1.66.95-.88.51-.2.11a.45.45,0,0,1-.16,0c-.11,0,0-.11,0-.24A3.36,3.36,0,0,1,357.13,505.4Zm-5,.52a6.78,6.78,0,0,0,2.73-2.21,1.4,1.4,0,0,0,.29-.66,1,1,0,0,0-.12-.58,1,1,0,0,0-.24-.28l-.1-.08-.12-.07a1,1,0,0,0-.34-.13,2.65,2.65,0,0,0-1.2.06,31,31,0,0,0-3.32,1.09,15.42,15.42,0,0,1-1.52.46l.12.18c.49-.12,1-.25,1.48-.42a33.05,33.05,0,0,1,3.31-1,2.47,2.47,0,0,1,1.06,0,.84.84,0,0,1,.33.15.73.73,0,0,1,.12,1.15,6.74,6.74,0,0,1-2.58,2.17,5.56,5.56,0,0,1-1,.36l.29.14A7.08,7.08,0,0,0,352.17,505.92Zm-3.48-13.17a.29.29,0,0,1,0-.1c.1-.12.21-.24.32-.35,0,.07,0,.12,0,.12s0,.1,0,.18,0,.07.14.1l.39.06a3.66,3.66,0,0,0,2.08-.43,3.61,3.61,0,0,0,1.49-1.55,7.34,7.34,0,0,0,.36-.94s0,0,0,0v-.05h0l.07,0s0,0,0,0a.31.31,0,0,1-.09.23.25.25,0,0,1,0,.08,2.93,2.93,0,0,1-.22.72,3.65,3.65,0,0,1-1.49,1.7,3.89,3.89,0,0,1-2.23.53,2.62,2.62,0,0,1-.43-.06A.51.51,0,0,1,348.69,492.75Zm4.77-2.85v0Zm2,1.45c-.16.2-.32.4-.47.61a1.09,1.09,0,0,0,.64,1.81,2.11,2.11,0,0,0,1.35,0,3.23,3.23,0,0,0,1.14-.68A12.56,12.56,0,0,0,360,491l-.21-.12a12.17,12.17,0,0,1-1.84,2,3,3,0,0,1-1,.6,2.29,2.29,0,0,1-.32.08,1.75,1.75,0,0,1-.83,0,1,1,0,0,1-.74-.76c0-.39.37-.81.66-1.2a20.52,20.52,0,0,0,1.32-1.74l-.18,0A19.79,19.79,0,0,1,355.46,491.35Zm1.61-.07.49-.72.36-.55-.2-.06-.36.47c-.17.24-.35.48-.52.7a1.59,1.59,0,0,0-.23.36.44.44,0,0,0,.07.5.58.58,0,0,0,.7.06.62.62,0,0,0,.19-.15,1.56,1.56,0,0,0,.14-.17l.32-.44c.19-.28.42-.62.66-1l-.25-.09c-.24.33-.48.64-.67.89l-.32.43-.12.13s-.2.27-.43.11c0,0,0-.07,0-.17A3.3,3.3,0,0,1,357.07,491.28Zm4.47,4.22a24.82,24.82,0,0,1-2.3,2.81,7.16,7.16,0,0,0-.71,1,2.88,2.88,0,0,0-.21.43,2.08,2.08,0,0,0-.11.48,1.49,1.49,0,0,0,.38,1.24,1.17,1.17,0,0,0,.83.35,2.19,2.19,0,0,0,.93-.22,11.4,11.4,0,0,0,1.65-1.08,21.15,21.15,0,0,0,2-1.74c0-.08,0-.15,0-.23a23.37,23.37,0,0,1-2.19,1.78,11.44,11.44,0,0,1-1.62,1,1.83,1.83,0,0,1-.8.17.88.88,0,0,1-.61-.26,1.19,1.19,0,0,1-.28-1,1.81,1.81,0,0,1,.1-.4,2.73,2.73,0,0,1,.18-.39,6.65,6.65,0,0,1,.67-1,23.21,23.21,0,0,0,2.25-2.88,12.28,12.28,0,0,0,1-1.92l-.12-.19A12.15,12.15,0,0,1,361.54,495.5Zm-12.68,2.73a1.39,1.39,0,0,0,.25-.42.55.55,0,0,0,.05-.19.67.67,0,0,0,0-.21.7.7,0,0,0-.08-.23.4.4,0,0,0-.3-.22.55.55,0,0,0-.35.06l-.31.11-.65.3a7.88,7.88,0,0,0-.93.56c0,.06,0,.13,0,.19a8.53,8.53,0,0,1,1-.53,5.64,5.64,0,0,1,.64-.25,1.64,1.64,0,0,1,.51-.14c.06,0,.09.11.1.19a.68.68,0,0,1,0,.12.87.87,0,0,1-.21.45,3.46,3.46,0,0,1-1,.74,11.69,11.69,0,0,1-1,.54l0,.15c.32-.12.72-.28,1.12-.47A3.65,3.65,0,0,0,348.86,498.23Zm-1.44-1.76c.78-.25,1.57-.48,2.17-.64.31-.1.46-.07.55,0a.54.54,0,0,1,.12.17.63.63,0,0,1,.05.22,1.17,1.17,0,0,1-.18.63,14,14,0,0,1-1.19,1.9,5.32,5.32,0,0,1-1.67,1.46,4.42,4.42,0,0,1-.48.21.29.29,0,0,1,0,.09,3.6,3.6,0,0,0,.52-.18,5.37,5.37,0,0,0,1.8-1.43,13.83,13.83,0,0,0,1.28-1.91,1.58,1.58,0,0,0,.24-.79.92.92,0,0,0-.08-.33.66.66,0,0,0-.2-.29.74.74,0,0,0-.4-.17,1.27,1.27,0,0,0-.47.09c-.59.18-1.38.43-2.16.71l-.6.23c0,.08,0,.16-.05.24Zm4.5,4.7c1.1-.18,2.24-.09,3.1-.33a3.22,3.22,0,0,0,1-.42,3,3,0,0,0,.32-.24,6.8,6.8,0,0,0,1-1c.54-.66,1.24-1.55,1.9-2.47s1.28-1.86,1.73-2.58l.53-.88a.19.19,0,1,0-.06,0l-.58.84c-.48.7-1.13,1.62-1.82,2.52s-1.39,1.77-1.94,2.41a6.84,6.84,0,0,1-1,1,2.65,2.65,0,0,1-.3.22,2.92,2.92,0,0,1-.88.4c-.78.23-1.93.19-3.06.39a14.4,14.4,0,0,0-3,.85,9.84,9.84,0,0,0-.93.43,1.63,1.63,0,0,0-.34.2,1.5,1.5,0,0,0,.36-.14c.23-.09.56-.23,1-.37A15.58,15.58,0,0,1,351.92,501.17Zm-3.58-.07a7.08,7.08,0,0,0,2.52-2.15c.35-.5.64-1,.95-1.49a5.34,5.34,0,0,1,1-1.14,3.82,3.82,0,0,1,.87-.58,3.62,3.62,0,0,1,.36-.16s.13-.06.37-.14a5.11,5.11,0,0,1,1-.18c.43,0,1,.06,1.53.08a2.69,2.69,0,0,0,1.72-.56,5.78,5.78,0,0,0,1.22-1.31,14.37,14.37,0,0,0,.83-1.3c.1-.17.18-.33.25-.48l-.08-.07c-.08.15-.18.31-.28.48-.24.38-.53.81-.87,1.26a5.87,5.87,0,0,1-1.21,1.23,2.47,2.47,0,0,1-1.58.47c-.54,0-1.07-.13-1.54-.11a4.48,4.48,0,0,0-1.11.18,3.3,3.3,0,0,0-.4.13l-.39.18a4.57,4.57,0,0,0-.93.65,5.42,5.42,0,0,0-1,1.22c-.3.48-.58,1-.91,1.5a7,7,0,0,1-2.38,2.17,6.84,6.84,0,0,1-1.16.52s0,0,0,.05l.18-.05A5.47,5.47,0,0,0,348.34,501.1Zm7.11-4-.34.23c-.16.11-.26.2-.25.22s.13,0,.32-.11l.24-.11c.06-.05.06.06,0,.09a.64.64,0,0,1-.16.23,1.28,1.28,0,0,1-.23.19,1.83,1.83,0,0,1-.29.14l-.28.17c-.05,0-.05,0-.05,0l0,0s-.09.08-.07,0a.16.16,0,0,1,0-.11,1.66,1.66,0,0,1,.18-.24c.12-.14.22-.23.21-.25s-.14,0-.31.15a1.86,1.86,0,0,0-.26.28,2.08,2.08,0,0,0-.27.51c-.17.3.11.1.22.09l.51-.26.3-.14.08-.05a2.06,2.06,0,0,0,.21-.13,1.31,1.31,0,0,0,.27-.26.79.79,0,0,0,.2-.44.49.49,0,0,0-.07-.28C355.61,497,355.52,497.1,355.45,497.13Zm1.21-1.35a.66.66,0,0,1,.52.65,1.52,1.52,0,0,1-.21.71c-.11.19-.22.37-.33.53a6.18,6.18,0,0,1-.61.7l-.27.23a4.88,4.88,0,0,1-1.09.66,5.06,5.06,0,0,1-1.26.38,5.65,5.65,0,0,1-.73.07l-.38,0a.5.5,0,0,1-.42-.2.4.4,0,0,1,0-.47,1.14,1.14,0,0,1,.29-.29l.49-.35a1.4,1.4,0,0,1,.23-.25c.15-.15.39-.36.68-.6a14.2,14.2,0,0,1,2.29-1.51A1.33,1.33,0,0,1,356.66,495.78Zm0,.25a1.28,1.28,0,0,0-.62.2,14.91,14.91,0,0,0-2.32,1.41c-.31.22-.56.42-.73.55l.87-.62.74-.51.29-.18s-.08.09-.25.23l-.7.57-1,.78-.57.44c-.18.13-.35.36-.26.46s.38.08.6.08a4.06,4.06,0,0,0,.7-.08,4.59,4.59,0,0,0,1.17-.38,4.66,4.66,0,0,0,1-.65,2.58,2.58,0,0,0,.25-.21,4.33,4.33,0,0,0,.59-.64,2.31,2.31,0,0,0,.51-1A.42.42,0,0,0,356.62,496Z" transform="translate(-345.25 -488.33)"/><path class="cls-4" d="M351.7,494a8.7,8.7,0,0,0-4.6,1.32,8.74,8.74,0,0,0,12.79,10.52A8.74,8.74,0,0,0,351.7,494Z" transform="translate(-345.25 -488.33)"/><path class="cls-5" d="M354.37,491.07a8.47,8.47,0,0,1,8.47,8.47,8.34,8.34,0,0,1-.85,3.66,8.38,8.38,0,0,0,1.51-4.81,8.47,8.47,0,0,0-16.1-3.67A8.45,8.45,0,0,1,354.37,491.07Z" transform="translate(-345.25 -488.33)"/><path class="cls-4" d="M347.7,496.37a8,8,0,0,0,1.89,7.69c3.33,3.45,8.15,2.16,9,.62s-2.06-4.21-5-3.95-2.15-4.17-3.65-5.14S348,495.78,347.7,496.37Z" transform="translate(-345.25 -488.33)"/><g class="cls-6"><path class="cls-5" d="M351.72,492.55c.21-.46,1.75-3,6-1.54s5.2,6.48,4.17,7.92-2.89.78-4.07-1.34-4.32-1.68-5.43-2.88S351.5,493,351.72,492.55Z" transform="translate(-345.25 -488.33)"/><path class="cls-7" d="M358.07,492.59c-.14.51-1,.71-2,.45s-1.61-.9-1.47-1.41,1-.72,2-.45S358.21,492.07,358.07,492.59Z" transform="translate(-345.25 -488.33)"/><path class="cls-7" d="M360.27,493.9c-.19.23-.69.12-1.1-.23s-.61-.82-.42-1,.68-.13,1.1.23S360.46,493.67,360.27,493.9Z" transform="translate(-345.25 -488.33)"/></g></g></g></g></svg>