<svg xmlns="http://www.w3.org/2000/svg" xmlns:xlink="http://www.w3.org/1999/xlink" viewBox="0 0 62.63 62.63"><defs><style>.cls-1{isolation:isolate;}.cls-2{fill:url(#radial-gradient);}.cls-3{fill:url(#radial-gradient-2);}.cls-10,.cls-11,.cls-4,.cls-6,.cls-8,.cls-9{mix-blend-mode:screen;}.cls-4{fill:url(#radial-gradient-3);}.cls-5,.cls-7{opacity:0.34;mix-blend-mode:color-burn;}.cls-5{fill:url(#radial-gradient-4);}.cls-6,.cls-9{opacity:0.45;}.cls-6{fill:url(#radial-gradient-5);}.cls-7{fill:url(#radial-gradient-6);}.cls-9{fill:url(#radial-gradient-7);}.cls-10{fill:url(#radial-gradient-8);}.cls-11{fill:url(#radial-gradient-9);}</style><radialGradient id="radial-gradient" cx="31.43" cy="30.89" r="31.9" gradientUnits="userSpaceOnUse"><stop offset="0.06" stop-color="#fce085"/><stop offset="0.41" stop-color="#fcdf86" stop-opacity="0.99"/><stop offset="0.54" stop-color="#fbdd89" stop-opacity="0.97"/><stop offset="0.63" stop-color="#fad98f" stop-opacity="0.92"/><stop offset="0.7" stop-color="#f9d397" stop-opacity="0.85"/><stop offset="0.76" stop-color="#f8cba1" stop-opacity="0.76"/><stop offset="0.82" stop-color="#f5c2ae" stop-opacity="0.66"/><stop offset="0.87" stop-color="#f3b6be" stop-opacity="0.53"/><stop offset="0.91" stop-color="#f0a9d0" stop-opacity="0.38"/><stop offset="0.96" stop-color="#ed9ae4" stop-opacity="0.21"/><stop offset="1" stop-color="#e98afa" stop-opacity="0.03"/><stop offset="1" stop-color="#e988fd" stop-opacity="0"/></radialGradient><radialGradient id="radial-gradient-2" cx="26.41" cy="19.41" r="50.8" gradientUnits="userSpaceOnUse"><stop offset="0.06" stop-color="#fce085"/><stop offset="0.96" stop-color="#e988fd"/></radialGradient><radialGradient id="radial-gradient-3" cx="644.37" cy="436.88" r="81.47" gradientUnits="userSpaceOnUse"><stop offset="0.06" stop-color="#66b0d8"/><stop offset="1" stop-color="#3f1f7d"/></radialGradient><radialGradient id="radial-gradient-4" cx="650.81" cy="459.91" r="39.08" xlink:href="#radial-gradient-2"/><radialGradient id="radial-gradient-5" cx="656.31" cy="447.41" r="42" xlink:href="#radial-gradient-2"/><radialGradient id="radial-gradient-6" cx="650.25" cy="461.94" r="32.42" xlink:href="#radial-gradient-2"/><radialGradient id="radial-gradient-7" cx="756.92" cy="-149.79" r="47.23" gradientTransform="matrix(0.62, 1.2, -1.06, 0.54, 62.9, -413.26)" xlink:href="#radial-gradient-2"/><radialGradient id="radial-gradient-8" cx="964.13" cy="-153.4" r="15.68" gradientTransform="translate(-310.94 322.35) rotate(15.52)" xlink:href="#radial-gradient-2"/><radialGradient id="radial-gradient-9" cx="863.76" cy="-179.63" r="8.65" gradientTransform="translate(-103.65 22.38) rotate(40.01)" xlink:href="#radial-gradient-2"/></defs><title>planete_5.module</title><g class="cls-1"><g id="Calque_2" data-name="Calque 2"><g id="BACKGROUND1"><circle class="cls-2" cx="31.32" cy="31.32" r="31.32"/><circle class="cls-3" cx="31.32" cy="31.32" r="27.33"/><path class="cls-4" d="M677,464.58c-.23.57-.38.87.48,1a4.42,4.42,0,0,0,2.75-1.21,24,24,0,0,0,2.78-2.68l4.16-4.44c0,.2.06.41.09.61-1.11,1.31-2.4,2.82-3.7,4.33a22.82,22.82,0,0,1-2.78,2.86,9,9,0,0,1-1.57,1.06,3.23,3.23,0,0,1-1.8.44,1.59,1.59,0,0,1-1.54-1,2,2,0,0,1,.18-1.37c.24-.56.4-.87.4-.87a20.33,20.33,0,0,1,1.87-2.87c1.23-1.62,3-3.6,4.54-5.77.88-1.2,1.7-2.44,2.44-3.6l.28.66c-.63,1.1-1.34,2.25-2.1,3.37-1.49,2.25-3.23,4.32-4.38,5.92a19.53,19.53,0,0,0-1.71,2.78S677.24,464.07,677,464.58Zm-40.58-13.74a24.06,24.06,0,0,1,7.12-.91c1.3,0,2.63.19,3.92.13a7.43,7.43,0,0,0,3.47-.91,10.22,10.22,0,0,0,2-1.54l.66-.65a24.34,24.34,0,0,0,2.16-2.6,29,29,0,0,0,3.56-6.46,26.34,26.34,0,0,0,1-3.16h0l-.63,0a29.64,29.64,0,0,1-1,2.84,29.3,29.3,0,0,1-3.65,6.17,23.92,23.92,0,0,1-2.15,2.44l-.61.65a10,10,0,0,1-1.76,1.44,6.56,6.56,0,0,1-3,.87c-1.2.09-2.52,0-3.86,0a23.15,23.15,0,0,0-7.25,1.26l-.87.34c-.07.15-.15.28-.21.43C635.59,451.09,636,451,636.43,450.84ZM653,482.14c.39-.33.61-.54.61-.54a2.58,2.58,0,0,0,.51-.79,1.36,1.36,0,0,0-.17-1.32,2.43,2.43,0,0,0-1.2-.71,10.46,10.46,0,0,0-6.2.26c-2.13.66-4.12,1.55-5.7,2l-.21.05c.11.11.21.24.32.35,1.64-.29,3.72-1.09,5.79-1.64a9.8,9.8,0,0,1,5.68-.06,1.51,1.51,0,0,1,.72.41.3.3,0,0,1,0,.32,1.87,1.87,0,0,1-.33.45s-.17.17-.51.47a7.15,7.15,0,0,1-1.52,1.09,19.52,19.52,0,0,1-5.58,1.83l-.66.13.87.59a19.47,19.47,0,0,0,5.83-1.69A8.36,8.36,0,0,0,653,482.14Zm-6.46-43.42c-.29.54-.34.95-.28,1s.83-1.38,2.21-1.91a4.18,4.18,0,0,1,1.88-.37,1.44,1.44,0,0,1,.3,0h0s0,0-.1.15a8.8,8.8,0,0,1-1.38,1.32c-1.08.87-2.41,1.31-2.38,1.44a4.82,4.82,0,0,0,2.78-.84,8.6,8.6,0,0,0,1.68-1.28c.07-.08.26-.27.4-.45l.38-.47.41-.54-.58-.16s-.18-.05-.5-.11c-.15,0-.33-.07-.55-.09a26.42,26.42,0,0,0-4,1.86A2.47,2.47,0,0,0,646.58,438.72Zm38.71,34.37a23,23,0,0,1-6,1.21,34.73,34.73,0,0,0-6.74,1.13,19,19,0,0,0-2.93,1.13,18.47,18.47,0,0,0-2.69,1.63,20.89,20.89,0,0,0-4.89,4.82,67.06,67.06,0,0,1-4,5.43c-.26.3-.52.55-.76.78l.45,0c.2-.17.39-.33.6-.53a51.47,51.47,0,0,0,4.28-5.27A20.6,20.6,0,0,1,667.5,479a18.46,18.46,0,0,1,2.61-1.48,18.09,18.09,0,0,1,2.76-1.15,34.86,34.86,0,0,1,6.54-1.31,24.14,24.14,0,0,0,5.58-1.34C685.09,473.51,685.2,473.3,685.29,473.09ZM666.06,484s-.25.14-.57.5a5.41,5.41,0,0,0-1,1.74c-.06.26-.56,1.19.27,1.36a2.44,2.44,0,0,0,1.61-.43l2.83-1.46,5.28-2.76a19.18,19.18,0,0,0,1.75-1,6.59,6.59,0,0,0,.64-.47,4.85,4.85,0,0,0,.44-.41,4.77,4.77,0,0,0,.63-.79,4.41,4.41,0,0,0,.35-.69,1.34,1.34,0,0,0-.09-1.29,1.14,1.14,0,0,0-.89-.41,2.75,2.75,0,0,0-.88.16,15.57,15.57,0,0,0-1.9.66,16.83,16.83,0,0,0-4.21,2.53,16,16,0,0,0-3,3.23,6.26,6.26,0,0,0-.93,1.68,24,24,0,0,1,4.34-4.4,16.71,16.71,0,0,1,4.14-2.22,6.4,6.4,0,0,1,2.54-.61c.07-.05-.13.57-.32.8a3.61,3.61,0,0,1-.5.61,4,4,0,0,1-.38.34,13.92,13.92,0,0,1-2.18,1.42l-5.17,3-2.75,1.59a5.73,5.73,0,0,1-.63.34,1,1,0,0,1-.49.12c-.34,0-.17-.33-.09-.75A9.82,9.82,0,0,1,666.06,484Zm-15.48,1.61a21.39,21.39,0,0,0,8.53-6.88,4.73,4.73,0,0,0,.89-2.05,2.83,2.83,0,0,0-.38-1.81,3.54,3.54,0,0,0-.75-.9,3.89,3.89,0,0,0-.32-.25,3.47,3.47,0,0,0-.35-.21,3.8,3.8,0,0,0-1.06-.4,8.14,8.14,0,0,0-3.76.2A95.24,95.24,0,0,0,643,476.71c-1.59.58-3.2,1.06-4.76,1.46.13.18.26.36.4.53,1.51-.34,3.07-.77,4.6-1.28a100.34,100.34,0,0,1,10.32-3.14,7.4,7.4,0,0,1,3.31-.15,2.75,2.75,0,0,1,1.05.48,2.38,2.38,0,0,1,.78.8c.41.58.42,1.63-.43,2.79a20.92,20.92,0,0,1-8,6.75,17.2,17.2,0,0,1-3,1.14c.29.16.6.28.9.43A16.53,16.53,0,0,0,650.58,485.63Zm-10.86-41.07a1.67,1.67,0,0,1-.11-.31c.33-.38.66-.75,1-1.11,0,.24,0,.37,0,.37a1.37,1.37,0,0,0,.07.59c.07.12.12.19.45.28s.77.14,1.22.19a11.2,11.2,0,0,0,11.14-6.17,24.43,24.43,0,0,0,1.13-2.94s0,0,0,.06a.57.57,0,0,0,0-.13v0l.21-.06s0,.06,0,.08a.88.88,0,0,1-.26.71c0,.08,0,.16,0,.26a10.42,10.42,0,0,1-.68,2.23,11.59,11.59,0,0,1-4.65,5.32,12.11,12.11,0,0,1-7,1.65,12.41,12.41,0,0,1-1.35-.17A1.58,1.58,0,0,1,639.72,444.56Zm14.88-8.89s0,0,0,.07S654.59,435.69,654.6,435.67Zm6.25,4.52c-.51.62-1,1.24-1.47,1.9a3.41,3.41,0,0,0,2,5.64,6.65,6.65,0,0,0,3.08.25,6.92,6.92,0,0,0,1.14-.27,10.27,10.27,0,0,0,3.54-2.13,37.74,37.74,0,0,0,5.74-6.61l-.65-.39a38.48,38.48,0,0,1-5.72,6.26,9.31,9.31,0,0,1-3.24,1.87,6.71,6.71,0,0,1-1,.25,5.7,5.7,0,0,1-2.6-.15,3.11,3.11,0,0,1-2.3-2.4c0-1.21,1.15-2.51,2-3.74a53.1,53.1,0,0,0,4.11-5.42c-.18,0-.37-.05-.56-.08A62.18,62.18,0,0,1,660.85,440.19Zm5-.23,1.51-2.24,1.13-1.72c-.2-.07-.42-.11-.63-.17-.37.48-.74,1-1.11,1.46-.55.74-1.11,1.48-1.62,2.18a5.88,5.88,0,0,0-.74,1.12,1.41,1.41,0,0,0,.24,1.57,1.83,1.83,0,0,0,2.17.18,2.79,2.79,0,0,0,.6-.47,6.13,6.13,0,0,0,.44-.54l1-1.38c.6-.85,1.33-1.93,2.09-3.07-.26-.11-.54-.19-.8-.29-.76,1-1.49,2-2.08,2.79l-1,1.32a4.37,4.37,0,0,1-.38.43c0-.06-.6.81-1.33.32-.1-.1-.16-.22-.06-.51A6,6,0,0,1,665.88,440Zm13.93,13.18c-2.17,3.49-5.15,6.34-7.16,8.76a21.79,21.79,0,0,0-2.24,3.11,8.79,8.79,0,0,0-.64,1.36,5.83,5.83,0,0,0-.36,1.49,4.81,4.81,0,0,0,1.21,3.88,3.76,3.76,0,0,0,2.57,1.09,6.72,6.72,0,0,0,2.9-.69,35,35,0,0,0,5.15-3.37,63.81,63.81,0,0,0,6.32-5.43c0-.24,0-.48,0-.73a71,71,0,0,1-6.8,5.56,35.18,35.18,0,0,1-5.07,3.17,5.89,5.89,0,0,1-2.5.56,2.76,2.76,0,0,1-1.91-.84,3.82,3.82,0,0,1-.88-3.07,5,5,0,0,1,.33-1.26,7.47,7.47,0,0,1,.55-1.22,23.29,23.29,0,0,1,2.08-3c1.91-2.37,4.91-5.35,7-9a37.58,37.58,0,0,0,3-6c-.13-.2-.24-.42-.37-.61A38.44,38.44,0,0,1,679.81,453.14Zm-39.56,8.49a4,4,0,0,0,.79-1.3,3.16,3.16,0,0,0,.16-.58,1.93,1.93,0,0,0,0-.65,2,2,0,0,0-.24-.74,1.32,1.32,0,0,0-.93-.69,2.13,2.13,0,0,0-1.12.19l-.95.36c-.66.27-1.35.58-2,.93a21.73,21.73,0,0,0-2.91,1.76c0,.19,0,.38,0,.58a27.35,27.35,0,0,1,3.26-1.66c.67-.3,1.36-.56,2-.78a5.42,5.42,0,0,1,1.58-.42c.19,0,.31.35.32.58a1.21,1.21,0,0,1,0,.37,2.58,2.58,0,0,1-.65,1.43,10.58,10.58,0,0,1-3.13,2.3c-1.13.65-2.28,1.23-3.23,1.68,0,.16.05.31.07.46a34.24,34.24,0,0,0,3.5-1.47A11,11,0,0,0,640.25,461.63Zm-4.5-5.47c2.45-.79,4.91-1.51,6.77-2,1-.31,1.43-.2,1.73.1a1.43,1.43,0,0,1,.37.54,1.72,1.72,0,0,1,.16.68,3.89,3.89,0,0,1-.55,2,46.25,46.25,0,0,1-3.73,5.92,16.57,16.57,0,0,1-5.21,4.56,13,13,0,0,1-1.49.68,2,2,0,0,0,.07.26,9.3,9.3,0,0,0,1.61-.57,16.37,16.37,0,0,0,5.6-4.46,43.41,43.41,0,0,0,4-5.93,4.91,4.91,0,0,0,.73-2.47,2.77,2.77,0,0,0-.23-1.05,2.39,2.39,0,0,0-.64-.89,2.12,2.12,0,0,0-1.23-.53,4.35,4.35,0,0,0-1.46.26c-1.86.56-4.33,1.35-6.75,2.24l-1.87.7c-.06.26-.11.51-.16.77C634.22,456.66,635,456.41,635.75,456.16Zm14,14.66c3.45-.55,7-.29,9.69-1a10.46,10.46,0,0,0,3.07-1.32,11,11,0,0,0,1-.74,22.14,22.14,0,0,0,3.11-3.25c1.69-2.05,3.86-4.84,5.92-7.71s4-5.81,5.41-8.06c.69-1.13,1.26-2.08,1.64-2.75a5.31,5.31,0,0,0,.55-1.09,5.79,5.79,0,0,0-.73,1l-1.81,2.63c-1.5,2.17-3.53,5.05-5.66,7.84s-4.35,5.53-6.06,7.53a21.53,21.53,0,0,1-3,3.06,10.13,10.13,0,0,1-.93.69,9.14,9.14,0,0,1-2.75,1.25c-2.44.73-6,.57-9.55,1.22a45,45,0,0,0-9.37,2.64c-1.23.51-2.23,1-2.91,1.34a5,5,0,0,0-1,.62,5.64,5.64,0,0,0,1.14-.42c.71-.29,1.73-.71,3-1.15A47.69,47.69,0,0,1,649.79,470.82Zm-11.17-.21a21.7,21.7,0,0,0,7.86-6.72c1.1-1.55,2-3.19,3-4.64a16.34,16.34,0,0,1,3-3.56,13.29,13.29,0,0,1,2.71-1.81,10.72,10.72,0,0,1,1.13-.5,9.87,9.87,0,0,1,1.17-.42,13.23,13.23,0,0,1,3.21-.57c1.34-.09,2.94.19,4.75.23a8.31,8.31,0,0,0,5.38-1.73,17.87,17.87,0,0,0,3.8-4.1,43.07,43.07,0,0,0,2.59-4.06c.3-.53.56-1,.8-1.48-.09-.07-.17-.16-.25-.23q-.4.69-.9,1.5c-.75,1.18-1.66,2.53-2.72,3.92a17.54,17.54,0,0,1-3.76,3.84,7.5,7.5,0,0,1-4.92,1.46c-1.69-.07-3.34-.39-4.81-.32a14.1,14.1,0,0,0-3.47.54,12.06,12.06,0,0,0-1.26.43s-.46.18-1.21.57a13.67,13.67,0,0,0-2.89,2,17.32,17.32,0,0,0-3.09,3.81c-1,1.51-1.82,3.16-2.85,4.69a21.71,21.71,0,0,1-7.44,6.78,23.68,23.68,0,0,1-3.6,1.63l.06.14.56-.15A19.49,19.49,0,0,0,638.62,470.61Zm22.18-12.4c-.59.37-.78.52-1,.71-.51.37-.83.63-.79.7s.43-.09,1-.34c.27-.12.7-.33.77-.34s.17.18.13.27a2.36,2.36,0,0,1-.5.73,4.17,4.17,0,0,1-.74.58c-.47.29-.89.45-.87.46l-.88.51c-.18.1-.16.1-.18.12l-.08.08c-.05,0-.28.24-.24.1a.81.81,0,0,1,.09-.33,4.59,4.59,0,0,1,.54-.74c.39-.46.71-.72.67-.78s-.44.08-.95.48a4.11,4.11,0,0,0-.84.84,6.3,6.3,0,0,0-.84,1.6c-.54.93.34.33.7.28l1.59-.79.94-.46.25-.14a4.65,4.65,0,0,0,.66-.43,4.43,4.43,0,0,0,.84-.8,2.46,2.46,0,0,0,.61-1.38,1.63,1.63,0,0,0-.21-.87C661.32,457.87,661,458.12,660.8,458.21Zm3.78-4.22A2.06,2.06,0,0,1,666.2,456a4.49,4.49,0,0,1-.65,2.21,18.66,18.66,0,0,1-1,1.64,15.4,15.4,0,0,1-1.91,2.18,10.09,10.09,0,0,1-.83.73,16,16,0,0,1-7.32,3.25,17.11,17.11,0,0,1-2.3.2l-1.19,0a1.67,1.67,0,0,1-1.31-.62,1.31,1.31,0,0,1,.11-1.49,3.62,3.62,0,0,1,.9-.89l1.52-1.09a4.14,4.14,0,0,1,.72-.78c.48-.48,1.21-1.13,2.11-1.87a44.86,44.86,0,0,1,7.16-4.72A4.25,4.25,0,0,1,664.58,454Zm-.13.81a3.62,3.62,0,0,0-1.93.62,48.58,48.58,0,0,0-7.25,4.38c-.95.7-1.72,1.3-2.26,1.72l2.71-1.93L658,458a4.26,4.26,0,0,1,.92-.55,4.88,4.88,0,0,1-.79.72L656,459.92c-.92.72-2,1.56-3.13,2.45l-1.77,1.38c-.55.39-1.07,1.13-.79,1.42s1.17.25,1.87.27a16.78,16.78,0,0,0,2.16-.25A15.33,15.33,0,0,0,658,464a14.26,14.26,0,0,0,3.15-2,7.26,7.26,0,0,0,.79-.66,13.59,13.59,0,0,0,1.83-2,6.85,6.85,0,0,0,1.59-3.25A1.23,1.23,0,0,0,664.45,454.8Z" transform="translate(-628.99 -430.75)"/><path class="cls-5" d="M649.11,448.32a27.11,27.11,0,0,0-14.35,4.11,27.28,27.28,0,0,0,39.9,32.85,27.27,27.27,0,0,0-25.55-37Z" transform="translate(-628.99 -430.75)"/><path class="cls-6" d="M657.43,439.3a26.37,26.37,0,0,1,23.79,37.87,26.41,26.41,0,1,0-45.51-26.47A26.36,26.36,0,0,1,657.43,439.3Z" transform="translate(-628.99 -430.75)"/><path class="cls-7" d="M636.64,455.84s-4.48,13.21,5.89,24,25.43,6.75,28.17,1.95-6.41-13.13-15.56-12.32-6.71-13-11.39-16.06S637.45,454,636.64,455.84Z" transform="translate(-628.99 -430.75)"/><g class="cls-8"><path class="cls-9" d="M649.17,443.92c.65-1.43,5.47-9.28,18.86-4.8s16.21,20.22,13,24.72-9,2.42-12.69-4.2-13.49-5.22-16.94-9S648.5,445.42,649.17,443.92Z" transform="translate(-628.99 -430.75)"/><path class="cls-10" d="M669,444c-.44,1.6-3.22,2.24-6.19,1.41s-5-2.8-4.58-4.4,3.22-2.24,6.19-1.42S669.44,442.43,669,444Z" transform="translate(-628.99 -430.75)"/><path class="cls-11" d="M675.84,448.14c-.59.7-2.13.38-3.43-.71s-1.89-2.56-1.29-3.26,2.12-.39,3.43.71S676.43,447.43,675.84,448.14Z" transform="translate(-628.99 -430.75)"/></g></g></g></g></svg>